<svg width="60" height="60" viewBox="0 0 60 60" fill="none" xmlns="http://www.w3.org/2000/svg">
<path d="M30.4992 20.0005C30.171 19.994 29.8449 20.0535 29.5402 20.1754C29.2355 20.2973 28.9584 20.4791 28.7256 20.7101C28.4927 20.941 28.3087 21.2163 28.1846 21.5197C28.0604 21.823 27.9987 22.1482 28.003 22.4759C27.9863 22.8088 28.0392 23.1417 28.1584 23.4531C28.2775 23.7646 28.4603 24.0479 28.6951 24.285C28.9299 24.5222 29.2115 24.7079 29.5221 24.8305C29.8327 24.9531 30.1655 25.0098 30.4992 24.997C30.834 25.0137 31.1685 24.9597 31.4809 24.8385C31.7933 24.7173 32.0766 24.5317 32.3122 24.2937C32.5478 24.0558 32.7304 23.7708 32.8482 23.4576C32.9659 23.1443 33.0161 22.8098 32.9955 22.4759C33.0001 22.1481 32.9386 21.8228 32.8146 21.5193C32.6905 21.2158 32.5066 20.9403 32.2736 20.7093C32.0407 20.4783 31.7635 20.2965 31.4587 20.1748C31.1538 20.053 30.8275 19.9937 30.4992 20.0005Z" fill="white"/>
<path d="M38.4992 26.0005C38.171 25.994 37.8448 26.0534 37.5401 26.1753C37.2354 26.2972 36.9583 26.479 36.7254 26.7099C36.4925 26.9409 36.3085 27.2162 36.1844 27.5196C36.0603 27.823 35.9986 28.1482 36.003 28.4759C35.9863 28.8089 36.0392 29.1417 36.1584 29.4531C36.2775 29.7646 36.4603 30.0479 36.6951 30.285C36.9299 30.5222 37.2115 30.7079 37.5221 30.8305C37.8327 30.9531 38.1655 31.0098 38.4992 30.997C38.834 31.0137 39.1685 30.9597 39.4809 30.8385C39.7933 30.7173 40.0766 30.5317 40.3122 30.2937C40.5478 30.0558 40.7304 29.7708 40.8482 29.4576C40.9659 29.1443 41.0161 28.8098 40.9955 28.4759C41.0001 28.1481 40.9386 27.8228 40.8146 27.5193C40.6905 27.2158 40.5066 26.9403 40.2736 26.7093C40.0407 26.4783 39.7635 26.2965 39.4587 26.1748C39.1538 26.053 38.8275 25.9937 38.4992 26.0005Z" fill="white"/>
<path d="M35.499 36.0005C35.1708 35.994 34.8446 36.0534 34.5399 36.1753C34.2351 36.2972 33.9581 36.479 33.7252 36.71C33.4923 36.9409 33.3084 37.2163 33.1843 37.5196C33.0602 37.823 32.9986 38.1482 33.003 38.4759C32.9863 38.8088 33.0392 39.1416 33.1584 39.453C33.2775 39.7645 33.4603 40.0477 33.695 40.2849C33.9298 40.522 34.2114 40.7077 34.522 40.8304C34.8325 40.953 35.1653 41.0097 35.499 40.997C35.8338 41.0137 36.1683 40.9597 36.4808 40.8385C36.7932 40.7173 37.0765 40.5317 37.3121 40.2937C37.5478 40.0558 37.7304 39.7708 37.8482 39.4576C37.9659 39.1443 38.0161 38.8098 37.9955 38.4759C38.0002 38.1481 37.9387 37.8228 37.8147 37.5192C37.6907 37.2157 37.5067 36.9402 37.2737 36.7092C37.0407 36.4782 36.7635 36.2964 36.4586 36.1746C36.1537 36.0529 35.8273 35.9937 35.499 36.0005Z" fill="white"/>
<path d="M21.9991 26.0005C21.6052 25.994 21.2138 26.0534 20.8481 26.1753C20.4825 26.2972 20.15 26.479 19.8705 26.7099C19.591 26.9409 19.3703 27.2162 19.2213 27.5196C19.0724 27.823 18.9984 28.1482 19.0036 28.4759C18.9836 28.8089 19.0471 29.1417 19.1901 29.4531C19.3331 29.7646 19.5524 30.0479 19.8341 30.285C20.1159 30.5222 20.4538 30.7079 20.8266 30.8305C21.1993 30.9531 21.5986 31.0098 21.9991 30.997C22.4008 31.0137 22.8022 30.9597 23.1771 30.8385C23.552 30.7173 23.8919 30.5317 24.1746 30.2937C24.4574 30.0558 24.6765 29.7708 24.8178 29.4576C24.9591 29.1443 25.0193 28.8098 24.9946 28.4759C25.0002 28.1481 24.9264 27.8228 24.7776 27.5192C24.6288 27.2157 24.4081 26.9402 24.1285 26.7092C23.849 26.4782 23.5163 26.2964 23.1505 26.1746C22.7846 26.0529 22.393 25.9937 21.9991 26.0005Z" fill="white"/>
<path d="M25.4992 36.0005C25.171 35.994 24.8449 36.0535 24.5402 36.1754C24.2355 36.2973 23.9584 36.4791 23.7256 36.7101C23.4927 36.941 23.3087 37.2163 23.1846 37.5197C23.0604 37.823 22.9987 38.1482 23.003 38.4759C22.9863 38.8088 23.0392 39.1417 23.1584 39.4531C23.2775 39.7646 23.4603 40.0479 23.6951 40.285C23.9299 40.5222 24.2115 40.7079 24.5221 40.8305C24.8327 40.9531 25.1655 41.0098 25.4992 40.997C25.834 41.0137 26.1685 40.9597 26.4809 40.8385C26.7933 40.7173 27.0766 40.5317 27.3122 40.2937C27.5478 40.0558 27.7304 39.7708 27.8482 39.4576C27.9659 39.1443 28.0161 38.8098 27.9955 38.4759C28.0001 38.1481 27.9386 37.8228 27.8146 37.5193C27.6905 37.2158 27.5066 36.9403 27.2736 36.7093C27.0407 36.4783 26.7635 36.2965 26.4587 36.1748C26.1538 36.053 25.8275 35.9937 25.4992 36.0005Z" fill="white"/>
<path d="M49.7537 13.3535C48.0104 12.7217 46.1739 12.3901 44.3212 12.3727L45.4054 13.2019C44.649 10.6557 43.2602 8.34592 41.3702 6.49093C39.4803 4.63594 37.1518 3.29709 34.6049 2.60097C32.1489 1.88681 29.5537 1.80778 27.0594 2.37122C24.565 2.93465 22.252 4.12234 20.3341 5.82448C18.1648 7.81523 16.5818 10.3692 15.7586 13.2062L16.8405 12.3765C11.3641 12.3487 5.94649 15.1833 3.10374 19.9456C1.8962 22.0304 1.18699 24.3697 1.03223 26.7782C0.877481 29.1868 1.28143 31.5986 2.21211 33.8228C3.37672 36.8056 5.37415 39.3849 7.96306 41.2492L7.44875 39.9731C6.98329 42.5579 7.12339 45.2163 7.85791 47.7369C8.59242 50.2575 9.90106 52.5706 11.6797 54.4921C13.1131 56.0322 14.8683 57.2325 16.8183 58.0065C18.7684 58.7804 20.8648 59.1087 22.9562 58.9676C25.8257 58.7643 28.6045 57.8686 31.058 56.3562H29.926C33.8741 58.784 38.9359 59.7883 43.401 58.3061C47.5412 56.9316 50.7033 53.6446 52.416 49.6587C53.7597 46.6203 54.1502 43.2411 53.5353 39.9731L53.021 41.2492C54.9822 39.8281 56.616 37.9978 57.8111 35.8832C59.0063 33.7686 59.7346 31.4193 59.9464 28.9955C60.1208 26.921 59.8685 24.8325 59.2055 22.8605C58.5424 20.8886 57.4828 19.0754 56.0928 17.5343C54.3411 15.6515 52.1676 14.218 49.7537 13.3535C49.4668 13.2764 49.1614 13.3159 48.9032 13.4635C48.645 13.6112 48.4547 13.8551 48.3735 14.1427C48.3008 14.4315 48.3418 14.7374 48.4878 14.9965C48.6338 15.2556 48.8736 15.4479 49.1571 15.5331C50.8888 16.1561 52.4707 17.1396 53.7996 18.4195C55.1286 19.6994 56.1747 21.247 56.8699 22.9614C57.5136 24.6854 57.8045 26.5225 57.7252 28.3626C57.6459 30.2026 57.198 32.0075 56.4084 33.6688C55.4198 35.9132 53.8601 37.8549 51.8872 39.2975C51.6803 39.4299 51.5195 39.6241 51.4273 39.8529C51.3351 40.0817 51.3161 40.3337 51.3729 40.574C51.7499 42.7976 51.6065 45.0791 50.9541 47.2371C50.3016 49.3951 49.1582 51.3699 47.6146 53.0047C46.3891 54.2983 44.8934 55.3014 43.2358 55.9416C41.5781 56.5819 39.7999 56.8431 38.0297 56.7066C35.5572 56.511 33.1673 55.7212 31.0603 54.4036C30.8887 54.3021 30.6932 54.2486 30.4941 54.2486C30.2951 54.2486 30.0996 54.3021 29.9279 54.4036C26.5026 56.5102 22.209 57.411 18.3218 56.1712C14.7683 55.0383 12.1533 52.1854 10.645 48.8295C9.46534 46.2499 9.10608 43.3662 9.61634 40.573C9.67316 40.3328 9.65415 40.0807 9.56196 39.8519C9.46977 39.6231 9.30899 39.4289 9.10202 39.2965C5.40786 36.7082 3.15658 31.9836 3.23185 27.4793C3.26661 25.4716 3.76887 23.5001 4.69821 21.7235C5.62755 19.9468 6.95802 18.4147 8.58257 17.2504C11.0013 15.5415 13.886 14.6284 16.8405 14.6366C17.0852 14.6325 17.3222 14.5498 17.5169 14.4006C17.7116 14.2513 17.8538 14.0434 17.9229 13.807C19.2157 9.5584 22.3745 6.0552 26.6602 4.77493C28.8575 4.15853 31.1726 4.10205 33.3969 4.61059C35.6213 5.11912 37.6853 6.1767 39.4029 7.68814C41.2358 9.31543 42.5675 11.4373 43.2406 13.8027C43.3097 14.0392 43.452 14.2472 43.6467 14.3964C43.8414 14.5457 44.0784 14.6283 44.323 14.6324C45.974 14.6544 47.6093 14.9588 49.159 15.5327C49.4459 15.6093 49.7512 15.5695 50.0093 15.4218C50.2674 15.2742 50.4576 15.0305 50.5392 14.743C50.6121 14.4541 50.571 14.1479 50.4246 13.8888C50.2781 13.6297 50.0377 13.4379 49.7537 13.3535Z" fill="#727272"/>
<path d="M30.5011 19.0004C29.7566 19.0003 29.0313 19.2371 28.4305 19.6765C27.8297 20.1159 27.3845 20.7351 27.1595 21.4443C26.9497 22.1226 26.9468 22.8479 27.1511 23.5278C27.3554 24.2077 27.7576 24.8115 28.3065 25.2621C28.8798 25.6901 29.5646 25.9434 30.2786 25.9916C30.9926 26.0397 31.7053 25.8807 32.3309 25.5335C32.9408 25.1522 33.4204 24.5949 33.7066 23.9354C33.9928 23.2759 34.072 22.5451 33.9337 21.8396C33.7856 21.0394 33.3608 20.3166 32.7335 19.7976C32.1063 19.2787 31.3164 18.9965 30.502 19.0004C30.2181 19.0004 29.9459 19.1131 29.7452 19.3137C29.5445 19.5143 29.4317 19.7863 29.4317 20.07C29.4317 20.3536 29.5445 20.6257 29.7452 20.8263C29.9459 21.0268 30.2181 21.1395 30.502 21.1395C30.5725 21.1395 30.6425 21.1462 30.713 21.1475C30.9547 21.1538 30.4677 21.0901 30.6987 21.1449C30.8062 21.1703 30.9128 21.1894 31.018 21.2264C31.0567 21.2457 31.0974 21.2606 31.1393 21.271L31.0015 21.2126C31.0399 21.23 31.0778 21.2487 31.1152 21.2679C31.22 21.3222 31.3248 21.4229 31.4323 21.4657C31.2281 21.3837 31.3092 21.3672 31.4051 21.4559C31.435 21.4836 31.4644 21.5121 31.4943 21.5415C31.5242 21.5709 31.5759 21.6556 31.6169 21.6779C31.4769 21.6021 31.5019 21.5081 31.5786 21.6333C31.6383 21.7291 31.6941 21.8254 31.7498 21.9238C31.7967 22.0067 31.7534 22.0424 31.7177 21.8347C31.7311 21.9118 31.7766 21.9934 31.7984 22.07C31.827 22.1676 31.8297 22.2848 31.8662 22.3775C31.7802 22.1587 31.8511 22.1992 31.852 22.316C31.852 22.3699 31.8573 22.4239 31.8573 22.4778C31.8407 22.587 31.8349 22.6976 31.8399 22.808L31.8618 22.6507C31.8555 22.6926 31.8484 22.734 31.8399 22.775C31.8261 22.8459 31.8091 22.9158 31.7891 22.9854C31.7752 23.0335 31.7601 23.0816 31.7445 23.1293L31.724 23.1854C31.6826 23.29 31.6956 23.2594 31.7628 23.0936C31.7107 23.1751 31.6643 23.2602 31.6241 23.3481C31.5986 23.3882 31.5674 23.4261 31.5433 23.4666C31.4747 23.5843 31.728 23.2617 31.5879 23.406C31.5024 23.4805 31.421 23.5595 31.344 23.6427C31.4827 23.4617 31.4858 23.5397 31.377 23.6115C31.3449 23.6329 31.3123 23.6529 31.2793 23.6725C31.2289 23.7024 31.1763 23.7273 31.1255 23.7554C30.944 23.8548 31.3257 23.6953 31.1906 23.7296C31.0827 23.7572 30.9792 23.8022 30.8695 23.8276C30.8289 23.837 30.7874 23.8437 30.7464 23.853C30.6313 23.8717 30.6626 23.8686 30.8401 23.8428C30.7955 23.8477 30.7509 23.8517 30.7063 23.8544C30.5943 23.862 30.4821 23.8632 30.37 23.8579C30.3057 23.8466 30.2404 23.8414 30.1751 23.8423C30.197 23.8383 30.4427 23.8936 30.2706 23.8521C30.16 23.8254 30.0476 23.8027 29.9414 23.7666C29.8968 23.751 29.8469 23.7256 29.7996 23.7149C30.0766 23.7773 29.9111 23.7594 29.8134 23.7082C29.7158 23.6569 29.6351 23.5852 29.5427 23.5344C29.755 23.6498 29.6846 23.6516 29.6244 23.5919C29.5829 23.5513 29.5387 23.5139 29.4981 23.472C29.4651 23.4381 29.4362 23.3958 29.4009 23.3642C29.2992 23.275 29.5539 23.5919 29.4433 23.4194C29.3791 23.3187 29.3206 23.218 29.2627 23.1137C29.1561 22.9221 29.3434 23.3579 29.2752 23.1467C29.2627 23.1075 29.2475 23.0696 29.235 23.0304C29.218 22.9044 29.1881 22.7804 29.1458 22.6605C29.1574 22.6788 29.1686 22.9341 29.1592 22.7496C29.1561 22.6819 29.1494 22.6159 29.1481 22.5473C29.1481 22.492 29.1481 22.4368 29.1481 22.3815C29.1481 22.3494 29.1498 22.3173 29.1534 22.2853C29.165 22.1685 29.1592 22.2001 29.1369 22.3797C29.1815 22.2683 29.1855 22.1297 29.2221 22.0139C29.248 21.9574 29.269 21.8988 29.285 21.8387L29.2261 21.9813C29.2431 21.9439 29.2613 21.9074 29.2805 21.8713C29.3354 21.767 29.4299 21.6667 29.4763 21.5593C29.3835 21.7719 29.3809 21.6783 29.4651 21.5874C29.5066 21.5428 29.5499 21.4983 29.5949 21.4573C29.6895 21.3681 29.7733 21.3828 29.5677 21.4666C29.6213 21.4353 29.6726 21.4002 29.7211 21.3614C29.774 21.3282 29.8285 21.297 29.8844 21.2679C29.9218 21.2483 29.9597 21.23 29.9981 21.2122L29.8603 21.2705C29.9495 21.2843 30.1377 21.1814 30.2358 21.1578L30.3018 21.1449C30.4177 21.1257 30.391 21.1284 30.2193 21.1538C30.313 21.1601 30.4072 21.1551 30.4998 21.1391C30.7837 21.1391 31.0559 21.0264 31.2566 20.8258C31.4573 20.6252 31.5701 20.3532 31.5701 20.0695C31.5701 19.7859 31.4573 19.5138 31.2566 19.3133C31.0559 19.1127 30.7837 19 30.4998 19L30.5011 19.0004Z" fill="#727272"/>
<path d="M38.5018 25.002C37.7571 25.0018 37.0318 25.2723 36.4308 25.7744C35.8299 26.2765 35.3847 26.9841 35.1597 27.7945C34.9498 28.5694 34.9467 29.3981 35.1509 30.175C35.355 30.9519 35.7572 31.6418 36.306 32.1569C36.8794 32.6459 37.5643 32.9354 38.2784 32.9904C38.9925 33.0454 39.7053 32.8636 40.331 32.467C40.9409 32.0313 41.4207 31.3945 41.7068 30.6409C41.9929 29.8873 42.072 29.0522 41.9336 28.2462C41.7856 27.3318 41.3609 26.5059 40.7336 25.9129C40.1062 25.3198 39.3163 24.9974 38.5018 25.002C38.2179 25.002 37.9456 25.1308 37.7449 25.36C37.5441 25.5892 37.4313 25.9 37.4313 26.2241C37.4313 26.5482 37.5441 26.8591 37.7449 27.0883C37.9456 27.3175 38.2179 27.4462 38.5018 27.4462C38.5723 27.4462 38.6423 27.4539 38.7128 27.4554C38.9545 27.4625 38.467 27.3892 38.6985 27.4523C38.806 27.4814 38.9126 27.5058 39.0179 27.5455C39.0566 27.5674 39.0973 27.5845 39.1392 27.5964L39.0014 27.5297C39.0397 27.5496 39.0776 27.5705 39.1151 27.5929C39.2195 27.655 39.3247 27.7701 39.4318 27.819C39.2275 27.7253 39.3087 27.7064 39.405 27.8078C39.4349 27.8393 39.4643 27.8719 39.4942 27.905C39.5241 27.9381 39.5758 28.0359 39.6169 28.0608C39.4764 27.9748 39.5014 27.8673 39.5785 28.0099C39.6383 28.1194 39.694 28.2294 39.7494 28.3414C39.7966 28.4366 39.7529 28.4774 39.7172 28.2426C39.7404 28.3336 39.7675 28.4231 39.7984 28.511C39.8265 28.623 39.8296 28.7569 39.8662 28.8623C39.7801 28.6128 39.8511 28.6586 39.8519 28.7921C39.8519 28.8542 39.8568 28.9158 39.8573 28.9774C39.8403 29.1022 39.8345 29.2286 39.8399 29.3547L39.8618 29.175C39.8551 29.2228 39.8479 29.2702 39.8399 29.317C39.8256 29.398 39.8087 29.478 39.7891 29.5574C39.7752 29.6124 39.7601 29.6674 39.7445 29.7219L39.7239 29.786C39.6826 29.9055 39.6957 29.8706 39.7632 29.6811C39.7111 29.7743 39.6646 29.8715 39.624 29.9719C39.599 30.0177 39.5674 30.061 39.5437 30.1073C39.475 30.2418 39.7279 29.8731 39.5883 30.0381C39.5027 30.1231 39.4211 30.2134 39.3439 30.3085C39.4831 30.1017 39.4858 30.1908 39.3774 30.2728C39.3453 30.2973 39.3127 30.3202 39.2792 30.3426C39.2288 30.3767 39.1767 30.4047 39.1254 30.4368C38.9438 30.5509 39.3261 30.3686 39.1909 30.4078C39.0825 30.4388 38.9791 30.4903 38.8698 30.5198C38.8287 30.5305 38.7873 30.5381 38.7467 30.5488C38.6316 30.5702 38.6628 30.5666 38.8399 30.5371C38.7953 30.5427 38.7507 30.5473 38.7088 30.5503C38.5968 30.5591 38.4845 30.5604 38.3725 30.5544C38.3081 30.5415 38.2429 30.5355 38.1775 30.5366C38.1994 30.532 38.4452 30.5952 38.273 30.5478C38.1619 30.5172 38.0522 30.4913 37.9438 30.45C37.8992 30.4322 37.8493 30.4032 37.8015 30.3905C38.079 30.4622 37.9135 30.4439 37.8158 30.3833C37.7181 30.3227 37.6374 30.2428 37.5451 30.1847C37.7574 30.3161 37.6869 30.3181 37.6263 30.2504C37.5848 30.2041 37.5411 30.1613 37.5005 30.1134C37.4675 30.0747 37.4385 30.0259 37.4032 29.9902C37.3015 29.8884 37.5558 30.2504 37.4456 30.0534C37.3809 29.9383 37.323 29.8232 37.265 29.704C37.1584 29.4851 37.3453 29.9831 37.2775 29.7417C37.2645 29.6969 37.2498 29.6531 37.2373 29.6083C37.2204 29.4643 37.1905 29.3227 37.1481 29.1857C37.1601 29.2065 37.1713 29.4988 37.1619 29.2875C37.1588 29.2101 37.1521 29.1347 37.1508 29.0563C37.1508 28.9932 37.1508 28.9301 37.1508 28.8669C37.1508 28.8302 37.1526 28.7936 37.1561 28.7569C37.1674 28.6235 37.1619 28.6595 37.1396 28.8649C37.1842 28.7376 37.1882 28.5792 37.2248 28.4468C37.25 28.3813 37.2705 28.3135 37.2859 28.2441L37.2266 28.4071C37.244 28.3643 37.2623 28.3226 37.2815 28.2808C37.3363 28.1622 37.4309 28.0476 37.4773 27.9244C37.3845 28.1673 37.3818 28.0603 37.4657 27.9564C37.5072 27.9055 37.5509 27.8546 37.5955 27.8078C37.6905 27.7059 37.7739 27.7227 37.5683 27.8185C37.622 27.7827 37.6735 27.7425 37.7221 27.6983C37.7752 27.6601 37.8296 27.6244 37.8849 27.5913C37.9224 27.5689 37.9608 27.5481 37.9991 27.5277L37.8613 27.5944C37.9505 27.6102 38.1387 27.4895 38.2369 27.4656L38.3024 27.4508C38.4184 27.4289 38.3916 27.432 38.2199 27.461C38.3138 27.4682 38.4082 27.4626 38.5009 27.4442C38.6415 27.4442 38.7807 27.4126 38.9106 27.3512C39.0404 27.2897 39.1585 27.1997 39.2579 27.0862C39.3573 26.9728 39.4361 26.838 39.4899 26.6898C39.5437 26.5415 39.5714 26.3826 39.5714 26.2221C39.5714 26.0616 39.5437 25.9027 39.4899 25.7544C39.4361 25.6061 39.3573 25.4714 39.2579 25.3579C39.1585 25.2445 39.0404 25.1544 38.9106 25.093C38.7807 25.0316 38.6415 25 38.5009 25L38.5018 25.002Z" fill="#727272"/>
<path d="M36.0018 35C35.1508 34.9998 34.3219 35.2366 33.6352 35.6761C32.9484 36.1155 32.4396 36.7348 32.1825 37.4441C31.9426 38.1222 31.9391 38.8475 32.1724 39.5273C32.4057 40.2072 32.8653 40.811 33.4925 41.2617C34.1476 41.6898 34.9303 41.9433 35.7464 41.9916C36.5625 42.0398 37.3771 41.8807 38.0922 41.5335C38.7893 41.1523 39.3377 40.595 39.6648 39.9354C39.9919 39.2758 40.0823 38.5449 39.9241 37.8394C39.7552 37.039 39.2698 36.316 38.5527 35.7969C37.8357 35.2778 36.9327 34.9957 36.0018 35C35.6774 35 35.3662 35.1127 35.1368 35.3133C34.9074 35.5139 34.7785 35.786 34.7785 36.0696C34.7785 36.3533 34.9074 36.6254 35.1368 36.826C35.3662 37.0266 35.6774 37.1392 36.0018 37.1392C36.0824 37.1392 36.1624 37.1455 36.2429 37.1473C36.5192 37.1531 35.9626 37.0893 36.2271 37.1446C36.3494 37.17 36.4718 37.1914 36.5916 37.2257C36.636 37.2448 36.6827 37.2597 36.7307 37.2703L36.5727 37.2119C36.617 37.2293 36.6604 37.2475 36.7032 37.2672C36.8225 37.3211 36.9428 37.4218 37.0651 37.465C36.8316 37.383 36.9244 37.3665 37.034 37.4548C37.0681 37.4829 37.1018 37.5114 37.1359 37.5403C37.1701 37.5693 37.2292 37.6549 37.2766 37.6767C37.1161 37.6014 37.1446 37.5069 37.2328 37.6322C37.3011 37.7284 37.3648 37.8242 37.428 37.9227C37.482 38.0061 37.4321 38.0413 37.3913 37.8363C37.4175 37.9159 37.4485 37.9943 37.4841 38.0711C37.5162 38.1687 37.5192 38.2859 37.561 38.3786C37.4627 38.1603 37.5442 38.2004 37.5447 38.3171C37.5447 38.3711 37.5508 38.4254 37.5508 38.4794C37.5319 38.5886 37.5253 38.6992 37.531 38.8096L37.5559 38.6523C37.5488 38.6937 37.5407 38.7352 37.531 38.7766C37.5152 38.847 37.4958 38.9175 37.4729 38.9865C37.4571 39.0351 37.4402 39.0832 37.4219 39.1309L37.3984 39.1871C37.3509 39.292 37.3658 39.2614 37.4433 39.0953C37.3836 39.1768 37.3304 39.2618 37.2843 39.3498C37.2552 39.3899 37.2195 39.4273 37.1925 39.4683C37.114 39.5855 37.403 39.2628 37.2435 39.4072C37.1457 39.4818 37.0527 39.561 36.9647 39.6443C37.1232 39.463 37.1268 39.5409 37.0024 39.6131C36.9657 39.6341 36.9285 39.6546 36.8908 39.6742C36.8332 39.7036 36.7735 39.7286 36.7149 39.7566C36.5075 39.8565 36.9438 39.6969 36.7893 39.7312C36.666 39.7584 36.5477 39.8034 36.4223 39.8288C36.376 39.8387 36.3286 39.8449 36.2817 39.8547C36.1508 39.8734 36.1865 39.87 36.3887 39.8444C36.3377 39.8493 36.2868 39.8529 36.2358 39.856C36.108 39.8632 35.9799 39.8644 35.852 39.8596C35.7783 39.8481 35.7035 39.8428 35.6287 39.844C35.6537 39.84 35.9345 39.8948 35.7378 39.8534C35.6114 39.8266 35.4855 39.8043 35.3616 39.7682C35.3107 39.7526 35.2536 39.7268 35.1995 39.7161C35.5161 39.7789 35.327 39.7629 35.2153 39.7094C35.1037 39.6559 35.0115 39.5864 34.9059 39.536C35.1486 39.651 35.0685 39.6528 34.9992 39.5935C34.9518 39.553 34.9014 39.5151 34.8555 39.4737C34.8178 39.4393 34.7841 39.397 34.7439 39.3658C34.6281 39.2767 34.9187 39.5935 34.7948 39.4206C34.7214 39.3203 34.6552 39.2192 34.5909 39.1153C34.4686 38.9237 34.6827 39.3591 34.6047 39.1483C34.5904 39.1091 34.5731 39.0708 34.5593 39.0315C34.5395 38.9056 34.5054 38.7817 34.4574 38.6616C34.4706 38.6799 34.4834 38.9353 34.4732 38.7508C34.4691 38.6835 34.462 38.6171 34.4599 38.5484C34.4599 38.4932 34.4599 38.4379 34.4599 38.3827C34.4599 38.3506 34.463 38.3185 34.4661 38.2868C34.4793 38.1701 34.473 38.2016 34.4472 38.3813C34.4982 38.2695 34.5033 38.1313 34.5451 38.0154C34.5743 37.9588 34.5981 37.9003 34.6164 37.8403L34.5491 37.9825C34.569 37.9455 34.5894 37.9085 34.6113 37.8724C34.674 37.7681 34.7826 37.6678 34.8351 37.5604C34.7296 37.7734 34.7265 37.6798 34.8223 37.5885C34.8697 37.5439 34.9192 37.4993 34.9707 37.4583C35.0792 37.3692 35.1746 37.3844 34.9396 37.4682C35.0009 37.4367 35.0595 37.4014 35.1149 37.3625C35.1756 37.3295 35.2378 37.2979 35.3015 37.2689C35.3443 37.2498 35.3876 37.2311 35.4315 37.2137L35.274 37.2716C35.3759 37.2854 35.591 37.1825 35.7031 37.1593L35.7786 37.1459C35.9111 37.1269 35.8797 37.1299 35.6843 37.1548C35.7914 37.1615 35.8991 37.1567 36.0049 37.1406C36.3293 37.1406 36.6405 37.0279 36.8699 36.8273C37.0993 36.6267 37.2282 36.3547 37.2282 36.071C37.2282 35.7873 37.0993 35.5153 36.8699 35.3147C36.6405 35.1141 36.3293 35.0014 36.0049 35.0014L36.0018 35Z" fill="#727272"/>
<path d="M22.0021 25C21.1511 24.9998 20.3221 25.2365 19.6354 25.6759C18.9486 26.1153 18.4397 26.7345 18.1825 27.4437C17.9426 28.122 17.9391 28.8473 18.1724 29.5273C18.4058 30.2072 18.8653 30.8111 19.4926 31.2619C20.1478 31.69 20.9306 31.9434 21.7467 31.9916C22.5629 32.0397 23.3775 31.8806 24.0926 31.5333C24.7896 31.152 25.3379 30.5948 25.6649 29.9353C25.9919 29.2757 26.0823 28.5449 25.9241 27.8395C25.7552 27.0391 25.2698 26.3161 24.5529 25.7971C23.8359 25.278 22.933 24.9958 22.0021 25C21.6776 25 21.3664 25.1127 21.137 25.3133C20.9076 25.5139 20.7787 25.786 20.7787 26.0697C20.7787 26.3534 20.9076 26.6254 21.137 26.826C21.3664 27.0266 21.6776 27.1393 22.0021 27.1393C22.0826 27.1393 22.1627 27.1456 22.2432 27.1473C22.5195 27.1531 21.9623 27.0894 22.2269 27.1447C22.3497 27.1701 22.4716 27.1892 22.5919 27.2258C22.6362 27.2449 22.6826 27.2598 22.7305 27.2704L22.573 27.212C22.6168 27.2294 22.6602 27.2476 22.703 27.2672C22.8228 27.3212 22.9426 27.4219 23.0654 27.4651C22.8314 27.3827 22.9247 27.3662 23.0343 27.4549C23.0685 27.4825 23.1021 27.511 23.1363 27.5404C23.1704 27.5699 23.2296 27.6545 23.2765 27.6768C23.1159 27.6015 23.1449 27.507 23.2326 27.6323C23.3009 27.7285 23.3646 27.8243 23.4284 27.9228C23.4819 28.0062 23.4324 28.0414 23.3917 27.8364C23.4179 27.916 23.4487 27.9944 23.4839 28.0712C23.516 28.1689 23.5196 28.2861 23.5614 28.3788C23.463 28.1604 23.5441 28.2005 23.5451 28.3173C23.5451 28.3712 23.5512 28.4251 23.5512 28.4795C23.5318 28.5886 23.5251 28.6991 23.5313 28.8093L23.5563 28.6524C23.5492 28.6939 23.5405 28.7353 23.5313 28.7768C23.515 28.8472 23.4957 28.9172 23.4732 28.9867C23.4576 29.0351 23.4406 29.0832 23.4222 29.1311L23.3988 29.1872C23.3512 29.2918 23.366 29.2611 23.4431 29.095C23.3836 29.1766 23.3306 29.2618 23.2846 29.3499C23.2556 29.39 23.2199 29.4275 23.1924 29.4685C23.1138 29.5857 23.4029 29.263 23.2433 29.4074C23.1454 29.4819 23.0524 29.561 22.9645 29.6445C23.123 29.4631 23.1261 29.5411 23.0022 29.6133C22.9655 29.6343 22.9283 29.6548 22.8906 29.6744C22.833 29.7038 22.7728 29.7287 22.7147 29.7568C22.5067 29.8567 22.9436 29.6971 22.7891 29.7314C22.6658 29.7586 22.5475 29.8036 22.4221 29.829C22.3752 29.8388 22.3278 29.8451 22.2814 29.8544C22.1499 29.8736 22.1856 29.87 22.388 29.8446C22.337 29.8491 22.286 29.8531 22.2381 29.8562C22.1101 29.8634 21.9818 29.8646 21.8537 29.8598C21.7802 29.8482 21.7056 29.843 21.631 29.8442C21.656 29.8402 21.9368 29.895 21.7401 29.8535C21.6137 29.8268 21.4877 29.8045 21.3639 29.7684C21.3129 29.7528 21.2558 29.727 21.2018 29.7163C21.5183 29.7791 21.3292 29.7608 21.2176 29.7096C21.1059 29.6583 21.0137 29.5866 20.9082 29.5362C21.1508 29.6512 21.0703 29.653 21.0014 29.5937C20.954 29.5527 20.9036 29.5153 20.8572 29.4734C20.8195 29.4395 20.7863 29.3972 20.7461 29.366C20.6298 29.2768 20.9209 29.5937 20.7945 29.4208C20.7211 29.3205 20.6543 29.2193 20.588 29.1155C20.4662 28.9238 20.6803 29.3593 20.6023 29.1485C20.588 29.1092 20.5707 29.0709 20.5564 29.0317C20.5369 28.9057 20.5027 28.7817 20.4545 28.6618C20.4677 28.6801 20.4805 28.9354 20.4698 28.7509C20.4662 28.6836 20.4586 28.6172 20.457 28.5486C20.457 28.4933 20.457 28.438 20.457 28.3828C20.457 28.3507 20.4591 28.3186 20.4631 28.2865C20.4764 28.1702 20.4698 28.2014 20.4443 28.3814C20.4953 28.2696 20.4998 28.1314 20.5416 28.0151C20.5713 27.9588 20.5953 27.9003 20.6135 27.8404L20.5462 27.9826C20.5656 27.9456 20.5865 27.9086 20.6084 27.8725C20.6711 27.7682 20.7792 27.6679 20.8322 27.5605C20.7262 27.7735 20.7231 27.6799 20.8189 27.5886C20.8669 27.544 20.9163 27.4994 20.9678 27.4584C21.0759 27.3693 21.1717 27.384 20.9362 27.4682C20.9976 27.4368 21.0564 27.4015 21.1121 27.3626C21.1725 27.3293 21.2347 27.2981 21.2986 27.269C21.3414 27.2494 21.3848 27.2311 21.4286 27.2138L21.2711 27.2717C21.373 27.2855 21.5882 27.1803 21.7003 27.1594L21.7752 27.146C21.9083 27.1268 21.8772 27.13 21.6814 27.1549C21.7886 27.1616 21.8963 27.1568 22.0021 27.1407C22.1627 27.1407 22.3218 27.113 22.4703 27.0592C22.6187 27.0055 22.7536 26.9267 22.8672 26.8274C22.9808 26.728 23.0709 26.6101 23.1324 26.4804C23.1938 26.3506 23.2255 26.2115 23.2255 26.071C23.2255 25.9306 23.1938 25.7915 23.1324 25.6617C23.0709 25.5319 22.9808 25.414 22.8672 25.3147C22.7536 25.2153 22.6187 25.1366 22.4703 25.0828C22.3218 25.029 22.1627 25.0014 22.0021 25.0014V25Z" fill="#727272"/>
<path d="M25.5018 35C24.7571 34.9998 24.0318 35.2704 23.4308 35.7726C22.8299 36.2749 22.3847 36.9826 22.1597 37.7932C21.9498 38.5683 21.9467 39.3972 22.1509 40.1743C22.355 40.9514 22.7571 41.6415 23.306 42.1567C23.8794 42.6458 24.5643 42.9353 25.2784 42.9904C25.9925 43.0454 26.7053 42.8636 27.331 42.4669C27.9409 42.031 28.4207 41.3941 28.7068 40.6403C28.9929 39.8865 29.072 39.0512 28.9336 38.245C28.7856 37.3304 28.3609 36.5043 27.7336 35.9111C27.1062 35.3179 26.3163 34.9955 25.5018 35C25.2179 35 24.9456 35.1288 24.7449 35.3581C24.5441 35.5873 24.4313 35.8982 24.4313 36.2224C24.4313 36.5466 24.5441 36.8576 24.7449 37.0868C24.9456 37.3161 25.2179 37.4448 25.5018 37.4448C25.5723 37.4448 25.6423 37.4525 25.7128 37.454C25.9545 37.4611 25.467 37.3878 25.6985 37.451C25.806 37.48 25.9126 37.5044 26.0179 37.5442C26.0565 37.5662 26.0972 37.5833 26.1392 37.5951L26.0014 37.5284C26.0397 37.5482 26.0776 37.5696 26.1151 37.5915C26.2195 37.6537 26.3247 37.7688 26.4322 37.8177C26.2275 37.724 26.3091 37.7051 26.405 37.8065C26.4349 37.838 26.4643 37.8706 26.4942 37.9043C26.5241 37.9379 26.5758 38.0346 26.6169 38.0601C26.4764 37.9735 26.5018 37.8661 26.5785 38.0092C26.6383 38.1187 26.694 38.2287 26.7498 38.3413C26.7966 38.436 26.7529 38.4767 26.7177 38.2419C26.7407 38.3329 26.7676 38.4225 26.7984 38.5104C26.8265 38.6224 26.8296 38.7564 26.8662 38.8623C26.7801 38.6122 26.8511 38.656 26.8519 38.7915C26.8519 38.8537 26.8568 38.9153 26.8573 38.9769C26.8403 39.1017 26.8345 39.2282 26.8399 39.3543L26.8618 39.1745C26.8555 39.2224 26.8479 39.2698 26.8399 39.3166C26.8256 39.3976 26.8087 39.4776 26.7891 39.557C26.7752 39.6121 26.7601 39.6671 26.7445 39.7216L26.7239 39.7857C26.6823 39.9053 26.6952 39.8703 26.7627 39.6808C26.7106 39.7739 26.6643 39.8711 26.624 39.9716C26.5986 40.0175 26.5674 40.0608 26.5433 40.1071C26.4746 40.2416 26.7275 39.8728 26.5879 40.0379C26.5024 40.1229 26.4209 40.2132 26.3439 40.3083C26.4826 40.1015 26.4853 40.1907 26.3769 40.2727C26.3448 40.2971 26.3122 40.32 26.2792 40.3424C26.2288 40.3766 26.1762 40.4051 26.1249 40.4367C25.9434 40.5507 26.3256 40.3684 26.1905 40.4076C26.0825 40.4392 25.9786 40.4906 25.8693 40.5197C25.8283 40.5304 25.7868 40.538 25.7462 40.5487C25.6312 40.5701 25.6624 40.5665 25.8395 40.537C25.7949 40.5426 25.7502 40.5472 25.7083 40.5502C25.5964 40.559 25.4841 40.5603 25.372 40.5543C25.3077 40.5414 25.2424 40.5354 25.1771 40.5365C25.199 40.5319 25.4447 40.5951 25.2725 40.5477C25.1615 40.5171 25.0518 40.4912 24.9434 40.4499C24.8988 40.4321 24.8488 40.403 24.8015 40.3908C25.0785 40.4621 24.913 40.4418 24.8154 40.3832C24.7177 40.3246 24.637 40.2426 24.5446 40.1845C24.7569 40.3165 24.6865 40.3185 24.6258 40.2502C24.5848 40.2039 24.5406 40.1611 24.5 40.1132C24.467 40.0745 24.438 40.0261 24.4028 39.99C24.3011 39.8881 24.5558 40.2502 24.4452 40.0531C24.3809 39.938 24.3225 39.8229 24.2645 39.7037C24.1579 39.4847 24.3453 39.9828 24.277 39.7414C24.2645 39.6966 24.2494 39.6533 24.2369 39.6085C24.2198 39.4645 24.19 39.3228 24.1477 39.1857C24.1593 39.2066 24.1704 39.4985 24.161 39.2876C24.1579 39.2102 24.1512 39.1348 24.1499 39.0564C24.1499 38.9932 24.1499 38.9301 24.1499 38.8669C24.1499 38.8302 24.1517 38.7936 24.1552 38.7569C24.1665 38.6234 24.161 38.6594 24.1387 38.8649C24.1833 38.7375 24.1874 38.5791 24.2239 38.4467C24.2498 38.3821 24.2709 38.3152 24.2868 38.2465L24.2279 38.4095C24.2449 38.3667 24.2632 38.325 24.2824 38.2837C24.3372 38.1645 24.4318 38.0499 24.4782 37.9272C24.3854 38.1701 24.3827 38.0632 24.4666 37.9593C24.5081 37.9083 24.5518 37.8574 24.5964 37.8105C24.6914 37.7087 24.7748 37.7255 24.5692 37.8212C24.6229 37.7855 24.6744 37.7453 24.723 37.701C24.776 37.663 24.8304 37.6274 24.8863 37.5941C24.9238 37.5717 24.9617 37.5508 25 37.5304L24.8622 37.5971C24.9514 37.6129 25.1396 37.4953 25.2378 37.4683L25.3033 37.4535C25.4197 37.4316 25.3925 37.4347 25.2213 37.4637C25.315 37.4709 25.4092 37.4652 25.5018 37.4469C25.7857 37.4469 26.058 37.3181 26.2587 37.0888C26.4595 36.8596 26.5723 36.5487 26.5723 36.2245C26.5723 35.9003 26.4595 35.5894 26.2587 35.3601C26.058 35.1309 25.7857 35.0021 25.5018 35.0021V35Z" fill="#727272"/>
<path d="M29 25.1636V30.8364C29 31.145 29.158 31.441 29.4393 31.6592C29.7206 31.8774 30.1022 32 30.5 32C30.8978 32 31.2794 31.8774 31.5607 31.6592C31.842 31.441 32 31.145 32 30.8364V25.1636C32 24.855 31.842 24.559 31.5607 24.3408C31.2794 24.1226 30.8978 24 30.5 24C30.1022 24 29.7206 24.1226 29.4393 24.3408C29.158 24.559 29 24.855 29 25.1636Z" fill="#727272"/>
<path d="M35.8206 36.3112C34.3612 34.3935 32.9035 32.4751 31.4474 30.5559C31.3604 30.4286 31.2448 30.3173 31.1074 30.2282C30.97 30.1391 30.8134 30.074 30.6465 30.0367C30.4796 29.9993 30.3058 29.9904 30.1349 30.0104C29.964 30.0305 29.7994 30.0791 29.6505 30.1535C29.5016 30.2279 29.3713 30.3266 29.2671 30.444C29.1628 30.5615 29.0866 30.6953 29.0429 30.8379C28.9992 30.9805 28.9887 31.129 29.0122 31.2751C29.0357 31.4211 29.0925 31.5617 29.1796 31.689C30.639 33.6066 32.0965 35.5249 33.5522 37.4438C33.728 37.7008 34.016 37.8877 34.353 37.9632C34.69 38.0388 35.0483 37.9969 35.3491 37.8467C35.6499 37.6965 35.8686 37.4503 35.957 37.1624C36.0454 36.8744 35.9963 36.5682 35.8206 36.3112Z" fill="#727272"/>
<path d="M29.9331 30.5395C28.6741 32.4758 27.4127 34.4105 26.1488 36.3434C26.0023 36.5973 25.962 36.8985 26.0366 37.1817C26.1112 37.465 26.2946 37.7077 26.5473 37.8574C26.8032 37.9991 27.1041 38.037 27.3874 37.963C27.6706 37.889 27.9142 37.709 28.0673 37.4605C29.3263 35.5241 30.5876 33.5895 31.8512 31.6566C31.9977 31.4026 32.038 31.1015 31.9634 30.8182C31.8888 30.5349 31.7054 30.2922 31.4527 30.1425C31.1969 30.0008 30.896 29.963 30.6129 30.037C30.3297 30.111 30.0862 30.291 29.9331 30.5395Z" fill="#727272"/>
<path d="M31.0995 29.5725C28.9184 29.0577 26.7332 28.5604 24.5526 28.0445C24.3973 28.0013 24.2351 27.9894 24.0753 28.0094C23.9155 28.0294 23.7611 28.081 23.6211 28.1611C23.481 28.2412 23.358 28.3483 23.259 28.4764C23.16 28.6044 23.087 28.7509 23.0442 28.9073C23.0013 29.0638 22.9895 29.2273 23.0093 29.3883C23.0292 29.5494 23.0803 29.705 23.1598 29.8462C23.2393 29.9873 23.3456 30.1113 23.4727 30.2111C23.5997 30.3109 23.745 30.3844 23.9003 30.4276C26.0814 30.9424 28.2666 31.4413 30.4478 31.9556C30.603 31.9987 30.7652 32.0106 30.925 31.9906C31.0848 31.9705 31.2391 31.919 31.3792 31.8388C31.5192 31.7587 31.6422 31.6515 31.7412 31.5235C31.8402 31.3954 31.9131 31.2489 31.9559 31.0925C31.9987 30.936 32.0105 30.7726 31.9906 30.6115C31.9708 30.4504 31.9196 30.2949 31.8401 30.1537C31.7606 30.0126 31.6542 29.8886 31.5272 29.7889C31.4001 29.6891 31.2548 29.6156 31.0995 29.5725Z" fill="#727272"/>
<path d="M35.5311 28.0401C33.6384 28.5267 31.7438 29.0036 29.8511 29.4902C29.5554 29.583 29.3046 29.8001 29.1528 30.0947C29.001 30.3894 28.9604 30.7379 29.0396 31.0652C29.127 31.3888 29.3246 31.6625 29.591 31.8293C29.8573 31.996 30.1719 32.0428 30.4689 31.96C32.3616 31.4734 34.2562 30.9959 36.1489 30.5098C36.4446 30.4169 36.6954 30.1997 36.8472 29.905C36.999 29.6103 37.0396 29.2617 36.9604 28.9343C36.8729 28.6108 36.6753 28.3372 36.4089 28.1706C36.1425 28.0039 35.828 27.9572 35.5311 28.0401Z" fill="#727272"/>
</svg>
