<svg width="122" height="19" viewBox="0 0 122 19" fill="none" xmlns="http://www.w3.org/2000/svg">
<path d="M17.373 1.00391C17.4837 1.00391 17.5488 1.02018 17.5684 1.05273C17.5879 1.07878 17.5977 1.14388 17.5977 1.24805L17.5586 3.18164V6.46289L17.5977 8.39648C17.5977 8.51367 17.5846 8.58529 17.5586 8.61133C17.5326 8.63086 17.4707 8.64062 17.373 8.64062L14.7363 8.60156H9.6875L7.04102 8.64062C6.93685 8.64062 6.875 8.62435 6.85547 8.5918C6.83594 8.56576 6.82617 8.50065 6.82617 8.39648L6.86523 6.46289V3.18164L6.82617 1.24805C6.82617 1.13086 6.83919 1.05924 6.86523 1.0332C6.89128 1.01367 6.94987 1.00391 7.04102 1.00391L9.6875 1.04297H14.7363L17.373 1.00391ZM15.5566 6.94141V5.64258H8.82812V6.94141H15.5566ZM8.82812 4.02148H15.5566V2.74219H8.82812V4.02148ZM17.2754 14.0801C17.5684 14.2689 18.0208 14.4414 18.6328 14.5977C18.8477 14.6497 18.9811 14.7018 19.0332 14.7539C19.0853 14.7995 19.1113 14.8841 19.1113 15.0078C19.1113 15.0664 19.1048 15.1641 19.0918 15.3008C18.9811 16.5052 18.7174 17.2865 18.3008 17.6445C17.8906 17.9896 16.9694 18.1621 15.5371 18.1621C14.4759 18.1621 13.724 18.0677 13.2812 17.8789C12.7734 17.651 12.5195 17.166 12.5195 16.4238V11.4824C12.5195 10.4928 12.4805 9.72461 12.4023 9.17773C13.125 9.19727 13.7956 9.24609 14.4141 9.32422C14.6419 9.36328 14.7559 9.44141 14.7559 9.55859C14.7559 9.63672 14.7168 9.75716 14.6387 9.91992C14.5736 10.0501 14.541 10.4375 14.541 11.082V12.0195C15.3809 11.6354 16.0742 11.2415 16.6211 10.8379C17.0117 10.5514 17.2917 10.304 17.4609 10.0957C17.9102 10.4863 18.3171 10.9062 18.6816 11.3555C18.7728 11.4727 18.8184 11.5736 18.8184 11.6582C18.8184 11.7819 18.7305 11.8568 18.5547 11.8828C18.4505 11.8893 18.265 11.9674 17.998 12.1172C16.9303 12.7617 15.778 13.3411 14.541 13.8555V15.6035C14.541 15.9421 14.6257 16.1406 14.7949 16.1992C14.9772 16.2513 15.2799 16.2773 15.7031 16.2773C16.3802 16.2773 16.7936 16.1829 16.9434 15.9941C17.1517 15.7598 17.2624 15.1217 17.2754 14.0801ZM11.8848 14.9199C11.8132 15.2845 11.7676 15.6784 11.748 16.1016C11.735 16.4271 11.6927 16.6289 11.6211 16.707C11.5625 16.7721 11.3965 16.8438 11.123 16.9219C9.67122 17.332 8.20312 17.6836 6.71875 17.9766C6.34115 18.0547 6.09701 18.1361 5.98633 18.2207C5.88216 18.2988 5.77474 18.3379 5.66406 18.3379C5.53385 18.3379 5.43945 18.237 5.38086 18.0352C5.20508 17.3841 5.0651 16.7786 4.96094 16.2188C5.34505 16.1992 5.8138 16.1536 6.36719 16.082L6.94336 16.0039V11.8242C6.94336 10.6589 6.89779 9.79622 6.80664 9.23633C7.4707 9.25586 8.12826 9.30469 8.7793 9.38281C8.98112 9.41536 9.08203 9.49349 9.08203 9.61719C9.08203 9.68229 9.04948 9.80273 8.98438 9.97852C8.91927 10.1478 8.88672 10.6003 8.88672 11.3359H10.3223L11.5039 11.2969C11.6081 11.2969 11.6732 11.3132 11.6992 11.3457C11.7188 11.3717 11.7285 11.4368 11.7285 11.541V12.918C11.7285 13.0221 11.7155 13.0872 11.6895 13.1133C11.6699 13.1328 11.6081 13.1426 11.5039 13.1426L10.3223 13.1035H8.88672V15.6426C9.94141 15.4277 10.9408 15.1868 11.8848 14.9199ZM1.02539 17.1367C1.41602 16.6549 1.75456 16.1146 2.04102 15.5156C2.7181 14.1224 3.33984 12.5762 3.90625 10.877C4.2513 11.2546 4.62891 11.6029 5.03906 11.9219C5.31901 12.1432 5.45898 12.3027 5.45898 12.4004C5.45898 12.485 5.41992 12.638 5.3418 12.8594C4.80794 14.3893 4.19922 15.8737 3.51562 17.3125C3.35286 17.6315 3.2487 17.8919 3.20312 18.0938C3.16406 18.2695 3.07617 18.3574 2.93945 18.3574C2.86133 18.3574 2.74089 18.3184 2.57812 18.2402C2.00521 17.8887 1.48763 17.5208 1.02539 17.1367ZM3.14453 0.515625C4.12109 1.11458 5.08789 1.85026 6.04492 2.72266C6.12305 2.78776 6.16211 2.83659 6.16211 2.86914C6.16211 2.91471 6.11654 2.99935 6.02539 3.12305L5.12695 4.32422C5.04232 4.4349 4.9707 4.49023 4.91211 4.49023C4.86654 4.49023 4.8112 4.46419 4.74609 4.41211C3.80859 3.47461 2.84831 2.70312 1.86523 2.09766C1.7806 2.03906 1.73828 1.99349 1.73828 1.96094C1.73828 1.92839 1.7806 1.85352 1.86523 1.73633L2.74414 0.642578C2.83529 0.525391 2.91667 0.466797 2.98828 0.466797C3.02734 0.466797 3.07943 0.483073 3.14453 0.515625ZM2.30469 5.62305C3.40495 6.27409 4.37174 6.98047 5.20508 7.74219C5.2832 7.80078 5.32227 7.84961 5.32227 7.88867C5.32227 7.93424 5.27669 8.01888 5.18555 8.14258L4.30664 9.27539C4.20247 9.41211 4.12435 9.48047 4.07227 9.48047C4.02669 9.48047 3.97135 9.44466 3.90625 9.37305C3.1901 8.65039 2.23633 7.90495 1.04492 7.13672C0.953776 7.09115 0.908203 7.04232 0.908203 6.99023C0.908203 6.95117 0.953776 6.87305 1.04492 6.75586L1.92383 5.70117C2.00195 5.60352 2.06706 5.55469 2.11914 5.55469C2.15169 5.55469 2.21354 5.57747 2.30469 5.62305ZM37.741 13.8652C38.1707 14.1452 38.6557 14.3763 39.1961 14.5586C39.4109 14.6367 39.5411 14.6953 39.5867 14.7344C39.6388 14.7799 39.6648 14.8483 39.6648 14.9395C39.6648 14.985 39.6551 15.0859 39.6355 15.2422C39.577 15.9648 39.4663 16.4987 39.3035 16.8438C39.1733 17.1302 38.9715 17.3711 38.698 17.5664C38.1902 17.9635 37.077 18.1621 35.3582 18.1621C33.8413 18.1621 32.8387 18.0677 32.3504 17.8789C31.8035 17.6445 31.5301 17.1725 31.5301 16.4629V12.3223H29.7234C29.144 15.6947 27.0965 17.7487 23.5809 18.4844C23.3855 18.5234 23.2456 18.543 23.1609 18.543C23.0242 18.543 22.8712 18.377 22.702 18.0449C22.4285 17.5176 22.103 17.0846 21.7254 16.7461C25.1889 16.3164 27.1225 14.8418 27.5262 12.3223H27.4871L24.782 12.3613C24.6714 12.3613 24.603 12.3483 24.577 12.3223C24.5574 12.2962 24.5477 12.2344 24.5477 12.1367L24.5867 9.70508V3.71875L24.5477 1.23828C24.5477 1.13411 24.5607 1.07227 24.5867 1.05273C24.6193 1.0332 24.6844 1.02344 24.782 1.02344L27.5262 1.0625H33.9715L36.6961 1.02344C36.8068 1.02344 36.8719 1.03646 36.8914 1.0625C36.9109 1.08854 36.9207 1.14714 36.9207 1.23828L36.8816 3.71875V9.70508L36.9207 12.1367C36.9207 12.2409 36.9077 12.306 36.8816 12.332C36.8621 12.3516 36.8003 12.3613 36.6961 12.3613L33.9715 12.3223H33.6102V15.4863C33.6102 15.8704 33.7306 16.0885 33.9715 16.1406C34.1863 16.2057 34.7039 16.2383 35.5242 16.2383C36.4357 16.2383 37.0086 16.1504 37.243 15.9746C37.5555 15.7402 37.7215 15.0371 37.741 13.8652ZM34.8016 10.6035V9.11914H26.6473V10.6035H34.8016ZM34.8016 2.87891H26.6473V4.34375H34.8016V2.87891ZM26.6473 7.43945H34.8016V6.02344H26.6473V7.43945ZM43.3824 8.29883C43.4215 8.24023 43.6428 7.87891 44.0465 7.21484C44.2223 6.92839 44.3557 6.72331 44.4469 6.59961C44.5445 6.46289 44.6454 6.39453 44.7496 6.39453C44.7757 6.39453 44.7984 6.39779 44.818 6.4043C46.2047 6.86654 47.4872 7.52083 48.6656 8.36719C48.8089 8.47135 48.8805 8.56901 48.8805 8.66016C48.8805 8.70573 48.8544 8.7806 48.8023 8.88477C48.6331 9.29492 48.3401 9.80273 47.9234 10.4082C47.8128 10.5384 47.7249 10.6035 47.6598 10.6035C47.6012 10.6035 47.523 10.5645 47.4254 10.4863C46.2861 9.64648 44.9384 8.91732 43.3824 8.29883ZM45.8043 3.60156L46.859 2C46.9501 1.85026 47.0445 1.77539 47.1422 1.77539C47.2008 1.77539 47.2757 1.79818 47.3668 1.84375C48.8837 2.45573 50.137 3.19466 51.1266 4.06055C51.2307 4.13216 51.2828 4.22005 51.2828 4.32422C51.2828 4.40885 51.2568 4.49349 51.2047 4.57812C50.8206 5.26823 50.4788 5.76953 50.1793 6.08203C50.1337 6.16016 50.0686 6.19922 49.984 6.19922C49.8994 6.19922 49.7984 6.15365 49.6813 6.0625C48.4313 5.02734 47.1389 4.20703 45.8043 3.60156ZM44.9645 14.998C45.8108 14.8353 46.7158 14.5098 47.6793 14.0215C49.8408 12.8822 51.6669 11.7298 53.1578 10.5645C55.2216 8.98893 57.1422 7.12695 58.9195 4.97852C59.0107 5.61003 59.206 6.35872 59.5055 7.22461C59.5706 7.38086 59.6031 7.50781 59.6031 7.60547C59.6031 7.76172 59.5315 7.91471 59.3883 8.06445C57.8648 9.69206 56.1689 11.2318 54.3004 12.6836C52.7509 13.862 50.7587 15.1152 48.3238 16.4434C47.6207 16.821 47.2333 17.0488 47.1617 17.127C47.0576 17.2311 46.9501 17.2832 46.8395 17.2832C46.6962 17.2832 46.5628 17.2018 46.4391 17.0391C46.0615 16.6615 45.5699 15.9811 44.9645 14.998ZM74.307 9.68555C76.169 11.0658 78.0147 12.6771 79.8441 14.5195C79.9483 14.6237 80.0004 14.7181 80.0004 14.8027C80.0004 14.8874 79.9548 14.985 79.8637 15.0957C79.4405 15.61 78.9945 16.0658 78.5258 16.4629C78.4411 16.541 78.3598 16.5801 78.2816 16.5801C78.2035 16.5801 78.1091 16.528 77.9984 16.4238C76.4945 14.6595 74.7628 13.0059 72.8031 11.4629C70.7133 13.6439 68.4737 15.4049 66.0844 16.7461C65.8435 16.8503 65.6905 16.9023 65.6254 16.9023C65.4952 16.9023 65.3812 16.8438 65.2836 16.7266C64.9125 16.2643 64.3526 15.8281 63.6039 15.418C65.212 14.6042 66.5922 13.7643 67.7445 12.8984C68.682 12.1953 69.6488 11.3359 70.6449 10.3203C72.0707 8.84245 73.324 7.16927 74.4047 5.30078L69.2484 5.32031C68.2198 5.32031 67.1651 5.36263 66.0844 5.44727C65.9542 5.46029 65.8663 5.34635 65.8207 5.10547C65.7035 4.60417 65.6449 3.91081 65.6449 3.02539C66.3611 3.07747 67.4874 3.10352 69.0238 3.10352H74.5219C75.2185 3.10352 75.6775 3.04167 75.8988 2.91797C75.9704 2.86589 76.0453 2.83984 76.1234 2.83984C76.1885 2.83984 76.3025 2.89193 76.4652 2.99609C76.8949 3.33464 77.3279 3.80339 77.7641 4.40234C77.8292 4.51302 77.8617 4.59766 77.8617 4.65625C77.8617 4.79297 77.7738 4.92643 77.598 5.05664C77.3246 5.29753 77.0805 5.59375 76.8656 5.94531C76.1169 7.21484 75.2641 8.46159 74.307 9.68555ZM94.2551 8.81641C94.19 10.0339 94.063 11.0267 93.8742 11.7949C93.705 12.5111 93.438 13.2174 93.0734 13.9141C92.6633 14.7279 92.0969 15.5026 91.3742 16.2383C90.7753 16.8438 90.1698 17.3288 89.5578 17.6934C89.3039 17.8561 89.1053 17.9375 88.9621 17.9375C88.8124 17.9375 88.6724 17.8724 88.5422 17.7422C88.1125 17.3125 87.5168 16.9577 86.7551 16.6777C87.8293 16.0983 88.6757 15.5254 89.2941 14.959C89.8736 14.4251 90.3553 13.8099 90.7395 13.1133C91.1171 12.4427 91.3775 11.7559 91.5207 11.0527C91.6379 10.4863 91.716 9.74089 91.7551 8.81641H87.9563C87.3182 8.81641 86.3189 8.85547 84.9582 8.93359C84.8085 8.95312 84.7206 8.82617 84.6945 8.55273C84.5904 7.95378 84.5383 7.31576 84.5383 6.63867C85.287 6.70378 86.4198 6.73633 87.9367 6.73633H96.9211C98.3469 6.73633 99.6457 6.69727 100.818 6.61914C100.961 6.61914 101.032 6.7526 101.032 7.01953C101.045 7.15625 101.052 7.41341 101.052 7.79102C101.052 8.16211 101.045 8.41602 101.032 8.55273C101.032 8.7806 100.935 8.89453 100.739 8.89453C99.3267 8.84245 98.0604 8.81641 96.9406 8.81641H94.2551ZM86.9797 2C88.1451 2.0651 89.2518 2.09766 90.3 2.09766H94.7824C96.1496 2.09766 97.2727 2.07161 98.1516 2.01953C98.3143 2.01953 98.3957 2.14648 98.3957 2.40039C98.4152 2.64779 98.425 2.88867 98.425 3.12305C98.425 3.37044 98.4152 3.61458 98.3957 3.85547C98.3957 4.10938 98.3078 4.23633 98.132 4.23633C97.0448 4.19727 95.9283 4.17773 94.7824 4.17773H90.3C89.9224 4.17773 88.9751 4.20378 87.4582 4.25586C87.2499 4.25586 87.1359 4.14193 87.1164 3.91406C87.0969 3.73177 87.0741 3.41927 87.048 2.97656C87.0155 2.52083 86.9927 2.19531 86.9797 2ZM111.928 1.27734C113.262 1.67448 114.161 2.02279 114.623 2.32227C114.786 2.43294 114.867 2.54036 114.867 2.64453C114.867 2.75521 114.799 2.88867 114.662 3.04492C114.421 3.35742 114.151 3.91081 113.852 4.70508C112.309 8.91081 111.16 11.9089 110.404 13.6992C113.399 13.4453 115.733 13.1914 117.406 12.9375C116.729 11.7396 115.987 10.6751 115.18 9.74414L116.928 8.77734C116.999 8.73828 117.061 8.71875 117.113 8.71875C117.204 8.71875 117.302 8.77734 117.406 8.89453C118.995 10.75 120.342 12.931 121.449 15.4375C121.501 15.5286 121.527 15.6165 121.527 15.7012C121.527 15.8314 121.439 15.9453 121.264 16.043C120.834 16.3294 120.329 16.6029 119.75 16.8633C119.665 16.9023 119.584 16.9219 119.506 16.9219C119.382 16.9219 119.288 16.8275 119.223 16.6387C118.871 15.8184 118.637 15.2845 118.52 15.0371C116.059 15.4082 112.895 15.7956 109.027 16.1992C107.855 16.3229 107.074 16.4857 106.684 16.6875C106.592 16.7266 106.508 16.7461 106.43 16.7461C106.273 16.7461 106.166 16.6582 106.107 16.4824C105.958 16.1634 105.723 15.304 105.404 13.9043C105.769 13.9303 106.176 13.9434 106.625 13.9434C106.84 13.9434 107.247 13.9368 107.846 13.9238C109.167 10.584 110.333 7.2832 111.342 4.02148C111.687 2.90169 111.882 1.98698 111.928 1.27734Z" fill="#565656"/>
</svg>
