<svg width="184" height="20" viewBox="0 0 184 20" fill="none" xmlns="http://www.w3.org/2000/svg">
<path d="M8.04883 5.2168L11.6426 5.13867C12.0853 5.12565 12.4206 5.04427 12.6484 4.89453C12.7135 4.84245 12.7982 4.81641 12.9023 4.81641C13 4.81641 13.1074 4.85547 13.2246 4.93359C13.6803 5.22656 14.1328 5.58789 14.582 6.01758C14.7578 6.17383 14.8457 6.32682 14.8457 6.47656C14.8457 6.61979 14.7643 6.75977 14.6016 6.89648C14.3542 7.0918 14.1361 7.37826 13.9473 7.75586C12.6908 10.3079 11.3691 12.3685 9.98242 13.9375C9.07096 14.9661 8.01953 15.959 6.82812 16.916C5.80599 17.7363 4.83268 18.4036 3.9082 18.918C3.80404 18.9831 3.69661 19.0156 3.58594 19.0156C3.44271 19.0156 3.28971 18.944 3.12695 18.8008C2.62565 18.4036 1.99089 18.0977 1.22266 17.8828C2.84375 16.9844 4.16862 16.1315 5.19727 15.3242C6.05013 14.6406 6.94531 13.791 7.88281 12.7754C8.74219 11.8249 9.44531 10.9199 9.99219 10.0605C10.5 9.26628 11.0306 8.27995 11.584 7.10156L6.74023 7.23828C5.13867 9.22396 3.87891 10.5911 2.96094 11.3398C2.81771 11.4896 2.67773 11.5645 2.54102 11.5645C2.44336 11.5645 2.3457 11.5254 2.24805 11.4473C1.64258 11.0111 1.0013 10.7214 0.324219 10.5781C2.55729 8.75521 4.35091 6.77604 5.70508 4.64062C6.31706 3.59896 6.71094 2.69727 6.88672 1.93555C8.01953 2.33919 8.79753 2.69401 9.2207 3C9.35742 3.09766 9.42578 3.21159 9.42578 3.3418C9.42578 3.47852 9.35091 3.59245 9.20117 3.68359C9.11654 3.73568 8.95052 3.91471 8.70312 4.2207C8.5599 4.44857 8.3418 4.7806 8.04883 5.2168ZM23.6414 2.63867C24.5919 2.72982 25.6857 2.77539 26.9227 2.77539H30.5262C31.3335 2.77539 32.3784 2.74284 33.6609 2.67773C33.8237 2.67773 33.9051 2.7819 33.9051 2.99023C33.9246 3.25065 33.9344 3.51107 33.9344 3.77148C33.9344 4.03841 33.9246 4.29883 33.9051 4.55273C33.9051 4.81966 33.8107 4.95312 33.6219 4.95312C33.6089 4.95312 33.5828 4.95312 33.5438 4.95312L30.7215 4.91406H26.7664C25.6727 4.91406 24.7579 4.9401 24.0223 4.99219C23.853 4.99219 23.7586 4.8457 23.7391 4.55273C23.674 4.09049 23.6414 3.45247 23.6414 2.63867ZM21.9031 6.90625C22.9188 7.01042 24.146 7.0625 25.5848 7.0625H32.4402C32.8895 7.0625 33.2443 6.98763 33.5047 6.83789C33.6023 6.75977 33.687 6.7207 33.7586 6.7207C33.8432 6.7207 33.9441 6.76628 34.0613 6.85742C34.5952 7.2806 35.0444 7.69401 35.409 8.09766C35.5392 8.23438 35.6043 8.37435 35.6043 8.51758C35.6043 8.66081 35.5294 8.78776 35.3797 8.89844C35.1323 9.10677 34.9077 9.41927 34.7059 9.83594C33.6382 12.1081 32.4207 13.9473 31.0535 15.3535C29.8491 16.597 28.3452 17.707 26.5418 18.6836C26.353 18.7747 26.2195 18.8203 26.1414 18.8203C26.0112 18.8203 25.8647 18.7422 25.702 18.5859C25.2723 18.2018 24.6538 17.8535 23.8465 17.541C25.9559 16.5645 27.7332 15.3503 29.1785 13.8984C30.5783 12.4922 31.6004 10.9264 32.2449 9.20117L25.4188 9.2207C24.3055 9.2207 23.3061 9.24674 22.4207 9.29883C22.2645 9.29883 22.1668 9.17188 22.1277 8.91797C22.0626 8.65755 21.9878 7.98698 21.9031 6.90625ZM51.607 10.6855C53.469 12.0658 55.3147 13.6771 57.1441 15.5195C57.2483 15.6237 57.3004 15.7181 57.3004 15.8027C57.3004 15.8874 57.2548 15.985 57.1637 16.0957C56.7405 16.61 56.2945 17.0658 55.8258 17.4629C55.7411 17.541 55.6598 17.5801 55.5816 17.5801C55.5035 17.5801 55.4091 17.528 55.2984 17.4238C53.7945 15.6595 52.0628 14.0059 50.1031 12.4629C48.0133 14.6439 45.7737 16.4049 43.3844 17.7461C43.1435 17.8503 42.9905 17.9023 42.9254 17.9023C42.7952 17.9023 42.6813 17.8438 42.5836 17.7266C42.2125 17.2643 41.6526 16.8281 40.9039 16.418C42.512 15.6042 43.8922 14.7643 45.0445 13.8984C45.982 13.1953 46.9488 12.3359 47.9449 11.3203C49.3707 9.84245 50.624 8.16927 51.7047 6.30078L46.5484 6.32031C45.5198 6.32031 44.4651 6.36263 43.3844 6.44727C43.2542 6.46029 43.1663 6.34635 43.1207 6.10547C43.0035 5.60417 42.9449 4.91081 42.9449 4.02539C43.6611 4.07747 44.7874 4.10352 46.3238 4.10352H51.8219C52.5185 4.10352 52.9775 4.04167 53.1988 3.91797C53.2704 3.86589 53.3453 3.83984 53.4234 3.83984C53.4885 3.83984 53.6025 3.89193 53.7652 3.99609C54.1949 4.33464 54.6279 4.80339 55.0641 5.40234C55.1292 5.51302 55.1617 5.59766 55.1617 5.65625C55.1617 5.79297 55.0738 5.92643 54.898 6.05664C54.6246 6.29753 54.3805 6.59375 54.1656 6.94531C53.4169 8.21484 52.5641 9.46159 51.607 10.6855ZM76.0473 2.52148V4.69922H71.4281V18.0391H68.7035V4.69922H64.1234V2.52148H76.0473ZM82.7824 9.29883C82.8215 9.24023 83.0428 8.87891 83.4465 8.21484C83.6223 7.92839 83.7557 7.72331 83.8469 7.59961C83.9445 7.46289 84.0454 7.39453 84.1496 7.39453C84.1757 7.39453 84.1984 7.39779 84.218 7.4043C85.6047 7.86654 86.8872 8.52083 88.0656 9.36719C88.2089 9.47135 88.2805 9.56901 88.2805 9.66016C88.2805 9.70573 88.2544 9.7806 88.2023 9.88477C88.0331 10.2949 87.7401 10.8027 87.3234 11.4082C87.2128 11.5384 87.1249 11.6035 87.0598 11.6035C87.0012 11.6035 86.923 11.5645 86.8254 11.4863C85.6861 10.6465 84.3384 9.91732 82.7824 9.29883ZM85.2043 4.60156L86.259 3C86.3501 2.85026 86.4445 2.77539 86.5422 2.77539C86.6008 2.77539 86.6757 2.79818 86.7668 2.84375C88.2837 3.45573 89.537 4.19466 90.5266 5.06055C90.6307 5.13216 90.6828 5.22005 90.6828 5.32422C90.6828 5.40885 90.6568 5.49349 90.6047 5.57812C90.2206 6.26823 89.8788 6.76953 89.5793 7.08203C89.5337 7.16016 89.4686 7.19922 89.384 7.19922C89.2994 7.19922 89.1984 7.15365 89.0813 7.0625C87.8313 6.02734 86.5389 5.20703 85.2043 4.60156ZM84.3645 15.998C85.2108 15.8353 86.1158 15.5098 87.0793 15.0215C89.2408 13.8822 91.0669 12.7298 92.5578 11.5645C94.6216 9.98893 96.5422 8.12695 98.3195 5.97852C98.4107 6.61003 98.606 7.35872 98.9055 8.22461C98.9706 8.38086 99.0031 8.50781 99.0031 8.60547C99.0031 8.76172 98.9315 8.91471 98.7883 9.06445C97.2648 10.6921 95.5689 12.2318 93.7004 13.6836C92.1509 14.862 90.1587 16.1152 87.7238 17.4434C87.0207 17.821 86.6333 18.0488 86.5617 18.127C86.4576 18.2311 86.3501 18.2832 86.2395 18.2832C86.0962 18.2832 85.9628 18.2018 85.8391 18.0391C85.4615 17.6615 84.9699 16.9811 84.3645 15.998ZM109.439 11.6621L108.268 11.9648C107.571 12.1406 106.835 12.401 106.061 12.7461C105.885 12.8112 105.764 12.8438 105.699 12.8438C105.569 12.8438 105.458 12.7493 105.367 12.5605C105.178 12.222 104.944 11.6361 104.664 10.8027C105.289 10.7246 106.301 10.5033 107.701 10.1387L108.902 9.81641L108.463 8.13672C108.248 7.35547 107.975 6.68164 107.643 6.11523C108.847 5.97201 109.625 5.90039 109.977 5.90039C110.263 5.90039 110.406 6.00456 110.406 6.21289C110.406 6.23893 110.403 6.26823 110.396 6.30078C110.377 6.42448 110.367 6.55469 110.367 6.69141C110.367 6.97135 110.419 7.31966 110.523 7.73633L110.904 9.24023L115.24 8.13672C115.709 8.01953 116.044 7.87305 116.246 7.69727C116.324 7.61914 116.402 7.58008 116.48 7.58008C116.565 7.58008 116.679 7.63867 116.822 7.75586C117.369 8.16602 117.763 8.5013 118.004 8.76172C118.108 8.86589 118.16 8.9668 118.16 9.06445C118.16 9.18164 118.085 9.3151 117.936 9.46484C117.812 9.58854 117.708 9.72852 117.623 9.88477C116.777 11.5254 116.025 12.7786 115.367 13.6445C115.263 13.7617 115.162 13.8203 115.064 13.8203C114.98 13.8203 114.879 13.7878 114.762 13.7227C114.345 13.4753 113.811 13.2734 113.16 13.1172C114.059 12.1146 114.765 11.0957 115.279 10.0605L111.422 11.0762L112.34 14.6992C112.451 15.0964 112.62 15.7116 112.848 16.5449C113.023 17.1764 113.16 17.681 113.258 18.0586C113.277 18.1302 113.287 18.1921 113.287 18.2441C113.287 18.4004 113.193 18.5176 113.004 18.5957C112.678 18.7454 112.239 18.8789 111.686 18.9961C111.607 19.0156 111.542 19.0254 111.49 19.0254C111.334 19.0254 111.233 18.918 111.188 18.7031C111.038 18.026 110.771 16.9128 110.387 15.3633L109.439 11.6621ZM124.221 5.36328C124.996 4.91406 125.589 4.60482 125.999 4.43555C126.083 4.39648 126.158 4.37695 126.223 4.37695C126.341 4.37695 126.448 4.44531 126.546 4.58203C127.451 5.71484 128.196 6.97135 128.782 8.35156C128.834 8.48828 128.86 8.57617 128.86 8.61523C128.86 8.71289 128.779 8.8138 128.616 8.91797C128.102 9.23047 127.591 9.49089 127.083 9.69922C127.011 9.72526 126.946 9.73828 126.887 9.73828C126.751 9.73828 126.64 9.62435 126.555 9.39648C125.852 7.74284 125.074 6.39844 124.221 5.36328ZM129.378 4.06445C129.514 3.99935 129.72 3.90169 129.993 3.77148C130.546 3.50456 130.957 3.31576 131.223 3.20508C131.295 3.17253 131.363 3.15625 131.429 3.15625C131.539 3.15625 131.643 3.22461 131.741 3.36133C132.587 4.52018 133.242 5.75391 133.704 7.0625C133.736 7.14062 133.753 7.20898 133.753 7.26758C133.753 7.39779 133.668 7.51497 133.499 7.61914C133.173 7.82096 132.669 8.06185 131.985 8.3418C131.874 8.38086 131.787 8.40039 131.721 8.40039C131.598 8.40039 131.503 8.29948 131.438 8.09766C130.93 6.63281 130.244 5.28841 129.378 4.06445ZM137.386 3.55664C138.453 3.93424 139.322 4.32812 139.993 4.73828C140.143 4.82292 140.218 4.95638 140.218 5.13867C140.218 5.26237 140.165 5.3763 140.061 5.48047C139.86 5.64323 139.599 6.08268 139.28 6.79883C138.011 9.64388 136.718 11.9128 135.403 13.6055C133.736 15.7083 131.975 17.362 130.12 18.5664C129.938 18.6836 129.785 18.7422 129.661 18.7422C129.563 18.7422 129.449 18.6966 129.319 18.6055C128.675 18.1497 128.037 17.834 127.405 17.6582C128.85 16.7077 130.045 15.7962 130.989 14.9238C131.796 14.1882 132.581 13.3418 133.343 12.3848C134.775 10.5618 135.927 8.49479 136.8 6.18359C137.125 5.27214 137.32 4.39648 137.386 3.55664ZM154.257 19.5039H152.763C152.653 19.5039 152.587 19.4876 152.568 19.4551C152.548 19.429 152.539 19.3639 152.539 19.2598L152.578 15.5977V13.791L152.539 11.2715C152.539 11.1608 152.552 11.0924 152.578 11.0664C152.604 11.0469 152.666 11.0371 152.763 11.0371L155.127 11.0762H158.466L160.8 11.0371C160.918 11.0371 160.989 11.0534 161.015 11.0859C161.035 11.112 161.045 11.1738 161.045 11.2715L161.005 13.4688V15.5391L161.045 19.1816C161.045 19.2728 161.028 19.3314 160.996 19.3574C160.97 19.3704 160.905 19.377 160.8 19.377H159.267C159.117 19.377 159.043 19.3118 159.043 19.1816V18.4199H154.502V19.2598C154.502 19.377 154.489 19.4453 154.462 19.4648C154.43 19.4909 154.362 19.5039 154.257 19.5039ZM154.502 12.9121V16.584H159.043V12.9121H154.502ZM150.644 7.88281C151.217 9.05469 151.666 10.2526 151.992 11.4766C152.005 11.5352 152.011 11.5807 152.011 11.6133C152.011 11.7044 151.917 11.7793 151.728 11.8379L150.703 12.1406C150.618 12.1667 150.556 12.1797 150.517 12.1797C150.439 12.1797 150.39 12.1146 150.371 11.9844L150.146 11.0957L148.886 11.2227V16.7012L148.925 19.3184C148.925 19.4225 148.912 19.4876 148.886 19.5137C148.86 19.5332 148.802 19.543 148.711 19.543H147.177C147.073 19.543 147.011 19.5267 146.992 19.4941C146.972 19.4746 146.962 19.416 146.962 19.3184L147.002 16.7012V11.3984L145.244 11.5156C144.918 11.5352 144.677 11.5905 144.521 11.6816C144.391 11.7467 144.283 11.7793 144.199 11.7793C144.088 11.7793 144.01 11.6654 143.964 11.4375C143.847 10.8776 143.753 10.3177 143.681 9.75781C144.17 9.79036 144.583 9.80664 144.921 9.80664C145.045 9.80664 145.185 9.80339 145.341 9.79688C145.595 9.47786 145.976 8.97331 146.484 8.2832C145.683 7.2806 144.795 6.3138 143.818 5.38281C143.746 5.32422 143.711 5.26888 143.711 5.2168C143.711 5.18424 143.753 5.09961 143.837 4.96289L144.521 3.91797C144.599 3.80078 144.668 3.74219 144.726 3.74219C144.765 3.74219 144.824 3.78125 144.902 3.85938L145.439 4.41602C145.875 3.7194 146.243 3.03255 146.543 2.35547C146.738 1.95182 146.891 1.53841 147.002 1.11523C147.737 1.38867 148.304 1.62956 148.701 1.83789C148.877 1.93555 148.964 2.04297 148.964 2.16016C148.964 2.23828 148.906 2.32617 148.789 2.42383C148.652 2.52148 148.525 2.68099 148.408 2.90234C147.783 3.97005 147.194 4.89453 146.64 5.67578C147.044 6.13151 147.337 6.47331 147.519 6.70117C147.916 6.0957 148.372 5.35026 148.886 4.46484C149.095 4.07422 149.293 3.61849 149.482 3.09766C150.25 3.45573 150.81 3.74219 151.162 3.95703C151.324 4.04818 151.406 4.14909 151.406 4.25977C151.406 4.38346 151.334 4.48438 151.191 4.5625C151.028 4.65365 150.807 4.92708 150.527 5.38281C149.479 7.02344 148.463 8.46875 147.48 9.71875C148.001 9.69271 148.73 9.64062 149.668 9.5625C149.524 9.17839 149.365 8.79753 149.189 8.41992C149.157 8.3418 149.14 8.28646 149.14 8.25391C149.14 8.18229 149.222 8.11719 149.384 8.05859L150.224 7.73633C150.315 7.70378 150.387 7.6875 150.439 7.6875C150.511 7.6875 150.579 7.7526 150.644 7.88281ZM159.482 3.89844H156.621C156.425 6.58073 155.26 8.61198 153.125 9.99219C152.864 10.168 152.711 10.2559 152.666 10.2559C152.581 10.2559 152.441 10.1094 152.246 9.81641C151.907 9.32161 151.559 8.97656 151.201 8.78125C152.373 8.20833 153.229 7.51823 153.769 6.71094C154.27 5.96224 154.567 5.02474 154.658 3.89844H154.482L151.962 3.9375C151.858 3.9375 151.793 3.92122 151.767 3.88867C151.748 3.86263 151.738 3.80078 151.738 3.70312V2.32617C151.738 2.20898 151.754 2.13737 151.787 2.11133C151.806 2.0918 151.865 2.08203 151.962 2.08203L154.482 2.12109H158.72L161.25 2.08203C161.347 2.08203 161.409 2.10156 161.435 2.14062C161.455 2.16667 161.464 2.23503 161.464 2.3457C161.464 2.99674 161.458 3.45573 161.445 3.72266C161.38 6.26172 161.178 7.89909 160.839 8.63477C160.462 9.48763 159.684 9.91406 158.505 9.91406C157.998 9.91406 157.617 9.90755 157.363 9.89453C157.076 9.88151 156.904 9.83919 156.845 9.76758C156.8 9.70898 156.751 9.5332 156.699 9.24023C156.614 8.70638 156.474 8.26042 156.279 7.90234C157.028 8.00651 157.643 8.05859 158.125 8.05859C158.561 8.05859 158.873 7.91211 159.062 7.61914C159.316 7.19596 159.456 5.95573 159.482 3.89844ZM143.642 17.4824C144.085 16.1087 144.352 14.8359 144.443 13.6641C144.469 13.3906 144.482 13.166 144.482 12.9902C144.482 12.86 144.476 12.7103 144.462 12.541C144.951 12.5996 145.462 12.694 145.996 12.8242C146.224 12.8763 146.337 12.9544 146.337 13.0586C146.337 13.1367 146.305 13.2311 146.24 13.3418C146.207 13.3939 146.168 13.612 146.123 13.9961C145.947 15.4414 145.712 16.6816 145.42 17.7168C145.328 18.0098 145.227 18.1562 145.117 18.1562C145.045 18.1562 144.928 18.1042 144.765 18C144.362 17.7721 143.987 17.5996 143.642 17.4824ZM150.742 12.5996C150.82 12.5801 150.875 12.5703 150.908 12.5703C150.973 12.5703 151.032 12.6387 151.084 12.7754C151.442 13.8431 151.712 15.0508 151.894 16.3984C151.901 16.4505 151.904 16.4863 151.904 16.5059C151.904 16.623 151.816 16.7077 151.64 16.7598L150.683 17.082C150.566 17.1211 150.485 17.1406 150.439 17.1406C150.374 17.1406 150.335 17.082 150.322 16.9648C150.166 15.7148 149.912 14.4453 149.56 13.1562C149.547 13.1042 149.541 13.0618 149.541 13.0293C149.541 12.9447 149.622 12.8828 149.785 12.8438L150.742 12.5996ZM183.082 8.43945C182.763 8.83008 182.477 9.35742 182.223 10.0215C182.086 10.3665 181.966 10.5391 181.862 10.5391C181.823 10.5391 181.67 10.4805 181.403 10.3633C178.017 8.76172 175.403 6.58073 173.561 3.82031C171.881 6.45052 169.388 8.64128 166.08 10.3926C165.833 10.5423 165.674 10.6172 165.602 10.6172C165.517 10.6172 165.397 10.4512 165.241 10.1191C165.006 9.57227 164.7 9.10026 164.323 8.70312C167.689 7.23828 170.202 5.1582 171.862 2.46289C172.168 2.00065 172.402 1.51237 172.565 0.998047C173.58 1.1543 174.274 1.29427 174.645 1.41797C174.873 1.47005 174.987 1.57096 174.987 1.7207C174.987 1.80534 174.918 1.90625 174.782 2.02344L174.645 2.14062C175.797 3.71615 177.067 5.00195 178.454 5.99805C179.71 6.90299 181.253 7.7168 183.082 8.43945ZM165.026 17.8438C166.901 17.2383 168.161 16.3822 168.805 15.2754C169.313 14.4225 169.567 12.9772 169.567 10.9395C169.567 9.94987 169.518 9.16862 169.42 8.5957C170.169 8.5957 170.908 8.63151 171.637 8.70312C171.865 8.72266 171.979 8.80078 171.979 8.9375C171.979 9.03516 171.946 9.18164 171.881 9.37695C171.797 9.61784 171.754 10.1582 171.754 10.998C171.754 12.4629 171.653 13.6445 171.452 14.543C171.282 15.3047 171.012 15.9915 170.641 16.6035C169.899 17.7819 168.711 18.7259 167.077 19.4355C166.816 19.5723 166.657 19.6406 166.598 19.6406C166.5 19.6406 166.37 19.4941 166.207 19.2012C165.83 18.6022 165.436 18.1497 165.026 17.8438ZM175.309 8.55664C176.051 8.57617 176.78 8.63151 177.496 8.72266C177.698 8.74219 177.799 8.8138 177.799 8.9375C177.799 9.0026 177.767 9.16862 177.702 9.43555C177.636 9.74805 177.604 10.4707 177.604 11.6035V16.6621L177.643 19.2402C177.643 19.3379 177.627 19.3965 177.594 19.416C177.568 19.429 177.506 19.4355 177.409 19.4355H175.621C175.478 19.4355 175.407 19.3704 175.407 19.2402L175.446 16.6621V11.623C175.446 10.1842 175.4 9.16211 175.309 8.55664Z" fill="#565656"/>
</svg>
