<svg width="81" height="19" viewBox="0 0 81 19" fill="none" xmlns="http://www.w3.org/2000/svg">
<path d="M1.88477 13.9824C1.76107 14.1842 1.65365 14.2852 1.5625 14.2852C1.49089 14.2852 1.41927 14.1712 1.34766 13.9434C1.14583 13.3249 0.917969 12.8236 0.664062 12.4395C2.04427 10.623 3.04362 8.51693 3.66211 6.12109H3.32031L1.38672 6.16016C1.28255 6.16016 1.21745 6.14388 1.19141 6.11133C1.17188 6.08529 1.16211 6.02344 1.16211 5.92578V4.5C1.16211 4.36979 1.23698 4.30469 1.38672 4.30469L3.32031 4.34375H3.7793V3.00586C3.7793 1.81445 3.72721 0.89974 3.62305 0.261719C4.39128 0.28125 5.05859 0.326823 5.625 0.398438C5.85286 0.424479 5.9668 0.492839 5.9668 0.603516C5.9668 0.714193 5.92773 0.860677 5.84961 1.04297C5.75195 1.23177 5.70312 1.87305 5.70312 2.9668V4.34375L7.46094 4.30469C7.61068 4.30469 7.68555 4.36979 7.68555 4.5V5.92578C7.68555 6.03646 7.67253 6.10482 7.64648 6.13086C7.62044 6.15039 7.55859 6.16016 7.46094 6.16016L5.76172 6.12109C6.24349 7.45573 6.97917 8.71549 7.96875 9.90039C7.6888 10.2585 7.44792 10.6914 7.24609 11.1992C7.14193 11.4401 7.06055 11.5605 7.00195 11.5605C6.93034 11.5605 6.83919 11.4531 6.72852 11.2383C6.29883 10.4831 5.9375 9.64974 5.64453 8.73828C5.65104 10.9779 5.67708 13.2988 5.72266 15.7012C5.73568 16.2285 5.75195 16.8991 5.77148 17.7129C5.77799 18.084 5.78125 18.2923 5.78125 18.3379C5.78125 18.4551 5.76823 18.5267 5.74219 18.5527C5.71615 18.5723 5.65104 18.582 5.54688 18.582H3.92578C3.8151 18.582 3.75 18.569 3.73047 18.543C3.71094 18.5104 3.70117 18.4421 3.70117 18.3379C3.70117 18.3118 3.71094 17.8529 3.73047 16.9609C3.79557 14.3568 3.83464 11.9251 3.84766 9.66602C3.35938 11.2806 2.70508 12.7194 1.88477 13.9824ZM19.3457 16.4629C18.9876 16.8796 18.6816 17.3516 18.4277 17.8789C18.2715 18.1979 18.138 18.3574 18.0273 18.3574C17.9557 18.3574 17.8027 18.3053 17.5684 18.2012C15.7324 17.3743 14.2448 16.401 13.1055 15.2812C11.862 16.5052 10.2539 17.5273 8.28125 18.3477C8.04688 18.4518 7.88737 18.5039 7.80273 18.5039C7.70508 18.5039 7.57161 18.3444 7.40234 18.0254C7.10938 17.498 6.79036 17.0977 6.44531 16.8242C8.63281 16.1276 10.4134 15.1055 11.7871 13.7578C11.0514 12.7552 10.4102 11.5345 9.86328 10.0957C9.83724 10.0371 9.82422 9.99154 9.82422 9.95898C9.82422 9.9069 9.91211 9.83529 10.0879 9.74414L11.2402 9.09961C11.3314 9.05404 11.3965 9.03125 11.4355 9.03125C11.5007 9.03125 11.556 9.09961 11.6016 9.23633C11.9987 10.3496 12.487 11.3229 13.0664 12.1562C13.3464 11.7331 13.6198 11.2155 13.8867 10.6035C14.1406 9.99805 14.3066 9.42513 14.3848 8.88477C15.0684 9.14518 15.6543 9.42513 16.1426 9.72461C16.3314 9.83529 16.4258 9.93294 16.4258 10.0176C16.4258 10.1413 16.3509 10.2747 16.2012 10.418C16.071 10.5482 15.918 10.8281 15.7422 11.2578C15.3646 12.1628 14.9186 12.9896 14.4043 13.7383C15.5957 14.8516 17.2428 15.7598 19.3457 16.4629ZM10.7227 4.82227L8.06641 4.86133C7.96224 4.86133 7.89714 4.84831 7.87109 4.82227C7.85156 4.79622 7.8418 4.73763 7.8418 4.64648V3.12305C7.8418 3.01888 7.85482 2.95378 7.88086 2.92773C7.9069 2.9082 7.96875 2.89844 8.06641 2.89844L10.7227 2.94727H12.002V2.36133C12.002 1.50846 11.9564 0.802083 11.8652 0.242188C12.7441 0.268229 13.4701 0.313802 14.043 0.378906C14.2708 0.404948 14.3848 0.473307 14.3848 0.583984C14.3848 0.67513 14.3457 0.815104 14.2676 1.00391C14.1569 1.21875 14.1016 1.67122 14.1016 2.36133V2.94727H15.9473L18.584 2.89844C18.7012 2.89844 18.7695 2.91146 18.7891 2.9375C18.8151 2.96354 18.8281 3.02539 18.8281 3.12305V4.64648C18.8281 4.75065 18.8118 4.8125 18.7793 4.83203C18.7533 4.85156 18.6882 4.86133 18.584 4.86133L15.9473 4.82227H10.7227ZM15.8203 5.41797C16.7057 6.71354 17.7995 7.75521 19.1016 8.54297C18.737 8.93359 18.4375 9.34701 18.2031 9.7832C18.0599 10.0762 17.9395 10.2227 17.8418 10.2227C17.7637 10.2227 17.6237 10.1413 17.4219 9.97852C16.1068 8.96289 15.0358 7.75521 14.209 6.35547C14.1634 6.29036 14.1406 6.24154 14.1406 6.20898C14.1406 6.1569 14.2155 6.08854 14.3652 6.00391L15.4004 5.35938C15.5176 5.29427 15.5957 5.26172 15.6348 5.26172C15.6868 5.26172 15.7487 5.3138 15.8203 5.41797ZM10.2637 5.26172C10.8105 5.45703 11.3314 5.68164 11.8262 5.93555C12.028 6.05924 12.1289 6.16667 12.1289 6.25781C12.1289 6.375 12.0605 6.48893 11.9238 6.59961C11.8001 6.71029 11.6406 6.91862 11.4453 7.22461C10.918 8.12305 10.1725 9.03451 9.20898 9.95898C8.97461 10.1738 8.82812 10.2812 8.76953 10.2812C8.69141 10.2812 8.56445 10.1413 8.38867 9.86133C8.14128 9.50977 7.81901 9.18424 7.42188 8.88477C8.32682 8.18815 9.1276 7.29948 9.82422 6.21875C10.0065 5.91927 10.153 5.60026 10.2637 5.26172ZM33.7664 15.9258C34.5607 15.9779 35.1792 16.0039 35.6219 16.0039C35.726 16.0039 35.8074 16.0007 35.866 15.9941C36.1915 15.9876 36.4096 15.929 36.5203 15.8184C36.618 15.7207 36.6668 15.5547 36.6668 15.3203V11.9219C36.2762 12.293 35.9441 12.7129 35.6707 13.1816C35.4884 13.4616 35.3549 13.6016 35.2703 13.6016C35.1922 13.6016 35.0424 13.5202 34.8211 13.3574C32.9526 11.9577 31.6017 10.3138 30.7684 8.42578L30.7 8.58203C30.2182 9.71484 29.6681 10.6589 29.0496 11.4141C28.4116 12.1953 27.5945 12.931 26.5984 13.6211C26.3901 13.7969 26.2436 13.8848 26.159 13.8848C26.0809 13.8848 25.9539 13.7513 25.7781 13.4844C25.4786 13.0091 25.1596 12.6217 24.8211 12.3223V15.1055L24.8602 18.0059C24.8602 18.097 24.8439 18.1523 24.8113 18.1719C24.7853 18.1914 24.7234 18.2012 24.6258 18.2012H22.8777C22.7345 18.2012 22.6629 18.1361 22.6629 18.0059L22.702 14.8613V7.11719L22.6629 3.96289C22.6629 3.85221 22.6759 3.78711 22.702 3.76758C22.728 3.74805 22.7898 3.73828 22.8875 3.73828L25.5828 3.77734H29.4988C29.5314 3.16536 29.5477 2.68685 29.5477 2.3418C29.5477 1.50846 29.5053 0.792318 29.4207 0.193359C29.948 0.212891 30.6805 0.261719 31.618 0.339844C31.8198 0.359375 31.9207 0.4375 31.9207 0.574219C31.9207 0.645833 31.8816 0.785807 31.8035 0.994141C31.7579 1.15039 31.7254 1.63867 31.7059 2.45898C31.7059 2.75195 31.6928 3.19141 31.6668 3.77734H35.9246L38.6102 3.73828C38.7143 3.73828 38.7762 3.7513 38.7957 3.77734C38.8152 3.80339 38.825 3.86523 38.825 3.96289L38.7859 7.24414V12.459L38.8348 15.623C38.8348 15.7402 38.8348 15.8477 38.8348 15.9453C38.8348 16.7201 38.6199 17.2734 38.1902 17.6055C37.741 17.9505 36.7059 18.123 35.0848 18.123C34.7788 18.123 34.59 18.0872 34.5184 18.0156C34.4467 17.9505 34.3816 17.7715 34.323 17.4785C34.2059 16.8665 34.0203 16.349 33.7664 15.9258ZM36.6668 11.8047V5.70117H31.5398C32.0867 7.27018 32.8191 8.55599 33.7371 9.55859C34.4663 10.3464 35.4428 11.0951 36.6668 11.8047ZM28.7273 7.97656C28.9878 7.35807 29.1928 6.59961 29.3426 5.70117H24.8211V12.1172C26.6961 11.0625 27.9982 9.68229 28.7273 7.97656ZM58.6363 13.5625C59.1376 13.862 59.6194 14.0736 60.0816 14.1973C60.2965 14.2559 60.4267 14.3047 60.4723 14.3438C60.5244 14.3828 60.5504 14.4512 60.5504 14.5488C60.5504 14.6009 60.5406 14.7051 60.5211 14.8613C60.4299 15.7728 60.2997 16.4141 60.1305 16.7852C59.9872 17.1042 59.7561 17.3613 59.4371 17.5566C59.0595 17.8171 58.5257 17.9928 57.8355 18.084C57.1454 18.1751 56.1005 18.2207 54.7008 18.2207C52.4742 18.2207 51.068 18.0352 50.482 17.6641C49.9742 17.3451 49.7203 16.6842 49.7203 15.6816V9.44141C49.3688 9.5651 48.9781 9.70833 48.5484 9.87109C48.3141 9.95573 48.1708 10.0046 48.1188 10.0176C48.0536 10.0371 48.0081 10.0469 47.982 10.0469C47.9234 10.0469 47.8811 9.98503 47.8551 9.86133L47.6012 8.29883C47.5882 8.24023 47.5816 8.19792 47.5816 8.17188C47.5816 8.1263 47.6402 8.08073 47.7574 8.03516C48.2978 7.90495 48.9521 7.71289 49.7203 7.45898V5.26172C49.7268 5.08594 49.7301 4.9069 49.7301 4.72461C49.7301 3.85221 49.6878 3.08398 49.6031 2.41992C50.2802 2.43945 50.9215 2.47852 51.527 2.53711C51.7939 2.57617 51.9273 2.65104 51.9273 2.76172C51.9273 2.85938 51.885 2.99935 51.8004 3.18164C51.7223 3.33789 51.6832 3.9694 51.6832 5.07617V6.80469L53.5973 6.16016V3.25977C53.5973 2.27018 53.5452 1.32292 53.441 0.417969C54.2353 0.4375 54.9156 0.492839 55.482 0.583984C55.6969 0.603516 55.8043 0.67513 55.8043 0.798828C55.8043 0.850911 55.762 0.984375 55.6773 1.19922C55.5992 1.39453 55.5602 1.99349 55.5602 2.99609V5.51562L57.1031 4.99805C57.8193 4.76367 58.4964 4.53255 59.1344 4.30469C59.4859 4.17448 59.6813 4.10612 59.7203 4.09961C59.7398 4.09961 59.7561 4.09961 59.7691 4.09961C59.8798 4.09961 59.9352 4.16797 59.9352 4.30469L59.8766 6.86328C59.8375 8.84896 59.678 10.3529 59.398 11.375C59.1376 12.3906 58.5647 12.8984 57.6793 12.8984C57.3603 12.8984 57.1129 12.8854 56.9371 12.8594C56.7092 12.8398 56.5725 12.7975 56.527 12.7324C56.4879 12.6738 56.4456 12.4948 56.4 12.1953C56.3284 11.6549 56.1884 11.1764 55.9801 10.7598C56.3707 10.8509 56.7223 10.8965 57.0348 10.8965C57.2301 10.8965 57.3635 10.8444 57.4352 10.7402C57.5198 10.6426 57.5882 10.4473 57.6402 10.1543C57.7835 9.37305 57.8616 8.20768 57.8746 6.6582L55.5602 7.45898V10.9355L55.5992 14.041C55.5992 14.1387 55.5862 14.2005 55.5602 14.2266C55.5406 14.2461 55.4788 14.2559 55.3746 14.2559H53.773C53.6689 14.2559 53.607 14.2428 53.5875 14.2168C53.568 14.1908 53.5582 14.1322 53.5582 14.041L53.5973 10.9355V8.12305L51.6832 8.77734V15.1152C51.6832 15.5905 51.8102 15.8932 52.0641 16.0234C52.318 16.1667 53.275 16.2383 54.9352 16.2383C56.068 16.2383 56.8557 16.2025 57.2984 16.1309C57.6826 16.0723 57.969 15.9681 58.1578 15.8184C58.3336 15.6686 58.4508 15.431 58.5094 15.1055C58.568 14.806 58.6103 14.2917 58.6363 13.5625ZM48.5875 11.4238C48.5615 11.6191 48.5484 11.8535 48.5484 12.127C48.5484 12.3027 48.5517 12.4818 48.5582 12.6641C48.5712 12.8333 48.5777 12.944 48.5777 12.9961C48.5777 13.1458 48.5517 13.25 48.4996 13.3086C48.4475 13.3607 48.2945 13.4518 48.0406 13.582C46.9859 14.1094 45.6578 14.6758 44.0563 15.2812C43.6721 15.4375 43.454 15.5449 43.402 15.6035C43.3043 15.6947 43.1904 15.7402 43.0602 15.7402C42.9299 15.7402 42.829 15.6589 42.7574 15.4961C42.6142 15.1185 42.4352 14.526 42.2203 13.7188C42.9495 13.582 43.6103 13.416 44.2027 13.2207L44.6617 13.084V7.40039H44.4957L42.6793 7.43945C42.5751 7.43945 42.5165 7.42643 42.5035 7.40039C42.4905 7.38086 42.484 7.32227 42.484 7.22461V5.70117C42.484 5.59049 42.4938 5.52539 42.5133 5.50586C42.5328 5.48633 42.5882 5.47656 42.6793 5.47656L44.4957 5.51562H44.6617V3.64062C44.6617 2.29297 44.6064 1.31315 44.4957 0.701172C45.2639 0.720703 45.954 0.766276 46.566 0.837891C46.7809 0.857422 46.8883 0.938802 46.8883 1.08203C46.8883 1.13411 46.846 1.26758 46.7613 1.48242C46.6832 1.67122 46.6441 2.30273 46.6441 3.37695V5.51562L48.2848 5.47656C48.415 5.47656 48.4801 5.55143 48.4801 5.70117V7.22461C48.4801 7.36784 48.415 7.43945 48.2848 7.43945L46.6441 7.40039V12.3418C47.2236 12.1074 47.8714 11.8014 48.5875 11.4238ZM68.4379 8.2207C69.4926 8.6569 70.6937 9.24284 72.0414 9.97852C73.0375 8.9043 73.9555 7.54362 74.7953 5.89648C75.0427 5.43424 75.2445 4.86784 75.4008 4.19727C76.169 4.4707 76.7549 4.72461 77.1586 4.95898C77.3604 5.06966 77.4613 5.18359 77.4613 5.30078C77.4613 5.44401 77.3865 5.56445 77.2367 5.66211C77.1391 5.74674 76.934 6.08529 76.6215 6.67773C75.7296 8.41602 74.7888 9.85807 73.7992 11.0039C75.0622 11.7786 76.1755 12.5436 77.1391 13.2988C77.2172 13.3639 77.2562 13.416 77.2562 13.4551C77.2562 13.4876 77.2107 13.569 77.1195 13.6992L76.3383 14.7832C76.2406 14.9004 76.1625 14.959 76.1039 14.959C76.0583 14.959 76.003 14.9329 75.9379 14.8809C74.9418 14.0801 73.7634 13.2598 72.4027 12.4199C71.2699 13.4355 69.9548 14.2949 68.4574 14.998C68.1905 15.1348 68.0245 15.2031 67.9594 15.2031C67.8552 15.2031 67.7152 15.0501 67.5395 14.7441C67.2986 14.2949 67.0121 13.9271 66.6801 13.6406C68.21 12.9766 69.5089 12.2148 70.5766 11.3555C69.4112 10.7044 68.324 10.151 67.3148 9.69531C67.2367 9.65625 67.1977 9.61393 67.1977 9.56836C67.1977 9.5293 67.24 9.45443 67.3246 9.34375L68.018 8.33789C68.1026 8.2207 68.1807 8.16211 68.2523 8.16211C68.3044 8.16211 68.3663 8.18164 68.4379 8.2207ZM68.9164 4.5C69.4568 5.18359 69.9971 6.05599 70.5375 7.11719C70.5766 7.18229 70.5961 7.23438 70.5961 7.27344C70.5961 7.32552 70.518 7.39388 70.3617 7.47852L69.2387 8.12305C69.1345 8.18164 69.0661 8.21094 69.0336 8.21094C68.988 8.21094 68.9359 8.15234 68.8773 8.03516C68.4151 7.05208 67.8812 6.14714 67.2758 5.32031C67.2237 5.26172 67.1977 5.21289 67.1977 5.17383C67.1977 5.12174 67.266 5.06315 67.4027 4.99805L68.4965 4.44141C68.6137 4.3763 68.6951 4.34375 68.7406 4.34375C68.7927 4.34375 68.8513 4.39583 68.9164 4.5ZM72.2172 3.5625C72.6599 4.22656 73.1221 5.13151 73.6039 6.27734C73.6299 6.34896 73.643 6.40104 73.643 6.43359C73.643 6.4987 73.5616 6.56706 73.3988 6.63867L72.2562 7.15625C72.1456 7.20833 72.0642 7.23438 72.0121 7.23438C71.947 7.23438 71.8884 7.16927 71.8363 7.03906C71.3611 5.80208 70.9314 4.88086 70.5473 4.27539C70.5017 4.20378 70.4789 4.15169 70.4789 4.11914C70.4789 4.07357 70.5603 4.01497 70.723 3.94336L71.8168 3.43555C71.9079 3.39648 71.9763 3.37695 72.0219 3.37695C72.074 3.37695 72.1391 3.4388 72.2172 3.5625ZM65.7035 18.6211H63.975C63.8773 18.6211 63.8155 18.6081 63.7895 18.582C63.7699 18.5625 63.7602 18.5007 63.7602 18.3965L63.7992 10.7207V6.74609L63.7602 1.26758C63.7602 1.1569 63.7732 1.0918 63.7992 1.07227C63.8253 1.05273 63.8871 1.04297 63.9848 1.04297L66.641 1.08203H77.559L80.225 1.04297C80.3292 1.04297 80.391 1.05599 80.4105 1.08203C80.4301 1.10807 80.4398 1.16992 80.4398 1.26758L80.4008 6.0625V10.7012L80.4398 18.377C80.4398 18.4811 80.4268 18.5462 80.4008 18.5723C80.3747 18.5918 80.3161 18.6016 80.225 18.6016H78.5062C78.3956 18.6016 78.3305 18.5853 78.3109 18.5527C78.2914 18.5332 78.2816 18.4746 78.2816 18.377V17.4785H65.9184V18.3965C65.9184 18.5007 65.9053 18.5658 65.8793 18.5918C65.8533 18.6113 65.7947 18.6211 65.7035 18.6211ZM65.9184 2.9668V15.5742H78.2816V2.9668H65.9184Z" fill="#565656"/>
</svg>
