<svg width="123" height="20" viewBox="0 0 123 20" fill="none" xmlns="http://www.w3.org/2000/svg">
<path d="M7.71484 11.9844H8.13477V10.3828L5.73242 10.4219C5.62826 10.4219 5.56641 10.4056 5.54688 10.373C5.52734 10.347 5.51758 10.2852 5.51758 10.1875V8.89844C5.51758 8.79427 5.5306 8.73242 5.55664 8.71289C5.58268 8.69336 5.64128 8.68359 5.73242 8.68359L8.13477 8.72266C8.13477 8.05859 8.0957 7.51172 8.01758 7.08203C8.63607 7.10156 9.26107 7.14714 9.89258 7.21875C10.1204 7.24479 10.2344 7.32617 10.2344 7.46289C10.2344 7.54753 10.1953 7.66146 10.1172 7.80469C10.0391 7.98047 10 8.28646 10 8.72266H12.7148C12.7148 7.97396 12.6758 7.42708 12.5977 7.08203C13.1966 7.10156 13.8216 7.14714 14.4727 7.21875C14.7005 7.24479 14.8145 7.31966 14.8145 7.44336C14.8145 7.54102 14.7754 7.66146 14.6973 7.80469C14.6191 7.94792 14.5801 8.25391 14.5801 8.72266L17.0801 8.68359C17.1842 8.68359 17.2461 8.69661 17.2656 8.72266C17.2852 8.7487 17.2949 8.80729 17.2949 8.89844V10.1875C17.2949 10.2982 17.2819 10.3665 17.2559 10.3926C17.2298 10.4121 17.1712 10.4219 17.0801 10.4219L14.5801 10.3828V11.9844H15.7617L18.4961 11.9453C18.6003 11.9453 18.6654 11.9583 18.6914 11.9844C18.7109 12.0104 18.7207 12.069 18.7207 12.1602V13.5078C18.7207 13.6055 18.7077 13.6673 18.6816 13.6934C18.6621 13.7129 18.6003 13.7227 18.4961 13.7227L16.0156 13.6836C16.5169 13.944 16.8978 14.1784 17.1582 14.3867C17.2884 14.4779 17.3535 14.569 17.3535 14.6602C17.3535 14.7513 17.2819 14.8327 17.1387 14.9043C16.9499 14.9954 16.7546 15.1419 16.5527 15.3438C16.1491 15.7148 15.7227 16.0697 15.2734 16.4082C16.3477 16.9681 17.6562 17.3652 19.1992 17.5996C18.9258 17.873 18.6589 18.306 18.3984 18.8984C18.3008 19.1523 18.2324 19.3086 18.1934 19.3672C18.1413 19.4388 18.0664 19.4746 17.9688 19.4746C17.9036 19.4746 17.7604 19.4486 17.5391 19.3965C14.2578 18.5111 11.9108 16.6068 10.498 13.6836H8.83789V17.0039C10.153 16.7891 11.2598 16.5742 12.1582 16.3594C12.0866 16.6784 12.028 17.0658 11.9824 17.5215C11.9564 17.8535 11.9043 18.0586 11.8262 18.1367C11.7676 18.1888 11.5983 18.2441 11.3184 18.3027C9.60612 18.6868 7.91667 19.0189 6.25 19.2988C5.97656 19.3314 5.76497 19.3867 5.61523 19.4648C5.45247 19.543 5.33203 19.582 5.25391 19.582C5.11719 19.582 5.02279 19.4909 4.9707 19.3086L4.55078 17.4434C5.09115 17.4434 5.73242 17.4043 6.47461 17.3262L6.89453 17.2871V13.6836C6.38672 13.6901 5.92448 13.6999 5.50781 13.7129C5.22786 13.7194 5.08464 13.7227 5.07812 13.7227C4.94141 13.7227 4.87305 13.651 4.87305 13.5078V12.1602C4.87305 12.0169 4.94141 11.9453 5.07812 11.9453L7.71484 11.9844ZM10 11.9844H12.7148V10.3828H10V11.9844ZM13.877 15.4219C14.3001 15.1029 14.7266 14.709 15.1562 14.2402C15.306 14.071 15.4525 13.8854 15.5957 13.6836H12.5C12.8971 14.3802 13.3561 14.9596 13.877 15.4219ZM4.33594 13.8398C3.98438 15.8516 3.38542 17.5508 2.53906 18.9375C2.3763 19.2044 2.26237 19.3379 2.19727 19.3379C2.15169 19.3379 2.03776 19.224 1.85547 18.9961C1.40625 18.4622 0.973307 18.0716 0.556641 17.8242C1.45508 16.6003 2.06055 15.0345 2.37305 13.127C2.62695 11.6035 2.75391 9.37695 2.75391 6.44727L2.71484 2.22852C2.71484 2.11133 2.72786 2.03971 2.75391 2.01367C2.77995 1.99414 2.8418 1.98438 2.93945 1.98438L5.6543 2.02344H14.8926L17.6367 1.98438C17.7474 1.98438 17.8125 2.00065 17.832 2.0332C17.8516 2.05924 17.8613 2.12435 17.8613 2.22852L17.8125 3.64453V5.13867L17.8613 6.55469C17.8613 6.66536 17.8483 6.73047 17.8223 6.75C17.7962 6.76953 17.7344 6.7793 17.6367 6.7793L14.8926 6.74023H4.77539V7.88281C4.77539 10.1549 4.62891 12.1406 4.33594 13.8398ZM15.752 5.09961V3.74219H4.77539V5.09961H15.752ZM24.6648 9.31836L22.1453 9.35742C22.0411 9.35742 21.976 9.3444 21.95 9.31836C21.9305 9.29232 21.9207 9.23372 21.9207 9.14258V7.47266C21.9207 7.36849 21.937 7.30664 21.9695 7.28711C21.9891 7.26758 22.0477 7.25781 22.1453 7.25781L24.6648 7.29688H36.784L39.3035 7.25781C39.4077 7.25781 39.4695 7.27083 39.4891 7.29688C39.5086 7.32292 39.5184 7.38151 39.5184 7.47266V9.14258C39.5184 9.24674 39.5053 9.30859 39.4793 9.32812C39.4533 9.34766 39.3947 9.35742 39.3035 9.35742L36.784 9.31836H31.8426V14.2012L31.9012 16.9746C31.9012 17.4629 31.8491 17.834 31.7449 18.0879C31.6538 18.3288 31.4943 18.5436 31.2664 18.7324C30.8367 19.084 29.8211 19.2598 28.2195 19.2598C28.1414 19.2598 28.073 19.2598 28.0145 19.2598C27.8061 19.2598 27.6727 19.2142 27.6141 19.123C27.5685 19.0645 27.5132 18.8952 27.448 18.6152C27.2658 17.9251 27.0639 17.3848 26.8426 16.9941C27.5848 17.0788 28.226 17.1211 28.7664 17.1211C29.3654 17.1211 29.6648 16.8737 29.6648 16.3789V9.31836H24.6648ZM26.9012 4.54297L24.1375 4.58203C24.0333 4.58203 23.9715 4.56901 23.952 4.54297C23.9324 4.51693 23.9227 4.45833 23.9227 4.36719V2.69727C23.9227 2.5931 23.9357 2.53125 23.9617 2.51172C23.9878 2.49219 24.0464 2.48242 24.1375 2.48242L26.9012 2.52148H34.577L37.3406 2.48242C37.4448 2.48242 37.5099 2.49544 37.5359 2.52148C37.5555 2.54753 37.5652 2.60612 37.5652 2.69727V4.36719C37.5652 4.47135 37.549 4.5332 37.5164 4.55273C37.4969 4.57227 37.4383 4.58203 37.3406 4.58203L34.577 4.54297H26.9012ZM21.4617 16.2617C22.894 15.1419 23.9617 13.8691 24.6648 12.4434C24.9513 11.8444 25.1238 11.3105 25.1824 10.8418C25.7033 10.972 26.3478 11.1901 27.116 11.4961C27.3178 11.5872 27.4188 11.7012 27.4188 11.8379C27.4188 11.9355 27.3374 12.0625 27.1746 12.2188C27.0835 12.3099 26.9305 12.5703 26.7156 13C25.9409 14.5495 24.9415 15.9557 23.7176 17.2188C23.5092 17.4336 23.3497 17.541 23.2391 17.541C23.1349 17.541 22.9689 17.4271 22.741 17.1992C22.2462 16.75 21.8198 16.4375 21.4617 16.2617ZM39.9773 15.8613C39.5997 16.1348 39.1863 16.5286 38.7371 17.043C38.5092 17.3099 38.3595 17.4434 38.2879 17.4434C38.1967 17.4434 38.0535 17.3359 37.8582 17.1211C36.3543 15.5716 35.1303 13.791 34.1863 11.7793C34.1603 11.7207 34.1473 11.6719 34.1473 11.6328C34.1473 11.5677 34.2319 11.4961 34.4012 11.418L35.6414 10.9004C35.7391 10.8483 35.8107 10.8223 35.8563 10.8223C35.9083 10.8223 35.9637 10.8809 36.0223 10.998C36.9988 12.9316 38.3172 14.5527 39.9773 15.8613ZM54.4664 16.9258C55.2607 16.9779 55.8792 17.0039 56.3219 17.0039C56.426 17.0039 56.5074 17.0007 56.566 16.9941C56.8915 16.9876 57.1096 16.929 57.2203 16.8184C57.318 16.7207 57.3668 16.5547 57.3668 16.3203V12.9219C56.9762 13.293 56.6441 13.7129 56.3707 14.1816C56.1884 14.4616 56.0549 14.6016 55.9703 14.6016C55.8922 14.6016 55.7424 14.5202 55.5211 14.3574C53.6526 12.9577 52.3017 11.3138 51.4684 9.42578L51.4 9.58203C50.9182 10.7148 50.3681 11.6589 49.7496 12.4141C49.1116 13.1953 48.2945 13.931 47.2984 14.6211C47.0901 14.7969 46.9436 14.8848 46.859 14.8848C46.7809 14.8848 46.6539 14.7513 46.4781 14.4844C46.1786 14.0091 45.8596 13.6217 45.5211 13.3223V16.1055L45.5602 19.0059C45.5602 19.097 45.5439 19.1523 45.5113 19.1719C45.4853 19.1914 45.4234 19.2012 45.3258 19.2012H43.5777C43.4345 19.2012 43.3629 19.1361 43.3629 19.0059L43.402 15.8613V8.11719L43.3629 4.96289C43.3629 4.85221 43.3759 4.78711 43.402 4.76758C43.428 4.74805 43.4898 4.73828 43.5875 4.73828L46.2828 4.77734H50.1988C50.2314 4.16536 50.2477 3.68685 50.2477 3.3418C50.2477 2.50846 50.2053 1.79232 50.1207 1.19336C50.648 1.21289 51.3805 1.26172 52.318 1.33984C52.5198 1.35938 52.6207 1.4375 52.6207 1.57422C52.6207 1.64583 52.5816 1.78581 52.5035 1.99414C52.4579 2.15039 52.4254 2.63867 52.4059 3.45898C52.4059 3.75195 52.3928 4.19141 52.3668 4.77734H56.6246L59.3102 4.73828C59.4143 4.73828 59.4762 4.7513 59.4957 4.77734C59.5152 4.80339 59.525 4.86523 59.525 4.96289L59.4859 8.24414V13.459L59.5348 16.623C59.5348 16.7402 59.5348 16.8477 59.5348 16.9453C59.5348 17.7201 59.3199 18.2734 58.8902 18.6055C58.441 18.9505 57.4059 19.123 55.7848 19.123C55.4788 19.123 55.29 19.0872 55.2184 19.0156C55.1467 18.9505 55.0816 18.7715 55.023 18.4785C54.9059 17.8665 54.7203 17.349 54.4664 16.9258ZM57.3668 12.8047V6.70117H52.2398C52.7867 8.27018 53.5191 9.55599 54.4371 10.5586C55.1663 11.3464 56.1428 12.0951 57.3668 12.8047ZM49.4273 8.97656C49.6878 8.35807 49.8928 7.59961 50.0426 6.70117H45.5211V13.1172C47.3961 12.0625 48.6982 10.6823 49.4273 8.97656ZM62.9301 13.3418C66.1072 12.1634 68.4997 10.6628 70.1078 8.83984C70.6091 8.31901 70.9835 7.80143 71.2309 7.28711C72.0251 7.39779 72.6631 7.52148 73.1449 7.6582C73.3207 7.70378 73.4086 7.79167 73.4086 7.92188C73.4086 7.99349 73.3402 8.07487 73.2035 8.16602L73.1645 8.20508C75.1697 10.4316 77.8975 12.0495 81.348 13.0586C81.0421 13.4297 80.8012 13.9245 80.6254 14.543C80.5147 14.888 80.4073 15.0605 80.3031 15.0605C80.2055 15.0605 80.0525 15.015 79.8441 14.9238C78.9001 14.5202 78.1482 14.1654 77.5883 13.8594V16.1836L77.6273 19.3477C77.6273 19.4583 77.6143 19.5267 77.5883 19.5527C77.5622 19.5723 77.5004 19.582 77.4027 19.582H75.7426C75.6254 19.582 75.557 19.569 75.5375 19.543C75.518 19.5169 75.5082 19.4518 75.5082 19.3477V18.6641H68.6332V19.4062C68.6332 19.5104 68.6169 19.5723 68.5844 19.5918C68.5648 19.6113 68.5062 19.6211 68.4086 19.6211H66.7289C66.6247 19.6211 66.5629 19.6081 66.5434 19.582C66.5238 19.556 66.5141 19.4974 66.5141 19.4062L66.5531 16.2227V13.918C65.85 14.2891 65.1762 14.6243 64.5316 14.9238C64.2777 15.028 64.1182 15.0801 64.0531 15.0801C63.9294 15.0801 63.8025 14.9141 63.6723 14.582C63.4835 14.0612 63.2361 13.6478 62.9301 13.3418ZM68.6332 14.2988V16.9648H75.5082V14.2988H68.6332ZM68.6527 12.5996H75.4496C74.141 11.7142 73.0082 10.6953 72.0512 9.54297C71.0486 10.7018 69.9158 11.7207 68.6527 12.5996ZM77.5687 3.13672L80.225 3.09766C80.3292 3.09766 80.3943 3.11068 80.4203 3.13672C80.4398 3.16276 80.4496 3.22135 80.4496 3.3125L80.4105 4.25V5.03125L80.4496 7.12109C80.4496 7.22526 80.4333 7.29036 80.4008 7.31641C80.3812 7.33594 80.3227 7.3457 80.225 7.3457H78.5453C78.4411 7.3457 78.3793 7.32943 78.3598 7.29688C78.3402 7.27734 78.3305 7.21875 78.3305 7.12109V4.91406H65.8695V7.12109C65.8695 7.22526 65.8533 7.29036 65.8207 7.31641C65.8012 7.33594 65.7426 7.3457 65.6449 7.3457H63.9652C63.8611 7.3457 63.7992 7.32943 63.7797 7.29688C63.7602 7.27734 63.7504 7.21875 63.7504 7.12109L63.7895 5.03125V4.39648L63.7504 3.3125C63.7504 3.20833 63.7634 3.14648 63.7895 3.12695C63.8155 3.10742 63.8741 3.09766 63.9652 3.09766L66.6215 3.13672H70.8891C70.8891 2.31641 70.8337 1.6849 70.723 1.24219C71.4978 1.26172 72.2204 1.30078 72.891 1.35938C73.1059 1.37891 73.2133 1.4375 73.2133 1.53516C73.2133 1.59375 73.1937 1.66211 73.1547 1.74023C73.1221 1.83138 73.0993 1.89648 73.0863 1.93555C73.0212 2.11133 72.9887 2.50521 72.9887 3.11719V3.13672H77.5687ZM68.6234 5.51953C69.1898 5.75391 69.7628 6.03385 70.3422 6.35938C70.4789 6.4375 70.5473 6.53841 70.5473 6.66211C70.5473 6.7793 70.4529 6.86719 70.2641 6.92578C70.1339 6.97135 69.919 7.14388 69.6195 7.44336C68.5518 8.53711 67.3865 9.42904 66.1234 10.1191C65.8565 10.2559 65.697 10.3242 65.6449 10.3242C65.5408 10.3242 65.3943 10.1647 65.2055 9.8457C64.9581 9.40951 64.6326 9.04167 64.2289 8.74219C65.6807 8.16276 66.8656 7.43685 67.7836 6.56445C68.0635 6.31055 68.3435 5.96224 68.6234 5.51953ZM79.9223 8.49805C79.6293 8.88867 79.3754 9.30859 79.1605 9.75781C79.0173 10.0898 78.9034 10.2559 78.8187 10.2559C78.7341 10.2559 78.5811 10.1973 78.3598 10.0801C76.654 9.25326 75.1404 8.13346 73.8187 6.7207C73.7602 6.64909 73.7309 6.59701 73.7309 6.56445C73.7309 6.51237 73.796 6.44401 73.9262 6.35938L74.9809 5.67578C75.0655 5.61719 75.1306 5.58789 75.1762 5.58789C75.2283 5.58789 75.2901 5.6237 75.3617 5.69531C76.5336 6.92578 78.0538 7.86003 79.9223 8.49805ZM94.1574 19.5039H92.6633C92.5526 19.5039 92.4875 19.4876 92.468 19.4551C92.4484 19.429 92.4387 19.3639 92.4387 19.2598L92.4777 15.5977V13.791L92.4387 11.2715C92.4387 11.1608 92.4517 11.0924 92.4777 11.0664C92.5038 11.0469 92.5656 11.0371 92.6633 11.0371L95.0266 11.0762H98.3664L100.7 11.0371C100.818 11.0371 100.889 11.0534 100.915 11.0859C100.935 11.112 100.945 11.1738 100.945 11.2715L100.905 13.4688V15.5391L100.945 19.1816C100.945 19.2728 100.928 19.3314 100.896 19.3574C100.87 19.3704 100.805 19.377 100.7 19.377H99.1672C99.0175 19.377 98.9426 19.3118 98.9426 19.1816V18.4199H94.4016V19.2598C94.4016 19.377 94.3885 19.4453 94.3625 19.4648C94.33 19.4909 94.2616 19.5039 94.1574 19.5039ZM94.4016 12.9121V16.584H98.9426V12.9121H94.4016ZM90.5441 7.88281C91.1171 9.05469 91.5663 10.2526 91.8918 11.4766C91.9048 11.5352 91.9113 11.5807 91.9113 11.6133C91.9113 11.7044 91.8169 11.7793 91.6281 11.8379L90.6027 12.1406C90.5181 12.1667 90.4563 12.1797 90.4172 12.1797C90.3391 12.1797 90.2902 12.1146 90.2707 11.9844L90.0461 11.0957L88.7863 11.2227V16.7012L88.8254 19.3184C88.8254 19.4225 88.8124 19.4876 88.7863 19.5137C88.7603 19.5332 88.7017 19.543 88.6105 19.543H87.0773C86.9732 19.543 86.9113 19.5267 86.8918 19.4941C86.8723 19.4746 86.8625 19.416 86.8625 19.3184L86.9016 16.7012V11.3984L85.1438 11.5156C84.8182 11.5352 84.5773 11.5905 84.4211 11.6816C84.2909 11.7467 84.1835 11.7793 84.0988 11.7793C83.9882 11.7793 83.91 11.6654 83.8645 11.4375C83.7473 10.8776 83.6529 10.3177 83.5813 9.75781C84.0695 9.79036 84.4829 9.80664 84.8215 9.80664C84.9452 9.80664 85.0852 9.80339 85.2414 9.79688C85.4953 9.47786 85.8762 8.97331 86.384 8.2832C85.5832 7.2806 84.6945 6.3138 83.718 5.38281C83.6464 5.32422 83.6105 5.26888 83.6105 5.2168C83.6105 5.18424 83.6529 5.09961 83.7375 4.96289L84.4211 3.91797C84.4992 3.80078 84.5676 3.74219 84.6262 3.74219C84.6652 3.74219 84.7238 3.78125 84.802 3.85938L85.3391 4.41602C85.7753 3.7194 86.1431 3.03255 86.4426 2.35547C86.6379 1.95182 86.7909 1.53841 86.9016 1.11523C87.6372 1.38867 88.2036 1.62956 88.6008 1.83789C88.7766 1.93555 88.8645 2.04297 88.8645 2.16016C88.8645 2.23828 88.8059 2.32617 88.6887 2.42383C88.552 2.52148 88.425 2.68099 88.3078 2.90234C87.6828 3.97005 87.0936 4.89453 86.5402 5.67578C86.9439 6.13151 87.2369 6.47331 87.4191 6.70117C87.8163 6.0957 88.272 5.35026 88.7863 4.46484C88.9947 4.07422 89.1932 3.61849 89.382 3.09766C90.1503 3.45573 90.7102 3.74219 91.0617 3.95703C91.2245 4.04818 91.3059 4.14909 91.3059 4.25977C91.3059 4.38346 91.2342 4.48438 91.091 4.5625C90.9283 4.65365 90.7069 4.92708 90.427 5.38281C89.3788 7.02344 88.3632 8.46875 87.3801 9.71875C87.9009 9.69271 88.6301 9.64062 89.5676 9.5625C89.4244 9.17839 89.2648 8.79753 89.0891 8.41992C89.0565 8.3418 89.0402 8.28646 89.0402 8.25391C89.0402 8.18229 89.1216 8.11719 89.2844 8.05859L90.1242 7.73633C90.2154 7.70378 90.287 7.6875 90.3391 7.6875C90.4107 7.6875 90.479 7.7526 90.5441 7.88281ZM99.382 3.89844H96.5207C96.3254 6.58073 95.16 8.61198 93.0246 9.99219C92.7642 10.168 92.6112 10.2559 92.5656 10.2559C92.481 10.2559 92.341 10.1094 92.1457 9.81641C91.8072 9.32161 91.4589 8.97656 91.1008 8.78125C92.2727 8.20833 93.1288 7.51823 93.6691 6.71094C94.1704 5.96224 94.4667 5.02474 94.5578 3.89844H94.382L91.8625 3.9375C91.7583 3.9375 91.6932 3.92122 91.6672 3.88867C91.6477 3.86263 91.6379 3.80078 91.6379 3.70312V2.32617C91.6379 2.20898 91.6542 2.13737 91.6867 2.11133C91.7063 2.0918 91.7648 2.08203 91.8625 2.08203L94.382 2.12109H98.6203L101.15 2.08203C101.247 2.08203 101.309 2.10156 101.335 2.14062C101.355 2.16667 101.364 2.23503 101.364 2.3457C101.364 2.99674 101.358 3.45573 101.345 3.72266C101.28 6.26172 101.078 7.89909 100.739 8.63477C100.362 9.48763 99.5839 9.91406 98.4055 9.91406C97.8977 9.91406 97.5168 9.90755 97.2629 9.89453C96.9764 9.88151 96.8039 9.83919 96.7453 9.76758C96.6997 9.70898 96.6509 9.5332 96.5988 9.24023C96.5142 8.70638 96.3742 8.26042 96.1789 7.90234C96.9276 8.00651 97.5428 8.05859 98.0246 8.05859C98.4608 8.05859 98.7733 7.91211 98.9621 7.61914C99.216 7.19596 99.356 5.95573 99.382 3.89844ZM83.5422 17.4824C83.9849 16.1087 84.2518 14.8359 84.343 13.6641C84.369 13.3906 84.382 13.166 84.382 12.9902C84.382 12.86 84.3755 12.7103 84.3625 12.541C84.8508 12.5996 85.3619 12.694 85.8957 12.8242C86.1236 12.8763 86.2375 12.9544 86.2375 13.0586C86.2375 13.1367 86.205 13.2311 86.1398 13.3418C86.1073 13.3939 86.0682 13.612 86.0227 13.9961C85.8469 15.4414 85.6125 16.6816 85.3195 17.7168C85.2284 18.0098 85.1275 18.1562 85.0168 18.1562C84.9452 18.1562 84.828 18.1042 84.6652 18C84.2616 17.7721 83.8872 17.5996 83.5422 17.4824ZM90.6418 12.5996C90.7199 12.5801 90.7753 12.5703 90.8078 12.5703C90.8729 12.5703 90.9315 12.6387 90.9836 12.7754C91.3417 13.8431 91.6119 15.0508 91.7941 16.3984C91.8007 16.4505 91.8039 16.4863 91.8039 16.5059C91.8039 16.623 91.716 16.7077 91.5402 16.7598L90.5832 17.082C90.466 17.1211 90.3846 17.1406 90.3391 17.1406C90.274 17.1406 90.2349 17.082 90.2219 16.9648C90.0656 15.7148 89.8117 14.4453 89.4602 13.1562C89.4471 13.1042 89.4406 13.0618 89.4406 13.0293C89.4406 12.9447 89.522 12.8828 89.6848 12.8438L90.6418 12.5996ZM122.982 8.43945C122.663 8.83008 122.377 9.35742 122.123 10.0215C121.986 10.3665 121.866 10.5391 121.762 10.5391C121.723 10.5391 121.57 10.4805 121.303 10.3633C117.917 8.76172 115.303 6.58073 113.461 3.82031C111.781 6.45052 109.288 8.64128 105.98 10.3926C105.733 10.5423 105.574 10.6172 105.502 10.6172C105.417 10.6172 105.297 10.4512 105.141 10.1191C104.906 9.57227 104.6 9.10026 104.223 8.70312C107.589 7.23828 110.102 5.1582 111.762 2.46289C112.068 2.00065 112.302 1.51237 112.465 0.998047C113.48 1.1543 114.174 1.29427 114.545 1.41797C114.773 1.47005 114.887 1.57096 114.887 1.7207C114.887 1.80534 114.818 1.90625 114.682 2.02344L114.545 2.14062C115.697 3.71615 116.967 5.00195 118.354 5.99805C119.61 6.90299 121.153 7.7168 122.982 8.43945ZM104.926 17.8438C106.801 17.2383 108.061 16.3822 108.705 15.2754C109.213 14.4225 109.467 12.9772 109.467 10.9395C109.467 9.94987 109.418 9.16862 109.32 8.5957C110.069 8.5957 110.808 8.63151 111.537 8.70312C111.765 8.72266 111.879 8.80078 111.879 8.9375C111.879 9.03516 111.846 9.18164 111.781 9.37695C111.697 9.61784 111.654 10.1582 111.654 10.998C111.654 12.4629 111.553 13.6445 111.352 14.543C111.182 15.3047 110.912 15.9915 110.541 16.6035C109.799 17.7819 108.611 18.7259 106.977 19.4355C106.716 19.5723 106.557 19.6406 106.498 19.6406C106.4 19.6406 106.27 19.4941 106.107 19.2012C105.73 18.6022 105.336 18.1497 104.926 17.8438ZM115.209 8.55664C115.951 8.57617 116.68 8.63151 117.396 8.72266C117.598 8.74219 117.699 8.8138 117.699 8.9375C117.699 9.0026 117.667 9.16862 117.602 9.43555C117.536 9.74805 117.504 10.4707 117.504 11.6035V16.6621L117.543 19.2402C117.543 19.3379 117.527 19.3965 117.494 19.416C117.468 19.429 117.406 19.4355 117.309 19.4355H115.521C115.378 19.4355 115.307 19.3704 115.307 19.2402L115.346 16.6621V11.623C115.346 10.1842 115.3 9.16211 115.209 8.55664Z" fill="#565656"/>
</svg>
