<svg width="185" height="20" viewBox="0 0 185 20" fill="none" xmlns="http://www.w3.org/2000/svg">
<path d="M10.4551 9.81641C10.39 11.0339 10.263 12.0267 10.0742 12.7949C9.90495 13.5111 9.63802 14.2174 9.27344 14.9141C8.86328 15.7279 8.29688 16.5026 7.57422 17.2383C6.97526 17.8438 6.36979 18.3288 5.75781 18.6934C5.50391 18.8561 5.30534 18.9375 5.16211 18.9375C5.01237 18.9375 4.8724 18.8724 4.74219 18.7422C4.3125 18.3125 3.7168 17.9577 2.95508 17.6777C4.0293 17.0983 4.87565 16.5254 5.49414 15.959C6.07357 15.4251 6.55534 14.8099 6.93945 14.1133C7.31706 13.4427 7.57747 12.7559 7.7207 12.0527C7.83789 11.4863 7.91602 10.7409 7.95508 9.81641H4.15625C3.51823 9.81641 2.51888 9.85547 1.1582 9.93359C1.00846 9.95312 0.920573 9.82617 0.894531 9.55273C0.790365 8.95378 0.738281 8.31576 0.738281 7.63867C1.48698 7.70378 2.61979 7.73633 4.13672 7.73633H13.1211C14.5469 7.73633 15.8457 7.69727 17.0176 7.61914C17.1608 7.61914 17.2324 7.7526 17.2324 8.01953C17.2454 8.15625 17.252 8.41341 17.252 8.79102C17.252 9.16211 17.2454 9.41602 17.2324 9.55273C17.2324 9.7806 17.1348 9.89453 16.9395 9.89453C15.5267 9.84245 14.2604 9.81641 13.1406 9.81641H10.4551ZM3.17969 3C4.34505 3.0651 5.45182 3.09766 6.5 3.09766H10.9824C12.3496 3.09766 13.4727 3.07161 14.3516 3.01953C14.5143 3.01953 14.5957 3.14648 14.5957 3.40039C14.6152 3.64779 14.625 3.88867 14.625 4.12305C14.625 4.37044 14.6152 4.61458 14.5957 4.85547C14.5957 5.10938 14.5078 5.23633 14.332 5.23633C13.2448 5.19727 12.1283 5.17773 10.9824 5.17773H6.5C6.1224 5.17773 5.17513 5.20378 3.6582 5.25586C3.44987 5.25586 3.33594 5.14193 3.31641 4.91406C3.29688 4.73177 3.27409 4.41927 3.24805 3.97656C3.21549 3.52083 3.19271 3.19531 3.17969 3ZM21.7996 9.2207C22.8413 9.38346 24.2801 9.46484 26.116 9.46484H32.5613C33.1928 9.46484 34.0066 9.45508 35.0027 9.43555C36.2723 9.41602 36.9917 9.40299 37.1609 9.39648C37.1935 9.39648 37.226 9.39648 37.2586 9.39648C37.4344 9.39648 37.5223 9.49089 37.5223 9.67969C37.5418 9.98568 37.5516 10.3014 37.5516 10.627C37.5516 10.946 37.5418 11.2585 37.5223 11.5645C37.5223 11.7663 37.4279 11.8672 37.2391 11.8672H37.1609C35.1622 11.8411 33.6746 11.8281 32.698 11.8281H25.5008L22.5613 12.0723C22.3074 12.0723 22.1544 11.9323 22.1023 11.6523C21.9852 11.125 21.8842 10.3145 21.7996 9.2207ZM52.0992 13.8008C52.6852 14.3867 53.2711 15.054 53.857 15.8027C53.9482 15.9134 53.9938 16.0111 53.9938 16.0957C53.9938 16.1934 53.9352 16.3008 53.818 16.418C53.3232 16.9128 52.887 17.3066 52.5094 17.5996C52.3987 17.6647 52.3141 17.6973 52.2555 17.6973C52.1773 17.6973 52.096 17.6387 52.0113 17.5215C50.1233 15.0866 47.9846 13.013 45.5953 11.3008C46.2594 10.6693 46.7379 10.2233 47.0309 9.96289C47.122 9.89779 47.1969 9.86523 47.2555 9.86523C47.301 9.86523 47.3954 9.91081 47.5387 10.002C48.8733 10.9785 49.8173 11.724 50.3707 12.2383C51.8486 10.9622 53.3915 9.38997 54.9996 7.52148L46.5719 7.56055C45.107 7.56055 43.8668 7.60938 42.8512 7.70703C42.6559 7.70703 42.5387 7.58659 42.4996 7.3457C42.3759 6.63607 42.2945 5.92318 42.2555 5.20703C43.1604 5.29818 44.6122 5.34375 46.6109 5.34375H54.8141C55.6604 5.34375 56.2138 5.2819 56.4742 5.1582C56.5849 5.0931 56.6793 5.06055 56.7574 5.06055C56.8746 5.06055 56.9853 5.11263 57.0895 5.2168C57.6363 5.70508 58.1181 6.23893 58.5348 6.81836C58.6389 6.99414 58.691 7.14062 58.691 7.25781C58.691 7.42708 58.6031 7.56706 58.4273 7.67773C57.926 8.04232 57.607 8.29622 57.4703 8.43945C55.6865 10.4121 53.8961 12.1992 52.0992 13.8008ZM73.3852 7.63867V14.2598C73.3852 15.4316 73.4047 16.8184 73.4437 18.4199C73.4437 18.4525 73.4437 18.472 73.4437 18.4785C73.4437 18.6673 73.3428 18.7617 73.141 18.7617C72.8155 18.7812 72.4835 18.791 72.1449 18.791C71.8064 18.791 71.4743 18.7812 71.1488 18.7617C70.96 18.7617 70.8656 18.6771 70.8656 18.5078C70.8656 18.4948 70.8656 18.472 70.8656 18.4395C70.8721 18.127 70.8884 17.388 70.9145 16.2227C70.934 15.4609 70.9437 14.8327 70.9437 14.3379V9.67969C68.932 11.3724 67.0993 12.6517 65.4457 13.5176C65.3546 13.5697 65.2536 13.5957 65.143 13.5957C64.9997 13.5957 64.8598 13.5306 64.723 13.4004C64.3454 13.0228 63.7725 12.6289 63.0043 12.2188C65.3676 11.0013 67.4672 9.63411 69.3031 8.11719C70.9307 6.78255 72.35 5.38932 73.5609 3.9375C74.1469 3.25391 74.5701 2.56706 74.8305 1.87695C75.8852 2.4694 76.6241 2.93815 77.0473 3.2832C77.1514 3.35482 77.2035 3.45247 77.2035 3.57617C77.2035 3.75195 77.1091 3.89844 76.9203 4.01562C76.6273 4.21094 76.2302 4.57878 75.7289 5.11914C75.0388 5.94596 74.2576 6.78581 73.3852 7.63867ZM86.7414 2.63867C87.6919 2.72982 88.7857 2.77539 90.0227 2.77539H93.6262C94.4335 2.77539 95.4784 2.74284 96.7609 2.67773C96.9237 2.67773 97.0051 2.7819 97.0051 2.99023C97.0246 3.25065 97.0344 3.51107 97.0344 3.77148C97.0344 4.03841 97.0246 4.29883 97.0051 4.55273C97.0051 4.81966 96.9107 4.95312 96.7219 4.95312C96.7089 4.95312 96.6828 4.95312 96.6438 4.95312L93.8215 4.91406H89.8664C88.7727 4.91406 87.8579 4.9401 87.1223 4.99219C86.953 4.99219 86.8586 4.8457 86.8391 4.55273C86.774 4.09049 86.7414 3.45247 86.7414 2.63867ZM85.0031 6.90625C86.0188 7.01042 87.246 7.0625 88.6848 7.0625H95.5402C95.9895 7.0625 96.3443 6.98763 96.6047 6.83789C96.7023 6.75977 96.787 6.7207 96.8586 6.7207C96.9432 6.7207 97.0441 6.76628 97.1613 6.85742C97.6952 7.2806 98.1444 7.69401 98.509 8.09766C98.6392 8.23438 98.7043 8.37435 98.7043 8.51758C98.7043 8.66081 98.6294 8.78776 98.4797 8.89844C98.2323 9.10677 98.0077 9.41927 97.8059 9.83594C96.7382 12.1081 95.5207 13.9473 94.1535 15.3535C92.9491 16.597 91.4452 17.707 89.6418 18.6836C89.453 18.7747 89.3195 18.8203 89.2414 18.8203C89.1112 18.8203 88.9647 18.7422 88.802 18.5859C88.3723 18.2018 87.7538 17.8535 86.9465 17.541C89.0559 16.5645 90.8332 15.3503 92.2785 13.8984C93.6783 12.4922 94.7004 10.9264 95.3449 9.20117L88.5188 9.2207C87.4055 9.2207 86.4061 9.24674 85.5207 9.29883C85.3645 9.29883 85.2668 9.17188 85.2277 8.91797C85.1626 8.65755 85.0878 7.98698 85.0031 6.90625ZM114.707 10.6855C116.569 12.0658 118.415 13.6771 120.244 15.5195C120.348 15.6237 120.4 15.7181 120.4 15.8027C120.4 15.8874 120.355 15.985 120.264 16.0957C119.84 16.61 119.395 17.0658 118.926 17.4629C118.841 17.541 118.76 17.5801 118.682 17.5801C118.604 17.5801 118.509 17.528 118.398 17.4238C116.895 15.6595 115.163 14.0059 113.203 12.4629C111.113 14.6439 108.874 16.4049 106.484 17.7461C106.243 17.8503 106.09 17.9023 106.025 17.9023C105.895 17.9023 105.781 17.8438 105.684 17.7266C105.312 17.2643 104.753 16.8281 104.004 16.418C105.612 15.6042 106.992 14.7643 108.145 13.8984C109.082 13.1953 110.049 12.3359 111.045 11.3203C112.471 9.84245 113.724 8.16927 114.805 6.30078L109.648 6.32031C108.62 6.32031 107.565 6.36263 106.484 6.44727C106.354 6.46029 106.266 6.34635 106.221 6.10547C106.104 5.60417 106.045 4.91081 106.045 4.02539C106.761 4.07747 107.887 4.10352 109.424 4.10352H114.922C115.618 4.10352 116.077 4.04167 116.299 3.91797C116.37 3.86589 116.445 3.83984 116.523 3.83984C116.589 3.83984 116.702 3.89193 116.865 3.99609C117.295 4.33464 117.728 4.80339 118.164 5.40234C118.229 5.51302 118.262 5.59766 118.262 5.65625C118.262 5.79297 118.174 5.92643 117.998 6.05664C117.725 6.29753 117.48 6.59375 117.266 6.94531C116.517 8.21484 115.664 9.46159 114.707 10.6855ZM132.536 7.7168C135.049 8.50456 137.168 9.41276 138.893 10.4414C139.069 10.5326 139.157 10.6465 139.157 10.7832C139.157 10.8353 139.144 10.8939 139.118 10.959C138.871 11.584 138.584 12.1634 138.259 12.6973C138.174 12.847 138.086 12.9219 137.995 12.9219C137.917 12.9219 137.842 12.8893 137.77 12.8242C135.895 11.6198 134.144 10.7637 132.516 10.2559V14.6797C132.516 15.4089 132.542 16.7142 132.595 18.5957C132.595 18.6217 132.595 18.6413 132.595 18.6543C132.595 18.8171 132.474 18.8984 132.233 18.8984C131.934 18.918 131.637 18.9277 131.345 18.9277C131.045 18.9277 130.749 18.918 130.456 18.8984C130.202 18.8984 130.075 18.7975 130.075 18.5957C130.127 17.3066 130.153 15.9948 130.153 14.6602V4.81641C130.153 3.59896 130.088 2.61263 129.958 1.85742C131.13 1.93555 131.963 2.04297 132.458 2.17969C132.712 2.23177 132.839 2.3457 132.839 2.52148C132.839 2.63216 132.783 2.78516 132.673 2.98047C132.582 3.15625 132.536 3.78125 132.536 4.85547V7.7168ZM155.257 19.5039H153.763C153.653 19.5039 153.587 19.4876 153.568 19.4551C153.548 19.429 153.539 19.3639 153.539 19.2598L153.578 15.5977V13.791L153.539 11.2715C153.539 11.1608 153.552 11.0924 153.578 11.0664C153.604 11.0469 153.666 11.0371 153.763 11.0371L156.127 11.0762H159.466L161.8 11.0371C161.918 11.0371 161.989 11.0534 162.015 11.0859C162.035 11.112 162.045 11.1738 162.045 11.2715L162.005 13.4688V15.5391L162.045 19.1816C162.045 19.2728 162.028 19.3314 161.996 19.3574C161.97 19.3704 161.905 19.377 161.8 19.377H160.267C160.117 19.377 160.043 19.3118 160.043 19.1816V18.4199H155.502V19.2598C155.502 19.377 155.489 19.4453 155.462 19.4648C155.43 19.4909 155.362 19.5039 155.257 19.5039ZM155.502 12.9121V16.584H160.043V12.9121H155.502ZM151.644 7.88281C152.217 9.05469 152.666 10.2526 152.992 11.4766C153.005 11.5352 153.011 11.5807 153.011 11.6133C153.011 11.7044 152.917 11.7793 152.728 11.8379L151.703 12.1406C151.618 12.1667 151.556 12.1797 151.517 12.1797C151.439 12.1797 151.39 12.1146 151.371 11.9844L151.146 11.0957L149.886 11.2227V16.7012L149.925 19.3184C149.925 19.4225 149.912 19.4876 149.886 19.5137C149.86 19.5332 149.802 19.543 149.711 19.543H148.177C148.073 19.543 148.011 19.5267 147.992 19.4941C147.972 19.4746 147.962 19.416 147.962 19.3184L148.002 16.7012V11.3984L146.244 11.5156C145.918 11.5352 145.677 11.5905 145.521 11.6816C145.391 11.7467 145.283 11.7793 145.199 11.7793C145.088 11.7793 145.01 11.6654 144.964 11.4375C144.847 10.8776 144.753 10.3177 144.681 9.75781C145.17 9.79036 145.583 9.80664 145.921 9.80664C146.045 9.80664 146.185 9.80339 146.341 9.79688C146.595 9.47786 146.976 8.97331 147.484 8.2832C146.683 7.2806 145.795 6.3138 144.818 5.38281C144.746 5.32422 144.711 5.26888 144.711 5.2168C144.711 5.18424 144.753 5.09961 144.837 4.96289L145.521 3.91797C145.599 3.80078 145.668 3.74219 145.726 3.74219C145.765 3.74219 145.824 3.78125 145.902 3.85938L146.439 4.41602C146.875 3.7194 147.243 3.03255 147.543 2.35547C147.738 1.95182 147.891 1.53841 148.002 1.11523C148.737 1.38867 149.304 1.62956 149.701 1.83789C149.877 1.93555 149.964 2.04297 149.964 2.16016C149.964 2.23828 149.906 2.32617 149.789 2.42383C149.652 2.52148 149.525 2.68099 149.408 2.90234C148.783 3.97005 148.194 4.89453 147.64 5.67578C148.044 6.13151 148.337 6.47331 148.519 6.70117C148.916 6.0957 149.372 5.35026 149.886 4.46484C150.095 4.07422 150.293 3.61849 150.482 3.09766C151.25 3.45573 151.81 3.74219 152.162 3.95703C152.324 4.04818 152.406 4.14909 152.406 4.25977C152.406 4.38346 152.334 4.48438 152.191 4.5625C152.028 4.65365 151.807 4.92708 151.527 5.38281C150.479 7.02344 149.463 8.46875 148.48 9.71875C149.001 9.69271 149.73 9.64062 150.668 9.5625C150.524 9.17839 150.365 8.79753 150.189 8.41992C150.157 8.3418 150.14 8.28646 150.14 8.25391C150.14 8.18229 150.222 8.11719 150.384 8.05859L151.224 7.73633C151.315 7.70378 151.387 7.6875 151.439 7.6875C151.511 7.6875 151.579 7.7526 151.644 7.88281ZM160.482 3.89844H157.621C157.425 6.58073 156.26 8.61198 154.125 9.99219C153.864 10.168 153.711 10.2559 153.666 10.2559C153.581 10.2559 153.441 10.1094 153.246 9.81641C152.907 9.32161 152.559 8.97656 152.201 8.78125C153.373 8.20833 154.229 7.51823 154.769 6.71094C155.27 5.96224 155.567 5.02474 155.658 3.89844H155.482L152.962 3.9375C152.858 3.9375 152.793 3.92122 152.767 3.88867C152.748 3.86263 152.738 3.80078 152.738 3.70312V2.32617C152.738 2.20898 152.754 2.13737 152.787 2.11133C152.806 2.0918 152.865 2.08203 152.962 2.08203L155.482 2.12109H159.72L162.25 2.08203C162.347 2.08203 162.409 2.10156 162.435 2.14062C162.455 2.16667 162.464 2.23503 162.464 2.3457C162.464 2.99674 162.458 3.45573 162.445 3.72266C162.38 6.26172 162.178 7.89909 161.839 8.63477C161.462 9.48763 160.684 9.91406 159.505 9.91406C158.998 9.91406 158.617 9.90755 158.363 9.89453C158.076 9.88151 157.904 9.83919 157.845 9.76758C157.8 9.70898 157.751 9.5332 157.699 9.24023C157.614 8.70638 157.474 8.26042 157.279 7.90234C158.028 8.00651 158.643 8.05859 159.125 8.05859C159.561 8.05859 159.873 7.91211 160.062 7.61914C160.316 7.19596 160.456 5.95573 160.482 3.89844ZM144.642 17.4824C145.085 16.1087 145.352 14.8359 145.443 13.6641C145.469 13.3906 145.482 13.166 145.482 12.9902C145.482 12.86 145.476 12.7103 145.462 12.541C145.951 12.5996 146.462 12.694 146.996 12.8242C147.224 12.8763 147.337 12.9544 147.337 13.0586C147.337 13.1367 147.305 13.2311 147.24 13.3418C147.207 13.3939 147.168 13.612 147.123 13.9961C146.947 15.4414 146.712 16.6816 146.42 17.7168C146.328 18.0098 146.227 18.1562 146.117 18.1562C146.045 18.1562 145.928 18.1042 145.765 18C145.362 17.7721 144.987 17.5996 144.642 17.4824ZM151.742 12.5996C151.82 12.5801 151.875 12.5703 151.908 12.5703C151.973 12.5703 152.032 12.6387 152.084 12.7754C152.442 13.8431 152.712 15.0508 152.894 16.3984C152.901 16.4505 152.904 16.4863 152.904 16.5059C152.904 16.623 152.816 16.7077 152.64 16.7598L151.683 17.082C151.566 17.1211 151.485 17.1406 151.439 17.1406C151.374 17.1406 151.335 17.082 151.322 16.9648C151.166 15.7148 150.912 14.4453 150.56 13.1562C150.547 13.1042 150.541 13.0618 150.541 13.0293C150.541 12.9447 150.622 12.8828 150.785 12.8438L151.742 12.5996ZM184.082 8.43945C183.763 8.83008 183.477 9.35742 183.223 10.0215C183.086 10.3665 182.966 10.5391 182.862 10.5391C182.823 10.5391 182.67 10.4805 182.403 10.3633C179.017 8.76172 176.403 6.58073 174.561 3.82031C172.881 6.45052 170.388 8.64128 167.08 10.3926C166.833 10.5423 166.674 10.6172 166.602 10.6172C166.517 10.6172 166.397 10.4512 166.241 10.1191C166.006 9.57227 165.7 9.10026 165.323 8.70312C168.689 7.23828 171.202 5.1582 172.862 2.46289C173.168 2.00065 173.402 1.51237 173.565 0.998047C174.58 1.1543 175.274 1.29427 175.645 1.41797C175.873 1.47005 175.987 1.57096 175.987 1.7207C175.987 1.80534 175.918 1.90625 175.782 2.02344L175.645 2.14062C176.797 3.71615 178.067 5.00195 179.454 5.99805C180.71 6.90299 182.253 7.7168 184.082 8.43945ZM166.026 17.8438C167.901 17.2383 169.161 16.3822 169.805 15.2754C170.313 14.4225 170.567 12.9772 170.567 10.9395C170.567 9.94987 170.518 9.16862 170.42 8.5957C171.169 8.5957 171.908 8.63151 172.637 8.70312C172.865 8.72266 172.979 8.80078 172.979 8.9375C172.979 9.03516 172.946 9.18164 172.881 9.37695C172.797 9.61784 172.754 10.1582 172.754 10.998C172.754 12.4629 172.653 13.6445 172.452 14.543C172.282 15.3047 172.012 15.9915 171.641 16.6035C170.899 17.7819 169.711 18.7259 168.077 19.4355C167.816 19.5723 167.657 19.6406 167.598 19.6406C167.5 19.6406 167.37 19.4941 167.207 19.2012C166.83 18.6022 166.436 18.1497 166.026 17.8438ZM176.309 8.55664C177.051 8.57617 177.78 8.63151 178.496 8.72266C178.698 8.74219 178.799 8.8138 178.799 8.9375C178.799 9.0026 178.767 9.16862 178.702 9.43555C178.636 9.74805 178.604 10.4707 178.604 11.6035V16.6621L178.643 19.2402C178.643 19.3379 178.627 19.3965 178.594 19.416C178.568 19.429 178.506 19.4355 178.409 19.4355H176.621C176.478 19.4355 176.407 19.3704 176.407 19.2402L176.446 16.6621V11.623C176.446 10.1842 176.4 9.16211 176.309 8.55664Z" fill="#565656"/>
</svg>
