<svg xmlns="http://www.w3.org/2000/svg" viewBox="0 0 358.5 97.74"><defs><style>.cls-1{fill:#8cb5d8;}.cls-1,.cls-2{stroke:#1a3446;stroke-linecap:round;stroke-linejoin:round;stroke-width:4.44px;}.cls-2{fill:#fff;}</style></defs><g id="レイヤー_2" data-name="レイヤー 2"><g id="レイヤー_1-2" data-name="レイヤー 1"><g id="レイヤー_2-2" data-name="レイヤー 2"><g id="design"><path class="cls-1" d="M191.32,86.83l119,4.8c22.09,0,46-27.32,46-49.41a40,40,0,0,0-40-40H174"/><path class="cls-1" d="M183.81,2.22H55.52C33.43,2.22,4,30.35,4,52.44S33.43,82.22,55.52,82.22l128.29,4.36"/><path class="cls-2" d="M170.62,95.52H303a40,40,0,0,0,0-80H174"/><path class="cls-2" d="M183.81,15.52H42.22a40,40,0,0,0,0,80H181.61"/></g></g><path d="M131.06,47.71c-.79,2-1.51,3.95-2.12,5.32h4.17v3.89h-18.5V53h4.1a22.78,22.78,0,0,0-1.26-5.32l3.49-.73a18,18,0,0,1,1.48,5.26L119,53h9.57l-3.06-.75A38.16,38.16,0,0,0,127,46.84Zm1.65-1H115.36V43H122V39.82h4.14V43h6.62ZM116.66,59.26h14.87V73.08h-4.18V71.43h-6.73v1.8h-4Zm4,3.71v4.75h6.73V63Zm27.54-19.58c-1.26,3.49-2.85,7.63-4.29,10.69,3.06,3.24,3.6,6,3.6,8.42,0,2.63-.57,4.39-1.94,5.36a6,6,0,0,1-2.45.9,17.92,17.92,0,0,1-2.88.07,9.88,9.88,0,0,0-1-4.21,13.22,13.22,0,0,0,2,.07,3.54,3.54,0,0,0,1.34-.28c.64-.4.86-1.23.86-2.45,0-2-.79-4.54-3.67-7.34,1-2.56,2.19-6.23,3.06-9H138.4V73.19h-4.17V41.62h10.15l.64-.18Z"/><path d="M230.27,64.59a41.72,41.72,0,0,1-4.68,2.84,19.83,19.83,0,0,0,6.34,2.27,14.7,14.7,0,0,0-2.52,3.53,18.07,18.07,0,0,1-9.54-5.48l.14,2.92c-4.68.76-9.68,1.44-13.42,2L206,68.8c1.08-.11,2.34-.25,3.67-.43V62.86H206v-3.6h5.5V56.81H207V53.25h4.53V50.87h-5.25v.87c0,6.3-.58,15.65-4.36,21.56a17.93,17.93,0,0,0-3.81-2.2c3.56-5.54,3.85-13.64,3.85-19.36V41.12h27.72v9.75h-4.9v2.38h5.18v3.56h-5.18v2.45h6.77v3.6h-3.78Zm-24-17.35h19V44.72h-19Zm7.38,20.62c1.83-.25,3.78-.5,5.68-.79a18.94,18.94,0,0,1-2.52-4.21h-3.16Zm1.8-14.61h5.36V50.87h-5.36Zm0,6h5.36V56.81h-5.36Zm5.4,3.6a14.07,14.07,0,0,0,2,2.45c1.26-.76,2.62-1.66,3.67-2.45Z"/></g></g></svg>