<svg xmlns="http://www.w3.org/2000/svg" viewBox="0 0 358.5 97.74"><defs><style>.cls-1{fill:#f1ef64;}.cls-1,.cls-2{stroke:#1a3446;stroke-linecap:round;stroke-linejoin:round;stroke-width:4.44px;}.cls-2{fill:#fff;}</style></defs><g id="レイヤー_2" data-name="レイヤー 2"><g id="レイヤー_1-2" data-name="レイヤー 1"><g id="レイヤー_2-2" data-name="レイヤー 2"><g id="design"><path class="cls-1" d="M191.32,86.83l119,4.8c22.09,0,46-27.32,46-49.41a40,40,0,0,0-40-40H174"/><path class="cls-1" d="M183.81,2.22H55.52C33.43,2.22,4,30.35,4,52.44S33.43,82.22,55.52,82.22l128.29,4.36"/><path class="cls-2" d="M170.62,95.52H303a40,40,0,0,0,0-80H174"/><path class="cls-2" d="M183.81,15.52H42.22a40,40,0,0,0,0,80H181.61"/></g></g><path d="M105.06,42.56v3.63H73.6V42.56H86.92v-3h4.36v3Zm-1.15,26.09c0,2-.39,3.14-1.8,3.78s-3.24.69-5.83.69a12,12,0,0,0-.83-2.88H86.17v1.62H82.42V62.17H96.17v7c1.23,0,2.34,0,2.74,0s.68-.15.68-.58v-8H79.22V73.19H75V57h28.87ZM99.16,47.56v7.92H79.51V47.56ZM94.81,50.4H83.58v2.2H94.81ZM92.39,65H86.17v2.34h6.22Z"/><path d="M125.66,62.57c-.47-1.15-1.33-2.88-2.16-4.5V73.15h-4V59.69a28.93,28.93,0,0,1-3.46,7.2A19.62,19.62,0,0,0,114.14,63a36.19,36.19,0,0,0,5.08-12.09H115V47h4.54V39.57h4V47h3.92v4H123.5v1.83c1,1.34,3.85,5.62,4.5,6.63Zm19.08-4.28a15.43,15.43,0,0,0-.8-1.55,28.84,28.84,0,0,1-3.7,7.6,21.47,21.47,0,0,0,8.2,5.11,17.86,17.86,0,0,0-3,3.81,22.89,22.89,0,0,1-8-5.58,24.25,24.25,0,0,1-9.11,5.62,17.25,17.25,0,0,0-2.19-3.42,21,21,0,0,0,8.78-5.37,33.86,33.86,0,0,1-3.78-7.37c-.5.5-1,1-1.55,1.4a16.08,16.08,0,0,0-2.91-2.7,20.41,20.41,0,0,0,5.32-7l3.86,1.58a27.73,27.73,0,0,1-4,5.87l2.77-.75a26.09,26.09,0,0,0,2.84,5.57,21,21,0,0,0,2.38-5.79l3.67.76a40.59,40.59,0,0,0-4.1-5.51l3.31-1.87a33,33,0,0,1,5.58,7.52Zm2.95-9.79H127.82V44.57h7.77v-5h4.22v5h7.88Z"/><path d="M189.81,53.72v4.64H156.69V53.72Z"/><path d="M231.64,65.52H219.33v7.71H214.9V65.52H198.71v-4.1h5.68V52H214.9V47.67h-7.7a32.31,32.31,0,0,1-4.9,6.55,32.41,32.41,0,0,0-3.7-2.77c3.24-2.74,6-7.34,7.56-12l4.35,1.12a21.92,21.92,0,0,1-1.19,3h20.34v4.14H219.33V52h9.5v4h-9.5v5.47h12.31Zm-16.74-4.1V56h-6.22v5.47Z"/><path d="M273.36,68v4.21H241V68h13.9V60.74h-9.76V56.6h9.76V50.26h-7.45a29.75,29.75,0,0,1-3.35,5.22,34.77,34.77,0,0,0-3.85-2.56c2.81-3,5.15-8,6.37-12.88l4.43,1c-.51,1.73-1.08,3.42-1.69,5.08h5.54V39.61h4.5v6.48h12.13v4.17H259.4V56.6h10.76v4.14H259.4V68Z"/></g></g></svg>