<svg width="262" height="32" viewBox="0 0 262 32" fill="none" xmlns="http://www.w3.org/2000/svg">
<path d="M51.688 12.256C51.688 11.872 50.824 11.232 50.504 10.944C50.248 10.72 49.384 9.92 49.096 9.92C48.872 9.92 48.616 10.208 48.488 10.368C45.608 13.44 42.088 15.872 38.28 17.632C37.992 17.76 37.672 17.92 37.672 18.304C37.672 18.88 38.792 20.416 39.528 20.416C39.976 20.416 40.808 19.936 41.192 19.712C44.488 17.952 47.496 15.744 50.184 13.152C50.6 12.768 50.632 12.672 51.016 12.64C51.208 12.64 51.688 12.672 51.688 12.256ZM38.696 6.496C38.696 6.144 38.28 6.048 37.8 5.856C37.416 5.696 36.04 5.184 35.784 5.184C35.496 5.184 35.4 5.504 35.336 5.728C34.792 7.264 34.12 8.8 33.224 10.144C33.064 10.368 32.776 10.784 32.776 11.04C32.776 11.584 34.504 12.224 34.792 12.224C35.08 12.224 35.272 11.872 35.432 11.648C36.232 10.432 37.16 8.64 37.768 7.296C37.864 7.072 37.96 6.912 38.184 6.848C38.408 6.816 38.696 6.784 38.696 6.496ZM51.752 21.152C51.752 20.896 51.528 20.64 51.336 20.48C50.952 20.128 49.48 18.816 49.16 18.816C48.904 18.816 48.68 19.104 48.52 19.296C45.608 22.656 40.904 25.344 36.776 26.912C36.424 27.04 35.784 27.168 35.784 27.648C35.784 28.224 36.776 29.952 37.416 29.952C37.768 29.952 38.44 29.696 38.792 29.568C43.112 27.808 47.208 25.152 50.504 21.856C50.696 21.664 50.76 21.632 51.016 21.6C51.272 21.568 51.752 21.504 51.752 21.152ZM27.176 11.104C27.176 10.816 26.664 9.28 26.536 8.896C25.896 6.944 25.768 6.624 25.288 6.624C25.096 6.624 23.144 6.848 23.144 7.584C23.144 7.744 23.24 7.936 23.304 8.096C23.656 8.992 24.136 10.432 24.36 11.36C24.456 11.744 24.488 12.032 24.968 12.032C25.352 12.032 26.024 11.84 26.376 11.744C27.048 11.52 27.176 11.424 27.176 11.104ZM50.984 4.096C50.984 3.616 48.552 1.856 48.36 1.856C48.136 1.856 47.976 2.08 47.816 2.24C45.96 4.48 42.536 6.976 39.976 8.384C38.888 8.96 38.536 9.088 38.536 9.472C38.536 10.016 39.752 11.52 40.424 11.52C40.776 11.52 41.288 11.2 41.608 11.008C44.616 9.344 47.208 7.264 49.64 4.864C49.832 4.672 50.056 4.48 50.344 4.448C50.568 4.448 50.984 4.448 50.984 4.096ZM31.976 10.24C31.976 9.888 31.56 8.16 31.464 7.712C31.08 6.176 31.08 5.92 30.472 5.92C30.024 5.92 28.232 6.08 28.232 6.688C28.232 6.816 28.296 7.04 28.328 7.168C28.616 8.128 28.904 9.12 29.064 10.112C29.16 10.784 29.224 11.104 29.704 11.104C29.96 11.104 30.6 11.04 30.856 10.976C31.56 10.816 31.976 10.72 31.976 10.24ZM38.344 4.16C38.344 3.808 37.608 2.752 37.384 2.432C37.192 2.144 36.744 1.344 36.424 1.344C36.264 1.344 36.136 1.408 35.976 1.472C32.584 2.624 27.816 2.88 24.232 2.944C23.624 2.944 23.208 2.976 23.208 3.712C23.208 5.824 23.848 5.824 24.296 5.824C28.072 5.824 32.84 5.344 36.52 4.416C36.68 4.352 36.904 4.288 37.096 4.288C37.224 4.288 37.32 4.32 37.416 4.352C37.576 4.384 37.832 4.48 37.992 4.48C38.184 4.48 38.344 4.384 38.344 4.16ZM32.296 21.632C32.712 22.208 34.76 24.832 35.368 24.832C36.008 24.832 37.032 23.36 37.032 22.784C37.032 22.528 36.584 22.208 36.392 22.016C35.4 21.216 33.672 19.488 32.872 18.496C32.808 18.4 32.776 18.336 32.776 18.208C32.776 17.92 33 17.824 33.256 17.824H33.704C34.696 17.824 35.656 17.888 36.648 17.888C37.384 17.888 37.352 17.536 37.352 16.384C37.352 15.232 37.416 14.848 36.648 14.848C35.688 14.848 34.696 14.912 33.704 14.912H32.712C32.104 14.912 31.816 14.688 31.816 14.08C31.784 13.248 31.848 12.992 32.168 12.736C32.328 12.64 32.552 12.512 32.552 12.256C32.552 11.872 32.04 11.904 31.72 11.872C31.144 11.84 29.8 11.712 29.288 11.712C29 11.712 28.712 11.776 28.712 12.128C28.712 12.224 28.744 12.352 28.744 12.448C28.776 12.928 28.872 13.6 28.84 14.08C28.808 14.688 28.584 14.912 27.976 14.912H26.6C25.608 14.912 24.648 14.848 23.656 14.848C22.92 14.848 22.952 15.168 22.952 16.352C22.952 17.536 22.92 17.888 23.656 17.888C24.616 17.888 25.608 17.824 26.6 17.824H26.952C27.08 17.824 27.56 17.856 27.56 18.304C27.56 18.4 27.528 18.496 27.496 18.592C26.312 21.024 24.712 23.36 22.888 25.344C22.696 25.6 22.504 25.728 22.504 26.016C22.504 26.56 23.944 27.968 24.456 27.968C25.448 27.968 28.072 22.784 28.52 21.76C28.552 21.728 28.616 21.664 28.68 21.664C28.808 21.664 28.84 21.76 28.84 21.888V25.792C28.84 26.912 28.776 28.032 28.776 29.184C28.776 30.08 29.096 30.112 30.344 30.112C31.56 30.112 31.88 30.112 31.88 29.152C31.88 28.032 31.816 26.912 31.816 25.792V21.792C31.816 21.664 31.88 21.504 32.04 21.504C32.168 21.504 32.232 21.536 32.296 21.632ZM65.768 12.832C66.376 12.832 66.664 13.12 66.632 13.728C66.472 16.544 65.576 18.624 63.336 20.416C63.24 20.48 63.144 20.544 63.016 20.544C62.76 20.544 62.664 20.32 62.664 20.096V13.728C62.664 13.088 62.92 12.832 63.528 12.832H65.768ZM71.752 12.832C72.36 12.832 72.616 13.12 72.616 13.728V18.624C72.616 20.96 73.096 21.696 75.528 21.696H77.64C78.792 21.696 79.688 21.536 80.328 20.448C80.36 20.384 80.424 20.32 80.488 20.32C80.648 20.32 80.68 20.448 80.68 20.544V24.32C80.68 24.96 80.424 25.216 79.784 25.216H63.528C62.92 25.216 62.664 24.96 62.664 24.32V22.432C62.664 22.304 62.728 22.144 62.888 22.144C62.984 22.144 63.048 22.176 63.144 22.272C63.432 22.592 64.104 23.264 64.584 23.264C65.032 23.264 66.312 22.08 66.664 21.728C68.872 19.488 69.576 16.768 69.736 13.696C69.768 13.088 70.056 12.832 70.664 12.832H71.752ZM79.848 15.616C79.56 15.552 79.304 15.52 79.016 15.52C78.6 15.52 78.536 15.584 78.44 16.288C78.216 18.208 78.088 18.72 77.224 18.72H76.616C75.912 18.72 75.784 18.592 75.784 17.824V13.728C75.784 13.088 76.04 12.832 76.68 12.832H79.784C80.424 12.832 80.68 13.088 80.68 13.728V14.944C80.68 15.328 80.488 15.648 80.072 15.648C79.976 15.648 79.912 15.616 79.848 15.616ZM71.752 5.792C72.296 5.856 72.616 6.144 72.616 6.688V8.928C72.616 9.472 72.296 9.76 71.752 9.824H70.664C70.12 9.76 69.832 9.472 69.768 8.928V6.688C69.832 6.144 70.12 5.856 70.664 5.792H71.752ZM75.784 6.688C75.784 6.08 76.072 5.792 76.68 5.792H81.096C82.44 5.792 83.752 5.888 85.064 5.888C85.832 5.888 85.832 5.472 85.832 4.256C85.832 3.04 85.832 2.656 85.064 2.656C83.752 2.656 82.44 2.72 81.096 2.72H62.344C61.032 2.72 59.72 2.656 58.376 2.656C57.608 2.656 57.64 3.04 57.64 4.256C57.64 5.472 57.608 5.888 58.376 5.888C59.72 5.888 61.032 5.792 62.344 5.792H65.768C66.376 5.792 66.664 6.08 66.664 6.688V8.928C66.664 9.536 66.376 9.824 65.768 9.824H64.136C63.176 9.824 62.184 9.76 61.224 9.76C60.072 9.76 59.432 10.016 59.432 11.296C59.432 12.192 59.464 13.056 59.464 13.952V25.824C59.464 26.944 59.4 28.064 59.4 29.216C59.4 30.016 59.752 30.016 61.032 30.016C62.6 30.016 62.76 30.016 62.728 28.96C62.76 28.448 62.952 28.224 63.464 28.224H79.88C80.392 28.224 80.616 28.448 80.616 28.96V29.248C80.616 30.08 80.904 30.112 82.28 30.112C83.592 30.112 83.944 30.08 83.944 29.28C83.944 28.16 83.848 27.008 83.848 25.888V13.952C83.848 13.056 83.912 12.16 83.912 11.296C83.912 9.984 83.24 9.76 82.088 9.76C81.128 9.76 80.168 9.824 79.208 9.824H76.68C76.04 9.824 75.784 9.536 75.784 8.928V6.688ZM119.688 27.712C119.688 26.912 113.512 21.472 112.616 21.472C112.104 21.472 110.728 22.656 110.728 23.168C110.728 23.456 111.048 23.68 111.24 23.808C113.256 25.28 115.176 26.976 116.84 28.864C117.032 29.088 117.352 29.504 117.672 29.504C118.216 29.504 119.688 28.224 119.688 27.712ZM102.664 23.232C102.664 23.008 102.216 22.72 102.056 22.592C101.928 22.528 101.672 22.368 101.384 22.176C100.776 21.76 100.008 21.248 99.752 21.248C99.496 21.248 99.336 21.472 99.208 21.632C97.512 23.616 95.624 25.408 93.416 26.784C93.192 26.912 92.936 27.072 92.936 27.392C92.936 27.872 94.44 29.28 95.08 29.28C96.232 29.28 100.488 24.96 101.384 23.968C101.608 23.712 101.736 23.552 102.088 23.552H102.216C102.568 23.552 102.664 23.328 102.664 23.232ZM110.216 12.128C109.672 12.16 109.128 12.16 108.584 12.16H103.72C103.624 12.16 103.304 12.128 103.304 11.776C103.304 11.648 103.368 11.552 103.432 11.488C104.52 10.24 106.12 7.776 106.792 6.304C106.888 6.176 106.984 6.08 107.144 6.08C107.272 6.08 107.368 6.176 107.464 6.304C108.392 8.288 109.224 9.696 110.568 11.424C110.632 11.52 110.664 11.616 110.664 11.744C110.664 12.032 110.44 12.128 110.216 12.128ZM115.88 17.6C115.048 17.664 114.216 17.664 113.352 17.664H99.848C99.112 17.664 98.376 17.632 97.64 17.632C97.416 17.6 97.32 17.472 97.32 17.344C97.32 17.248 97.384 17.152 97.48 17.088C98.696 16.16 99.848 15.136 100.968 14.08C101.032 14.048 101.096 13.984 101.16 13.984C101.32 13.984 101.384 14.08 101.416 14.24C101.416 14.752 101.448 15.072 102.056 15.072C102.984 15.072 103.88 15.008 104.808 15.008H108.584C109.512 15.008 110.408 15.072 111.304 15.072C112.04 15.072 111.944 14.624 111.976 13.888C111.976 13.728 112.072 13.6 112.232 13.6C112.328 13.6 112.392 13.632 112.456 13.696C113.608 14.88 114.792 16.032 116.072 17.056C116.168 17.12 116.232 17.216 116.232 17.312C116.232 17.504 116.04 17.6 115.88 17.6ZM99.944 10.848C99.784 11.008 99.624 11.2 99.432 11.392C99.304 11.488 99.208 11.584 99.016 11.584C98.856 11.584 98.728 11.488 98.632 11.392L97.128 9.984C97.032 9.856 96.936 9.728 96.936 9.568C96.936 9.408 97 9.312 97.064 9.184C97.16 9.088 97.256 8.96 97.352 8.864C97.544 8.672 97.672 8.544 97.96 8.544C98.184 8.544 98.344 8.64 98.504 8.768C98.984 9.184 99.464 9.6 99.912 10.016C100.04 10.144 100.104 10.272 100.104 10.464C100.104 10.592 100.04 10.72 99.944 10.848ZM99.752 6.688C99.592 6.56 99.496 6.432 99.496 6.208C99.496 6.144 99.496 6.112 99.528 6.048C99.752 5.856 99.944 5.824 100.232 5.824H102.472C102.952 5.824 103.272 5.856 103.272 6.08C103.272 6.4 102.472 7.584 102.248 7.904C102.12 8.096 101.96 8.224 101.704 8.224C101.48 8.224 101.32 8.128 101.192 8C100.712 7.552 100.232 7.104 99.752 6.688ZM96.68 12.768C96.808 12.928 96.936 13.088 96.936 13.312C96.936 13.568 96.776 13.76 96.584 13.92C95.464 14.752 94.472 15.424 93.256 16.16C92.872 16.384 91.848 16.896 91.848 17.376C91.848 17.792 92.936 19.36 93.8 19.36C94.216 19.36 94.728 18.976 95.08 18.752C95.176 18.688 95.24 18.656 95.368 18.656C95.656 18.656 95.752 18.88 95.784 19.136C95.816 20.064 95.688 20.512 96.488 20.512C97.608 20.512 98.728 20.448 99.848 20.448H103.944C104.584 20.448 104.84 20.704 104.84 21.344V24.832C104.84 26.496 104.872 26.816 103.112 26.816C102.632 26.816 102.152 26.752 101.672 26.752C101.288 26.752 101.064 26.88 101.064 27.52C101.064 28.064 101.256 29.248 101.576 29.696C101.768 30.016 102.28 30.048 102.728 30.048H103.112C108.168 30.048 108.296 28.64 108.296 26.24C108.296 25.6 108.232 24.96 108.232 24.32V21.344C108.232 20.704 108.52 20.448 109.128 20.448H113.352C114.472 20.448 115.592 20.512 116.712 20.512C117.448 20.512 117.416 20.128 117.416 18.912C117.448 18.688 117.512 18.464 117.8 18.464C117.896 18.464 117.96 18.496 118.056 18.56C118.28 18.72 118.792 19.104 119.08 19.104C119.688 19.104 120.872 17.44 120.872 16.832C120.872 16.48 120.456 16.256 120.072 16C118.504 14.944 117 13.792 115.624 12.48C115.432 12.32 115.304 12.16 115.304 11.872C115.304 11.648 115.4 11.488 115.56 11.296C116.584 10.048 120.104 6.048 120.104 4.608C120.104 4.128 119.368 2.816 117.896 2.816C117.128 2.816 116.392 2.848 115.656 2.848H113.864C112.808 2.848 112.136 2.784 111.624 2.784C110.92 2.784 110.888 3.008 110.888 4.096C110.888 5.12 110.888 5.408 111.624 5.408C112.232 5.408 113.032 5.344 113.736 5.344H115.464C115.784 5.344 116.2 5.312 116.2 5.568C116.2 5.888 114.6 7.84 113.864 8.736C113.672 8.992 113.416 9.376 113.064 9.376C112.808 9.376 112.648 9.248 112.52 9.056C110.92 6.88 109.736 4.768 108.904 2.208C108.776 1.824 108.68 1.44 108.2 1.44C108.168 1.44 106.024 1.6 106.024 2.368C106.024 2.496 106.056 2.624 106.088 2.784V2.944C106.088 3.264 105.832 3.328 105.576 3.328H105.288C104.52 3.328 103.752 3.36 102.984 3.36H101.64C101.512 3.328 101.288 3.264 101.288 3.104C101.288 2.88 101.608 2.848 101.768 2.816C101.96 2.784 102.28 2.656 102.28 2.432C102.28 2.048 101.736 1.952 100.648 1.696C100.328 1.6 98.92 1.216 98.728 1.216C98.44 1.216 98.376 1.44 98.312 1.664C97.16 4.672 94.92 7.328 92.584 9.536C92.328 9.76 91.976 10.048 91.976 10.368C91.976 10.944 93.288 12.256 93.864 12.256C94.12 12.256 94.312 12.096 94.504 11.904C94.696 11.776 94.888 11.648 95.144 11.648C95.368 11.648 95.528 11.744 95.72 11.904L96.68 12.768ZM139.592 20.384C138.984 20.384 137.864 22.656 137.864 23.104C137.864 23.616 140.008 26.304 145.192 26.304C146.472 26.304 151.88 25.824 152.776 25.344C153.192 25.12 153.16 24.544 153.16 24.16C153.16 22.528 153.096 21.76 152.584 21.76C152.392 21.76 152.072 21.824 151.912 21.888C149.608 22.528 147.272 22.912 144.872 22.912C142.728 22.912 141.384 22.368 140.008 20.672C139.912 20.544 139.784 20.384 139.592 20.384ZM140.328 6.528C139.816 6.528 139.656 7.008 139.656 8.544C139.656 8.896 139.624 9.568 139.976 9.792C140.648 10.24 144.584 10.432 145.576 10.432C146.92 10.432 149.672 10.24 150.952 9.984C151.56 9.856 151.56 9.6 151.56 8.928C151.56 8.352 151.496 7.776 151.432 7.2C151.368 6.816 151.24 6.432 150.792 6.432C150.6 6.432 150.376 6.496 150.216 6.528C148.648 6.912 146.952 7.168 145.352 7.168C144.008 7.168 142.472 6.976 141.16 6.688C140.904 6.624 140.552 6.528 140.328 6.528ZM132.648 4.032C132.296 4.032 132.232 4.448 132.168 4.736C132.072 5.28 131.912 5.792 131.752 6.336C130.76 9.92 130.12 13.184 130.12 16.928C130.12 20.288 130.568 23.712 132.072 26.752C132.488 27.616 132.872 28.32 133.416 28.32C134.088 28.32 135.912 27.552 135.912 26.752C135.912 26.624 135.88 26.432 135.848 26.272C135.816 25.984 135.72 25.248 135.72 24.928C135.72 23.488 137 20.576 137 20.288C137 19.936 136.168 19.264 135.848 19.264C135.56 19.264 135.368 19.616 135.176 20.032C135.048 20.352 134.6 21.28 134.312 21.28C133.576 21.28 133.448 17.408 133.448 16.8C133.448 13.76 134.12 10.56 135.24 7.712C135.56 6.912 135.688 6.624 136.232 6.336C136.552 6.144 136.68 6.112 136.68 5.92C136.68 5.6 136.296 5.472 136.04 5.376C135.592 5.184 132.904 4.032 132.648 4.032ZM164.456 10.944C163.112 11.36 162.728 11.488 162.728 11.904C162.728 12.8 164.168 15.104 165.16 15.104C165.48 15.104 165.736 14.976 165.992 14.848C169.896 12.832 174.856 10.464 179.304 10.464C181.992 10.464 184.2 12.064 184.2 14.912C184.2 20.384 177.192 22.784 172.712 23.136C172.296 23.168 171.624 23.232 171.624 23.808C171.624 24.32 172.104 25.472 172.36 25.952C172.616 26.4 172.84 26.72 173.384 26.72C174.824 26.72 178.248 25.664 179.624 25.12C183.912 23.36 187.816 19.904 187.816 14.976C187.816 12.928 187.048 10.816 185.64 9.344C183.976 7.648 181.672 7.008 179.336 7.008C175.304 7.008 171.272 8.64 167.528 9.952C166.184 10.432 165.192 10.72 164.456 10.944ZM214.568 9.248C214.568 9.472 214.664 9.6 214.856 9.728C217.896 12.064 219.208 15.104 219.592 18.848C219.656 19.616 219.624 20.064 220.648 20.064C221.192 20.064 221.928 19.936 222.44 19.776C222.984 19.616 223.304 19.456 223.304 18.848C223.304 16.928 222.312 13.888 221.416 12.192C219.88 9.248 217.192 7.232 216.488 7.232C215.848 7.232 214.568 8.64 214.568 9.248ZM200.136 7.168C199.912 7.168 199.72 7.264 199.688 7.52C199.624 7.808 199.528 11.872 199.528 12.384C199.528 15.776 199.784 19.808 201.384 22.816C202.44 24.768 204.296 26.912 206.664 26.912C208.168 26.912 209.16 25.952 210.088 24.896C210.536 24.384 211.976 22.72 211.976 22.112C211.976 21.536 210.344 20.224 209.672 20.224C209.256 20.224 209 20.704 208.808 21.024C208.424 21.728 207.496 23.136 206.6 23.136C205.48 23.136 204.424 21.248 204.04 20.352C203.208 18.336 203.016 15.808 203.016 13.664C203.016 12.512 203.112 11.392 203.272 10.272C203.368 9.728 203.4 9.088 203.848 8.736C204.04 8.576 204.168 8.512 204.168 8.32C204.168 8 203.72 7.936 203.464 7.872C202.92 7.776 200.552 7.168 200.136 7.168ZM233.057 7.968C233.057 8.288 233.345 11.328 234.113 11.328C234.273 11.328 234.433 11.296 234.593 11.264C236.641 10.72 239.521 10.24 241.665 9.952C242.017 9.888 243.457 9.664 243.713 9.664C243.905 9.664 244.193 9.792 244.193 10.048C244.193 10.24 243.777 10.656 243.617 10.816C241.441 13.184 240.097 16.768 240.097 20C240.097 26.24 244.769 27.968 250.209 27.968C250.561 27.968 250.913 27.968 251.137 27.648C251.489 27.072 251.713 25.504 251.713 24.8C251.713 24.288 251.457 24.256 250.977 24.256C250.657 24.256 249.953 24.288 249.377 24.288C246.145 24.288 243.745 23.392 243.745 19.68C243.745 17.728 244.353 15.744 245.281 14.048C246.529 11.744 248.257 10.176 250.753 9.28C252.545 8.64 254.177 8.64 256.065 8.608C256.801 8.576 257.473 8.64 257.473 7.936C257.473 7.392 257.313 6.144 257.217 5.6C257.121 5.216 257.057 4.8 256.577 4.8C256.449 4.8 256.321 4.8 256.193 4.832C253.793 5.216 251.329 5.536 248.929 5.824C244.257 6.368 239.585 6.848 234.913 7.136C233.505 7.232 233.057 7.136 233.057 7.968Z" fill="#3E3E3E"/>
<circle cx="6" cy="16" r="6" fill="#94C3C5"/>
</svg>
