<svg width="123" height="32" viewBox="0 0 123 32" fill="none" xmlns="http://www.w3.org/2000/svg">
<circle cx="6" cy="16" r="6" fill="#94C3C5"/>
<path d="M46.952 9.536C47.208 9.728 47.464 9.952 47.72 10.144C48.584 10.816 50.184 12.16 50.184 12.512C50.184 13.12 48.808 14.688 48.168 14.688C47.912 14.688 47.656 14.464 47.464 14.304C46.12 13.024 44.712 11.84 43.208 10.72C42.984 10.56 42.632 10.304 42.632 9.952C42.632 9.472 44.04 7.872 44.552 7.872C44.936 7.872 46.248 8.96 46.952 9.536ZM31.912 22.208C31.88 21.632 31.88 21.312 31.56 21.312C31.176 21.312 27.368 24.384 26.824 24.864C26.696 24.96 26.504 25.12 26.344 25.12C25.704 25.12 24.424 22.72 24.424 22.08C24.424 21.728 24.776 21.632 25.16 21.408C26.952 20.384 28.648 19.232 30.408 18.144C31.624 17.408 31.752 17.376 31.752 16.384V15.296C31.752 14.816 31.784 14.336 31.784 13.856V13.536C31.784 13.12 31.496 12.8 31.08 12.8C31.016 12.8 30.952 12.832 30.888 12.832C30.28 12.96 28.104 13.344 27.624 13.344C27.208 13.344 26.696 13.312 26.696 10.976C26.696 10.112 26.76 9.984 27.368 9.952C28.36 9.92 29.48 9.856 30.472 9.728C30.888 9.696 31.368 9.664 31.656 9.344C31.912 9.056 31.912 8.736 31.912 8.384C31.944 7.488 31.976 6.592 31.976 5.696C31.976 5.056 31.912 4.32 31.912 4.192C31.912 3.936 32.008 3.712 32.328 3.712C32.808 3.712 34.952 4.16 35.592 4.288C35.784 4.32 36.232 4.416 36.232 4.704C36.232 4.896 36.04 5.088 35.912 5.216C35.432 5.6 35.4 5.984 35.304 6.976C35.272 7.168 35.24 7.424 35.208 7.712C35.208 7.84 35.176 8.032 35.176 8.16C35.176 8.448 35.432 8.704 35.72 8.704C35.944 8.704 37.416 8.256 37.736 8.16C37.896 8.096 38.12 8 38.28 8C39.016 8 39.112 10.08 39.112 10.624C39.112 11.456 38.568 11.456 36.136 11.872C34.952 12.096 34.888 12.32 34.888 13.792V14.24C34.888 14.784 34.952 15.488 35.368 15.488C35.528 15.488 35.976 15.296 36.168 15.2C37.864 14.56 39.624 14.144 41.48 14.144C45.032 14.144 48.456 16.352 48.456 20.192C48.456 22.176 47.528 23.84 45.896 24.96C44.264 26.08 41.384 26.4 39.464 26.4H39.08C38.568 26.4 37.896 26.368 37.736 26.048C37.448 25.6 37.224 24.288 37.224 23.744C37.224 23.328 37.32 22.912 37.8 22.912C38.184 22.912 39.24 23.2 40.424 23.2C42.28 23.2 45 22.592 45 20.256C45 18.24 42.952 17.248 41.16 17.248C39.432 17.248 37.032 17.888 35.528 18.784C35.176 19.008 35.016 19.328 35.016 19.776C35.016 20.16 35.08 21.44 35.112 21.888C35.176 22.56 35.4 25.44 35.4 25.76C35.4 27.328 33.448 28.096 32.584 28.096C31.88 28.096 31.656 27.424 31.4 26.88C30.888 25.728 30.376 25.216 29.448 24.384C29.288 24.224 29.064 24.032 29.064 23.776C29.064 23.424 29.448 23.136 29.768 23.136C29.992 23.136 31.112 23.904 31.4 24.128C31.496 24.224 31.656 24.32 31.784 24.32C31.976 24.32 32.008 24.192 32.008 24.064C32.008 24.032 31.944 22.72 31.944 22.656C31.944 22.496 31.912 22.336 31.912 22.208ZM78.376 26.592C78.376 26.784 78.248 26.912 78.056 26.912C77.992 26.912 77.928 26.88 77.864 26.88H77.736C77.48 26.88 77.128 27.168 76.712 27.488L76.296 27.808C75.784 28.224 73.128 30.08 72.648 30.08C71.944 30.08 70.696 28.672 70.696 28.192C70.696 27.936 70.984 27.808 71.208 27.712C72.84 26.912 74.152 26.016 75.496 24.8C75.688 24.64 75.848 24.48 76.008 24.48C76.296 24.48 78.376 26.304 78.376 26.592ZM73.384 25.184C73.384 25.728 71.88 26.112 71.624 26.112C71.208 26.112 71.016 25.568 70.664 24.544C70.472 23.936 70.216 23.2 69.832 22.304C69.768 22.176 69.672 21.952 69.672 21.792C69.672 21.376 70.984 20.96 71.336 20.96C71.72 20.96 71.848 21.312 72.2 22.048C72.392 22.496 73.384 24.864 73.384 25.184ZM65.8 21.792C65.8 21.952 65.608 22.048 65.48 22.112C65.16 22.24 65.128 22.272 65.032 22.656C64.744 23.904 64.104 25.856 63.56 27.008C63.464 27.232 63.304 27.392 63.048 27.392C62.664 27.392 61.384 26.976 61.384 26.528C61.384 26.336 61.544 26.08 61.608 25.92C62.216 24.544 62.728 23.136 62.984 21.664C63.048 21.376 63.048 21.024 63.432 21.024C63.784 21.024 64.936 21.344 65.352 21.44C65.576 21.472 65.8 21.568 65.8 21.792ZM86.504 28.032C86.504 28.576 85.32 30.016 84.68 30.016C83.944 30.016 79.816 26.688 79.816 26.208C79.816 25.824 81.224 24.416 81.736 24.416C81.992 24.416 82.12 24.608 82.28 24.736C83.272 25.696 84.808 26.784 86.024 27.488C86.312 27.648 86.504 27.744 86.504 28.032ZM80.872 19.232H77.672C77.128 19.296 76.84 19.584 76.776 20.128V20.544C76.84 21.088 77.128 21.376 77.672 21.44H80.872C81.416 21.376 81.704 21.088 81.768 20.544V20.128C81.704 19.584 81.416 19.296 80.872 19.232ZM81 14.912H77.544C77.096 14.912 76.776 15.232 76.776 15.68V16.096C76.776 16.544 77.096 16.864 77.544 16.864H81C81.448 16.864 81.768 16.544 81.768 16.096V15.68C81.768 15.232 81.448 14.912 81 14.912ZM81.768 11.712V11.264C81.768 10.816 81.448 10.496 81 10.496H77.544C77.096 10.496 76.776 10.816 76.776 11.264V11.712C76.776 12.16 77.096 12.48 77.544 12.48H81C81.448 12.48 81.768 12.16 81.768 11.712ZM80.168 6.976C80.136 7.072 80.104 7.136 80.104 7.232C80.104 7.744 80.584 7.744 80.712 7.776H81.352C82.024 7.776 82.696 7.712 83.368 7.712C84.456 7.712 84.904 8.032 84.904 9.12C84.904 9.952 84.84 10.752 84.84 11.552V20.352C84.84 21.152 84.904 21.984 84.904 22.784C84.904 23.872 84.456 24.192 83.432 24.192C82.728 24.192 82.024 24.16 81.352 24.16H77.256C76.584 24.16 75.88 24.192 75.208 24.192C74.12 24.192 73.704 23.872 73.704 22.752C73.704 21.952 73.768 21.152 73.768 20.352V11.552C73.768 10.752 73.704 9.952 73.704 9.152C73.704 8.064 74.12 7.712 75.208 7.712C75.4 7.712 75.592 7.712 75.784 7.744C76.424 7.712 76.648 7.584 76.936 6.976C77.064 6.688 77.192 6.368 77.288 6.08C77.32 5.952 77.352 5.888 77.352 5.792C77.352 5.408 77 5.28 76.68 5.28H76.456C75.496 5.28 74.536 5.344 73.672 5.344C73 5.344 73.032 4.96 73.032 3.84C73.032 2.688 73 2.336 73.672 2.336C74.504 2.336 75.496 2.4 76.456 2.4H82.536C83.496 2.4 84.456 2.336 85.352 2.336C86.024 2.336 85.992 2.752 85.992 3.84C85.992 4.896 86.024 5.344 85.352 5.344C84.456 5.344 83.496 5.28 82.536 5.28H81.672C81.032 5.28 80.776 5.44 80.52 6.048C80.392 6.368 80.264 6.656 80.168 6.976ZM68.296 15.232H66.664C66.12 15.296 65.832 15.584 65.768 16.128V16.48C65.832 17.056 66.12 17.376 66.664 17.376H68.296C68.84 17.376 69.128 17.056 69.192 16.48V16.128C69.128 15.584 68.84 15.296 68.296 15.232ZM66.664 12.736H68.296C68.84 12.672 69.128 12.384 69.192 11.84V11.52C69.128 10.976 68.84 10.656 68.296 10.656H66.664C66.12 10.656 65.832 10.976 65.768 11.52V11.84C65.832 12.384 66.12 12.672 66.664 12.736ZM64.456 20.32H64.072C63.336 20.32 62.952 20.128 62.952 19.328C62.952 18.624 63.016 17.888 63.016 17.184V12.032C63.016 11.104 62.952 10.144 62.952 9.216C62.952 8.448 63.112 7.968 63.976 7.872C64.488 7.84 64.68 7.712 64.904 7.232C65.032 6.816 65.16 6.432 65.256 6.016C65.288 5.952 65.288 5.888 65.288 5.792C65.288 5.376 65 5.216 64.616 5.216H62.6C61.96 5.216 61.704 5.472 61.704 6.112V15.744C61.704 19.328 61.384 24 60.488 27.456C60.104 29.024 59.88 29.76 59.304 29.76C58.504 29.76 56.968 29.056 56.968 28.544C56.968 28.416 57.192 27.744 57.256 27.584C58.44 24.32 58.856 17.92 58.856 14.4V6.368C58.856 5.504 58.792 4.608 58.792 3.744C58.792 2.528 59.4 2.272 60.488 2.272C61.416 2.272 62.344 2.336 63.272 2.336H67.976C69.192 2.336 70.408 2.24 71.624 2.24C72.36 2.24 72.328 2.624 72.328 3.776C72.328 4.928 72.36 5.28 71.624 5.28C70.856 5.28 70.088 5.248 69.32 5.216C68.68 5.248 68.488 5.44 68.264 6.016C68.168 6.368 68.04 6.752 67.944 7.104C67.912 7.2 67.912 7.264 67.912 7.36C67.912 7.776 68.2 7.936 68.584 7.936H69.192C69.896 7.936 70.536 7.872 70.92 7.872C71.784 7.872 72.04 8.352 72.04 9.152C72.04 9.952 72.008 10.752 72.008 11.552V17.184C72.008 17.888 72.04 18.624 72.04 19.36C72.04 20.416 71.304 20.32 70.504 20.32H70.28C69.928 20.32 69.416 20.288 69.256 20.064L69.128 19.936C69.032 20 69.032 20.064 69.032 20.128V24.96C69.032 25.632 69.064 26.304 69.064 26.976C69.064 29.632 67.016 30.016 64.84 30.016C64.616 30.016 63.752 30.176 63.752 27.68C63.752 27.296 63.912 26.944 64.36 26.944C64.552 26.944 64.744 26.976 64.968 26.976C66.216 26.976 66.152 26.432 66.152 25.184V20.32C66.152 20.064 66.056 20 65.896 19.936C65.768 20 65.768 20.032 65.672 20.128C65.48 20.288 64.936 20.32 64.456 20.32ZM110.408 9.248C110.408 8.64 111.688 7.232 112.328 7.232C113.032 7.232 115.72 9.248 117.256 12.192C118.152 13.888 119.144 16.928 119.144 18.848C119.144 19.456 118.824 19.616 118.28 19.776C117.768 19.936 117.032 20.064 116.488 20.064C115.464 20.064 115.496 19.616 115.432 18.848C115.048 15.104 113.736 12.064 110.696 9.728C110.504 9.6 110.408 9.472 110.408 9.248ZM95.976 7.168C96.392 7.168 98.76 7.776 99.304 7.872C99.56 7.936 100.008 8 100.008 8.32C100.008 8.512 99.88 8.576 99.688 8.736C99.24 9.088 99.208 9.728 99.112 10.272C98.952 11.392 98.856 12.512 98.856 13.664C98.856 15.808 99.048 18.336 99.88 20.352C100.264 21.248 101.32 23.136 102.44 23.136C103.336 23.136 104.264 21.728 104.648 21.024C104.84 20.704 105.096 20.224 105.512 20.224C106.184 20.224 107.816 21.536 107.816 22.112C107.816 22.72 106.376 24.384 105.928 24.896C105 25.952 104.008 26.912 102.504 26.912C100.136 26.912 98.28 24.768 97.224 22.816C95.624 19.808 95.368 15.776 95.368 12.384C95.368 11.872 95.464 7.808 95.528 7.52C95.56 7.264 95.752 7.168 95.976 7.168Z" fill="#3E3E3E"/>
</svg>
