<svg width="123" height="32" viewBox="0 0 123 32" fill="none" xmlns="http://www.w3.org/2000/svg">
<path d="M32.456 5.728H27.176C26.152 5.728 25.096 5.792 24.072 5.792C23.272 5.792 23.272 5.312 23.272 4.16C23.272 3.04 23.272 2.528 24.072 2.528C25.096 2.528 26.152 2.624 27.176 2.624H32.456C33.48 2.624 34.536 2.528 35.56 2.528C36.392 2.528 36.36 3.072 36.36 4.16C36.36 5.28 36.392 5.792 35.56 5.792C34.536 5.792 33.48 5.728 32.456 5.728ZM32.296 15.04V12.384C32.296 11.744 32.04 11.488 31.4 11.488H28.68C28.072 11.488 27.816 11.744 27.816 12.384V15.04C27.816 15.68 28.072 15.936 28.68 15.936H31.4C32.04 15.936 32.296 15.68 32.296 15.04ZM27.688 19.712C27.432 23.008 27.016 25.568 25.8 28.672C25.416 29.6 25.256 29.76 24.872 29.76C24.456 29.76 22.28 28.96 22.28 28.32C22.28 28.128 22.44 27.872 22.504 27.712C24.232 24 24.648 19.648 24.648 15.616V12.128C24.648 11.328 24.616 10.528 24.616 9.728C24.616 8.576 25.256 8.352 26.28 8.352C27.048 8.352 27.848 8.416 28.648 8.416H31.4C32.2 8.416 32.968 8.352 33.768 8.352C34.792 8.352 35.432 8.576 35.432 9.728C35.432 10.528 35.4 11.328 35.4 12.128V15.936C35.4 16.928 35.464 17.888 35.464 18.848C35.464 19.616 35.112 19.616 33.832 19.616C32.808 19.616 32.584 19.616 32.36 19.392C32.168 19.168 31.944 18.88 31.656 18.848H28.616C28.008 18.848 27.752 19.104 27.688 19.712ZM41.576 7.52V10.528C41.576 11.168 41.832 11.424 42.472 11.424H46.6C47.848 11.424 49.128 11.36 50.408 11.36C51.24 11.36 51.176 11.68 51.176 12.96C51.176 14.208 51.208 14.528 50.408 14.528C49.96 14.528 49.224 14.496 48.776 14.464C48.136 14.528 47.912 14.72 47.912 15.328V24.736C47.912 26.144 48.008 27.552 48.008 28.96C48.008 30.016 47.656 30.016 46.312 30.016C44.968 30.016 44.584 30.016 44.584 28.96C44.584 27.552 44.68 26.144 44.68 24.736V15.328C44.68 14.72 44.424 14.432 43.784 14.432H42.472C41.864 14.432 41.64 14.656 41.544 15.296C41.384 19.168 40.712 22.592 39.048 26.144C38.6 27.072 37.832 28.448 37.128 29.152C36.904 29.376 36.712 29.504 36.392 29.504C35.72 29.504 33.928 28.672 33.928 28.064C33.928 27.84 34.184 27.616 34.312 27.456C35.336 26.176 36.072 25.088 36.744 23.584C38.024 20.608 38.312 16.672 38.312 13.472V5.28C38.312 3.84 39.56 3.84 40.392 3.776C42.536 3.584 46.472 2.976 48.36 1.984C48.488 1.92 48.584 1.856 48.744 1.856C49.256 1.856 49.96 2.848 50.28 3.264C50.632 3.712 51.144 4.352 51.144 4.64C51.144 4.864 50.92 5.024 50.696 5.024C50.504 5.024 50.408 4.96 50.248 4.864C50.088 4.8 49.928 4.736 49.768 4.736C49.576 4.736 49.16 4.864 48.968 4.928C46.632 5.6 45.224 5.888 42.728 6.24C41.736 6.368 41.576 6.4 41.576 7.52ZM77.768 12.928V14.944C77.768 15.552 78.024 15.808 78.632 15.808H80.072C81.288 15.808 82.504 15.744 83.688 15.744C84.52 15.744 84.488 16.128 84.488 17.312C84.488 18.528 84.52 18.88 83.688 18.88C82.472 18.88 81.256 18.816 80.072 18.816H78.632C78.024 18.816 77.768 19.072 77.768 19.712V25.12C77.768 25.728 78.024 25.952 78.632 26.016H81.48C82.664 26.016 83.88 25.92 85.096 25.92C85.928 25.92 85.896 26.336 85.896 27.488C85.896 28.672 85.896 29.024 85.064 29.024C83.848 29.024 82.664 28.96 81.48 28.96H71.496C70.28 28.96 69.096 29.024 67.88 29.024C67.048 29.024 67.08 28.608 67.08 27.488C67.08 26.304 67.048 25.92 67.88 25.92C69.096 25.92 70.28 26.016 71.496 26.016H73.672C74.312 26.016 74.568 25.728 74.568 25.12V19.712C74.568 19.072 74.312 18.816 73.672 18.816H72.648C71.432 18.816 70.216 18.88 69.032 18.88C68.2 18.88 68.232 18.464 68.232 17.312C68.232 16.128 68.2 15.744 69.032 15.744C70.248 15.744 71.464 15.808 72.648 15.808H73.672C74.312 15.808 74.568 15.552 74.568 14.944V13.152C74.568 12.416 74.6 11.712 74.472 11.008C74.472 10.912 74.44 10.784 74.44 10.688C74.44 10.336 74.664 10.272 74.984 10.272C75.432 10.272 77.256 10.432 77.768 10.496C78.024 10.528 78.504 10.56 78.504 10.912C78.504 11.136 78.344 11.2 78.12 11.392C77.8 11.648 77.768 12.064 77.768 12.928ZM71.368 5.408C71.336 5.536 71.304 5.6 71.304 5.696C71.304 6.208 71.88 6.24 71.944 6.24H81.192C82.504 6.24 83.816 6.144 85.16 6.144C85.928 6.144 85.896 6.56 85.896 7.744C85.896 8.928 85.928 9.312 85.16 9.312C83.816 9.312 82.504 9.248 81.192 9.248H70.664C69.992 9.248 69.736 9.408 69.416 10.016C68.456 12 67.336 13.92 66.056 15.744C65.704 16.256 65.608 16.512 65.608 17.12V25.6C65.608 26.72 65.704 27.872 65.704 28.992C65.704 29.92 65.32 29.92 64.104 29.92C62.856 29.92 62.472 29.92 62.472 29.024C62.472 27.872 62.568 26.752 62.568 25.6V20.992C62.536 20.8 62.472 20.608 62.248 20.608C62.12 20.608 62.056 20.64 61.96 20.736C61.48 21.216 59.688 23.04 59.08 23.04C58.504 23.04 57.288 21.664 57.288 21.216C57.288 20.832 57.8 20.512 58.056 20.288C59.592 19.04 60.84 17.856 62.088 16.352C62.376 16.032 62.504 15.808 62.504 15.36V15.136C62.472 14.976 62.44 14.56 62.44 14.432C62.44 14.08 62.664 14.016 62.952 14.016C63.08 14.016 63.176 14.048 63.304 14.048C63.72 14.016 63.912 13.952 64.168 13.6C64.936 12.448 65.608 11.232 66.248 10.016C66.28 9.92 66.312 9.824 66.312 9.728C66.312 9.344 66.024 9.28 65.736 9.248H62.44C61.128 9.248 59.816 9.312 58.504 9.312C57.736 9.312 57.736 8.96 57.736 7.744C57.736 6.56 57.704 6.144 58.472 6.144C59.816 6.144 61.128 6.24 62.44 6.24H66.984C67.624 6.24 67.944 6.08 68.168 5.44C68.648 4.096 68.904 3.008 69.192 1.632C69.256 1.376 69.352 1.184 69.64 1.184C69.928 1.184 71.112 1.504 71.496 1.6C72.264 1.76 73.032 1.888 73.032 2.368C73.032 2.592 72.776 2.752 72.584 2.848C72.136 3.04 72.136 3.136 71.816 4.096C71.72 4.416 71.56 4.832 71.368 5.408ZM95.112 12.64C94.664 12.64 93.352 12.704 93.096 12.704C92.424 12.704 92.456 12.192 92.456 11.104C92.456 9.92 92.424 9.472 93.096 9.472C93.416 9.472 94.696 9.504 95.112 9.536C95.688 9.504 95.912 9.184 95.912 8.64V5.568C95.912 4.704 95.912 3.808 95.816 3.04C95.784 2.912 95.784 2.784 95.784 2.656C95.784 2.272 96.008 2.208 96.328 2.208C96.712 2.208 98.984 2.368 99.432 2.4C99.688 2.432 100.136 2.464 100.136 2.816C100.136 3.072 99.88 3.168 99.56 3.36C99.208 3.584 99.176 3.872 99.176 4.992V8.64C99.176 9.216 99.4 9.472 100.008 9.504C100.584 9.504 101.16 9.472 101.768 9.472C102.44 9.472 102.408 9.856 102.408 11.104C102.408 12.256 102.44 12.704 101.768 12.704C101.576 12.704 100.392 12.64 100.04 12.64C99.4 12.672 99.176 12.928 99.176 13.504V20.672C99.208 20.992 99.304 21.28 99.688 21.28C99.848 21.28 100.072 21.184 100.36 21.088C100.936 20.864 101.864 20.448 102.024 20.448C102.728 20.448 102.696 21.888 102.696 22.368C102.696 23.072 102.6 23.264 101.992 23.52C99.624 24.608 97.224 25.568 94.76 26.432C94.088 26.656 94.056 26.72 93.896 27.2C93.832 27.36 93.768 27.616 93.512 27.616C93.192 27.616 92.968 26.816 92.872 26.56C92.712 26.112 92.136 24.544 92.136 24.16C92.136 23.712 92.616 23.68 92.936 23.616C93.704 23.456 94.408 23.232 95.144 22.944C95.752 22.72 95.912 22.432 95.912 21.824V13.504C95.912 12.928 95.688 12.672 95.112 12.64ZM113.448 12.416C112.872 12.672 112.712 12.96 112.712 13.632V18.272C112.712 19.712 112.808 21.152 112.808 22.56C112.808 23.52 112.488 23.552 111.176 23.552C109.96 23.552 109.576 23.552 109.576 22.624C109.576 21.152 109.672 19.712 109.672 18.272V14.944C109.64 14.816 109.64 14.336 109.16 14.336C109.064 14.336 108.968 14.368 108.872 14.4L107.72 14.912C107.112 15.2 106.952 15.456 106.952 16.096V24.736C106.952 26.048 107.08 26.368 108.552 26.368H115.144C116.616 26.368 117.192 26.144 117.64 23.488C117.736 22.912 117.768 22.688 118.312 22.688C118.856 22.688 119.496 22.88 120.008 23.04C120.648 23.264 120.904 23.456 120.904 24.064C120.904 25.056 120.04 27.392 119.464 28.192C118.664 29.312 117.352 29.472 116.072 29.472H107.624C103.368 29.472 103.816 27.616 103.816 24.192V17.504C103.784 17.376 103.784 16.928 103.336 16.928C103.208 16.928 103.144 16.96 103.016 16.992C102.824 17.088 102.216 17.376 101.992 17.376C101.384 17.376 100.584 15.136 100.584 14.912C100.584 14.4 101.448 14.112 103.016 13.536C103.624 13.248 103.816 12.992 103.816 12.32V8.864C103.816 8.032 103.848 7.2 103.72 6.464C103.72 6.368 103.688 6.24 103.688 6.144C103.688 5.792 103.944 5.76 104.232 5.76C104.744 5.76 106.344 5.856 106.952 5.888C107.208 5.92 107.784 5.92 107.784 6.304C107.784 6.528 107.528 6.624 107.336 6.752C106.984 6.976 106.952 7.648 106.952 8.64V10.944C106.984 11.104 106.984 11.552 107.464 11.552C107.56 11.552 107.656 11.52 107.752 11.52L108.872 11.008C109.48 10.72 109.672 10.464 109.672 9.792V4.832C109.672 3.936 109.608 3.04 109.544 2.208C109.544 2.112 109.512 1.984 109.512 1.888C109.512 1.536 109.8 1.472 110.088 1.472C110.472 1.472 112.488 1.6 112.904 1.632C113.128 1.664 113.448 1.728 113.448 2.048C113.448 2.24 113.288 2.304 113.064 2.464C112.744 2.72 112.712 3.392 112.712 4.384V8.448C112.744 8.608 112.744 9.056 113.224 9.056C113.32 9.056 113.416 9.056 113.48 9.024L114.952 8.384C115.72 8.064 116.616 7.52 117.448 7.52C118.12 7.52 118.6 7.84 118.984 8.352C119.176 8.64 119.176 9.088 119.176 9.44C119.176 11.744 119.112 16.128 118.92 18.368C118.728 20.928 117.64 21.536 115.176 21.536C114.408 21.536 113.608 21.632 113.608 19.072C113.608 18.752 113.672 18.336 114.056 18.336C114.184 18.336 114.376 18.368 114.632 18.368C115.592 18.368 115.656 18.048 115.752 17.056C115.912 15.648 115.976 13.792 115.976 12.352C115.976 12.096 116.008 11.616 115.624 11.616C115.368 11.616 114.856 11.872 114.472 12C114.12 12.128 113.8 12.256 113.448 12.416Z" fill="#3E3E3E"/>
<circle cx="6" cy="16" r="6" fill="#94C3C5"/>
</svg>
