<svg width="100" height="45" viewBox="0 0 100 45" fill="none" xmlns="http://www.w3.org/2000/svg">
<path d="M6.024 7.728C6.024 7.56 5.76 6.864 5.688 6.672C5.376 5.88 5.304 5.664 4.944 5.664C4.608 5.664 3.336 5.928 3.336 6.336C3.336 6.408 3.408 6.576 3.432 6.672C3.576 7.08 3.672 7.344 3.744 7.584C3.984 8.328 4.008 8.376 4.416 8.376C4.728 8.376 5.208 8.256 5.496 8.16C5.736 8.088 6.024 8.016 6.024 7.728ZM17.064 10.92C17.544 10.92 17.736 11.136 17.736 11.592V19.152C17.736 20.04 17.664 20.952 17.664 21.84C17.664 22.56 17.952 22.584 18.936 22.584C19.944 22.584 20.208 22.56 20.208 21.84C20.208 20.952 20.136 20.04 20.136 19.152V11.592C20.136 11.16 20.304 10.968 20.76 10.944C21.192 10.944 21.6 10.992 22.008 10.992C22.632 10.992 22.608 10.68 22.608 9.816C22.608 8.976 22.632 8.64 22.008 8.64C21.36 8.64 20.568 8.688 19.8 8.688H16.392C15.912 8.688 15.72 8.496 15.72 8.016V6.264C15.72 5.064 15.768 4.944 16.632 4.848C18.024 4.704 19.872 4.248 21.216 3.84C21.312 3.816 21.408 3.792 21.504 3.792C21.648 3.792 21.792 3.816 21.912 3.864C22.032 3.888 22.152 3.936 22.272 3.936C22.44 3.936 22.608 3.864 22.608 3.648C22.608 3.36 22.128 2.88 21.96 2.64C21.744 2.328 21.216 1.56 20.88 1.56C20.76 1.56 20.712 1.584 20.616 1.632C19.488 2.232 16.248 2.88 14.928 3.024C13.632 3.168 13.32 3.288 13.32 4.296V10.8C13.32 14.28 12.792 17.712 10.56 20.52C10.44 20.664 10.224 20.904 10.224 21.12C10.224 21.576 11.688 22.176 12.096 22.176C12.312 22.176 12.456 22.056 12.576 21.888C13.128 21.168 13.608 20.328 13.992 19.488C15.168 16.968 15.624 14.328 15.72 11.568C15.744 11.112 15.936 10.92 16.392 10.92H17.064ZM8.136 2.808C8.136 2.376 8.136 2.112 8.4 1.92C8.544 1.8 8.688 1.728 8.688 1.584C8.688 1.392 8.496 1.32 8.064 1.272C7.68 1.224 6.312 1.104 6 1.104C5.784 1.104 5.592 1.152 5.592 1.416V1.632C5.664 1.992 5.688 2.424 5.688 2.784C5.664 3.264 5.472 3.432 5.016 3.432H4.608C3.912 3.432 3.24 3.384 2.544 3.384C1.944 3.384 1.968 3.72 1.968 4.44C1.968 5.16 1.944 5.496 2.544 5.496C3.24 5.496 3.912 5.448 4.608 5.448H9.312C10.008 5.448 10.68 5.496 11.376 5.496C11.952 5.496 11.952 5.184 11.952 4.44C11.952 3.696 11.952 3.384 11.376 3.384C10.68 3.384 10.008 3.432 9.312 3.432H8.808C8.352 3.432 8.16 3.264 8.136 2.808ZM4.68 15.192C3.984 16.464 2.976 17.952 1.968 18.984C1.824 19.128 1.68 19.224 1.68 19.44C1.68 19.92 2.88 20.856 3.264 20.856C3.72 20.856 5.16 18.408 5.448 17.928C5.472 17.88 5.52 17.856 5.592 17.856C5.712 17.856 5.736 17.952 5.76 18.048V19.224C5.76 20.112 5.688 21.024 5.688 21.912C5.688 22.584 5.952 22.584 6.912 22.584C7.872 22.584 8.112 22.584 8.112 21.912C8.112 21 8.064 20.112 8.064 19.224V17.664C8.064 17.544 8.112 17.424 8.232 17.424C8.304 17.424 8.352 17.472 8.424 17.52C8.64 17.832 9.48 19.056 9.84 19.056C10.272 19.056 11.112 17.928 11.112 17.52C11.112 17.352 11.016 17.28 10.896 17.184C10.2 16.56 9.576 15.864 9 15.12C8.952 15.048 8.928 15 8.928 14.904C8.928 14.688 9.096 14.616 9.288 14.616C9.936 14.616 10.608 14.664 11.28 14.664C11.88 14.664 11.856 14.352 11.856 13.56C11.856 12.768 11.88 12.432 11.28 12.432C10.512 12.432 9.744 12.504 8.952 12.504H8.736C8.4 12.504 8.088 12.336 8.088 11.952C8.088 11.784 8.16 11.664 8.304 11.568C8.472 11.448 8.568 11.4 8.568 11.256C8.568 10.992 8.184 10.968 7.992 10.968C7.56 10.944 6.48 10.872 6.072 10.872C5.904 10.872 5.664 10.872 5.664 11.16C5.664 11.232 5.664 11.328 5.688 11.376C5.712 11.52 5.736 11.736 5.736 11.88C5.736 12.312 5.496 12.504 5.088 12.504H4.776C3.984 12.504 3.216 12.432 2.448 12.432C1.848 12.432 1.872 12.72 1.872 13.56C1.872 14.376 1.848 14.664 2.448 14.664C2.952 14.664 3.792 14.616 4.32 14.616C4.536 14.64 4.728 14.712 4.728 14.952C4.728 15.048 4.704 15.096 4.68 15.192ZM4.416 8.568C3.576 8.568 2.736 8.52 1.896 8.52C1.296 8.52 1.296 8.808 1.296 9.576C1.296 10.32 1.272 10.632 1.896 10.632C2.736 10.632 3.576 10.584 4.416 10.584H9.384C10.2 10.584 11.04 10.632 11.88 10.632C12.504 10.632 12.48 10.368 12.48 9.576C12.48 8.832 12.504 8.52 11.904 8.52C11.76 8.52 10.464 8.568 10.296 8.568C10.056 8.544 9.864 8.472 9.864 8.208C9.864 8.064 10.248 7.224 10.32 7.056C10.368 6.912 10.488 6.792 10.656 6.744C10.776 6.696 10.968 6.624 10.968 6.456C10.968 6.12 9.144 5.64 8.808 5.64C8.592 5.64 8.568 5.808 8.52 5.976C8.28 6.768 8.064 7.32 7.704 8.04C7.464 8.472 7.248 8.568 6.768 8.568H4.416ZM41.664 18.888C41.952 18.888 42.12 19.08 42.12 19.344V19.488C42.12 19.752 41.952 19.944 41.664 19.944H34.32C34.032 19.944 33.888 19.752 33.864 19.488V19.344C33.888 19.08 34.032 18.888 34.32 18.888H41.664ZM41.664 16.296C41.952 16.296 42.12 16.488 42.12 16.752V16.896C42.12 17.184 41.952 17.352 41.664 17.352H34.32C34.032 17.352 33.864 17.184 33.864 16.896V16.752C33.888 16.488 34.032 16.296 34.32 16.296H41.664ZM34.32 14.832C34.032 14.832 33.864 14.664 33.864 14.376V14.28C33.864 13.992 34.032 13.8 34.32 13.8H41.664C41.952 13.8 42.12 13.992 42.12 14.28V14.376C42.12 14.664 41.952 14.832 41.664 14.832H34.32ZM42.072 21.936C42.096 22.512 42.192 22.56 43.368 22.56C44.352 22.56 44.64 22.56 44.64 22.008C44.64 21.36 44.592 20.736 44.592 20.088V15.072C44.592 14.448 44.616 13.824 44.616 13.2C44.616 12.384 44.28 12.144 43.512 12.144C42.84 12.144 42.168 12.168 41.496 12.168H34.632C34.392 12.168 34.176 12.072 34.176 11.808C34.176 11.736 34.2 11.664 34.224 11.592C34.32 11.352 34.512 11.136 34.872 11.136H44.424C45.336 11.136 46.272 11.184 47.208 11.184C47.712 11.184 47.688 10.944 47.688 10.296C47.688 9.624 47.712 9.384 47.208 9.384C46.272 9.384 45.336 9.432 44.424 9.432H38.904C38.496 9.432 38.328 9.264 38.328 8.856V8.784C38.328 8.376 38.496 8.208 38.904 8.208H42.096C42.984 8.208 43.848 8.256 44.736 8.256C45.192 8.256 45.192 7.992 45.192 7.392C45.192 6.768 45.192 6.528 44.712 6.528C43.848 6.528 42.984 6.576 42.096 6.576H38.784C38.448 6.576 38.328 6.456 38.328 6.12V5.88C38.328 5.568 38.472 5.448 38.784 5.448H43.728C44.64 5.448 45.576 5.496 46.512 5.496C46.992 5.496 46.992 5.208 46.992 4.584C46.992 3.912 46.992 3.672 46.488 3.672C45.552 3.672 44.64 3.72 43.728 3.72H42.432C42.24 3.696 42.048 3.648 42.048 3.408C42.048 3.312 42.072 3.264 42.12 3.168C42.288 2.904 42.432 2.616 42.624 2.352C42.696 2.232 42.792 2.16 42.936 2.136C43.104 2.112 43.416 2.064 43.416 1.848C43.416 1.632 42.696 1.368 42.336 1.248C41.952 1.128 41.112 0.743999 40.824 0.743999C40.608 0.743999 40.536 0.912 40.488 1.104C40.224 1.776 39.792 2.592 39.408 3.216C39.144 3.648 38.904 3.72 38.448 3.72H34.248C34.176 3.72 34.128 3.696 34.128 3.624C34.128 3.576 34.176 3.552 34.2 3.528C34.416 3.432 34.848 3.24 34.848 2.976C34.848 2.736 34.08 1.704 33.888 1.488C33.672 1.2 33.336 0.767999 32.976 0.767999C32.664 0.767999 31.224 1.224 31.224 1.656C31.224 1.776 31.32 1.896 31.416 1.992C31.776 2.448 32.016 2.736 32.328 3.192C32.376 3.264 32.4 3.336 32.4 3.408C32.4 3.648 32.208 3.72 32.016 3.72H30.48C29.544 3.72 28.632 3.672 27.696 3.672C27.216 3.672 27.216 3.936 27.216 4.584C27.216 5.184 27.192 5.496 27.696 5.496C28.632 5.496 29.544 5.448 30.48 5.448H35.352C35.664 5.448 35.784 5.568 35.784 5.904V6.12C35.784 6.456 35.664 6.576 35.328 6.576H32.04C31.176 6.576 30.312 6.528 29.424 6.528C28.968 6.528 28.968 6.816 28.968 7.392C28.968 7.968 28.944 8.256 29.424 8.256C30.312 8.256 31.176 8.208 32.04 8.208H35.232C35.616 8.208 35.784 8.376 35.784 8.784V8.856C35.784 9.264 35.616 9.432 35.232 9.432H29.784C28.872 9.432 27.936 9.384 27 9.384C26.52 9.384 26.52 9.6 26.52 10.296C26.52 10.968 26.52 11.184 27 11.184C27.936 11.184 28.872 11.136 29.784 11.136H31.176C31.392 11.16 31.608 11.232 31.608 11.496C31.608 11.568 31.584 11.64 31.56 11.712C30.24 14.016 28.752 15.744 26.616 17.328C26.448 17.448 26.256 17.592 26.256 17.808C26.256 18.384 27.36 19.224 27.912 19.224C28.44 19.224 30.552 17.064 30.984 16.584C31.032 16.512 31.104 16.464 31.176 16.464C31.344 16.464 31.392 16.608 31.416 16.752V20.04C31.416 20.664 31.368 21.312 31.368 21.936C31.368 22.488 31.632 22.512 32.664 22.512C33.72 22.512 33.888 22.464 33.912 21.96C33.936 21.648 34.08 21.6 34.272 21.6H41.712C41.88 21.6 42.072 21.624 42.072 21.936ZM64.104 4.584C64.128 4.128 64.32 3.96 64.776 3.96H65.736C66.216 3.96 66.408 4.152 66.408 4.632V6.696C66.408 7.2 66.384 7.728 66.384 8.256C66.384 9.6 67.08 10.008 68.352 10.008H70.2C71.496 10.008 72 9.768 72.456 8.424C72.696 7.728 72.912 6.744 72.912 6.024C72.912 5.376 71.784 5.256 71.304 5.256C70.776 5.256 70.68 5.448 70.656 5.784C70.584 7.824 70.2 7.8 69.864 7.8H69.264C68.664 7.8 68.664 7.464 68.664 6.72V4.128C68.664 3.72 68.688 3.336 68.688 2.928C68.688 2.088 68.52 1.776 67.584 1.776C67.224 1.776 66.888 1.8 66.552 1.8H63.864C63.528 1.8 63.168 1.776 62.808 1.776C61.92 1.776 61.848 2.184 61.848 2.976V3.264C61.848 5.496 61.68 7.296 60.048 9.024C59.928 9.144 59.616 9.432 59.616 9.6C59.616 10.08 60.864 11.016 61.224 11.016C61.848 11.016 63.096 8.88 63.336 8.328C63.936 7.056 64.032 5.952 64.104 4.584ZM66.192 15.84C66.072 15.96 65.952 16.056 65.784 16.056C65.592 16.056 65.472 15.96 65.352 15.816C64.968 15.36 64.632 14.832 64.344 14.304C64.296 14.232 64.272 14.184 64.272 14.088C64.272 13.824 64.488 13.752 64.704 13.728H66.888C67.296 13.728 67.536 13.752 67.536 13.968C67.536 14.328 66.48 15.528 66.192 15.84ZM65.16 19.656C65.328 19.56 65.472 19.488 65.664 19.488C65.88 19.488 66.048 19.56 66.192 19.68C67.512 20.64 69.24 21.552 70.752 22.176C70.968 22.272 71.472 22.464 71.688 22.464C72.288 22.464 72.936 21.144 72.936 20.688C72.936 20.352 72.552 20.28 72.312 20.208C70.824 19.752 69.264 19.08 67.992 18.192C67.848 18.096 67.752 17.976 67.752 17.784C67.752 17.592 67.824 17.496 67.92 17.376C68.76 16.536 69.672 15.384 70.248 14.352C70.416 14.064 70.8 13.368 70.8 13.032C70.8 12.696 70.2 11.496 69.144 11.496C68.472 11.496 67.8 11.52 67.128 11.52H63.456C62.616 11.52 61.776 11.448 60.912 11.448C60.336 11.448 60.336 11.688 60.336 12.624C60.336 13.488 60.312 13.776 60.888 13.776H61.296C61.584 13.776 61.728 14.016 61.848 14.256C62.376 15.408 62.784 16.248 63.576 17.232C63.672 17.376 63.72 17.472 63.72 17.64C63.72 17.856 63.6 17.952 63.432 18.072C62.112 18.936 60.192 19.632 58.68 20.136C58.464 20.208 58.248 20.304 58.248 20.568C58.248 20.928 58.92 22.344 59.496 22.344C59.808 22.344 60.336 22.128 60.624 22.008C62.208 21.36 63.744 20.616 65.16 19.656ZM57.12 4.416C57.12 3.744 57.12 3 57.144 2.352C57.144 2.112 57.144 1.872 57.36 1.728C57.504 1.632 57.696 1.56 57.696 1.392C57.696 1.128 57.264 1.104 57.072 1.104C56.64 1.08 55.488 1.008 55.08 1.008C54.816 1.008 54.624 1.056 54.624 1.368V1.584C54.72 2.256 54.72 2.928 54.72 3.6V4.584C54.72 5.04 54.504 5.232 54.048 5.232C53.4 5.256 52.776 5.184 52.272 5.184C51.72 5.184 51.72 5.496 51.72 6.336C51.72 7.152 51.696 7.488 52.272 7.488C52.8 7.488 53.448 7.416 54.048 7.44C54.504 7.44 54.72 7.632 54.72 8.112V11.4C54.672 11.904 54.6 12.096 54.12 12.288C53.424 12.576 52.68 12.792 51.96 12.984C51.72 13.056 51.36 13.104 51.36 13.392C51.36 13.56 51.456 13.8 51.504 13.944C51.624 14.28 51.72 14.568 51.792 14.808C52.008 15.48 52.104 15.792 52.368 15.792C52.512 15.792 52.632 15.624 52.68 15.528C52.776 15.288 52.776 15.24 53.232 15.072C53.424 15 53.688 14.904 54.096 14.76C54.192 14.712 54.216 14.712 54.312 14.712C54.6 14.712 54.696 14.952 54.72 15.192V18.408C54.72 19.608 54.744 20.016 53.688 20.016C53.472 20.016 53.28 19.992 53.064 19.992C52.992 19.968 52.872 19.968 52.776 19.968C52.344 19.968 52.248 20.256 52.248 20.616C52.248 22.488 52.752 22.44 53.592 22.44C55.44 22.44 57.168 22.224 57.168 19.968C57.168 19.416 57.12 18.864 57.12 18.336V14.184C57.12 13.68 57.264 13.512 57.696 13.272C59.736 12.408 59.688 12.312 59.688 11.76C59.688 11.4 59.64 10.248 59.136 10.248C58.992 10.248 58.464 10.512 58.056 10.68C57.912 10.752 57.672 10.896 57.504 10.896C57.144 10.896 57.144 10.56 57.12 10.44V8.112C57.12 7.632 57.312 7.44 57.792 7.44C58.344 7.416 58.896 7.488 59.448 7.488C60.024 7.488 60 7.128 60 6.336C60 5.52 60.024 5.184 59.448 5.184C58.896 5.184 58.344 5.256 57.792 5.232C57.312 5.208 57.12 5.04 57.12 4.584V4.416ZM84.6 12.912C83.832 12.096 83.16 11.184 82.56 10.224C82.512 10.128 82.488 10.08 82.488 9.984C82.488 9.768 82.704 9.696 82.872 9.672C83.424 9.672 83.976 9.72 84.504 9.72C85.008 9.72 84.96 9.36 84.96 8.544C84.96 7.728 85.008 7.368 84.504 7.368C84.024 7.368 83.376 7.44 82.728 7.416C82.272 7.416 82.104 7.224 82.056 6.744V4.656C82.104 4.128 82.2 3.984 82.68 3.792C82.896 3.696 83.832 3.36 83.976 3.36C84.024 3.36 84.096 3.384 84.144 3.408C84.288 3.48 84.336 3.504 84.504 3.48C84.552 3.48 84.576 3.48 84.6 3.552C84.576 3.672 84.576 3.744 84.576 3.84C84.576 4.8 84.552 5.04 85.08 5.04C85.944 5.04 86.808 4.992 87.672 4.992H94.992C95.832 4.992 96.696 5.04 97.56 5.04C98.088 5.04 98.064 4.776 98.064 4.008C98.064 3.24 98.088 2.976 97.56 2.976C96.696 2.976 95.832 3.048 94.992 3.048H93.072C92.64 3.048 92.424 2.88 92.424 2.4C92.448 2.16 92.472 2.04 92.688 1.896C92.832 1.8 93 1.728 93 1.536C93 1.32 92.784 1.248 92.592 1.224C92.28 1.176 90.744 1.08 90.408 1.08C90.192 1.08 89.904 1.08 89.904 1.368V1.584C89.952 1.848 89.976 2.112 89.976 2.4C89.976 2.856 89.76 3.048 89.328 3.048H87.672C86.808 3.048 85.968 2.976 85.104 2.976C85.032 2.976 84.984 3 84.888 3C84.768 3.024 84.672 3 84.6 2.88C84.456 2.568 83.76 0.983999 83.448 0.983999C83.328 0.983999 83.184 1.08 83.064 1.128C81.624 1.848 79.416 2.4 77.808 2.592C77.208 2.664 76.944 2.664 76.944 3.216C76.944 3.672 77.088 4.944 77.712 4.944C77.976 4.944 78.864 4.752 79.152 4.704C79.2 4.704 79.272 4.68 79.32 4.68C79.656 4.68 79.776 4.944 79.776 5.256V6.744C79.776 7.224 79.584 7.416 79.104 7.416C78.456 7.44 77.784 7.368 77.304 7.368C76.8 7.368 76.848 7.728 76.848 8.544C76.848 9.36 76.8 9.72 77.304 9.72C77.64 9.72 78.36 9.696 78.768 9.672C79.032 9.696 79.248 9.792 79.248 10.104C79.248 10.152 79.248 10.224 79.224 10.296C78.648 12.12 77.472 14.976 76.512 16.608C76.392 16.8 76.2 17.088 76.2 17.304C76.2 17.76 77.304 18.72 77.544 18.72C78.168 18.72 79.392 15.168 79.584 14.52C79.608 14.448 79.656 14.448 79.68 14.448C79.752 14.448 79.776 14.496 79.776 14.568V18.504C79.776 19.608 79.704 20.736 79.704 21.84C79.704 22.56 79.992 22.584 80.928 22.584C81.888 22.584 82.128 22.536 82.128 21.816C82.128 20.712 82.056 19.608 82.056 18.504V13.32C82.08 13.2 82.104 13.104 82.224 13.104C82.296 13.104 82.344 13.152 82.392 13.2C82.608 13.584 83.544 15.192 83.952 15.192C84.264 15.192 84.624 14.664 84.792 14.4C84.84 14.376 84.864 14.328 84.936 14.328C85.032 14.328 85.056 14.4 85.056 14.496V19.416C85.056 20.256 85.032 21.072 85.032 21.912C85.032 22.536 85.272 22.536 86.208 22.536C87.144 22.536 87.36 22.536 87.36 21.888C87.36 21.072 87.312 20.232 87.312 19.416V14.808C87.312 14.352 87.528 14.16 87.984 14.16H94.296C94.752 14.16 94.968 14.352 94.968 14.808V19.248C94.968 20.184 94.92 20.28 94.176 20.28C93.816 20.28 93.48 20.232 93.12 20.232C92.832 20.232 92.64 20.304 92.64 20.976C92.64 22.536 93.216 22.512 93.768 22.512C95.52 22.512 97.248 22.344 97.248 20.16V14.856C97.248 14.28 97.272 13.704 97.272 13.128C97.272 12.312 96.72 12.216 96.024 12.216C95.376 12.216 94.704 12.264 94.056 12.264H88.224C87.576 12.264 86.904 12.216 86.232 12.216C85.776 12.216 85.272 12.264 85.08 12.744C85.032 12.888 84.936 13.008 84.792 13.008C84.696 13.008 84.648 12.984 84.6 12.912ZM90.24 17.544C90.288 17.136 90.504 16.92 90.912 16.872H91.392C91.8 16.92 92.016 17.136 92.064 17.544V17.784C92.016 18.192 91.8 18.408 91.392 18.456H90.912C90.504 18.408 90.288 18.192 90.24 17.784V17.544ZM93.696 16.896C93.672 16.632 93.72 16.368 93.72 16.104C93.72 15.504 93.456 15.264 92.856 15.264C92.52 15.264 92.16 15.288 91.824 15.288H90.48C90.12 15.288 89.784 15.264 89.424 15.264C88.848 15.264 88.584 15.528 88.584 16.104C88.584 16.368 88.608 16.632 88.608 16.896V20.496C88.608 20.904 88.896 20.904 89.352 20.904C90.144 20.904 90.216 20.904 90.24 20.472C90.24 20.04 90.432 20.04 90.84 20.04H91.824C92.184 20.04 92.52 20.064 92.856 20.064C93.456 20.064 93.72 19.824 93.72 19.224C93.72 18.96 93.696 18.744 93.696 18.456V16.896ZM88.992 8.496C89.04 8.088 89.256 7.848 89.664 7.848H92.712C93.12 7.848 93.336 8.088 93.384 8.496V8.76C93.336 9.168 93.12 9.384 92.712 9.432H89.664C89.256 9.384 89.04 9.168 88.992 8.76V8.496ZM95.544 7.896C95.544 7.536 95.592 7.272 95.592 6.936C95.592 6.264 95.16 6.096 94.56 6.096C94.08 6.096 93.624 6.12 93.144 6.12H89.232C88.752 6.12 88.296 6.096 87.816 6.096C87.24 6.096 86.808 6.264 86.808 6.936C86.808 7.224 86.832 7.464 86.832 7.896V9.384C86.832 9.816 86.808 10.056 86.808 10.344C86.808 11.016 87.24 11.184 87.84 11.184C88.32 11.184 88.776 11.136 89.232 11.136H93.144C93.624 11.136 94.08 11.184 94.56 11.184C95.184 11.184 95.592 10.992 95.592 10.32C95.592 10.032 95.544 9.792 95.544 9.384V7.896Z" fill="black"/>
<path d="M5.0498 35.0273L2.81543 43H1.20312L4.13574 33.7578H5.13867L5.0498 35.0273ZM6.8335 43L4.59277 35.0273L4.48486 33.7578H5.50684L8.45215 43H6.8335ZM6.87158 39.5659V40.8608H2.56787V39.5659H6.87158ZM9.57721 33.7578H12.3702C12.9796 33.7578 13.4958 33.8636 13.919 34.0752C14.3422 34.2868 14.6638 34.5999 14.8838 35.0146C15.1081 35.4251 15.2203 35.9351 15.2203 36.5444C15.2203 37.0057 15.1504 37.4119 15.0108 37.7632C14.8754 38.1144 14.6786 38.4106 14.4205 38.6519C14.1623 38.8888 13.8513 39.0729 13.4874 39.2041L13.0367 39.4517H10.6754L10.669 38.1567H12.3321C12.6325 38.1567 12.8822 38.0911 13.0811 37.96C13.28 37.8288 13.4281 37.6468 13.5254 37.4141C13.627 37.1813 13.6778 36.9168 13.6778 36.6206C13.6778 36.3032 13.6334 36.0282 13.5445 35.7954C13.4556 35.5584 13.316 35.3765 13.1255 35.2495C12.9351 35.1183 12.6833 35.0527 12.3702 35.0527H11.1197V43H9.57721V33.7578ZM13.8809 43L12.1226 38.8486L13.7286 38.8423L15.5313 42.9175V43H13.8809ZM19.6461 33.7578V43H18.11V33.7578H19.6461ZM22.0011 33.7578V35.0527H15.7804V33.7578H22.0011ZM24.8908 33.7578V43H23.3483V33.7578H24.8908ZM31.2463 39.9849H32.7825C32.7528 40.6535 32.6174 41.2227 32.3762 41.6924C32.135 42.1579 31.788 42.5133 31.3352 42.7588C30.8866 43.0042 30.3386 43.127 29.6912 43.127C29.2003 43.127 28.7602 43.0381 28.3708 42.8604C27.9857 42.6826 27.6578 42.4266 27.387 42.0923C27.1161 41.7537 26.9088 41.3411 26.7649 40.8545C26.6252 40.3678 26.5554 39.8156 26.5554 39.1978V37.5601C26.5554 36.9422 26.6274 36.39 26.7712 35.9033C26.9193 35.4167 27.1309 35.0041 27.406 34.6655C27.6811 34.327 28.0154 34.071 28.4089 33.8975C28.8067 33.7197 29.2553 33.6309 29.7546 33.6309C30.3936 33.6309 30.9311 33.7536 31.3669 33.999C31.8028 34.2445 32.1392 34.6042 32.3762 35.0781C32.6132 35.5521 32.7507 36.1297 32.7888 36.811H31.2527C31.2315 36.3498 31.168 35.9816 31.0622 35.7065C30.9607 35.4272 30.8041 35.2262 30.5925 35.1035C30.3852 34.9808 30.1059 34.9194 29.7546 34.9194C29.4626 34.9194 29.2108 34.9744 28.9993 35.0845C28.7919 35.1945 28.6205 35.3595 28.4851 35.5796C28.3539 35.7954 28.2545 36.0684 28.1868 36.3984C28.1233 36.7243 28.0915 37.1073 28.0915 37.5474V39.1978C28.0915 39.6209 28.119 39.9954 28.1741 40.3213C28.2291 40.6471 28.3179 40.9243 28.4407 41.1528C28.5634 41.3771 28.7263 41.5485 28.9294 41.667C29.1326 41.7812 29.3865 41.8384 29.6912 41.8384C30.0551 41.8384 30.345 41.7812 30.5608 41.667C30.7808 41.5527 30.9438 41.3602 31.0496 41.0894C31.1553 40.8185 31.2209 40.4504 31.2463 39.9849ZM39.1824 41.7114V43H35.3421V41.7114H39.1824ZM35.7483 33.7578V43H34.2059V33.7578H35.7483ZM45.6268 41.7114V43H41.6151V41.7114H45.6268ZM42.0213 33.7578V43H40.4789V33.7578H42.0213ZM45.0873 37.6045V38.874H41.6151V37.6045H45.0873ZM45.5887 33.7578V35.0527H41.6151V33.7578H45.5887ZM50.9413 40.6133C50.9413 40.4229 50.9202 40.2536 50.8779 40.1055C50.8398 39.9531 50.7657 39.8156 50.6557 39.6929C50.5457 39.5701 50.3891 39.4495 50.186 39.3311C49.9871 39.2126 49.7289 39.092 49.4115 38.9692C49.0476 38.8296 48.707 38.6772 48.3896 38.5122C48.0764 38.3429 47.7992 38.1525 47.558 37.9409C47.3211 37.7251 47.1349 37.4733 46.9994 37.1855C46.864 36.8978 46.7963 36.5635 46.7963 36.1826C46.7963 35.806 46.8619 35.4632 46.9931 35.1543C47.1285 34.8411 47.3189 34.5724 47.5644 34.3481C47.8141 34.1196 48.1103 33.944 48.453 33.8213C48.7958 33.6943 49.1746 33.6309 49.5893 33.6309C50.186 33.6309 50.6959 33.7578 51.1191 34.0117C51.5465 34.2656 51.8723 34.6063 52.0966 35.0337C52.3251 35.4611 52.4394 35.9351 52.4394 36.4556H50.9032C50.9032 36.1551 50.8567 35.8885 50.7636 35.6558C50.6705 35.423 50.5266 35.241 50.332 35.1099C50.1373 34.9787 49.8855 34.9131 49.5766 34.9131C49.2931 34.9131 49.0582 34.9681 48.872 35.0781C48.69 35.1882 48.5546 35.3384 48.4657 35.5288C48.3811 35.7192 48.3388 35.9372 48.3388 36.1826C48.3388 36.3519 48.3748 36.5063 48.4467 36.646C48.5186 36.7814 48.6223 36.9062 48.7577 37.0205C48.8932 37.1348 49.0582 37.2427 49.2529 37.3442C49.4475 37.4458 49.6718 37.5431 49.9257 37.6362C50.3573 37.7928 50.734 37.9663 51.0556 38.1567C51.3772 38.3472 51.6417 38.5609 51.849 38.7979C52.0606 39.0306 52.2172 39.2951 52.3188 39.5913C52.4246 39.8875 52.4775 40.224 52.4775 40.6006C52.4775 40.9814 52.4119 41.3285 52.2807 41.6416C52.1537 41.9505 51.9675 42.215 51.7221 42.4351C51.4766 42.6551 51.1804 42.8265 50.8334 42.9492C50.4864 43.0677 50.0971 43.127 49.6655 43.127C49.2677 43.127 48.8847 43.0677 48.5165 42.9492C48.1526 42.8307 47.8267 42.6509 47.539 42.4097C47.2512 42.1642 47.0227 41.8574 46.8534 41.4893C46.6884 41.1211 46.6059 40.6895 46.6059 40.1943H48.1484C48.1484 40.4906 48.1843 40.7445 48.2563 40.9561C48.3282 41.1634 48.4319 41.3348 48.5673 41.4702C48.707 41.6014 48.8699 41.6987 49.0561 41.7622C49.2465 41.8215 49.4581 41.8511 49.6908 41.8511C49.9786 41.8511 50.2135 41.8003 50.3954 41.6987C50.5816 41.5929 50.7192 41.4469 50.808 41.2607C50.8969 41.0745 50.9413 40.8587 50.9413 40.6133Z" fill="#5F5F5F"/>
</svg>
