<svg width="198" height="87" viewBox="0 0 198 87" fill="none" xmlns="http://www.w3.org/2000/svg">
<path d="M12.048 15.456C12.048 15.12 11.52 13.728 11.376 13.344C10.752 11.76 10.608 11.328 9.888 11.328C9.216 11.328 6.672 11.856 6.672 12.672C6.672 12.816 6.816 13.152 6.864 13.344C7.152 14.16 7.344 14.688 7.488 15.168C7.968 16.656 8.016 16.752 8.832 16.752C9.456 16.752 10.416 16.512 10.992 16.32C11.472 16.176 12.048 16.032 12.048 15.456ZM34.128 21.84C35.088 21.84 35.472 22.272 35.472 23.184V38.304C35.472 40.08 35.328 41.904 35.328 43.68C35.328 45.12 35.904 45.168 37.872 45.168C39.888 45.168 40.416 45.12 40.416 43.68C40.416 41.904 40.272 40.08 40.272 38.304V23.184C40.272 22.32 40.608 21.936 41.52 21.888C42.384 21.888 43.2 21.984 44.016 21.984C45.264 21.984 45.216 21.36 45.216 19.632C45.216 17.952 45.264 17.28 44.016 17.28C42.72 17.28 41.136 17.376 39.6 17.376H32.784C31.824 17.376 31.44 16.992 31.44 16.032V12.528C31.44 10.128 31.536 9.888 33.264 9.696C36.048 9.408 39.744 8.496 42.432 7.68C42.624 7.632 42.816 7.584 43.008 7.584C43.296 7.584 43.584 7.632 43.824 7.728C44.064 7.776 44.304 7.872 44.544 7.872C44.88 7.872 45.216 7.728 45.216 7.296C45.216 6.72 44.256 5.76 43.92 5.28C43.488 4.656 42.432 3.12 41.76 3.12C41.52 3.12 41.424 3.168 41.232 3.264C38.976 4.464 32.496 5.76 29.856 6.048C27.264 6.336 26.64 6.576 26.64 8.592V21.6C26.64 28.56 25.584 35.424 21.12 41.04C20.88 41.328 20.448 41.808 20.448 42.24C20.448 43.152 23.376 44.352 24.192 44.352C24.624 44.352 24.912 44.112 25.152 43.776C26.256 42.336 27.216 40.656 27.984 38.976C30.336 33.936 31.248 28.656 31.44 23.136C31.488 22.224 31.872 21.84 32.784 21.84H34.128ZM16.272 5.616C16.272 4.752 16.272 4.224 16.8 3.84C17.088 3.6 17.376 3.456 17.376 3.168C17.376 2.784 16.992 2.64 16.128 2.544C15.36 2.448 12.624 2.208 12 2.208C11.568 2.208 11.184 2.304 11.184 2.832V3.264C11.328 3.984 11.376 4.848 11.376 5.568C11.328 6.528 10.944 6.864 10.032 6.864H9.216C7.824 6.864 6.48 6.768 5.088 6.768C3.888 6.768 3.936 7.44 3.936 8.88C3.936 10.32 3.888 10.992 5.088 10.992C6.48 10.992 7.824 10.896 9.216 10.896H18.624C20.016 10.896 21.36 10.992 22.752 10.992C23.904 10.992 23.904 10.368 23.904 8.88C23.904 7.392 23.904 6.768 22.752 6.768C21.36 6.768 20.016 6.864 18.624 6.864H17.616C16.704 6.864 16.32 6.528 16.272 5.616ZM9.36 30.384C7.968 32.928 5.952 35.904 3.936 37.968C3.648 38.256 3.36 38.448 3.36 38.88C3.36 39.84 5.76 41.712 6.528 41.712C7.44 41.712 10.32 36.816 10.896 35.856C10.944 35.76 11.04 35.712 11.184 35.712C11.424 35.712 11.472 35.904 11.52 36.096V38.448C11.52 40.224 11.376 42.048 11.376 43.824C11.376 45.168 11.904 45.168 13.824 45.168C15.744 45.168 16.224 45.168 16.224 43.824C16.224 42 16.128 40.224 16.128 38.448V35.328C16.128 35.088 16.224 34.848 16.464 34.848C16.608 34.848 16.704 34.944 16.848 35.04C17.28 35.664 18.96 38.112 19.68 38.112C20.544 38.112 22.224 35.856 22.224 35.04C22.224 34.704 22.032 34.56 21.792 34.368C20.4 33.12 19.152 31.728 18 30.24C17.904 30.096 17.856 30 17.856 29.808C17.856 29.376 18.192 29.232 18.576 29.232C19.872 29.232 21.216 29.328 22.56 29.328C23.76 29.328 23.712 28.704 23.712 27.12C23.712 25.536 23.76 24.864 22.56 24.864C21.024 24.864 19.488 25.008 17.904 25.008H17.472C16.8 25.008 16.176 24.672 16.176 23.904C16.176 23.568 16.32 23.328 16.608 23.136C16.944 22.896 17.136 22.8 17.136 22.512C17.136 21.984 16.368 21.936 15.984 21.936C15.12 21.888 12.96 21.744 12.144 21.744C11.808 21.744 11.328 21.744 11.328 22.32C11.328 22.464 11.328 22.656 11.376 22.752C11.424 23.04 11.472 23.472 11.472 23.76C11.472 24.624 10.992 25.008 10.176 25.008H9.552C7.968 25.008 6.432 24.864 4.896 24.864C3.696 24.864 3.744 25.44 3.744 27.12C3.744 28.752 3.696 29.328 4.896 29.328C5.904 29.328 7.584 29.232 8.64 29.232C9.072 29.28 9.456 29.424 9.456 29.904C9.456 30.096 9.408 30.192 9.36 30.384ZM8.832 17.136C7.152 17.136 5.472 17.04 3.792 17.04C2.592 17.04 2.592 17.616 2.592 19.152C2.592 20.64 2.544 21.264 3.792 21.264C5.472 21.264 7.152 21.168 8.832 21.168H18.768C20.4 21.168 22.08 21.264 23.76 21.264C25.008 21.264 24.96 20.736 24.96 19.152C24.96 17.664 25.008 17.04 23.808 17.04C23.52 17.04 20.928 17.136 20.592 17.136C20.112 17.088 19.728 16.944 19.728 16.416C19.728 16.128 20.496 14.448 20.64 14.112C20.736 13.824 20.976 13.584 21.312 13.488C21.552 13.392 21.936 13.248 21.936 12.912C21.936 12.24 18.288 11.28 17.616 11.28C17.184 11.28 17.136 11.616 17.04 11.952C16.56 13.536 16.128 14.64 15.408 16.08C14.928 16.944 14.496 17.136 13.536 17.136H8.832ZM82.848 37.776C83.424 37.776 83.76 38.16 83.76 38.688V38.976C83.76 39.504 83.424 39.888 82.848 39.888H68.16C67.584 39.888 67.296 39.504 67.248 38.976V38.688C67.296 38.16 67.584 37.776 68.16 37.776H82.848ZM82.848 32.592C83.424 32.592 83.76 32.976 83.76 33.504V33.792C83.76 34.368 83.424 34.704 82.848 34.704H68.16C67.584 34.704 67.248 34.368 67.248 33.792V33.504C67.296 32.976 67.584 32.592 68.16 32.592H82.848ZM68.16 29.664C67.584 29.664 67.248 29.328 67.248 28.752V28.56C67.248 27.984 67.584 27.6 68.16 27.6H82.848C83.424 27.6 83.76 27.984 83.76 28.56V28.752C83.76 29.328 83.424 29.664 82.848 29.664H68.16ZM83.664 43.872C83.712 45.024 83.904 45.12 86.256 45.12C88.224 45.12 88.8 45.12 88.8 44.016C88.8 42.72 88.704 41.472 88.704 40.176V30.144C88.704 28.896 88.752 27.648 88.752 26.4C88.752 24.768 88.08 24.288 86.544 24.288C85.2 24.288 83.856 24.336 82.512 24.336H68.784C68.304 24.336 67.872 24.144 67.872 23.616C67.872 23.472 67.92 23.328 67.968 23.184C68.16 22.704 68.544 22.272 69.264 22.272H88.368C90.192 22.272 92.064 22.368 93.936 22.368C94.944 22.368 94.896 21.888 94.896 20.592C94.896 19.248 94.944 18.768 93.936 18.768C92.064 18.768 90.192 18.864 88.368 18.864H77.328C76.512 18.864 76.176 18.528 76.176 17.712V17.568C76.176 16.752 76.512 16.416 77.328 16.416H83.712C85.488 16.416 87.216 16.512 88.992 16.512C89.904 16.512 89.904 15.984 89.904 14.784C89.904 13.536 89.904 13.056 88.944 13.056C87.216 13.056 85.488 13.152 83.712 13.152H77.088C76.416 13.152 76.176 12.912 76.176 12.24V11.76C76.176 11.136 76.464 10.896 77.088 10.896H86.976C88.8 10.896 90.672 10.992 92.544 10.992C93.504 10.992 93.504 10.416 93.504 9.168C93.504 7.824 93.504 7.344 92.496 7.344C90.624 7.344 88.8 7.44 86.976 7.44H84.384C84 7.392 83.616 7.296 83.616 6.816C83.616 6.624 83.664 6.528 83.76 6.336C84.096 5.808 84.384 5.232 84.768 4.704C84.912 4.464 85.104 4.32 85.392 4.272C85.728 4.224 86.352 4.128 86.352 3.696C86.352 3.264 84.912 2.736 84.192 2.496C83.424 2.256 81.744 1.488 81.168 1.488C80.736 1.488 80.592 1.824 80.496 2.208C79.968 3.552 79.104 5.184 78.336 6.432C77.808 7.296 77.328 7.44 76.416 7.44H68.016C67.872 7.44 67.776 7.392 67.776 7.248C67.776 7.152 67.872 7.104 67.92 7.056C68.352 6.864 69.216 6.48 69.216 5.952C69.216 5.472 67.68 3.408 67.296 2.976C66.864 2.4 66.192 1.536 65.472 1.536C64.848 1.536 61.968 2.448 61.968 3.312C61.968 3.552 62.16 3.792 62.352 3.984C63.072 4.896 63.552 5.472 64.176 6.384C64.272 6.528 64.32 6.672 64.32 6.816C64.32 7.296 63.936 7.44 63.552 7.44H60.48C58.608 7.44 56.784 7.344 54.912 7.344C53.952 7.344 53.952 7.872 53.952 9.168C53.952 10.368 53.904 10.992 54.912 10.992C56.784 10.992 58.608 10.896 60.48 10.896H70.224C70.848 10.896 71.088 11.136 71.088 11.808V12.24C71.088 12.912 70.848 13.152 70.176 13.152H63.6C61.872 13.152 60.144 13.056 58.368 13.056C57.456 13.056 57.456 13.632 57.456 14.784C57.456 15.936 57.408 16.512 58.368 16.512C60.144 16.512 61.872 16.416 63.6 16.416H69.984C70.752 16.416 71.088 16.752 71.088 17.568V17.712C71.088 18.528 70.752 18.864 69.984 18.864H59.088C57.264 18.864 55.392 18.768 53.52 18.768C52.56 18.768 52.56 19.2 52.56 20.592C52.56 21.936 52.56 22.368 53.52 22.368C55.392 22.368 57.264 22.272 59.088 22.272H61.872C62.304 22.32 62.736 22.464 62.736 22.992C62.736 23.136 62.688 23.28 62.64 23.424C60 28.032 57.024 31.488 52.752 34.656C52.416 34.896 52.032 35.184 52.032 35.616C52.032 36.768 54.24 38.448 55.344 38.448C56.4 38.448 60.624 34.128 61.488 33.168C61.584 33.024 61.728 32.928 61.872 32.928C62.208 32.928 62.304 33.216 62.352 33.504V40.08C62.352 41.328 62.256 42.624 62.256 43.872C62.256 44.976 62.784 45.024 64.848 45.024C66.96 45.024 67.296 44.928 67.344 43.92C67.392 43.296 67.68 43.2 68.064 43.2H82.944C83.28 43.2 83.664 43.248 83.664 43.872ZM127.248 9.168C127.296 8.256 127.68 7.92 128.592 7.92H130.512C131.472 7.92 131.856 8.304 131.856 9.264V13.392C131.856 14.4 131.808 15.456 131.808 16.512C131.808 19.2 133.2 20.016 135.744 20.016H139.44C142.032 20.016 143.04 19.536 143.952 16.848C144.432 15.456 144.864 13.488 144.864 12.048C144.864 10.752 142.608 10.512 141.648 10.512C140.592 10.512 140.4 10.896 140.352 11.568C140.208 15.648 139.44 15.6 138.768 15.6H137.568C136.368 15.6 136.368 14.928 136.368 13.44V8.256C136.368 7.44 136.416 6.672 136.416 5.856C136.416 4.176 136.08 3.552 134.208 3.552C133.488 3.552 132.816 3.6 132.144 3.6H126.768C126.096 3.6 125.376 3.552 124.656 3.552C122.88 3.552 122.736 4.368 122.736 5.952V6.528C122.736 10.992 122.4 14.592 119.136 18.048C118.896 18.288 118.272 18.864 118.272 19.2C118.272 20.16 120.768 22.032 121.488 22.032C122.736 22.032 125.232 17.76 125.712 16.656C126.912 14.112 127.104 11.904 127.248 9.168ZM131.424 31.68C131.184 31.92 130.944 32.112 130.608 32.112C130.224 32.112 129.984 31.92 129.744 31.632C128.976 30.72 128.304 29.664 127.728 28.608C127.632 28.464 127.584 28.368 127.584 28.176C127.584 27.648 128.016 27.504 128.448 27.456H132.816C133.632 27.456 134.112 27.504 134.112 27.936C134.112 28.656 132 31.056 131.424 31.68ZM129.36 39.312C129.696 39.12 129.984 38.976 130.368 38.976C130.8 38.976 131.136 39.12 131.424 39.36C134.064 41.28 137.52 43.104 140.544 44.352C140.976 44.544 141.984 44.928 142.416 44.928C143.616 44.928 144.912 42.288 144.912 41.376C144.912 40.704 144.144 40.56 143.664 40.416C140.688 39.504 137.568 38.16 135.024 36.384C134.736 36.192 134.544 35.952 134.544 35.568C134.544 35.184 134.688 34.992 134.88 34.752C136.56 33.072 138.384 30.768 139.536 28.704C139.872 28.128 140.64 26.736 140.64 26.064C140.64 25.392 139.44 22.992 137.328 22.992C135.984 22.992 134.64 23.04 133.296 23.04H125.952C124.272 23.04 122.592 22.896 120.864 22.896C119.712 22.896 119.712 23.376 119.712 25.248C119.712 26.976 119.664 27.552 120.816 27.552H121.632C122.208 27.552 122.496 28.032 122.736 28.512C123.792 30.816 124.608 32.496 126.192 34.464C126.384 34.752 126.48 34.944 126.48 35.28C126.48 35.712 126.24 35.904 125.904 36.144C123.264 37.872 119.424 39.264 116.4 40.272C115.968 40.416 115.536 40.608 115.536 41.136C115.536 41.856 116.88 44.688 118.032 44.688C118.656 44.688 119.712 44.256 120.288 44.016C123.456 42.72 126.528 41.232 129.36 39.312ZM113.28 8.832C113.28 7.488 113.28 6 113.328 4.704C113.328 4.224 113.328 3.744 113.76 3.456C114.048 3.264 114.432 3.12 114.432 2.784C114.432 2.256 113.568 2.208 113.184 2.208C112.32 2.16 110.016 2.016 109.2 2.016C108.672 2.016 108.288 2.112 108.288 2.736V3.168C108.48 4.512 108.48 5.856 108.48 7.2V9.168C108.48 10.08 108.048 10.464 107.136 10.464C105.84 10.512 104.592 10.368 103.584 10.368C102.48 10.368 102.48 10.992 102.48 12.672C102.48 14.304 102.432 14.976 103.584 14.976C104.64 14.976 105.936 14.832 107.136 14.88C108.048 14.88 108.48 15.264 108.48 16.224V22.8C108.384 23.808 108.24 24.192 107.28 24.576C105.888 25.152 104.4 25.584 102.96 25.968C102.48 26.112 101.76 26.208 101.76 26.784C101.76 27.12 101.952 27.6 102.048 27.888C102.288 28.56 102.48 29.136 102.624 29.616C103.056 30.96 103.248 31.584 103.776 31.584C104.064 31.584 104.304 31.248 104.4 31.056C104.592 30.576 104.592 30.48 105.504 30.144C105.888 30 106.416 29.808 107.232 29.52C107.424 29.424 107.472 29.424 107.664 29.424C108.24 29.424 108.432 29.904 108.48 30.384V36.816C108.48 39.216 108.528 40.032 106.416 40.032C105.984 40.032 105.6 39.984 105.168 39.984C105.024 39.936 104.784 39.936 104.592 39.936C103.728 39.936 103.536 40.512 103.536 41.232C103.536 44.976 104.544 44.88 106.224 44.88C109.92 44.88 113.376 44.448 113.376 39.936C113.376 38.832 113.28 37.728 113.28 36.672V28.368C113.28 27.36 113.568 27.024 114.432 26.544C118.512 24.816 118.416 24.624 118.416 23.52C118.416 22.8 118.32 20.496 117.312 20.496C117.024 20.496 115.968 21.024 115.152 21.36C114.864 21.504 114.384 21.792 114.048 21.792C113.328 21.792 113.328 21.12 113.28 20.88V16.224C113.28 15.264 113.664 14.88 114.624 14.88C115.728 14.832 116.832 14.976 117.936 14.976C119.088 14.976 119.04 14.256 119.04 12.672C119.04 11.04 119.088 10.368 117.936 10.368C116.832 10.368 115.728 10.512 114.624 10.464C113.664 10.416 113.28 10.08 113.28 9.168V8.832ZM167.76 25.824C166.224 24.192 164.88 22.368 163.68 20.448C163.584 20.256 163.536 20.16 163.536 19.968C163.536 19.536 163.968 19.392 164.304 19.344C165.408 19.344 166.512 19.44 167.568 19.44C168.576 19.44 168.48 18.72 168.48 17.088C168.48 15.456 168.576 14.736 167.568 14.736C166.608 14.736 165.312 14.88 164.016 14.832C163.104 14.832 162.768 14.448 162.672 13.488V9.312C162.768 8.256 162.96 7.968 163.92 7.584C164.352 7.392 166.224 6.72 166.512 6.72C166.608 6.72 166.752 6.768 166.848 6.816C167.136 6.96 167.232 7.008 167.568 6.96C167.664 6.96 167.712 6.96 167.76 7.104C167.712 7.344 167.712 7.488 167.712 7.68C167.712 9.6 167.664 10.08 168.72 10.08C170.448 10.08 172.176 9.984 173.904 9.984H188.544C190.224 9.984 191.952 10.08 193.68 10.08C194.736 10.08 194.688 9.552 194.688 8.016C194.688 6.48 194.736 5.952 193.68 5.952C191.952 5.952 190.224 6.096 188.544 6.096H184.704C183.84 6.096 183.408 5.76 183.408 4.8C183.456 4.32 183.504 4.08 183.936 3.792C184.224 3.6 184.56 3.456 184.56 3.072C184.56 2.64 184.128 2.496 183.744 2.448C183.12 2.352 180.048 2.16 179.376 2.16C178.944 2.16 178.368 2.16 178.368 2.736V3.168C178.464 3.696 178.512 4.224 178.512 4.8C178.512 5.712 178.08 6.096 177.216 6.096H173.904C172.176 6.096 170.496 5.952 168.768 5.952C168.624 5.952 168.528 6 168.336 6C168.096 6.048 167.904 6 167.76 5.76C167.472 5.136 166.08 1.968 165.456 1.968C165.216 1.968 164.928 2.16 164.688 2.256C161.808 3.696 157.392 4.8 154.176 5.184C152.976 5.328 152.448 5.328 152.448 6.432C152.448 7.344 152.736 9.888 153.984 9.888C154.512 9.888 156.288 9.504 156.864 9.408C156.96 9.408 157.104 9.36 157.2 9.36C157.872 9.36 158.112 9.888 158.112 10.512V13.488C158.112 14.448 157.728 14.832 156.768 14.832C155.472 14.88 154.128 14.736 153.168 14.736C152.16 14.736 152.256 15.456 152.256 17.088C152.256 18.72 152.16 19.44 153.168 19.44C153.84 19.44 155.28 19.392 156.096 19.344C156.624 19.392 157.056 19.584 157.056 20.208C157.056 20.304 157.056 20.448 157.008 20.592C155.856 24.24 153.504 29.952 151.584 33.216C151.344 33.6 150.96 34.176 150.96 34.608C150.96 35.52 153.168 37.44 153.648 37.44C154.896 37.44 157.344 30.336 157.728 29.04C157.776 28.896 157.872 28.896 157.92 28.896C158.064 28.896 158.112 28.992 158.112 29.136V37.008C158.112 39.216 157.968 41.472 157.968 43.68C157.968 45.12 158.544 45.168 160.416 45.168C162.336 45.168 162.816 45.072 162.816 43.632C162.816 41.424 162.672 39.216 162.672 37.008V26.64C162.72 26.4 162.768 26.208 163.008 26.208C163.152 26.208 163.248 26.304 163.344 26.4C163.776 27.168 165.648 30.384 166.464 30.384C167.088 30.384 167.808 29.328 168.144 28.8C168.24 28.752 168.288 28.656 168.432 28.656C168.624 28.656 168.672 28.8 168.672 28.992V38.832C168.672 40.512 168.624 42.144 168.624 43.824C168.624 45.072 169.104 45.072 170.976 45.072C172.848 45.072 173.28 45.072 173.28 43.776C173.28 42.144 173.184 40.464 173.184 38.832V29.616C173.184 28.704 173.616 28.32 174.528 28.32H187.152C188.064 28.32 188.496 28.704 188.496 29.616V38.496C188.496 40.368 188.4 40.56 186.912 40.56C186.192 40.56 185.52 40.464 184.8 40.464C184.224 40.464 183.84 40.608 183.84 41.952C183.84 45.072 184.992 45.024 186.096 45.024C189.6 45.024 193.056 44.688 193.056 40.32V29.712C193.056 28.56 193.104 27.408 193.104 26.256C193.104 24.624 192 24.432 190.608 24.432C189.312 24.432 187.968 24.528 186.672 24.528H175.008C173.712 24.528 172.368 24.432 171.024 24.432C170.112 24.432 169.104 24.528 168.72 25.488C168.624 25.776 168.432 26.016 168.144 26.016C167.952 26.016 167.856 25.968 167.76 25.824ZM179.04 35.088C179.136 34.272 179.568 33.84 180.384 33.744H181.344C182.16 33.84 182.592 34.272 182.688 35.088V35.568C182.592 36.384 182.16 36.816 181.344 36.912H180.384C179.568 36.816 179.136 36.384 179.04 35.568V35.088ZM185.952 33.792C185.904 33.264 186 32.736 186 32.208C186 31.008 185.472 30.528 184.272 30.528C183.6 30.528 182.88 30.576 182.208 30.576H179.52C178.8 30.576 178.128 30.528 177.408 30.528C176.256 30.528 175.728 31.056 175.728 32.208C175.728 32.736 175.776 33.264 175.776 33.792V40.992C175.776 41.808 176.352 41.808 177.264 41.808C178.848 41.808 178.992 41.808 179.04 40.944C179.04 40.08 179.424 40.08 180.24 40.08H182.208C182.928 40.08 183.6 40.128 184.272 40.128C185.472 40.128 186 39.648 186 38.448C186 37.92 185.952 37.488 185.952 36.912V33.792ZM176.544 16.992C176.64 16.176 177.072 15.696 177.888 15.696H183.984C184.8 15.696 185.232 16.176 185.328 16.992V17.52C185.232 18.336 184.8 18.768 183.984 18.864H177.888C177.072 18.768 176.64 18.336 176.544 17.52V16.992ZM189.648 15.792C189.648 15.072 189.744 14.544 189.744 13.872C189.744 12.528 188.88 12.192 187.68 12.192C186.72 12.192 185.808 12.24 184.848 12.24H177.024C176.064 12.24 175.152 12.192 174.192 12.192C173.04 12.192 172.176 12.528 172.176 13.872C172.176 14.448 172.224 14.928 172.224 15.792V18.768C172.224 19.632 172.176 20.112 172.176 20.688C172.176 22.032 173.04 22.368 174.24 22.368C175.2 22.368 176.112 22.272 177.024 22.272H184.848C185.808 22.272 186.72 22.368 187.68 22.368C188.928 22.368 189.744 21.984 189.744 20.64C189.744 20.064 189.648 19.584 189.648 18.768V15.792Z" fill="black"/>
<path d="M15.8184 66.6484L11.5391 83H7.31445L13.5352 63.0938H16.1738L15.8184 66.6484ZM19.1953 83L14.8887 66.6484L14.4922 63.0938H17.1719L23.4473 83H19.1953ZM19.3457 75.5762V78.8984H10.3633V75.5762H19.3457ZM25.3613 63.0938H31.7461C33.0768 63.0938 34.2116 63.3216 35.1504 63.7773C36.0892 64.2331 36.8092 64.9076 37.3105 65.8008C37.8118 66.694 38.0625 67.7969 38.0625 69.1094C38.0625 70.1849 37.9167 71.1055 37.625 71.8711C37.3333 72.6276 36.9186 73.2611 36.3809 73.7715C35.8431 74.2728 35.2005 74.6738 34.4531 74.9746L33.2363 75.6992H28.0547L28.041 72.377H31.6367C32.1836 72.377 32.6348 72.2585 32.9902 72.0215C33.3548 71.7754 33.6237 71.4336 33.7969 70.9961C33.9792 70.5495 34.0703 70.0299 34.0703 69.4375C34.0703 68.8086 33.9883 68.2708 33.8242 67.8242C33.6693 67.3685 33.4186 67.0221 33.0723 66.7852C32.735 66.5391 32.293 66.416 31.7461 66.416H29.3672V83H25.3613V63.0938ZM34.3984 83L30.748 74.127L34.9453 74.1133L38.6777 82.8086V83H34.3984ZM48.0703 63.0938V83H44.0918V63.0938H48.0703ZM53.0195 63.0938V66.416H39.2383V63.0938H53.0195ZM59.5 63.0938V83H55.5215V63.0938H59.5ZM72.4062 76.3691H76.3848C76.3301 77.8639 76.0293 79.1263 75.4824 80.1562C74.9355 81.1771 74.1562 81.9518 73.1445 82.4805C72.1419 83.0091 70.9297 83.2734 69.5078 83.2734C68.4049 83.2734 67.4251 83.0911 66.5684 82.7266C65.7116 82.3529 64.9824 81.806 64.3809 81.0859C63.7793 80.3659 63.3236 79.4772 63.0137 78.4199C62.7129 77.3535 62.5625 76.1276 62.5625 74.7422V71.3652C62.5625 69.9798 62.722 68.7539 63.041 67.6875C63.3691 66.6211 63.834 65.7279 64.4355 65.0078C65.0462 64.2786 65.7799 63.7318 66.6367 63.3672C67.5026 62.9935 68.4779 62.8066 69.5625 62.8066C71.0117 62.8066 72.224 63.0801 73.1992 63.627C74.1745 64.1738 74.9264 64.9714 75.4551 66.0195C75.9928 67.0586 76.3164 68.3301 76.4258 69.834H72.4336C72.4062 68.8861 72.2969 68.1432 72.1055 67.6055C71.9232 67.0586 71.6315 66.6758 71.2305 66.457C70.8294 66.2292 70.2734 66.1152 69.5625 66.1152C69.0339 66.1152 68.5781 66.2109 68.1953 66.4023C67.8125 66.5846 67.498 66.8809 67.252 67.291C67.0059 67.7012 66.8236 68.2389 66.7051 68.9043C66.5957 69.5697 66.541 70.3809 66.541 71.3379V74.7422C66.541 75.681 66.5911 76.4831 66.6914 77.1484C66.7917 77.8047 66.9512 78.3424 67.1699 78.7617C67.3887 79.181 67.6849 79.4863 68.0586 79.6777C68.4414 79.8691 68.9245 79.9648 69.5078 79.9648C70.1823 79.9648 70.7246 79.8646 71.1348 79.6641C71.554 79.4635 71.8639 79.1035 72.0645 78.584C72.265 78.0645 72.3789 77.3262 72.4062 76.3691ZM89.9336 79.6914V83H81.6621V79.6914H89.9336ZM82.8926 63.0938V83H78.8867V63.0938H82.8926ZM103.701 79.6914V83H95.0469V79.6914H103.701ZM96.291 63.0938V83H92.2852V63.0938H96.291ZM102.539 71.1602V74.373H95.0469V71.1602H102.539ZM103.674 63.0938V66.416H95.0469V63.0938H103.674ZM114.461 77.7637C114.461 77.4082 114.429 77.0846 114.365 76.793C114.301 76.5013 114.165 76.2324 113.955 75.9863C113.755 75.7402 113.458 75.4941 113.066 75.248C112.684 75.002 112.182 74.7467 111.562 74.4824C110.824 74.1725 110.109 73.8444 109.416 73.498C108.723 73.1426 108.099 72.7324 107.543 72.2676C106.987 71.8027 106.545 71.2559 106.217 70.627C105.898 69.9889 105.738 69.2415 105.738 68.3848C105.738 67.5462 105.889 66.7852 106.189 66.1016C106.499 65.418 106.937 64.8346 107.502 64.3516C108.067 63.8594 108.728 63.4811 109.484 63.2168C110.25 62.9525 111.102 62.8203 112.041 62.8203C113.317 62.8203 114.42 63.0846 115.35 63.6133C116.288 64.1419 117.013 64.8665 117.523 65.7871C118.043 66.7077 118.303 67.765 118.303 68.959H114.311C114.311 68.3939 114.229 67.8971 114.064 67.4688C113.91 67.0312 113.659 66.6895 113.312 66.4434C112.966 66.1973 112.52 66.0742 111.973 66.0742C111.462 66.0742 111.038 66.179 110.701 66.3887C110.373 66.5892 110.127 66.8672 109.963 67.2227C109.808 67.569 109.73 67.9609 109.73 68.3984C109.73 68.7266 109.808 69.0228 109.963 69.2871C110.127 69.5423 110.35 69.7747 110.633 69.9844C110.915 70.1849 111.248 70.3809 111.631 70.5723C112.023 70.7637 112.451 70.9505 112.916 71.1328C113.818 71.4883 114.616 71.8802 115.309 72.3086C116.001 72.7279 116.58 73.2018 117.045 73.7305C117.51 74.25 117.861 74.8379 118.098 75.4941C118.335 76.1504 118.453 76.8978 118.453 77.7363C118.453 78.5658 118.307 79.3223 118.016 80.0059C117.733 80.6803 117.318 81.2637 116.771 81.7559C116.225 82.2389 115.564 82.6126 114.789 82.877C114.023 83.1413 113.167 83.2734 112.219 83.2734C111.298 83.2734 110.428 83.1458 109.607 82.8906C108.787 82.6263 108.062 82.2298 107.434 81.7012C106.814 81.1634 106.326 80.4844 105.971 79.6641C105.615 78.8346 105.438 77.8548 105.438 76.7246H109.443C109.443 77.3262 109.503 77.8411 109.621 78.2695C109.74 78.6888 109.922 79.026 110.168 79.2812C110.414 79.5273 110.715 79.7142 111.07 79.8418C111.435 79.9603 111.85 80.0195 112.314 80.0195C112.843 80.0195 113.262 79.9193 113.572 79.7188C113.891 79.5182 114.119 79.2493 114.256 78.9121C114.393 78.5749 114.461 78.1921 114.461 77.7637Z" fill="black"/>
</svg>
