<svg width="247" height="87" viewBox="0 0 247 87" fill="none" xmlns="http://www.w3.org/2000/svg">
<path d="M15.792 10.848C14.4 10.848 13.008 10.848 11.616 10.8C10.944 10.8 10.272 10.704 9.552 10.704C8.688 10.704 8.496 11.088 8.496 13.008C8.496 15.408 8.592 16.08 9.648 16.08C10.848 16.08 13.776 15.936 15.84 15.936H32.4C33.216 15.936 33.84 16.56 33.84 17.376V30.96C33.84 31.728 33.216 32.4 32.4 32.4H15.84C13.536 32.4 10.752 32.256 9.6 32.256C8.448 32.256 8.544 32.88 8.544 34.8C8.544 36.912 8.496 37.584 9.696 37.584C10.944 37.584 13.776 37.488 15.888 37.488H31.488C32.928 37.488 33.552 37.488 33.792 38.592C33.984 39.504 34.032 39.6 36.24 39.6C38.832 39.6 39.12 39.6 39.12 38.112C39.12 36.672 39.072 35.184 39.072 33.744V17.568C39.072 16.128 39.12 14.688 39.12 13.248C39.12 10.992 37.872 10.8 35.952 10.8C34.704 10.8 33.504 10.848 32.256 10.848H15.792ZM90.96 14.256C90.624 14.256 90.336 14.544 90.144 14.784C83.328 23.472 71.328 32.544 60.72 35.664C60.096 35.856 59.232 35.952 59.232 36.48C59.232 36.96 60.384 38.88 60.672 39.36C61.008 39.936 62.016 41.856 62.544 41.856C62.784 41.856 62.928 41.76 63.024 41.568C63.408 40.752 63.456 40.704 65.04 39.936C75.168 35.232 83.328 29.856 91.104 21.84C91.728 21.216 93.648 19.344 93.648 18.528C93.648 17.808 91.92 14.256 90.96 14.256ZM62.592 6.576C61.488 6.576 59.568 9.648 59.568 10.368C59.568 10.8 59.952 11.04 60.336 11.28C62.064 12.336 65.376 14.544 66.72 15.744C67.344 16.32 68.256 17.04 68.64 17.04C69.552 17.04 71.808 14.448 71.808 13.344C71.808 12.624 69.504 11.04 68.88 10.608C67.968 9.936 63.36 6.576 62.592 6.576ZM111.264 19.152C109.248 19.152 107.232 19.008 105.168 19.008C104.112 19.008 103.968 19.536 103.968 21.744C103.968 23.472 104.016 24.192 105.264 24.192C107.28 24.192 109.296 24.096 111.264 24.096H121.008C121.632 24.096 122.16 24.576 122.16 25.2C122.16 25.584 121.824 27.12 121.728 27.552C120.912 31.008 118.752 34.416 115.68 36.288C113.856 37.44 111.744 38.208 109.68 38.784C109.248 38.88 108.336 39.072 108.336 39.6C108.336 40.416 110.976 43.584 112.032 43.584C112.944 43.584 116.112 41.952 117.024 41.472C123.072 38.16 126.336 33.12 127.392 26.352C127.536 25.344 127.584 24.096 128.928 24.096H135.216C137.28 24.096 139.344 24.192 141.456 24.192C142.752 24.192 142.752 23.28 142.752 21.648C142.752 19.392 142.8 19.008 141.312 19.008C139.248 19.008 137.232 19.152 135.216 19.152H111.264ZM117.792 6.576C115.68 6.576 113.616 6.48 111.552 6.48C110.304 6.48 110.256 7.008 110.256 9.024C110.256 10.848 110.112 11.616 111.552 11.616C113.568 11.616 115.632 11.52 117.696 11.52H128.16C130.224 11.52 132.288 11.616 134.304 11.616C135.648 11.616 135.6 10.944 135.6 9.456C135.6 7.104 135.648 6.48 134.352 6.48C132.24 6.48 130.176 6.576 128.112 6.576H117.792ZM190.32 14.256C189.984 14.256 189.696 14.544 189.504 14.784C182.688 23.472 170.688 32.544 160.08 35.664C159.456 35.856 158.592 35.952 158.592 36.48C158.592 36.96 159.744 38.88 160.032 39.36C160.368 39.936 161.376 41.856 161.904 41.856C162.144 41.856 162.288 41.76 162.384 41.568C162.768 40.752 162.816 40.704 164.4 39.936C174.528 35.232 182.688 29.856 190.464 21.84C191.088 21.216 193.008 19.344 193.008 18.528C193.008 17.808 191.28 14.256 190.32 14.256ZM161.952 6.576C160.848 6.576 158.928 9.648 158.928 10.368C158.928 10.8 159.312 11.04 159.696 11.28C161.424 12.336 164.736 14.544 166.08 15.744C166.704 16.32 167.616 17.04 168 17.04C168.912 17.04 171.168 14.448 171.168 13.344C171.168 12.624 168.864 11.04 168.24 10.608C167.328 9.936 162.72 6.576 161.952 6.576ZM235.488 9.024C235.104 9.024 235.056 9.456 235.008 9.792C234.768 12.384 233.712 15.936 232.8 18.336C228.864 28.56 222 34.752 211.392 37.392C210.816 37.536 209.376 37.68 209.376 38.496C209.376 39.264 211.584 42.48 212.544 42.48C212.88 42.48 213.312 42.336 213.6 42.24C218.784 40.656 223.344 38.544 227.472 34.992C234.24 29.184 237.504 21.888 239.856 13.44C240.048 12.816 240.24 12.576 240.768 12.192C240.96 12.048 241.296 11.856 241.296 11.52C241.296 10.992 240.048 10.608 239.472 10.416C238.848 10.176 235.968 9.024 235.488 9.024ZM220.56 7.824C219.84 7.824 216.912 9.264 216.912 10.032C216.912 10.32 217.248 10.8 217.44 11.04C219.12 13.44 220.416 15.744 221.76 18.336C222.144 19.008 222.336 19.536 222.864 19.536C223.536 19.536 226.752 18.096 226.752 17.136C226.752 16.416 224.544 13.008 224.064 12.24C223.296 10.992 222.48 9.744 221.568 8.544C221.328 8.208 221.04 7.824 220.56 7.824ZM208.464 11.28C207.744 11.28 204.816 12.72 204.816 13.536C204.816 13.824 205.152 14.304 205.344 14.544C207.12 17.088 208.272 19.152 209.712 21.936C209.952 22.416 210.192 22.992 210.768 22.992C211.44 22.992 214.608 21.552 214.608 20.544C214.608 19.872 212.448 16.512 211.968 15.744C211.344 14.784 210 12.624 209.328 11.808C209.136 11.568 208.848 11.28 208.464 11.28Z" fill="black"/>
<path d="M18.1016 76.3691H22.0801C22.0254 77.8639 21.7246 79.1263 21.1777 80.1562C20.6309 81.1771 19.8516 81.9518 18.8398 82.4805C17.8372 83.0091 16.625 83.2734 15.2031 83.2734C14.1003 83.2734 13.1204 83.0911 12.2637 82.7266C11.4069 82.3529 10.6777 81.806 10.0762 81.0859C9.47461 80.3659 9.01888 79.4772 8.70898 78.4199C8.4082 77.3535 8.25781 76.1276 8.25781 74.7422V71.3652C8.25781 69.9798 8.41732 68.7539 8.73633 67.6875C9.06445 66.6211 9.5293 65.7279 10.1309 65.0078C10.7415 64.2786 11.4753 63.7318 12.332 63.3672C13.1979 62.9935 14.1732 62.8066 15.2578 62.8066C16.707 62.8066 17.9193 63.0801 18.8945 63.627C19.8698 64.1738 20.6217 64.9714 21.1504 66.0195C21.6882 67.0586 22.0117 68.3301 22.1211 69.834H18.1289C18.1016 68.8861 17.9922 68.1432 17.8008 67.6055C17.6185 67.0586 17.3268 66.6758 16.9258 66.457C16.5247 66.2292 15.9688 66.1152 15.2578 66.1152C14.7292 66.1152 14.2734 66.2109 13.8906 66.4023C13.5078 66.5846 13.1934 66.8809 12.9473 67.291C12.7012 67.7012 12.5189 68.2389 12.4004 68.9043C12.291 69.5697 12.2363 70.3809 12.2363 71.3379V74.7422C12.2363 75.681 12.2865 76.4831 12.3867 77.1484C12.487 77.8047 12.6465 78.3424 12.8652 78.7617C13.084 79.181 13.3802 79.4863 13.7539 79.6777C14.1367 79.8691 14.6198 79.9648 15.2031 79.9648C15.8776 79.9648 16.4199 79.8646 16.8301 79.6641C17.2493 79.4635 17.5592 79.1035 17.7598 78.584C17.9603 78.0645 18.0742 77.3262 18.1016 76.3691ZM38.5684 71.502V74.8242C38.5684 76.2279 38.3952 77.4583 38.0488 78.5156C37.7116 79.5638 37.2285 80.4434 36.5996 81.1543C35.9798 81.8561 35.2279 82.3848 34.3438 82.7402C33.4688 83.0957 32.498 83.2734 31.4316 83.2734C30.3652 83.2734 29.39 83.0957 28.5059 82.7402C27.6309 82.3848 26.8743 81.8561 26.2363 81.1543C25.6074 80.4434 25.1198 79.5638 24.7734 78.5156C24.4271 77.4583 24.2539 76.2279 24.2539 74.8242V71.502C24.2539 70.0618 24.4225 68.804 24.7598 67.7285C25.097 66.6439 25.5846 65.7415 26.2227 65.0215C26.8607 64.2923 27.6172 63.7454 28.4922 63.3809C29.3672 63.0072 30.3379 62.8203 31.4043 62.8203C32.4707 62.8203 33.4414 63.0072 34.3164 63.3809C35.1914 63.7454 35.9479 64.2923 36.5859 65.0215C37.224 65.7415 37.7116 66.6439 38.0488 67.7285C38.3952 68.804 38.5684 70.0618 38.5684 71.502ZM34.5898 74.8242V71.4746C34.5898 70.5267 34.5215 69.7201 34.3848 69.0547C34.248 68.3802 34.043 67.8288 33.7695 67.4004C33.4961 66.972 33.1634 66.6576 32.7715 66.457C32.3796 66.2565 31.9238 66.1562 31.4043 66.1562C30.8848 66.1562 30.4245 66.2565 30.0234 66.457C29.6315 66.6576 29.2988 66.972 29.0254 67.4004C28.7611 67.8288 28.5605 68.3802 28.4238 69.0547C28.2962 69.7201 28.2324 70.5267 28.2324 71.4746V74.8242C28.2324 75.7357 28.3008 76.515 28.4375 77.1621C28.5742 77.8092 28.7793 78.3379 29.0527 78.748C29.3262 79.1582 29.6589 79.4635 30.0508 79.6641C30.4518 79.8555 30.9121 79.9512 31.4316 79.9512C31.9421 79.9512 32.3932 79.8555 32.7852 79.6641C33.1862 79.4635 33.5189 79.1582 33.7832 78.748C34.0475 78.3379 34.248 77.8092 34.3848 77.1621C34.5215 76.515 34.5898 75.7357 34.5898 74.8242ZM55.3984 63.0938V83H51.5293L45.2812 70.5449V83H41.4805V63.0938H45.2949L51.5977 75.6855V63.0938H55.3984ZM66.1445 63.0938V83H62.166V63.0938H66.1445ZM71.0938 63.0938V66.416H57.3125V63.0938H71.0938ZM84.834 79.6914V83H76.1797V79.6914H84.834ZM77.4238 63.0938V83H73.418V63.0938H77.4238ZM83.6719 71.1602V74.373H76.1797V71.1602H83.6719ZM84.8066 63.0938V66.416H76.1797V63.0938H84.8066ZM101.09 63.0938V83H97.2207L90.9727 70.5449V83H87.1719V63.0938H90.9863L97.2891 75.6855V63.0938H101.09ZM111.836 63.0938V83H107.857V63.0938H111.836ZM116.785 63.0938V66.416H103.004V63.0938H116.785ZM127.312 77.7637C127.312 77.4082 127.281 77.0846 127.217 76.793C127.153 76.5013 127.016 76.2324 126.807 75.9863C126.606 75.7402 126.31 75.4941 125.918 75.248C125.535 75.002 125.034 74.7467 124.414 74.4824C123.676 74.1725 122.96 73.8444 122.268 73.498C121.575 73.1426 120.951 72.7324 120.395 72.2676C119.839 71.8027 119.396 71.2559 119.068 70.627C118.749 69.9889 118.59 69.2415 118.59 68.3848C118.59 67.5462 118.74 66.7852 119.041 66.1016C119.351 65.418 119.788 64.8346 120.354 64.3516C120.919 63.8594 121.579 63.4811 122.336 63.2168C123.102 62.9525 123.954 62.8203 124.893 62.8203C126.169 62.8203 127.271 63.0846 128.201 63.6133C129.14 64.1419 129.865 64.8665 130.375 65.7871C130.895 66.7077 131.154 67.765 131.154 68.959H127.162C127.162 68.3939 127.08 67.8971 126.916 67.4688C126.761 67.0312 126.51 66.6895 126.164 66.4434C125.818 66.1973 125.371 66.0742 124.824 66.0742C124.314 66.0742 123.89 66.179 123.553 66.3887C123.225 66.5892 122.979 66.8672 122.814 67.2227C122.66 67.569 122.582 67.9609 122.582 68.3984C122.582 68.7266 122.66 69.0228 122.814 69.2871C122.979 69.5423 123.202 69.7747 123.484 69.9844C123.767 70.1849 124.1 70.3809 124.482 70.5723C124.874 70.7637 125.303 70.9505 125.768 71.1328C126.67 71.4883 127.467 71.8802 128.16 72.3086C128.853 72.7279 129.432 73.2018 129.896 73.7305C130.361 74.25 130.712 74.8379 130.949 75.4941C131.186 76.1504 131.305 76.8978 131.305 77.7363C131.305 78.5658 131.159 79.3223 130.867 80.0059C130.585 80.6803 130.17 81.2637 129.623 81.7559C129.076 82.2389 128.415 82.6126 127.641 82.877C126.875 83.1413 126.018 83.2734 125.07 83.2734C124.15 83.2734 123.279 83.1458 122.459 82.8906C121.639 82.6263 120.914 82.2298 120.285 81.7012C119.665 81.1634 119.178 80.4844 118.822 79.6641C118.467 78.8346 118.289 77.8548 118.289 76.7246H122.295C122.295 77.3262 122.354 77.8411 122.473 78.2695C122.591 78.6888 122.773 79.026 123.02 79.2812C123.266 79.5273 123.566 79.7142 123.922 79.8418C124.286 79.9603 124.701 80.0195 125.166 80.0195C125.695 80.0195 126.114 79.9193 126.424 79.7188C126.743 79.5182 126.971 79.2493 127.107 78.9121C127.244 78.5749 127.312 78.1921 127.312 77.7637Z" fill="black"/>
</svg>
