<svg width="125" height="45" viewBox="0 0 125 45" fill="none" xmlns="http://www.w3.org/2000/svg">
<path d="M7.896 5.424C7.2 5.424 6.504 5.424 5.808 5.4C5.472 5.4 5.136 5.352 4.776 5.352C4.344 5.352 4.248 5.544 4.248 6.504C4.248 7.704 4.296 8.04 4.824 8.04C5.424 8.04 6.888 7.968 7.92 7.968H16.2C16.608 7.968 16.92 8.28 16.92 8.688V15.48C16.92 15.864 16.608 16.2 16.2 16.2H7.92C6.768 16.2 5.376 16.128 4.8 16.128C4.224 16.128 4.272 16.44 4.272 17.4C4.272 18.456 4.248 18.792 4.848 18.792C5.472 18.792 6.888 18.744 7.944 18.744H15.744C16.464 18.744 16.776 18.744 16.896 19.296C16.992 19.752 17.016 19.8 18.12 19.8C19.416 19.8 19.56 19.8 19.56 19.056C19.56 18.336 19.536 17.592 19.536 16.872V8.784C19.536 8.064 19.56 7.344 19.56 6.624C19.56 5.496 18.936 5.4 17.976 5.4C17.352 5.4 16.752 5.424 16.128 5.424H7.896ZM45.72 7.128C45.552 7.128 45.408 7.272 45.312 7.392C41.904 11.736 35.904 16.272 30.6 17.832C30.288 17.928 29.856 17.976 29.856 18.24C29.856 18.48 30.432 19.44 30.576 19.68C30.744 19.968 31.248 20.928 31.512 20.928C31.632 20.928 31.704 20.88 31.752 20.784C31.944 20.376 31.968 20.352 32.76 19.968C37.824 17.616 41.904 14.928 45.792 10.92C46.104 10.608 47.064 9.672 47.064 9.264C47.064 8.904 46.2 7.128 45.72 7.128ZM31.536 3.288C30.984 3.288 30.024 4.824 30.024 5.184C30.024 5.4 30.216 5.52 30.408 5.64C31.272 6.168 32.928 7.272 33.6 7.872C33.912 8.16 34.368 8.52 34.56 8.52C35.016 8.52 36.144 7.224 36.144 6.672C36.144 6.312 34.992 5.52 34.68 5.304C34.224 4.968 31.92 3.288 31.536 3.288ZM56.112 9.576C55.104 9.576 54.096 9.504 53.064 9.504C52.536 9.504 52.464 9.768 52.464 10.872C52.464 11.736 52.488 12.096 53.112 12.096C54.12 12.096 55.128 12.048 56.112 12.048H60.984C61.296 12.048 61.56 12.288 61.56 12.6C61.56 12.792 61.392 13.56 61.344 13.776C60.936 15.504 59.856 17.208 58.32 18.144C57.408 18.72 56.352 19.104 55.32 19.392C55.104 19.44 54.648 19.536 54.648 19.8C54.648 20.208 55.968 21.792 56.496 21.792C56.952 21.792 58.536 20.976 58.992 20.736C62.016 19.08 63.648 16.56 64.176 13.176C64.248 12.672 64.272 12.048 64.944 12.048H68.088C69.12 12.048 70.152 12.096 71.208 12.096C71.856 12.096 71.856 11.64 71.856 10.824C71.856 9.696 71.88 9.504 71.136 9.504C70.104 9.504 69.096 9.576 68.088 9.576H56.112ZM59.376 3.288C58.32 3.288 57.288 3.24 56.256 3.24C55.632 3.24 55.608 3.504 55.608 4.512C55.608 5.424 55.536 5.808 56.256 5.808C57.264 5.808 58.296 5.76 59.328 5.76H64.56C65.592 5.76 66.624 5.808 67.632 5.808C68.304 5.808 68.28 5.472 68.28 4.728C68.28 3.552 68.304 3.24 67.656 3.24C66.6 3.24 65.568 3.288 64.536 3.288H59.376ZM95.88 7.128C95.712 7.128 95.568 7.272 95.472 7.392C92.064 11.736 86.064 16.272 80.76 17.832C80.448 17.928 80.016 17.976 80.016 18.24C80.016 18.48 80.592 19.44 80.736 19.68C80.904 19.968 81.408 20.928 81.672 20.928C81.792 20.928 81.864 20.88 81.912 20.784C82.104 20.376 82.128 20.352 82.92 19.968C87.984 17.616 92.064 14.928 95.952 10.92C96.264 10.608 97.224 9.672 97.224 9.264C97.224 8.904 96.36 7.128 95.88 7.128ZM81.696 3.288C81.144 3.288 80.184 4.824 80.184 5.184C80.184 5.4 80.376 5.52 80.568 5.64C81.432 6.168 83.088 7.272 83.76 7.872C84.072 8.16 84.528 8.52 84.72 8.52C85.176 8.52 86.304 7.224 86.304 6.672C86.304 6.312 85.152 5.52 84.84 5.304C84.384 4.968 82.08 3.288 81.696 3.288ZM118.704 4.512C118.512 4.512 118.488 4.728 118.464 4.896C118.344 6.192 117.816 7.968 117.36 9.168C115.392 14.28 111.96 17.376 106.656 18.696C106.368 18.768 105.648 18.84 105.648 19.248C105.648 19.632 106.752 21.24 107.232 21.24C107.4 21.24 107.616 21.168 107.76 21.12C110.352 20.328 112.632 19.272 114.696 17.496C118.08 14.592 119.712 10.944 120.888 6.72C120.984 6.408 121.08 6.288 121.344 6.096C121.44 6.024 121.608 5.928 121.608 5.76C121.608 5.496 120.984 5.304 120.696 5.208C120.384 5.088 118.944 4.512 118.704 4.512ZM111.24 3.912C110.88 3.912 109.416 4.632 109.416 5.016C109.416 5.16 109.584 5.4 109.68 5.52C110.52 6.72 111.168 7.872 111.84 9.168C112.032 9.504 112.128 9.768 112.392 9.768C112.728 9.768 114.336 9.048 114.336 8.568C114.336 8.208 113.232 6.504 112.992 6.12C112.608 5.496 112.2 4.872 111.744 4.272C111.624 4.104 111.48 3.912 111.24 3.912ZM105.192 5.64C104.832 5.64 103.368 6.36 103.368 6.768C103.368 6.912 103.536 7.152 103.632 7.272C104.52 8.544 105.096 9.576 105.816 10.968C105.936 11.208 106.056 11.496 106.344 11.496C106.68 11.496 108.264 10.776 108.264 10.272C108.264 9.936 107.184 8.256 106.944 7.872C106.632 7.392 105.96 6.312 105.624 5.904C105.528 5.784 105.384 5.64 105.192 5.64Z" fill="black"/>
<path d="M6.37012 39.9849H7.90625C7.87663 40.6535 7.74121 41.2227 7.5 41.6924C7.25879 42.1579 6.91178 42.5133 6.45898 42.7588C6.01042 43.0042 5.4624 43.127 4.81494 43.127C4.32406 43.127 3.88395 43.0381 3.49463 42.8604C3.10954 42.6826 2.78158 42.4266 2.51074 42.0923C2.23991 41.7537 2.03255 41.3411 1.88867 40.8545C1.74902 40.3678 1.6792 39.8156 1.6792 39.1978V37.5601C1.6792 36.9422 1.75114 36.39 1.89502 35.9033C2.04313 35.4167 2.25472 35.0041 2.52979 34.6655C2.80485 34.327 3.13916 34.071 3.53271 33.8975C3.9305 33.7197 4.37907 33.6309 4.87842 33.6309C5.51742 33.6309 6.05485 33.7536 6.49072 33.999C6.9266 34.2445 7.26302 34.6042 7.5 35.0781C7.73698 35.5521 7.87451 36.1297 7.9126 36.811H6.37646C6.35531 36.3498 6.29183 35.9816 6.18604 35.7065C6.08447 35.4272 5.9279 35.2262 5.71631 35.1035C5.50895 34.9808 5.22965 34.9194 4.87842 34.9194C4.58643 34.9194 4.33464 34.9744 4.12305 35.0845C3.91569 35.1945 3.7443 35.3595 3.60889 35.5796C3.4777 35.7954 3.37826 36.0684 3.31055 36.3984C3.24707 36.7243 3.21533 37.1073 3.21533 37.5474V39.1978C3.21533 39.6209 3.24284 39.9954 3.29785 40.3213C3.35286 40.6471 3.44173 40.9243 3.56445 41.1528C3.68717 41.3771 3.8501 41.5485 4.05322 41.667C4.25635 41.7812 4.51025 41.8384 4.81494 41.8384C5.17887 41.8384 5.46875 41.7812 5.68457 41.667C5.90462 41.5527 6.06755 41.3602 6.17334 41.0894C6.27913 40.8185 6.34473 40.4504 6.37012 39.9849ZM15.6011 37.6235V39.1978C15.6011 39.8494 15.525 40.4207 15.3726 40.9116C15.2245 41.4025 15.0087 41.813 14.7252 42.1431C14.4459 42.4689 14.1073 42.7144 13.7095 42.8794C13.316 43.0444 12.8759 43.127 12.3892 43.127C11.9068 43.127 11.4667 43.0444 11.0689 42.8794C10.6754 42.7144 10.3347 42.4689 10.0469 42.1431C9.76341 41.813 9.54335 41.4025 9.38678 40.9116C9.23443 40.4207 9.15826 39.8494 9.15826 39.1978V37.6235C9.15826 36.9634 9.23443 36.3857 9.38678 35.8906C9.53912 35.3913 9.75706 34.9744 10.0406 34.6401C10.3283 34.3058 10.669 34.054 11.0626 33.8848C11.4603 33.7155 11.8983 33.6309 12.3765 33.6309C12.8632 33.6309 13.3033 33.7155 13.6968 33.8848C14.0946 34.054 14.4353 34.3058 14.7188 34.6401C15.0023 34.9744 15.2203 35.3913 15.3726 35.8906C15.525 36.3857 15.6011 36.9634 15.6011 37.6235ZM14.0713 39.1978V37.6108C14.0713 37.1411 14.0333 36.7391 13.9571 36.4048C13.8851 36.0662 13.7772 35.7912 13.6334 35.5796C13.4895 35.3638 13.3117 35.2051 13.1002 35.1035C12.8928 34.9977 12.6516 34.9448 12.3765 34.9448C12.1099 34.9448 11.8708 34.9977 11.6592 35.1035C11.4519 35.2051 11.2741 35.3638 11.126 35.5796C10.9822 35.7912 10.8721 36.0662 10.796 36.4048C10.724 36.7391 10.688 37.1411 10.688 37.6108V39.1978C10.688 39.659 10.7261 40.0568 10.8023 40.3911C10.8785 40.7212 10.9885 40.992 11.1324 41.2036C11.2805 41.411 11.4603 41.5654 11.6719 41.667C11.8835 41.7686 12.1226 41.8193 12.3892 41.8193C12.6601 41.8193 12.9013 41.7686 13.1129 41.667C13.3244 41.5654 13.5001 41.411 13.6397 41.2036C13.7836 40.992 13.8915 40.7212 13.9634 40.3911C14.0354 40.0568 14.0713 39.659 14.0713 39.1978ZM23.4928 33.7578V43H21.9821L18.7194 36.6016V43H17.2277V33.7578H18.7194L22.0074 40.2007V33.7578H23.4928ZM28.4709 33.7578V43H26.9347V33.7578H28.4709ZM30.8259 33.7578V35.0527H24.6052V33.7578H30.8259ZM37.2576 41.7114V43H33.2458V41.7114H37.2576ZM33.6521 33.7578V43H32.1096V33.7578H33.6521ZM36.718 37.6045V38.874H33.2458V37.6045H36.718ZM37.2195 33.7578V35.0527H33.2458V33.7578H37.2195ZM44.8636 33.7578V43H43.3528L40.0901 36.6016V43H38.5984V33.7578H40.0901L43.3782 40.2007V33.7578H44.8636ZM49.8417 33.7578V43H48.3055V33.7578H49.8417ZM52.1966 33.7578V35.0527H45.9759V33.7578H52.1966ZM57.3525 40.6133C57.3525 40.4229 57.3313 40.2536 57.289 40.1055C57.2509 39.9531 57.1768 39.8156 57.0668 39.6929C56.9568 39.5701 56.8002 39.4495 56.5971 39.3311C56.3982 39.2126 56.1401 39.092 55.8227 38.9692C55.4587 38.8296 55.1181 38.6772 54.8007 38.5122C54.4876 38.3429 54.2104 38.1525 53.9692 37.9409C53.7322 37.7251 53.546 37.4733 53.4106 37.1855C53.2752 36.8978 53.2074 36.5635 53.2074 36.1826C53.2074 35.806 53.273 35.4632 53.4042 35.1543C53.5396 34.8411 53.7301 34.5724 53.9755 34.3481C54.2252 34.1196 54.5214 33.944 54.8642 33.8213C55.207 33.6943 55.5857 33.6309 56.0004 33.6309C56.5971 33.6309 57.107 33.7578 57.5302 34.0117C57.9576 34.2656 58.2835 34.6063 58.5077 35.0337C58.7363 35.4611 58.8505 35.9351 58.8505 36.4556H57.3144C57.3144 36.1551 57.2678 35.8885 57.1747 35.6558C57.0816 35.423 56.9377 35.241 56.7431 35.1099C56.5484 34.9787 56.2966 34.9131 55.9877 34.9131C55.7042 34.9131 55.4693 34.9681 55.2831 35.0781C55.1012 35.1882 54.9657 35.3384 54.8769 35.5288C54.7922 35.7192 54.7499 35.9372 54.7499 36.1826C54.7499 36.3519 54.7859 36.5063 54.8578 36.646C54.9298 36.7814 55.0335 36.9062 55.1689 37.0205C55.3043 37.1348 55.4693 37.2427 55.664 37.3442C55.8586 37.4458 56.0829 37.5431 56.3368 37.6362C56.7685 37.7928 57.1451 37.9663 57.4667 38.1567C57.7883 38.3472 58.0528 38.5609 58.2602 38.7979C58.4718 39.0306 58.6283 39.2951 58.7299 39.5913C58.8357 39.8875 58.8886 40.224 58.8886 40.6006C58.8886 40.9814 58.823 41.3285 58.6918 41.6416C58.5649 41.9505 58.3787 42.215 58.1332 42.4351C57.8878 42.6551 57.5916 42.8265 57.2446 42.9492C56.8975 43.0677 56.5082 43.127 56.0766 43.127C55.6788 43.127 55.2958 43.0677 54.9277 42.9492C54.5637 42.8307 54.2379 42.6509 53.9501 42.4097C53.6624 42.1642 53.4338 41.8574 53.2646 41.4893C53.0995 41.1211 53.017 40.6895 53.017 40.1943H54.5595C54.5595 40.4906 54.5955 40.7445 54.6674 40.9561C54.7393 41.1634 54.843 41.3348 54.9784 41.4702C55.1181 41.6014 55.281 41.6987 55.4672 41.7622C55.6576 41.8215 55.8692 41.8511 56.102 41.8511C56.3897 41.8511 56.6246 41.8003 56.8066 41.6987C56.9928 41.5929 57.1303 41.4469 57.2192 41.2607C57.308 41.0745 57.3525 40.8587 57.3525 40.6133Z" fill="#5F5F5F"/>
</svg>
