<svg width="116" height="18" viewBox="0 0 116 18" fill="none" xmlns="http://www.w3.org/2000/svg">
<path d="M2.016 16.684C3.078 15.28 3.654 13.48 3.96 11.482H6.408V15.118C5.454 15.37 4.5 15.586 3.69 15.712C3.69 15.712 3.942 16.378 4.302 17.008C4.446 17.278 4.572 17.386 4.662 17.386C4.752 17.386 4.806 17.242 4.806 17.026C4.806 16.972 4.806 16.9 4.806 16.846C7.218 16.234 10.494 14.974 10.494 14.974L10.422 13.822C9.864 14.02 8.838 14.38 7.65 14.74V11.482H9.342C9.756 12.85 11.214 16.18 16.038 17.044L17.406 15.694C15.174 15.568 13.662 14.974 12.618 14.254C13.788 13.588 14.67 12.85 14.67 12.85C14.814 12.886 14.94 12.904 15.012 12.904C15.156 12.904 15.192 12.868 15.192 12.796C15.192 12.742 15.156 12.652 15.084 12.598C14.562 12.166 13.986 11.806 13.986 11.806C13.986 11.806 13.05 12.742 11.772 13.534C11.052 12.796 10.71 12.004 10.548 11.482H16.218V10.33H12.186V8.584H15.282V7.45H12.186V7.216C12.186 7.216 12.186 6.91 12.222 6.514C12.546 6.478 12.69 6.352 12.69 6.226C12.69 6.118 12.6 6.028 12.42 6.01C11.718 5.92 10.926 5.902 10.926 5.902C10.98 6.262 10.98 6.622 10.98 6.838C10.98 6.946 10.98 7 10.98 7.45H8.334V7.216C8.334 7.216 8.334 6.91 8.37 6.514C8.694 6.478 8.838 6.352 8.838 6.226C8.838 6.118 8.748 6.028 8.568 6.01C7.866 5.92 7.074 5.902 7.074 5.902C7.128 6.262 7.128 6.622 7.128 6.838C7.128 6.946 7.128 7 7.128 7.45H4.662V8.584H7.128V10.33H4.104C4.212 9.376 4.248 8.386 4.284 7.378C4.284 7.108 4.284 6.334 4.266 5.506H13.95V6.136H15.246V1.69H2.88C2.916 3.184 2.988 4.75 2.988 6.28C2.988 11.824 2.142 14.452 0.468 16.162L2.016 16.684ZM4.248 4.318L4.212 2.86H13.95V4.318H4.248ZM8.334 10.33V8.584H10.98V10.33H8.334ZM22.95 3.67H34.326V2.284H22.95V3.67ZM31.5 9.61C31.5 9.61 33.408 13.822 35.172 15.532L36.828 14.776C34.272 12.958 32.904 9.16 32.904 9.16L31.5 9.61ZM25.866 16.972C26.028 16.972 26.172 16.972 26.334 16.972C28.332 16.972 29.466 16.504 29.466 14.812C29.466 14.146 29.412 13.462 29.412 12.562V7.63H36.18V6.298H21.168V7.63H27.99V14.596C27.99 15.316 27.27 15.514 26.478 15.514C25.812 15.514 25.092 15.37 24.732 15.316L25.866 16.972ZM22.104 15.568C24.138 13.444 24.894 10.96 25.254 10.114C25.686 10.06 25.83 9.934 25.83 9.826C25.83 9.718 25.686 9.592 25.506 9.556L24.012 9.196C24.012 9.196 23.22 12.742 20.448 15.01L22.104 15.568ZM41.67 17.224H43.11V11.626L44.226 12.346C46.638 11.086 47.718 8.998 48.24 7.036C48.942 9.052 50.22 10.978 52.254 12.22L53.46 11.428V14.452C53.46 15.316 52.668 15.568 51.624 15.568C50.922 15.568 50.112 15.442 49.356 15.316L50.328 16.99C50.634 17.008 50.976 17.008 51.336 17.008C52.992 17.008 54.936 16.72 54.936 14.632C54.936 14.614 54.936 14.596 54.936 14.578C54.918 14.164 54.9 13.408 54.9 12.526V4.012H48.78C48.798 3.832 48.816 3.652 48.816 3.49C48.816 2.842 48.834 2.086 48.852 1.888C49.194 1.852 49.482 1.672 49.482 1.51C49.482 1.312 49.356 1.24 47.466 1.132C47.484 1.438 47.502 2.464 47.502 3.526C47.502 3.688 47.502 3.85 47.484 4.012H41.67V17.224ZM53.46 11.104C50.886 9.862 49.482 7.738 48.888 5.254H53.46V11.104ZM43.11 5.254H47.376C47.07 7.414 46.062 10.024 43.11 11.284V5.254ZM69.318 5.596C69.732 6.19 71.586 7.954 73.53 8.944L74.97 7.954C72.414 7.018 70.704 5.452 70.272 4.966L69.318 5.596ZM60.786 6.262H62.136V4.084H73.512V6.298H74.862V2.86H68.526V2.662C68.526 2.662 68.544 2.194 68.562 1.798C68.994 1.726 69.138 1.582 69.138 1.438C69.138 1.312 68.994 1.204 68.814 1.186C68.058 1.114 67.068 1.078 67.068 1.078C67.122 1.816 67.122 2.572 67.122 2.572V2.86H60.786V6.262ZM61.992 9.304C64.422 7.99 65.88 6.01 65.88 6.01C65.988 6.046 66.078 6.064 66.168 6.064C66.33 6.064 66.456 5.992 66.456 5.884C66.456 5.614 65.322 5.02 65.16 4.93C64.944 5.326 63.378 7.324 60.498 8.44L61.992 9.304ZM63.342 17.314H64.71V16.288H70.974L70.992 17.224H72.36L72.252 11.986C73.026 12.454 73.872 12.922 74.808 13.318L76.41 12.238C71.928 10.924 69.3 8.332 68.454 7.378V7.36C68.778 7.324 68.904 7.216 68.904 7.126C68.904 7.054 68.814 6.982 68.688 6.946C68.058 6.748 67.392 6.64 67.392 6.64C67.392 6.64 64.998 10.816 59.616 12.616L61.056 13.516C61.938 13.102 62.73 12.67 63.432 12.202L63.342 17.314ZM64.53 11.446C66.096 10.276 67.158 9.124 67.77 8.332C68.364 8.962 69.606 10.222 71.442 11.446H64.53ZM64.728 15.1L64.746 12.598H70.956L70.974 15.1H64.728ZM82.35 17.26H83.61L83.574 9.538C84.06 9.466 84.51 9.394 84.852 9.322C84.996 9.826 85.104 10.33 85.176 10.744L86.292 10.24C86.148 9.61 85.932 8.908 85.698 8.26L87.048 9.106C90.252 7.63 90.954 4.966 91.062 3.094H93.726C93.708 4.12 93.6 5.506 93.402 6.334C93.186 7.234 92.592 7.468 91.89 7.468C91.332 7.468 90.702 7.324 90.126 7.216L91.062 8.782C91.368 8.818 91.656 8.836 91.926 8.836C94.788 8.836 94.986 6.91 95.076 1.87H86.49V3.094H89.712C89.622 4.606 89.082 7.126 85.662 8.17C85.248 7 84.816 6.046 84.816 6.046L83.844 6.514C84.096 6.982 84.33 7.612 84.546 8.278C83.97 8.386 83.142 8.494 82.224 8.602C83.61 6.73 85.194 4.174 85.374 3.886C85.482 3.904 85.554 3.922 85.626 3.922C85.806 3.922 85.878 3.85 85.878 3.76C85.878 3.67 85.806 3.544 85.68 3.454C85.23 3.13 84.456 2.734 84.456 2.734C84.258 3.256 83.538 4.642 82.602 6.136C82.368 5.848 82.062 5.506 81.72 5.146C82.422 4.21 83.448 2.266 83.556 2.104C83.664 2.14 83.754 2.14 83.826 2.14C84.024 2.14 84.078 2.068 84.078 1.978C84.078 1.87 84.024 1.78 83.934 1.726C83.34 1.366 82.566 1.06 82.566 1.06C82.566 1.06 81.738 3.31 80.946 4.39C80.766 4.228 80.604 4.084 80.424 3.94L79.74 4.876C80.694 5.632 81.486 6.568 81.954 7.162C81.594 7.702 81.216 8.242 80.838 8.728C80.388 8.746 79.938 8.764 79.524 8.782C79.524 8.782 79.65 9.52 79.812 10.132C79.884 10.402 79.992 10.528 80.1 10.528C80.226 10.528 80.352 10.312 80.388 10.006C81.072 9.916 81.756 9.808 82.386 9.718L82.35 17.26ZM87.372 17.17H88.614V16.09H93.186V17.134H94.5V10.258H87.372V17.17ZM86.202 15.064C85.86 13.228 85.104 10.996 85.104 10.996L84.042 11.284C84.042 11.284 84.726 13.21 84.96 15.46L86.202 15.064ZM80.568 16.324C81.36 14.11 81.612 12.004 81.63 11.806C81.99 11.788 82.116 11.662 82.116 11.536C82.116 11.428 82.026 11.338 81.9 11.302C81.324 11.176 80.604 11.05 80.604 11.05C80.604 11.05 80.388 13.84 79.29 16.108L80.568 16.324ZM88.614 14.848V11.446H93.186V14.848H88.614ZM99.918 8.926C103.68 7.018 105.966 4.354 107.028 2.86C107.82 3.94 110.322 6.928 114.228 8.674L115.722 7.54C110.916 5.812 108.45 2.788 107.73 1.78C108.072 1.744 108.198 1.618 108.198 1.51C108.198 1.42 108.108 1.33 107.964 1.312C107.64 1.258 106.614 0.969999 106.614 0.969999C106.614 0.969999 104.256 5.578 98.532 7.918L99.918 8.926ZM108.972 17.224H110.448V8.764C110.448 8.764 110.448 8.17 110.484 7.756C110.826 7.702 110.988 7.558 110.988 7.432C110.988 7.324 110.88 7.234 110.682 7.198C110.304 7.144 108.918 7.09 108.918 7.09C108.972 7.774 108.972 8.602 108.972 8.602V17.224ZM100.314 17.35C104.706 15.694 105.336 12.292 105.336 9.808C105.336 9.772 105.336 9.736 105.336 9.7C105.336 9.538 105.336 9.358 105.336 9.178C105.336 8.494 105.354 7.846 105.354 7.846C105.75 7.792 105.912 7.612 105.912 7.486C105.912 7.378 105.822 7.288 105.66 7.27C104.778 7.18 103.734 7.126 103.734 7.126C103.734 7.126 103.86 8.224 103.86 9.322C103.86 9.376 103.86 9.448 103.86 9.52C103.86 12.076 103.59 15.19 98.658 16.288L100.314 17.35Z" fill="black"/>
</svg>
