<svg width="44" height="10" viewBox="0 0 44 10" fill="none" xmlns="http://www.w3.org/2000/svg">
<path d="M1.464 9.066L0.386 8.417C2.597 7.405 3.62 5.645 3.62 3.665C3.62 3.39 3.609 3.115 3.565 2.829C3.565 2.829 4.467 2.851 4.665 2.873C4.874 2.906 4.962 2.972 4.962 3.038C4.962 3.126 4.83 3.214 4.643 3.258C4.643 3.511 4.621 3.731 4.621 3.962C4.621 4.006 4.61 4.05 4.61 4.094C5.545 3.687 6.799 2.796 7.272 1.982L0.661 2.004V1.146L7.833 1.135C7.921 1.135 7.965 1.058 8.042 1.058C8.13 1.058 8.779 1.553 8.779 1.696C8.779 1.784 8.647 1.839 8.493 1.85C7.833 2.994 6.623 4.149 5.248 4.864L4.588 4.435C4.357 6.393 3.114 7.977 1.464 9.066ZM12.8427 9.044L11.8637 8.351C15.0537 7.361 16.7917 5.425 18.1777 2.609L15.4717 2.631C14.5037 3.896 13.4697 4.787 12.6557 5.304L11.7207 4.798C13.5907 3.764 14.8557 2.191 15.6257 0.574C16.5937 0.804999 16.8247 0.882 16.8247 0.992C16.8247 1.058 16.6817 1.113 16.5497 1.113C16.5277 1.113 16.5057 1.113 16.4837 1.113C16.3407 1.366 16.1867 1.619 16.0327 1.85C17.1107 1.839 18.5737 1.828 18.6287 1.817C18.7277 1.806 18.7607 1.707 18.8487 1.707C18.9697 1.707 19.5967 2.224 19.5967 2.356C19.5967 2.444 19.4867 2.499 19.3327 2.532C17.7707 5.579 16.1317 7.867 12.8427 9.044ZM23.5897 5.557L23.2927 4.721C23.8867 4.556 24.9537 4.237 26.1087 3.896C26.1307 2.774 26.1527 1.784 26.1527 1.784C26.1527 1.476 26.1527 1.234 26.1307 0.959C26.1307 0.959 26.9337 0.992 27.2197 1.036C27.3737 1.069 27.4397 1.124 27.4397 1.179C27.4397 1.267 27.2967 1.355 27.1097 1.366C27.0877 1.597 27.0767 1.773 27.0767 1.982L27.0327 3.61C28.9467 3.038 30.7947 2.466 30.8387 2.444C30.9157 2.422 30.9487 2.323 31.0367 2.323C31.0477 2.323 31.8837 2.664 31.8837 2.818C31.8837 2.884 31.8067 2.95 31.6637 3.016C31.0037 4.435 30.2227 5.535 29.5517 6.283L28.5177 6.063C29.1997 5.381 29.8267 4.721 30.5087 3.39C29.8597 3.599 28.4407 4.05 27.0107 4.49C26.9777 5.491 26.9667 6.283 26.9667 6.404C26.9667 6.426 26.9667 6.448 26.9667 6.481C26.9667 7.471 27.1757 7.933 28.7487 7.933C29.5187 7.933 30.3987 7.812 31.5867 7.581L31.2237 8.648C30.3877 8.769 29.5407 8.835 28.8147 8.835C27.5167 8.835 26.0647 8.626 26.0647 6.855C26.0647 6.844 26.0647 6.833 26.0647 6.822C26.0647 6.481 26.0757 5.667 26.0867 4.776C25.0637 5.095 24.1287 5.392 23.5897 5.557ZM36.3607 8.791L35.4257 8.12C38.8357 6.767 40.2657 4.38 41.1237 2.554L36.8117 2.576V1.74L41.5527 1.707C41.6517 1.707 41.6957 1.641 41.7617 1.641C41.7837 1.641 41.8057 1.652 41.8387 1.674C42.3997 2.059 42.5317 2.158 42.5317 2.246C42.5317 2.334 42.3777 2.378 42.2677 2.411C41.8497 3.236 41.3327 4.215 40.6287 5.194C41.6187 5.909 43.0487 7.152 43.9067 8.12L43.0377 8.791C42.2567 7.746 41.0577 6.613 40.1227 5.854C39.1877 7.009 37.9667 8.087 36.3607 8.791Z" fill="black"/>
</svg>
