<svg width="77" height="18" viewBox="0 0 77 18" fill="none" xmlns="http://www.w3.org/2000/svg">
<path d="M2.016 16.684C3.078 15.28 3.654 13.48 3.96 11.482H6.408V15.118C5.454 15.37 4.5 15.586 3.69 15.712C3.69 15.712 3.942 16.378 4.302 17.008C4.446 17.278 4.572 17.386 4.662 17.386C4.752 17.386 4.806 17.242 4.806 17.026C4.806 16.972 4.806 16.9 4.806 16.846C7.218 16.234 10.494 14.974 10.494 14.974L10.422 13.822C9.864 14.02 8.838 14.38 7.65 14.74V11.482H9.342C9.756 12.85 11.214 16.18 16.038 17.044L17.406 15.694C15.174 15.568 13.662 14.974 12.618 14.254C13.788 13.588 14.67 12.85 14.67 12.85C14.814 12.886 14.94 12.904 15.012 12.904C15.156 12.904 15.192 12.868 15.192 12.796C15.192 12.742 15.156 12.652 15.084 12.598C14.562 12.166 13.986 11.806 13.986 11.806C13.986 11.806 13.05 12.742 11.772 13.534C11.052 12.796 10.71 12.004 10.548 11.482H16.218V10.33H12.186V8.584H15.282V7.45H12.186V7.216C12.186 7.216 12.186 6.91 12.222 6.514C12.546 6.478 12.69 6.352 12.69 6.226C12.69 6.118 12.6 6.028 12.42 6.01C11.718 5.92 10.926 5.902 10.926 5.902C10.98 6.262 10.98 6.622 10.98 6.838C10.98 6.946 10.98 7 10.98 7.45H8.334V7.216C8.334 7.216 8.334 6.91 8.37 6.514C8.694 6.478 8.838 6.352 8.838 6.226C8.838 6.118 8.748 6.028 8.568 6.01C7.866 5.92 7.074 5.902 7.074 5.902C7.128 6.262 7.128 6.622 7.128 6.838C7.128 6.946 7.128 7 7.128 7.45H4.662V8.584H7.128V10.33H4.104C4.212 9.376 4.248 8.386 4.284 7.378C4.284 7.108 4.284 6.334 4.266 5.506H13.95V6.136H15.246V1.69H2.88C2.916 3.184 2.988 4.75 2.988 6.28C2.988 11.824 2.142 14.452 0.468 16.162L2.016 16.684ZM4.248 4.318L4.212 2.86H13.95V4.318H4.248ZM8.334 10.33V8.584H10.98V10.33H8.334ZM22.95 3.67H34.326V2.284H22.95V3.67ZM31.5 9.61C31.5 9.61 33.408 13.822 35.172 15.532L36.828 14.776C34.272 12.958 32.904 9.16 32.904 9.16L31.5 9.61ZM25.866 16.972C26.028 16.972 26.172 16.972 26.334 16.972C28.332 16.972 29.466 16.504 29.466 14.812C29.466 14.146 29.412 13.462 29.412 12.562V7.63H36.18V6.298H21.168V7.63H27.99V14.596C27.99 15.316 27.27 15.514 26.478 15.514C25.812 15.514 25.092 15.37 24.732 15.316L25.866 16.972ZM22.104 15.568C24.138 13.444 24.894 10.96 25.254 10.114C25.686 10.06 25.83 9.934 25.83 9.826C25.83 9.718 25.686 9.592 25.506 9.556L24.012 9.196C24.012 9.196 23.22 12.742 20.448 15.01L22.104 15.568ZM43.11 17.26H44.37L44.334 9.538C44.82 9.466 45.27 9.394 45.612 9.322C45.756 9.826 45.864 10.33 45.936 10.744L47.052 10.24C46.908 9.61 46.692 8.908 46.458 8.26L47.808 9.106C51.012 7.63 51.714 4.966 51.822 3.094H54.486C54.468 4.12 54.36 5.506 54.162 6.334C53.946 7.234 53.352 7.468 52.65 7.468C52.092 7.468 51.462 7.324 50.886 7.216L51.822 8.782C52.128 8.818 52.416 8.836 52.686 8.836C55.548 8.836 55.746 6.91 55.836 1.87H47.25V3.094H50.472C50.382 4.606 49.842 7.126 46.422 8.17C46.008 7 45.576 6.046 45.576 6.046L44.604 6.514C44.856 6.982 45.09 7.612 45.306 8.278C44.73 8.386 43.902 8.494 42.984 8.602C44.37 6.73 45.954 4.174 46.134 3.886C46.242 3.904 46.314 3.922 46.386 3.922C46.566 3.922 46.638 3.85 46.638 3.76C46.638 3.67 46.566 3.544 46.44 3.454C45.99 3.13 45.216 2.734 45.216 2.734C45.018 3.256 44.298 4.642 43.362 6.136C43.128 5.848 42.822 5.506 42.48 5.146C43.182 4.21 44.208 2.266 44.316 2.104C44.424 2.14 44.514 2.14 44.586 2.14C44.784 2.14 44.838 2.068 44.838 1.978C44.838 1.87 44.784 1.78 44.694 1.726C44.1 1.366 43.326 1.06 43.326 1.06C43.326 1.06 42.498 3.31 41.706 4.39C41.526 4.228 41.364 4.084 41.184 3.94L40.5 4.876C41.454 5.632 42.246 6.568 42.714 7.162C42.354 7.702 41.976 8.242 41.598 8.728C41.148 8.746 40.698 8.764 40.284 8.782C40.284 8.782 40.41 9.52 40.572 10.132C40.644 10.402 40.752 10.528 40.86 10.528C40.986 10.528 41.112 10.312 41.148 10.006C41.832 9.916 42.516 9.808 43.146 9.718L43.11 17.26ZM48.132 17.17H49.374V16.09H53.946V17.134H55.26V10.258H48.132V17.17ZM46.962 15.064C46.62 13.228 45.864 10.996 45.864 10.996L44.802 11.284C44.802 11.284 45.486 13.21 45.72 15.46L46.962 15.064ZM41.328 16.324C42.12 14.11 42.372 12.004 42.39 11.806C42.75 11.788 42.876 11.662 42.876 11.536C42.876 11.428 42.786 11.338 42.66 11.302C42.084 11.176 41.364 11.05 41.364 11.05C41.364 11.05 41.148 13.84 40.05 16.108L41.328 16.324ZM49.374 14.848V11.446H53.946V14.848H49.374ZM60.678 8.926C64.44 7.018 66.726 4.354 67.788 2.86C68.58 3.94 71.082 6.928 74.988 8.674L76.482 7.54C71.676 5.812 69.21 2.788 68.49 1.78C68.832 1.744 68.958 1.618 68.958 1.51C68.958 1.42 68.868 1.33 68.724 1.312C68.4 1.258 67.374 0.969999 67.374 0.969999C67.374 0.969999 65.016 5.578 59.292 7.918L60.678 8.926ZM69.732 17.224H71.208V8.764C71.208 8.764 71.208 8.17 71.244 7.756C71.586 7.702 71.748 7.558 71.748 7.432C71.748 7.324 71.64 7.234 71.442 7.198C71.064 7.144 69.678 7.09 69.678 7.09C69.732 7.774 69.732 8.602 69.732 8.602V17.224ZM61.074 17.35C65.466 15.694 66.096 12.292 66.096 9.808C66.096 9.772 66.096 9.736 66.096 9.7C66.096 9.538 66.096 9.358 66.096 9.178C66.096 8.494 66.114 7.846 66.114 7.846C66.51 7.792 66.672 7.612 66.672 7.486C66.672 7.378 66.582 7.288 66.42 7.27C65.538 7.18 64.494 7.126 64.494 7.126C64.494 7.126 64.62 8.224 64.62 9.322C64.62 9.376 64.62 9.448 64.62 9.52C64.62 12.076 64.35 15.19 59.418 16.288L61.074 17.35Z" fill="black"/>
</svg>
