<svg width="129" height="17" viewBox="0 0 129 17" fill="none" xmlns="http://www.w3.org/2000/svg">
<path d="M1.78 16.054C7.666 14.236 10.852 9.358 12.778 5.326C13.03 5.272 13.174 5.2 13.174 5.074C13.174 4.822 12.112 4.03 11.95 4.03C11.86 4.03 11.824 4.102 11.644 4.156C11.554 4.174 9.052 4.192 7.234 4.192C7.486 3.814 7.738 3.4 7.972 2.986C8.008 2.986 8.062 2.986 8.098 2.986C8.368 2.986 8.602 2.896 8.602 2.77C8.602 2.68 8.494 2.572 8.26 2.482C7.828 2.302 7.018 2.122 6.712 2.032C5.686 4.39 3.256 7.288 0.286 8.926L1.798 9.754C3.202 8.818 4.84 7.468 6.37 5.452H10.96C10.366 6.802 9.628 8.152 8.656 9.412C7.54 8.494 6.136 7.81 5.434 7.504L4.48 8.44C5.65 9.034 6.712 9.736 7.612 10.654C5.848 12.544 3.508 14.128 0.304 14.992L1.78 16.054ZM20.4993 11.59C22.1733 10.942 24.1893 9.682 26.1513 8.098L26.1153 16.378H27.7173V6.748C28.7973 5.758 29.8233 4.696 30.7053 3.598C30.8133 3.634 30.9213 3.652 31.0113 3.652C31.1913 3.652 31.3353 3.58 31.3353 3.472C31.3353 3.4 31.2813 3.328 31.1733 3.238C30.4893 2.752 29.5353 2.356 29.5353 2.356C27.5733 5.38 23.1993 9.052 18.8973 10.438L20.4993 11.59ZM45.6986 8.602C46.7966 9.736 47.6426 10.798 48.3626 11.95C46.6166 12.274 43.9706 12.724 41.5046 13.048C42.8546 10.186 44.0066 6.802 44.9426 3.832C44.9966 3.832 45.0326 3.832 45.0686 3.832C45.3566 3.832 45.5726 3.724 45.5726 3.58C45.5726 3.49 45.4826 3.4 45.2846 3.328C44.5106 3.04 43.5026 2.806 43.5026 2.806C42.5486 6.55 41.2706 10.24 39.9206 13.228C39.2906 13.3 38.7146 13.354 38.1746 13.39C38.1746 13.39 38.4626 14.452 38.6966 15.1C38.7866 15.352 38.8946 15.46 38.9846 15.46C39.1106 15.46 39.2186 15.226 39.2186 14.974C39.2186 14.938 39.2186 14.902 39.2186 14.866C42.7286 14.362 47.3726 13.588 49.1366 13.228C49.4786 13.84 49.7846 14.47 50.1086 15.154L51.4946 14.218C50.7926 12.58 48.5966 9.52 46.9046 7.918L45.6986 8.602ZM59.6486 4.624H69.3506V3.13H59.6486V4.624ZM59.9006 16.18C64.7246 15.046 65.7866 11.158 65.9846 8.386H71.2046V6.892H57.7766V8.386H64.3646C64.1486 11.104 63.2666 14.02 58.4426 14.902L59.9006 16.18ZM77.1266 9.898H90.8606V8.386H77.1266V9.898ZM109.13 0.915999C109.67 1.33 110.408 2.158 110.786 2.932L111.74 2.23C111.362 1.438 110.408 0.627999 109.994 0.321999L109.13 0.915999ZM107.006 1.33C107.582 1.78 108.482 2.95 108.806 3.634L109.778 2.932C109.31 2.05 108.302 1.096 107.87 0.735999L107.006 1.33ZM99.3919 15.73C103.136 14.074 106.844 11.5 108.572 4.804C108.842 4.732 108.968 4.66 108.968 4.552C108.968 4.318 107.834 3.418 107.69 3.418C107.564 3.418 107.51 3.562 107.24 3.562L97.2319 3.598V5.11L106.736 5.056C105.62 9.808 102.434 13.048 97.6459 14.398L99.3919 15.73ZM122.547 5.758C122.547 5.758 122.547 5.02 122.583 4.516C122.925 4.48 123.069 4.336 123.069 4.21C123.069 3.994 123.051 3.976 121.017 3.868C121.053 4.3 121.071 5.038 121.071 5.38C121.071 5.38 120.981 12.058 120.981 13.552C120.981 13.786 120.873 13.858 120.873 13.966C120.873 14.02 121.899 15.19 122.187 15.19C122.277 15.19 122.313 15.1 122.349 14.974C125.211 13.552 127.605 10.654 128.829 8.53L127.929 6.658C127.155 8.836 124.761 11.932 122.475 13.138L122.547 5.758ZM115.077 15.622C116.985 14.164 119.001 11.356 119.001 7.036C119.001 6.946 119.001 6.874 119.001 6.802C119.001 6.316 119.001 5.74 119.019 4.948C119.325 4.894 119.487 4.75 119.487 4.642C119.487 4.426 119.055 4.3 117.471 4.3C117.525 4.678 117.525 5.434 117.525 6.046C117.525 6.532 117.525 6.928 117.525 6.928C117.525 7 117.525 7.072 117.525 7.162C117.525 10.15 116.139 13.12 113.439 14.74L115.077 15.622Z" fill="black"/>
</svg>
