<svg width="133" height="17" viewBox="0 0 133 17" fill="none" xmlns="http://www.w3.org/2000/svg">
<path d="M11.088 5.226C13.806 3.93 15.696 1.788 15.894 1.536C15.984 1.554 16.092 1.572 16.164 1.572C16.398 1.572 16.56 1.5 16.56 1.374C16.56 1.284 16.47 1.158 16.236 0.995999C15.948 0.797999 15.102 0.311999 15.102 0.311999C15.102 0.311999 13.104 3.102 9.558 4.29L11.088 5.226ZM10.71 10.158C13.752 8.988 16.002 6.306 16.2 6.054C16.308 6.072 16.416 6.09 16.506 6.09C16.704 6.09 16.866 6.036 16.866 5.91C16.866 5.82 16.776 5.694 16.542 5.532C16.254 5.316 15.408 4.812 15.408 4.812C15.408 4.812 13.32 8.052 9.18 9.204L10.71 10.158ZM8.1 6.486C8.478 5.802 9.072 4.542 9.612 3.174C9.666 3.174 9.702 3.174 9.738 3.174C10.044 3.174 10.17 3.084 10.17 2.994C10.17 2.904 10.062 2.796 9.9 2.742C9.54 2.616 8.478 2.364 8.478 2.364C8.244 3.48 7.542 5.136 6.876 6.234L8.1 6.486ZM1.926 2.742C4.392 2.616 6.894 2.31 9.126 1.788C9.342 1.932 9.504 2.004 9.612 2.004C9.702 2.004 9.738 1.95 9.738 1.86C9.738 1.77 9.684 1.626 9.54 1.464C9.378 1.266 8.676 0.491999 8.676 0.491999C7.632 1.068 4.59 1.5 1.584 1.5C1.368 1.5 1.134 1.5 0.918 1.5L1.926 2.742ZM4.536 3.192C4.536 3.192 5.202 4.308 5.4 5.874C5.4 5.874 6.606 5.514 6.606 5.496C6.336 4.074 5.706 2.922 5.706 2.922L4.536 3.192ZM9.504 16.17C12.222 15.36 14.814 13.632 16.56 11.418C16.686 11.454 16.794 11.472 16.902 11.472C17.1 11.472 17.244 11.4 17.244 11.274C17.244 11.166 17.154 11.04 16.938 10.86C16.632 10.644 15.732 10.086 15.732 10.086C15.732 10.086 13.428 13.92 7.884 15.144L9.504 16.17ZM1.854 3.66C1.854 3.66 2.556 4.83 2.898 6.36C2.898 6.36 4.068 5.91 4.068 5.892C3.708 4.506 2.988 3.336 2.988 3.336L1.854 3.66ZM1.998 14.622C3.798 13.074 4.824 11.184 5.22 10.302C5.184 11.202 5.13 12.786 5.13 13.974V16.206H6.39V14.082C6.39 13.398 6.336 11.184 6.3 10.122C6.57 10.698 7.308 12.012 8.748 13.218L10.188 12.48C8.01 11.382 6.948 9.618 6.588 8.898L9.54 8.934V7.692H6.354V7.26C6.354 7.26 6.354 7.044 6.39 6.792C6.732 6.72 6.894 6.594 6.894 6.468C6.894 6.36 6.768 6.27 6.516 6.252C5.922 6.198 5.112 6.144 5.112 6.144C5.166 6.756 5.166 7.062 5.166 7.062V7.692H1.35V8.934L4.806 8.898C4.356 9.87 2.952 12.462 0.486 13.92L1.998 14.622ZM21.798 16.26H23.13V15.036H34.092V16.134H35.442V5.01H30.654V2.67H36.306V1.338H20.934V2.67H26.028C26.046 3.3 26.064 4.272 26.064 5.01H21.798V16.26ZM27.396 5.01C27.396 4.182 27.414 2.994 27.414 2.67H29.304V5.01H27.396ZM23.13 13.722V10.95L24.57 11.598C26.712 10.14 27.342 8.178 27.378 6.252H29.304V9.726C29.304 11.004 30.276 11.112 31.194 11.112C32.472 11.112 33.624 11.112 33.876 8.79L32.652 7.53C32.598 9.492 32.4 9.87 31.356 9.87C30.798 9.87 30.654 9.744 30.654 9.438V6.252H34.092V13.722H23.13ZM23.13 6.252H26.064C26.01 7.8 25.542 9.546 23.13 10.68V6.252ZM45.486 16.044C45.702 16.062 45.936 16.062 46.152 16.062C47.646 16.062 49.14 15.774 49.14 13.992C49.14 13.938 49.14 13.902 49.14 13.848C49.122 13.704 49.104 13.218 49.104 12.192V10.626H53.874V9.42H43.452C44.316 8.718 45.054 7.962 45.684 7.17V7.944H51.282V6.828C52.416 8.142 53.766 9.312 55.368 10.104L56.772 9.132C54.864 8.394 53.352 7.242 52.164 5.928C53.1 4.992 54.396 3.39 55.062 2.31C55.314 2.202 55.476 2.094 55.476 1.968C55.476 1.716 54.414 1.14 54.396 1.14C54.306 1.14 54.252 1.266 54.162 1.266H50.436L50.454 2.364H53.532C53.352 2.742 52.614 3.948 51.444 5.082C50.166 3.48 49.32 1.77 48.762 0.438L47.682 0.797999C47.754 0.942 47.826 1.104 47.898 1.284C47.844 1.32 47.772 1.392 47.664 1.392H45.144C45.378 0.995999 45.504 0.762 45.504 0.762C45.81 0.743999 45.972 0.635999 45.972 0.528C45.972 0.455999 45.882 0.383999 45.702 0.329999C45.504 0.276 44.37 0.0419995 44.37 0.0419995C43.542 1.788 42.048 4.326 39.78 5.73L41.256 6.306C42.57 5.244 43.758 3.606 44.532 2.4H47.124C46.926 2.85 46.602 3.552 46.152 4.362C45.342 3.822 44.496 3.408 44.496 3.408L43.794 4.272C43.794 4.272 44.712 4.686 45.558 5.334C45.288 5.73 44.982 6.144 44.658 6.558C43.758 5.91 42.696 5.406 42.696 5.406L41.994 6.252C41.994 6.252 43.02 6.702 43.884 7.404C42.804 8.502 41.418 9.51 39.654 10.176L41.148 10.932C41.922 10.536 42.642 10.068 43.29 9.564V10.626H47.808V13.776C47.808 14.496 47.394 14.748 46.458 14.748C45.954 14.748 45.288 14.676 44.442 14.568L45.486 16.044ZM50.454 12.066C50.58 12.192 52.128 13.956 54.144 15.126L55.602 14.19C53.19 13.2 51.57 11.49 51.426 11.364L50.454 12.066ZM41.778 15.342C43.236 14.496 44.172 13.668 45.324 12.372C45.432 12.426 45.558 12.444 45.684 12.444C45.846 12.444 45.972 12.39 45.972 12.282C45.972 11.94 44.55 11.22 44.55 11.22C44.46 11.364 43.344 13.236 40.374 14.55L41.778 15.342ZM46.008 6.756C47.232 5.136 47.97 3.498 48.402 2.382C49.068 3.75 50.004 5.316 51.228 6.756H46.008ZM66.78 5.01C67.482 5.262 68.58 5.37 69.732 5.37C71.172 5.37 72.684 5.208 73.566 5.028V3.534C72.288 3.822 70.758 4.002 69.426 4.002C68.4 4.002 67.482 3.894 66.834 3.66L66.78 5.01ZM66.816 10.302C66.132 10.878 66.132 11.508 66.132 11.616C66.132 12.894 67.932 14.154 70.794 14.154C71.802 14.154 72.954 13.992 74.196 13.632L74.412 11.94C73.08 12.462 71.802 12.678 70.704 12.678C68.796 12.678 67.482 12.048 67.482 11.454C67.482 11.31 67.5 11.256 67.986 10.698L66.816 10.302ZM63.648 14.784C63.702 14.766 63.72 14.73 63.72 14.694C63.72 14.676 63.72 14.658 63.72 14.64C63.666 14.352 63.648 14.064 63.648 13.794C63.648 13.056 63.774 12.426 63.846 12.21C64.08 11.202 64.656 9.888 64.998 8.916C64.728 8.358 64.44 7.62 64.44 7.62C64.332 7.908 63.036 11.076 62.946 11.076C62.838 11.076 62.838 10.5 62.838 10.338C62.838 9.942 62.874 9.528 62.892 9.456C63.126 6.99 64.098 3.732 64.314 2.598C64.692 2.58 64.836 2.49 64.836 2.382C64.836 2.292 64.746 2.184 64.566 2.13C64.53 2.112 63.072 1.68 62.892 1.68C62.856 1.68 62.838 1.698 62.82 1.788C62.694 4.092 61.866 6.432 61.668 9.942C61.65 10.266 61.632 10.608 61.632 10.95C61.632 12.354 61.848 13.83 62.478 15.054L63.648 14.784ZM81.288 7.818C83.556 7.224 85.968 5.082 89.532 5.082C92.484 5.082 92.772 7.26 92.772 7.926C92.772 10.806 88.992 12.642 83.916 12.642C83.736 12.642 83.538 12.642 83.358 12.642C83.358 12.642 84.186 13.416 84.834 14.082C84.852 14.082 84.87 14.082 84.888 14.082C89.208 14.082 94.392 12.066 94.392 7.998C94.392 7.314 94.248 3.786 89.568 3.786C85.644 3.786 82.962 5.838 80.208 6.27C80.136 6.288 80.1 6.306 80.1 6.342C80.1 6.36 80.118 6.396 80.154 6.432L81.288 7.818ZM114.606 11.4C114.606 11.346 114.606 11.292 114.606 11.238C114.606 8.898 112.806 5.46 110.862 3.75L109.494 4.182C111.528 6.072 112.932 9.168 112.932 11.67C112.932 11.76 112.932 11.85 112.932 11.94C112.932 11.958 112.932 11.976 112.932 11.976C112.932 12.048 112.95 12.084 112.986 12.084C113.022 12.084 113.04 12.066 113.076 12.048L114.606 11.4ZM106.596 9.474C105.786 11.58 105.282 12.498 104.58 12.498C104.436 12.498 104.274 12.462 104.094 12.372C102.546 11.634 102.186 10.122 102.186 8.214C102.186 8.016 102.204 7.818 102.204 7.602C102.222 6.792 102.276 5.46 102.294 4.668C102.6 4.614 102.744 4.488 102.744 4.38C102.744 4.29 102.618 4.182 102.438 4.164C101.988 4.092 100.818 3.984 100.818 3.984C100.782 3.966 100.764 3.966 100.746 3.966C100.692 3.966 100.656 4.002 100.656 4.074C100.71 4.794 100.71 5.244 100.71 7.584C100.728 9.834 101.052 12.57 103.5 13.794C103.878 13.974 104.256 14.1 104.652 14.1C105.534 14.1 106.488 13.47 107.604 11.4L106.596 9.474ZM119.807 5.46C121.985 5.154 124.829 4.146 127.871 3.732C125.081 5.622 123.803 8.034 123.803 9.834C123.803 13.632 128.033 14.694 129.743 14.946L131.075 13.398C128.663 13.326 125.225 12.606 125.225 9.6C125.225 7.206 128.267 4.524 129.995 3.858C130.679 3.588 131.237 3.462 132.083 3.426C132.209 3.48 132.299 3.516 132.371 3.516C132.479 3.516 132.533 3.462 132.533 3.354C132.533 3.12 131.993 1.878 131.831 1.878C131.759 1.878 131.687 1.914 131.597 1.95C131.543 1.968 131.471 1.986 131.381 2.004C125.045 2.706 121.769 3.822 119.141 3.822C119.033 3.822 118.979 3.876 118.979 3.93C118.979 3.966 118.997 4.002 119.015 4.038L119.807 5.46Z" fill="black"/>
</svg>
