<svg width="167" height="18" viewBox="0 0 167 18" fill="none" xmlns="http://www.w3.org/2000/svg">
<path d="M5.526 12.256H16.938V11.014H13.932V6.928H16.38V5.686H8.586V3.778C10.836 3.58 13.824 3.022 15.084 2.662C15.282 2.842 15.462 2.932 15.588 2.932C15.696 2.932 15.768 2.878 15.768 2.77C15.768 2.698 15.75 2.626 15.678 2.518C15.408 2.14 14.67 1.294 14.67 1.294C13.482 1.816 10.152 2.464 7.992 2.626C7.668 2.554 7.218 2.5 7.218 2.5V11.014H5.526V12.256ZM1.98 2.338C1.98 2.338 3.906 3.562 4.86 4.822L5.958 3.724C4.932 2.608 3.024 1.438 3.024 1.438L1.98 2.338ZM11.754 13.696C12.186 14.272 14.148 16.252 15.876 17.134L17.388 16.162C14.922 15.208 13.176 13.48 12.798 12.976L11.754 13.696ZM0.846 6.694C0.846 6.694 3.078 7.792 4.104 8.98L5.058 7.738C4.032 6.802 1.8 5.632 1.8 5.632L0.846 6.694ZM5.418 17.314C7.722 16.072 9.342 14.002 9.342 14.002C9.432 14.02 9.522 14.038 9.612 14.038C9.792 14.038 9.936 13.984 9.936 13.894C9.936 13.75 9.882 13.714 8.406 12.976C8.208 13.372 6.732 15.352 3.816 16.486L5.418 17.314ZM4.158 10.132C3.6 11.59 2.394 14.506 1.008 16.09C1.008 16.09 1.782 16.666 2.502 17.008C2.556 17.026 2.61 17.044 2.646 17.044C2.754 17.044 2.79 16.972 2.79 16.864C2.79 16.774 2.754 16.648 2.682 16.54C3.78 14.596 4.608 12.76 5.166 11.41L4.158 10.132ZM8.586 11.014V6.928H12.6V11.014H8.586ZM37.296 8.818C36.162 7.756 34.326 5.254 33.39 1.816L32.13 2.14C33.138 5.524 34.434 7.9 35.712 9.52L37.296 8.818ZM27.522 9.898C28.818 8.008 29.988 5.11 30.438 2.878C30.474 2.878 30.492 2.878 30.528 2.878C30.834 2.878 31.05 2.77 31.05 2.644C31.05 2.518 30.942 2.338 29.232 1.942C28.782 5.056 27.288 8.098 25.974 9.484L27.522 9.898ZM36.666 16.216C35.73 13.552 33.498 10.024 33.498 10.024C33.138 10.168 32.274 10.456 32.274 10.456C32.832 11.23 33.534 12.472 34.146 13.804C33.192 14.038 31.446 14.38 29.718 14.632C30.708 12.184 31.806 8.242 31.86 8.026C32.292 7.99 32.526 7.846 32.526 7.702C32.526 7.594 32.382 7.468 32.112 7.414C31.752 7.342 30.474 7.162 30.474 7.162C30.42 7.9 29.412 12.094 28.242 14.812C27.612 14.884 27 14.92 26.478 14.938C26.478 14.938 26.802 15.91 27.036 16.504C27.126 16.738 27.252 16.864 27.36 16.864C27.504 16.864 27.612 16.666 27.612 16.27C27.612 16.252 27.612 16.234 27.612 16.216C30.888 15.802 33.498 15.208 34.614 14.92C34.902 15.622 35.136 16.324 35.28 16.918L36.666 16.216ZM23.364 17.224H24.714V13.786C24.714 12.4 24.606 8.296 24.552 6.838C24.786 7.342 25.11 8.026 25.56 8.818L26.73 8.314C25.848 7.288 25.236 6.316 24.876 5.704H26.874V4.462H24.696V2.77C24.696 2.77 24.696 2.176 24.732 1.762C25.074 1.69 25.236 1.546 25.236 1.438C25.236 1.33 25.11 1.222 24.858 1.204C24.246 1.15 23.328 1.096 23.328 1.096C23.364 1.798 23.382 2.626 23.382 2.626V4.462H20.898V5.704H23.148C22.896 6.604 21.924 9.736 19.98 11.77L21.366 12.22C22.392 10.852 23.148 8.71 23.49 7.63C23.436 9.232 23.364 12.004 23.364 13.696V17.224ZM41.418 17.26H42.75V16.036H53.712V17.134H55.062V6.01H50.274V3.67H55.926V2.338H40.554V3.67H45.648C45.666 4.3 45.684 5.272 45.684 6.01H41.418V17.26ZM47.016 6.01C47.016 5.182 47.034 3.994 47.034 3.67H48.924V6.01H47.016ZM42.75 14.722V11.95L44.19 12.598C46.332 11.14 46.962 9.178 46.998 7.252H48.924V10.726C48.924 12.004 49.896 12.112 50.814 12.112C52.092 12.112 53.244 12.112 53.496 9.79L52.272 8.53C52.218 10.492 52.02 10.87 50.976 10.87C50.418 10.87 50.274 10.744 50.274 10.438V7.252H53.712V14.722H42.75ZM42.75 7.252H45.684C45.63 8.8 45.162 10.546 42.75 11.68V7.252ZM60.372 3.688H75.366V2.464H68.472V2.14C68.472 2.14 68.49 1.87 68.508 1.726C68.922 1.654 69.084 1.528 69.084 1.402C69.084 1.294 68.976 1.042 67.14 1.042C67.176 1.33 67.194 1.852 67.194 1.852V2.464H60.372V3.688ZM63.486 8.44H64.728V8.026H71.01V8.422H72.216V4.732H63.486V8.44ZM61.128 17.314H62.46V10.276H73.422V14.866C73.422 15.406 73.332 15.73 72.198 15.73C71.748 15.73 71.172 15.694 70.38 15.586L71.352 17.062C71.568 17.062 71.766 17.08 71.982 17.08C73.386 17.08 74.754 16.81 74.754 14.956C74.754 14.65 74.718 13.768 74.718 13.462L74.7 9.124H61.128V17.314ZM64.422 15.802H65.646V14.596H70.2V15.136H71.352V11.32H64.422V15.802ZM64.728 6.964L64.71 5.74H71.01V6.964H64.728ZM65.646 13.57L65.628 12.256H70.2V13.57H65.646ZM88.074 5.02C88.47 4.534 88.83 3.994 89.118 3.472H90.414C90.558 3.724 91.026 4.588 91.296 5.488L92.484 5.038C92.232 4.498 91.89 3.886 91.656 3.472H95.166V2.374H89.712C89.82 2.158 89.91 1.96 89.982 1.798C90.36 1.762 90.486 1.672 90.486 1.564C90.486 1.474 90.378 1.366 90.252 1.33C89.91 1.204 88.938 0.915999 88.938 0.915999C88.848 1.456 88.092 3.328 86.634 4.66L88.074 5.02ZM80.856 5.722C81.45 5.11 82.062 4.246 82.566 3.472H83.394C83.538 3.76 83.988 4.642 84.222 5.506L85.428 5.092C85.194 4.534 84.834 3.886 84.6 3.472H87.444V2.374H83.214C83.322 2.194 83.412 2.032 83.484 1.906C83.952 1.888 84.132 1.744 84.132 1.6C84.132 1.528 84.06 1.456 83.97 1.42C83.628 1.276 82.674 0.987999 82.674 0.987999C82.548 1.546 81.216 3.85 79.308 5.254L80.856 5.722ZM80.118 9.988H94.914V8.818H88.002V7.378H93.834V6.19H88.002C88.002 6.082 88.002 5.884 88.038 5.722C88.344 5.668 88.488 5.524 88.488 5.416C88.488 5.326 88.398 5.236 88.218 5.2C87.876 5.146 86.652 5.092 86.652 5.092C86.706 5.47 86.706 5.776 86.706 5.956C86.706 6.028 86.706 6.082 86.706 6.19H81.288V7.378H86.706V8.818H80.118V9.988ZM80.37 12.796H90.126V14.92V14.938C90.126 15.55 89.64 15.802 88.704 15.802C88.182 15.802 87.516 15.73 86.724 15.604L87.714 17.098C87.948 17.116 88.164 17.116 88.38 17.116C90.09 17.116 91.422 16.738 91.422 15.082C91.422 14.956 91.404 14.29 91.404 13.408V12.796H94.842V11.572H91.404C91.404 11.446 91.404 11.23 91.44 11.014C91.764 10.96 91.926 10.816 91.926 10.708C91.926 10.582 91.782 10.474 91.494 10.456C91.098 10.42 90.072 10.33 90.072 10.33C90.126 10.852 90.126 11.248 90.126 11.464V11.572H80.37V12.796ZM82.854 13.966C82.854 13.966 84.564 14.83 85.914 16.162L86.688 15.028C85.41 13.894 83.628 13.048 83.628 13.048L82.854 13.966ZM99.756 8.404H101.178V5.614L112.914 5.632V8.44H114.372V4.372H110.898C111.312 3.796 111.96 2.878 112.284 2.176C112.302 2.176 112.32 2.176 112.338 2.176C112.734 2.176 112.914 2.068 112.914 1.96C112.914 1.87 112.824 1.78 112.662 1.708C112.104 1.456 111.078 1.222 111.078 1.222C110.7 2.518 109.89 3.778 109.476 4.39H107.028C107.406 4.246 108.09 4.012 108.09 3.994C107.73 2.41 106.758 1.222 106.758 1.222L105.516 1.528C105.516 1.528 106.38 2.716 106.758 4.39H103.41C103.752 4.228 104.418 3.922 104.418 3.904C103.824 2.482 102.69 1.33 102.69 1.33L101.466 1.816C101.466 1.816 102.546 2.914 103.158 4.39H99.756V8.404ZM99.09 12.202H107.442C107.496 12.58 107.496 12.94 107.496 13.3C107.496 13.318 107.496 13.318 107.496 13.336C107.496 15.118 106.56 15.604 105.498 15.604C104.778 15.604 103.968 15.37 103.374 15.154L104.346 16.954C104.616 17.026 104.976 17.08 105.372 17.08C106.848 17.08 108.9 16.36 108.9 13.336C108.9 13.318 108.9 13.3 108.9 13.282C108.9 12.94 108.882 12.58 108.828 12.202H115.092L115.11 10.87H108.432C108.36 10.708 108.27 10.564 108.162 10.402C109.116 9.844 111.042 8.44 111.402 8.098C111.654 8.062 111.816 8.008 111.816 7.864C111.816 7.81 111.78 7.738 111.708 7.63C111.6 7.522 110.934 6.892 110.79 6.892C110.682 6.892 110.61 7 110.52 7H102.51V8.224L109.35 8.17C108.828 8.656 108.036 9.196 107.388 9.592C107.208 9.448 106.992 9.304 106.758 9.178L105.534 9.7C106.218 10.06 106.668 10.456 106.956 10.87H99.09V12.202ZM124.398 4.39H134.478V3.202H129.798V2.248C129.798 2.248 129.816 1.978 129.834 1.78C130.23 1.708 130.41 1.564 130.41 1.456C130.41 1.276 130.05 1.168 128.412 1.096C128.448 1.456 128.466 1.96 128.466 1.96V3.202H124.398V4.39ZM129.942 5.488C129.942 5.488 131.418 7.594 133.254 8.962L134.55 8.08C132.102 6.622 130.986 4.804 130.986 4.804L129.942 5.488ZM125.28 9.196C126.954 7.792 127.98 5.902 127.98 5.902C128.088 5.92 128.196 5.938 128.286 5.938C128.484 5.938 128.61 5.866 128.61 5.776C128.61 5.686 128.502 5.56 128.286 5.416C127.98 5.218 127.116 4.786 127.116 4.786C127.116 4.786 126.288 6.856 124.002 8.53L125.28 9.196ZM124.614 17.17C126.36 16.504 127.944 15.316 129.222 13.786C130.59 15.334 132.12 16.378 133.596 16.99L135.144 15.928C133.182 15.298 131.4 14.272 130.014 12.76C130.788 11.644 131.418 10.402 131.886 9.034C131.922 9.034 131.958 9.034 131.994 9.034C132.246 9.034 132.426 8.926 132.426 8.782C132.426 8.62 131.976 8.44 130.752 7.99C130.464 9.34 129.942 10.6 129.204 11.734C128.466 10.708 127.89 9.466 127.494 8.026L126.288 8.638C126.864 10.258 127.602 11.626 128.43 12.778C127.08 14.398 125.226 15.622 122.958 16.216L124.614 17.17ZM121.158 17.278H122.472V14.362C122.472 12.724 122.364 9.34 122.328 7.144C122.544 7.9 122.958 9.214 123.444 10.294L124.668 9.934C123.354 8.134 122.724 6.28 122.544 5.686H124.29V4.48H122.436V2.446C122.436 2.446 122.454 2.068 122.472 1.834C122.796 1.744 122.94 1.618 122.94 1.51C122.94 1.276 122.364 1.186 121.14 1.132C121.194 1.51 121.194 2.248 121.194 2.248V4.48H119.016V5.686H121.068C120.816 6.694 119.952 9.556 118.152 11.86L119.484 12.166C120.276 10.888 120.906 9.034 121.284 7.828C121.23 9.772 121.158 13.048 121.158 14.254V17.278ZM141.264 16H143.01V9.754H149.67V16H151.416V2.878H149.67V8.296H143.01V2.878H141.264V16ZM156.78 16H158.508V10.852H161.442C164.178 10.852 166.302 9.502 166.302 6.82C166.302 4.282 165.006 2.878 161.424 2.878H156.78V16ZM158.508 9.394V4.336H161.424C163.8 4.336 164.538 5.254 164.538 6.856C164.538 8.638 163.26 9.394 161.388 9.394H158.508Z" fill="black"/>
</svg>
