<svg width="99" height="46" viewBox="0 0 99 46" fill="none" xmlns="http://www.w3.org/2000/svg">
<path d="M13.944 4.584C13.968 4.128 14.16 3.96 14.616 3.96H15.576C16.056 3.96 16.248 4.152 16.248 4.632V6.696C16.248 7.2 16.224 7.728 16.224 8.256C16.224 9.6 16.92 10.008 18.192 10.008H20.04C21.336 10.008 21.84 9.768 22.296 8.424C22.536 7.728 22.752 6.744 22.752 6.024C22.752 5.376 21.624 5.256 21.144 5.256C20.616 5.256 20.52 5.448 20.496 5.784C20.424 7.824 20.04 7.8 19.704 7.8H19.104C18.504 7.8 18.504 7.464 18.504 6.72V4.128C18.504 3.72 18.528 3.336 18.528 2.928C18.528 2.088 18.36 1.776 17.424 1.776C17.064 1.776 16.728 1.8 16.392 1.8H13.704C13.368 1.8 13.008 1.776 12.648 1.776C11.76 1.776 11.688 2.184 11.688 2.976V3.264C11.688 5.496 11.52 7.296 9.888 9.024C9.768 9.144 9.456 9.432 9.456 9.6C9.456 10.08 10.704 11.016 11.064 11.016C11.688 11.016 12.936 8.88 13.176 8.328C13.776 7.056 13.872 5.952 13.944 4.584ZM16.032 15.84C15.912 15.96 15.792 16.056 15.624 16.056C15.432 16.056 15.312 15.96 15.192 15.816C14.808 15.36 14.472 14.832 14.184 14.304C14.136 14.232 14.112 14.184 14.112 14.088C14.112 13.824 14.328 13.752 14.544 13.728H16.728C17.136 13.728 17.376 13.752 17.376 13.968C17.376 14.328 16.32 15.528 16.032 15.84ZM15 19.656C15.168 19.56 15.312 19.488 15.504 19.488C15.72 19.488 15.888 19.56 16.032 19.68C17.352 20.64 19.08 21.552 20.592 22.176C20.808 22.272 21.312 22.464 21.528 22.464C22.128 22.464 22.776 21.144 22.776 20.688C22.776 20.352 22.392 20.28 22.152 20.208C20.664 19.752 19.104 19.08 17.832 18.192C17.688 18.096 17.592 17.976 17.592 17.784C17.592 17.592 17.664 17.496 17.76 17.376C18.6 16.536 19.512 15.384 20.088 14.352C20.256 14.064 20.64 13.368 20.64 13.032C20.64 12.696 20.04 11.496 18.984 11.496C18.312 11.496 17.64 11.52 16.968 11.52H13.296C12.456 11.52 11.616 11.448 10.752 11.448C10.176 11.448 10.176 11.688 10.176 12.624C10.176 13.488 10.152 13.776 10.728 13.776H11.136C11.424 13.776 11.568 14.016 11.688 14.256C12.216 15.408 12.624 16.248 13.416 17.232C13.512 17.376 13.56 17.472 13.56 17.64C13.56 17.856 13.44 17.952 13.272 18.072C11.952 18.936 10.032 19.632 8.52 20.136C8.304 20.208 8.088 20.304 8.088 20.568C8.088 20.928 8.76 22.344 9.336 22.344C9.648 22.344 10.176 22.128 10.464 22.008C12.048 21.36 13.584 20.616 15 19.656ZM6.96 4.416C6.96 3.744 6.96 3 6.984 2.352C6.984 2.112 6.984 1.872 7.2 1.728C7.344 1.632 7.536 1.56 7.536 1.392C7.536 1.128 7.104 1.104 6.912 1.104C6.48 1.08 5.328 1.008 4.92 1.008C4.656 1.008 4.464 1.056 4.464 1.368V1.584C4.56 2.256 4.56 2.928 4.56 3.6V4.584C4.56 5.04 4.344 5.232 3.888 5.232C3.24 5.256 2.616 5.184 2.112 5.184C1.56 5.184 1.56 5.496 1.56 6.336C1.56 7.152 1.536 7.488 2.112 7.488C2.64 7.488 3.288 7.416 3.888 7.44C4.344 7.44 4.56 7.632 4.56 8.112V11.4C4.512 11.904 4.44 12.096 3.96 12.288C3.264 12.576 2.52 12.792 1.8 12.984C1.56 13.056 1.2 13.104 1.2 13.392C1.2 13.56 1.296 13.8 1.344 13.944C1.464 14.28 1.56 14.568 1.632 14.808C1.848 15.48 1.944 15.792 2.208 15.792C2.352 15.792 2.472 15.624 2.52 15.528C2.616 15.288 2.616 15.24 3.072 15.072C3.264 15 3.528 14.904 3.936 14.76C4.032 14.712 4.056 14.712 4.152 14.712C4.44 14.712 4.536 14.952 4.56 15.192V18.408C4.56 19.608 4.584 20.016 3.528 20.016C3.312 20.016 3.12 19.992 2.904 19.992C2.832 19.968 2.712 19.968 2.616 19.968C2.184 19.968 2.088 20.256 2.088 20.616C2.088 22.488 2.592 22.44 3.432 22.44C5.28 22.44 7.008 22.224 7.008 19.968C7.008 19.416 6.96 18.864 6.96 18.336V14.184C6.96 13.68 7.104 13.512 7.536 13.272C9.576 12.408 9.528 12.312 9.528 11.76C9.528 11.4 9.48 10.248 8.976 10.248C8.832 10.248 8.304 10.512 7.896 10.68C7.752 10.752 7.512 10.896 7.344 10.896C6.984 10.896 6.984 10.56 6.96 10.44V8.112C6.96 7.632 7.152 7.44 7.632 7.44C8.184 7.416 8.736 7.488 9.288 7.488C9.864 7.488 9.84 7.128 9.84 6.336C9.84 5.52 9.864 5.184 9.288 5.184C8.736 5.184 8.184 5.256 7.632 5.232C7.152 5.208 6.96 5.04 6.96 4.584V4.416ZM46.752 20.496C46.752 20.328 46.656 20.232 46.536 20.136C46.128 19.704 44.976 18.792 44.448 18.384C44.016 18.048 42.168 16.608 41.76 16.608C41.28 16.608 40.344 17.544 40.344 17.952C40.344 18.192 40.584 18.336 40.752 18.432C42.144 19.368 43.488 20.376 44.688 21.528C44.856 21.672 45.048 21.888 45.288 21.888C45.648 21.888 46.752 20.88 46.752 20.496ZM33.816 17.904C33.816 17.664 33.504 17.52 33.072 17.256C33 17.232 32.88 17.16 32.736 17.064C32.352 16.848 31.824 16.536 31.656 16.536C31.512 16.536 31.416 16.656 31.32 16.752C30.12 18.048 28.704 19.128 27.168 20.016C27 20.112 26.808 20.208 26.808 20.472C26.808 20.784 27.84 21.84 28.272 21.84C29.088 21.84 32.232 19.128 32.88 18.456C32.976 18.336 33.12 18.192 33.264 18.192C33.408 18.192 33.816 18.216 33.816 17.904ZM41.904 13.224C42.72 13.224 43.536 13.272 44.352 13.272C44.904 13.272 44.88 13.032 44.88 12.312C44.88 11.568 44.904 11.328 44.328 11.328C43.512 11.328 42.72 11.376 41.904 11.376H31.896C31.104 11.376 30.288 11.328 29.472 11.328C28.896 11.328 28.92 11.568 28.92 12.312C28.92 13.032 28.896 13.272 29.448 13.272C30.264 13.272 31.08 13.224 31.896 13.224H41.904ZM35.688 18.72C35.688 19.968 35.664 20.16 34.272 20.16C34.032 20.16 33.792 20.136 33.552 20.112C33.456 20.112 33.288 20.088 33.168 20.088C32.784 20.088 32.712 20.376 32.712 20.736C32.712 22.464 33.336 22.512 34.32 22.512C35.952 22.512 38.208 22.296 38.208 20.184C38.208 19.632 38.16 19.104 38.16 18.552V17.016C38.16 16.56 38.352 16.344 38.832 16.344H44.328C45.192 16.344 46.056 16.392 46.944 16.392C47.496 16.392 47.472 16.152 47.472 15.408C47.472 14.64 47.496 14.4 46.92 14.4C46.056 14.4 45.192 14.448 44.328 14.448H29.448C28.584 14.448 27.72 14.4 26.856 14.4C26.28 14.4 26.304 14.64 26.304 15.408C26.304 16.152 26.28 16.392 26.832 16.392C27.72 16.392 28.584 16.344 29.448 16.344H35.016C35.496 16.344 35.688 16.56 35.688 17.016V18.72ZM40.344 7.464C40.392 7.056 40.608 6.816 41.016 6.816H42.264C42.672 6.816 42.888 7.056 42.936 7.464V7.68C42.888 8.112 42.672 8.304 42.264 8.352H41.016C40.608 8.304 40.392 8.112 40.344 7.68V7.464ZM35.592 7.464C35.592 7.056 35.832 6.816 36.24 6.816H37.488C37.896 6.816 38.112 7.056 38.16 7.464V7.68C38.112 8.112 37.896 8.304 37.488 8.352H36.24C35.832 8.304 35.592 8.112 35.592 7.68V7.464ZM32.736 6.816C33.144 6.816 33.384 7.056 33.384 7.464V7.68C33.384 8.112 33.144 8.304 32.736 8.352H31.44C31.032 8.304 30.792 8.112 30.792 7.68V7.464C30.792 7.056 31.032 6.816 31.44 6.816H32.736ZM37.584 3.72C37.92 3.72 38.16 3.936 38.16 4.272V4.416C38.16 4.752 37.92 4.992 37.584 4.992H36.144C35.808 4.992 35.592 4.752 35.592 4.416V4.272C35.592 3.936 35.808 3.72 36.144 3.72H37.584ZM40.344 4.272C40.344 3.888 40.512 3.72 40.92 3.72H43.56C44.544 3.72 45.504 3.768 46.464 3.768C47.088 3.768 47.064 3.528 47.064 2.76C47.064 1.944 47.088 1.704 46.464 1.704C45.504 1.704 44.544 1.776 43.56 1.776H30.24C29.28 1.776 28.32 1.704 27.36 1.704C26.712 1.704 26.736 1.944 26.736 2.76C26.736 3.528 26.736 3.768 27.336 3.768C28.32 3.768 29.28 3.72 30.24 3.72H32.832C33.216 3.72 33.384 3.888 33.384 4.272V4.416C33.384 4.824 33.216 4.992 32.832 4.992H31.824C31.128 4.992 30.456 4.944 29.76 4.944C29.16 4.944 28.464 5.016 28.464 5.784C28.464 6 28.488 6.312 28.488 6.792V8.376C28.488 8.856 28.464 9.168 28.464 9.384C28.464 10.176 29.232 10.224 29.832 10.224C30.48 10.224 31.152 10.176 31.824 10.176H41.904C42.576 10.176 43.272 10.224 43.944 10.224C44.544 10.224 45.264 10.152 45.264 9.384C45.264 9.12 45.24 8.856 45.24 8.376V6.792C45.24 6.312 45.264 6.048 45.264 5.784C45.264 4.992 44.52 4.944 43.92 4.944C43.248 4.944 42.576 4.992 41.904 4.992H40.92C40.512 4.992 40.344 4.824 40.344 4.416V4.272ZM54.6 4.608C53.664 4.608 52.728 4.536 51.792 4.536C51.192 4.536 51.24 4.824 51.24 5.76C51.24 6.696 51.192 6.984 51.792 6.984C52.728 6.984 53.664 6.912 54.6 6.912H58.464C58.896 6.96 59.088 7.08 59.136 7.536V8.016C59.136 10.32 58.752 12.744 57.72 14.832C56.616 17.016 54.72 18.816 52.584 19.992C52.008 20.304 51.792 20.424 51.792 20.712C51.792 21.336 52.656 22.368 53.28 22.368C53.928 22.368 55.392 21.24 55.92 20.808C58.416 18.792 60.192 16.32 61.032 13.224C61.152 12.744 61.368 12.6 61.824 12.6H66.24C67.392 12.6 67.584 12.6 67.584 13.32C67.584 14.736 67.128 17.664 66.576 18.96C66.168 19.92 65.544 20.112 64.56 20.112C64.008 20.112 63.336 19.992 62.952 19.992C62.496 19.992 62.424 20.304 62.424 20.832C62.424 22.68 63.24 22.536 64.608 22.536C66.24 22.536 67.656 22.464 68.472 20.808C69.552 18.624 70.176 14.136 70.176 11.664C70.176 10.848 70.056 10.248 68.904 10.248C68.328 10.248 67.776 10.296 67.224 10.296H62.184C61.728 10.296 61.56 10.104 61.56 9.648C61.584 9.144 61.608 8.64 61.608 8.16C61.608 7.968 61.632 7.8 61.8 7.704C61.992 7.584 62.208 7.464 62.208 7.248C62.208 7.104 62.112 7.032 61.992 6.984C61.968 6.96 61.968 6.936 62.016 6.912H68.808C69.768 6.912 70.704 6.984 71.64 6.984C72.24 6.984 72.192 6.672 72.192 5.76C72.192 4.848 72.24 4.536 71.64 4.536C70.704 4.536 69.768 4.608 68.808 4.608H63.576C63.096 4.608 62.904 4.392 62.904 3.936C62.88 2.232 62.904 2.112 63.216 1.92C63.384 1.824 63.576 1.728 63.576 1.536C63.576 1.248 63.192 1.248 63 1.224C62.592 1.176 61.056 1.032 60.72 1.032C60.48 1.032 60.288 1.104 60.288 1.368V1.608C60.36 2.088 60.384 2.592 60.384 3.096V3.936C60.384 4.392 60.192 4.608 59.712 4.608H54.6ZM82.056 13.896C82.056 13.44 80.592 12.576 80.376 12.576C80.208 12.576 80.136 12.72 80.064 12.936C79.176 14.856 77.424 18.192 76.104 19.824C76.008 19.968 75.816 20.184 75.816 20.352C75.816 20.568 76.608 21.192 76.848 21.384C77.208 21.672 77.832 22.176 78 22.176C78.168 22.176 78.264 22.008 78.264 21.864C78.264 21.696 78.192 21.504 78.192 21.336C78.192 21.12 78.36 20.856 78.48 20.664C78.96 19.848 82.056 14.448 82.056 13.896ZM81.888 4.152C81.888 3.984 81.768 3.864 81.648 3.744C81.312 3.48 80.4 2.808 80.016 2.544C79.68 2.28 78.576 1.416 78.216 1.416C77.76 1.416 76.896 2.736 76.896 2.976C76.896 3.192 77.088 3.288 77.328 3.432C78.12 3.936 79.32 4.776 79.584 5.04C79.92 5.352 80.424 5.664 80.544 5.664C81.072 5.664 81.888 4.416 81.888 4.152ZM80.832 9.408C80.832 9.048 79.464 8.112 79.152 7.872C78.816 7.608 77.376 6.576 77.064 6.576C76.656 6.576 75.792 7.776 75.792 8.136C75.792 8.352 75.984 8.424 76.272 8.616C77.184 9.216 78.072 9.864 78.912 10.56C79.08 10.68 79.344 10.944 79.536 10.944C80.04 10.944 80.832 9.696 80.832 9.408ZM92.352 18.504C90.624 18.696 88.896 18.84 87.168 18.96C86.976 18.96 86.784 18.888 86.784 18.648C86.784 18.576 86.832 18.528 86.856 18.456C87.696 16.992 88.464 15.48 89.232 13.992C89.304 13.848 89.424 13.824 89.568 13.8C89.736 13.8 90.048 13.776 90.048 13.536C90.048 13.32 89.712 13.176 89.496 13.08C89.472 13.056 89.448 13.032 89.448 13.008C89.448 12.984 89.496 12.96 89.52 12.96H93.768C94.704 12.96 95.64 13.008 96.576 13.008C97.2 13.008 97.176 12.768 97.176 11.904C97.176 11.04 97.2 10.776 96.576 10.776C95.64 10.776 94.704 10.824 93.768 10.824H91.416C90.936 10.824 90.744 10.632 90.744 10.152V7.944C90.744 7.464 90.936 7.272 91.416 7.272H93.384C94.248 7.272 95.088 7.344 95.952 7.344C96.456 7.344 96.432 7.056 96.432 6.192C96.432 5.304 96.456 5.04 95.928 5.04C95.256 5.04 94.272 5.088 93.384 5.088H91.416C90.936 5.088 90.744 4.896 90.744 4.416V3.216C90.744 2.496 90.768 2.16 91.008 1.968C91.176 1.848 91.32 1.776 91.32 1.608C91.32 1.344 90.984 1.32 90.792 1.296C90.384 1.248 88.944 1.104 88.608 1.104C88.368 1.104 88.176 1.152 88.176 1.44C88.176 1.512 88.176 1.608 88.2 1.68C88.272 2.184 88.272 2.832 88.272 3.456V4.416C88.272 4.896 88.08 5.088 87.6 5.088H85.992C85.104 5.088 84.144 5.04 83.448 5.04C82.896 5.04 82.944 5.352 82.944 6.216C82.944 7.032 82.92 7.344 83.448 7.344C84.288 7.344 85.152 7.272 85.992 7.272H87.6C88.08 7.272 88.272 7.464 88.272 7.944V10.152C88.272 10.632 88.08 10.824 87.6 10.824H85.488C84.552 10.824 83.616 10.776 82.68 10.776C82.056 10.776 82.08 11.016 82.08 11.904C82.08 12.768 82.056 13.008 82.68 13.008C83.616 13.008 84.552 12.96 85.488 12.96H86.328C86.568 12.984 86.784 13.08 86.784 13.344C86.784 13.44 86.76 13.512 86.712 13.584C85.896 15.432 85.176 16.848 84.24 18.624C84.024 19.032 83.832 19.128 83.352 19.176C82.992 19.224 82.632 19.224 82.272 19.224C81.648 19.224 81.384 19.224 81.384 19.584C81.384 19.824 81.696 20.904 81.792 21.192C81.984 21.864 82.056 22.128 82.368 22.128C82.584 22.128 82.632 21.984 82.728 21.816C82.848 21.552 82.92 21.504 83.04 21.504C86.472 21.216 89.88 20.952 93.312 20.496H93.48C93.864 20.496 94.032 20.688 94.176 21C94.296 21.288 94.416 21.576 94.488 21.768C94.752 22.416 94.824 22.632 95.16 22.632C95.544 22.632 97.104 22.08 97.104 21.576C97.104 21.072 95.424 17.712 95.088 17.064C94.728 16.392 94.128 15.36 93.672 14.76C93.576 14.616 93.432 14.52 93.264 14.52C92.952 14.52 91.368 15.024 91.368 15.48C91.368 15.648 92.112 16.896 92.496 17.544C92.568 17.688 92.76 17.952 92.76 18.12C92.76 18.36 92.568 18.48 92.352 18.504Z" fill="black"/>
<path d="M5.93506 38.6045V39.8994H2.04395V38.6045H5.93506ZM2.40576 34.7578V44H0.863281V34.7578H2.40576ZM7.14111 34.7578V44H5.60498V34.7578H7.14111ZM15.6132 38.6235V40.1978C15.6132 40.8494 15.537 41.4207 15.3847 41.9116C15.2366 42.4025 15.0208 42.813 14.7372 43.1431C14.4579 43.4689 14.1194 43.7144 13.7216 43.8794C13.328 44.0444 12.8879 44.127 12.4013 44.127C11.9189 44.127 11.4788 44.0444 11.081 43.8794C10.6874 43.7144 10.3468 43.4689 10.059 43.1431C9.77548 42.813 9.55542 42.4025 9.39885 41.9116C9.2465 41.4207 9.17033 40.8494 9.17033 40.1978V38.6235C9.17033 37.9634 9.2465 37.3857 9.39885 36.8906C9.55119 36.3913 9.76913 35.9744 10.0527 35.6401C10.3404 35.3058 10.6811 35.054 11.0746 34.8848C11.4724 34.7155 11.9104 34.6309 12.3886 34.6309C12.8752 34.6309 13.3154 34.7155 13.7089 34.8848C14.1067 35.054 14.4474 35.3058 14.7309 35.6401C15.0144 35.9744 15.2323 36.3913 15.3847 36.8906C15.537 37.3857 15.6132 37.9634 15.6132 38.6235ZM14.0834 40.1978V38.6108C14.0834 38.1411 14.0453 37.7391 13.9692 37.4048C13.8972 37.0662 13.7893 36.7912 13.6454 36.5796C13.5015 36.3638 13.3238 36.2051 13.1122 36.1035C12.9049 35.9977 12.6637 35.9448 12.3886 35.9448C12.122 35.9448 11.8829 35.9977 11.6713 36.1035C11.464 36.2051 11.2862 36.3638 11.1381 36.5796C10.9942 36.7912 10.8842 37.0662 10.808 37.4048C10.7361 37.7391 10.7001 38.1411 10.7001 38.6108V40.1978C10.7001 40.659 10.7382 41.0568 10.8144 41.3911C10.8905 41.7212 11.0006 41.992 11.1445 42.2036C11.2926 42.411 11.4724 42.5654 11.684 42.667C11.8956 42.7686 12.1347 42.8193 12.4013 42.8193C12.6721 42.8193 12.9133 42.7686 13.1249 42.667C13.3365 42.5654 13.5121 42.411 13.6518 42.2036C13.7957 41.992 13.9036 41.7212 13.9755 41.3911C14.0474 41.0568 14.0834 40.659 14.0834 40.1978ZM19.5975 41.9751L21.0765 34.7578H21.9906L21.9525 36.5669L20.3529 44H19.3944L19.5975 41.9751ZM18.658 34.7578L19.8324 41.9243L19.8831 44H18.8739L17.1283 34.7578H18.658ZM23.5965 41.8989L24.7581 34.7578H26.2816L24.5423 44H23.533L23.5965 41.8989ZM22.3587 34.7578L23.825 41.9941L24.0155 44H23.057L21.4954 36.5605L21.4574 34.7578H22.3587ZM34.3771 34.7578V44H32.841V34.7578H34.3771ZM36.7321 34.7578V36.0527H30.5114V34.7578H36.7321ZM44.4996 38.6235V40.1978C44.4996 40.8494 44.4234 41.4207 44.2711 41.9116C44.123 42.4025 43.9072 42.813 43.6236 43.1431C43.3443 43.4689 43.0058 43.7144 42.608 43.8794C42.2145 44.0444 41.7744 44.127 41.2877 44.127C40.8053 44.127 40.3652 44.0444 39.9674 43.8794C39.5738 43.7144 39.2332 43.4689 38.9454 43.1431C38.6619 42.813 38.4418 42.4025 38.2853 41.9116C38.1329 41.4207 38.0567 40.8494 38.0567 40.1978V38.6235C38.0567 37.9634 38.1329 37.3857 38.2853 36.8906C38.4376 36.3913 38.6555 35.9744 38.9391 35.6401C39.2268 35.3058 39.5675 35.054 39.961 34.8848C40.3588 34.7155 40.7968 34.6309 41.275 34.6309C41.7617 34.6309 42.2018 34.7155 42.5953 34.8848C42.9931 35.054 43.3338 35.3058 43.6173 35.6401C43.9008 35.9744 44.1188 36.3913 44.2711 36.8906C44.4234 37.3857 44.4996 37.9634 44.4996 38.6235ZM42.9698 40.1978V38.6108C42.9698 38.1411 42.9317 37.7391 42.8556 37.4048C42.7836 37.0662 42.6757 36.7912 42.5318 36.5796C42.388 36.3638 42.2102 36.2051 41.9986 36.1035C41.7913 35.9977 41.5501 35.9448 41.275 35.9448C41.0084 35.9448 40.7693 35.9977 40.5577 36.1035C40.3504 36.2051 40.1726 36.3638 40.0245 36.5796C39.8806 36.7912 39.7706 37.0662 39.6944 37.4048C39.6225 37.7391 39.5865 38.1411 39.5865 38.6108V40.1978C39.5865 40.659 39.6246 41.0568 39.7008 41.3911C39.777 41.7212 39.887 41.992 40.0309 42.2036C40.179 42.411 40.3588 42.5654 40.5704 42.667C40.782 42.7686 41.0211 42.8193 41.2877 42.8193C41.5585 42.8193 41.7997 42.7686 42.0113 42.667C42.2229 42.5654 42.3985 42.411 42.5382 42.2036C42.6821 41.992 42.79 41.7212 42.8619 41.3911C42.9339 41.0568 42.9698 40.659 42.9698 40.1978ZM52.684 42.2861L54.6518 34.7578H56.3212L53.56 44H52.4174L52.684 42.2861ZM50.9638 34.7578L52.9189 42.2861L53.2045 44H52.062L49.3007 34.7578H50.9638ZM64.0189 38.6235V40.1978C64.0189 40.8494 63.9427 41.4207 63.7904 41.9116C63.6423 42.4025 63.4265 42.813 63.1429 43.1431C62.8636 43.4689 62.5251 43.7144 62.1273 43.8794C61.7337 44.0444 61.2936 44.127 60.807 44.127C60.3246 44.127 59.8845 44.0444 59.4867 43.8794C59.0931 43.7144 58.7525 43.4689 58.4647 43.1431C58.1812 42.813 57.9611 42.4025 57.8046 41.9116C57.6522 41.4207 57.576 40.8494 57.576 40.1978V38.6235C57.576 37.9634 57.6522 37.3857 57.8046 36.8906C57.9569 36.3913 58.1748 35.9744 58.4584 35.6401C58.7461 35.3058 59.0868 35.054 59.4803 34.8848C59.8781 34.7155 60.3161 34.6309 60.7943 34.6309C61.2809 34.6309 61.7211 34.7155 62.1146 34.8848C62.5124 35.054 62.8531 35.3058 63.1366 35.6401C63.4201 35.9744 63.638 36.3913 63.7904 36.8906C63.9427 37.3857 64.0189 37.9634 64.0189 38.6235ZM62.4891 40.1978V38.6108C62.4891 38.1411 62.451 37.7391 62.3749 37.4048C62.3029 37.0662 62.195 36.7912 62.0511 36.5796C61.9073 36.3638 61.7295 36.2051 61.5179 36.1035C61.3106 35.9977 61.0694 35.9448 60.7943 35.9448C60.5277 35.9448 60.2886 35.9977 60.077 36.1035C59.8697 36.2051 59.6919 36.3638 59.5438 36.5796C59.3999 36.7912 59.2899 37.0662 59.2137 37.4048C59.1418 37.7391 59.1058 38.1411 59.1058 38.6108V40.1978C59.1058 40.659 59.1439 41.0568 59.2201 41.3911C59.2962 41.7212 59.4063 41.992 59.5502 42.2036C59.6983 42.411 59.8781 42.5654 60.0897 42.667C60.3013 42.7686 60.5404 42.8193 60.807 42.8193C61.0778 42.8193 61.319 42.7686 61.5306 42.667C61.7422 42.5654 61.9178 42.411 62.0575 42.2036C62.2014 41.992 62.3093 41.7212 62.3812 41.3911C62.4532 41.0568 62.4891 40.659 62.4891 40.1978ZM69.0252 34.7578V44H67.489V34.7578H69.0252ZM71.3802 34.7578V36.0527H65.1595V34.7578H71.3802ZM78.2019 42.7114V44H74.1901V42.7114H78.2019ZM74.5964 34.7578V44H73.0539V34.7578H74.5964ZM77.6623 38.6045V39.874H74.1901V38.6045H77.6623ZM78.1638 34.7578V36.0527H74.1901V34.7578H78.1638Z" fill="#353535"/>
</svg>
