<svg width="209" height="38" viewBox="0 0 209 38" fill="none" xmlns="http://www.w3.org/2000/svg">
<path d="M15.732 27.49V28.174C15.808 28.82 16.15 29.162 16.796 29.238H20.786C21.432 29.162 21.774 28.82 21.85 28.174V27.49C21.774 26.844 21.432 26.502 20.786 26.426H16.796C16.15 26.502 15.808 26.844 15.732 27.49ZM25.384 26.692V29.124C25.384 29.656 25.422 30.188 25.422 30.72C25.422 31.86 24.738 32.05 23.218 32.05C22.572 32.05 21.736 32.012 20.786 32.012H17.176C15.922 32.012 15.77 32.126 15.732 32.886C15.694 33.494 15.124 33.456 13.908 33.456C12.464 33.456 12.122 33.456 12.122 32.544V26.692C12.122 26.122 12.084 25.59 12.084 25.02C12.084 23.918 12.882 23.728 13.832 23.728C14.82 23.728 15.77 23.766 16.72 23.766H20.786C21.736 23.766 22.686 23.728 23.636 23.728C24.624 23.728 25.422 23.88 25.422 25.058C25.422 25.59 25.384 26.122 25.384 26.692ZM13.262 13.164V13.81C13.338 14.456 13.642 14.798 14.326 14.874H23.674C24.32 14.798 24.662 14.456 24.738 13.81V13.164C24.662 12.518 24.32 12.176 23.674 12.1H14.326C13.642 12.176 13.338 12.518 13.262 13.164ZM28.234 12.48V14.494C28.234 15.064 28.272 15.634 28.272 16.204C28.272 17.382 27.36 17.572 26.372 17.572C25.422 17.572 24.472 17.496 23.522 17.496H14.478C13.528 17.496 12.578 17.572 11.628 17.572C10.678 17.572 9.69 17.42 9.69 16.204C9.69 15.71 9.728 15.254 9.728 14.494V12.48C9.728 11.682 9.69 11.264 9.69 10.77C9.69 9.592 10.602 9.402 11.59 9.402C12.54 9.402 13.49 9.478 14.478 9.478H23.522C24.434 9.478 25.384 9.402 26.334 9.402C27.322 9.402 28.272 9.554 28.272 10.77C28.272 11.34 28.234 11.91 28.234 12.48ZM30.134 29.884V23.12C30.134 22.398 29.83 22.094 29.07 22.094H8.892C8.132 22.094 7.828 22.398 7.828 23.12V30.188C7.828 31.556 7.942 32.962 7.942 34.33C7.942 35.394 7.524 35.394 5.928 35.394C4.332 35.394 3.914 35.394 3.914 34.368C3.914 32.962 3.99 31.594 3.99 30.188V23.652C3.99 22.664 3.952 21.714 3.952 20.764C3.952 19.358 4.75 19.13 5.966 19.13C7.068 19.13 8.132 19.168 9.234 19.168H28.5C29.64 19.168 30.742 19.092 31.844 19.092C33.098 19.092 33.896 19.32 33.896 20.764C33.896 21.714 33.82 22.664 33.82 23.576V29.2C33.82 29.96 33.896 30.682 33.896 31.442C33.896 34.672 32.68 35.432 28.044 35.432C27.056 35.432 26.106 35.432 26.106 33C26.106 32.506 26.144 31.822 26.752 31.822C27.436 31.822 28.082 31.86 28.766 31.86C30.248 31.86 30.134 31.024 30.134 29.884ZM20.9 3.892C20.938 4.614 21.204 4.918 21.926 4.918H30.058C31.616 4.918 33.212 4.842 34.77 4.842C35.72 4.842 35.72 5.146 35.72 6.362C35.72 7.578 35.72 7.882 34.77 7.882C33.212 7.882 31.616 7.806 30.058 7.806H7.904C6.346 7.806 4.75 7.882 3.192 7.882C2.242 7.882 2.242 7.54 2.242 6.362C2.242 5.146 2.242 4.842 3.192 4.842C4.75 4.842 6.346 4.918 7.904 4.918H15.77C16.454 4.918 16.796 4.652 16.834 3.892C16.834 3.398 16.796 2.714 16.682 2.182V1.878C16.682 1.422 17.062 1.384 17.404 1.384C17.974 1.384 20.14 1.536 20.786 1.612C21.09 1.65 21.812 1.65 21.812 2.068C21.812 2.296 21.584 2.41 21.318 2.6C20.9 2.866 20.9 3.284 20.9 3.892ZM66.956 29.58C65.094 31.328 62.396 33.342 60.04 34.406C59.584 34.634 57.722 35.508 57.342 35.508C56.582 35.508 55.252 33.456 55.252 32.848C55.252 32.354 56.05 32.088 56.43 31.936C59.432 30.758 62.244 28.972 64.6 26.73C64.828 26.502 65.018 26.274 65.018 25.932C65.018 25.628 64.904 25.438 64.752 25.21C63.422 23.234 62.092 20.764 61.484 18.446C61.446 18.256 61.294 17.648 61.294 17.458C61.294 16.736 63.65 16.09 64.106 16.09C64.79 16.09 64.828 16.66 64.98 17.268C65.436 19.054 66.196 20.688 67.146 22.284C67.26 22.436 67.45 22.588 67.678 22.588C67.944 22.588 68.096 22.436 68.248 22.246C69.122 20.84 69.996 18.522 70.376 16.888C70.452 16.546 70.528 16.052 70.984 16.052C71.478 16.052 72.884 16.584 73.416 16.774L73.758 16.888C74.328 17.078 74.746 17.23 74.746 17.572C74.746 17.838 74.48 17.952 74.252 18.066C73.834 18.256 73.834 18.37 73.568 19.168C72.846 21.334 71.858 23.386 70.604 25.248C70.452 25.476 70.338 25.704 70.338 25.97C70.338 26.312 70.528 26.54 70.718 26.768C72.922 28.972 75.088 30.606 77.824 32.05C78.09 32.202 78.698 32.468 78.698 32.81C78.698 33.418 77.368 35.47 76.494 35.47C76.19 35.47 75.658 35.166 75.392 35.014C72.922 33.608 70.376 31.632 68.362 29.58C68.172 29.428 67.944 29.238 67.678 29.238C67.336 29.238 67.184 29.39 66.956 29.58ZM65.74 5.222C65.778 4.272 65.74 3.436 65.626 2.448C65.588 2.334 65.588 2.22 65.588 2.106C65.588 1.612 65.854 1.498 66.31 1.498C66.88 1.498 68.742 1.688 69.426 1.764C69.844 1.84 70.452 1.84 70.452 2.372C70.452 2.638 70.186 2.79 69.958 2.98C69.464 3.322 69.464 3.93 69.502 5.222C69.502 5.982 69.806 6.286 70.566 6.286H73.758C75.126 6.286 76.456 6.21 77.786 6.21C78.622 6.21 78.584 6.666 78.584 7.996C78.584 9.364 78.622 9.82 77.786 9.82C76.494 9.82 75.24 9.744 73.948 9.744C73.682 9.744 73.454 9.858 73.454 10.162C73.454 10.314 73.53 10.428 73.568 10.504C74.974 12.176 76.798 13.962 78.508 15.292C78.736 15.444 79.04 15.672 79.04 15.938C79.04 16.66 77.292 18.256 76.608 18.256C75.734 18.256 70.072 12.366 70.072 11.454C70.072 11.036 70.984 10.39 71.326 10.2C71.364 10.124 71.44 10.048 71.44 9.972C71.44 9.82 71.288 9.744 71.174 9.744H64.334C64.182 9.744 64.068 9.82 64.068 9.972C64.068 10.086 64.144 10.124 64.22 10.2C65.094 10.618 66.006 10.998 66.006 11.378C66.006 11.682 65.664 11.758 65.436 11.758C64.904 11.796 64.904 11.834 64.22 12.746C64.068 12.898 63.954 13.088 63.764 13.316C62.89 14.494 60.534 16.812 59.432 17.838C59.204 18.028 58.938 18.294 58.634 18.294C58.026 18.294 56.278 16.698 56.278 16.052C56.278 15.786 56.924 15.292 57.152 15.14C58.71 13.886 60.268 12.138 61.522 10.542C61.598 10.428 61.636 10.352 61.636 10.2C61.636 9.896 61.408 9.782 61.104 9.744C60.23 9.782 59.356 9.82 58.482 9.82C57.646 9.82 57.684 9.364 57.684 7.996C57.684 6.666 57.646 6.21 58.482 6.21C59.812 6.21 61.142 6.286 62.472 6.286H64.676C65.436 6.286 65.74 5.982 65.74 5.222ZM53.58 14.114C54.644 16.09 56.088 18.18 57.532 19.89C57.684 20.08 57.874 20.27 57.874 20.536C57.874 21.068 56.62 23.044 56.088 23.044C55.594 23.044 54.112 20.498 53.808 19.966C53.77 19.89 53.694 19.814 53.58 19.814C53.39 19.814 53.314 19.966 53.314 20.156V29.086C53.314 30.872 53.39 32.62 53.39 34.406C53.39 35.47 52.972 35.508 51.566 35.508C49.97 35.508 49.59 35.47 49.59 34.368C49.59 32.62 49.704 30.872 49.704 29.086V20.954C49.704 20.764 49.59 20.726 49.552 20.726C49.476 20.726 49.4 20.764 49.362 20.84C48.64 22.816 47.88 24.754 46.892 26.616C46.74 26.92 46.474 27.338 46.094 27.338C45.448 27.338 43.966 25.476 43.966 25.02C43.966 24.716 44.308 24.184 44.46 23.918C46.55 20.232 47.766 17.116 48.982 13.088C48.982 12.974 49.02 12.898 49.02 12.784C49.02 12.29 48.602 12.138 48.184 12.1C47.348 12.1 46.474 12.176 45.714 12.176C44.916 12.176 44.954 11.568 44.954 10.314C44.954 8.984 44.916 8.452 45.752 8.452C46.284 8.452 47.234 8.528 48.26 8.528H48.64C49.4 8.528 49.704 8.224 49.704 7.464V4.804C49.704 3.892 49.704 3.018 49.59 2.258C49.552 2.144 49.552 1.992 49.552 1.878C49.552 1.498 49.856 1.422 50.16 1.422C50.616 1.422 52.744 1.65 53.314 1.688C53.656 1.726 54.264 1.726 54.264 2.182C54.264 2.448 54.074 2.524 53.732 2.752C53.352 3.018 53.314 3.626 53.314 4.842V7.464C53.314 8.148 53.58 8.49 54.302 8.528C54.606 8.528 56.012 8.452 56.202 8.452C57.076 8.452 57 9.06 57 10.314C57 11.606 57.076 12.176 56.202 12.176C56.012 12.176 54.53 12.1 54.264 12.1C53.846 12.176 53.352 12.214 53.314 13.088C53.276 13.506 53.352 13.772 53.58 14.114ZM107.768 13.392V25.096C107.768 27.3 107.882 31.29 107.882 31.746C107.882 32.544 107.654 32.696 106.78 32.696H104.424C103.55 32.696 103.322 32.544 103.322 31.746C103.322 31.29 103.436 27.3 103.436 25.096V11.796C103.436 11.15 103.322 10.884 102.98 10.884C102.828 10.884 102.638 10.922 102.372 11.036C101.232 11.454 99.94 11.986 98.952 12.442C98.648 12.594 98.42 12.67 98.23 12.67C97.888 12.67 97.736 12.404 97.546 11.834L96.824 9.934C96.71 9.63 96.672 9.402 96.672 9.212C96.672 8.87 96.9 8.68 97.546 8.49C99.37 7.92 101.688 7.046 103.474 6.248C104.272 5.906 104.842 5.792 105.716 5.792H106.742C107.616 5.792 107.844 5.944 107.844 6.742C107.844 7.312 107.768 11.188 107.768 13.392ZM145.16 17.534H140.448C139.802 17.61 139.46 17.952 139.384 18.598V21.98C139.46 22.664 139.802 22.968 140.448 23.044H145.16C145.844 22.968 146.148 22.664 146.224 21.98V18.598C146.148 17.952 145.844 17.61 145.16 17.534ZM150.366 9.972V12.86C150.366 13.582 150.67 13.848 151.43 13.924H154.47C155.8 13.924 157.092 13.81 158.422 13.81C159.372 13.81 159.372 14.228 159.372 15.748C159.372 17.23 159.334 17.61 158.422 17.61C157.092 17.61 155.8 17.534 154.47 17.534H151.43C150.67 17.534 150.366 17.838 150.366 18.598V21.98C150.366 22.74 150.67 23.044 151.43 23.044H157.7C159.296 23.044 160.892 22.968 162.488 22.968C163.438 22.968 163.4 23.424 163.4 24.868C163.4 26.35 163.438 26.768 162.488 26.768C160.892 26.768 159.296 26.692 157.7 26.692H151.43C150.67 26.692 150.366 26.996 150.366 27.756V28.82C150.366 30.682 150.48 32.506 150.48 34.33C150.48 35.584 149.986 35.584 148.276 35.584C146.604 35.584 146.11 35.584 146.11 34.368C146.11 32.506 146.224 30.682 146.224 28.82V27.756C146.224 26.996 145.92 26.692 145.16 26.692H135.736C134.14 26.692 132.544 26.768 130.948 26.768C129.998 26.768 130.036 26.35 130.036 24.906C130.036 23.386 129.998 22.968 130.948 22.968C132.164 22.968 133.418 23.082 134.672 23.044C135.356 23.044 135.622 22.664 135.622 21.98V18.37C135.622 17.42 135.584 16.508 135.584 15.558C135.584 14.228 136.154 13.848 137.446 13.848C138.358 13.848 139.27 13.924 140.182 13.924H145.16C145.92 13.848 146.224 13.582 146.224 12.86V9.972C146.224 9.212 145.92 8.908 145.16 8.908H140.144C139.308 8.908 139.08 9.06 138.548 9.706C137.066 11.986 135.28 14.076 133.342 15.976C133.038 16.28 132.544 16.812 132.088 16.812C131.328 16.812 129.542 15.026 129.542 14.304C129.542 13.924 130.226 13.392 130.492 13.164C133.988 10.2 136.838 5.944 138.282 1.612C138.396 1.27 138.51 1.08 138.814 1.08C139.232 1.08 141.93 1.916 142.5 2.106C142.766 2.182 143.146 2.296 143.146 2.638C143.146 2.904 142.804 3.056 142.576 3.132C141.968 3.322 142.006 3.436 141.626 4.234C141.588 4.386 141.55 4.462 141.55 4.614C141.55 5.032 141.854 5.146 142.234 5.184H156.028C157.586 5.184 159.106 5.07 160.664 5.07C161.614 5.07 161.576 5.564 161.576 7.046C161.576 8.49 161.614 8.984 160.664 8.984C159.106 8.984 157.586 8.908 156.028 8.908H151.43C150.67 8.908 150.366 9.212 150.366 9.972ZM182.058 9.022H186.086C186.846 9.022 187.15 8.718 187.15 7.996V5.108C187.15 4.12 187.074 3.094 186.998 2.258C186.998 2.144 186.96 1.992 186.96 1.878C186.96 1.422 187.302 1.346 187.682 1.346C188.214 1.346 190.684 1.574 191.292 1.65C191.634 1.688 192.28 1.726 192.28 2.182C192.28 2.448 192.09 2.524 191.786 2.752C191.368 3.094 191.33 3.816 191.33 5.146V7.996C191.33 8.718 191.672 9.022 192.394 9.022H198.854C200.412 9.022 201.97 8.946 203.528 8.946C204.516 8.946 204.44 9.44 204.44 10.922C204.44 12.404 204.516 12.898 203.528 12.898C201.97 12.898 200.412 12.822 198.854 12.822H192.394C191.672 12.822 191.33 13.126 191.33 13.886V17.952C191.33 18.712 191.672 19.016 192.394 19.016H197.22C198.74 19.016 200.26 18.902 201.78 18.902C202.806 18.902 202.768 19.434 202.768 20.84C202.768 22.284 202.806 22.816 201.78 22.816C200.26 22.816 198.74 22.702 197.22 22.702H192.394C191.672 22.702 191.33 23.006 191.33 23.766V29.276C191.33 29.998 191.672 30.302 192.394 30.302H200.26C201.818 30.302 203.414 30.226 205.01 30.226C206.036 30.226 205.96 30.72 205.96 32.202C205.96 33.684 205.998 34.178 205.01 34.178C203.414 34.178 201.856 34.102 200.26 34.102H178.068C176.51 34.102 174.914 34.178 173.318 34.178C172.33 34.178 172.368 33.684 172.368 32.202C172.368 30.682 172.33 30.226 173.318 30.226C174.914 30.226 176.51 30.302 178.068 30.302H186.086C186.846 30.302 187.15 29.998 187.15 29.276V23.766C187.15 23.006 186.846 22.702 186.086 22.702H181.374C179.854 22.702 178.372 22.816 176.852 22.816C175.788 22.816 175.826 22.322 175.826 20.84C175.826 19.396 175.788 18.902 176.852 18.902C178.372 18.902 179.854 19.016 181.374 19.016H186.086C186.846 19.016 187.15 18.712 187.15 17.952V13.886C187.15 13.126 186.846 12.822 186.086 12.822H180.538C179.778 12.822 179.474 13.012 179.094 13.696C178.562 14.722 176.092 19.548 174.99 19.548C174.306 19.548 172.102 18.598 172.102 17.762C172.102 17.42 172.482 17.002 172.672 16.774C175.75 12.746 177.498 8.528 178.524 3.588C178.6 3.17 178.638 2.6 179.132 2.6C179.398 2.6 180.652 2.942 180.994 3.018C182.818 3.512 183.464 3.588 183.464 4.044C183.464 4.424 183.046 4.614 182.78 4.728C182.172 5.032 182.096 5.298 181.754 6.552C181.64 6.932 181.488 7.464 181.298 8.072C181.26 8.186 181.26 8.262 181.26 8.376C181.26 8.87 181.602 9.022 182.058 9.022Z" fill="#3E3E3E"/>
</svg>
