<svg width="206" height="38" viewBox="0 0 206 38" fill="none" xmlns="http://www.w3.org/2000/svg">
<path d="M177 35C176.2 35 175.5 34.7 174.9 34.1C174.3 33.5 174 32.8 174 32V24.85H177V32H203V24.85H206V32C206 32.8 205.7 33.5 205.1 34.1C204.5 34.7 203.8 35 203 35H177ZM190 27.35L180.35 17.7L182.5 15.55L188.5 21.55V3H191.5V21.55L197.5 15.55L199.65 17.7L190 27.35Z" fill="black"/>
<path d="M24.396 29.58C24.624 29.39 24.776 29.238 25.118 29.238C25.384 29.238 25.612 29.428 25.802 29.58C27.816 31.632 30.362 33.608 32.832 35.014C33.098 35.166 33.63 35.47 33.934 35.47C34.808 35.47 36.138 33.418 36.138 32.81C36.138 32.468 35.53 32.202 35.264 32.05C32.528 30.606 30.362 28.972 28.158 26.768C27.968 26.54 27.778 26.312 27.778 25.97C27.778 25.704 27.892 25.476 28.044 25.248C29.298 23.386 30.286 21.334 31.008 19.168C31.274 18.37 31.274 18.256 31.692 18.066C31.92 17.952 32.186 17.838 32.186 17.572C32.186 17.23 31.768 17.078 31.198 16.888L30.856 16.774C30.324 16.584 28.918 16.052 28.424 16.052C27.968 16.052 27.892 16.546 27.816 16.888C27.436 18.522 26.562 20.84 25.688 22.246C25.536 22.436 25.384 22.588 25.118 22.588C24.89 22.588 24.7 22.436 24.586 22.284C23.636 20.688 22.876 19.054 22.42 17.268C22.268 16.66 22.23 16.09 21.546 16.09C21.09 16.09 18.734 16.736 18.734 17.458C18.734 17.648 18.886 18.256 18.924 18.446C19.532 20.764 20.862 23.234 22.192 25.21C22.344 25.438 22.458 25.628 22.458 25.932C22.458 26.274 22.268 26.502 22.04 26.73C19.684 28.972 16.872 30.758 13.87 31.936C13.49 32.088 12.692 32.354 12.692 32.848C12.692 33.456 14.022 35.508 14.782 35.508C15.162 35.508 17.024 34.634 17.48 34.406C19.836 33.342 22.534 31.328 24.396 29.58ZM23.18 5.222C23.18 5.982 22.876 6.286 22.116 6.286H19.912C18.582 6.286 17.252 6.21 15.922 6.21C15.086 6.21 15.124 6.666 15.124 7.996C15.124 9.364 15.086 9.82 15.922 9.82C16.796 9.82 17.67 9.782 18.544 9.744C18.848 9.782 19.076 9.896 19.076 10.2C19.076 10.352 19.038 10.428 18.962 10.542C17.708 12.138 16.15 13.886 14.592 15.14C14.364 15.292 13.718 15.786 13.718 16.052C13.718 16.698 15.466 18.294 16.074 18.294C16.378 18.294 16.644 18.028 16.872 17.838C17.974 16.812 20.33 14.494 21.204 13.316C21.394 13.088 21.508 12.898 21.66 12.746C22.344 11.834 22.344 11.796 22.876 11.758C23.104 11.758 23.446 11.682 23.446 11.378C23.446 10.998 22.534 10.618 21.66 10.2C21.584 10.124 21.508 10.086 21.508 9.972C21.508 9.82 21.622 9.744 21.774 9.744H28.614C28.728 9.744 28.88 9.82 28.88 9.972C28.88 10.048 28.804 10.124 28.766 10.2C28.424 10.39 27.512 11.036 27.512 11.454C27.512 12.366 33.174 18.256 34.048 18.256C34.732 18.256 36.48 16.66 36.48 15.938C36.48 15.672 36.176 15.444 35.948 15.292C34.238 13.962 32.414 12.176 31.008 10.504C30.97 10.428 30.894 10.314 30.894 10.162C30.894 9.858 31.122 9.744 31.388 9.744C32.68 9.744 33.934 9.82 35.226 9.82C36.062 9.82 36.024 9.364 36.024 7.996C36.024 6.666 36.062 6.21 35.226 6.21C33.896 6.21 32.566 6.286 31.198 6.286H28.006C27.246 6.286 26.942 5.982 26.942 5.222C26.904 3.93 26.904 3.322 27.398 2.98C27.626 2.79 27.892 2.638 27.892 2.372C27.892 1.84 27.284 1.84 26.866 1.764C26.182 1.688 24.32 1.498 23.75 1.498C23.294 1.498 23.028 1.612 23.028 2.106C23.028 2.22 23.028 2.334 23.066 2.448C23.18 3.436 23.218 4.272 23.18 5.222ZM11.02 14.114C10.792 13.772 10.716 13.506 10.754 13.088C10.792 12.214 11.286 12.176 11.704 12.1C11.97 12.1 13.452 12.176 13.642 12.176C14.516 12.176 14.44 11.606 14.44 10.314C14.44 9.06 14.516 8.452 13.642 8.452C13.452 8.452 12.046 8.528 11.742 8.528C11.02 8.49 10.754 8.148 10.754 7.464V4.842C10.754 3.626 10.792 3.018 11.172 2.752C11.514 2.524 11.704 2.448 11.704 2.182C11.704 1.726 11.096 1.726 10.754 1.688C10.184 1.65 8.056 1.422 7.6 1.422C7.296 1.422 6.992 1.498 6.992 1.878C6.992 1.992 6.992 2.144 7.03 2.258C7.144 3.018 7.144 3.892 7.144 4.804V7.464C7.144 8.224 6.84 8.528 6.08 8.528H5.7C4.674 8.528 3.724 8.452 3.192 8.452C2.356 8.452 2.394 8.984 2.394 10.314C2.394 11.568 2.356 12.176 3.154 12.176C3.914 12.176 4.788 12.1 5.624 12.1C6.042 12.138 6.46 12.29 6.46 12.784C6.46 12.898 6.422 12.974 6.422 13.088C5.206 17.116 3.99 20.232 1.9 23.918C1.748 24.184 1.406 24.716 1.406 25.02C1.406 25.476 2.888 27.338 3.534 27.338C3.914 27.338 4.18 26.92 4.332 26.616C5.32 24.754 6.08 22.816 6.802 20.84C6.84 20.764 6.916 20.726 6.992 20.726C7.03 20.726 7.144 20.764 7.144 20.954V29.086C7.144 30.872 7.03 32.62 7.03 34.368C7.03 35.47 7.41 35.508 9.006 35.508C10.412 35.508 10.83 35.47 10.83 34.406C10.83 32.62 10.754 30.872 10.754 29.086V20.156C10.754 19.966 10.83 19.814 11.02 19.814C11.134 19.814 11.21 19.89 11.248 19.966C11.552 20.498 13.034 23.044 13.528 23.044C14.06 23.044 15.314 21.068 15.314 20.536C15.314 20.27 15.124 20.08 14.972 19.89C13.528 18.18 12.084 16.09 11.02 14.114ZM62.092 19.396C63.612 22.132 65.018 24.07 67.488 26.046C67.944 26.426 69.464 27.642 69.958 27.642C70.718 27.642 72.466 25.666 72.466 24.906C72.466 24.602 72.086 24.336 71.858 24.184C69.692 22.702 67.64 20.992 66.158 18.788C64.676 16.622 63.422 13.392 63.422 12.556C63.422 12.024 63.84 11.834 64.296 11.834H71.858C72.618 11.834 72.922 12.138 72.922 12.898V29.466C72.922 30.682 72.998 31.556 71.478 31.556C70.946 31.556 70.528 31.48 70.034 31.442C69.768 31.404 69.426 31.366 69.16 31.366C68.476 31.366 68.324 31.936 68.324 32.506C68.324 35.432 69.198 35.432 70.908 35.432C75.772 35.432 76.988 34.444 76.988 31.138C76.988 30.264 76.912 29.352 76.912 28.44V12.936C76.912 11.872 76.988 10.77 76.988 9.706C76.988 8.224 76.19 7.996 74.898 7.996C73.796 7.996 72.656 8.072 71.554 8.072H64.638C63.878 8.072 63.574 7.73 63.574 7.008V4.462C63.574 3.398 63.612 3.018 64.106 2.714C64.296 2.6 64.562 2.486 64.562 2.182C64.562 1.802 64.182 1.726 63.916 1.688C63.308 1.612 60.762 1.422 60.154 1.422C59.736 1.422 59.432 1.536 59.432 2.03C59.432 2.296 59.47 2.676 59.47 2.828C59.546 3.512 59.546 3.968 59.546 4.728V7.008C59.546 7.73 59.242 8.072 58.482 8.072H51.642C50.54 8.072 49.4 7.996 48.298 7.996C46.968 7.996 46.246 8.262 46.246 9.744C46.246 10.808 46.322 11.91 46.322 12.974V29.656C46.322 31.29 46.208 32.886 46.208 34.482C46.208 35.546 46.702 35.584 48.336 35.584C50.008 35.584 50.388 35.546 50.388 34.406C50.388 32.848 50.312 31.252 50.312 29.656V12.898C50.312 12.138 50.616 11.834 51.376 11.834H58.33C58.786 11.834 59.242 12.024 59.242 12.594V12.822C58.444 17.8 56.012 21.714 51.642 24.336C51.186 24.602 50.73 24.83 50.73 25.324C50.73 26.198 52.326 28.174 53.2 28.174C54.416 28.174 59.47 23.31 61.256 19.396C61.332 19.244 61.484 19.092 61.674 19.092C61.902 19.092 62.016 19.206 62.092 19.396ZM90.668 14.76C91.352 14.798 91.618 15.102 91.618 15.786V25.666C91.618 26.388 91.428 26.73 90.706 26.996C89.832 27.338 88.996 27.604 88.084 27.794C87.704 27.87 87.134 27.908 87.134 28.44C87.134 28.896 87.818 30.758 88.008 31.29C88.122 31.594 88.388 32.544 88.768 32.544C89.072 32.544 89.148 32.24 89.224 32.05C89.414 31.48 89.452 31.404 90.25 31.138C93.176 30.112 96.026 28.972 98.838 27.68C99.56 27.376 99.674 27.148 99.674 26.312C99.674 25.742 99.712 24.032 98.876 24.032C98.686 24.032 97.584 24.526 96.9 24.792C96.558 24.906 96.292 25.02 96.102 25.02C95.646 25.02 95.532 24.678 95.494 24.298V15.786C95.494 15.102 95.76 14.798 96.52 14.76C96.938 14.76 98.344 14.836 98.572 14.836C99.37 14.836 99.332 14.304 99.332 12.936C99.332 11.454 99.37 10.998 98.572 10.998C97.85 10.998 97.166 11.036 96.482 11.036C95.76 10.998 95.494 10.694 95.494 10.01V5.678C95.494 4.348 95.532 4.006 95.95 3.74C96.33 3.512 96.634 3.398 96.634 3.094C96.634 2.676 96.102 2.638 95.798 2.6C95.266 2.562 92.568 2.372 92.112 2.372C91.732 2.372 91.466 2.448 91.466 2.904C91.466 3.056 91.466 3.208 91.504 3.36C91.618 4.272 91.618 5.336 91.618 6.362V10.01C91.618 10.656 91.352 11.036 90.668 11.074C90.174 11.036 88.654 10.998 88.274 10.998C87.476 10.998 87.514 11.53 87.514 12.936C87.514 14.228 87.476 14.836 88.274 14.836C88.578 14.836 90.136 14.76 90.668 14.76ZM112.442 14.494C112.86 14.304 113.24 14.152 113.658 14C114.114 13.848 114.722 13.544 115.026 13.544C115.482 13.544 115.444 14.114 115.444 14.418C115.444 16.128 115.368 18.332 115.178 20.004C115.064 21.182 114.988 21.562 113.848 21.562C113.544 21.562 113.316 21.524 113.164 21.524C112.708 21.524 112.632 22.018 112.632 22.398C112.632 25.438 113.582 25.324 114.494 25.324C117.42 25.324 118.712 24.602 118.94 21.562C119.168 18.902 119.244 13.696 119.244 10.96C119.244 10.542 119.244 10.01 119.016 9.668C118.56 9.06 117.99 8.68 117.192 8.68C116.204 8.68 115.14 9.326 114.228 9.706L112.48 10.466C112.404 10.504 112.29 10.504 112.176 10.504C111.606 10.504 111.606 9.972 111.568 9.782V4.956C111.568 3.778 111.606 2.98 111.986 2.676C112.252 2.486 112.442 2.41 112.442 2.182C112.442 1.802 112.062 1.726 111.796 1.688C111.302 1.65 108.908 1.498 108.452 1.498C108.11 1.498 107.768 1.574 107.768 1.992C107.768 2.106 107.806 2.258 107.806 2.372C107.882 3.36 107.958 4.424 107.958 5.488V11.378C107.958 12.176 107.73 12.48 107.008 12.822L105.678 13.43C105.564 13.43 105.45 13.468 105.336 13.468C104.766 13.468 104.766 12.936 104.728 12.746V10.01C104.728 8.832 104.766 8.034 105.184 7.768C105.412 7.616 105.716 7.502 105.716 7.236C105.716 6.78 105.032 6.78 104.728 6.742C104.006 6.704 102.106 6.59 101.498 6.59C101.156 6.59 100.852 6.628 100.852 7.046C100.852 7.16 100.89 7.312 100.89 7.426C101.042 8.3 101.004 9.288 101.004 10.276V14.38C101.004 15.178 100.776 15.482 100.054 15.824C98.192 16.508 97.166 16.85 97.166 17.458C97.166 17.724 98.116 20.384 98.838 20.384C99.104 20.384 99.826 20.042 100.054 19.928C100.206 19.89 100.282 19.852 100.434 19.852C100.966 19.852 100.966 20.384 101.004 20.536V28.478C101.004 32.544 100.472 34.748 105.526 34.748H115.558C117.078 34.748 118.636 34.558 119.586 33.228C120.27 32.278 121.296 29.504 121.296 28.326C121.296 27.604 120.992 27.376 120.232 27.11C119.624 26.92 118.864 26.692 118.218 26.692C117.572 26.692 117.534 26.958 117.42 27.642C116.888 30.796 116.204 31.062 114.456 31.062H106.628C104.88 31.062 104.728 30.682 104.728 29.124V18.864C104.728 18.104 104.918 17.8 105.64 17.458L107.008 16.85C107.122 16.812 107.236 16.774 107.35 16.774C107.92 16.774 107.92 17.344 107.958 17.496V21.448C107.958 23.158 107.844 24.868 107.844 26.616C107.844 27.718 108.3 27.718 109.744 27.718C111.302 27.718 111.682 27.68 111.682 26.54C111.682 24.868 111.568 23.158 111.568 21.448V15.938C111.568 15.14 111.758 14.798 112.442 14.494ZM158.042 28.174C157.966 28.82 157.624 29.2 156.978 29.2H136.268C135.622 29.2 135.242 28.82 135.242 28.174V7.54C135.242 6.894 135.622 6.552 136.268 6.476H156.978C157.624 6.476 158.042 6.894 158.042 7.54V28.174ZM135.318 33.646C135.318 33.038 135.584 32.772 136.192 32.772H157.054C157.662 32.772 157.928 33.038 157.928 33.646V33.95C157.928 35.014 158.384 35.014 159.98 35.014C161.576 35.014 161.994 35.014 161.994 33.95C161.994 32.354 161.918 30.796 161.918 29.2V8.376C161.918 7.198 161.994 5.982 161.994 4.804C161.994 3.208 161.196 2.866 159.752 2.866C158.574 2.866 157.358 2.942 156.142 2.942H137.142C135.926 2.942 134.672 2.866 133.456 2.866C132.012 2.866 131.29 3.246 131.29 4.804C131.29 5.982 131.366 7.198 131.366 8.376V29.048C131.366 30.644 131.252 32.202 131.252 33.798C131.252 34.862 131.746 34.862 133.304 34.862C134.824 34.862 135.318 34.9 135.318 33.798V33.646ZM148.504 12.1C148.504 11.644 147.896 10.01 147.706 9.516C147.098 7.844 146.87 7.16 146.262 7.16C145.882 7.16 143.83 7.768 143.83 8.262C143.83 8.452 143.944 8.718 144.02 8.908C144.476 10.01 144.78 10.846 145.008 11.492C145.578 13.012 145.73 13.316 146.224 13.316C146.376 13.316 148.504 12.936 148.504 12.1ZM142.538 13.164C142.538 12.822 142.158 11.758 141.854 10.998C140.828 8.338 140.638 7.958 140.106 7.958C139.688 7.958 137.75 8.604 137.75 9.136C137.75 9.288 137.864 9.554 137.94 9.744C138.624 11.15 138.966 12.176 139.232 12.898C139.574 13.924 139.764 14.304 140.22 14.304C140.486 14.304 142.538 13.924 142.538 13.164ZM150.29 19.282C152.266 16.926 153.824 14.304 155.154 11.568C155.496 10.922 155.648 10.618 156.18 10.428C156.408 10.352 156.712 10.2 156.712 9.858C156.712 9.554 156.104 9.288 155.002 8.832C154.584 8.642 153.444 8.186 153.026 8.186C152.57 8.186 152.418 8.566 152.266 8.946C151.202 11.872 149.15 14.988 147.288 17.192C147.098 17.42 146.832 17.648 146.49 17.648C146.11 17.648 145.578 17.268 145.236 17.078C143.982 16.28 141.208 14.532 140.79 14.532C139.916 14.532 138.7 16.508 138.7 16.888C138.7 17.344 139.346 17.648 139.688 17.838C140.752 18.408 142.234 19.32 143.222 19.966C143.45 20.118 143.64 20.308 143.64 20.612C143.64 20.878 143.488 21.03 143.298 21.22C141.74 22.55 140.068 23.766 138.32 24.83C137.94 25.058 137.408 25.324 137.408 25.818C137.408 26.35 138.814 28.136 139.574 28.136C140.638 28.136 145.426 24.26 146.414 23.348C146.642 23.158 146.908 23.006 147.212 23.006C147.516 23.006 147.706 23.12 147.934 23.272C149.606 24.526 151.316 25.742 152.874 27.148C153.14 27.376 153.406 27.68 153.786 27.68C154.508 27.68 155.8 25.932 155.8 25.324C155.8 25.02 155.648 24.868 155.458 24.678C154.166 23.386 151.962 21.752 150.48 20.65C150.214 20.46 150.062 20.232 150.062 19.928C150.062 19.662 150.176 19.472 150.29 19.282Z" fill="#3E3E3E"/>
</svg>
