<svg width="206" height="98" viewBox="0 0 206 98" fill="none" xmlns="http://www.w3.org/2000/svg">
<path d="M177 65C176.2 65 175.5 64.7 174.9 64.1C174.3 63.5 174 62.8 174 62V54.85H177V62H203V54.85H206V62C206 62.8 205.7 63.5 205.1 64.1C204.5 64.7 203.8 65 203 65H177ZM190 57.35L180.35 47.7L182.5 45.55L188.5 51.55V33H191.5V51.55L197.5 45.55L199.65 47.7L190 57.35Z" fill="black"/>
<path d="M24.396 59.58C24.624 59.39 24.776 59.238 25.118 59.238C25.384 59.238 25.612 59.428 25.802 59.58C27.816 61.632 30.362 63.608 32.832 65.014C33.098 65.166 33.63 65.47 33.934 65.47C34.808 65.47 36.138 63.418 36.138 62.81C36.138 62.468 35.53 62.202 35.264 62.05C32.528 60.606 30.362 58.972 28.158 56.768C27.968 56.54 27.778 56.312 27.778 55.97C27.778 55.704 27.892 55.476 28.044 55.248C29.298 53.386 30.286 51.334 31.008 49.168C31.274 48.37 31.274 48.256 31.692 48.066C31.92 47.952 32.186 47.838 32.186 47.572C32.186 47.23 31.768 47.078 31.198 46.888L30.856 46.774C30.324 46.584 28.918 46.052 28.424 46.052C27.968 46.052 27.892 46.546 27.816 46.888C27.436 48.522 26.562 50.84 25.688 52.246C25.536 52.436 25.384 52.588 25.118 52.588C24.89 52.588 24.7 52.436 24.586 52.284C23.636 50.688 22.876 49.054 22.42 47.268C22.268 46.66 22.23 46.09 21.546 46.09C21.09 46.09 18.734 46.736 18.734 47.458C18.734 47.648 18.886 48.256 18.924 48.446C19.532 50.764 20.862 53.234 22.192 55.21C22.344 55.438 22.458 55.628 22.458 55.932C22.458 56.274 22.268 56.502 22.04 56.73C19.684 58.972 16.872 60.758 13.87 61.936C13.49 62.088 12.692 62.354 12.692 62.848C12.692 63.456 14.022 65.508 14.782 65.508C15.162 65.508 17.024 64.634 17.48 64.406C19.836 63.342 22.534 61.328 24.396 59.58ZM23.18 35.222C23.18 35.982 22.876 36.286 22.116 36.286H19.912C18.582 36.286 17.252 36.21 15.922 36.21C15.086 36.21 15.124 36.666 15.124 37.996C15.124 39.364 15.086 39.82 15.922 39.82C16.796 39.82 17.67 39.782 18.544 39.744C18.848 39.782 19.076 39.896 19.076 40.2C19.076 40.352 19.038 40.428 18.962 40.542C17.708 42.138 16.15 43.886 14.592 45.14C14.364 45.292 13.718 45.786 13.718 46.052C13.718 46.698 15.466 48.294 16.074 48.294C16.378 48.294 16.644 48.028 16.872 47.838C17.974 46.812 20.33 44.494 21.204 43.316C21.394 43.088 21.508 42.898 21.66 42.746C22.344 41.834 22.344 41.796 22.876 41.758C23.104 41.758 23.446 41.682 23.446 41.378C23.446 40.998 22.534 40.618 21.66 40.2C21.584 40.124 21.508 40.086 21.508 39.972C21.508 39.82 21.622 39.744 21.774 39.744H28.614C28.728 39.744 28.88 39.82 28.88 39.972C28.88 40.048 28.804 40.124 28.766 40.2C28.424 40.39 27.512 41.036 27.512 41.454C27.512 42.366 33.174 48.256 34.048 48.256C34.732 48.256 36.48 46.66 36.48 45.938C36.48 45.672 36.176 45.444 35.948 45.292C34.238 43.962 32.414 42.176 31.008 40.504C30.97 40.428 30.894 40.314 30.894 40.162C30.894 39.858 31.122 39.744 31.388 39.744C32.68 39.744 33.934 39.82 35.226 39.82C36.062 39.82 36.024 39.364 36.024 37.996C36.024 36.666 36.062 36.21 35.226 36.21C33.896 36.21 32.566 36.286 31.198 36.286H28.006C27.246 36.286 26.942 35.982 26.942 35.222C26.904 33.93 26.904 33.322 27.398 32.98C27.626 32.79 27.892 32.638 27.892 32.372C27.892 31.84 27.284 31.84 26.866 31.764C26.182 31.688 24.32 31.498 23.75 31.498C23.294 31.498 23.028 31.612 23.028 32.106C23.028 32.22 23.028 32.334 23.066 32.448C23.18 33.436 23.218 34.272 23.18 35.222ZM11.02 44.114C10.792 43.772 10.716 43.506 10.754 43.088C10.792 42.214 11.286 42.176 11.704 42.1C11.97 42.1 13.452 42.176 13.642 42.176C14.516 42.176 14.44 41.606 14.44 40.314C14.44 39.06 14.516 38.452 13.642 38.452C13.452 38.452 12.046 38.528 11.742 38.528C11.02 38.49 10.754 38.148 10.754 37.464V34.842C10.754 33.626 10.792 33.018 11.172 32.752C11.514 32.524 11.704 32.448 11.704 32.182C11.704 31.726 11.096 31.726 10.754 31.688C10.184 31.65 8.056 31.422 7.6 31.422C7.296 31.422 6.992 31.498 6.992 31.878C6.992 31.992 6.992 32.144 7.03 32.258C7.144 33.018 7.144 33.892 7.144 34.804V37.464C7.144 38.224 6.84 38.528 6.08 38.528H5.7C4.674 38.528 3.724 38.452 3.192 38.452C2.356 38.452 2.394 38.984 2.394 40.314C2.394 41.568 2.356 42.176 3.154 42.176C3.914 42.176 4.788 42.1 5.624 42.1C6.042 42.138 6.46 42.29 6.46 42.784C6.46 42.898 6.422 42.974 6.422 43.088C5.206 47.116 3.99 50.232 1.9 53.918C1.748 54.184 1.406 54.716 1.406 55.02C1.406 55.476 2.888 57.338 3.534 57.338C3.914 57.338 4.18 56.92 4.332 56.616C5.32 54.754 6.08 52.816 6.802 50.84C6.84 50.764 6.916 50.726 6.992 50.726C7.03 50.726 7.144 50.764 7.144 50.954V59.086C7.144 60.872 7.03 62.62 7.03 64.368C7.03 65.47 7.41 65.508 9.006 65.508C10.412 65.508 10.83 65.47 10.83 64.406C10.83 62.62 10.754 60.872 10.754 59.086V50.156C10.754 49.966 10.83 49.814 11.02 49.814C11.134 49.814 11.21 49.89 11.248 49.966C11.552 50.498 13.034 53.044 13.528 53.044C14.06 53.044 15.314 51.068 15.314 50.536C15.314 50.27 15.124 50.08 14.972 49.89C13.528 48.18 12.084 46.09 11.02 44.114ZM62.092 49.396C63.612 52.132 65.018 54.07 67.488 56.046C67.944 56.426 69.464 57.642 69.958 57.642C70.718 57.642 72.466 55.666 72.466 54.906C72.466 54.602 72.086 54.336 71.858 54.184C69.692 52.702 67.64 50.992 66.158 48.788C64.676 46.622 63.422 43.392 63.422 42.556C63.422 42.024 63.84 41.834 64.296 41.834H71.858C72.618 41.834 72.922 42.138 72.922 42.898V59.466C72.922 60.682 72.998 61.556 71.478 61.556C70.946 61.556 70.528 61.48 70.034 61.442C69.768 61.404 69.426 61.366 69.16 61.366C68.476 61.366 68.324 61.936 68.324 62.506C68.324 65.432 69.198 65.432 70.908 65.432C75.772 65.432 76.988 64.444 76.988 61.138C76.988 60.264 76.912 59.352 76.912 58.44V42.936C76.912 41.872 76.988 40.77 76.988 39.706C76.988 38.224 76.19 37.996 74.898 37.996C73.796 37.996 72.656 38.072 71.554 38.072H64.638C63.878 38.072 63.574 37.73 63.574 37.008V34.462C63.574 33.398 63.612 33.018 64.106 32.714C64.296 32.6 64.562 32.486 64.562 32.182C64.562 31.802 64.182 31.726 63.916 31.688C63.308 31.612 60.762 31.422 60.154 31.422C59.736 31.422 59.432 31.536 59.432 32.03C59.432 32.296 59.47 32.676 59.47 32.828C59.546 33.512 59.546 33.968 59.546 34.728V37.008C59.546 37.73 59.242 38.072 58.482 38.072H51.642C50.54 38.072 49.4 37.996 48.298 37.996C46.968 37.996 46.246 38.262 46.246 39.744C46.246 40.808 46.322 41.91 46.322 42.974V59.656C46.322 61.29 46.208 62.886 46.208 64.482C46.208 65.546 46.702 65.584 48.336 65.584C50.008 65.584 50.388 65.546 50.388 64.406C50.388 62.848 50.312 61.252 50.312 59.656V42.898C50.312 42.138 50.616 41.834 51.376 41.834H58.33C58.786 41.834 59.242 42.024 59.242 42.594V42.822C58.444 47.8 56.012 51.714 51.642 54.336C51.186 54.602 50.73 54.83 50.73 55.324C50.73 56.198 52.326 58.174 53.2 58.174C54.416 58.174 59.47 53.31 61.256 49.396C61.332 49.244 61.484 49.092 61.674 49.092C61.902 49.092 62.016 49.206 62.092 49.396ZM90.668 44.76C91.352 44.798 91.618 45.102 91.618 45.786V55.666C91.618 56.388 91.428 56.73 90.706 56.996C89.832 57.338 88.996 57.604 88.084 57.794C87.704 57.87 87.134 57.908 87.134 58.44C87.134 58.896 87.818 60.758 88.008 61.29C88.122 61.594 88.388 62.544 88.768 62.544C89.072 62.544 89.148 62.24 89.224 62.05C89.414 61.48 89.452 61.404 90.25 61.138C93.176 60.112 96.026 58.972 98.838 57.68C99.56 57.376 99.674 57.148 99.674 56.312C99.674 55.742 99.712 54.032 98.876 54.032C98.686 54.032 97.584 54.526 96.9 54.792C96.558 54.906 96.292 55.02 96.102 55.02C95.646 55.02 95.532 54.678 95.494 54.298V45.786C95.494 45.102 95.76 44.798 96.52 44.76C96.938 44.76 98.344 44.836 98.572 44.836C99.37 44.836 99.332 44.304 99.332 42.936C99.332 41.454 99.37 40.998 98.572 40.998C97.85 40.998 97.166 41.036 96.482 41.036C95.76 40.998 95.494 40.694 95.494 40.01V35.678C95.494 34.348 95.532 34.006 95.95 33.74C96.33 33.512 96.634 33.398 96.634 33.094C96.634 32.676 96.102 32.638 95.798 32.6C95.266 32.562 92.568 32.372 92.112 32.372C91.732 32.372 91.466 32.448 91.466 32.904C91.466 33.056 91.466 33.208 91.504 33.36C91.618 34.272 91.618 35.336 91.618 36.362V40.01C91.618 40.656 91.352 41.036 90.668 41.074C90.174 41.036 88.654 40.998 88.274 40.998C87.476 40.998 87.514 41.53 87.514 42.936C87.514 44.228 87.476 44.836 88.274 44.836C88.578 44.836 90.136 44.76 90.668 44.76ZM112.442 44.494C112.86 44.304 113.24 44.152 113.658 44C114.114 43.848 114.722 43.544 115.026 43.544C115.482 43.544 115.444 44.114 115.444 44.418C115.444 46.128 115.368 48.332 115.178 50.004C115.064 51.182 114.988 51.562 113.848 51.562C113.544 51.562 113.316 51.524 113.164 51.524C112.708 51.524 112.632 52.018 112.632 52.398C112.632 55.438 113.582 55.324 114.494 55.324C117.42 55.324 118.712 54.602 118.94 51.562C119.168 48.902 119.244 43.696 119.244 40.96C119.244 40.542 119.244 40.01 119.016 39.668C118.56 39.06 117.99 38.68 117.192 38.68C116.204 38.68 115.14 39.326 114.228 39.706L112.48 40.466C112.404 40.504 112.29 40.504 112.176 40.504C111.606 40.504 111.606 39.972 111.568 39.782V34.956C111.568 33.778 111.606 32.98 111.986 32.676C112.252 32.486 112.442 32.41 112.442 32.182C112.442 31.802 112.062 31.726 111.796 31.688C111.302 31.65 108.908 31.498 108.452 31.498C108.11 31.498 107.768 31.574 107.768 31.992C107.768 32.106 107.806 32.258 107.806 32.372C107.882 33.36 107.958 34.424 107.958 35.488V41.378C107.958 42.176 107.73 42.48 107.008 42.822L105.678 43.43C105.564 43.43 105.45 43.468 105.336 43.468C104.766 43.468 104.766 42.936 104.728 42.746V40.01C104.728 38.832 104.766 38.034 105.184 37.768C105.412 37.616 105.716 37.502 105.716 37.236C105.716 36.78 105.032 36.78 104.728 36.742C104.006 36.704 102.106 36.59 101.498 36.59C101.156 36.59 100.852 36.628 100.852 37.046C100.852 37.16 100.89 37.312 100.89 37.426C101.042 38.3 101.004 39.288 101.004 40.276V44.38C101.004 45.178 100.776 45.482 100.054 45.824C98.192 46.508 97.166 46.85 97.166 47.458C97.166 47.724 98.116 50.384 98.838 50.384C99.104 50.384 99.826 50.042 100.054 49.928C100.206 49.89 100.282 49.852 100.434 49.852C100.966 49.852 100.966 50.384 101.004 50.536V58.478C101.004 62.544 100.472 64.748 105.526 64.748H115.558C117.078 64.748 118.636 64.558 119.586 63.228C120.27 62.278 121.296 59.504 121.296 58.326C121.296 57.604 120.992 57.376 120.232 57.11C119.624 56.92 118.864 56.692 118.218 56.692C117.572 56.692 117.534 56.958 117.42 57.642C116.888 60.796 116.204 61.062 114.456 61.062H106.628C104.88 61.062 104.728 60.682 104.728 59.124V48.864C104.728 48.104 104.918 47.8 105.64 47.458L107.008 46.85C107.122 46.812 107.236 46.774 107.35 46.774C107.92 46.774 107.92 47.344 107.958 47.496V51.448C107.958 53.158 107.844 54.868 107.844 56.616C107.844 57.718 108.3 57.718 109.744 57.718C111.302 57.718 111.682 57.68 111.682 56.54C111.682 54.868 111.568 53.158 111.568 51.448V45.938C111.568 45.14 111.758 44.798 112.442 44.494ZM158.042 58.174C157.966 58.82 157.624 59.2 156.978 59.2H136.268C135.622 59.2 135.242 58.82 135.242 58.174V37.54C135.242 36.894 135.622 36.552 136.268 36.476H156.978C157.624 36.476 158.042 36.894 158.042 37.54V58.174ZM135.318 63.646C135.318 63.038 135.584 62.772 136.192 62.772H157.054C157.662 62.772 157.928 63.038 157.928 63.646V63.95C157.928 65.014 158.384 65.014 159.98 65.014C161.576 65.014 161.994 65.014 161.994 63.95C161.994 62.354 161.918 60.796 161.918 59.2V38.376C161.918 37.198 161.994 35.982 161.994 34.804C161.994 33.208 161.196 32.866 159.752 32.866C158.574 32.866 157.358 32.942 156.142 32.942H137.142C135.926 32.942 134.672 32.866 133.456 32.866C132.012 32.866 131.29 33.246 131.29 34.804C131.29 35.982 131.366 37.198 131.366 38.376V59.048C131.366 60.644 131.252 62.202 131.252 63.798C131.252 64.862 131.746 64.862 133.304 64.862C134.824 64.862 135.318 64.9 135.318 63.798V63.646ZM148.504 42.1C148.504 41.644 147.896 40.01 147.706 39.516C147.098 37.844 146.87 37.16 146.262 37.16C145.882 37.16 143.83 37.768 143.83 38.262C143.83 38.452 143.944 38.718 144.02 38.908C144.476 40.01 144.78 40.846 145.008 41.492C145.578 43.012 145.73 43.316 146.224 43.316C146.376 43.316 148.504 42.936 148.504 42.1ZM142.538 43.164C142.538 42.822 142.158 41.758 141.854 40.998C140.828 38.338 140.638 37.958 140.106 37.958C139.688 37.958 137.75 38.604 137.75 39.136C137.75 39.288 137.864 39.554 137.94 39.744C138.624 41.15 138.966 42.176 139.232 42.898C139.574 43.924 139.764 44.304 140.22 44.304C140.486 44.304 142.538 43.924 142.538 43.164ZM150.29 49.282C152.266 46.926 153.824 44.304 155.154 41.568C155.496 40.922 155.648 40.618 156.18 40.428C156.408 40.352 156.712 40.2 156.712 39.858C156.712 39.554 156.104 39.288 155.002 38.832C154.584 38.642 153.444 38.186 153.026 38.186C152.57 38.186 152.418 38.566 152.266 38.946C151.202 41.872 149.15 44.988 147.288 47.192C147.098 47.42 146.832 47.648 146.49 47.648C146.11 47.648 145.578 47.268 145.236 47.078C143.982 46.28 141.208 44.532 140.79 44.532C139.916 44.532 138.7 46.508 138.7 46.888C138.7 47.344 139.346 47.648 139.688 47.838C140.752 48.408 142.234 49.32 143.222 49.966C143.45 50.118 143.64 50.308 143.64 50.612C143.64 50.878 143.488 51.03 143.298 51.22C141.74 52.55 140.068 53.766 138.32 54.83C137.94 55.058 137.408 55.324 137.408 55.818C137.408 56.35 138.814 58.136 139.574 58.136C140.638 58.136 145.426 54.26 146.414 53.348C146.642 53.158 146.908 53.006 147.212 53.006C147.516 53.006 147.706 53.12 147.934 53.272C149.606 54.526 151.316 55.742 152.874 57.148C153.14 57.376 153.406 57.68 153.786 57.68C154.508 57.68 155.8 55.932 155.8 55.324C155.8 55.02 155.648 54.868 155.458 54.678C154.166 53.386 151.962 51.752 150.48 50.65C150.214 50.46 150.062 50.232 150.062 49.928C150.062 49.662 150.176 49.472 150.29 49.282Z" fill="#3E3E3E"/>
</svg>
