<svg width="100" height="45" viewBox="0 0 100 45" fill="none" xmlns="http://www.w3.org/2000/svg">
<path d="M3.696 18.456C4.032 18.096 4.08 18.072 4.416 17.76C6.6 20.064 7.2 20.712 8.232 21.816L10.776 20.808C10.8 17.88 10.8 17.448 10.824 13.632C11.664 13.32 13.056 12.792 14.472 12.792C16.656 12.792 17.808 14.376 17.808 15.984C17.808 17.664 16.824 18.528 15.96 18.528C15.216 18.528 15.024 17.904 14.736 16.92L12.504 17.808C12.84 19.56 13.176 21.216 15.816 21.216C18.384 21.216 20.304 18.888 20.304 15.936C20.304 12.936 18.24 10.464 14.52 10.464C12.816 10.464 11.52 10.824 10.824 11.016L10.848 8.64C11.952 8.424 13.08 8.184 14.592 7.608V4.872C13.248 5.496 12.432 5.784 10.896 6.12C10.92 5.664 10.992 3.312 11.088 3.168C11.136 3.096 11.496 2.808 11.496 2.712C11.496 2.592 11.496 2.424 10.824 2.328L8.16 1.968C8.184 3.528 8.184 3.744 8.208 6.456C7.512 6.504 7.152 6.528 6.552 6.528C5.448 6.528 4.872 6.48 4.2 6.408L4.56 9.12C5.904 9.168 6.768 9.144 8.208 9L8.232 12.096C6.624 12.96 6.168 13.224 2.232 15.768L3.696 18.456ZM8.232 18.648C7.8 18.264 6.816 17.352 6.048 16.392C7.056 15.648 7.56 15.336 8.232 14.928V18.648ZM22.128 8.496C20.952 7.584 19.368 6.504 17.4 5.784L15.84 7.896C18.24 8.784 19.488 9.696 20.568 10.632L22.128 8.496ZM47.16 21.168V3.96H38.208V22.056H40.8V19.416H44.544V21.168H47.16ZM37.8 18.504C35.976 17.136 34.752 15.48 33.984 13.344L34.032 13.128H37.488V10.632H34.272C34.416 9.024 34.44 7.944 34.464 6.792H37.104V4.464H31.32C31.44 4.056 31.536 3.36 31.704 2.976C31.752 2.856 31.872 2.784 32.064 2.688C32.208 2.616 32.304 2.568 32.304 2.424C32.304 2.256 32.016 2.184 31.92 2.16L29.256 1.512C28.44 5.592 27.504 7.32 26.52 8.856L29.088 9.84C29.784 8.832 30.168 7.944 30.6 6.792H31.68C31.728 8.4 31.728 9.312 31.632 10.632H26.976V13.128H31.344C30.528 16.776 29.328 18.408 26.256 20.712L28.848 22.296C30.96 20.4 31.944 19.056 32.928 16.752C33.768 18.168 34.56 19.224 35.928 20.496L37.8 18.504ZM44.544 16.992H40.8V6.384H44.544V16.992ZM65.184 4.224C63.336 3.12 61.056 2.256 59.448 1.752L58.416 4.128C61.272 5.136 62.424 5.76 63.96 6.744L65.184 4.224ZM69.6 14.928C69.6 11.448 66.792 9.672 64.272 9.672C63.048 9.672 60.528 10.128 58.368 12.096C58.68 10.296 59.184 8.52 59.808 6.816L57.048 5.736C56.52 7.56 55.368 11.64 55.176 14.904L57.264 16.008C59.736 13.128 62.16 12.168 63.816 12.168C65.616 12.168 66.84 13.152 66.84 14.688C66.84 16.896 64.8 19.224 60.336 19.224C59.232 19.224 58.104 19.056 57.336 18.96L58.608 21.912C61.584 21.84 69.6 21.696 69.6 14.928ZM96.72 9.48L96.696 6.84C94.488 7.2 93.72 7.296 92.376 7.488L92.496 3.912C92.52 3.816 92.52 3.744 92.712 3.624C92.928 3.48 92.976 3.432 92.976 3.312C92.976 3.168 92.976 3.024 92.184 2.928L89.736 2.64C90 4.92 89.976 6.672 89.952 7.8C87.192 8.184 86.304 8.28 84.864 8.448C84.864 5.688 84.888 5.544 84.912 5.16C84.912 5.112 84.936 4.968 85.152 4.8C85.512 4.56 85.56 4.536 85.56 4.416C85.56 4.104 85.248 4.08 84.744 4.008L82.032 3.648C82.152 5.328 82.176 7.8 82.176 8.784C80.376 8.976 79.656 9.048 77.76 9.216L77.856 11.856C80.016 11.52 80.256 11.496 82.176 11.208L82.2 14.496C82.224 18.96 82.872 20.64 88.272 20.64C91.488 20.64 93.648 20.4 94.704 20.28L94.92 17.4C93.816 17.712 91.968 18.24 88.752 18.24C85.2 18.24 84.768 17.544 84.768 14.808C84.768 14.664 84.768 13.224 84.816 10.824C86.976 10.536 87.384 10.464 89.928 10.152C89.928 12.768 89.856 13.2 88.392 13.2C87.672 13.2 87.336 13.104 86.976 13.032L87.576 15.552C87.816 15.6 88.344 15.648 88.968 15.648C90.768 15.648 91.536 15.12 91.896 14.112C92.136 13.44 92.184 12.72 92.304 9.888C94.56 9.624 95.664 9.528 96.72 9.48Z" fill="black"/>
<path d="M10.1284 33.7578V43H8.61768L5.35498 36.6016V43H3.86328V33.7578H5.35498L8.64307 40.2007V33.7578H10.1284ZM17.087 41.7114V43H13.0753V41.7114H17.087ZM13.4815 33.7578V43H11.939V33.7578H13.4815ZM16.5474 37.6045V38.874H13.0753V37.6045H16.5474ZM17.0489 33.7578V35.0527H13.0753V33.7578H17.0489ZM20.3956 40.9751L21.8746 33.7578H22.7887L22.7506 35.5669L21.151 43H20.1925L20.3956 40.9751ZM19.4562 33.7578L20.6305 40.9243L20.6813 43H19.672L17.9264 33.7578H19.4562ZM24.3946 40.8989L25.5563 33.7578H27.0797L25.3404 43H24.3312L24.3946 40.8989ZM23.1569 33.7578L24.6232 40.9941L24.8136 43H23.8551L22.2936 35.5605L22.2555 33.7578H23.1569ZM32.28 40.6133C32.28 40.4229 32.2588 40.2536 32.2165 40.1055C32.1784 39.9531 32.1043 39.8156 31.9943 39.6929C31.8843 39.5701 31.7277 39.4495 31.5246 39.3311C31.3257 39.2126 31.0676 39.092 30.7502 38.9692C30.3862 38.8296 30.0456 38.6772 29.7282 38.5122C29.4151 38.3429 29.1379 38.1525 28.8967 37.9409C28.6597 37.7251 28.4735 37.4733 28.3381 37.1855C28.2026 36.8978 28.1349 36.5635 28.1349 36.1826C28.1349 35.806 28.2005 35.4632 28.3317 35.1543C28.4671 34.8411 28.6576 34.5724 28.903 34.3481C29.1527 34.1196 29.4489 33.944 29.7917 33.8213C30.1345 33.6943 30.5132 33.6309 30.9279 33.6309C31.5246 33.6309 32.0345 33.7578 32.4577 34.0117C32.8851 34.2656 33.211 34.6063 33.4352 35.0337C33.6637 35.4611 33.778 35.9351 33.778 36.4556H32.2419C32.2419 36.1551 32.1953 35.8885 32.1022 35.6558C32.0091 35.423 31.8652 35.241 31.6706 35.1099C31.4759 34.9787 31.2241 34.9131 30.9152 34.9131C30.6317 34.9131 30.3968 34.9681 30.2106 35.0781C30.0287 35.1882 29.8932 35.3384 29.8044 35.5288C29.7197 35.7192 29.6774 35.9372 29.6774 36.1826C29.6774 36.3519 29.7134 36.5063 29.7853 36.646C29.8573 36.7814 29.961 36.9062 30.0964 37.0205C30.2318 37.1348 30.3968 37.2427 30.5915 37.3442C30.7861 37.4458 31.0104 37.5431 31.2643 37.6362C31.696 37.7928 32.0726 37.9663 32.3942 38.1567C32.7158 38.3472 32.9803 38.5609 33.1877 38.7979C33.3993 39.0306 33.5558 39.2951 33.6574 39.5913C33.7632 39.8875 33.8161 40.224 33.8161 40.6006C33.8161 40.9814 33.7505 41.3285 33.6193 41.6416C33.4924 41.9505 33.3062 42.215 33.0607 42.4351C32.8153 42.6551 32.5191 42.8265 32.1721 42.9492C31.825 43.0677 31.4357 43.127 31.0041 43.127C30.6063 43.127 30.2233 43.0677 29.8552 42.9492C29.4912 42.8307 29.1654 42.6509 28.8776 42.4097C28.5899 42.1642 28.3613 41.8574 28.1921 41.4893C28.027 41.1211 27.9445 40.6895 27.9445 40.1943H29.487C29.487 40.4906 29.523 40.7445 29.5949 40.9561C29.6668 41.1634 29.7705 41.3348 29.9059 41.4702C30.0456 41.6014 30.2085 41.6987 30.3947 41.7622C30.5851 41.8215 30.7967 41.8511 31.0295 41.8511C31.3172 41.8511 31.5521 41.8003 31.7341 41.6987C31.9203 41.5929 32.0578 41.4469 32.1467 41.2607C32.2355 41.0745 32.28 40.8587 32.28 40.6133Z" fill="#5F5F5F"/>
</svg>
