<svg width="124" height="28" viewBox="0 0 124 28" fill="none" xmlns="http://www.w3.org/2000/svg">
<path d="M3.96484 10.291L1.42578 10.3301C1.27604 10.3301 1.20117 10.265 1.20117 10.1348V8.19141C1.20117 8.0612 1.27604 7.99609 1.42578 7.99609L3.96484 8.03516H16.0156L18.5645 7.99609C18.7077 7.99609 18.7793 8.0612 18.7793 8.19141V10.1348C18.7793 10.265 18.7077 10.3301 18.5645 10.3301L16.0156 10.291H3.96484ZM38.0438 14.7832C38.4214 15.0501 38.8738 15.2487 39.4012 15.3789C39.7202 15.4635 39.8797 15.5872 39.8797 15.75C39.8797 15.8086 39.8667 15.9258 39.8406 16.1016C39.7625 16.6289 39.6453 17.0293 39.4891 17.3027C39.3719 17.498 39.1961 17.6836 38.9617 17.8594C38.4669 18.2174 37.3471 18.3965 35.6023 18.3965C33.7924 18.3965 32.6499 18.2956 32.1746 18.0938C31.6863 17.9115 31.4422 17.4818 31.4422 16.8047V15.3594H29.7234C29.144 16.5117 28.2521 17.3418 27.0477 17.8496C26.1622 18.2272 24.9773 18.4779 23.493 18.6016C23.3367 18.6146 23.226 18.6211 23.1609 18.6211C23.0177 18.6211 22.9103 18.5788 22.8387 18.4941C22.7931 18.4355 22.7182 18.2891 22.6141 18.0547C22.4318 17.651 22.1876 17.2734 21.8816 16.9219C23.3986 16.8828 24.5607 16.7526 25.368 16.5312C26.2599 16.2904 26.924 15.8997 27.3602 15.3594L24.743 15.3984C24.6323 15.3984 24.5672 15.3822 24.5477 15.3496C24.5281 15.3236 24.5184 15.2585 24.5184 15.1543L24.5574 13.377V10.4961L24.5184 8.69922C24.5184 8.59505 24.5314 8.5332 24.5574 8.51367C24.5835 8.49414 24.6453 8.48438 24.743 8.48438L27.4969 8.52344H33.9813L36.7156 8.48438C36.8328 8.48438 36.9044 8.4974 36.9305 8.52344C36.95 8.54948 36.9598 8.60807 36.9598 8.69922L36.9207 10.4961V13.377L36.9598 15.1543C36.9598 15.265 36.9467 15.3333 36.9207 15.3594C36.9012 15.3854 36.8328 15.3984 36.7156 15.3984L33.9813 15.3594H33.5613V16.0625C33.5613 16.375 33.6883 16.554 33.9422 16.5996C34.2221 16.6387 34.769 16.6582 35.5828 16.6582C36.618 16.6582 37.2755 16.5703 37.5555 16.3945C37.7443 16.2904 37.868 16.1309 37.9266 15.916C37.9852 15.7077 38.0242 15.3301 38.0438 14.7832ZM34.9773 14.1582V13.377H26.4813V14.1582H34.9773ZM34.9773 9.76367H26.4813V10.5156H34.9773V9.76367ZM26.4813 12.3418H34.9773V11.5801H26.4813V12.3418ZM28.6395 6.54102L30.5633 6.50195C30.6674 6.50195 30.7326 6.51497 30.7586 6.54102C30.7781 6.56706 30.7879 6.62565 30.7879 6.7168V7.64453C30.7879 7.7487 30.7716 7.81055 30.7391 7.83008C30.7195 7.84961 30.6609 7.85938 30.5633 7.85938L28.6395 7.82031H25.368L22.7703 7.85938C22.6596 7.85938 22.5945 7.84635 22.575 7.82031C22.5555 7.79427 22.5457 7.73568 22.5457 7.64453L22.5848 5.68164V3.09375L22.5457 1.11133C22.5457 1.00716 22.5587 0.945312 22.5848 0.925781C22.6108 0.90625 22.6727 0.896484 22.7703 0.896484L25.368 0.935547H28.2488L30.5047 0.896484C30.6089 0.896484 30.6707 0.909505 30.6902 0.935547C30.7098 0.961589 30.7195 1.02018 30.7195 1.11133V2.05859C30.7195 2.16276 30.7065 2.22461 30.6805 2.24414C30.6609 2.26367 30.6023 2.27344 30.5047 2.27344L28.2488 2.23438H28.0047V3.01562L29.8797 2.99609C30.0164 2.99609 30.0848 3.06771 30.0848 3.21094L30.0457 4.10938V4.66602L30.0848 5.56445C30.0848 5.70768 30.0164 5.7793 29.8797 5.7793L28.0047 5.75977V6.54102H28.6395ZM28.2488 4.7832V3.99219H24.4012V4.7832H28.2488ZM24.4012 2.23438V3.01562H26.325V2.23438H24.4012ZM24.4012 6.54102H26.325V5.75977H24.4012V6.54102ZM30.1824 4.39258C31.1785 3.51367 31.9858 2.49479 32.6043 1.33594C32.7996 0.977865 32.9396 0.603516 33.0242 0.212891C33.2781 0.271484 33.8152 0.404948 34.6355 0.613281C34.8764 0.678385 34.9969 0.772786 34.9969 0.896484C34.9969 0.98112 34.9383 1.08203 34.8211 1.19922C34.6909 1.3099 34.5379 1.54102 34.3621 1.89258L34.2449 2.13672H36.7645L39.3035 2.09766C39.4207 2.09766 39.4891 2.11068 39.5086 2.13672C39.5281 2.16276 39.5379 2.22135 39.5379 2.3125V3.61133C39.5379 3.72852 39.5249 3.80013 39.4988 3.82617C39.4728 3.8457 39.4077 3.85547 39.3035 3.85547L36.7645 3.81641H33.2C32.8029 4.33724 32.3764 4.81576 31.9207 5.25195C31.6863 5.4668 31.5398 5.57422 31.4813 5.57422C31.3771 5.57422 31.2306 5.44076 31.0418 5.17383C30.7944 4.84831 30.5079 4.58789 30.1824 4.39258ZM36.618 7.19531H34.4402L32.4969 7.23438C32.3927 7.23438 32.3309 7.22135 32.3113 7.19531C32.2918 7.16927 32.282 7.11068 32.282 7.01953V5.69141C32.282 5.58724 32.2951 5.52539 32.3211 5.50586C32.3471 5.48633 32.4057 5.47656 32.4969 5.47656L34.4402 5.51562H36.618L38.5613 5.47656C38.6655 5.47656 38.7306 5.48958 38.7566 5.51562C38.7762 5.54167 38.7859 5.60026 38.7859 5.69141V7.01953C38.7859 7.1237 38.7697 7.18555 38.7371 7.20508C38.7176 7.22461 38.659 7.23438 38.5613 7.23438L36.618 7.19531ZM49.691 0.496094C50.6285 0.645833 51.387 0.834635 51.9664 1.0625C52.1292 1.12109 52.2105 1.23503 52.2105 1.4043C52.2105 1.52799 52.165 1.62565 52.0738 1.69727C51.9566 1.79492 51.8427 1.95443 51.732 2.17578C51.706 2.24089 51.6637 2.33854 51.6051 2.46875C51.4879 2.7487 51.374 3.01237 51.2633 3.25977C52.5523 3.11003 53.7665 2.90169 54.9059 2.63477C54.9514 2.62826 54.9905 2.625 55.023 2.625C55.1272 2.625 55.1956 2.69661 55.2281 2.83984C55.3453 3.30208 55.4137 3.7806 55.4332 4.27539C55.4332 4.30143 55.4332 4.32096 55.4332 4.33398C55.4332 4.47721 55.3193 4.5651 55.0914 4.59766C53.5354 4.82552 51.9729 5.02734 50.4039 5.20312C49.7464 6.25781 49.2483 6.99674 48.9098 7.41992L48.9293 7.45898C49.5608 7.04883 50.2281 6.84375 50.9313 6.84375C52.3701 6.84375 53.1806 7.56315 53.3629 9.00195C54.7301 8.37044 55.7132 7.90169 56.3121 7.5957C56.9566 7.25716 57.4612 6.89909 57.8258 6.52148C58.4443 7.17253 58.913 7.75846 59.232 8.2793C59.3362 8.44206 59.3883 8.58854 59.3883 8.71875C59.3883 8.86849 59.2874 8.96289 59.0855 9.00195C58.6819 9.06055 58.275 9.16146 57.8648 9.30469C55.9052 9.99479 54.4729 10.5254 53.568 10.8965V14.1191C53.568 14.321 53.441 14.4414 53.1871 14.4805C52.7509 14.5456 52.2789 14.5781 51.7711 14.5781C51.5953 14.5781 51.5074 14.4707 51.5074 14.2559C51.5074 13.11 51.5139 12.2995 51.527 11.8242C50.6025 12.2995 49.9547 12.765 49.5836 13.2207C49.2711 13.5983 49.1148 14.0182 49.1148 14.4805C49.1148 15.3984 50.0393 15.8574 51.8883 15.8574C53.3401 15.8574 55.0003 15.724 56.8688 15.457C56.8883 15.457 56.9078 15.457 56.9273 15.457C57.0576 15.457 57.1292 15.5319 57.1422 15.6816C57.2659 16.235 57.3277 16.7819 57.3277 17.3223C57.3277 17.3548 57.3277 17.3776 57.3277 17.3906C57.3277 17.5924 57.2529 17.6934 57.1031 17.6934C55.749 17.8691 54.0986 17.957 52.152 17.957C48.8056 17.957 47.1324 16.8568 47.1324 14.6562C47.1324 13.6341 47.5035 12.7259 48.2457 11.9316C48.9033 11.2285 49.9384 10.5124 51.3512 9.7832C51.3186 9.24284 51.2177 8.875 51.0484 8.67969C50.8922 8.49089 50.6318 8.39648 50.2672 8.39648C50.2411 8.39648 50.2021 8.39648 50.15 8.39648C49.3753 8.42904 48.454 8.91081 47.3863 9.8418C46.7678 10.4473 46.1005 11.1732 45.3844 12.0195C45.2867 12.1367 45.2053 12.1953 45.1402 12.1953C45.0882 12.1953 45.0165 12.1497 44.9254 12.0586C44.359 11.4922 43.9781 11.0527 43.7828 10.7402C43.7307 10.6686 43.7047 10.6068 43.7047 10.5547C43.7047 10.4831 43.7503 10.4115 43.8414 10.3398C45.6578 8.71875 47.0543 7.0651 48.0309 5.37891C47.0999 5.41797 46.0322 5.4375 44.8277 5.4375C44.678 5.4375 44.5836 5.33008 44.5445 5.11523C44.499 4.86133 44.4339 4.3112 44.3492 3.46484C44.9872 3.49089 45.6578 3.50391 46.3609 3.50391C47.2073 3.50391 48.0699 3.48112 48.9488 3.43555C49.1897 2.8431 49.3883 2.27018 49.5445 1.7168C49.6422 1.31966 49.691 0.91276 49.691 0.496094ZM79.141 13.8652C79.5707 14.1452 80.0557 14.3763 80.5961 14.5586C80.8109 14.6367 80.9411 14.6953 80.9867 14.7344C81.0388 14.7799 81.0648 14.8483 81.0648 14.9395C81.0648 14.985 81.0551 15.0859 81.0355 15.2422C80.977 15.9648 80.8663 16.4987 80.7035 16.8438C80.5733 17.1302 80.3715 17.3711 80.098 17.5664C79.5902 17.9635 78.477 18.1621 76.7582 18.1621C75.2413 18.1621 74.2387 18.0677 73.7504 17.8789C73.2035 17.6445 72.9301 17.1725 72.9301 16.4629V12.3223H71.1234C70.544 15.6947 68.4965 17.7487 64.9809 18.4844C64.7855 18.5234 64.6456 18.543 64.5609 18.543C64.4242 18.543 64.2712 18.377 64.102 18.0449C63.8285 17.5176 63.503 17.0846 63.1254 16.7461C66.5889 16.3164 68.5225 14.8418 68.9262 12.3223H68.8871L66.182 12.3613C66.0714 12.3613 66.003 12.3483 65.977 12.3223C65.9574 12.2962 65.9477 12.2344 65.9477 12.1367L65.9867 9.70508V3.71875L65.9477 1.23828C65.9477 1.13411 65.9607 1.07227 65.9867 1.05273C66.0193 1.0332 66.0844 1.02344 66.182 1.02344L68.9262 1.0625H75.3715L78.0961 1.02344C78.2068 1.02344 78.2719 1.03646 78.2914 1.0625C78.3109 1.08854 78.3207 1.14714 78.3207 1.23828L78.2816 3.71875V9.70508L78.3207 12.1367C78.3207 12.2409 78.3077 12.306 78.2816 12.332C78.2621 12.3516 78.2003 12.3613 78.0961 12.3613L75.3715 12.3223H75.0102V15.4863C75.0102 15.8704 75.1306 16.0885 75.3715 16.1406C75.5863 16.2057 76.1039 16.2383 76.9242 16.2383C77.8357 16.2383 78.4086 16.1504 78.643 15.9746C78.9555 15.7402 79.1215 15.0371 79.141 13.8652ZM76.2016 10.6035V9.11914H68.0473V10.6035H76.2016ZM76.2016 2.87891H68.0473V4.34375H76.2016V2.87891ZM68.0473 7.43945H76.2016V6.02344H68.0473V7.43945ZM93.425 3.73828C92.175 3.96615 90.8859 4.22005 89.5578 4.5C89.2128 4.57812 88.9328 4.65951 88.718 4.74414C88.5552 4.80924 88.4217 4.8418 88.3176 4.8418C88.1223 4.8418 87.9758 4.72786 87.8781 4.5C87.6698 4.08984 87.4387 3.37044 87.1848 2.3418C87.5233 2.38737 87.8846 2.41016 88.2688 2.41016C88.5292 2.41016 88.7863 2.40039 89.0402 2.38086C90.4139 2.24414 91.9276 2.01628 93.5813 1.69727C94.1346 1.58659 94.4992 1.48568 94.675 1.39453C94.8573 1.29036 94.9842 1.23828 95.0559 1.23828C95.2121 1.23828 95.3651 1.29036 95.5148 1.39453C96.0487 1.80469 96.4947 2.23112 96.8527 2.67383C97.0025 2.8431 97.0773 3.00586 97.0773 3.16211C97.0773 3.37695 96.9634 3.53646 96.7355 3.64062C96.5077 3.7513 96.2147 3.96289 95.8566 4.27539C95.4465 4.67904 94.688 5.4375 93.5813 6.55078C92.7544 7.3776 92.0741 8.04818 91.5402 8.5625L91.5598 8.62109C92.6145 8.02214 93.6757 7.72266 94.7434 7.72266C96.3124 7.72266 97.5624 8.2207 98.4934 9.2168C99.3007 10.0892 99.7043 11.1927 99.7043 12.5273C99.7043 14.3177 98.9914 15.7109 97.5656 16.707C96.3286 17.5729 94.7141 18.0059 92.7219 18.0059C91.3677 18.0059 90.3326 17.7129 89.6164 17.127C88.9914 16.6191 88.6789 15.9323 88.6789 15.0664C88.6789 14.3438 88.9882 13.7415 89.6066 13.2598C90.147 12.8366 90.7785 12.625 91.5012 12.625C92.5168 12.625 93.3566 12.9049 94.0207 13.4648C94.6197 13.9661 95.0331 14.6595 95.2609 15.5449C96.0161 15.1999 96.5533 14.7702 96.8723 14.2559C97.1587 13.7871 97.302 13.2012 97.302 12.498C97.302 11.528 96.9732 10.763 96.3156 10.2031C95.7492 9.72135 95.0298 9.48047 94.1574 9.48047C92.4061 9.48047 90.7004 10.1868 89.0402 11.5996C88.7863 11.834 88.2069 12.4004 87.302 13.2988C87.1522 13.4486 87.0383 13.5234 86.9602 13.5234C86.882 13.5234 86.7811 13.4648 86.6574 13.3477C86.2928 13.0286 85.9022 12.5924 85.4855 12.0391C85.44 11.987 85.4172 11.9316 85.4172 11.873C85.4172 11.7884 85.4725 11.6908 85.5832 11.5801C87.0741 10.3757 88.6529 8.9043 90.3195 7.16602C91.6802 5.75977 92.7154 4.61719 93.425 3.73828ZM93.2785 16.043C93.0116 14.8971 92.4452 14.3242 91.5793 14.3242C91.2798 14.3242 91.0389 14.4089 90.8566 14.5781C90.7004 14.7148 90.6223 14.8841 90.6223 15.0859C90.6223 15.776 91.2017 16.1211 92.3605 16.1211C92.7056 16.1211 93.0116 16.0951 93.2785 16.043ZM105.043 9.74414V9.04102H119.682C118.992 8.08398 118.386 7.16602 117.865 6.28711L118.002 6.16016C119.33 7.35807 120.785 8.4388 122.367 9.40234C120.785 10.3659 119.33 11.4466 118.002 12.6445L117.865 12.5273C118.432 11.6159 119.037 10.6882 119.682 9.74414H105.043Z" fill="#565656"/>
<line y1="27" x2="100" y2="27" stroke="#DEDEDE" stroke-width="2"/>
</svg>
