<svg width="99" height="46" viewBox="0 0 99 46" fill="none" xmlns="http://www.w3.org/2000/svg">
<path d="M19.464 7.152C18.936 6.72 17.952 5.904 17.664 5.904C17.28 5.904 16.224 7.104 16.224 7.464C16.224 7.728 16.488 7.92 16.656 8.04C17.784 8.88 18.84 9.768 19.848 10.728C19.992 10.848 20.184 11.016 20.376 11.016C20.856 11.016 21.888 9.84 21.888 9.384C21.888 9.12 20.688 8.112 20.04 7.608C19.848 7.464 19.656 7.296 19.464 7.152ZM8.184 16.656C8.184 16.752 8.208 16.872 8.208 16.992C8.208 17.04 8.256 18.024 8.256 18.048C8.256 18.144 8.232 18.24 8.088 18.24C7.992 18.24 7.872 18.168 7.8 18.096C7.584 17.928 6.744 17.352 6.576 17.352C6.336 17.352 6.048 17.568 6.048 17.832C6.048 18.024 6.216 18.168 6.336 18.288C7.032 18.912 7.416 19.296 7.8 20.16C7.992 20.568 8.16 21.072 8.688 21.072C9.336 21.072 10.8 20.496 10.8 19.32C10.8 19.08 10.632 16.92 10.584 16.416C10.56 16.08 10.512 15.12 10.512 14.832C10.512 14.496 10.632 14.256 10.896 14.088C12.024 13.416 13.824 12.936 15.12 12.936C16.464 12.936 18 13.68 18 15.192C18 16.944 15.96 17.4 14.568 17.4C13.68 17.4 12.888 17.184 12.6 17.184C12.24 17.184 12.168 17.496 12.168 17.808C12.168 18.216 12.336 19.2 12.552 19.536C12.672 19.776 13.176 19.8 13.56 19.8H13.848C15.288 19.8 17.448 19.56 18.672 18.72C19.896 17.88 20.592 16.632 20.592 15.144C20.592 12.264 18.024 10.608 15.36 10.608C13.968 10.608 12.648 10.92 11.376 11.4C11.232 11.472 10.896 11.616 10.776 11.616C10.464 11.616 10.416 11.088 10.416 10.68V10.344C10.416 9.24 10.464 9.072 11.352 8.904C13.176 8.592 13.584 8.592 13.584 7.968C13.584 7.56 13.512 6 12.96 6C12.84 6 12.672 6.072 12.552 6.12C12.312 6.192 11.208 6.528 11.04 6.528C10.824 6.528 10.632 6.336 10.632 6.12C10.632 6.024 10.656 5.88 10.656 5.784C10.68 5.568 10.704 5.376 10.728 5.232C10.8 4.488 10.824 4.2 11.184 3.912C11.28 3.816 11.424 3.672 11.424 3.528C11.424 3.312 11.088 3.24 10.944 3.216C10.464 3.12 8.856 2.784 8.496 2.784C8.256 2.784 8.184 2.952 8.184 3.144C8.184 3.24 8.232 3.792 8.232 4.272C8.232 4.944 8.208 5.616 8.184 6.288C8.184 6.552 8.184 6.792 7.992 7.008C7.776 7.248 7.416 7.272 7.104 7.296C6.36 7.392 5.52 7.44 4.776 7.464C4.32 7.488 4.272 7.584 4.272 8.232C4.272 9.984 4.656 10.008 4.968 10.008C5.328 10.008 6.96 9.72 7.416 9.624C7.464 9.624 7.512 9.6 7.56 9.6C7.872 9.6 8.088 9.84 8.088 10.152V10.392C8.088 10.752 8.064 11.112 8.064 11.472V12.288C8.064 13.032 7.968 13.056 7.056 13.608C5.736 14.424 4.464 15.288 3.12 16.056C2.832 16.224 2.568 16.296 2.568 16.56C2.568 17.04 3.528 18.84 4.008 18.84C4.128 18.84 4.272 18.72 4.368 18.648C4.776 18.288 7.632 15.984 7.92 15.984C8.16 15.984 8.16 16.224 8.184 16.656ZM41.256 17.424C40.824 17.376 40.584 17.16 40.584 16.752V7.008C40.584 6.6 40.824 6.384 41.256 6.336H43.8C44.208 6.384 44.448 6.6 44.448 7.008V16.752C44.448 17.16 44.208 17.376 43.8 17.424H41.256ZM43.776 19.728C44.208 19.728 44.4 19.92 44.424 20.376C44.424 20.568 44.4 20.76 44.4 20.952C44.4 21.6 44.688 21.576 45.624 21.576C46.56 21.576 46.872 21.6 46.872 20.952C46.872 19.992 46.824 19.056 46.824 18.12V7.368C46.824 6.624 46.848 5.904 46.848 5.16C46.848 4.152 46.32 3.936 45.432 3.936C44.88 3.936 44.328 3.96 43.776 3.96H41.184C40.632 3.96 40.08 3.936 39.528 3.936C38.616 3.936 38.112 4.176 38.112 5.16C38.112 5.904 38.16 6.648 38.16 7.368V18.36C38.16 19.32 38.088 20.256 38.088 21.216C38.088 21.84 38.424 21.816 39.384 21.816C40.344 21.816 40.632 21.84 40.632 21.192C40.632 20.904 40.632 20.64 40.608 20.376C40.632 19.92 40.824 19.728 41.256 19.728H43.776ZM33.288 10.272C33.312 9.456 33.312 8.64 33.312 7.824C33.36 7.368 33.528 7.176 34.008 7.176C34.776 7.152 35.592 7.224 36.264 7.224C36.84 7.224 36.816 6.984 36.816 6.072C36.816 5.136 36.84 4.872 36.264 4.872C35.568 4.872 34.776 4.92 34.008 4.92H31.416C31.152 4.896 30.936 4.824 30.936 4.512C30.936 4.464 30.96 4.392 30.96 4.32C31.2 3.672 31.344 3.24 31.44 2.928C31.656 2.328 31.68 2.232 32.04 2.112C32.184 2.04 32.424 1.92 32.424 1.728C32.424 1.488 32.184 1.44 31.608 1.296C31.44 1.248 31.272 1.2 31.08 1.152C30.864 1.104 30.024 0.887999 29.856 0.887999C29.64 0.887999 29.592 1.08 29.568 1.224C28.968 3.792 27.816 6.288 26.328 8.448C26.232 8.592 25.944 8.976 25.944 9.144C25.944 9.576 27.336 10.272 27.552 10.272C28.08 10.272 29.208 8.16 29.448 7.656C29.688 7.272 29.832 7.176 30.288 7.176C30.792 7.176 30.96 7.344 30.96 7.848V10.272C30.96 10.704 30.72 10.896 30.288 10.896H29.04C28.248 10.896 27.408 10.824 26.712 10.824C26.184 10.824 26.208 11.16 26.208 12.024C26.208 12.864 26.184 13.2 26.712 13.2C27.36 13.2 28.224 13.128 29.04 13.128H30.12C30.552 13.176 30.744 13.32 30.72 13.752C30.312 16.44 28.752 18.528 26.544 20.04C26.16 20.304 25.776 20.52 25.776 20.784C25.776 21.192 26.76 22.44 27.192 22.44C27.432 22.44 27.768 22.2 27.984 22.056C29.904 20.664 31.32 19.128 32.28 16.944C32.352 16.824 32.424 16.728 32.568 16.728C32.688 16.728 32.76 16.8 32.808 16.896C33.408 18 34.104 19.056 34.944 19.992C35.16 20.232 35.736 20.88 36.048 20.88C36.48 20.88 37.584 19.8 37.584 19.368C37.584 19.152 37.392 18.984 37.248 18.84C35.736 17.424 34.416 15.72 33.432 13.896C33.36 13.752 33.312 13.632 33.312 13.488C33.312 13.2 33.576 13.152 33.816 13.128H34.608C35.448 13.128 36.312 13.2 36.936 13.2C37.464 13.2 37.44 12.912 37.44 12.024C37.44 11.112 37.464 10.824 36.936 10.824C36.264 10.824 35.4 10.896 34.608 10.896H33.936C33.504 10.896 33.336 10.704 33.288 10.272ZM56.664 6.168C56.28 6.168 56.256 6.528 56.256 7.224C56.256 7.392 56.232 7.56 56.232 7.752C56.16 9.504 55.968 11.256 55.656 12.984C55.512 13.776 55.32 14.568 55.104 15.336C55.032 15.576 54.864 15.936 54.864 16.176C54.864 16.872 56.472 17.112 56.688 17.112C57.024 17.112 57.216 16.848 57.408 16.608C58.92 14.712 61.464 12.6 63.984 12.6C65.52 12.6 66.864 13.488 66.864 15.144C66.864 17.184 65.088 17.928 63.384 18.36C62.376 18.624 61.224 18.792 60.192 18.84C59.88 18.864 59.592 18.888 59.592 19.272C59.592 19.68 59.832 20.472 60 20.832C60.216 21.288 60.36 21.504 60.888 21.504C61.632 21.504 63.264 21.072 64.008 20.856C66.912 19.992 69.456 18.552 69.456 15.144C69.456 12.12 67.176 10.152 64.224 10.152C61.944 10.152 60.504 11.112 58.728 12.36C58.632 12.432 58.536 12.504 58.416 12.504C58.248 12.504 58.176 12.36 58.176 12.216C58.176 12.072 58.224 11.856 58.248 11.712C58.488 10.608 58.632 9.48 58.824 8.376C58.92 7.896 58.944 7.68 59.328 7.44C59.424 7.392 59.544 7.32 59.544 7.176C59.544 6.984 59.28 6.912 59.112 6.84C58.704 6.696 57.024 6.168 56.664 6.168ZM58.2 3.408C58.2 3.672 58.512 3.792 58.752 3.936C59.784 4.512 60.864 5.208 61.776 5.976C61.968 6.12 62.28 6.456 62.544 6.456C63.048 6.456 64.032 4.992 64.032 4.56C64.032 4.152 62.64 3.384 62.28 3.168C61.848 2.904 59.904 1.656 59.544 1.656C58.968 1.656 58.2 3.096 58.2 3.408ZM81.384 4.224C81.144 4.224 81 4.32 81 4.584C81 4.68 81.024 4.824 81.048 4.92C81.168 5.784 81.216 7.728 81.216 8.616C81.216 9.336 80.784 9.36 80.208 9.456C79.488 9.552 77.808 9.84 77.16 9.864C76.752 9.864 76.416 9.864 76.416 10.392C76.416 10.656 76.488 11.184 76.512 11.448C76.536 11.592 76.536 11.736 76.56 11.856C76.608 12.432 76.68 12.816 77.04 12.816C77.16 12.816 77.304 12.792 77.4 12.768C77.832 12.648 80.544 12.024 80.808 12.024C81.264 12.024 81.336 12.456 81.336 12.816C81.384 14.304 81.36 16.32 81.744 17.712C82.536 20.544 85.632 20.712 88.056 20.712C88.68 20.712 92.256 20.592 92.616 20.328C92.904 20.088 92.904 18.792 92.904 18.408C92.904 18.144 92.856 17.712 92.52 17.712C92.448 17.712 92.376 17.712 92.304 17.736C90.768 18.024 89.232 18.216 87.672 18.216C85.992 18.216 84.48 18.144 84.048 16.608C83.832 15.84 83.76 13.152 83.76 12.24C83.76 11.568 84.024 11.376 84.648 11.256C85.128 11.16 88.224 10.608 88.512 10.608C88.728 10.608 88.92 10.776 88.92 11.016C88.92 11.304 88.752 12.168 88.656 12.48C88.392 13.296 87.84 13.512 87.024 13.512C86.832 13.512 86.616 13.488 86.424 13.488C86.16 13.488 86.04 13.728 86.04 13.968C86.04 14.4 86.184 15.456 86.448 15.792C86.616 15.96 86.832 15.984 87.072 15.984C90.552 15.984 91.128 13.992 91.368 10.992C91.44 10.032 91.896 10.152 93.24 10.032C94.032 9.96 94.608 9.912 95.04 9.888C96.192 9.84 96.288 9.888 96.288 8.76C96.288 7.488 96.288 7.128 95.832 7.128C95.52 7.128 94.296 7.32 93.912 7.368C93.6 7.416 92.184 7.632 91.992 7.632C91.584 7.632 91.512 7.272 91.512 6.96C91.512 6.336 91.488 5.736 91.488 5.112C91.488 4.8 91.464 4.176 91.656 3.912C91.728 3.816 91.872 3.672 91.872 3.528C91.872 3.312 91.56 3.288 91.392 3.24C91.008 3.144 89.232 2.832 88.92 2.832C88.728 2.832 88.584 2.928 88.584 3.144C88.584 3.24 88.608 3.36 88.632 3.456C88.896 4.536 89.04 6.216 89.04 7.344C89.04 8.184 88.632 8.136 87.312 8.328C86.88 8.376 84.528 8.784 84.312 8.784C83.832 8.784 83.832 8.232 83.832 7.872V7.224C83.832 6.528 83.856 5.64 84.168 5.28C84.264 5.184 84.408 5.04 84.408 4.896C84.408 4.728 84.24 4.656 84.096 4.608C83.688 4.512 81.792 4.224 81.384 4.224Z" fill="black"/>
<path d="M10.2109 34.7578V44H8.41455L5.51367 38.2173V44H3.74902V34.7578H5.52002L8.44629 40.604V34.7578H10.2109ZM17.0093 42.4639V44H12.9912V42.4639H17.0093ZM13.5688 34.7578V44H11.709V34.7578H13.5688ZM16.4697 38.5029V39.9946H12.9912V38.5029H16.4697ZM16.9966 34.7578V36.3003H12.9912V34.7578H16.9966ZM19.98 42.6162L21.459 34.7578H22.4365L22.7285 35.9766L21.1416 44H20.0815L19.98 42.6162ZM19.4722 34.7578L20.6655 42.6353L20.4624 44H19.2944L17.6377 34.7578H19.4722ZM23.8013 42.6035L24.9883 34.7578H26.8164L25.1724 44H23.998L23.8013 42.6035ZM23.0015 34.7578L24.4932 42.6606L24.3726 44H23.3125L21.7319 35.9639L22.0303 34.7578H23.0015ZM31.7549 41.5688C31.7549 41.4038 31.7401 41.2536 31.7104 41.1182C31.6808 40.9827 31.6174 40.8579 31.52 40.7437C31.4269 40.6294 31.2894 40.5151 31.1074 40.4009C30.9297 40.2866 30.6969 40.1681 30.4092 40.0454C30.0664 39.9015 29.7342 39.7492 29.4126 39.5884C29.091 39.4233 28.8011 39.2329 28.543 39.0171C28.2848 38.8013 28.0796 38.5474 27.9272 38.2554C27.7791 37.9591 27.7051 37.6121 27.7051 37.2144C27.7051 36.825 27.7749 36.4717 27.9146 36.1543C28.0584 35.8369 28.2616 35.5661 28.5239 35.3418C28.7863 35.1133 29.0931 34.9377 29.4443 34.8149C29.7998 34.6922 30.1955 34.6309 30.6313 34.6309C31.2238 34.6309 31.7358 34.7536 32.1675 34.999C32.6034 35.2445 32.9398 35.5809 33.1768 36.0083C33.418 36.4357 33.5386 36.9266 33.5386 37.481H31.6851C31.6851 37.2186 31.647 36.988 31.5708 36.7891C31.4989 36.5859 31.3825 36.4272 31.2217 36.313C31.0609 36.1987 30.8535 36.1416 30.5996 36.1416C30.3626 36.1416 30.1659 36.1903 30.0093 36.2876C29.8569 36.3807 29.7427 36.5098 29.6665 36.6748C29.5946 36.8356 29.5586 37.0176 29.5586 37.2207C29.5586 37.373 29.5946 37.5106 29.6665 37.6333C29.7427 37.7518 29.8464 37.8597 29.9775 37.957C30.1087 38.0501 30.2632 38.1411 30.4409 38.23C30.6229 38.3188 30.8218 38.4056 31.0376 38.4902C31.4565 38.6553 31.8268 38.8372 32.1484 39.0361C32.4701 39.2308 32.7388 39.4508 32.9546 39.6963C33.1704 39.9375 33.3333 40.2104 33.4434 40.5151C33.5534 40.8198 33.6084 41.1668 33.6084 41.5562C33.6084 41.9412 33.5407 42.2925 33.4053 42.6099C33.2741 42.923 33.0815 43.1938 32.8276 43.4224C32.5737 43.6466 32.2669 43.8201 31.9072 43.9429C31.5518 44.0656 31.154 44.127 30.7139 44.127C30.2865 44.127 29.8823 44.0677 29.5015 43.9492C29.1206 43.8265 28.7842 43.6424 28.4922 43.397C28.2044 43.1473 27.978 42.832 27.813 42.4512C27.6479 42.0661 27.5654 41.6112 27.5654 41.0864H29.4253C29.4253 41.3657 29.4528 41.6048 29.5078 41.8037C29.5628 41.9984 29.6475 42.1549 29.7617 42.2734C29.876 42.3877 30.0156 42.4744 30.1807 42.5337C30.3499 42.5887 30.5425 42.6162 30.7583 42.6162C31.0037 42.6162 31.1984 42.5697 31.3423 42.4766C31.4904 42.3835 31.5962 42.2586 31.6597 42.1021C31.7231 41.9455 31.7549 41.7677 31.7549 41.5688Z" fill="black"/>
</svg>
