<svg width="199" height="87" viewBox="0 0 199 87" fill="none" xmlns="http://www.w3.org/2000/svg">
<path d="M38.928 14.304C37.872 13.44 35.904 11.808 35.328 11.808C34.56 11.808 32.448 14.208 32.448 14.928C32.448 15.456 32.976 15.84 33.312 16.08C35.568 17.76 37.68 19.536 39.696 21.456C39.984 21.696 40.368 22.032 40.752 22.032C41.712 22.032 43.776 19.68 43.776 18.768C43.776 18.24 41.376 16.224 40.08 15.216C39.696 14.928 39.312 14.592 38.928 14.304ZM16.368 33.312C16.368 33.504 16.416 33.744 16.416 33.984C16.416 34.08 16.512 36.048 16.512 36.096C16.512 36.288 16.464 36.48 16.176 36.48C15.984 36.48 15.744 36.336 15.6 36.192C15.168 35.856 13.488 34.704 13.152 34.704C12.672 34.704 12.096 35.136 12.096 35.664C12.096 36.048 12.432 36.336 12.672 36.576C14.064 37.824 14.832 38.592 15.6 40.32C15.984 41.136 16.32 42.144 17.376 42.144C18.672 42.144 21.6 40.992 21.6 38.64C21.6 38.16 21.264 33.84 21.168 32.832C21.12 32.16 21.024 30.24 21.024 29.664C21.024 28.992 21.264 28.512 21.792 28.176C24.048 26.832 27.648 25.872 30.24 25.872C32.928 25.872 36 27.36 36 30.384C36 33.888 31.92 34.8 29.136 34.8C27.36 34.8 25.776 34.368 25.2 34.368C24.48 34.368 24.336 34.992 24.336 35.616C24.336 36.432 24.672 38.4 25.104 39.072C25.344 39.552 26.352 39.6 27.12 39.6H27.696C30.576 39.6 34.896 39.12 37.344 37.44C39.792 35.76 41.184 33.264 41.184 30.288C41.184 24.528 36.048 21.216 30.72 21.216C27.936 21.216 25.296 21.84 22.752 22.8C22.464 22.944 21.792 23.232 21.552 23.232C20.928 23.232 20.832 22.176 20.832 21.36V20.688C20.832 18.48 20.928 18.144 22.704 17.808C26.352 17.184 27.168 17.184 27.168 15.936C27.168 15.12 27.024 12 25.92 12C25.68 12 25.344 12.144 25.104 12.24C24.624 12.384 22.416 13.056 22.08 13.056C21.648 13.056 21.264 12.672 21.264 12.24C21.264 12.048 21.312 11.76 21.312 11.568C21.36 11.136 21.408 10.752 21.456 10.464C21.6 8.976 21.648 8.4 22.368 7.824C22.56 7.632 22.848 7.344 22.848 7.056C22.848 6.624 22.176 6.48 21.888 6.432C20.928 6.24 17.712 5.568 16.992 5.568C16.512 5.568 16.368 5.904 16.368 6.288C16.368 6.48 16.464 7.584 16.464 8.544C16.464 9.888 16.416 11.232 16.368 12.576C16.368 13.104 16.368 13.584 15.984 14.016C15.552 14.496 14.832 14.544 14.208 14.592C12.72 14.784 11.04 14.88 9.552 14.928C8.64 14.976 8.544 15.168 8.544 16.464C8.544 19.968 9.312 20.016 9.936 20.016C10.656 20.016 13.92 19.44 14.832 19.248C14.928 19.248 15.024 19.2 15.12 19.2C15.744 19.2 16.176 19.68 16.176 20.304V20.784C16.176 21.504 16.128 22.224 16.128 22.944V24.576C16.128 26.064 15.936 26.112 14.112 27.216C11.472 28.848 8.928 30.576 6.24 32.112C5.664 32.448 5.136 32.592 5.136 33.12C5.136 34.08 7.056 37.68 8.016 37.68C8.256 37.68 8.544 37.44 8.736 37.296C9.552 36.576 15.264 31.968 15.84 31.968C16.32 31.968 16.32 32.448 16.368 33.312ZM82.992 34.848C82.128 34.752 81.648 34.32 81.648 33.504V14.016C81.648 13.2 82.128 12.768 82.992 12.672H88.08C88.896 12.768 89.376 13.2 89.376 14.016V33.504C89.376 34.32 88.896 34.752 88.08 34.848H82.992ZM88.032 39.456C88.896 39.456 89.28 39.84 89.328 40.752C89.328 41.136 89.28 41.52 89.28 41.904C89.28 43.2 89.856 43.152 91.728 43.152C93.6 43.152 94.224 43.2 94.224 41.904C94.224 39.984 94.128 38.112 94.128 36.24V14.736C94.128 13.248 94.176 11.808 94.176 10.32C94.176 8.304 93.12 7.872 91.344 7.872C90.24 7.872 89.136 7.92 88.032 7.92H82.848C81.744 7.92 80.64 7.872 79.536 7.872C77.712 7.872 76.704 8.352 76.704 10.32C76.704 11.808 76.8 13.296 76.8 14.736V36.72C76.8 38.64 76.656 40.512 76.656 42.432C76.656 43.68 77.328 43.632 79.248 43.632C81.168 43.632 81.744 43.68 81.744 42.384C81.744 41.808 81.744 41.28 81.696 40.752C81.744 39.84 82.128 39.456 82.992 39.456H88.032ZM67.056 20.544C67.104 18.912 67.104 17.28 67.104 15.648C67.2 14.736 67.536 14.352 68.496 14.352C70.032 14.304 71.664 14.448 73.008 14.448C74.16 14.448 74.112 13.968 74.112 12.144C74.112 10.272 74.16 9.744 73.008 9.744C71.616 9.744 70.032 9.84 68.496 9.84H63.312C62.784 9.792 62.352 9.648 62.352 9.024C62.352 8.928 62.4 8.784 62.4 8.64C62.88 7.344 63.168 6.48 63.36 5.856C63.792 4.656 63.84 4.464 64.56 4.224C64.848 4.08 65.328 3.84 65.328 3.456C65.328 2.976 64.848 2.88 63.696 2.592C63.36 2.496 63.024 2.4 62.64 2.304C62.208 2.208 60.528 1.776 60.192 1.776C59.76 1.776 59.664 2.16 59.616 2.448C58.416 7.584 56.112 12.576 53.136 16.896C52.944 17.184 52.368 17.952 52.368 18.288C52.368 19.152 55.152 20.544 55.584 20.544C56.64 20.544 58.896 16.32 59.376 15.312C59.856 14.544 60.144 14.352 61.056 14.352C62.064 14.352 62.4 14.688 62.4 15.696V20.544C62.4 21.408 61.92 21.792 61.056 21.792H58.56C56.976 21.792 55.296 21.648 53.904 21.648C52.848 21.648 52.896 22.32 52.896 24.048C52.896 25.728 52.848 26.4 53.904 26.4C55.2 26.4 56.928 26.256 58.56 26.256H60.72C61.584 26.352 61.968 26.64 61.92 27.504C61.104 32.88 57.984 37.056 53.568 40.08C52.8 40.608 52.032 41.04 52.032 41.568C52.032 42.384 54 44.88 54.864 44.88C55.344 44.88 56.016 44.4 56.448 44.112C60.288 41.328 63.12 38.256 65.04 33.888C65.184 33.648 65.328 33.456 65.616 33.456C65.856 33.456 66 33.6 66.096 33.792C67.296 36 68.688 38.112 70.368 39.984C70.8 40.464 71.952 41.76 72.576 41.76C73.44 41.76 75.648 39.6 75.648 38.736C75.648 38.304 75.264 37.968 74.976 37.68C71.952 34.848 69.312 31.44 67.344 27.792C67.2 27.504 67.104 27.264 67.104 26.976C67.104 26.4 67.632 26.304 68.112 26.256H69.696C71.376 26.256 73.104 26.4 74.352 26.4C75.408 26.4 75.36 25.824 75.36 24.048C75.36 22.224 75.408 21.648 74.352 21.648C73.008 21.648 71.28 21.792 69.696 21.792H68.352C67.488 21.792 67.152 21.408 67.056 20.544ZM114.288 12.336C113.52 12.336 113.472 13.056 113.472 14.448C113.472 14.784 113.424 15.12 113.424 15.504C113.28 19.008 112.896 22.512 112.272 25.968C111.984 27.552 111.6 29.136 111.168 30.672C111.024 31.152 110.688 31.872 110.688 32.352C110.688 33.744 113.904 34.224 114.336 34.224C115.008 34.224 115.392 33.696 115.776 33.216C118.8 29.424 123.888 25.2 128.928 25.2C132 25.2 134.688 26.976 134.688 30.288C134.688 34.368 131.136 35.856 127.728 36.72C125.712 37.248 123.408 37.584 121.344 37.68C120.72 37.728 120.144 37.776 120.144 38.544C120.144 39.36 120.624 40.944 120.96 41.664C121.392 42.576 121.68 43.008 122.736 43.008C124.224 43.008 127.488 42.144 128.976 41.712C134.784 39.984 139.872 37.104 139.872 30.288C139.872 24.24 135.312 20.304 129.408 20.304C124.848 20.304 121.968 22.224 118.416 24.72C118.224 24.864 118.032 25.008 117.792 25.008C117.456 25.008 117.312 24.72 117.312 24.432C117.312 24.144 117.408 23.712 117.456 23.424C117.936 21.216 118.224 18.96 118.608 16.752C118.8 15.792 118.848 15.36 119.616 14.88C119.808 14.784 120.048 14.64 120.048 14.352C120.048 13.968 119.52 13.824 119.184 13.68C118.368 13.392 115.008 12.336 114.288 12.336ZM117.36 6.816C117.36 7.344 117.984 7.584 118.464 7.872C120.528 9.024 122.688 10.416 124.512 11.952C124.896 12.24 125.52 12.912 126.048 12.912C127.056 12.912 129.024 9.984 129.024 9.12C129.024 8.304 126.24 6.768 125.52 6.336C124.656 5.808 120.768 3.312 120.048 3.312C118.896 3.312 117.36 6.192 117.36 6.816ZM164.208 8.448C163.728 8.448 163.44 8.64 163.44 9.168C163.44 9.36 163.488 9.648 163.536 9.84C163.776 11.568 163.872 15.456 163.872 17.232C163.872 18.672 163.008 18.72 161.856 18.912C160.416 19.104 157.056 19.68 155.76 19.728C154.944 19.728 154.272 19.728 154.272 20.784C154.272 21.312 154.416 22.368 154.464 22.896C154.512 23.184 154.512 23.472 154.56 23.712C154.656 24.864 154.8 25.632 155.52 25.632C155.76 25.632 156.048 25.584 156.24 25.536C157.104 25.296 162.528 24.048 163.056 24.048C163.968 24.048 164.112 24.912 164.112 25.632C164.208 28.608 164.16 32.64 164.928 35.424C166.512 41.088 172.704 41.424 177.552 41.424C178.8 41.424 185.952 41.184 186.672 40.656C187.248 40.176 187.248 37.584 187.248 36.816C187.248 36.288 187.152 35.424 186.48 35.424C186.336 35.424 186.192 35.424 186.048 35.472C182.976 36.048 179.904 36.432 176.784 36.432C173.424 36.432 170.4 36.288 169.536 33.216C169.104 31.68 168.96 26.304 168.96 24.48C168.96 23.136 169.488 22.752 170.736 22.512C171.696 22.32 177.888 21.216 178.464 21.216C178.896 21.216 179.28 21.552 179.28 22.032C179.28 22.608 178.944 24.336 178.752 24.96C178.224 26.592 177.12 27.024 175.488 27.024C175.104 27.024 174.672 26.976 174.288 26.976C173.76 26.976 173.52 27.456 173.52 27.936C173.52 28.8 173.808 30.912 174.336 31.584C174.672 31.92 175.104 31.968 175.584 31.968C182.544 31.968 183.696 27.984 184.176 21.984C184.32 20.064 185.232 20.304 187.92 20.064C189.504 19.92 190.656 19.824 191.52 19.776C193.824 19.68 194.016 19.776 194.016 17.52C194.016 14.976 194.016 14.256 193.104 14.256C192.48 14.256 190.032 14.64 189.264 14.736C188.64 14.832 185.808 15.264 185.424 15.264C184.608 15.264 184.464 14.544 184.464 13.92C184.464 12.672 184.416 11.472 184.416 10.224C184.416 9.6 184.368 8.352 184.752 7.824C184.896 7.632 185.184 7.344 185.184 7.056C185.184 6.624 184.56 6.576 184.224 6.48C183.456 6.288 179.904 5.664 179.28 5.664C178.896 5.664 178.608 5.856 178.608 6.288C178.608 6.48 178.656 6.72 178.704 6.912C179.232 9.072 179.52 12.432 179.52 14.688C179.52 16.368 178.704 16.272 176.064 16.656C175.2 16.752 170.496 17.568 170.064 17.568C169.104 17.568 169.104 16.464 169.104 15.744V14.448C169.104 13.056 169.152 11.28 169.776 10.56C169.968 10.368 170.256 10.08 170.256 9.792C170.256 9.456 169.92 9.312 169.632 9.216C168.816 9.024 165.024 8.448 164.208 8.448Z" fill="black"/>
<path d="M22.3535 63.0938V83H19.0996L12.0723 69.2188V83H8.85938V63.0938H12.0723L19.1543 76.9707V63.0938H22.3535ZM37.3412 80.2246V83H28.7005V80.2246H37.3412ZM29.5755 63.0938V83H26.2533V63.0938H29.5755ZM36.1791 71.3789V74.1133H28.7005V71.3789H36.1791ZM37.2591 63.0938V65.8828H28.7005V63.0938H37.2591ZM44.4675 78.6387L47.653 63.0938H49.6218L49.5398 66.9902L46.0945 83H44.03L44.4675 78.6387ZM42.4441 63.0938L44.9734 78.5293L45.0827 83H42.9089L39.1491 63.0938H42.4441ZM53.0808 78.4746L55.5827 63.0938H58.864L55.1179 83H52.9441L53.0808 78.4746ZM50.4148 63.0938L53.573 78.6797L53.9831 83H51.9187L48.5554 66.9766L48.4734 63.0938H50.4148ZM70.0645 77.8594C70.0645 77.4492 70.019 77.0846 69.9278 76.7656C69.8458 76.4375 69.6863 76.1413 69.4493 75.877C69.2123 75.6126 68.8751 75.3529 68.4376 75.0977C68.0092 74.8424 67.4532 74.5827 66.7696 74.3184C65.9858 74.0176 65.252 73.6895 64.5684 73.334C63.894 72.9694 63.297 72.5592 62.7774 72.1035C62.267 71.6387 61.866 71.0964 61.5743 70.4766C61.2826 69.8568 61.1368 69.1367 61.1368 68.3164C61.1368 67.5052 61.2781 66.7669 61.5606 66.1016C61.8523 65.4271 62.2624 64.8483 62.7911 64.3652C63.3289 63.873 63.9669 63.4948 64.7052 63.2305C65.4434 62.957 66.2592 62.8203 67.1524 62.8203C68.4376 62.8203 69.5359 63.0938 70.4473 63.6406C71.3679 64.1875 72.0697 64.9212 72.5528 65.8418C73.045 66.7624 73.2911 67.7832 73.2911 68.9043H69.9825C69.9825 68.2572 69.8822 67.6829 69.6817 67.1816C69.4812 66.6803 69.1713 66.2884 68.752 66.0059C68.3328 65.7233 67.7904 65.582 67.1251 65.582C66.5144 65.582 66.0085 65.7005 65.6075 65.9375C65.2156 66.1745 64.9239 66.498 64.7325 66.9082C64.5502 67.3184 64.4591 67.7878 64.4591 68.3164C64.4591 68.681 64.5365 69.0137 64.6915 69.3145C64.8464 69.6061 65.0697 69.875 65.3614 70.1211C65.6531 70.3672 66.0085 70.5996 66.4278 70.8184C66.8471 71.0371 67.3302 71.2467 67.877 71.4473C68.8067 71.7845 69.6179 72.1582 70.3106 72.5684C71.0033 72.9785 71.573 73.4388 72.0196 73.9492C72.4753 74.4505 72.8126 75.0202 73.0313 75.6582C73.2592 76.2962 73.3731 77.0208 73.3731 77.832C73.3731 78.6523 73.2318 79.3997 72.9493 80.0742C72.6759 80.7396 72.2748 81.3092 71.7462 81.7832C71.2175 82.2572 70.5795 82.6263 69.8321 82.8906C69.0847 83.1458 68.2462 83.2734 67.3165 83.2734C66.4597 83.2734 65.6348 83.1458 64.8419 82.8906C64.058 82.6354 63.3562 82.248 62.7364 81.7285C62.1166 81.1999 61.6244 80.5391 61.2598 79.7461C60.9044 78.9531 60.7266 78.0234 60.7266 76.957H64.0489C64.0489 77.5951 64.1264 78.1419 64.2813 78.5977C64.4363 79.0443 64.6596 79.4134 64.9512 79.7051C65.252 79.9876 65.6029 80.1973 66.004 80.334C66.4141 80.4616 66.8699 80.5254 67.3712 80.5254C67.991 80.5254 68.4968 80.416 68.8887 80.1973C69.2898 79.9694 69.586 79.6549 69.7774 79.2539C69.9688 78.8529 70.0645 78.388 70.0645 77.8594Z" fill="#5F5F5F"/>
</svg>
