<svg width="516" height="98" viewBox="0 0 516 98" fill="none" xmlns="http://www.w3.org/2000/svg">
<path d="M34.428 31.536C34.01 31.536 32.566 32.6 32.566 33.056C32.566 33.246 32.718 33.398 32.87 33.55C33.554 34.272 34.504 35.298 35.112 36.096C35.53 36.628 35.796 37.046 36.062 37.046C36.556 37.046 37.924 35.906 37.924 35.374C37.924 34.994 36.708 33.702 36.404 33.36C36.1 33.018 34.77 31.536 34.428 31.536ZM31.35 34.918C30.932 34.918 29.45 35.982 29.45 36.4C29.45 36.59 29.64 36.78 29.792 36.894C30.59 37.806 31.388 38.718 32.11 39.706C32.452 40.124 32.718 40.466 32.908 40.466C33.402 40.466 34.808 39.364 34.808 38.794C34.808 38.3 31.768 34.918 31.35 34.918ZM9.272 44.912C7.6 44.912 5.776 44.798 4.446 44.798C3.534 44.798 3.496 45.368 3.496 46.774C3.496 48.218 3.458 48.94 4.484 48.94C5.966 48.94 7.676 48.826 9.272 48.826H16.986C17.48 48.826 17.86 49.206 17.86 49.738C17.86 50.004 17.632 51.22 17.556 51.562C16.872 54.298 15.2 56.996 12.768 58.478C11.248 59.428 9.69 59.96 7.98 60.454C7.524 60.606 6.954 60.682 6.954 61.138C6.954 61.746 9.006 64.254 9.842 64.254C10.26 64.254 11.21 63.836 11.628 63.646C14.744 62.316 17.708 60.378 19.532 57.452C20.786 55.438 21.66 52.93 22.04 50.574C22.192 49.776 22.192 48.826 23.256 48.826H28.234C29.868 48.826 31.502 48.902 33.136 48.902C34.124 48.902 34.2 48.37 34.2 46.812C34.2 44.988 34.124 44.798 33.022 44.798C31.426 44.798 29.83 44.912 28.234 44.912H9.272ZM14.288 34.956C12.578 34.956 10.754 34.842 9.538 34.842C8.398 34.842 8.474 35.602 8.474 36.97C8.474 38.338 8.398 38.946 9.462 38.946C11.096 38.946 12.692 38.87 14.288 38.87H22.382C23.978 38.87 25.612 38.946 27.208 38.946C28.234 38.946 28.234 38.414 28.234 37.122C28.234 35.602 28.31 34.842 27.17 34.842C25.878 34.842 24.054 34.956 22.382 34.956H14.288ZM69.806 32.334C69.806 32.562 70.072 32.714 70.224 32.866C71.288 33.702 72.352 34.576 73.302 35.526C73.416 35.64 73.606 35.83 73.796 35.83C74.29 35.83 75.468 34.5 75.468 33.93C75.468 33.436 71.896 30.586 71.478 30.586C71.06 30.586 69.806 31.916 69.806 32.334ZM73.036 40.048C72.542 40.048 72.39 40.542 72.276 40.884C70.68 45.026 69.084 48.37 65.892 51.562C63.042 54.412 60.154 56.046 56.43 57.528C55.252 57.984 53.086 58.782 51.908 59.086C51.68 59.124 51.186 59.238 51.186 59.542C51.186 59.618 51.224 59.77 51.262 59.846C51.718 60.872 52.174 61.898 52.668 62.924C52.782 63.228 53.086 63.912 53.466 63.912C53.732 63.912 53.884 63.57 54.036 63.38C54.34 62.886 54.796 62.772 55.29 62.582C59.926 60.872 64.752 58.326 68.286 54.868C70.946 52.246 73.492 48.408 74.936 44.988C75.126 44.532 75.772 42.974 75.772 42.594C75.772 41.91 73.644 40.048 73.036 40.048ZM66.424 35.602C66.424 35.792 66.614 35.944 66.766 36.058C67.678 36.818 68.59 37.54 69.464 38.376C69.768 38.642 70.148 39.098 70.376 39.098C70.87 39.098 72.048 37.768 72.048 37.198C72.048 36.894 71.06 36.058 70.528 35.602C70.072 35.222 68.4 33.854 68.096 33.854C67.678 33.854 66.424 35.146 66.424 35.602ZM48.488 45.672C48.488 45.976 48.792 46.166 49.058 46.28C51.148 47.42 53.276 48.788 55.214 50.156C55.442 50.308 55.784 50.574 56.05 50.574C56.848 50.574 58.368 48.256 58.368 47.686C58.368 47.116 57.228 46.546 55.974 45.748C55.214 45.292 51.186 42.784 50.654 42.784C49.894 42.784 48.488 45.064 48.488 45.672ZM55.328 34.538C54.682 34.538 53.01 36.59 53.01 37.198C53.01 37.54 53.428 37.73 53.694 37.92C55.632 39.136 57.456 40.466 59.242 41.91C59.47 42.062 59.888 42.404 60.154 42.404C60.876 42.404 62.472 40.314 62.472 39.63C62.472 39.098 60.952 38.148 60.116 37.54C59.432 37.046 55.898 34.538 55.328 34.538ZM105.07 38.262C104.728 38.224 104.386 38.072 104.386 37.692C104.386 37.426 104.576 37.122 104.69 36.894C104.956 36.476 105.146 36.134 105.298 35.868C105.83 34.956 105.868 34.842 106.438 34.614C106.628 34.538 106.818 34.424 106.818 34.196C106.818 33.892 104.918 33.056 104.576 32.904C103.512 32.372 102.752 31.992 102.448 31.992C102.03 31.992 101.878 32.638 101.764 32.942C100.206 37.464 95.646 43.658 91.846 46.584C91.618 46.736 91.276 47.002 91.276 47.306C91.276 47.952 93.746 49.548 94.43 49.548C94.886 49.548 95.342 49.13 95.646 48.826C97.166 47.306 99.332 44.722 100.586 42.974C101.08 42.29 101.346 41.986 102.258 41.986H109.516C110.086 41.986 111.074 41.948 111.074 42.746C111.074 43.126 110.466 44.456 110.086 45.254C109.972 45.482 109.896 45.672 109.858 45.786C108.832 47.8 108.49 48.522 107.768 48.522C107.502 48.522 107.274 48.408 107.046 48.294C106.286 47.838 102.79 45.824 102.144 45.824C101.308 45.824 99.826 48.142 99.826 48.674C99.826 49.092 100.586 49.358 100.966 49.51C101.916 49.966 103.892 50.992 104.766 51.562C105.032 51.752 105.222 51.98 105.222 52.36C105.222 52.74 104.918 53.044 104.652 53.31C101.802 56.35 97.736 58.896 93.784 60.15C92.796 60.454 92.15 60.568 92.15 61.024C92.15 61.556 93.898 63.988 94.886 63.988C95.684 63.988 98.648 62.506 99.484 62.05C102.562 60.416 105.412 58.25 107.768 55.628C108.11 55.248 108.528 54.716 109.06 54.716C109.402 54.716 109.668 54.906 109.896 55.096C110.428 55.552 110.922 55.932 111.454 56.388C111.606 56.54 111.796 56.692 112.024 56.692C112.746 56.692 114.456 54.45 114.456 53.804C114.456 53.31 112.784 52.17 112.328 51.828C111.986 51.562 111.644 51.334 111.644 50.84C111.644 50.536 111.758 50.308 111.91 50.08C113.24 47.8 114.456 45.444 115.52 43.012C115.824 42.252 116.014 41.834 116.47 41.15C116.584 40.96 116.698 40.808 116.698 40.58C116.698 39.972 115.368 37.996 114.722 37.996C114.608 37.996 114.456 38.034 114.342 38.072C113.696 38.224 112.784 38.262 112.024 38.262H105.07ZM150.109 42.176C150.109 41.226 150.109 39.326 150.147 38.452C150.185 38.072 150.223 37.73 150.489 37.464C150.641 37.274 150.793 37.198 150.793 36.932C150.793 36.514 149.691 36.4 147.715 36.134C147.411 36.096 146.461 35.944 146.233 35.944C146.005 35.944 145.853 36.058 145.853 36.324V36.514C146.005 37.806 146.005 39.098 146.005 40.39V53.69C146.005 55.514 145.853 57.984 145.853 58.25C145.853 58.934 146.537 59.314 147.069 59.618C147.563 59.922 149.197 60.758 149.691 60.758C150.147 60.758 150.527 60.34 150.869 60.074C151.781 59.276 153.415 58.06 154.441 57.262C156.835 55.476 159.115 53.538 161.395 51.562C161.889 51.144 163.371 49.928 163.371 49.358C163.371 48.75 162.079 46.318 161.433 46.318C161.129 46.318 160.863 46.622 160.673 46.812C159.457 48.066 151.971 54.754 150.717 54.754C150.147 54.754 150.109 54.184 150.109 53.006V42.176ZM137.645 36.742C137.379 36.742 137.151 36.818 137.151 37.16C137.151 37.274 137.189 37.464 137.189 37.578C137.303 38.68 137.341 40.2 137.341 41.34C137.341 48.408 136.619 53.728 130.843 58.516C130.653 58.668 130.349 58.934 130.349 59.2C130.349 59.884 133.161 61.29 133.731 61.29C134.149 61.29 134.605 60.758 134.909 60.492C140.951 54.716 141.483 48.028 141.483 40.162V39.326C141.483 38.984 141.445 38.338 141.673 38.11C141.825 37.958 142.053 37.768 142.053 37.578C142.053 37.198 141.559 37.198 141.103 37.122C140.305 37.008 138.367 36.742 137.645 36.742ZM180.585 39.364C180.585 40.124 180.281 40.428 179.521 40.428H178.837C178.077 40.428 177.773 40.124 177.773 39.364V35.374C177.773 33.968 177.811 33.588 178.191 33.284C178.533 33.094 178.685 33.018 178.685 32.79C178.685 32.372 178.039 32.372 177.773 32.334C177.241 32.258 174.999 32.068 174.543 32.068C174.239 32.068 173.935 32.144 173.935 32.524C173.935 32.638 173.935 32.752 173.973 32.866C174.087 33.512 174.087 34.348 174.087 35.146V47.306C174.087 51.828 173.669 58.668 171.845 62.772C171.731 63 171.541 63.38 171.541 63.608C171.541 64.444 173.631 65.47 174.391 65.47C174.961 65.47 175.189 64.786 175.417 64.216C176.671 61.176 177.241 56.958 177.545 53.652C177.621 52.93 177.925 52.664 178.685 52.664H180.395C181.117 52.664 181.459 52.968 181.459 53.728V60.796C181.459 62.126 181.383 63.418 181.383 64.71C181.383 65.622 181.763 65.622 183.245 65.622C184.727 65.622 185.145 65.622 185.145 64.71C185.145 63.418 185.069 62.126 185.069 60.796V53.69C185.069 52.74 185.145 51.79 185.145 50.84C185.145 49.396 184.537 49.054 183.169 49.054C182.257 49.054 181.345 49.13 180.433 49.13H178.837C178.077 49.13 177.773 48.788 177.773 48.066V45.026C177.773 44.266 178.077 43.962 178.837 43.962H183.663C184.917 43.962 186.019 44.076 186.627 44.076C187.425 44.076 187.387 43.582 187.387 42.214C187.387 40.846 187.463 40.352 186.627 40.352C186.399 40.352 185.525 40.39 185.183 40.39C184.461 40.39 184.157 40.086 184.157 39.364V34.386C184.157 33.094 184.195 32.752 184.575 32.486C184.841 32.334 185.069 32.22 185.069 31.992C185.069 31.612 184.423 31.574 184.157 31.574C183.511 31.498 181.611 31.308 181.041 31.308C180.737 31.308 180.433 31.346 180.433 31.764C180.433 31.84 180.433 31.954 180.471 32.068C180.585 32.828 180.585 33.74 180.585 34.576V39.364ZM199.775 45.52C200.497 45.52 200.725 45.558 200.725 46.052C200.725 47.42 199.547 51.144 198.939 52.512C198.863 52.702 198.711 52.854 198.521 52.854C198.293 52.854 198.179 52.702 198.065 52.512C197.191 50.46 196.621 48.712 196.241 46.508V46.318C196.241 45.71 196.659 45.52 197.191 45.52H199.775ZM191.871 46.356C191.871 45.9 192.023 45.596 192.479 45.52C192.669 45.596 192.745 45.71 192.783 45.9C193.163 49.776 194.113 52.664 195.861 56.16C195.975 56.426 196.089 56.654 196.089 56.92C196.089 57.3 195.937 57.528 195.747 57.794C194.531 59.352 192.935 60.872 191.339 62.012C190.845 62.354 190.085 62.886 190.085 63.304C190.085 63.912 191.567 65.622 192.365 65.622C193.467 65.622 197.039 61.936 197.875 61.024C198.065 60.796 198.255 60.682 198.521 60.682C198.787 60.682 198.977 60.834 199.129 61.024C199.927 61.936 202.967 65.318 204.069 65.318C204.905 65.318 206.463 63.646 206.463 62.924C206.463 62.582 206.235 62.468 205.665 62.012C203.917 60.72 202.663 59.542 201.295 57.832C201.105 57.566 200.953 57.338 200.953 56.996C200.953 56.73 201.067 56.464 201.181 56.236C203.081 52.854 204.145 49.206 204.639 45.406C204.677 45.102 204.791 44.494 204.791 44.228C204.791 43.468 203.841 41.91 202.359 41.91C201.599 41.91 200.839 41.948 200.079 41.948H192.935C192.213 41.948 191.871 41.644 191.871 40.884V37.388C191.871 36.628 192.213 36.324 192.935 36.324H200.763C202.207 36.324 203.727 36.4 205.019 36.4C205.893 36.4 205.855 35.982 205.855 34.538C205.855 33.056 205.893 32.638 205.019 32.638C203.727 32.638 202.245 32.752 200.763 32.752H193.733C192.555 32.752 191.377 32.676 190.199 32.676C188.831 32.676 188.223 33.056 188.223 34.5C188.223 35.678 188.299 36.818 188.299 37.996V45.862C188.299 50.802 187.919 57.414 185.905 61.974C185.791 62.24 185.563 62.658 185.563 62.962C185.563 63.646 187.349 64.976 188.109 64.976C188.793 64.976 189.401 63.114 189.591 62.544C191.301 57.756 191.871 52.018 191.871 46.926V46.356ZM244.843 36.856C245.983 36.856 246.895 37.768 246.895 38.908C246.895 40.048 245.983 40.96 244.843 40.96C243.703 40.96 242.791 40.048 242.791 38.908C242.791 37.768 243.703 36.856 244.843 36.856ZM244.843 35.108C242.753 35.108 241.081 36.818 241.081 38.908C241.081 40.998 242.753 42.67 244.843 42.67C246.933 42.67 248.605 40.998 248.605 38.908C248.605 36.818 246.933 35.108 244.843 35.108ZM237.965 40.884C237.395 40.884 235.115 42.404 235.115 43.088C235.115 43.392 235.343 43.658 235.533 43.848C238.535 47.42 241.043 51.904 242.981 56.16C243.133 56.502 243.285 56.844 243.741 56.844C244.387 56.844 247.313 55.514 247.313 54.564C247.313 53.12 242.297 45.71 241.195 44.228C240.701 43.544 239.181 41.568 238.649 41.15C238.459 40.96 238.231 40.884 237.965 40.884ZM225.045 40.124C224.703 40.124 224.513 40.732 224.399 40.998C222.461 45.9 218.357 51.144 214.557 54.792C214.405 54.944 214.253 55.096 214.253 55.324C214.253 56.122 216.913 57.68 217.483 57.68C218.129 57.68 219.307 56.312 219.725 55.818C222.955 52.284 225.805 48.104 228.047 43.886C228.237 43.544 228.351 43.316 228.693 43.126C228.921 43.012 229.301 42.86 229.301 42.594C229.301 42.176 227.667 41.34 227.287 41.15C226.869 40.922 225.425 40.124 225.045 40.124ZM287.669 41.036C287.403 41.036 287.175 41.264 287.023 41.454C281.627 48.332 272.127 55.514 263.729 57.984C263.235 58.136 262.551 58.212 262.551 58.63C262.551 59.01 263.463 60.53 263.691 60.91C263.957 61.366 264.755 62.886 265.173 62.886C265.363 62.886 265.477 62.81 265.553 62.658C265.857 62.012 265.895 61.974 267.149 61.366C275.167 57.642 281.627 53.386 287.783 47.04C288.277 46.546 289.797 45.064 289.797 44.418C289.797 43.848 288.429 41.036 287.669 41.036ZM265.211 34.956C264.337 34.956 262.817 37.388 262.817 37.958C262.817 38.3 263.121 38.49 263.425 38.68C264.793 39.516 267.415 41.264 268.479 42.214C268.973 42.67 269.695 43.24 269.999 43.24C270.721 43.24 272.507 41.188 272.507 40.314C272.507 39.744 270.683 38.49 270.189 38.148C269.467 37.616 265.819 34.956 265.211 34.956ZM309.899 36.932C308.265 36.932 306.631 36.856 304.997 36.856C303.933 36.856 303.971 37.274 303.971 39.022C303.971 40.732 303.933 41.074 305.111 41.074C306.707 41.074 308.265 40.998 309.861 40.998H323.351C324.035 40.998 324.681 41.074 324.681 41.796C324.681 42.024 324.643 42.48 324.605 42.708C324.035 47.002 321.717 51.03 318.373 53.804C315.789 55.932 312.217 57.946 308.911 58.82C308.569 58.896 308.227 59.01 308.227 59.428C308.227 60.036 309.595 62.582 310.507 62.582C310.887 62.582 311.381 62.392 311.761 62.24C314.269 61.29 316.853 59.884 319.057 58.364C325.213 54.032 327.911 48.978 329.203 41.644C329.507 40.01 329.849 39.592 329.849 39.212C329.849 38.832 328.215 36.78 327.303 36.78C327.189 36.78 326.771 36.856 326.619 36.856C325.859 36.932 323.997 36.932 323.199 36.932H309.899ZM353.599 39.934C353.599 39.326 353.599 38.718 353.637 38.148C353.637 37.73 353.637 37.274 353.979 36.97C354.131 36.818 354.321 36.704 354.321 36.476C354.321 36.096 353.865 36.058 353.523 35.982C352.953 35.83 351.053 35.526 350.445 35.45C350.217 35.412 349.799 35.336 349.647 35.336C349.343 35.336 349.229 35.564 349.229 35.792C349.229 35.982 349.305 36.78 349.343 37.046C349.381 37.692 349.381 38.528 349.381 39.364V54.83C349.381 56.236 349.305 57.642 349.305 58.934C349.305 59.58 349.343 59.922 349.799 60.264C350.255 60.568 352.345 61.67 352.801 61.67C353.105 61.67 353.485 61.442 353.751 61.29C354.169 61.062 354.625 60.872 355.081 60.682C361.047 58.136 366.785 54.944 371.801 50.802C372.713 50.042 373.625 49.282 374.461 48.446C374.651 48.256 374.879 48.028 374.879 47.762C374.879 47.002 373.587 44.494 372.979 44.494C372.637 44.494 372.295 44.874 372.067 45.102C368.039 49.13 362.643 52.702 357.475 55.096C356.563 55.514 354.815 56.312 354.359 56.312C353.675 56.312 353.599 55.704 353.599 54.754V39.934ZM410.163 42.404C409.745 42.404 409.707 42.822 409.669 43.164C409.251 46.204 408.187 49.168 406.553 51.79C403.817 56.236 399.675 58.478 394.773 59.808C394.393 59.922 394.165 60.074 394.165 60.492C394.165 61.024 395.571 63.114 396.293 63.114C396.559 63.114 397.205 62.886 397.471 62.81C401.537 61.518 405.033 59.466 407.807 56.198C410.429 53.044 411.873 49.472 413.013 45.558C413.165 45.102 413.203 44.988 413.507 44.76C413.697 44.608 413.963 44.456 413.963 44.19C413.963 43.81 413.583 43.62 413.279 43.506C412.823 43.316 410.505 42.404 410.163 42.404ZM403.437 43.772C402.791 42.708 402.069 41.644 401.537 41.644C401.043 41.644 398.991 42.594 398.991 43.24C398.991 43.544 399.181 43.81 399.333 44C400.321 45.482 401.195 46.888 401.993 48.484C402.145 48.788 402.373 49.206 402.753 49.206C403.285 49.206 405.489 48.218 405.489 47.458C405.489 46.964 404.121 44.874 403.779 44.342L403.437 43.772ZM393.823 43.772C393.329 43.772 391.277 44.722 391.277 45.406C391.277 45.672 391.467 45.9 391.581 46.09C392.607 47.572 393.519 49.092 394.317 50.688C394.469 50.992 394.659 51.334 395.039 51.334C395.495 51.334 397.775 50.384 397.775 49.586C397.775 49.092 396.483 47.116 396.141 46.584C395.761 45.976 394.887 44.608 394.469 44.114C394.279 43.924 394.127 43.772 393.823 43.772ZM445.389 44.304C445.275 44.418 445.199 44.456 445.047 44.456C444.933 44.456 444.743 44.38 444.743 44.076V38.376C444.743 37.426 444.705 36.704 444.705 36.134C444.705 35.108 444.781 34.538 445.123 34.12C445.199 34.006 445.313 33.778 445.313 33.626C445.313 33.094 443.755 32.942 442.045 32.714C441.779 32.676 440.981 32.562 440.753 32.562C440.373 32.562 440.259 32.752 440.259 33.132C440.259 33.284 440.297 33.626 440.297 33.816C440.335 34.766 440.411 35.792 440.411 36.78V58.44C440.411 60.15 440.297 61.86 440.297 63.57C440.297 64.824 440.943 64.862 442.463 64.862C444.781 64.862 444.819 64.634 444.819 62.886C444.819 61.366 444.743 59.884 444.743 58.364V47.99C444.743 47.686 444.857 47.382 445.199 47.382C445.351 47.382 445.465 47.458 445.579 47.534C447.821 49.13 449.037 50.156 451.089 51.98C451.317 52.208 451.621 52.474 451.925 52.474C452.685 52.474 454.471 50.498 454.471 49.852C454.471 49.206 452.343 47.572 451.811 47.116C451.051 46.47 447.251 43.468 446.491 43.468C446.073 43.468 445.655 44 445.389 44.304Z" fill="#3E3E3E"/>
<path d="M479 65C478.2 65 477.5 64.7 476.9 64.1C476.3 63.5 476 62.8 476 62V54.85H479V62H505V54.85H508V62C508 62.8 507.7 63.5 507.1 64.1C506.5 64.7 505.8 65 505 65H479ZM492 57.35L482.35 47.7L484.5 45.55L490.5 51.55V33H493.5V51.55L499.5 45.55L501.65 47.7L492 57.35Z" fill="black"/>
</svg>
