<svg width="210" height="75" viewBox="0 0 210 75" fill="none" xmlns="http://www.w3.org/2000/svg">
<path d="M4.785 1.705C4.485 1.705 4.365 1.585 4.38 1.285C4.38 1.15 4.395 1.075 4.515 0.984999C4.605 0.909999 4.695 0.865 4.695 0.759999C4.695 0.595 4.485 0.595 4.365 0.579999C4.125 0.549999 3.36 0.489999 3.15 0.489999C3.015 0.489999 2.91 0.535 2.91 0.699999V0.834999C2.94 0.984999 2.955 1.135 2.955 1.3C2.94 1.585 2.82 1.705 2.55 1.705H2.355C1.95 1.705 1.545 1.675 1.14 1.675C0.779997 1.675 0.794997 1.855 0.794997 2.23C0.794997 2.605 0.779997 2.785 1.155 2.785C1.545 2.785 1.95 2.755 2.355 2.755H2.67C2.88 2.755 2.955 2.845 2.955 3.04V3.19C2.955 3.385 2.88 3.475 2.67 3.475C2.295 3.49 1.92 3.445 1.545 3.445C1.2 3.445 1.215 3.61 1.215 3.985C1.215 4.345 1.2 4.525 1.545 4.525C1.92 4.525 2.295 4.48 2.67 4.495C2.88 4.495 2.955 4.585 2.955 4.78V4.945C2.955 5.14 2.88 5.23 2.67 5.23H2.22C1.815 5.23 1.395 5.2 0.974997 5.2C0.614997 5.2 0.629997 5.365 0.629997 5.77C0.629997 6.175 0.614997 6.355 0.974997 6.355C1.395 6.355 1.815 6.325 2.22 6.325H5.04C5.46 6.325 5.865 6.355 6.285 6.355C6.66 6.355 6.645 6.19 6.645 5.785C6.645 5.365 6.66 5.2 6.285 5.2C5.865 5.2 5.46 5.23 5.04 5.23H4.65C4.44 5.23 4.365 5.14 4.365 4.945V4.78C4.365 4.585 4.44 4.495 4.65 4.495C5.025 4.48 5.4 4.525 5.775 4.525C6.12 4.525 6.105 4.36 6.105 3.985C6.105 3.61 6.12 3.445 5.775 3.445C5.4 3.445 5.025 3.49 4.65 3.475C4.44 3.475 4.365 3.385 4.365 3.19V3.04C4.365 2.83 4.44 2.755 4.65 2.755H4.965C5.37 2.755 5.775 2.785 6.18 2.785C6.54 2.785 6.525 2.62 6.525 2.23C6.525 1.855 6.555 1.675 6.195 1.675C5.79 1.675 5.385 1.705 4.965 1.705H4.785ZM2.565 10.105C2.565 9.925 2.67 9.82 2.85 9.82H4.53C4.71 9.82 4.815 9.925 4.815 10.105V10.255C4.8 10.42 4.71 10.54 4.53 10.54H2.85C2.67 10.54 2.58 10.42 2.565 10.255V10.105ZM2.85 8.89C2.67 8.89 2.565 8.785 2.565 8.605V8.47C2.565 8.29 2.67 8.185 2.85 8.185H4.53C4.71 8.185 4.8 8.305 4.815 8.47V8.605C4.815 8.785 4.71 8.89 4.53 8.89H2.85ZM4.815 12.16C4.815 12.505 4.8 12.64 4.29 12.64C4.095 12.64 3.915 12.625 3.75 12.625C3.525 12.625 3.51 12.82 3.51 13C3.51 14.005 3.915 13.96 4.275 13.96C5.205 13.96 6.195 13.885 6.195 12.7C6.195 12.43 6.165 12.16 6.165 11.89V8.575C6.165 8.245 6.195 7.9 6.195 7.555C6.195 7.045 5.91 6.985 5.475 6.985C5.145 6.985 4.8 7 4.47 7H2.91C2.58 7 2.235 6.985 1.905 6.985C1.47 6.985 1.2 7.06 1.2 7.555C1.2 7.9 1.215 8.245 1.215 8.605V12.31C1.215 12.73 1.185 13.15 1.185 13.585C1.185 13.945 1.305 13.96 1.89 13.96C2.475 13.96 2.595 13.93 2.595 13.585C2.595 13.165 2.565 12.73 2.565 12.31V11.92C2.565 11.62 2.685 11.5 2.985 11.5H4.395C4.695 11.5 4.815 11.62 4.815 11.92V12.16ZM8.205 4.57C8.1 4.57 7.995 4.525 7.995 4.405C7.995 4.345 8.01 4.3 8.04 4.255C8.34 3.895 8.55 3.58 8.805 3.19C8.97 2.92 9.105 2.86 9.405 2.86H10.26C10.38 2.86 10.545 2.845 10.545 2.995C10.545 3.115 9.945 4.105 9.84 4.255C9.66 4.525 9.555 4.57 9.225 4.57H8.205ZM11.76 6.415C11.73 6.67 11.61 6.805 11.34 6.835H10.92C10.665 6.805 10.53 6.67 10.5 6.415V6.265C10.53 6.01 10.665 5.875 10.92 5.845H11.34C11.61 5.875 11.73 6.01 11.76 6.265V6.415ZM11.76 8.77C11.73 9.025 11.61 9.16 11.34 9.19H10.92C10.665 9.16 10.53 9.025 10.5 8.77V8.545C10.53 8.275 10.665 8.155 10.92 8.125H11.34C11.61 8.155 11.73 8.275 11.76 8.545V8.77ZM7.11 5.11C7.11 5.77 7.095 5.875 7.38 5.875C7.71 5.875 8.04 5.845 8.37 5.845H8.64C8.94 5.845 9.06 5.965 9.06 6.265V6.415C9.06 6.715 8.94 6.835 8.64 6.835H8.235C7.8 6.835 7.38 6.805 6.945 6.805C6.585 6.805 6.585 6.985 6.585 7.48C6.585 7.96 6.57 8.155 6.945 8.155C7.38 8.155 7.8 8.125 8.235 8.125H8.64C8.94 8.125 9.06 8.245 9.06 8.545V8.77C9.06 9.055 8.94 9.19 8.64 9.19C8.16 9.205 7.635 9.145 7.275 9.145C6.945 9.145 6.975 9.34 6.975 9.82C6.975 10.315 6.96 10.495 7.275 10.495C7.635 10.495 8.16 10.435 8.64 10.45C8.94 10.45 9.06 10.585 9.06 10.87V11.545C9.06 12.28 9.075 12.475 8.37 12.475C8.19 12.475 8.01 12.46 7.83 12.46C7.53 12.46 7.47 12.655 7.47 12.97C7.47 13.21 7.53 13.495 7.635 13.72C7.755 13.945 7.905 13.96 8.22 13.96C9.09 13.96 10.515 13.915 10.515 12.715C10.515 12.4 10.5 12.085 10.5 11.77V10.87C10.5 10.585 10.62 10.45 10.92 10.45H11.46C11.61 10.465 11.715 10.615 11.79 10.72C11.88 10.795 12.06 10.81 12.255 10.81H12.435C12.99 10.81 13.17 10.84 13.17 10.48C13.17 10.105 13.14 9.745 13.14 9.37V8.485C13.14 8.26 13.23 8.155 13.47 8.14C13.545 8.155 13.605 8.155 13.68 8.155C14.055 8.155 14.04 7.945 14.04 7.48C14.04 7.045 14.07 6.805 13.695 6.805H13.47C13.23 6.805 13.14 6.7 13.14 6.46V6.145C13.14 5.815 13.155 5.5 13.155 5.185C13.155 4.675 12.96 4.555 12.48 4.555C12.21 4.555 11.94 4.57 11.685 4.57C11.565 4.57 11.445 4.51 11.445 4.375C11.445 4.315 11.475 4.285 11.49 4.24C11.67 3.955 12.405 2.74 12.405 2.485C12.405 2.275 12.15 1.975 12 1.84C11.805 1.675 11.655 1.645 11.43 1.645C11.28 1.645 11.085 1.66 10.83 1.66H9.9C9.795 1.66 9.705 1.615 9.705 1.51C9.705 1.48 9.705 1.45 9.72 1.42C9.78 1.285 9.825 1.285 9.945 1.255C10.05 1.24 10.155 1.165 10.155 1.09C10.155 0.94 9.765 0.849999 9.54 0.79C9.375 0.745 8.715 0.535 8.61 0.535C8.505 0.535 8.46 0.624999 8.415 0.714999C8.04 1.795 7.32 2.98 6.54 3.835C6.495 3.895 6.39 3.985 6.39 4.075C6.39 4.24 6.78 4.495 6.915 4.585C7.065 4.69 7.11 4.795 7.11 4.975V5.11ZM22.68 4.36C22.68 4.225 22.32 3.565 22.23 3.415C21.93 2.875 21.75 2.53 21.555 2.53C21.33 2.53 20.565 2.83 20.565 3.1C20.565 3.175 20.655 3.31 20.685 3.385C20.895 3.73 21.21 4.27 21.375 4.645C21.435 4.78 21.48 4.9 21.66 4.9C21.87 4.9 22.68 4.6 22.68 4.36ZM27.585 2.44C27.885 2.44 28.005 2.56 28.005 2.86V11.395C28.005 12.115 28.035 12.37 27.375 12.37C27.09 12.37 26.82 12.325 26.535 12.325C26.265 12.325 26.205 12.55 26.205 12.775C26.205 13.855 26.55 13.915 27.15 13.915C27.75 13.915 28.59 13.81 29.085 13.435C29.565 13.075 29.595 12.58 29.595 12.01C29.595 11.635 29.565 11.26 29.565 10.9V3.13C29.565 2.665 29.595 2.2 29.595 1.735C29.595 1.135 29.325 0.984999 28.755 0.984999C28.32 0.984999 27.885 1.015 27.45 1.015H19.485C19.035 1.015 18.6 0.984999 18.165 0.984999C17.595 0.984999 17.34 1.15 17.34 1.75C17.34 2.215 17.37 2.665 17.37 3.13V11.215C17.37 11.95 17.325 12.685 17.325 13.42C17.325 13.9 17.49 13.915 18.15 13.915C18.81 13.915 18.975 13.9 18.975 13.42C18.975 12.685 18.93 11.95 18.93 11.215V2.86C18.93 2.56 19.05 2.44 19.35 2.44H27.585ZM24.975 2.815C24.705 3.505 24.465 4.06 24.12 4.705C23.94 4.975 23.835 5.035 23.505 5.035H21.6C21.075 5.035 20.535 4.99 20.01 4.99C19.62 4.99 19.635 5.185 19.635 5.68C19.635 6.16 19.62 6.355 20.01 6.355C20.535 6.355 21.075 6.31 21.6 6.31H22.32C22.62 6.31 22.74 6.445 22.74 6.73V9.52C22.74 9.82 22.62 9.94 22.32 9.94H22.005C21.705 9.94 21.585 9.82 21.585 9.52V8.665C21.585 8.065 21.57 7.72 21.75 7.585C21.84 7.525 21.915 7.495 21.915 7.39C21.915 7.225 21.705 7.21 21.585 7.21C21.345 7.195 20.685 7.15 20.49 7.15C20.355 7.15 20.235 7.165 20.235 7.33C20.235 7.36 20.25 7.405 20.25 7.45C20.28 7.72 20.295 7.99 20.295 8.26V10.36C20.295 10.81 20.265 11.26 20.265 11.695C20.265 12.085 20.415 12.1 20.94 12.1C21.57 12.1 21.63 12.07 21.615 11.59C21.63 11.35 21.72 11.245 21.96 11.245H25.035C25.23 11.245 25.305 11.32 25.32 11.515C25.335 11.875 25.44 11.89 26.025 11.89C26.535 11.89 26.685 11.89 26.685 11.485C26.685 11.035 26.655 10.6 26.655 10.15V8.68C26.655 8.05 26.64 7.75 26.82 7.6C26.91 7.54 26.985 7.495 26.985 7.405C26.985 7.255 26.82 7.225 26.7 7.225C26.46 7.21 25.74 7.15 25.53 7.15C25.41 7.15 25.29 7.18 25.29 7.33C25.29 7.375 25.29 7.42 25.305 7.465C25.35 7.735 25.35 8.005 25.35 8.275V9.52C25.35 9.82 25.23 9.94 24.93 9.94H24.57C24.27 9.94 24.15 9.82 24.15 9.52V6.73C24.15 6.445 24.27 6.31 24.57 6.31H25.335C25.86 6.31 26.4 6.355 26.925 6.355C27.3 6.355 27.285 6.16 27.285 5.665C27.285 5.2 27.315 4.99 26.925 4.99C26.535 4.99 26.145 5.02 25.755 5.02C25.635 5.02 25.53 4.96 25.53 4.81C25.53 4.765 25.545 4.735 25.575 4.69C25.77 4.33 25.935 3.97 26.13 3.61C26.205 3.46 26.25 3.46 26.415 3.43C26.49 3.415 26.64 3.415 26.64 3.265C26.64 3.07 26.04 2.845 25.875 2.77C25.635 2.665 25.335 2.515 25.2 2.515C25.065 2.515 25.035 2.68 24.975 2.815ZM46.11 12.895C46.11 12.805 46.035 12.715 45.975 12.655C45.495 12.22 44.985 11.83 44.475 11.44C44.205 11.23 43.08 10.345 42.81 10.345C42.435 10.345 41.82 10.99 41.82 11.17C41.82 11.29 41.97 11.395 42.075 11.455C42.975 12.025 43.965 12.82 44.775 13.54C44.88 13.63 45 13.75 45.15 13.75C45.45 13.75 46.11 13.135 46.11 12.895ZM36.795 10.36C36.72 10.36 36.66 10.435 36.6 10.495C35.94 11.215 34.785 12.01 33.885 12.43C33.72 12.505 33.48 12.58 33.48 12.73C33.48 12.955 34.17 13.675 34.395 13.675C34.53 13.675 34.785 13.555 34.92 13.48C35.775 13.045 36.795 12.205 37.515 11.56C37.635 11.44 37.68 11.44 37.83 11.425C37.92 11.425 38.085 11.41 38.085 11.29C38.085 11.11 36.915 10.36 36.795 10.36ZM40.59 10.375C40.59 10.09 40.71 9.97 40.995 9.97H44.265C44.88 9.97 45.495 10 46.095 10C46.44 10 46.425 9.82 46.425 9.31C46.425 8.8 46.44 8.62 46.095 8.62C45.48 8.62 44.88 8.665 44.265 8.665H36.075C35.775 8.665 35.655 8.545 35.655 8.245V2.83C35.655 2.275 35.67 2.005 35.82 1.885C35.925 1.81 36 1.78 36 1.675C36 1.495 35.745 1.495 35.625 1.48C35.325 1.465 34.62 1.42 34.35 1.42C34.215 1.42 34.095 1.435 34.095 1.615C34.095 1.66 34.095 1.705 34.11 1.765C34.155 2.08 34.155 2.485 34.155 2.86V8.29C34.155 8.785 34.11 9.28 34.11 9.76C34.11 10.285 34.395 10.3 34.905 10.3C35.28 10.3 35.46 10.285 35.61 10.12C35.685 10.03 35.73 9.97 35.865 9.97H38.64C38.94 9.97 39.06 10.09 39.06 10.375V11.68C39.06 12.295 39.015 12.895 39.015 13.495C39.015 13.975 39.18 13.99 39.825 13.99C40.47 13.99 40.62 13.975 40.62 13.495C40.62 12.895 40.59 12.295 40.59 11.68V10.375ZM38.865 6.13C38.865 5.92 39.015 5.77 39.225 5.77H42.345C42.555 5.77 42.705 5.92 42.705 6.13V6.22C42.705 6.43 42.555 6.58 42.345 6.58H39.225C39.015 6.58 38.865 6.43 38.865 6.22V6.13ZM38.865 4.285C38.865 4.075 39.015 3.925 39.225 3.925H42.345C42.555 3.925 42.705 4.075 42.705 4.285V4.36C42.705 4.57 42.555 4.72 42.345 4.72H39.225C39.015 4.72 38.865 4.57 38.865 4.36V4.285ZM39.225 2.875C39.015 2.875 38.865 2.74 38.865 2.53V2.455C38.865 2.245 39.015 2.095 39.225 2.095H42.345C42.555 2.095 42.705 2.245 42.705 2.455V2.53C42.705 2.74 42.555 2.875 42.345 2.875H39.225ZM42.78 7.78C42.945 7.87 43.23 7.87 43.425 7.87C43.965 7.87 44.235 7.87 44.235 7.48C44.235 7.15 44.205 6.82 44.205 6.505V2.41C44.205 2.11 44.22 1.81 44.22 1.495C44.22 1.03 43.86 0.969999 43.485 0.969999C43.11 0.969999 42.75 0.984999 42.375 0.984999H39.195C38.82 0.984999 38.445 0.969999 38.07 0.969999C37.695 0.969999 37.35 1.03 37.35 1.51C37.35 1.81 37.365 2.11 37.365 2.41V6.505C37.365 6.82 37.335 7.24 37.335 7.48C37.335 7.885 37.635 7.87 38.145 7.87C38.34 7.87 38.625 7.87 38.79 7.78C38.85 7.735 38.895 7.705 38.97 7.69H42.6C42.66 7.705 42.72 7.735 42.78 7.78ZM54.795 10.48C54.795 10.105 54.39 8.35 54.285 7.9C54.15 7.36 53.73 5.785 53.52 5.35C53.43 5.185 53.34 5.11 53.145 5.11C52.965 5.11 52.665 5.185 52.485 5.245C52.29 5.305 52.035 5.38 52.035 5.635C52.035 5.755 52.095 5.95 52.14 6.07C52.68 7.615 53.025 8.86 53.295 10.48C53.355 10.795 53.355 11.02 53.73 11.02C53.985 11.02 54.795 10.9 54.795 10.48ZM58.575 5.155C58.17 7.405 57.675 9.28 56.955 11.455C56.865 11.74 56.715 11.815 56.415 11.815H51.585C50.985 11.815 50.4 11.77 49.8 11.77C49.41 11.77 49.44 11.965 49.44 12.55C49.44 13.12 49.41 13.33 49.8 13.33C50.4 13.33 50.985 13.3 51.585 13.3H60.45C61.05 13.3 61.635 13.33 62.235 13.33C62.61 13.33 62.595 13.135 62.595 12.55C62.595 11.965 62.61 11.77 62.235 11.77C61.635 11.77 61.05 11.815 60.45 11.815H58.71C58.545 11.8 58.395 11.74 58.395 11.545C58.395 11.515 58.41 11.47 58.425 11.44C58.665 10.735 58.89 10.03 59.115 9.325C59.475 8.17 59.76 7 60.09 5.83C60.135 5.725 60.165 5.695 60.345 5.65C60.45 5.62 60.54 5.59 60.54 5.455C60.54 5.32 60.375 5.275 60.27 5.23C60.06 5.155 58.98 4.825 58.815 4.825C58.635 4.825 58.605 5.005 58.575 5.155ZM56.82 1.735C56.82 1.315 56.835 1.12 57.015 1C57.135 0.924999 57.225 0.894999 57.225 0.79C57.225 0.595 56.94 0.595 56.805 0.579999C56.49 0.535 55.755 0.474999 55.455 0.474999C55.305 0.474999 55.17 0.504999 55.17 0.684999C55.17 0.73 55.185 0.79 55.185 0.834999C55.23 1.255 55.245 1.69 55.245 2.125V2.41C55.245 2.71 55.125 2.83 54.825 2.83H52.26C51.675 2.83 51.105 2.8 50.52 2.8C50.13 2.8 50.16 2.98 50.16 3.58C50.16 4.15 50.13 4.345 50.52 4.345C51.105 4.345 51.675 4.315 52.26 4.315H59.835C60.42 4.315 61.005 4.345 61.575 4.345C61.965 4.345 61.935 4.15 61.935 3.58C61.935 2.98 61.965 2.8 61.575 2.8C60.99 2.8 60.42 2.83 59.835 2.83H57.24C56.955 2.83 56.82 2.71 56.82 2.41V1.735ZM69.045 8.635C69.045 8.35 68.175 7.825 67.965 7.825C67.8 7.825 67.755 7.99 67.695 8.14C67.275 9.34 66.435 11.395 65.745 12.43C65.685 12.505 65.58 12.655 65.58 12.745C65.58 12.91 65.97 13.195 66.225 13.375C66.3 13.42 66.36 13.465 66.39 13.495C66.405 13.51 66.435 13.525 66.465 13.555C66.585 13.66 66.795 13.81 66.915 13.81C66.99 13.81 67.11 13.765 67.11 13.63C67.11 13.51 67.065 13.405 67.065 13.33C67.065 13.24 67.185 13.015 67.23 12.925C67.545 12.28 69.045 9.145 69.045 8.635ZM69.495 2.41C69.495 2.17 68.7 1.615 68.505 1.48C68.475 1.45 68.415 1.42 68.355 1.375C68.025 1.135 67.425 0.699999 67.275 0.699999C67.035 0.699999 66.435 1.495 66.435 1.735C66.435 1.87 66.585 1.945 66.705 2.02C67.185 2.32 67.89 2.815 68.295 3.19C68.385 3.265 68.505 3.385 68.61 3.385C68.835 3.385 69.495 2.62 69.495 2.41ZM68.82 5.635C68.82 5.455 68.175 4.975 67.845 4.72C67.77 4.675 67.71 4.63 67.68 4.6C67.515 4.48 66.735 3.895 66.6 3.895C66.345 3.895 65.745 4.675 65.745 4.915C65.745 5.065 65.925 5.17 66.03 5.245C66.57 5.605 67.125 6.01 67.62 6.46C67.695 6.535 67.815 6.655 67.935 6.655C68.205 6.655 68.82 5.86 68.82 5.635ZM75.915 10.09C75.72 10.09 74.835 10.615 74.835 10.84C74.835 11.26 77.61 13.945 78.015 13.945C78.345 13.945 79.05 13.315 79.05 13.045C79.05 12.925 78.93 12.85 78.855 12.805C78.045 12.235 76.935 11.185 76.32 10.435C76.23 10.345 76.035 10.09 75.915 10.09ZM73.17 10.945C73.17 10.795 72.81 10.6 72.645 10.495C72.495 10.39 71.895 9.985 71.76 9.985C71.67 9.985 71.61 10.045 71.55 10.12C71.04 10.81 69.525 12.145 68.805 12.655C68.715 12.715 68.52 12.85 68.52 12.955C68.52 13.225 69.27 13.87 69.6 13.87C69.78 13.87 69.96 13.72 70.095 13.6C70.755 13.075 72.045 11.92 72.585 11.29C72.645 11.23 72.75 11.08 72.855 11.08C72.945 11.08 73.17 11.08 73.17 10.945ZM72.315 8.41C72.06 8.38 71.925 8.26 71.895 7.99V6.04C71.925 5.785 72.06 5.65 72.315 5.62H74.58C74.835 5.65 74.97 5.785 75 6.04V7.99C74.97 8.26 74.835 8.38 74.58 8.41H72.315ZM71.895 3.805C71.895 3.625 71.91 3.46 71.91 3.28C71.91 2.845 71.985 2.815 72.72 2.74C73.98 2.605 75.24 2.41 76.47 2.125C76.635 2.08 77.28 1.93 77.385 1.93C77.46 1.93 77.52 1.945 77.58 1.975C77.64 2.005 77.685 2.02 77.745 2.02C77.85 2.02 77.94 1.96 77.94 1.855C77.94 1.81 77.925 1.78 77.91 1.75L77.7 1.465L77.265 0.849999C77.19 0.745 76.995 0.489999 76.875 0.489999C76.845 0.489999 76.8 0.489999 76.77 0.504999C75.315 1.105 73.275 1.39 71.7 1.525C70.935 1.585 70.38 1.54 70.38 2.425C70.38 2.92 70.395 3.415 70.395 3.91V7.99C70.395 8.26 70.29 8.38 70.005 8.395C69.87 8.38 69.735 8.38 69.6 8.38C69.21 8.38 69.21 8.53 69.21 9.115C69.21 9.655 69.21 9.835 69.585 9.835C70.125 9.835 70.65 9.805 71.19 9.805H77.025C77.565 9.805 78.09 9.835 78.63 9.835C79.02 9.835 79.005 9.64 79.005 9.115C79.005 8.575 79.02 8.38 78.63 8.38C78.09 8.38 77.565 8.41 77.025 8.41H76.89C76.605 8.41 76.47 8.29 76.47 7.99V6.04C76.47 5.755 76.59 5.62 76.875 5.62C77.325 5.605 77.79 5.65 78.255 5.65C78.615 5.65 78.6 5.47 78.6 4.945C78.6 4.405 78.615 4.225 78.255 4.225C77.7 4.225 77.13 4.27 76.575 4.27H72.315C72.03 4.27 71.895 4.135 71.895 3.85V3.805ZM90.495 2.23C90.54 2.23 90.585 2.23 90.63 2.245C90.675 2.245 90.705 2.26 90.735 2.26C90.9 2.26 91.14 2.23 91.32 2.23H91.56C91.89 2.23 91.905 2.29 91.965 2.59C92.205 3.82 92.625 5.02 93.24 6.115C93.42 6.43 93.825 7.045 94.05 7.315C94.11 7.39 94.2 7.465 94.32 7.465C94.605 7.465 95.43 7.015 95.43 6.715C95.43 6.58 95.31 6.445 95.235 6.355C94.215 5.065 93.48 3.565 93.345 1.93C93.3 1.45 93.27 0.94 92.655 0.94C92.445 0.94 92.22 0.969999 92.01 0.969999H91.32C91.11 0.969999 90.93 0.94 90.735 0.94C90.45 0.94 90.48 1.15 90.465 1.48C90.45 1.615 90.405 1.72 90.24 1.72C90.21 1.72 90.18 1.72 90.15 1.705C89.955 1.645 89.205 1.375 89.055 1.375C88.875 1.375 88.86 1.555 88.83 1.69C88.56 3.295 87.885 4.96 87.06 6.355C87 6.445 86.925 6.565 86.925 6.67C86.925 6.985 87.75 7.375 88.005 7.375C88.23 7.375 88.335 7.15 88.425 6.97C89.13 5.71 89.85 3.985 90.165 2.59C90.21 2.365 90.24 2.32 90.45 2.23H90.495ZM89.97 11.86C89.82 11.86 89.7 11.815 89.7 11.635C89.7 11.605 89.715 11.56 89.715 11.53C90.285 10.105 90.78 8.65 91.245 7.18C91.29 7.075 91.365 7.045 91.515 7C91.62 6.97 91.74 6.955 91.74 6.82C91.74 6.64 91.455 6.55 91.26 6.49C91.065 6.415 90.165 6.1 90.015 6.1C89.865 6.1 89.82 6.295 89.79 6.43C89.31 8.215 88.8 9.97 88.17 11.695C88.065 11.98 87.945 12.055 87.645 12.085C87.555 12.1 87.45 12.1 87.36 12.115C87.225 12.13 87.12 12.13 87.03 12.13C86.64 12.145 86.55 12.16 86.55 12.325C86.55 12.52 86.775 13.195 86.85 13.405C86.97 13.78 87 13.93 87.18 13.93C87.27 13.93 87.315 13.87 87.345 13.795C87.435 13.615 87.45 13.585 87.57 13.555C89.16 13.36 91.575 13.03 93.105 12.7H93.24C93.45 12.7 93.57 12.805 93.645 12.985C93.72 13.18 93.78 13.33 93.825 13.465C93.96 13.795 93.99 13.915 94.215 13.915C94.47 13.915 95.325 13.615 95.325 13.24C95.325 12.985 94.71 11.68 94.56 11.38C94.26 10.78 93.705 9.7 93.345 9.16C93.27 9.04 93.15 8.89 93 8.89C92.745 8.89 91.905 9.22 91.905 9.52C91.905 9.64 91.995 9.76 92.055 9.865C92.295 10.27 92.535 10.675 92.745 11.095C92.775 11.14 92.79 11.185 92.79 11.26C92.79 11.41 92.685 11.485 92.535 11.515C91.68 11.635 90.825 11.755 89.97 11.86ZM85.83 7.99C86.025 8.32 86.22 8.635 86.445 8.935C86.52 9.04 86.595 9.145 86.73 9.145C86.985 9.145 87.585 8.545 87.585 8.29C87.585 8.185 87.525 8.125 87.465 8.05C86.745 7.165 86.235 6.43 85.71 5.425C85.65 5.32 85.635 5.23 85.635 5.095C85.65 4.81 85.77 4.72 86.04 4.69C86.385 4.705 86.715 4.735 87.06 4.735C87.405 4.735 87.39 4.54 87.39 4C87.39 3.46 87.42 3.28 87.06 3.28C86.715 3.28 86.385 3.295 86.04 3.31C85.755 3.295 85.635 3.19 85.635 2.89V2.575C85.635 2.26 85.62 1.99 85.62 1.765C85.62 1.375 85.65 1.135 85.785 1.03C85.92 0.924999 85.965 0.909999 85.965 0.805C85.965 0.624999 85.725 0.624999 85.59 0.609999C85.38 0.579999 84.54 0.504999 84.36 0.504999C84.225 0.504999 84.105 0.535 84.105 0.699999C84.105 0.745 84.12 0.79 84.12 0.834999C84.165 1.225 84.18 1.675 84.18 2.095V2.89C84.18 3.175 84.06 3.31 83.76 3.31H83.61C83.16 3.31 82.74 3.28 82.38 3.28C82.035 3.28 82.05 3.46 82.05 4C82.05 4.54 82.035 4.735 82.38 4.735C82.74 4.735 83.145 4.69 83.565 4.69C83.73 4.705 83.895 4.765 83.895 4.975C83.895 5.005 83.88 5.05 83.88 5.095C83.445 6.625 82.725 8.425 81.9 9.775C81.81 9.91 81.675 10.105 81.675 10.255C81.675 10.525 82.32 11.095 82.56 11.095C82.74 11.095 82.815 10.96 82.905 10.825C83.37 10.045 83.745 9.19 84.045 8.32C84.06 8.29 84.09 8.275 84.12 8.275C84.135 8.275 84.165 8.29 84.18 8.35V11.41C84.18 12.115 84.135 12.835 84.135 13.54C84.135 13.975 84.315 13.975 84.9 13.975C85.515 13.975 85.665 13.96 85.665 13.525C85.665 12.82 85.635 12.115 85.635 11.41V8.035C85.635 7.975 85.65 7.915 85.725 7.915C85.77 7.915 85.8 7.945 85.83 7.99ZM102.06 5.89C102.345 5.89 102.48 6.025 102.465 6.31C102.39 7.63 101.97 8.605 100.92 9.445C100.875 9.475 100.83 9.505 100.77 9.505C100.65 9.505 100.605 9.4 100.605 9.295V6.31C100.605 6.01 100.725 5.89 101.01 5.89H102.06ZM104.865 5.89C105.15 5.89 105.27 6.025 105.27 6.31V8.605C105.27 9.7 105.495 10.045 106.635 10.045H107.625C108.165 10.045 108.585 9.97 108.885 9.46C108.9 9.43 108.93 9.4 108.96 9.4C109.035 9.4 109.05 9.46 109.05 9.505V11.275C109.05 11.575 108.93 11.695 108.63 11.695H101.01C100.725 11.695 100.605 11.575 100.605 11.275V10.39C100.605 10.33 100.635 10.255 100.71 10.255C100.755 10.255 100.785 10.27 100.83 10.315C100.965 10.465 101.28 10.78 101.505 10.78C101.715 10.78 102.315 10.225 102.48 10.06C103.515 9.01 103.845 7.735 103.92 6.295C103.935 6.01 104.07 5.89 104.355 5.89H104.865ZM108.66 7.195C108.525 7.165 108.405 7.15 108.27 7.15C108.075 7.15 108.045 7.18 108 7.51C107.895 8.41 107.835 8.65 107.43 8.65H107.145C106.815 8.65 106.755 8.59 106.755 8.23V6.31C106.755 6.01 106.875 5.89 107.175 5.89H108.63C108.93 5.89 109.05 6.01 109.05 6.31V6.88C109.05 7.06 108.96 7.21 108.765 7.21C108.72 7.21 108.69 7.195 108.66 7.195ZM104.865 2.59C105.12 2.62 105.27 2.755 105.27 3.01V4.06C105.27 4.315 105.12 4.45 104.865 4.48H104.355C104.1 4.45 103.965 4.315 103.935 4.06V3.01C103.965 2.755 104.1 2.62 104.355 2.59H104.865ZM106.755 3.01C106.755 2.725 106.89 2.59 107.175 2.59H109.245C109.875 2.59 110.49 2.635 111.105 2.635C111.465 2.635 111.465 2.44 111.465 1.87C111.465 1.3 111.465 1.12 111.105 1.12C110.49 1.12 109.875 1.15 109.245 1.15H100.455C99.84 1.15 99.225 1.12 98.595 1.12C98.235 1.12 98.25 1.3 98.25 1.87C98.25 2.44 98.235 2.635 98.595 2.635C99.225 2.635 99.84 2.59 100.455 2.59H102.06C102.345 2.59 102.48 2.725 102.48 3.01V4.06C102.48 4.345 102.345 4.48 102.06 4.48H101.295C100.845 4.48 100.38 4.45 99.93 4.45C99.39 4.45 99.09 4.57 99.09 5.17C99.09 5.59 99.105 5.995 99.105 6.415V11.98C99.105 12.505 99.075 13.03 99.075 13.57C99.075 13.945 99.24 13.945 99.84 13.945C100.575 13.945 100.65 13.945 100.635 13.45C100.65 13.21 100.74 13.105 100.98 13.105H108.675C108.915 13.105 109.02 13.21 109.02 13.45V13.585C109.02 13.975 109.155 13.99 109.8 13.99C110.415 13.99 110.58 13.975 110.58 13.6C110.58 13.075 110.535 12.535 110.535 12.01V6.415C110.535 5.995 110.565 5.575 110.565 5.17C110.565 4.555 110.25 4.45 109.71 4.45C109.26 4.45 108.81 4.48 108.36 4.48H107.175C106.875 4.48 106.755 4.345 106.755 4.06V3.01ZM119.835 10.825C119.865 10.57 120 10.435 120.255 10.405H121.83C122.085 10.435 122.22 10.57 122.25 10.825V11.095C122.22 11.35 122.085 11.485 121.83 11.515H120.255C120 11.485 119.865 11.35 119.835 11.095V10.825ZM123.645 10.51C123.645 10.285 123.66 10.075 123.66 9.865C123.66 9.4 123.345 9.34 122.955 9.34C122.58 9.34 122.205 9.355 121.83 9.355H120.225C119.85 9.355 119.475 9.34 119.085 9.34C118.71 9.34 118.395 9.415 118.395 9.85C118.395 10.075 118.41 10.285 118.41 10.51V12.82C118.41 13.18 118.545 13.18 119.115 13.18C119.595 13.18 119.82 13.195 119.835 12.955C119.85 12.655 119.91 12.61 120.405 12.61H121.83C122.205 12.61 122.535 12.625 122.79 12.625C123.39 12.625 123.66 12.55 123.66 12.1C123.66 11.89 123.645 11.68 123.645 11.47V10.51ZM118.86 5.17C118.89 4.915 119.01 4.78 119.28 4.75H122.97C123.225 4.78 123.36 4.915 123.39 5.17V5.425C123.36 5.68 123.225 5.815 122.97 5.845H119.28C119.01 5.815 118.89 5.68 118.86 5.425V5.17ZM124.77 4.9C124.77 4.675 124.785 4.45 124.785 4.225C124.785 3.745 124.41 3.685 124.02 3.685C123.645 3.685 123.27 3.715 122.91 3.715H119.34C118.95 3.715 118.575 3.685 118.2 3.685C117.81 3.685 117.45 3.76 117.45 4.225C117.45 4.42 117.465 4.585 117.465 4.9V5.695C117.465 5.995 117.45 6.175 117.45 6.37C117.45 6.85 117.84 6.91 118.215 6.91C118.59 6.91 118.965 6.88 119.34 6.88H122.91C123.285 6.88 123.66 6.91 124.035 6.91C124.425 6.91 124.785 6.835 124.785 6.37C124.785 6.145 124.77 5.92 124.77 5.695V4.9ZM125.52 11.77C125.52 12.22 125.565 12.55 124.98 12.55C124.71 12.55 124.455 12.535 124.185 12.535C123.945 12.535 123.93 12.805 123.93 13C123.93 13.96 124.305 13.96 124.695 13.96C126.525 13.96 127.005 13.66 127.005 12.385C127.005 12.085 126.975 11.8 126.975 11.5V9.28C126.975 8.92 127.005 8.545 127.005 8.17C127.005 7.6 126.69 7.51 126.195 7.51C125.76 7.51 125.325 7.54 124.875 7.54H117.27C116.835 7.54 116.415 7.525 115.98 7.525C115.5 7.525 115.185 7.615 115.185 8.17C115.185 8.545 115.2 8.92 115.2 9.31V11.89C115.2 12.445 115.17 12.985 115.17 13.54C115.17 13.945 115.335 13.945 115.965 13.945C116.595 13.945 116.76 13.945 116.76 13.525C116.76 12.985 116.715 12.43 116.715 11.89V9.1C116.715 8.815 116.835 8.695 117.135 8.695H125.1C125.4 8.695 125.52 8.815 125.52 9.1V11.77ZM121.875 1.51C121.875 1.27 121.875 1.105 122.04 1C122.145 0.924999 122.235 0.88 122.235 0.79C122.235 0.624999 121.95 0.624999 121.83 0.609999C121.575 0.579999 120.72 0.52 120.495 0.52C120.36 0.52 120.21 0.535 120.21 0.714999V0.834999C120.255 1.045 120.27 1.315 120.27 1.51C120.255 1.81 120.12 1.915 119.85 1.915H116.745C116.13 1.915 115.5 1.885 114.885 1.885C114.51 1.885 114.51 2.005 114.51 2.485C114.51 2.95 114.51 3.085 114.885 3.085C115.5 3.085 116.13 3.055 116.745 3.055H125.49C126.105 3.055 126.735 3.085 127.35 3.085C127.725 3.085 127.725 2.965 127.725 2.485C127.725 2.005 127.725 1.885 127.35 1.885C126.735 1.885 126.105 1.915 125.49 1.915H122.28C121.995 1.915 121.89 1.795 121.875 1.51ZM141 9.16C141.105 9.07 141.195 9.055 141.195 8.95C141.195 8.77 140.91 8.755 140.775 8.74C140.43 8.71 139.875 8.65 139.545 8.65C139.41 8.65 139.275 8.68 139.275 8.845C139.275 8.92 139.29 9.04 139.305 9.115C139.305 9.325 139.17 9.4 138.975 9.4H133.41C132.84 9.4 132.255 9.37 131.685 9.37C131.34 9.37 131.34 9.535 131.34 10.03C131.34 10.525 131.34 10.69 131.685 10.69C132.255 10.69 132.84 10.66 133.41 10.66H134.025C134.07 10.66 134.115 10.675 134.115 10.735C134.115 10.78 134.1 10.81 134.07 10.825C133.905 10.93 133.545 11.2 133.545 11.41C133.545 11.515 133.665 11.635 133.74 11.71C133.995 11.995 134.535 12.64 134.73 12.955C134.91 13.255 135.03 13.375 135.195 13.375C135.465 13.375 136.155 12.865 136.155 12.64C136.155 12.43 135.075 11.14 134.88 10.915C134.85 10.885 134.82 10.84 134.82 10.795C134.82 10.69 134.895 10.66 134.985 10.66H138.915C139.215 10.66 139.335 10.78 139.335 11.08V11.545C139.335 12.37 139.35 12.58 138.435 12.58C138.135 12.58 137.805 12.535 137.625 12.535C137.4 12.535 137.34 12.655 137.34 12.865C137.34 13.015 137.4 13.54 137.445 13.675C137.535 13.99 137.745 14.005 138.06 14.005C139.17 14.005 140.88 13.99 140.88 12.46C140.88 12.145 140.865 11.815 140.865 11.5V11.08C140.865 10.78 140.985 10.66 141.27 10.66H141.54C142.11 10.66 142.695 10.69 143.265 10.69C143.61 10.69 143.61 10.51 143.61 10.03C143.61 9.55 143.625 9.37 143.265 9.37C142.695 9.37 142.11 9.4 141.54 9.4H141.21C141.105 9.4 140.955 9.37 140.955 9.235C140.955 9.205 140.97 9.19 141 9.16ZM139.68 1.375C139.785 1.165 139.8 1.135 140.01 1.09C140.085 1.075 140.22 1.045 140.22 0.94C140.22 0.745 139.875 0.714999 139.65 0.67C139.5 0.639999 138.645 0.474999 138.555 0.474999C138.45 0.474999 138.42 0.52 138.39 0.609999C138.03 1.57 137.445 2.575 136.83 3.385C136.755 3.475 136.605 3.64 136.605 3.76C136.605 3.895 136.725 3.97 136.815 4.03C136.83 4.045 136.845 4.06 136.845 4.075C136.845 4.09 136.815 4.105 136.8 4.105C136.68 4.12 136.62 4.18 136.62 4.315C136.62 4.36 136.65 4.645 136.665 4.735C136.665 5.02 136.545 5.125 136.275 5.125H134.205C133.635 5.125 133.05 5.095 132.48 5.095C132.135 5.095 132.15 5.275 132.15 5.77C132.15 6.265 132.135 6.43 132.48 6.43C133.065 6.43 133.635 6.4 134.205 6.4H136.335C136.59 6.4 136.695 6.505 136.695 6.76V6.895C136.695 7.135 136.59 7.24 136.335 7.24H133.005C132.405 7.24 131.79 7.21 131.19 7.21C130.845 7.21 130.845 7.39 130.845 7.9C130.845 8.425 130.845 8.575 131.19 8.575C131.805 8.575 132.405 8.53 133.005 8.53H141.945C142.545 8.53 143.16 8.575 143.775 8.575C144.105 8.575 144.105 8.395 144.105 7.885C144.105 7.375 144.105 7.21 143.76 7.21C143.145 7.21 142.545 7.24 141.945 7.24H138.6C138.345 7.24 138.24 7.135 138.24 6.895V6.76C138.24 6.505 138.345 6.4 138.6 6.4H140.79C141.36 6.4 141.93 6.43 142.515 6.43C142.86 6.43 142.86 6.265 142.86 5.77C142.86 5.275 142.86 5.095 142.515 5.095C141.945 5.095 141.36 5.125 140.79 5.125H138.66C138.51 5.125 138.27 5.08 138.27 4.87C138.27 4.78 138.345 4.69 138.405 4.645C138.51 4.57 138.6 4.525 138.6 4.42C138.6 4.255 138.36 4.24 138.24 4.225C138.165 4.21 138.105 4.165 138.105 4.09C138.105 4.045 138.12 4.015 138.135 3.985C138.285 3.79 138.42 3.61 138.555 3.415C138.75 3.145 138.84 3.085 139.17 3.085H139.62C139.935 3.085 140.07 3.16 140.175 3.445C140.31 3.79 140.385 4.045 140.43 4.225C140.535 4.57 140.55 4.66 140.76 4.66C140.985 4.66 141.945 4.555 141.945 4.24C141.945 4.12 141.735 3.61 141.69 3.46C141.675 3.415 141.66 3.37 141.66 3.325C141.66 3.145 141.81 3.1 141.96 3.085H142.275C142.785 3.085 143.31 3.115 143.67 3.115C144.03 3.115 144.015 2.935 144.015 2.395C144.015 1.885 144.03 1.705 143.67 1.705C143.265 1.705 142.77 1.75 142.275 1.75H139.92C139.77 1.735 139.65 1.675 139.65 1.51C139.65 1.465 139.665 1.42 139.68 1.375ZM134.1 1.36C134.205 1.165 134.235 1.135 134.43 1.075C134.505 1.06 134.64 1.015 134.64 0.924999C134.64 0.73 134.37 0.699999 134.22 0.67C134.04 0.624999 133.08 0.445 132.96 0.445C132.87 0.445 132.825 0.489999 132.795 0.579999C132.45 1.51 131.61 2.785 130.995 3.565C130.935 3.625 130.815 3.775 130.815 3.865C130.815 4.18 131.61 4.495 131.88 4.495C132.03 4.495 132.12 4.42 132.21 4.3C132.465 4 132.675 3.685 132.915 3.355C133.065 3.145 133.2 3.085 133.47 3.07C133.755 3.085 133.86 3.16 133.98 3.43C134.085 3.745 134.16 4.06 134.25 4.375C134.295 4.57 134.34 4.66 134.565 4.66C134.805 4.66 135.72 4.525 135.72 4.21C135.72 4.09 135.51 3.58 135.465 3.43C135.45 3.385 135.435 3.355 135.435 3.31C135.435 3.13 135.57 3.07 135.72 3.07C135.93 3.07 136.53 3.1 136.695 3.1C137.055 3.1 137.04 2.935 137.04 2.395C137.04 1.84 137.055 1.69 136.695 1.69C136.29 1.69 135.795 1.72 135.3 1.72H134.34C134.19 1.705 134.07 1.66 134.07 1.495C134.07 1.45 134.085 1.405 134.1 1.36ZM154.425 2.59C154.425 2.425 154.17 2.02 154.02 1.765C153.975 1.705 153.945 1.66 153.93 1.63C153.525 1.015 153.3 0.609999 153.015 0.609999C152.745 0.609999 151.995 0.955 151.995 1.27C151.995 1.375 152.055 1.45 152.115 1.54C152.43 1.975 152.805 2.56 153.06 3.04C153.135 3.175 153.225 3.295 153.39 3.295C153.645 3.295 154.425 2.905 154.425 2.59ZM157.695 3.475C157.605 3.46 157.515 3.415 157.515 3.295C157.515 3.235 157.53 3.205 157.56 3.16C157.86 2.77 158.115 2.365 158.37 1.945C158.43 1.81 158.535 1.78 158.67 1.735C158.76 1.72 158.925 1.69 158.925 1.555C158.925 1.42 158.79 1.36 158.685 1.315C158.46 1.21 157.605 0.834999 157.41 0.834999C157.29 0.834999 157.245 0.94 157.2 1.03C156.78 1.795 156.315 2.53 155.76 3.205C155.55 3.445 155.415 3.475 155.115 3.475H150.51C150.465 3.475 150.42 3.46 150.42 3.4C150.42 3.355 150.435 3.34 150.465 3.31C150.63 3.205 150.915 3.04 150.915 2.815C150.915 2.605 150.51 2.02 150.375 1.825C149.94 1.195 149.76 0.955 149.52 0.955C149.235 0.955 148.485 1.33 148.485 1.615C148.485 1.72 148.545 1.81 148.605 1.885C148.89 2.245 149.22 2.755 149.46 3.145C149.475 3.19 149.49 3.235 149.49 3.28C149.49 3.415 149.385 3.46 149.265 3.475C148.98 3.46 148.695 3.46 148.395 3.46C147.96 3.46 147.6 3.52 147.6 4.06C147.6 4.36 147.615 4.675 147.615 5.005V5.56C147.615 5.785 147.585 6.04 147.585 6.25C147.585 6.64 147.78 6.64 148.35 6.64C148.89 6.64 149.13 6.64 149.13 6.265C149.13 6.04 149.1 5.8 149.1 5.56V5.14C149.1 4.84 149.22 4.72 149.52 4.72H157.83C158.115 4.72 158.25 4.84 158.25 5.14V5.56C158.25 5.8 158.205 6.025 158.205 6.265C158.205 6.64 158.445 6.64 159 6.64C159.57 6.64 159.78 6.64 159.78 6.265C159.78 6.025 159.735 5.785 159.735 5.56V5.005C159.735 4.66 159.765 4.345 159.765 4.045C159.765 3.52 159.39 3.46 158.955 3.46C158.535 3.46 158.115 3.475 157.695 3.475ZM157.875 10.42C158.475 10.42 159.09 10.45 159.69 10.45C160.035 10.45 160.02 10.285 160.02 9.775C160.02 9.265 160.035 9.085 159.69 9.085C159.09 9.085 158.475 9.13 157.875 9.13H154.605C154.56 9.115 154.53 9.115 154.515 9.07C154.53 9.025 154.53 9.01 154.575 8.98C155.04 8.665 157.245 7.105 157.245 6.61C157.245 6.43 157.05 6.19 156.93 6.055C156.735 5.83 156.63 5.74 156.315 5.74C155.895 5.74 155.49 5.77 155.07 5.77H151.83C151.32 5.77 150.81 5.725 150.285 5.725C149.925 5.725 149.925 5.875 149.925 6.4C149.925 6.895 149.925 7.075 150.27 7.075C150.795 7.075 151.32 7.03 151.83 7.03H154.455C154.62 7.03 154.83 7.015 154.83 7.135C154.83 7.27 154.155 7.78 154.02 7.885C153.855 8.005 153.75 8.035 153.54 8.035H153.465C153.375 8.035 153.285 8.02 153.18 8.02C153.045 8.02 152.925 8.05 152.925 8.23C152.925 8.29 152.955 8.605 152.97 8.725C152.97 9.01 152.835 9.13 152.565 9.13H149.49C148.875 9.13 148.275 9.085 147.675 9.085C147.33 9.085 147.33 9.265 147.33 9.775C147.33 10.3 147.33 10.45 147.675 10.45C148.29 10.45 148.89 10.42 149.49 10.42H152.565C152.865 10.42 152.985 10.54 152.985 10.84V11.47C152.985 12.31 153 12.535 151.995 12.535C151.71 12.535 151.425 12.505 151.215 12.505C150.93 12.505 150.825 12.64 150.825 12.91C150.825 13.135 150.885 13.54 151.005 13.735C151.155 13.99 151.455 13.975 151.845 13.975C152.475 13.975 153.555 13.975 154.08 13.57C154.395 13.33 154.53 12.895 154.53 12.49C154.53 12.13 154.5 11.77 154.5 11.41V10.84C154.5 10.54 154.635 10.42 154.92 10.42H157.875ZM172.08 11.65C172.17 11.575 172.23 11.515 172.365 11.515C172.47 11.515 172.56 11.59 172.635 11.65C173.43 12.46 174.435 13.24 175.41 13.795C175.515 13.855 175.725 13.975 175.845 13.975C176.19 13.975 176.715 13.165 176.715 12.925C176.715 12.79 176.475 12.685 176.37 12.625C175.29 12.055 174.435 11.41 173.565 10.54C173.49 10.45 173.415 10.36 173.415 10.225C173.415 10.12 173.46 10.03 173.52 9.94C174.015 9.205 174.405 8.395 174.69 7.54C174.795 7.225 174.795 7.18 174.96 7.105C175.05 7.06 175.155 7.015 175.155 6.91C175.155 6.775 174.99 6.715 174.765 6.64L174.63 6.595C174.42 6.52 173.865 6.31 173.67 6.31C173.49 6.31 173.46 6.505 173.43 6.64C173.28 7.285 172.935 8.2 172.59 8.755C172.53 8.83 172.47 8.89 172.365 8.89C172.275 8.89 172.2 8.83 172.155 8.77C171.78 8.14 171.48 7.495 171.3 6.79C171.24 6.55 171.225 6.325 170.955 6.325C170.775 6.325 169.845 6.58 169.845 6.865C169.845 6.94 169.905 7.18 169.92 7.255C170.16 8.17 170.685 9.145 171.21 9.925C171.27 10.015 171.315 10.09 171.315 10.21C171.315 10.345 171.24 10.435 171.15 10.525C170.22 11.41 169.11 12.115 167.925 12.58C167.775 12.64 167.46 12.745 167.46 12.94C167.46 13.18 167.985 13.99 168.285 13.99C168.435 13.99 169.17 13.645 169.35 13.555C170.28 13.135 171.345 12.34 172.08 11.65ZM171.6 2.035C171.6 2.335 171.48 2.455 171.18 2.455H170.31C169.785 2.455 169.26 2.425 168.735 2.425C168.405 2.425 168.42 2.605 168.42 3.13C168.42 3.67 168.405 3.85 168.735 3.85C169.08 3.85 169.425 3.835 169.77 3.82C169.89 3.835 169.98 3.88 169.98 4C169.98 4.06 169.965 4.09 169.935 4.135C169.44 4.765 168.825 5.455 168.21 5.95C168.12 6.01 167.865 6.205 167.865 6.31C167.865 6.565 168.555 7.195 168.795 7.195C168.915 7.195 169.02 7.09 169.11 7.015C169.545 6.61 170.475 5.695 170.82 5.23C170.895 5.14 170.94 5.065 171 5.005C171.27 4.645 171.27 4.63 171.48 4.615C171.57 4.615 171.705 4.585 171.705 4.465C171.705 4.315 171.345 4.165 171 4C170.97 3.97 170.94 3.955 170.94 3.91C170.94 3.85 170.985 3.82 171.045 3.82H173.745C173.79 3.82 173.85 3.85 173.85 3.91C173.85 3.94 173.82 3.97 173.805 4C173.67 4.075 173.31 4.33 173.31 4.495C173.31 4.855 175.545 7.18 175.89 7.18C176.16 7.18 176.85 6.55 176.85 6.265C176.85 6.16 176.73 6.07 176.64 6.01C175.965 5.485 175.245 4.78 174.69 4.12C174.675 4.09 174.645 4.045 174.645 3.985C174.645 3.865 174.735 3.82 174.84 3.82C175.35 3.82 175.845 3.85 176.355 3.85C176.685 3.85 176.67 3.67 176.67 3.13C176.67 2.605 176.685 2.425 176.355 2.425C175.83 2.425 175.305 2.455 174.765 2.455H173.505C173.205 2.455 173.085 2.335 173.085 2.035C173.07 1.525 173.07 1.285 173.265 1.15C173.355 1.075 173.46 1.015 173.46 0.909999C173.46 0.699999 173.22 0.699999 173.055 0.67C172.785 0.639999 172.05 0.564999 171.825 0.564999C171.645 0.564999 171.54 0.609999 171.54 0.805C171.54 0.849999 171.54 0.894999 171.555 0.94C171.6 1.33 171.615 1.66 171.6 2.035ZM166.8 5.545C166.71 5.41 166.68 5.305 166.695 5.14C166.71 4.795 166.905 4.78 167.07 4.75C167.175 4.75 167.76 4.78 167.835 4.78C168.18 4.78 168.15 4.555 168.15 4.045C168.15 3.55 168.18 3.31 167.835 3.31C167.76 3.31 167.205 3.34 167.085 3.34C166.8 3.325 166.695 3.19 166.695 2.92V1.885C166.695 1.405 166.71 1.165 166.86 1.06C166.995 0.969999 167.07 0.94 167.07 0.834999C167.07 0.655 166.83 0.655 166.695 0.639999C166.47 0.624999 165.63 0.535 165.45 0.535C165.33 0.535 165.21 0.564999 165.21 0.714999C165.21 0.759999 165.21 0.819999 165.225 0.865C165.27 1.165 165.27 1.51 165.27 1.87V2.92C165.27 3.22 165.15 3.34 164.85 3.34H164.7C164.295 3.34 163.92 3.31 163.71 3.31C163.38 3.31 163.395 3.52 163.395 4.045C163.395 4.54 163.38 4.78 163.695 4.78C163.995 4.78 164.34 4.75 164.67 4.75C164.835 4.765 165 4.825 165 5.02C165 5.065 164.985 5.095 164.985 5.14C164.505 6.73 164.025 7.96 163.2 9.415C163.14 9.52 163.005 9.73 163.005 9.85C163.005 10.03 163.59 10.765 163.845 10.765C163.995 10.765 164.1 10.6 164.16 10.48C164.55 9.745 164.85 8.98 165.135 8.2C165.15 8.17 165.18 8.155 165.21 8.155C165.225 8.155 165.27 8.17 165.27 8.245V11.455C165.27 12.16 165.225 12.85 165.225 13.54C165.225 13.975 165.375 13.99 166.005 13.99C166.56 13.99 166.725 13.975 166.725 13.555C166.725 12.85 166.695 12.16 166.695 11.455V7.93C166.695 7.855 166.725 7.795 166.8 7.795C166.845 7.795 166.875 7.825 166.89 7.855C167.01 8.065 167.595 9.07 167.79 9.07C168 9.07 168.495 8.29 168.495 8.08C168.495 7.975 168.42 7.9 168.36 7.825C167.79 7.15 167.22 6.325 166.8 5.545ZM188.355 11.65C188.445 11.575 188.505 11.515 188.64 11.515C188.745 11.515 188.835 11.59 188.91 11.65C189.705 12.46 190.71 13.24 191.685 13.795C191.79 13.855 192 13.975 192.12 13.975C192.465 13.975 192.99 13.165 192.99 12.925C192.99 12.79 192.75 12.685 192.645 12.625C191.565 12.055 190.71 11.41 189.84 10.54C189.765 10.45 189.69 10.36 189.69 10.225C189.69 10.12 189.735 10.03 189.795 9.94C190.29 9.205 190.68 8.395 190.965 7.54C191.07 7.225 191.07 7.18 191.235 7.105C191.325 7.06 191.43 7.015 191.43 6.91C191.43 6.775 191.265 6.715 191.04 6.64L190.905 6.595C190.695 6.52 190.14 6.31 189.945 6.31C189.765 6.31 189.735 6.505 189.705 6.64C189.555 7.285 189.21 8.2 188.865 8.755C188.805 8.83 188.745 8.89 188.64 8.89C188.55 8.89 188.475 8.83 188.43 8.77C188.055 8.14 187.755 7.495 187.575 6.79C187.515 6.55 187.5 6.325 187.23 6.325C187.05 6.325 186.12 6.58 186.12 6.865C186.12 6.94 186.18 7.18 186.195 7.255C186.435 8.17 186.96 9.145 187.485 9.925C187.545 10.015 187.59 10.09 187.59 10.21C187.59 10.345 187.515 10.435 187.425 10.525C186.495 11.41 185.385 12.115 184.2 12.58C184.05 12.64 183.735 12.745 183.735 12.94C183.735 13.18 184.26 13.99 184.56 13.99C184.71 13.99 185.445 13.645 185.625 13.555C186.555 13.135 187.62 12.34 188.355 11.65ZM187.875 2.035C187.875 2.335 187.755 2.455 187.455 2.455H186.585C186.06 2.455 185.535 2.425 185.01 2.425C184.68 2.425 184.695 2.605 184.695 3.13C184.695 3.67 184.68 3.85 185.01 3.85C185.355 3.85 185.7 3.835 186.045 3.82C186.165 3.835 186.255 3.88 186.255 4C186.255 4.06 186.24 4.09 186.21 4.135C185.715 4.765 185.1 5.455 184.485 5.95C184.395 6.01 184.14 6.205 184.14 6.31C184.14 6.565 184.83 7.195 185.07 7.195C185.19 7.195 185.295 7.09 185.385 7.015C185.82 6.61 186.75 5.695 187.095 5.23C187.17 5.14 187.215 5.065 187.275 5.005C187.545 4.645 187.545 4.63 187.755 4.615C187.845 4.615 187.98 4.585 187.98 4.465C187.98 4.315 187.62 4.165 187.275 4C187.245 3.97 187.215 3.955 187.215 3.91C187.215 3.85 187.26 3.82 187.32 3.82H190.02C190.065 3.82 190.125 3.85 190.125 3.91C190.125 3.94 190.095 3.97 190.08 4C189.945 4.075 189.585 4.33 189.585 4.495C189.585 4.855 191.82 7.18 192.165 7.18C192.435 7.18 193.125 6.55 193.125 6.265C193.125 6.16 193.005 6.07 192.915 6.01C192.24 5.485 191.52 4.78 190.965 4.12C190.95 4.09 190.92 4.045 190.92 3.985C190.92 3.865 191.01 3.82 191.115 3.82C191.625 3.82 192.12 3.85 192.63 3.85C192.96 3.85 192.945 3.67 192.945 3.13C192.945 2.605 192.96 2.425 192.63 2.425C192.105 2.425 191.58 2.455 191.04 2.455H189.78C189.48 2.455 189.36 2.335 189.36 2.035C189.345 1.525 189.345 1.285 189.54 1.15C189.63 1.075 189.735 1.015 189.735 0.909999C189.735 0.699999 189.495 0.699999 189.33 0.67C189.06 0.639999 188.325 0.564999 188.1 0.564999C187.92 0.564999 187.815 0.609999 187.815 0.805C187.815 0.849999 187.815 0.894999 187.83 0.94C187.875 1.33 187.89 1.66 187.875 2.035ZM183.075 5.545C182.985 5.41 182.955 5.305 182.97 5.14C182.985 4.795 183.18 4.78 183.345 4.75C183.45 4.75 184.035 4.78 184.11 4.78C184.455 4.78 184.425 4.555 184.425 4.045C184.425 3.55 184.455 3.31 184.11 3.31C184.035 3.31 183.48 3.34 183.36 3.34C183.075 3.325 182.97 3.19 182.97 2.92V1.885C182.97 1.405 182.985 1.165 183.135 1.06C183.27 0.969999 183.345 0.94 183.345 0.834999C183.345 0.655 183.105 0.655 182.97 0.639999C182.745 0.624999 181.905 0.535 181.725 0.535C181.605 0.535 181.485 0.564999 181.485 0.714999C181.485 0.759999 181.485 0.819999 181.5 0.865C181.545 1.165 181.545 1.51 181.545 1.87V2.92C181.545 3.22 181.425 3.34 181.125 3.34H180.975C180.57 3.34 180.195 3.31 179.985 3.31C179.655 3.31 179.67 3.52 179.67 4.045C179.67 4.54 179.655 4.78 179.97 4.78C180.27 4.78 180.615 4.75 180.945 4.75C181.11 4.765 181.275 4.825 181.275 5.02C181.275 5.065 181.26 5.095 181.26 5.14C180.78 6.73 180.3 7.96 179.475 9.415C179.415 9.52 179.28 9.73 179.28 9.85C179.28 10.03 179.865 10.765 180.12 10.765C180.27 10.765 180.375 10.6 180.435 10.48C180.825 9.745 181.125 8.98 181.41 8.2C181.425 8.17 181.455 8.155 181.485 8.155C181.5 8.155 181.545 8.17 181.545 8.245V11.455C181.545 12.16 181.5 12.85 181.5 13.54C181.5 13.975 181.65 13.99 182.28 13.99C182.835 13.99 183 13.975 183 13.555C183 12.85 182.97 12.16 182.97 11.455V7.93C182.97 7.855 183 7.795 183.075 7.795C183.12 7.795 183.15 7.825 183.165 7.855C183.285 8.065 183.87 9.07 184.065 9.07C184.275 9.07 184.77 8.29 184.77 8.08C184.77 7.975 184.695 7.9 184.635 7.825C184.065 7.15 183.495 6.325 183.075 5.545ZM197.91 6.985C197.355 7 196.815 6.955 196.26 6.955C195.915 6.955 195.915 7.105 195.915 7.63C195.915 8.14 195.915 8.305 196.26 8.305C196.815 8.305 197.355 8.26 197.91 8.275C198.195 8.275 198.33 8.395 198.33 8.695V11.53C198.3 11.815 198.225 11.965 197.94 12.01C197.55 12.085 197.235 12.085 196.995 12.115C196.44 12.16 196.29 12.19 196.29 12.385C196.29 12.49 196.425 13.03 196.455 13.15C196.485 13.255 196.515 13.36 196.53 13.435C196.635 13.81 196.665 13.96 196.83 13.96C196.935 13.96 196.98 13.9 197.025 13.81C197.115 13.615 197.16 13.585 197.49 13.54C199.26 13.285 201.015 12.955 202.74 12.505C203.115 12.415 203.235 12.37 203.235 11.875C203.235 11.545 203.265 11.095 202.935 11.095C202.845 11.095 201.15 11.455 200.295 11.62C200.265 11.62 200.235 11.635 200.19 11.635C199.98 11.635 199.89 11.47 199.89 11.275V8.695C199.89 8.395 200.025 8.275 200.31 8.275H201.66C201.96 8.275 202.08 8.35 202.2 8.65C202.905 10.33 204.195 11.755 205.695 12.76C206.115 13.045 207.84 14.035 208.26 14.035C208.59 14.035 209.13 13.195 209.13 12.895C209.13 12.715 208.92 12.655 208.785 12.595C207.84 12.22 206.91 11.74 206.07 11.125C206.01 11.065 205.965 11.005 205.965 10.915C205.965 10.825 206.025 10.75 206.085 10.69C206.325 10.525 206.565 10.345 206.79 10.18C206.97 10.045 207.195 9.85 207.375 9.73C207.42 9.7 207.45 9.67 207.525 9.67C207.57 9.67 207.645 9.685 207.69 9.7C207.735 9.715 207.765 9.73 207.795 9.73C207.885 9.73 207.945 9.655 207.945 9.565C207.945 9.385 206.835 8.395 206.685 8.395C206.595 8.395 206.52 8.5 206.4 8.62C206.115 8.935 205.515 9.49 205.185 9.76C205.095 9.82 205.005 9.88 204.9 9.88C204.765 9.88 204.675 9.805 204.6 9.715C204.315 9.385 204.06 9.01 203.85 8.62C203.82 8.575 203.805 8.545 203.805 8.485C203.805 8.335 203.94 8.29 204.075 8.275H206.955C207.555 8.275 208.17 8.305 208.77 8.305C209.115 8.305 209.115 8.14 209.115 7.63C209.115 7.12 209.115 6.955 208.77 6.955C208.155 6.955 207.555 6.985 206.955 6.985H200.25C200.01 6.985 199.89 6.88 199.89 6.625V6.52C199.89 6.265 200.01 6.16 200.25 6.16H204.6C205.125 6.16 205.65 6.19 206.19 6.19C206.505 6.19 206.505 6.055 206.505 5.59C206.505 5.11 206.505 4.975 206.19 4.975C205.65 4.975 205.125 5.005 204.6 5.005H200.25C200.01 5.005 199.89 4.9 199.89 4.66V4.57C199.89 4.33 200.01 4.225 200.25 4.225H204.54C205.095 4.225 205.65 4.255 206.205 4.255C206.505 4.255 206.52 4.135 206.52 3.655C206.52 3.16 206.505 3.04 206.205 3.04C205.65 3.04 205.095 3.07 204.54 3.07H200.25C200.01 3.07 199.89 2.965 199.89 2.71V2.635C199.89 2.395 200.01 2.29 200.25 2.29H205.965C206.4 2.29 206.835 2.32 207.27 2.32C207.6 2.32 207.6 2.185 207.6 1.675C207.6 1.15 207.6 1.03 207.27 1.03C206.835 1.03 206.4 1.06 205.965 1.06H200.175C199.785 1.06 199.41 1.03 199.035 1.03C198.555 1.03 198.3 1.18 198.3 1.705C198.3 2.02 198.33 2.365 198.33 2.755V6.565C198.33 6.85 198.195 6.985 197.91 6.985ZM51.93 68.08C51.93 67.52 50.53 65.72 50.13 65.2C49.13 63.88 48.41 62.8 47.77 62.8C47.05 62.8 45.29 64.04 45.29 64.8C45.29 65.12 45.53 65.44 45.73 65.68C46.77 66.96 47.65 68.12 48.53 69.52C48.73 69.84 48.97 70.12 49.37 70.12C50.05 70.12 51.93 69.04 51.93 68.08ZM39.25 50.72C39.25 49.92 39.57 49.64 40.33 49.6C41.01 49.6 42.41 49.68 42.93 49.68C43.93 49.68 43.85 49.08 43.85 47.76C43.85 46.4 43.93 45.84 42.93 45.84C42.21 45.84 41.13 45.96 40.33 45.92C39.57 45.92 39.25 45.6 39.25 44.8V42C39.25 40.88 39.29 40.32 39.69 40.08C39.93 39.92 40.21 39.8 40.21 39.44C40.21 38.96 39.53 38.92 39.21 38.92C38.49 38.88 36.53 38.72 35.89 38.72C35.49 38.72 35.09 38.76 35.09 39.28C35.09 39.4 35.13 39.56 35.13 39.64C35.21 40.52 35.25 41.4 35.25 42.28V44.8C35.25 45.6 34.93 45.92 34.17 45.92C33.13 45.96 32.13 45.84 31.17 45.84C30.17 45.84 30.21 46.32 30.21 47.76C30.21 49.16 30.17 49.68 31.17 49.68C31.97 49.68 33.13 49.56 34.17 49.6C34.93 49.6 35.25 49.92 35.25 50.72V56.36C35.25 57.16 35.05 57.44 34.29 57.76C32.93 58.12 31.93 58.32 31.21 58.48C29.89 58.76 29.53 58.84 29.53 59.32C29.53 59.76 29.89 60.96 30.01 61.4C30.09 61.68 30.17 61.96 30.21 62.2C30.49 63.24 30.65 63.76 31.09 63.76C31.41 63.76 31.57 63.48 31.65 63.2C31.81 62.72 31.81 62.64 32.45 62.4C32.81 62.28 33.33 62.12 34.25 61.8C34.37 61.76 34.45 61.76 34.57 61.76C35.09 61.76 35.25 62.12 35.25 62.56V67.68C35.25 69.76 35.29 70.16 33.61 70.16C33.17 70.16 32.77 70.16 32.37 70.12C32.21 70.08 31.93 70.08 31.81 70.08C31.17 70.08 31.01 70.48 31.01 71.04C31.01 71.76 31.17 72.96 31.53 73.6C31.93 74.28 32.93 74.28 33.65 74.28C36.61 74.28 39.29 73.76 39.29 70.16C39.29 69.32 39.25 68.48 39.25 67.64V61.12C39.25 60.32 39.45 59.96 40.21 59.64C43.93 58.16 44.01 58.16 44.01 56.76C44.01 56.2 43.93 54.64 43.17 54.64C42.93 54.64 40.69 55.6 40.25 55.8C40.13 55.8 40.05 55.84 39.93 55.84C39.41 55.84 39.29 55.48 39.25 55.04V50.72ZM59.93 57.52C59.93 57.04 59.89 56.64 60.33 56.32C60.65 56.12 60.81 56.04 60.81 55.8C60.81 55.28 60.05 55.28 59.69 55.24C58.93 55.16 57.25 55 56.53 55C56.17 55 55.85 55.04 55.85 55.52C55.85 55.64 55.85 55.76 55.89 55.88C55.93 56.32 55.97 57.04 56.01 57.52C55.93 58.28 55.65 58.56 54.89 58.56H49.37C47.89 58.56 46.41 58.44 44.97 58.44C44.01 58.44 44.01 58.96 44.01 60.36C44.01 61.76 44.01 62.28 44.97 62.28C46.45 62.28 47.89 62.16 49.37 62.16H54.89C55.65 62.16 56.01 62.48 56.01 63.28V67.88C56.01 70.04 56.09 70.56 53.89 70.56C53.13 70.56 52.33 70.44 51.93 70.44C51.33 70.44 51.09 70.76 51.09 71.32C51.09 71.96 51.29 73 51.49 73.56C51.81 74.48 52.21 74.6 53.49 74.6C56.93 74.6 59.97 74.56 59.97 70.44C59.97 69.52 59.89 68.64 59.89 67.76V63.28C59.89 62.56 60.21 62.2 60.97 62.2C61.89 62.2 62.85 62.28 63.81 62.28C64.77 62.28 64.77 61.72 64.77 60.36C64.77 59 64.81 58.44 63.81 58.44C63.09 58.44 61.77 58.52 60.93 58.52C60.29 58.52 59.93 58.2 59.93 57.52ZM55.73 42.6C55.69 41.28 55.69 40.56 56.17 40.16C56.41 39.96 56.65 39.84 56.65 39.56C56.65 39.2 56.33 39.12 56.05 39.12C55.21 39.04 52.97 38.88 52.25 38.88C51.85 38.88 51.49 38.96 51.49 39.44C51.49 39.56 51.53 39.72 51.53 39.84C51.61 40.72 51.73 41.64 51.69 42.56C51.69 43.32 51.37 43.6 50.57 43.68H50.25C48.89 43.68 47.53 43.56 46.13 43.56C45.13 43.56 45.13 44.04 45.13 45.36C45.13 46.68 45.13 47.16 46.13 47.16C47.49 47.16 48.89 47.08 50.25 47.08H50.57C51.33 47.08 51.69 47.4 51.69 48.2V49.84C51.69 50.64 51.37 50.96 50.57 50.96H48.73C47.25 50.96 45.77 50.88 44.33 50.88C43.33 50.88 43.37 51.4 43.37 52.72C43.37 54.08 43.33 54.6 44.33 54.6C45.77 54.6 47.25 54.48 48.73 54.48H59.85C61.33 54.48 62.81 54.6 64.29 54.6C65.25 54.6 65.21 54.08 65.21 52.72C65.21 51.32 65.25 50.88 64.25 50.88C62.77 50.88 61.33 50.96 59.85 50.96H56.85C56.05 50.96 55.73 50.64 55.73 49.84V48.2C55.73 47.4 56.05 47.08 56.85 47.08H58.45C59.81 47.08 61.17 47.16 62.57 47.16C63.57 47.16 63.53 46.68 63.53 45.36C63.53 44.08 63.57 43.56 62.57 43.56C61.17 43.56 59.81 43.68 58.45 43.68H56.85C56.09 43.68 55.73 43.36 55.73 42.6ZM81.01 66.92C80.21 66.92 79.89 66.56 79.89 65.8V50.44C79.89 49.16 79.93 48.24 80.33 47.92C80.61 47.68 80.85 47.56 80.85 47.32C80.85 46.92 80.45 46.84 80.13 46.8C79.61 46.72 76.73 46.44 76.33 46.44C75.93 46.44 75.57 46.52 75.57 47C75.57 47.12 75.61 47.28 75.61 47.4C75.69 48.28 75.77 49.36 75.77 50.4V66.68C75.77 68.52 75.65 70.4 75.65 72.24C75.65 73.48 76.09 73.56 77.85 73.56C79.89 73.56 80.01 73.44 80.01 71.88C80.01 71.12 80.37 70.8 81.09 70.8H101.13C101.89 70.8 102.25 71.12 102.25 71.88V72.28C102.25 73.64 102.57 73.68 104.37 73.68C106.09 73.68 106.49 73.64 106.49 72.32C106.49 70.44 106.41 68.56 106.41 66.64V50.36C106.41 49.16 106.45 48.32 106.85 48C107.17 47.76 107.33 47.68 107.33 47.4C107.33 47 106.93 46.92 106.65 46.88C106.17 46.8 103.25 46.52 102.89 46.52C102.49 46.52 102.17 46.6 102.17 47.08C102.17 47.2 102.17 47.36 102.21 47.48C102.33 48.24 102.33 49.28 102.33 50.28V65.8C102.33 66.56 102.01 66.92 101.21 66.92H94.33C93.53 66.92 93.21 66.56 93.21 65.8V43.12C93.21 41.96 93.25 41.16 93.65 40.84C93.97 40.6 94.17 40.52 94.17 40.24C94.17 39.84 93.77 39.76 93.45 39.72C92.89 39.64 90.05 39.36 89.61 39.36C89.21 39.36 88.85 39.44 88.85 39.92C88.85 40.04 88.89 40.2 88.89 40.32C88.97 41.2 89.05 42.28 89.05 43.32V65.8C89.05 66.56 88.73 66.92 87.93 66.92H81.01ZM139.64 63.36C139.64 62.8 140.04 62.4 140.6 62.4H152.48C153.04 62.4 153.44 62.8 153.44 63.36V63.52C153.44 64.08 153.04 64.48 152.48 64.48H140.6C140.04 64.48 139.64 64.08 139.64 63.52V63.36ZM153.44 58.64C153.44 59.2 153.04 59.56 152.48 59.56H140.6C140.04 59.56 139.64 59.2 139.64 58.64V58.52C139.64 57.96 140.04 57.56 140.6 57.56H152.48C153.04 57.56 153.44 57.96 153.44 58.52V58.64ZM139.64 68.4C139.64 67.64 139.96 67.28 140.76 67.28H152.32C153.12 67.28 153.44 67.64 153.44 68.4V68.96C153.44 70.16 153.4 70.68 152.04 70.68C151.16 70.68 149.8 70.6 149.64 70.6C149.08 70.6 148.88 70.88 148.88 71.72C148.88 74.6 149.76 74.56 151.4 74.56C155.96 74.56 157.64 73.84 157.64 70.36C157.64 69.24 157.56 68.12 157.56 67V59.32C157.56 58.36 157.64 57.4 157.64 56.44C157.64 54.88 157 54.48 155.52 54.48C154.44 54.48 153.32 54.52 152.24 54.52H140.8C139.72 54.52 138.64 54.48 137.56 54.48C136 54.48 135.48 54.96 135.48 56.52C135.48 57.48 135.52 58.4 135.52 59.36V68C135.52 69.8 135.44 71.6 135.44 73.36C135.44 74.6 135.88 74.6 137.56 74.6C139.32 74.6 139.72 74.6 139.72 73.36C139.72 71.72 139.6 70.08 139.64 68.4ZM144.92 46.08C145.04 46.04 145.04 46.04 145.16 46.04C145.44 46.04 145.52 46.04 145.8 45.96C145.88 45.92 146.04 45.88 146.12 45.88H153.92C154.04 45.88 154.2 45.92 154.2 46.08C154.2 46.2 154.16 46.24 154.08 46.32C153.84 46.48 153.44 46.8 153.44 47.12C153.44 47.56 154.08 48 154.36 48.28C154.48 48.4 154.52 48.44 154.52 48.6C154.52 48.72 154.44 48.88 154.12 48.96C150.64 49.16 147.16 49.28 143.64 49.4C143.36 49.4 143.08 49.24 143.08 48.92C143.08 48.76 143.12 48.68 143.2 48.56C143.68 47.84 144.16 47.12 144.64 46.36L144.68 46.28L144.8 46.16C144.84 46.12 144.88 46.12 144.92 46.08ZM134.64 42.64C133.04 42.64 131.48 42.52 129.88 42.52C128.96 42.52 128.96 42.88 128.96 44.24C128.96 45.64 128.96 45.96 129.92 45.96C131.52 45.96 133.08 45.88 134.64 45.88H139.36C139.68 45.88 140 46 140 46.4C140 46.52 139.96 46.64 139.88 46.76C139.4 47.44 138.88 48.12 138.4 48.8C137.88 49.4 137.6 49.56 136.84 49.56C135.24 49.6 133.68 49.6 132.12 49.6H130.48C130.16 49.6 129.84 49.68 129.84 50.08C129.84 50.36 130.28 51.68 130.4 52.04C130.8 53.32 130.96 53.88 131.48 53.88C131.72 53.88 131.84 53.76 131.96 53.6C132.28 53.16 132.36 53.16 132.88 53.12C141 52.8 145.8 52.52 153.92 52.08C154.8 52.04 156.28 51.88 157.16 51.88C157.8 51.88 158.16 52.12 158.56 52.56C158.8 52.84 159 53.08 159.2 53.28C159.92 54.16 160.28 54.6 160.68 54.6C161.4 54.6 163.24 53.16 163.24 52.56C163.24 51.84 158.72 47.36 157.96 46.6C157.84 46.48 157.8 46.4 157.8 46.24C157.8 45.96 158.04 45.88 158.28 45.88H158.68C160.24 45.88 161.84 45.96 163.4 45.96C164.4 45.96 164.36 45.56 164.36 44.24C164.36 42.92 164.4 42.52 163.4 42.52C161.84 42.52 160.24 42.64 158.68 42.64H149.84C149.12 42.64 148.76 42.32 148.76 41.56C148.72 40.68 148.72 40.28 149.2 40C149.52 39.8 149.8 39.72 149.8 39.4C149.8 38.88 149 38.92 148.64 38.88C147.8 38.8 145.84 38.64 145.08 38.64C144.8 38.64 144.32 38.68 144.32 39.08C144.32 39.2 144.32 39.32 144.36 39.44C144.48 40.04 144.52 40.88 144.52 41.52C144.44 42.28 144.16 42.64 143.4 42.64H134.64ZM191.72 55.76C191.76 54.36 191.84 52.92 191.84 51.52V49.32C191.84 48.56 192.16 48.24 192.96 48.24H196.64C197.44 48.24 197.76 48.56 197.76 49.32V55.72C197.76 56.48 197.44 56.84 196.64 56.84H192.76C192 56.84 191.68 56.48 191.72 55.76ZM186.56 48.24C187.36 48.24 187.68 48.56 187.68 49.32V51.48C187.68 52.92 187.64 54.32 187.56 55.76C187.44 56.56 187.16 56.84 186.36 56.84H182.72C181.92 56.84 181.6 56.48 181.6 55.72V49.32C181.6 48.56 181.92 48.24 182.72 48.24H186.56ZM186.2 61.56C183.88 66.16 178.56 69.16 173.72 70.4C173.6 70.44 173.48 70.44 173.4 70.48C172.8 70.64 172.36 70.72 172.36 71.28C172.36 72.12 173.68 74.52 174.68 74.52C175.08 74.52 175.96 74.2 176.36 74.08C181.52 72.36 186.48 69.08 189.32 64.36C189.44 64.16 189.6 63.96 189.88 63.96C190.12 63.96 190.28 64.12 190.4 64.32C192.56 67.56 195.32 70.04 198.72 71.92C199.92 72.6 204 74.52 205.24 74.52C206.08 74.52 207.16 72.24 207.16 71.52C207.16 70.92 206.56 70.76 206.08 70.6C200.96 69.08 196 66.16 193.16 61.44C193.12 61.32 193.08 61.24 193.08 61.08C193.08 60.68 193.4 60.56 193.76 60.52H201.52C203.16 60.52 204.8 60.64 206.48 60.64C207.44 60.64 207.4 60.08 207.4 58.68C207.4 57.24 207.44 56.72 206.48 56.72C205.24 56.72 204 56.84 202.8 56.8C202.04 56.8 201.8 56.4 201.8 55.72V49.6C201.8 48.56 201.88 47.52 201.88 46.44C201.88 44.88 201.24 44.36 199.72 44.36C198.56 44.36 197.44 44.44 196.28 44.44H192.96C192.2 44.44 191.84 44.16 191.84 43.4V41.92C191.84 40.88 191.88 40.48 192.36 40.2C192.6 40.04 192.88 39.92 192.88 39.6C192.88 39.2 192.48 39.12 192.2 39.08C191.48 39 189.04 38.84 188.36 38.84C187.84 38.84 187.56 38.96 187.56 39.52V39.92C187.68 40.72 187.68 41.44 187.68 42.16V43.32C187.68 44.12 187.36 44.44 186.56 44.44H183.2C182.04 44.44 180.88 44.36 179.72 44.36C178.28 44.36 177.64 44.88 177.64 46.4C177.64 47.48 177.72 48.52 177.72 49.6V55.72C177.72 56.4 177.44 56.8 176.72 56.8C175.48 56.84 174.28 56.72 173.08 56.72C172.12 56.72 172.16 57.16 172.16 58.68C172.16 60.12 172.12 60.64 173.08 60.64C174.72 60.64 176.36 60.52 178.04 60.52H185.52C185.92 60.56 186.28 60.68 186.28 61.16C186.28 61.28 186.24 61.44 186.2 61.56Z" fill="#3E3E3E"/>
</svg>
