<svg width="158" height="32" viewBox="0 0 158 32" fill="none" xmlns="http://www.w3.org/2000/svg">
<circle cx="6" cy="16" r="6" fill="#94C3C5"/>
<path d="M41.544 25.12C41.736 24.96 41.864 24.832 42.152 24.832C42.376 24.832 42.568 24.992 42.728 25.12C44.424 26.848 46.568 28.512 48.648 29.696C48.872 29.824 49.32 30.08 49.576 30.08C50.312 30.08 51.432 28.352 51.432 27.84C51.432 27.552 50.92 27.328 50.696 27.2C48.392 25.984 46.568 24.608 44.712 22.752C44.552 22.56 44.392 22.368 44.392 22.08C44.392 21.856 44.488 21.664 44.616 21.472C45.672 19.904 46.504 18.176 47.112 16.352C47.336 15.68 47.336 15.584 47.688 15.424C47.88 15.328 48.104 15.232 48.104 15.008C48.104 14.72 47.752 14.592 47.272 14.432L46.984 14.336C46.536 14.176 45.352 13.728 44.936 13.728C44.552 13.728 44.488 14.144 44.424 14.432C44.104 15.808 43.368 17.76 42.632 18.944C42.504 19.104 42.376 19.232 42.152 19.232C41.96 19.232 41.8 19.104 41.704 18.976C40.904 17.632 40.264 16.256 39.88 14.752C39.752 14.24 39.72 13.76 39.144 13.76C38.76 13.76 36.776 14.304 36.776 14.912C36.776 15.072 36.904 15.584 36.936 15.744C37.448 17.696 38.568 19.776 39.688 21.44C39.816 21.632 39.912 21.792 39.912 22.048C39.912 22.336 39.752 22.528 39.56 22.72C37.576 24.608 35.208 26.112 32.68 27.104C32.36 27.232 31.688 27.456 31.688 27.872C31.688 28.384 32.808 30.112 33.448 30.112C33.768 30.112 35.336 29.376 35.72 29.184C37.704 28.288 39.976 26.592 41.544 25.12ZM40.52 4.608C40.52 5.248 40.264 5.504 39.624 5.504H37.768C36.648 5.504 35.528 5.44 34.408 5.44C33.704 5.44 33.736 5.824 33.736 6.944C33.736 8.096 33.704 8.48 34.408 8.48C35.144 8.48 35.88 8.448 36.616 8.416C36.872 8.448 37.064 8.544 37.064 8.8C37.064 8.928 37.032 8.992 36.968 9.088C35.912 10.432 34.6 11.904 33.288 12.96C33.096 13.088 32.552 13.504 32.552 13.728C32.552 14.272 34.024 15.616 34.536 15.616C34.792 15.616 35.016 15.392 35.208 15.232C36.136 14.368 38.12 12.416 38.856 11.424C39.016 11.232 39.112 11.072 39.24 10.944C39.816 10.176 39.816 10.144 40.264 10.112C40.456 10.112 40.744 10.048 40.744 9.792C40.744 9.472 39.976 9.152 39.24 8.8C39.176 8.736 39.112 8.704 39.112 8.608C39.112 8.48 39.208 8.416 39.336 8.416H45.096C45.192 8.416 45.32 8.48 45.32 8.608C45.32 8.672 45.256 8.736 45.224 8.8C44.936 8.96 44.168 9.504 44.168 9.856C44.168 10.624 48.936 15.584 49.672 15.584C50.248 15.584 51.72 14.24 51.72 13.632C51.72 13.408 51.464 13.216 51.272 13.088C49.832 11.968 48.296 10.464 47.112 9.056C47.08 8.992 47.016 8.896 47.016 8.768C47.016 8.512 47.208 8.416 47.432 8.416C48.52 8.416 49.576 8.48 50.664 8.48C51.368 8.48 51.336 8.096 51.336 6.944C51.336 5.824 51.368 5.44 50.664 5.44C49.544 5.44 48.424 5.504 47.272 5.504H44.584C43.944 5.504 43.688 5.248 43.688 4.608C43.656 3.52 43.656 3.008 44.072 2.72C44.264 2.56 44.488 2.432 44.488 2.208C44.488 1.76 43.976 1.76 43.624 1.696C43.048 1.632 41.48 1.472 41 1.472C40.616 1.472 40.392 1.568 40.392 1.984C40.392 2.08 40.392 2.176 40.424 2.272C40.52 3.104 40.552 3.808 40.52 4.608ZM30.28 12.096C30.088 11.808 30.024 11.584 30.056 11.232C30.088 10.496 30.504 10.464 30.856 10.4C31.08 10.4 32.328 10.464 32.488 10.464C33.224 10.464 33.16 9.984 33.16 8.896C33.16 7.84 33.224 7.328 32.488 7.328C32.328 7.328 31.144 7.392 30.888 7.392C30.28 7.36 30.056 7.072 30.056 6.496V4.288C30.056 3.264 30.088 2.752 30.408 2.528C30.696 2.336 30.856 2.272 30.856 2.048C30.856 1.664 30.344 1.664 30.056 1.632C29.576 1.6 27.784 1.408 27.4 1.408C27.144 1.408 26.888 1.472 26.888 1.792C26.888 1.888 26.888 2.016 26.92 2.112C27.016 2.752 27.016 3.488 27.016 4.256V6.496C27.016 7.136 26.76 7.392 26.12 7.392H25.8C24.936 7.392 24.136 7.328 23.688 7.328C22.984 7.328 23.016 7.776 23.016 8.896C23.016 9.952 22.984 10.464 23.656 10.464C24.296 10.464 25.032 10.4 25.736 10.4C26.088 10.432 26.44 10.56 26.44 10.976C26.44 11.072 26.408 11.136 26.408 11.232C25.384 14.624 24.36 17.248 22.6 20.352C22.472 20.576 22.184 21.024 22.184 21.28C22.184 21.664 23.432 23.232 23.976 23.232C24.296 23.232 24.52 22.88 24.648 22.624C25.48 21.056 26.12 19.424 26.728 17.76C26.76 17.696 26.824 17.664 26.888 17.664C26.92 17.664 27.016 17.696 27.016 17.856V24.704C27.016 26.208 26.92 27.68 26.92 29.152C26.92 30.08 27.24 30.112 28.584 30.112C29.768 30.112 30.12 30.08 30.12 29.184C30.12 27.68 30.056 26.208 30.056 24.704V17.184C30.056 17.024 30.12 16.896 30.28 16.896C30.376 16.896 30.44 16.96 30.472 17.024C30.728 17.472 31.976 19.616 32.392 19.616C32.84 19.616 33.896 17.952 33.896 17.504C33.896 17.28 33.736 17.12 33.608 16.96C32.392 15.52 31.176 13.76 30.28 12.096ZM61.928 15.168C60.744 15.2 59.592 15.104 58.408 15.104C57.672 15.104 57.672 15.424 57.672 16.544C57.672 17.632 57.672 17.984 58.408 17.984C59.592 17.984 60.744 17.888 61.928 17.92C62.536 17.92 62.824 18.176 62.824 18.816V24.864C62.76 25.472 62.6 25.792 61.992 25.888C61.16 26.048 60.488 26.048 59.976 26.112C58.792 26.208 58.472 26.272 58.472 26.688C58.472 26.912 58.76 28.064 58.824 28.32C58.888 28.544 58.952 28.768 58.984 28.928C59.208 29.728 59.272 30.048 59.624 30.048C59.848 30.048 59.944 29.92 60.04 29.728C60.232 29.312 60.328 29.248 61.032 29.152C64.808 28.608 68.552 27.904 72.232 26.944C73.032 26.752 73.288 26.656 73.288 25.6C73.288 24.896 73.352 23.936 72.648 23.936C72.456 23.936 68.84 24.704 67.016 25.056C66.952 25.056 66.888 25.088 66.792 25.088C66.344 25.088 66.152 24.736 66.152 24.32V18.816C66.152 18.176 66.44 17.92 67.048 17.92H69.928C70.568 17.92 70.824 18.08 71.08 18.72C72.584 22.304 75.336 25.344 78.536 27.488C79.432 28.096 83.112 30.208 84.008 30.208C84.712 30.208 85.864 28.416 85.864 27.776C85.864 27.392 85.416 27.264 85.128 27.136C83.112 26.336 81.128 25.312 79.336 24C79.208 23.872 79.112 23.744 79.112 23.552C79.112 23.36 79.24 23.2 79.368 23.072C79.88 22.72 80.392 22.336 80.872 21.984C81.256 21.696 81.736 21.28 82.12 21.024C82.216 20.96 82.28 20.896 82.44 20.896C82.536 20.896 82.696 20.928 82.792 20.96C82.888 20.992 82.952 21.024 83.016 21.024C83.208 21.024 83.336 20.864 83.336 20.672C83.336 20.288 80.968 18.176 80.648 18.176C80.456 18.176 80.296 18.4 80.04 18.656C79.432 19.328 78.152 20.512 77.448 21.088C77.256 21.216 77.064 21.344 76.84 21.344C76.552 21.344 76.36 21.184 76.2 20.992C75.592 20.288 75.048 19.488 74.6 18.656C74.536 18.56 74.504 18.496 74.504 18.368C74.504 18.048 74.792 17.952 75.08 17.92H81.224C82.504 17.92 83.816 17.984 85.096 17.984C85.832 17.984 85.832 17.632 85.832 16.544C85.832 15.456 85.832 15.104 85.096 15.104C83.784 15.104 82.504 15.168 81.224 15.168H66.92C66.408 15.168 66.152 14.944 66.152 14.4V14.176C66.152 13.632 66.408 13.408 66.92 13.408H76.2C77.32 13.408 78.44 13.472 79.592 13.472C80.264 13.472 80.264 13.184 80.264 12.192C80.264 11.168 80.264 10.88 79.592 10.88C78.44 10.88 77.32 10.944 76.2 10.944H66.92C66.408 10.944 66.152 10.72 66.152 10.208V10.016C66.152 9.504 66.408 9.28 66.92 9.28H76.072C77.256 9.28 78.44 9.344 79.624 9.344C80.264 9.344 80.296 9.088 80.296 8.064C80.296 7.008 80.264 6.752 79.624 6.752C78.44 6.752 77.256 6.816 76.072 6.816H66.92C66.408 6.816 66.152 6.592 66.152 6.048V5.888C66.152 5.376 66.408 5.152 66.92 5.152H79.112C80.04 5.152 80.968 5.216 81.896 5.216C82.6 5.216 82.6 4.928 82.6 3.84C82.6 2.72 82.6 2.464 81.896 2.464C80.968 2.464 80.04 2.528 79.112 2.528H66.76C65.928 2.528 65.128 2.464 64.328 2.464C63.304 2.464 62.76 2.784 62.76 3.904C62.76 4.576 62.824 5.312 62.824 6.144V14.272C62.824 14.88 62.536 15.168 61.928 15.168ZM100.04 7.168C99.4 7.136 99.144 6.912 99.144 6.272V4.352C99.144 3.328 99.176 2.72 99.496 2.496C99.72 2.336 99.912 2.272 99.912 1.984C99.912 1.6 99.4 1.568 99.144 1.568C98.6 1.536 97.032 1.408 96.584 1.408C96.264 1.408 96.008 1.472 96.008 1.856V2.144C96.136 3.072 96.136 3.968 96.136 4.864V6.272C96.136 6.912 95.848 7.168 95.24 7.168C94.536 7.2 93.8 7.104 93.128 7.104C92.392 7.104 92.424 7.456 92.424 8.64C92.424 9.76 92.392 10.176 93.096 10.176C93.736 10.176 94.536 10.08 95.24 10.112C95.848 10.112 96.136 10.368 96.136 10.976V15.392C96.072 16.064 95.944 16.32 95.304 16.544C94.632 16.768 93.576 17.056 92.872 17.216C92.552 17.28 92.008 17.344 92.008 17.728C92.008 18.016 92.616 20.032 92.744 20.416C92.872 20.768 92.968 20.992 93.224 20.992C93.448 20.992 93.544 20.8 93.608 20.64C93.704 20.352 93.736 20.256 94.056 20.128C94.28 20.032 94.632 19.936 95.304 19.712C95.4 19.68 95.464 19.68 95.56 19.68C95.976 19.68 96.104 19.968 96.136 20.32V24.672C96.136 26.304 96.168 26.752 94.76 26.752C94.344 26.752 93.896 26.72 93.576 26.72C92.968 26.72 92.872 27.2 92.872 27.808C92.872 30.208 94.152 30.112 94.792 30.112C95.88 30.112 97.64 29.92 98.472 29.184C99.112 28.608 99.208 27.584 99.208 26.784C99.208 26.048 99.144 25.312 99.144 24.544V19.232C99.144 18.592 99.336 18.304 99.912 18.048C102.504 16.96 102.728 16.992 102.728 16.096C102.728 15.584 102.728 14.08 101.992 14.08C101.736 14.08 100.424 14.72 99.976 14.912C99.848 14.976 99.784 14.976 99.688 14.976C99.272 14.976 99.176 14.656 99.144 14.336V10.976C99.144 10.368 99.4 10.144 100.04 10.112C100.552 10.112 101.64 10.176 101.992 10.176C102.76 10.176 102.696 9.696 102.696 8.64C102.696 7.552 102.76 7.104 101.992 7.104C101.352 7.104 100.68 7.168 100.04 7.168ZM109 16.096C109.608 16.096 109.896 16.352 109.864 16.96L109.768 18.176C109.608 18.816 109.384 19.008 108.744 19.008H105.96C104.872 19.008 103.752 18.944 102.824 18.944C102.12 18.944 102.152 19.36 102.152 20.416C102.152 21.504 102.12 21.952 102.824 21.952C103.656 21.952 104.904 21.856 105.96 21.856H107.816C108.104 21.888 108.36 21.984 108.36 22.304C108.36 22.432 108.328 22.496 108.264 22.592C106.6 24.832 104.04 26.208 101.416 26.976C101.128 27.072 100.808 27.104 100.808 27.456C100.808 28.064 101.8 29.856 102.504 29.856C103.304 29.856 108.392 27.712 110.984 24.032C111.112 23.872 111.24 23.744 111.464 23.744C111.656 23.744 111.784 23.872 111.912 24.032C113.224 25.92 114.856 27.552 116.776 28.864C117.16 29.152 118.504 30.048 118.92 30.048C119.528 30.048 120.936 28.416 120.936 27.84C120.936 27.52 120.488 27.296 120.232 27.168C117.768 25.952 116.04 24.704 114.28 22.56C114.216 22.464 114.184 22.368 114.184 22.272C114.184 21.984 114.408 21.888 114.664 21.856H116.904C117.96 21.856 119.176 21.952 120.04 21.952C120.744 21.952 120.712 21.504 120.712 20.416C120.712 19.36 120.744 18.944 120.04 18.944C119.112 18.944 117.992 19.008 116.904 19.008H113.672C113.192 19.008 112.872 18.816 112.872 18.304V18.176L112.968 16.96C113.032 16.352 113.256 16.096 113.864 16.096H114.632C115.752 16.096 116.872 16.192 117.992 16.192C118.728 16.192 118.696 15.808 118.696 14.72C118.696 13.6 118.728 13.216 117.992 13.216C116.872 13.216 115.752 13.28 114.632 13.28H109.384C109.064 13.28 108.776 13.152 108.776 12.768C108.776 12.672 108.776 12.576 108.808 12.48C108.904 12.256 108.968 12.096 109 12C109.096 11.776 109.128 11.744 109.448 11.68C109.64 11.616 109.832 11.52 109.832 11.328C109.832 11.04 109.224 10.912 108.68 10.752C108.616 10.72 108.552 10.656 108.552 10.592C108.552 10.56 108.584 10.496 108.712 10.464C111.144 10.208 113.576 9.984 116.008 9.696C116.072 9.664 116.2 9.664 116.264 9.664C116.744 9.664 116.968 9.92 117.224 10.272C117.608 11.04 117.864 11.68 118.344 11.68C118.632 11.68 120.488 11.008 120.488 10.304C120.488 9.792 119.176 7.84 118.856 7.328C117.928 5.888 117.352 5.056 116.296 3.744C116.104 3.488 115.912 3.2 115.56 3.2C115.24 3.2 113.48 3.936 113.48 4.608C113.48 4.832 113.928 5.344 114.408 5.984C114.504 6.112 114.728 6.4 114.728 6.56C114.728 6.848 114.504 6.944 114.216 7.008C112.936 7.168 111.624 7.264 110.312 7.392C110.024 7.392 109.8 7.264 109.8 6.976C109.8 6.88 109.832 6.784 109.864 6.72C110.472 5.568 111.016 4.384 111.592 3.232C111.688 3.072 111.784 3.008 112.168 2.944C112.328 2.912 112.456 2.816 112.456 2.656C112.456 2.304 111.784 2.144 111.528 2.048C111.08 1.92 109.448 1.408 109.128 1.408C108.808 1.408 108.744 1.568 108.616 1.92C107.816 3.904 107.336 5.024 106.344 6.944C106.056 7.456 105.832 7.648 105.256 7.712H105.096C103.624 7.712 103.24 7.712 103.24 8.16C103.24 8.512 103.528 9.504 103.656 9.952C103.912 10.816 104.104 11.328 104.36 11.328C104.552 11.328 104.648 11.2 104.744 11.072C104.904 10.848 104.968 10.816 105.16 10.784C105.256 10.752 105.384 10.752 105.48 10.752C105.8 10.752 106.088 10.88 106.088 11.232C106.088 11.328 106.056 11.392 106.024 11.488C105.352 13.184 104.52 14.848 103.464 16.352C103.336 16.512 103.048 16.896 103.048 17.088C103.048 17.568 104.84 18.432 105.32 18.432C105.736 18.432 106.216 17.664 106.536 17.12C106.6 17.024 106.632 16.928 106.696 16.832C107.08 16.256 107.336 16.096 108.008 16.096H109ZM149.512 3.168C149.512 2.848 149.128 2.656 148.456 2.304C148.072 2.08 146.856 1.408 146.472 1.408C146.28 1.408 146.248 1.536 146.12 1.792C145.384 3.456 144.584 4.768 143.592 6.272C143.4 6.592 143.08 7.008 143.08 7.392C143.08 7.776 143.304 8.064 143.528 8.384C144.488 9.728 145.672 11.584 146.344 13.12C146.472 13.44 146.6 13.792 147.016 13.792C147.624 13.792 149.16 13.056 149.16 12.352C149.16 11.712 146.952 8.576 146.44 7.936C146.312 7.808 146.216 7.68 146.216 7.488C146.216 7.36 146.312 7.2 146.408 7.104C146.824 6.496 147.976 4.576 148.424 3.84C148.584 3.552 148.648 3.488 149.032 3.456C149.224 3.456 149.512 3.424 149.512 3.168ZM144.136 3.136C144.136 2.816 143.912 2.784 143.368 2.464C143.272 2.4 143.08 2.304 142.888 2.208C142.28 1.856 141.384 1.376 141.096 1.376C140.904 1.376 140.84 1.44 140.52 2.176C140.04 3.328 138.856 5.248 138.184 6.336C137.96 6.656 137.672 7.008 137.672 7.424C137.672 7.808 137.864 8.064 138.088 8.384C139.016 9.728 140.2 11.616 140.808 13.152C140.936 13.44 141.032 13.76 141.416 13.76C142.056 13.76 143.592 13.024 143.592 12.32C143.592 11.776 141.48 8.544 141.064 7.904C140.968 7.776 140.808 7.584 140.808 7.424C140.808 7.296 140.936 7.136 141 7.008C141.512 6.336 142.248 5.152 142.632 4.416C143.112 3.52 143.048 3.52 143.592 3.488C143.784 3.456 144.136 3.456 144.136 3.136ZM154.984 3.072C154.984 2.816 154.664 2.688 154.376 2.528C153.928 2.272 152.392 1.376 151.944 1.376C151.784 1.376 151.752 1.44 151.592 1.792C150.888 3.36 149.96 4.864 149 6.304C148.808 6.624 148.488 7.008 148.488 7.424C148.488 7.808 148.712 8.096 148.936 8.416C149.8 9.696 151.272 11.968 151.88 13.344C152.04 13.664 152.168 14.016 152.584 14.016C153.256 14.016 154.664 13.152 154.664 12.416C154.664 11.808 152.392 8.448 151.88 7.776C151.816 7.648 151.688 7.488 151.688 7.328C151.688 7.2 151.784 7.072 151.848 6.944C152.584 5.952 153.256 4.896 153.864 3.808C154.024 3.552 154.12 3.488 154.472 3.488C154.728 3.456 154.984 3.392 154.984 3.072ZM133.864 19.296C133.864 18.656 134.024 18.368 134.632 18.112C137.704 16.8 137.832 16.8 137.832 15.712C137.832 15.2 137.832 13.92 137.096 13.92C136.968 13.92 135.976 14.368 135.272 14.688C134.984 14.816 134.76 14.944 134.632 14.976C134.568 15.008 134.472 15.04 134.376 15.04C133.992 15.04 133.896 14.72 133.864 14.4V11.136C133.864 10.496 134.12 10.272 134.76 10.24C135.4 10.24 136.264 10.304 136.776 10.304C137.544 10.304 137.512 9.888 137.512 8.768C137.512 7.68 137.544 7.232 136.776 7.232C136.232 7.232 135.4 7.296 134.76 7.296C134.12 7.264 133.864 7.04 133.864 6.4V4.32C133.864 3.264 133.896 2.752 134.216 2.528C134.408 2.4 134.632 2.272 134.632 2.016C134.632 1.632 134.12 1.6 133.864 1.6C133.224 1.536 131.848 1.44 131.304 1.44C130.952 1.44 130.696 1.504 130.696 1.888V2.208C130.792 2.88 130.792 3.584 130.792 4.288V6.4C130.792 7.04 130.536 7.264 129.928 7.296C129.352 7.296 128.296 7.232 127.848 7.232C127.08 7.232 127.112 7.648 127.112 8.768C127.112 9.888 127.08 10.304 127.848 10.304C128.264 10.304 129.352 10.24 129.928 10.24C130.536 10.272 130.792 10.496 130.792 11.136V15.52C130.792 16.128 130.664 16.448 130.024 16.64C129.16 16.928 128.552 17.088 128.072 17.216C126.824 17.536 126.664 17.6 126.664 17.984C126.664 18.272 127.336 20.192 127.464 20.576C127.592 20.896 127.624 21.152 127.944 21.152C128.168 21.152 128.264 20.992 128.328 20.832C128.456 20.512 128.52 20.416 128.808 20.288C129.032 20.192 129.384 20.096 129.992 19.872C130.088 19.84 130.184 19.84 130.248 19.84C130.664 19.84 130.792 20.128 130.792 20.48V24.8C130.792 26.304 130.856 26.784 129.608 26.784C129.384 26.784 129.064 26.752 128.808 26.72C128.712 26.72 128.552 26.688 128.456 26.688C127.944 26.688 127.784 27.04 127.784 27.488C127.784 30.016 128.488 30.016 129.384 30.016C131.56 30.016 133.928 29.888 133.928 27.136C133.928 26.336 133.864 25.504 133.864 24.672V19.296ZM145.192 22.432C144.84 21.984 143.528 20.16 142.984 20.16C142.504 20.16 140.84 21.248 140.84 21.856C140.84 22.08 142.248 23.648 142.536 23.968C142.632 24.128 142.696 24.256 142.696 24.448C142.696 24.736 142.504 24.896 142.28 25.024C140.776 25.792 138.856 26.528 137.256 26.976C136.2 27.296 135.72 27.36 135.72 27.808C135.72 28.448 136.808 30.112 137.64 30.112C137.992 30.112 138.568 29.888 138.888 29.792C142.632 28.544 146.728 26.464 149.768 24C150.984 23.008 154.824 19.424 154.824 17.92C154.824 17.632 154.12 15.936 152.648 15.936C151.88 15.936 151.08 15.968 150.28 15.968H146.44C146.248 15.968 146.088 15.872 146.088 15.648C146.088 15.584 146.088 15.52 146.12 15.456C146.504 15.008 146.536 14.944 146.984 14.912C147.144 14.88 147.464 14.784 147.464 14.56C147.464 14.272 147.048 14.176 146.344 13.92L145.8 13.728C145.48 13.6 144.392 13.152 144.136 13.152C143.912 13.152 143.816 13.376 143.688 13.536C142.184 15.84 139.048 18.272 136.616 19.616C136.36 19.776 135.912 19.968 135.912 20.288C135.912 20.832 137.128 22.368 137.704 22.368C138.408 22.368 141.64 19.808 142.344 19.232C142.888 18.784 143.112 18.72 143.816 18.72H149.256C149.832 18.72 150.248 18.752 150.248 19.04C150.248 19.648 146.984 22.208 146.376 22.624C146.184 22.752 146.056 22.816 145.832 22.816C145.544 22.816 145.352 22.656 145.192 22.432Z" fill="#3E3E3E"/>
</svg>
