<svg width="330" height="38" viewBox="0 0 330 38" fill="none" xmlns="http://www.w3.org/2000/svg">
<path d="M8.768 15.008C8.96 15.024 9.168 15.04 9.344 15.04C10.512 15.04 11.424 14.656 11.424 13.328C11.424 13.296 11.424 13.264 11.424 13.232C11.408 12.944 11.392 11.952 11.392 11.216V10.8H13.28V11.696H14.368V8.272H15.344V7.168H14.368V4.64H11.872C12.336 3.936 12.912 2.928 12.912 2.928C13.168 2.848 13.248 2.8 13.248 2.736C13.248 2.608 12.624 2.096 12.32 1.92C12.304 1.904 12.272 1.904 12.256 1.904C12.144 1.904 12.016 2.032 12.016 2.032H10.192C10.304 1.792 10.4 1.568 10.496 1.392C10.848 1.376 10.976 1.28 10.976 1.2C10.976 1.12 10.896 1.04 10.784 1.008C10.304 0.832 9.552 0.671999 9.552 0.671999C9.552 0.671999 9.104 2.768 7.088 4.56V3.696H4.752V2.848H7.36V1.888H4.752V1.792C4.752 1.792 4.768 1.456 4.784 1.28C5.104 1.232 5.232 1.136 5.232 1.056C5.232 0.959999 5.12 0.879999 4.928 0.848C4.576 0.799999 3.664 0.751999 3.664 0.751999C3.696 1.184 3.696 1.744 3.696 1.744V1.888H1.072V2.848H3.696V3.696H1.264V4.64H3.696V5.504H0.784V6.464H7.616V5.504H4.752V4.64H7.008L6.88 4.736L7.952 5.216L8.24 4.928V5.664H10.24V7.168H7.376V8.272H10.24V9.792H8.048V10.8H10.24V13.152C10.24 13.76 9.92 13.92 9.344 13.92C8.992 13.92 8.56 13.856 8.048 13.792L8.768 15.008ZM1.728 15.2H2.784V12.096H5.776V13.248C5.776 13.792 5.376 13.936 4.912 13.936C4.512 13.936 4.064 13.824 3.76 13.792L4.432 15.024C4.576 15.04 4.72 15.04 4.848 15.04C6.032 15.04 6.832 14.688 6.832 13.392C6.832 13.36 6.832 13.328 6.832 13.296C6.832 13.008 6.816 12.656 6.816 11.92C6.816 8.72 6.8 7.216 6.8 7.216H1.728V15.2ZM8.496 4.64C9.04 4.032 9.424 3.44 9.728 2.912H11.712C11.712 2.912 11.264 3.84 10.672 4.64H8.496ZM11.392 7.168V5.664H13.28V7.168H11.392ZM11.392 9.792V8.272H13.28V9.792H11.392ZM2.784 9.152V8.176H5.776V9.152H2.784ZM2.784 11.152V10.096H5.776V11.152H2.784ZM22.32 3.312C22.32 3.312 23.168 4.672 23.392 5.504L24.416 5.152C24.096 4.176 23.328 2.928 23.328 2.928L22.32 3.312ZM21.824 13.168H22.912V11.664H27.52V12.688H28.608V9.04C28.608 9.04 28.608 8.48 28.64 8.128C28.928 8.08 29.056 7.968 29.056 7.872C29.056 7.776 28.928 7.68 28.752 7.664C28.224 7.616 27.472 7.6 27.472 7.6C27.52 8.112 27.52 8.896 27.52 8.896V10.672H25.76V6.672H29.744V5.632H27.024C27.424 4.88 27.968 3.632 27.968 3.632C28.24 3.6 28.4 3.52 28.4 3.424C28.4 3.344 28.304 3.248 28.048 3.168C27.792 3.088 26.992 2.912 26.992 2.912C26.992 2.912 26.752 3.92 25.936 5.632H20.8V6.672H24.608V10.672H22.912V9.04C22.912 9.04 22.912 8.48 22.944 8.128C23.232 8.08 23.344 7.968 23.344 7.872C23.344 7.776 23.232 7.68 23.04 7.664C22.528 7.616 21.776 7.6 21.776 7.6C21.824 8.144 21.824 8.896 21.824 8.896V13.168ZM18.992 15.088H20.192V2.496H30.256V12.912C30.256 13.488 29.76 13.696 28.88 13.696C28.32 13.696 27.584 13.6 26.736 13.472L27.568 14.8C27.984 14.832 28.4 14.848 28.8 14.848C30.24 14.848 31.472 14.56 31.472 13.024C31.472 13.008 31.472 12.992 31.472 12.976L31.44 10.816V1.408H18.992V15.088ZM39.248 9.024H40.32V8.48H46.064V8.832H47.168V1.36H39.248V9.024ZM36.32 11.68H37.52V10.736H41.872V15.152H43.04V10.736H49.248V9.712H37.52V3.648C37.52 3.648 37.52 3.168 37.552 2.944C37.872 2.88 38.016 2.768 38.016 2.656C38.016 2.576 37.92 2.496 37.744 2.464C37.408 2.4 36.272 2.336 36.272 2.336C36.288 2.784 36.32 3.616 36.32 3.616V11.68ZM44.352 11.968C44.672 12.288 46.608 14.064 48.336 14.848L49.568 13.904C47.376 13.2 45.568 11.632 45.12 11.232L44.352 11.968ZM36.384 15.008C38.032 14.352 39.344 13.232 40.224 12.272C40.336 12.336 40.464 12.352 40.576 12.352C40.704 12.352 40.816 12.32 40.816 12.224C40.816 12.144 40.752 12.048 40.608 11.92C40.416 11.744 39.664 11.28 39.584 11.216C39.328 11.552 37.984 13.28 35.184 14.192L36.384 15.008ZM40.32 3.424V2.384H46.064V3.424H40.32ZM40.32 5.472V4.384H46.064V5.472H40.32ZM40.32 7.536V6.432H46.064V7.536H40.32ZM53.376 4.688H65.92V3.472H60.352V2.304C60.352 2.304 60.352 1.76 60.384 1.504C60.688 1.472 60.96 1.296 60.96 1.152C60.96 1.008 60.656 0.895999 58.976 0.832C59.008 1.28 59.024 2.08 59.024 2.08V3.472H53.376V4.688ZM52.736 14.24H66.592V12.992H61.568C62.608 10.096 63.328 6.8 63.392 6.416C63.792 6.416 64.032 6.272 64.032 6.112C64.032 6.016 63.936 5.92 63.68 5.856C63.024 5.712 62.208 5.584 62.048 5.568C62.016 5.904 61.472 9.792 60.224 12.992H52.736V14.24ZM58.288 11.872C57.92 8.992 56.784 6 56.688 5.744L55.376 6.016C55.488 6.32 56.576 9.184 56.912 12.144L58.288 11.872ZM73.712 10.672H83.856V9.568H81.184V5.936H83.36V4.832H76.432V3.136C78.432 2.96 81.088 2.464 82.208 2.144C82.384 2.304 82.544 2.384 82.656 2.384C82.752 2.384 82.816 2.336 82.816 2.24C82.816 2.176 82.8 2.112 82.736 2.016C82.496 1.68 81.84 0.927999 81.84 0.927999C80.784 1.392 77.824 1.968 75.904 2.112C75.616 2.048 75.216 2 75.216 2V9.568H73.712V10.672ZM70.56 1.856C70.56 1.856 72.272 2.944 73.12 4.064L74.096 3.088C73.184 2.096 71.488 1.056 71.488 1.056L70.56 1.856ZM79.248 11.952C79.632 12.464 81.376 14.224 82.912 15.008L84.256 14.144C82.064 13.296 80.512 11.76 80.176 11.312L79.248 11.952ZM69.552 5.728C69.552 5.728 71.536 6.704 72.448 7.76L73.296 6.656C72.384 5.824 70.4 4.784 70.4 4.784L69.552 5.728ZM73.616 15.168C75.664 14.064 77.104 12.224 77.104 12.224C77.184 12.24 77.264 12.256 77.344 12.256C77.504 12.256 77.632 12.208 77.632 12.128C77.632 12 77.584 11.968 76.272 11.312C76.096 11.664 74.784 13.424 72.192 14.432L73.616 15.168ZM72.496 8.784C72 10.08 70.928 12.672 69.696 14.08C69.696 14.08 70.384 14.592 71.024 14.896C71.072 14.912 71.12 14.928 71.152 14.928C71.248 14.928 71.28 14.864 71.28 14.768C71.28 14.688 71.248 14.576 71.184 14.48C72.16 12.752 72.896 11.12 73.392 9.92L72.496 8.784ZM76.432 9.568V5.936H80V9.568H76.432ZM101.712 7.616C100.704 6.672 99.072 4.448 98.24 1.392L97.12 1.68C98.016 4.688 99.168 6.8 100.304 8.24L101.712 7.616ZM93.024 8.576C94.176 6.896 95.216 4.32 95.616 2.336C95.648 2.336 95.664 2.336 95.696 2.336C95.968 2.336 96.16 2.24 96.16 2.128C96.16 2.016 96.064 1.856 94.544 1.504C94.144 4.272 92.816 6.976 91.648 8.208L93.024 8.576ZM101.152 14.192C100.32 11.824 98.336 8.688 98.336 8.688C98.016 8.816 97.248 9.072 97.248 9.072C97.744 9.76 98.368 10.864 98.912 12.048C98.064 12.256 96.512 12.56 94.976 12.784C95.856 10.608 96.832 7.104 96.88 6.912C97.264 6.88 97.472 6.752 97.472 6.624C97.472 6.528 97.344 6.416 97.104 6.368C96.784 6.304 95.648 6.144 95.648 6.144C95.6 6.8 94.704 10.528 93.664 12.944C93.104 13.008 92.56 13.04 92.096 13.056C92.096 13.056 92.384 13.92 92.592 14.448C92.672 14.656 92.784 14.768 92.88 14.768C93.008 14.768 93.104 14.592 93.104 14.24C93.104 14.224 93.104 14.208 93.104 14.192C96.016 13.824 98.336 13.296 99.328 13.04C99.584 13.664 99.792 14.288 99.92 14.816L101.152 14.192ZM89.328 15.088H90.528V12.032C90.528 10.8 90.432 7.152 90.384 5.856C90.592 6.304 90.88 6.912 91.28 7.616L92.32 7.168C91.536 6.256 90.992 5.392 90.672 4.848H92.448V3.744H90.512V2.24C90.512 2.24 90.512 1.712 90.544 1.344C90.848 1.28 90.992 1.152 90.992 1.056C90.992 0.959999 90.88 0.863999 90.656 0.848C90.112 0.799999 89.296 0.751999 89.296 0.751999C89.328 1.376 89.344 2.112 89.344 2.112V3.744H87.136V4.848H89.136C88.912 5.648 88.048 8.432 86.32 10.24L87.552 10.64C88.464 9.424 89.136 7.52 89.44 6.56C89.392 7.984 89.328 10.448 89.328 11.952V15.088ZM105.136 15.12H106.32V14.032H116.064V15.008H117.264V5.12H113.008V3.04H118.032V1.856H104.368V3.04H108.896C108.912 3.6 108.928 4.464 108.928 5.12H105.136V15.12ZM110.112 5.12C110.112 4.384 110.128 3.328 110.128 3.04H111.808V5.12H110.112ZM106.32 12.864V10.4L107.6 10.976C109.504 9.68 110.064 7.936 110.096 6.224H111.808V9.312C111.808 10.448 112.672 10.544 113.488 10.544C114.624 10.544 115.648 10.544 115.872 8.48L114.784 7.36C114.736 9.104 114.56 9.44 113.632 9.44C113.136 9.44 113.008 9.328 113.008 9.056V6.224H116.064V12.864H106.32ZM106.32 6.224H108.928C108.88 7.6 108.464 9.152 106.32 10.16V6.224ZM121.744 3.056H135.072V1.968H128.944V1.68C128.944 1.68 128.96 1.44 128.976 1.312C129.344 1.248 129.488 1.136 129.488 1.024C129.488 0.927999 129.392 0.704 127.76 0.704C127.792 0.959999 127.808 1.424 127.808 1.424V1.968H121.744V3.056ZM124.512 7.28H125.616V6.912H131.2V7.264H132.272V3.984H124.512V7.28ZM122.416 15.168H123.6V8.912H133.344V12.992C133.344 13.472 133.264 13.76 132.256 13.76C131.856 13.76 131.344 13.728 130.64 13.632L131.504 14.944C131.696 14.944 131.872 14.96 132.064 14.96C133.312 14.96 134.528 14.72 134.528 13.072C134.528 12.8 134.496 12.016 134.496 11.744L134.48 7.888H122.416V15.168ZM125.344 13.824H126.432V12.752H130.48V13.232H131.504V9.84H125.344V13.824ZM125.616 5.968L125.6 4.88H131.2V5.968H125.616ZM126.432 11.84L126.416 10.672H130.48V11.84H126.432ZM146.128 4.24C146.48 3.808 146.8 3.328 147.056 2.864H148.208C148.336 3.088 148.752 3.856 148.992 4.656L150.048 4.256C149.824 3.776 149.52 3.232 149.312 2.864H152.432V1.888H147.584C147.68 1.696 147.76 1.52 147.824 1.376C148.16 1.344 148.272 1.264 148.272 1.168C148.272 1.088 148.176 0.992 148.064 0.959999C147.76 0.848 146.896 0.591999 146.896 0.591999C146.816 1.072 146.144 2.736 144.848 3.92L146.128 4.24ZM139.712 4.864C140.24 4.32 140.784 3.552 141.232 2.864H141.968C142.096 3.12 142.496 3.904 142.704 4.672L143.776 4.304C143.568 3.808 143.248 3.232 143.04 2.864H145.568V1.888H141.808C141.904 1.728 141.984 1.584 142.048 1.472C142.464 1.456 142.624 1.328 142.624 1.2C142.624 1.136 142.56 1.072 142.48 1.04C142.176 0.912 141.328 0.655999 141.328 0.655999C141.216 1.152 140.032 3.2 138.336 4.448L139.712 4.864ZM139.056 8.656H152.208V7.616H146.064V6.336H151.248V5.28H146.064C146.064 5.184 146.064 5.008 146.096 4.864C146.368 4.816 146.496 4.688 146.496 4.592C146.496 4.512 146.416 4.432 146.256 4.4C145.952 4.352 144.864 4.304 144.864 4.304C144.912 4.64 144.912 4.912 144.912 5.072C144.912 5.136 144.912 5.184 144.912 5.28H140.096V6.336H144.912V7.616H139.056V8.656ZM139.28 11.152H147.952V13.04V13.056C147.952 13.6 147.52 13.824 146.688 13.824C146.224 13.824 145.632 13.76 144.928 13.648L145.808 14.976C146.016 14.992 146.208 14.992 146.4 14.992C147.92 14.992 149.104 14.656 149.104 13.184C149.104 13.072 149.088 12.48 149.088 11.696V11.152H152.144V10.064H149.088C149.088 9.952 149.088 9.76 149.12 9.568C149.408 9.52 149.552 9.392 149.552 9.296C149.552 9.184 149.424 9.088 149.168 9.072C148.816 9.04 147.904 8.96 147.904 8.96C147.952 9.424 147.952 9.776 147.952 9.968V10.064H139.28V11.152ZM141.488 12.192C141.488 12.192 143.008 12.96 144.208 14.144L144.896 13.136C143.76 12.128 142.176 11.376 142.176 11.376L141.488 12.192ZM156.272 7.248H157.536V4.768L167.968 4.784V7.28H169.264V3.664H166.176C166.544 3.152 167.12 2.336 167.408 1.712C167.424 1.712 167.44 1.712 167.456 1.712C167.808 1.712 167.968 1.616 167.968 1.52C167.968 1.44 167.888 1.36 167.744 1.296C167.248 1.072 166.336 0.863999 166.336 0.863999C166 2.016 165.28 3.136 164.912 3.68H162.736C163.072 3.552 163.68 3.344 163.68 3.328C163.36 1.92 162.496 0.863999 162.496 0.863999L161.392 1.136C161.392 1.136 162.16 2.192 162.496 3.68H159.52C159.824 3.536 160.416 3.264 160.416 3.248C159.888 1.984 158.88 0.959999 158.88 0.959999L157.792 1.392C157.792 1.392 158.752 2.368 159.296 3.68H156.272V7.248ZM155.68 10.624H163.104C163.152 10.96 163.152 11.28 163.152 11.6C163.152 11.616 163.152 11.616 163.152 11.632C163.152 13.216 162.32 13.648 161.376 13.648C160.736 13.648 160.016 13.44 159.488 13.248L160.352 14.848C160.592 14.912 160.912 14.96 161.264 14.96C162.576 14.96 164.4 14.32 164.4 11.632C164.4 11.616 164.4 11.6 164.4 11.584C164.4 11.28 164.384 10.96 164.336 10.624H169.904L169.92 9.44H163.984C163.92 9.296 163.84 9.168 163.744 9.024C164.592 8.528 166.304 7.28 166.624 6.976C166.848 6.944 166.992 6.896 166.992 6.768C166.992 6.72 166.96 6.656 166.896 6.56C166.8 6.464 166.208 5.904 166.08 5.904C165.984 5.904 165.92 6 165.84 6H158.72V7.088L164.8 7.04C164.336 7.472 163.632 7.952 163.056 8.304C162.896 8.176 162.704 8.048 162.496 7.936L161.408 8.4C162.016 8.72 162.416 9.072 162.672 9.44H155.68V10.624ZM177.936 3.68H186.896V2.624H182.736V1.776C182.736 1.776 182.752 1.536 182.768 1.36C183.12 1.296 183.28 1.168 183.28 1.072C183.28 0.912 182.96 0.815999 181.504 0.751999C181.536 1.072 181.552 1.52 181.552 1.52V2.624H177.936V3.68ZM182.864 4.656C182.864 4.656 184.176 6.528 185.808 7.744L186.96 6.96C184.784 5.664 183.792 4.048 183.792 4.048L182.864 4.656ZM178.72 7.952C180.208 6.704 181.12 5.024 181.12 5.024C181.216 5.04 181.312 5.056 181.392 5.056C181.568 5.056 181.68 4.992 181.68 4.912C181.68 4.832 181.584 4.72 181.392 4.592C181.12 4.416 180.352 4.032 180.352 4.032C180.352 4.032 179.616 5.872 177.584 7.36L178.72 7.952ZM178.128 15.04C179.68 14.448 181.088 13.392 182.224 12.032C183.44 13.408 184.8 14.336 186.112 14.88L187.488 13.936C185.744 13.376 184.16 12.464 182.928 11.12C183.616 10.128 184.176 9.024 184.592 7.808C184.624 7.808 184.656 7.808 184.688 7.808C184.912 7.808 185.072 7.712 185.072 7.584C185.072 7.44 184.672 7.28 183.584 6.88C183.328 8.08 182.864 9.2 182.208 10.208C181.552 9.296 181.04 8.192 180.688 6.912L179.616 7.456C180.128 8.896 180.784 10.112 181.52 11.136C180.32 12.576 178.672 13.664 176.656 14.192L178.128 15.04ZM175.056 15.136H176.224V12.544C176.224 11.088 176.128 8.08 176.096 6.128C176.288 6.8 176.656 7.968 177.088 8.928L178.176 8.608C177.008 7.008 176.448 5.36 176.288 4.832H177.84V3.76H176.192V1.952C176.192 1.952 176.208 1.616 176.224 1.408C176.512 1.328 176.64 1.216 176.64 1.12C176.64 0.912 176.128 0.832 175.04 0.783999C175.088 1.12 175.088 1.776 175.088 1.776V3.76H173.152V4.832H174.976C174.752 5.728 173.984 8.272 172.384 10.32L173.568 10.592C174.272 9.456 174.832 7.808 175.168 6.736C175.12 8.464 175.056 11.376 175.056 12.448V15.136ZM195.392 7.92C195.392 8.912 196.208 9.728 197.2 9.728C198.192 9.728 199.008 8.912 199.008 7.92C199.008 6.928 198.192 6.112 197.2 6.112C196.208 6.112 195.392 6.928 195.392 7.92ZM208.432 10.96H209.664V9.792H213.696V15.04H214.96V9.792H219.152V10.848H220.416V3.728H214.944V2.24C214.944 2.24 214.96 1.744 214.976 1.44C215.232 1.408 215.472 1.248 215.472 1.12C215.472 0.848 213.952 0.832 213.648 0.832C213.696 1.488 213.696 2.096 213.696 2.096V3.728H208.432V10.96ZM214.944 8.608V4.88H219.152V8.608H214.944ZM209.664 8.608V4.88H213.696V8.608H209.664ZM232.128 4.24C232.48 3.808 232.8 3.328 233.056 2.864H234.208C234.336 3.088 234.752 3.856 234.992 4.656L236.048 4.256C235.824 3.776 235.52 3.232 235.312 2.864H238.432V1.888H233.584C233.68 1.696 233.76 1.52 233.824 1.376C234.16 1.344 234.272 1.264 234.272 1.168C234.272 1.088 234.176 0.992 234.064 0.959999C233.76 0.848 232.896 0.591999 232.896 0.591999C232.816 1.072 232.144 2.736 230.848 3.92L232.128 4.24ZM225.712 4.864C226.24 4.32 226.784 3.552 227.232 2.864H227.968C228.096 3.12 228.496 3.904 228.704 4.672L229.776 4.304C229.568 3.808 229.248 3.232 229.04 2.864H231.568V1.888H227.808C227.904 1.728 227.984 1.584 228.048 1.472C228.464 1.456 228.624 1.328 228.624 1.2C228.624 1.136 228.56 1.072 228.48 1.04C228.176 0.912 227.328 0.655999 227.328 0.655999C227.216 1.152 226.032 3.2 224.336 4.448L225.712 4.864ZM225.056 8.656H238.208V7.616H232.064V6.336H237.248V5.28H232.064C232.064 5.184 232.064 5.008 232.096 4.864C232.368 4.816 232.496 4.688 232.496 4.592C232.496 4.512 232.416 4.432 232.256 4.4C231.952 4.352 230.864 4.304 230.864 4.304C230.912 4.64 230.912 4.912 230.912 5.072C230.912 5.136 230.912 5.184 230.912 5.28H226.096V6.336H230.912V7.616H225.056V8.656ZM225.28 11.152H233.952V13.04V13.056C233.952 13.6 233.52 13.824 232.688 13.824C232.224 13.824 231.632 13.76 230.928 13.648L231.808 14.976C232.016 14.992 232.208 14.992 232.4 14.992C233.92 14.992 235.104 14.656 235.104 13.184C235.104 13.072 235.088 12.48 235.088 11.696V11.152H238.144V10.064H235.088C235.088 9.952 235.088 9.76 235.12 9.568C235.408 9.52 235.552 9.392 235.552 9.296C235.552 9.184 235.424 9.088 235.168 9.072C234.816 9.04 233.904 8.96 233.904 8.96C233.952 9.424 233.952 9.776 233.952 9.968V10.064H225.28V11.152ZM227.488 12.192C227.488 12.192 229.008 12.96 230.208 14.144L230.896 13.136C229.76 12.128 228.176 11.376 228.176 11.376L227.488 12.192ZM250.416 15.12H251.632V2.608H254.32C254.16 3.216 253.36 5.376 252.624 6.544C254.24 7.76 254.768 8.832 254.768 10.016C254.768 11.2 254.144 11.776 252.976 11.776C252.672 11.776 252.336 11.744 251.952 11.664L252.72 12.976C252.896 12.992 253.056 13.008 253.216 13.008C255.168 13.008 255.952 11.696 255.952 9.968C255.952 8.112 254.656 6.912 253.952 6.336C254.336 5.648 255.136 3.84 255.68 2.4C255.92 2.368 256 2.304 256 2.24C256 2.192 255.968 2.128 255.92 2.08C255.888 2.048 255.264 1.44 255.136 1.44C255.056 1.44 254.976 1.552 254.88 1.552H250.416V15.12ZM241.888 3.696H249.632V2.624H246.4V2.016C246.4 2.016 246.4 1.632 246.432 1.376C246.784 1.312 246.912 1.184 246.912 1.088C246.912 0.976 246.784 0.863999 246.592 0.848C245.936 0.783999 245.184 0.768 245.184 0.768C245.232 1.216 245.232 1.792 245.232 1.792V2.624H241.888V3.696ZM241.744 8.048H249.872V6.912H247.488C247.872 6.016 248.32 4.848 248.32 4.848C248.704 4.832 248.88 4.736 248.88 4.624C248.88 4.544 248.784 4.448 248.64 4.4C248.112 4.176 247.296 3.984 247.296 3.984C247.296 3.984 246.88 5.744 246.384 6.912H241.744V8.048ZM243.04 4.384C243.04 4.384 243.728 5.408 243.968 6.768L245.072 6.336C244.688 4.928 244.08 4.064 244.08 4.064L243.04 4.384ZM242.864 15.024H244.016V14.304H247.696V14.928H248.864V9.552H242.864V15.024ZM244.016 13.232V10.656H247.696V13.232H244.016ZM2.224 25.392H13.776V23.968H2.224V25.392ZM7.248 36.208H8.752V29.248H13.776V27.856H2.224V29.248H7.248V36.208ZM17.712 33.376H23.216V36H24.608V33.376H26.24V32.096H24.608V24.272H23.056L17.712 32.24V33.376ZM19.264 32.16L22.624 27.072C22.88 26.688 23.248 26.112 23.344 25.824C23.312 26.432 23.232 29.776 23.232 30.016L23.216 32.096L19.264 32.16ZM28.3502 32.544C28.4302 34.96 30.1102 36.192 32.2382 36.192C34.3182 36.192 36.2382 35.056 36.2382 32.72C36.2382 31.136 35.3263 29.856 33.7902 29.648C35.1182 29.408 35.8383 28.224 35.8383 27.04C35.8383 25.04 34.2863 24.08 32.3822 24.08C29.7582 24.08 28.7662 25.936 28.7662 27.328H30.2382C30.3342 25.568 31.7422 25.328 32.3502 25.328C34.0303 25.328 34.4783 26.4 34.4783 27.104C34.4783 28.256 33.4542 29.088 32.3982 29.088C32.3663 29.088 32.3502 29.088 32.3342 29.088L31.1822 29.04V30.4L32.3182 30.368C32.3342 30.368 32.3502 30.368 32.3663 30.368C33.2943 30.368 34.8142 30.864 34.8142 32.544C34.8142 34.688 32.9422 34.896 32.3182 34.896C31.8702 34.896 29.9982 34.848 29.8862 32.544H28.3502ZM39.3885 36H46.7325V34.576L41.1965 34.64C41.2925 34.512 41.5005 34.224 41.7405 33.952C42.4925 33.088 44.0125 31.84 45.1005 30.8C46.3325 29.632 46.7645 28.656 46.7645 27.264C46.7645 25.888 45.7565 24.128 43.2765 24.128C40.7485 24.128 39.5645 25.888 39.3885 28.128L40.8765 28.144C40.9245 26.592 41.8205 25.456 43.2125 25.456C44.4445 25.456 45.2605 26.256 45.2605 27.36C45.2605 28.256 44.8445 29.04 44.0765 29.856C42.9085 31.072 41.3725 32.352 40.4285 33.488C39.9005 34.112 39.5645 34.64 39.3885 34.944V36ZM50.1707 32.608H54.4427V31.232H50.1707V32.608ZM59.7409 29.776C58.7169 30.016 57.5169 31.04 57.5169 32.784C57.5169 34.912 59.1809 36.24 61.5969 36.24C63.7889 36.24 65.4689 34.928 65.4689 32.704C65.4689 31.184 64.4769 30.08 63.1329 29.776C63.9489 29.552 65.0849 28.784 65.0849 27.056C65.0849 25.456 63.7569 24.08 61.5489 24.08C59.2929 24.08 57.9169 25.488 57.9169 27.168C57.9169 28.752 58.9729 29.504 59.7409 29.776ZM59.3249 27.152C59.3249 25.936 60.2369 25.2 61.5009 25.2C62.8609 25.2 63.6609 25.968 63.6609 27.088C63.6609 28.432 62.7329 29.104 61.5329 29.104C60.3809 29.104 59.3249 28.496 59.3249 27.152ZM61.5169 30.384C62.8129 30.384 63.9969 31.168 63.9969 32.736C63.9969 34.096 62.8609 35.008 61.5809 35.008C60.2689 35.008 58.9729 34.272 58.9729 32.768C58.9729 32.752 58.9729 32.752 58.9729 32.736C58.9729 31.184 60.1729 30.384 61.4849 30.384C61.5009 30.384 61.5169 30.384 61.5169 30.384ZM72.1231 36.256C74.5391 36.256 76.1071 34.272 76.1071 30.192C76.1071 26.128 74.5391 24.096 72.1231 24.096C69.6911 24.096 68.1071 26.128 68.1071 30.192C68.1071 34.272 69.6751 36.256 72.1231 36.256ZM72.1231 34.992C70.6351 34.992 69.6591 33.376 69.6591 30.192C69.6591 26.944 70.6351 25.28 72.1231 25.28C73.5311 25.28 74.5551 26.944 74.5551 30.192C74.5551 33.376 73.5311 34.992 72.1231 34.992ZM78.5534 32.544C78.6334 34.96 80.3134 36.192 82.4414 36.192C84.5214 36.192 86.4414 35.056 86.4414 32.72C86.4414 31.136 85.5294 29.856 83.9934 29.648C85.3214 29.408 86.0414 28.224 86.0414 27.04C86.0414 25.04 84.4894 24.08 82.5854 24.08C79.9614 24.08 78.9694 25.936 78.9694 27.328H80.4414C80.5374 25.568 81.9454 25.328 82.5534 25.328C84.2334 25.328 84.6814 26.4 84.6814 27.104C84.6814 28.256 83.6574 29.088 82.6014 29.088C82.5694 29.088 82.5534 29.088 82.5374 29.088L81.3854 29.04V30.4L82.5214 30.368C82.5374 30.368 82.5534 30.368 82.5694 30.368C83.4974 30.368 85.0174 30.864 85.0174 32.544C85.0174 34.688 83.1454 34.896 82.5214 34.896C82.0734 34.896 80.2014 34.848 80.0894 32.544H78.5534ZM97.0956 26.832C96.9996 25.296 95.6236 24.16 93.8156 24.16C90.6156 24.16 89.5116 27.312 89.5116 30.576C89.5116 33.904 90.6796 36.224 93.5116 36.224C96.2636 36.224 97.3196 34.08 97.3356 32.192C97.3356 30.224 96.1356 28.336 93.8156 28.336C92.6956 28.336 91.4956 28.928 90.9676 29.904C91.0316 26.848 92.2956 25.376 93.8156 25.376C94.8236 25.376 95.5116 25.872 95.6236 26.832H97.0956ZM93.4636 34.976C91.7516 34.976 91.1116 33.248 91.1116 32.032C91.1116 30.624 92.2796 29.536 93.6396 29.536C95.2876 29.536 95.8316 31.136 95.8316 32.288C95.8156 33.6 95.1116 34.976 93.4636 34.976ZM125.19 37.008C125.382 37.024 125.59 37.04 125.766 37.04C126.934 37.04 127.846 36.656 127.846 35.328C127.846 35.296 127.846 35.264 127.846 35.232C127.83 34.944 127.814 33.952 127.814 33.216V32.8H129.702V33.696H130.79V30.272H131.766V29.168H130.79V26.64H128.294C128.758 25.936 129.334 24.928 129.334 24.928C129.59 24.848 129.67 24.8 129.67 24.736C129.67 24.608 129.046 24.096 128.742 23.92C128.726 23.904 128.694 23.904 128.678 23.904C128.566 23.904 128.438 24.032 128.438 24.032H126.614C126.726 23.792 126.822 23.568 126.918 23.392C127.27 23.376 127.398 23.28 127.398 23.2C127.398 23.12 127.318 23.04 127.206 23.008C126.726 22.832 125.974 22.672 125.974 22.672C125.974 22.672 125.526 24.768 123.51 26.56V25.696H121.174V24.848H123.782V23.888H121.174V23.792C121.174 23.792 121.19 23.456 121.206 23.28C121.526 23.232 121.654 23.136 121.654 23.056C121.654 22.96 121.542 22.88 121.35 22.848C120.998 22.8 120.086 22.752 120.086 22.752C120.118 23.184 120.118 23.744 120.118 23.744V23.888H117.494V24.848H120.118V25.696H117.686V26.64H120.118V27.504H117.206V28.464H124.038V27.504H121.174V26.64H123.43L123.302 26.736L124.374 27.216L124.662 26.928V27.664H126.662V29.168H123.798V30.272H126.662V31.792H124.47V32.8H126.662V35.152C126.662 35.76 126.342 35.92 125.766 35.92C125.414 35.92 124.982 35.856 124.47 35.792L125.19 37.008ZM118.15 37.2H119.206V34.096H122.198V35.248C122.198 35.792 121.798 35.936 121.334 35.936C120.934 35.936 120.486 35.824 120.182 35.792L120.854 37.024C120.998 37.04 121.142 37.04 121.27 37.04C122.454 37.04 123.254 36.688 123.254 35.392C123.254 35.36 123.254 35.328 123.254 35.296C123.254 35.008 123.238 34.656 123.238 33.92C123.238 30.72 123.222 29.216 123.222 29.216H118.15V37.2ZM124.918 26.64C125.462 26.032 125.846 25.44 126.15 24.912H128.134C128.134 24.912 127.686 25.84 127.094 26.64H124.918ZM127.814 29.168V27.664H129.702V29.168H127.814ZM127.814 31.792V30.272H129.702V31.792H127.814ZM119.206 31.152V30.176H122.198V31.152H119.206ZM119.206 33.152V32.096H122.198V33.152H119.206ZM138.742 25.312C138.742 25.312 139.59 26.672 139.814 27.504L140.838 27.152C140.518 26.176 139.75 24.928 139.75 24.928L138.742 25.312ZM138.246 35.168H139.334V33.664H143.942V34.688H145.03V31.04C145.03 31.04 145.03 30.48 145.062 30.128C145.35 30.08 145.478 29.968 145.478 29.872C145.478 29.776 145.35 29.68 145.174 29.664C144.646 29.616 143.894 29.6 143.894 29.6C143.942 30.112 143.942 30.896 143.942 30.896V32.672H142.182V28.672H146.166V27.632H143.446C143.846 26.88 144.39 25.632 144.39 25.632C144.662 25.6 144.822 25.52 144.822 25.424C144.822 25.344 144.726 25.248 144.47 25.168C144.214 25.088 143.414 24.912 143.414 24.912C143.414 24.912 143.174 25.92 142.358 27.632H137.222V28.672H141.03V32.672H139.334V31.04C139.334 31.04 139.334 30.48 139.366 30.128C139.654 30.08 139.766 29.968 139.766 29.872C139.766 29.776 139.654 29.68 139.462 29.664C138.95 29.616 138.198 29.6 138.198 29.6C138.246 30.144 138.246 30.896 138.246 30.896V35.168ZM135.414 37.088H136.614V24.496H146.678V34.912C146.678 35.488 146.182 35.696 145.302 35.696C144.742 35.696 144.006 35.6 143.158 35.472L143.99 36.8C144.406 36.832 144.822 36.848 145.222 36.848C146.662 36.848 147.894 36.56 147.894 35.024C147.894 35.008 147.894 34.992 147.894 34.976L147.862 32.816V23.408H135.414V37.088ZM155.67 31.024H156.742V30.48H162.486V30.832H163.59V23.36H155.67V31.024ZM152.742 33.68H153.942V32.736H158.294V37.152H159.462V32.736H165.67V31.712H153.942V25.648C153.942 25.648 153.942 25.168 153.974 24.944C154.294 24.88 154.438 24.768 154.438 24.656C154.438 24.576 154.342 24.496 154.166 24.464C153.83 24.4 152.694 24.336 152.694 24.336C152.71 24.784 152.742 25.616 152.742 25.616V33.68ZM160.774 33.968C161.094 34.288 163.03 36.064 164.758 36.848L165.99 35.904C163.798 35.2 161.99 33.632 161.542 33.232L160.774 33.968ZM152.806 37.008C154.454 36.352 155.766 35.232 156.646 34.272C156.758 34.336 156.886 34.352 156.998 34.352C157.126 34.352 157.238 34.32 157.238 34.224C157.238 34.144 157.174 34.048 157.03 33.92C156.838 33.744 156.086 33.28 156.006 33.216C155.75 33.552 154.406 35.28 151.606 36.192L152.806 37.008ZM156.742 25.424V24.384H162.486V25.424H156.742ZM156.742 27.472V26.384H162.486V27.472H156.742ZM156.742 29.536V28.432H162.486V29.536H156.742ZM172.934 32.672H183.078V31.568H180.406V27.936H182.582V26.832H175.654V25.136C177.654 24.96 180.31 24.464 181.43 24.144C181.606 24.304 181.766 24.384 181.878 24.384C181.974 24.384 182.038 24.336 182.038 24.24C182.038 24.176 182.022 24.112 181.958 24.016C181.718 23.68 181.062 22.928 181.062 22.928C180.006 23.392 177.046 23.968 175.126 24.112C174.838 24.048 174.438 24 174.438 24V31.568H172.934V32.672ZM169.782 23.856C169.782 23.856 171.494 24.944 172.342 26.064L173.318 25.088C172.406 24.096 170.71 23.056 170.71 23.056L169.782 23.856ZM178.47 33.952C178.854 34.464 180.598 36.224 182.134 37.008L183.478 36.144C181.286 35.296 179.734 33.76 179.398 33.312L178.47 33.952ZM168.774 27.728C168.774 27.728 170.758 28.704 171.67 29.76L172.518 28.656C171.606 27.824 169.622 26.784 169.622 26.784L168.774 27.728ZM172.838 37.168C174.886 36.064 176.326 34.224 176.326 34.224C176.406 34.24 176.486 34.256 176.566 34.256C176.726 34.256 176.854 34.208 176.854 34.128C176.854 34 176.806 33.968 175.494 33.312C175.318 33.664 174.006 35.424 171.414 36.432L172.838 37.168ZM171.718 30.784C171.222 32.08 170.15 34.672 168.918 36.08C168.918 36.08 169.606 36.592 170.246 36.896C170.294 36.912 170.342 36.928 170.374 36.928C170.47 36.928 170.502 36.864 170.502 36.768C170.502 36.688 170.47 36.576 170.406 36.48C171.382 34.752 172.118 33.12 172.614 31.92L171.718 30.784ZM175.654 31.568V27.936H179.222V31.568H175.654ZM200.934 29.616C199.926 28.672 198.294 26.448 197.462 23.392L196.342 23.68C197.238 26.688 198.39 28.8 199.526 30.24L200.934 29.616ZM192.246 30.576C193.398 28.896 194.438 26.32 194.838 24.336C194.87 24.336 194.886 24.336 194.918 24.336C195.19 24.336 195.382 24.24 195.382 24.128C195.382 24.016 195.286 23.856 193.766 23.504C193.366 26.272 192.038 28.976 190.87 30.208L192.246 30.576ZM200.374 36.192C199.542 33.824 197.558 30.688 197.558 30.688C197.238 30.816 196.47 31.072 196.47 31.072C196.966 31.76 197.59 32.864 198.134 34.048C197.286 34.256 195.734 34.56 194.198 34.784C195.078 32.608 196.054 29.104 196.102 28.912C196.486 28.88 196.694 28.752 196.694 28.624C196.694 28.528 196.566 28.416 196.326 28.368C196.006 28.304 194.87 28.144 194.87 28.144C194.822 28.8 193.926 32.528 192.886 34.944C192.326 35.008 191.782 35.04 191.318 35.056C191.318 35.056 191.606 35.92 191.814 36.448C191.894 36.656 192.006 36.768 192.102 36.768C192.23 36.768 192.326 36.592 192.326 36.24C192.326 36.224 192.326 36.208 192.326 36.192C195.238 35.824 197.558 35.296 198.55 35.04C198.806 35.664 199.014 36.288 199.142 36.816L200.374 36.192ZM188.55 37.088H189.75V34.032C189.75 32.8 189.654 29.152 189.606 27.856C189.814 28.304 190.102 28.912 190.502 29.616L191.542 29.168C190.758 28.256 190.214 27.392 189.894 26.848H191.67V25.744H189.734V24.24C189.734 24.24 189.734 23.712 189.766 23.344C190.07 23.28 190.214 23.152 190.214 23.056C190.214 22.96 190.102 22.864 189.878 22.848C189.334 22.8 188.518 22.752 188.518 22.752C188.55 23.376 188.566 24.112 188.566 24.112V25.744H186.358V26.848H188.358C188.134 27.648 187.27 30.432 185.542 32.24L186.774 32.64C187.686 31.424 188.358 29.52 188.662 28.56C188.614 29.984 188.55 32.448 188.55 33.952V37.088ZM203.462 25.968H217.414V24.8H210.982V24.336C210.982 24.336 210.982 23.824 210.998 23.456C211.35 23.376 211.542 23.248 211.542 23.12C211.542 22.896 210.854 22.832 209.702 22.784C209.75 23.472 209.75 24.224 209.75 24.224V24.8H203.462V25.968ZM205.062 35.376H206.326V29.072H209.75V37.024H210.982V29.072H214.662C214.662 29.072 214.662 30.672 214.662 31.92C214.662 32.544 214.662 33.072 214.646 33.264C214.63 33.824 214.358 34.08 213.446 34.08C213.078 34.08 212.598 34.032 211.974 33.952L212.886 35.28C213.094 35.296 213.302 35.296 213.51 35.296C214.726 35.296 215.91 35.008 215.91 33.44C215.91 33.408 215.91 33.36 215.91 33.328C215.91 33.104 215.878 32.256 215.878 31.904V27.984H210.982V27.856C210.982 27.856 210.998 27.28 211.014 26.976C211.366 26.896 211.542 26.768 211.542 26.656C211.542 26.336 209.862 26.288 209.702 26.288C209.75 26.848 209.75 27.696 209.75 27.696V27.984H205.062V35.376ZM221.654 32.96H222.886V31.792H226.918V37.04H228.182V31.792H232.374V32.848H233.638V25.728H228.166V24.24C228.166 24.24 228.182 23.744 228.198 23.44C228.454 23.408 228.694 23.248 228.694 23.12C228.694 22.848 227.174 22.832 226.87 22.832C226.918 23.488 226.918 24.096 226.918 24.096V25.728H221.654V32.96ZM228.166 30.608V26.88H232.374V30.608H228.166ZM222.886 30.608V26.88H226.918V30.608H222.886ZM241.638 34.096C243.478 33.088 244.918 31.776 246.022 30.512C247.11 31.408 248.182 32.464 248.95 33.568L250.022 32.592C248.998 31.44 247.878 30.448 246.79 29.584C247.766 28.32 248.374 27.184 248.662 26.592C248.758 26.608 248.838 26.624 248.918 26.624C249.158 26.624 249.254 26.528 249.254 26.432C249.254 26.368 249.206 26.288 249.11 26.224C248.774 26 247.75 25.536 247.75 25.536C247.542 26.096 246.95 27.408 245.846 28.88C244.566 27.936 243.334 27.2 242.374 26.656L241.446 27.456C242.134 27.808 243.59 28.64 245.11 29.776C243.958 31.088 242.422 32.384 240.39 33.312L241.638 34.096ZM238.774 36.944H240.006V36.144H251.574V34.96H240.006L239.974 24.912H251.174L251.19 23.76H238.774V36.944ZM255.958 37.12H257.142V36.032H266.886V37.008H268.086V27.12H263.83V25.04H268.854V23.856H255.19V25.04H259.718C259.734 25.6 259.75 26.464 259.75 27.12H255.958V37.12ZM260.934 27.12C260.934 26.384 260.95 25.328 260.95 25.04H262.63V27.12H260.934ZM257.142 34.864V32.4L258.422 32.976C260.326 31.68 260.886 29.936 260.918 28.224H262.63V31.312C262.63 32.448 263.494 32.544 264.31 32.544C265.446 32.544 266.47 32.544 266.694 30.48L265.606 29.36C265.558 31.104 265.382 31.44 264.454 31.44C263.958 31.44 263.83 31.328 263.83 31.056V28.224H266.886V34.864H257.142ZM257.142 28.224H259.75C259.702 29.6 259.286 31.152 257.142 32.16V28.224ZM277.03 37.104C279.718 35.92 280.886 34.112 281.206 31.568H284.07V32.432H285.206V28.032H286.502V26.944H285.206V23.648H277.334V24.72H280.102V26.944H276.406V28.032H280.102C280.102 28.96 280.102 29.504 280.102 29.696C280.102 29.696 280.102 30.016 280.086 30.448H277.046V31.568H279.974C279.654 33.744 278.566 35.408 275.702 36.288L277.03 37.104ZM274.134 37.136H275.334L275.414 27.824C275.414 27.824 275.43 27.408 275.462 27.12C275.75 27.024 275.926 26.896 275.926 26.784C275.926 26.688 275.814 26.608 275.558 26.576C275.526 26.576 275.366 26.56 275.158 26.544C275.862 25.344 276.358 24.24 276.662 23.52C276.71 23.536 276.774 23.536 276.822 23.536C277.046 23.536 277.222 23.44 277.222 23.312C277.222 23.248 277.142 23.168 276.966 23.104C276.774 23.04 275.766 22.704 275.59 22.672C274.822 25.808 272.262 28.912 271.574 29.408L272.758 29.92C273.318 29.28 273.83 28.624 274.278 27.952C274.246 28.88 274.214 30.272 274.198 31.264L274.134 37.136ZM281.302 26.944V24.72H284.07V26.944H281.302ZM281.286 30.448C281.302 30.048 281.302 29.936 281.302 29.744V28.032H284.07V30.448H281.286ZM295.414 28.688H296.374V28.144H300.662V28.592H301.654V23.28H295.414V28.688ZM294.246 36.256C296.63 35.12 298.23 32.96 298.87 31.968H300.038C299.51 33.136 298.086 35.664 295.238 36.56L296.55 37.184C297.27 36.832 297.91 36.384 298.454 35.904L298.982 36.896C299.286 36.928 299.59 36.96 299.862 36.96C301.03 36.96 302.918 36.736 302.918 31.104L297.094 31.12C297.382 30.72 297.606 30.384 297.75 30.128H303.398V29.088H293.862V30.128H296.614C296.038 31.072 294.63 32.896 291.974 33.888L293.158 34.576C294.55 33.824 295.622 32.848 296.406 31.968H297.686C297.03 32.944 295.574 34.72 293.046 35.536L294.246 36.256ZM291.398 32.048C290.614 32.4 289.782 32.736 289.014 32.96C289.014 32.96 289.51 33.808 289.798 34.176C289.894 34.288 289.99 34.352 290.054 34.352C290.15 34.352 290.214 34.256 290.214 34.064C290.214 34 290.214 33.92 290.198 33.84C292.278 32.912 293.446 32.24 294.534 31.584L294.422 30.48C294.15 30.656 293.446 31.056 292.566 31.504V27.632H294.454V26.544H292.566V24.336C292.566 24.336 292.566 23.808 292.598 23.6C292.934 23.52 293.078 23.408 293.078 23.312C293.078 23.216 292.966 23.136 292.79 23.12C292.23 23.024 291.35 23.024 291.35 23.024C291.398 23.44 291.398 24.08 291.398 24.08V26.544H289.398V27.632H291.398V32.048ZM296.374 25.216V24.24H300.662V25.216H296.374ZM296.374 27.168V26.16H300.662V27.168H296.374ZM301.798 31.968C301.654 35.776 300.502 35.808 299.83 35.808C299.462 35.808 299.078 35.728 298.726 35.648C300.086 34.336 300.854 32.768 301.206 31.968H301.798ZM306.166 32.544C306.246 34.96 307.926 36.192 310.054 36.192C312.134 36.192 314.054 35.056 314.054 32.72C314.054 31.136 313.142 29.856 311.606 29.648C312.934 29.408 313.654 28.224 313.654 27.04C313.654 25.04 312.102 24.08 310.198 24.08C307.574 24.08 306.582 25.936 306.582 27.328H308.054C308.15 25.568 309.558 25.328 310.166 25.328C311.846 25.328 312.294 26.4 312.294 27.104C312.294 28.256 311.27 29.088 310.214 29.088C310.182 29.088 310.166 29.088 310.15 29.088L308.998 29.04V30.4L310.134 30.368C310.15 30.368 310.166 30.368 310.182 30.368C311.11 30.368 312.63 30.864 312.63 32.544C312.63 34.688 310.758 34.896 310.134 34.896C309.686 34.896 307.814 34.848 307.702 32.544H306.166ZM317.38 32.608H321.652V31.232H317.38V32.608ZM328.326 36H329.878V24.24H328.806C328.598 24.816 327.926 25.904 325.974 26.048V26.976H328.326V36Z" fill="black"/>
</svg>
