<svg width="348" height="38" viewBox="0 0 348 38" fill="none" xmlns="http://www.w3.org/2000/svg">
<path d="M8.768 15.008L8.048 13.792C8.56 13.856 8.992 13.92 9.344 13.92C9.92 13.92 10.24 13.76 10.24 13.152V10.8H8.048V9.792H10.24V8.272H7.376V7.168H10.24V5.664H8.24V4.928L7.952 5.216L6.88 4.736L7.008 4.64H4.752V5.504H7.616V6.464H0.784V5.504H3.696V4.64H1.264V3.696H3.696V2.848H1.072V1.888H3.696V1.744C3.696 1.744 3.696 1.184 3.664 0.751999C3.664 0.751999 4.576 0.799999 4.928 0.848C5.12 0.879999 5.232 0.959999 5.232 1.056C5.232 1.136 5.104 1.232 4.784 1.28C4.768 1.456 4.752 1.792 4.752 1.792V1.888H7.36V2.848H4.752V3.696H7.088V4.56C9.104 2.768 9.552 0.671999 9.552 0.671999C9.552 0.671999 10.304 0.832 10.784 1.008C10.896 1.04 10.976 1.12 10.976 1.2C10.976 1.28 10.848 1.376 10.496 1.392C10.4 1.568 10.304 1.792 10.192 2.032H12.016C12.016 2.032 12.144 1.904 12.256 1.904C12.272 1.904 12.304 1.904 12.32 1.92C12.624 2.096 13.248 2.608 13.248 2.736C13.248 2.8 13.168 2.848 12.912 2.928C12.912 2.928 12.336 3.936 11.872 4.64H14.368V7.168H15.344V8.272H14.368V11.696H13.28V10.8H11.392V11.216C11.392 11.952 11.408 12.944 11.424 13.232C11.424 13.264 11.424 13.296 11.424 13.328C11.424 14.656 10.512 15.04 9.344 15.04C9.168 15.04 8.96 15.024 8.768 15.008ZM1.728 15.2V7.216H6.8C6.8 7.216 6.816 8.72 6.816 11.92C6.816 12.656 6.832 13.008 6.832 13.296C6.832 13.328 6.832 13.36 6.832 13.392C6.832 14.688 6.032 15.04 4.848 15.04C4.72 15.04 4.576 15.04 4.432 15.024L3.76 13.792C4.064 13.824 4.512 13.936 4.912 13.936C5.376 13.936 5.776 13.792 5.776 13.248V12.096H2.784V15.2H1.728ZM8.496 4.64H10.672C11.264 3.84 11.712 2.912 11.712 2.912H9.728C9.424 3.44 9.04 4.032 8.496 4.64ZM11.392 7.168H13.28V5.664H11.392V7.168ZM11.392 9.792H13.28V8.272H11.392V9.792ZM2.784 9.152H5.776V8.176H2.784V9.152ZM2.784 11.152H5.776V10.096H2.784V11.152ZM22.32 3.312L23.328 2.928C23.328 2.928 24.096 4.176 24.416 5.152L23.392 5.504C23.168 4.672 22.32 3.312 22.32 3.312ZM21.824 13.168V8.896C21.824 8.896 21.824 8.144 21.776 7.6C21.776 7.6 22.528 7.616 23.04 7.664C23.232 7.68 23.344 7.776 23.344 7.872C23.344 7.968 23.232 8.08 22.944 8.128C22.912 8.48 22.912 9.04 22.912 9.04V10.672H24.608V6.672H20.8V5.632H25.936C26.752 3.92 26.992 2.912 26.992 2.912C26.992 2.912 27.792 3.088 28.048 3.168C28.304 3.248 28.4 3.344 28.4 3.424C28.4 3.52 28.24 3.6 27.968 3.632C27.968 3.632 27.424 4.88 27.024 5.632H29.744V6.672H25.76V10.672H27.52V8.896C27.52 8.896 27.52 8.112 27.472 7.6C27.472 7.6 28.224 7.616 28.752 7.664C28.928 7.68 29.056 7.776 29.056 7.872C29.056 7.968 28.928 8.08 28.64 8.128C28.608 8.48 28.608 9.04 28.608 9.04V12.688H27.52V11.664H22.912V13.168H21.824ZM18.992 15.088V1.408H31.44V10.816L31.472 12.976C31.472 12.992 31.472 13.008 31.472 13.024C31.472 14.56 30.24 14.848 28.8 14.848C28.4 14.848 27.984 14.832 27.568 14.8L26.736 13.472C27.584 13.6 28.32 13.696 28.88 13.696C29.76 13.696 30.256 13.488 30.256 12.912V2.496H20.192V15.088H18.992ZM39.248 9.024V1.36H47.168V8.832H46.064V8.48H40.32V9.024H39.248ZM36.32 11.68V3.616C36.32 3.616 36.288 2.784 36.272 2.336C36.272 2.336 37.408 2.4 37.744 2.464C37.92 2.496 38.016 2.576 38.016 2.656C38.016 2.768 37.872 2.88 37.552 2.944C37.52 3.168 37.52 3.648 37.52 3.648V9.712H49.248V10.736H43.04V15.152H41.872V10.736H37.52V11.68H36.32ZM44.352 11.968L45.12 11.232C45.568 11.632 47.376 13.2 49.568 13.904L48.336 14.848C46.608 14.064 44.672 12.288 44.352 11.968ZM36.384 15.008L35.184 14.192C37.984 13.28 39.328 11.552 39.584 11.216C39.664 11.28 40.416 11.744 40.608 11.92C40.752 12.048 40.816 12.144 40.816 12.224C40.816 12.32 40.704 12.352 40.576 12.352C40.464 12.352 40.336 12.336 40.224 12.272C39.344 13.232 38.032 14.352 36.384 15.008ZM40.32 3.424H46.064V2.384H40.32V3.424ZM40.32 5.472H46.064V4.384H40.32V5.472ZM40.32 7.536H46.064V6.432H40.32V7.536ZM53.376 4.688V3.472H59.024V2.08C59.024 2.08 59.008 1.28 58.976 0.832C60.656 0.895999 60.96 1.008 60.96 1.152C60.96 1.296 60.688 1.472 60.384 1.504C60.352 1.76 60.352 2.304 60.352 2.304V3.472H65.92V4.688H53.376ZM52.736 14.24V12.992H60.224C61.472 9.792 62.016 5.904 62.048 5.568C62.208 5.584 63.024 5.712 63.68 5.856C63.936 5.92 64.032 6.016 64.032 6.112C64.032 6.272 63.792 6.416 63.392 6.416C63.328 6.8 62.608 10.096 61.568 12.992H66.592V14.24H52.736ZM58.288 11.872L56.912 12.144C56.576 9.184 55.488 6.32 55.376 6.016L56.688 5.744C56.784 6 57.92 8.992 58.288 11.872ZM73.712 10.672V9.568H75.216V2C75.216 2 75.616 2.048 75.904 2.112C77.824 1.968 80.784 1.392 81.84 0.927999C81.84 0.927999 82.496 1.68 82.736 2.016C82.8 2.112 82.816 2.176 82.816 2.24C82.816 2.336 82.752 2.384 82.656 2.384C82.544 2.384 82.384 2.304 82.208 2.144C81.088 2.464 78.432 2.96 76.432 3.136V4.832H83.36V5.936H81.184V9.568H83.856V10.672H73.712ZM70.56 1.856L71.488 1.056C71.488 1.056 73.184 2.096 74.096 3.088L73.12 4.064C72.272 2.944 70.56 1.856 70.56 1.856ZM79.248 11.952L80.176 11.312C80.512 11.76 82.064 13.296 84.256 14.144L82.912 15.008C81.376 14.224 79.632 12.464 79.248 11.952ZM69.552 5.728L70.4 4.784C70.4 4.784 72.384 5.824 73.296 6.656L72.448 7.76C71.536 6.704 69.552 5.728 69.552 5.728ZM73.616 15.168L72.192 14.432C74.784 13.424 76.096 11.664 76.272 11.312C77.584 11.968 77.632 12 77.632 12.128C77.632 12.208 77.504 12.256 77.344 12.256C77.264 12.256 77.184 12.24 77.104 12.224C77.104 12.224 75.664 14.064 73.616 15.168ZM72.496 8.784L73.392 9.92C72.896 11.12 72.16 12.752 71.184 14.48C71.248 14.576 71.28 14.688 71.28 14.768C71.28 14.864 71.248 14.928 71.152 14.928C71.12 14.928 71.072 14.912 71.024 14.896C70.384 14.592 69.696 14.08 69.696 14.08C70.928 12.672 72 10.08 72.496 8.784ZM76.432 9.568H80V5.936H76.432V9.568ZM101.712 7.616L100.304 8.24C99.168 6.8 98.016 4.688 97.12 1.68L98.24 1.392C99.072 4.448 100.704 6.672 101.712 7.616ZM93.024 8.576L91.648 8.208C92.816 6.976 94.144 4.272 94.544 1.504C96.064 1.856 96.16 2.016 96.16 2.128C96.16 2.24 95.968 2.336 95.696 2.336C95.664 2.336 95.648 2.336 95.616 2.336C95.216 4.32 94.176 6.896 93.024 8.576ZM101.152 14.192L99.92 14.816C99.792 14.288 99.584 13.664 99.328 13.04C98.336 13.296 96.016 13.824 93.104 14.192C93.104 14.208 93.104 14.224 93.104 14.24C93.104 14.592 93.008 14.768 92.88 14.768C92.784 14.768 92.672 14.656 92.592 14.448C92.384 13.92 92.096 13.056 92.096 13.056C92.56 13.04 93.104 13.008 93.664 12.944C94.704 10.528 95.6 6.8 95.648 6.144C95.648 6.144 96.784 6.304 97.104 6.368C97.344 6.416 97.472 6.528 97.472 6.624C97.472 6.752 97.264 6.88 96.88 6.912C96.832 7.104 95.856 10.608 94.976 12.784C96.512 12.56 98.064 12.256 98.912 12.048C98.368 10.864 97.744 9.76 97.248 9.072C97.248 9.072 98.016 8.816 98.336 8.688C98.336 8.688 100.32 11.824 101.152 14.192ZM89.328 15.088V11.952C89.328 10.448 89.392 7.984 89.44 6.56C89.136 7.52 88.464 9.424 87.552 10.64L86.32 10.24C88.048 8.432 88.912 5.648 89.136 4.848H87.136V3.744H89.344V2.112C89.344 2.112 89.328 1.376 89.296 0.751999C89.296 0.751999 90.112 0.799999 90.656 0.848C90.88 0.863999 90.992 0.959999 90.992 1.056C90.992 1.152 90.848 1.28 90.544 1.344C90.512 1.712 90.512 2.24 90.512 2.24V3.744H92.448V4.848H90.672C90.992 5.392 91.536 6.256 92.32 7.168L91.28 7.616C90.88 6.912 90.592 6.304 90.384 5.856C90.432 7.152 90.528 10.8 90.528 12.032V15.088H89.328ZM105.136 15.12V5.12H108.928C108.928 4.464 108.912 3.6 108.896 3.04H104.368V1.856H118.032V3.04H113.008V5.12H117.264V15.008H116.064V14.032H106.32V15.12H105.136ZM110.112 5.12H111.808V3.04H110.128C110.128 3.328 110.112 4.384 110.112 5.12ZM106.32 12.864H116.064V6.224H113.008V9.056C113.008 9.328 113.136 9.44 113.632 9.44C114.56 9.44 114.736 9.104 114.784 7.36L115.872 8.48C115.648 10.544 114.624 10.544 113.488 10.544C112.672 10.544 111.808 10.448 111.808 9.312V6.224H110.096C110.064 7.936 109.504 9.68 107.6 10.976L106.32 10.4V12.864ZM106.32 6.224V10.16C108.464 9.152 108.88 7.6 108.928 6.224H106.32ZM121.744 3.056V1.968H127.808V1.424C127.808 1.424 127.792 0.959999 127.76 0.704C129.392 0.704 129.488 0.927999 129.488 1.024C129.488 1.136 129.344 1.248 128.976 1.312C128.96 1.44 128.944 1.68 128.944 1.68V1.968H135.072V3.056H121.744ZM124.512 7.28V3.984H132.272V7.264H131.2V6.912H125.616V7.28H124.512ZM122.416 15.168V7.888H134.48L134.496 11.744C134.496 12.016 134.528 12.8 134.528 13.072C134.528 14.72 133.312 14.96 132.064 14.96C131.872 14.96 131.696 14.944 131.504 14.944L130.64 13.632C131.344 13.728 131.856 13.76 132.256 13.76C133.264 13.76 133.344 13.472 133.344 12.992V8.912H123.6V15.168H122.416ZM125.344 13.824V9.84H131.504V13.232H130.48V12.752H126.432V13.824H125.344ZM125.616 5.968H131.2V4.88H125.6L125.616 5.968ZM126.432 11.84H130.48V10.672H126.416L126.432 11.84ZM146.128 4.24L144.848 3.92C146.144 2.736 146.816 1.072 146.896 0.591999C146.896 0.591999 147.76 0.848 148.064 0.959999C148.176 0.992 148.272 1.088 148.272 1.168C148.272 1.264 148.16 1.344 147.824 1.376C147.76 1.52 147.68 1.696 147.584 1.888H152.432V2.864H149.312C149.52 3.232 149.824 3.776 150.048 4.256L148.992 4.656C148.752 3.856 148.336 3.088 148.208 2.864H147.056C146.8 3.328 146.48 3.808 146.128 4.24ZM139.712 4.864L138.336 4.448C140.032 3.2 141.216 1.152 141.328 0.655999C141.328 0.655999 142.176 0.912 142.48 1.04C142.56 1.072 142.624 1.136 142.624 1.2C142.624 1.328 142.464 1.456 142.048 1.472C141.984 1.584 141.904 1.728 141.808 1.888H145.568V2.864H143.04C143.248 3.232 143.568 3.808 143.776 4.304L142.704 4.672C142.496 3.904 142.096 3.12 141.968 2.864H141.232C140.784 3.552 140.24 4.32 139.712 4.864ZM139.056 8.656V7.616H144.912V6.336H140.096V5.28H144.912C144.912 5.184 144.912 5.136 144.912 5.072C144.912 4.912 144.912 4.64 144.864 4.304C144.864 4.304 145.952 4.352 146.256 4.4C146.416 4.432 146.496 4.512 146.496 4.592C146.496 4.688 146.368 4.816 146.096 4.864C146.064 5.008 146.064 5.184 146.064 5.28H151.248V6.336H146.064V7.616H152.208V8.656H139.056ZM139.28 11.152V10.064H147.952V9.968C147.952 9.776 147.952 9.424 147.904 8.96C147.904 8.96 148.816 9.04 149.168 9.072C149.424 9.088 149.552 9.184 149.552 9.296C149.552 9.392 149.408 9.52 149.12 9.568C149.088 9.76 149.088 9.952 149.088 10.064H152.144V11.152H149.088V11.696C149.088 12.48 149.104 13.072 149.104 13.184C149.104 14.656 147.92 14.992 146.4 14.992C146.208 14.992 146.016 14.992 145.808 14.976L144.928 13.648C145.632 13.76 146.224 13.824 146.688 13.824C147.52 13.824 147.952 13.6 147.952 13.056V13.04V11.152H139.28ZM141.488 12.192L142.176 11.376C142.176 11.376 143.76 12.128 144.896 13.136L144.208 14.144C143.008 12.96 141.488 12.192 141.488 12.192ZM156.272 7.248V3.68H159.296C158.752 2.368 157.792 1.392 157.792 1.392L158.88 0.959999C158.88 0.959999 159.888 1.984 160.416 3.248C160.416 3.264 159.824 3.536 159.52 3.68H162.496C162.16 2.192 161.392 1.136 161.392 1.136L162.496 0.863999C162.496 0.863999 163.36 1.92 163.68 3.328C163.68 3.344 163.072 3.552 162.736 3.68H164.912C165.28 3.136 166 2.016 166.336 0.863999C166.336 0.863999 167.248 1.072 167.744 1.296C167.888 1.36 167.968 1.44 167.968 1.52C167.968 1.616 167.808 1.712 167.456 1.712C167.44 1.712 167.424 1.712 167.408 1.712C167.12 2.336 166.544 3.152 166.176 3.664H169.264V7.28H167.968V4.784L157.536 4.768V7.248H156.272ZM155.68 10.624V9.44H162.672C162.416 9.072 162.016 8.72 161.408 8.4L162.496 7.936C162.704 8.048 162.896 8.176 163.056 8.304C163.632 7.952 164.336 7.472 164.8 7.04L158.72 7.088V6H165.84C165.92 6 165.984 5.904 166.08 5.904C166.208 5.904 166.8 6.464 166.896 6.56C166.96 6.656 166.992 6.72 166.992 6.768C166.992 6.896 166.848 6.944 166.624 6.976C166.304 7.28 164.592 8.528 163.744 9.024C163.84 9.168 163.92 9.296 163.984 9.44H169.92L169.904 10.624H164.336C164.384 10.96 164.4 11.28 164.4 11.584C164.4 11.6 164.4 11.616 164.4 11.632C164.4 14.32 162.576 14.96 161.264 14.96C160.912 14.96 160.592 14.912 160.352 14.848L159.488 13.248C160.016 13.44 160.736 13.648 161.376 13.648C162.32 13.648 163.152 13.216 163.152 11.632C163.152 11.616 163.152 11.616 163.152 11.6C163.152 11.28 163.152 10.96 163.104 10.624H155.68ZM177.936 3.68V2.624H181.552V1.52C181.552 1.52 181.536 1.072 181.504 0.751999C182.96 0.815999 183.28 0.912 183.28 1.072C183.28 1.168 183.12 1.296 182.768 1.36C182.752 1.536 182.736 1.776 182.736 1.776V2.624H186.896V3.68H177.936ZM182.864 4.656L183.792 4.048C183.792 4.048 184.784 5.664 186.96 6.96L185.808 7.744C184.176 6.528 182.864 4.656 182.864 4.656ZM178.72 7.952L177.584 7.36C179.616 5.872 180.352 4.032 180.352 4.032C180.352 4.032 181.12 4.416 181.392 4.592C181.584 4.72 181.68 4.832 181.68 4.912C181.68 4.992 181.568 5.056 181.392 5.056C181.312 5.056 181.216 5.04 181.12 5.024C181.12 5.024 180.208 6.704 178.72 7.952ZM178.128 15.04L176.656 14.192C178.672 13.664 180.32 12.576 181.52 11.136C180.784 10.112 180.128 8.896 179.616 7.456L180.688 6.912C181.04 8.192 181.552 9.296 182.208 10.208C182.864 9.2 183.328 8.08 183.584 6.88C184.672 7.28 185.072 7.44 185.072 7.584C185.072 7.712 184.912 7.808 184.688 7.808C184.656 7.808 184.624 7.808 184.592 7.808C184.176 9.024 183.616 10.128 182.928 11.12C184.16 12.464 185.744 13.376 187.488 13.936L186.112 14.88C184.8 14.336 183.44 13.408 182.224 12.032C181.088 13.392 179.68 14.448 178.128 15.04ZM175.056 15.136V12.448C175.056 11.376 175.12 8.464 175.168 6.736C174.832 7.808 174.272 9.456 173.568 10.592L172.384 10.32C173.984 8.272 174.752 5.728 174.976 4.832H173.152V3.76H175.088V1.776C175.088 1.776 175.088 1.12 175.04 0.783999C176.128 0.832 176.64 0.912 176.64 1.12C176.64 1.216 176.512 1.328 176.224 1.408C176.208 1.616 176.192 1.952 176.192 1.952V3.76H177.84V4.832H176.288C176.448 5.36 177.008 7.008 178.176 8.608L177.088 8.928C176.656 7.968 176.288 6.8 176.096 6.128C176.128 8.08 176.224 11.088 176.224 12.544V15.136H175.056ZM195.392 7.92C195.392 6.928 196.208 6.112 197.2 6.112C198.192 6.112 199.008 6.928 199.008 7.92C199.008 8.912 198.192 9.728 197.2 9.728C196.208 9.728 195.392 8.912 195.392 7.92ZM208.432 10.96V3.728H213.696V2.096C213.696 2.096 213.696 1.488 213.648 0.832C213.952 0.832 215.472 0.848 215.472 1.12C215.472 1.248 215.232 1.408 214.976 1.44C214.96 1.744 214.944 2.24 214.944 2.24V3.728H220.416V10.848H219.152V9.792H214.96V15.04H213.696V9.792H209.664V10.96H208.432ZM214.944 8.608H219.152V4.88H214.944V8.608ZM209.664 8.608H213.696V4.88H209.664V8.608ZM232.128 4.24L230.848 3.92C232.144 2.736 232.816 1.072 232.896 0.591999C232.896 0.591999 233.76 0.848 234.064 0.959999C234.176 0.992 234.272 1.088 234.272 1.168C234.272 1.264 234.16 1.344 233.824 1.376C233.76 1.52 233.68 1.696 233.584 1.888H238.432V2.864H235.312C235.52 3.232 235.824 3.776 236.048 4.256L234.992 4.656C234.752 3.856 234.336 3.088 234.208 2.864H233.056C232.8 3.328 232.48 3.808 232.128 4.24ZM225.712 4.864L224.336 4.448C226.032 3.2 227.216 1.152 227.328 0.655999C227.328 0.655999 228.176 0.912 228.48 1.04C228.56 1.072 228.624 1.136 228.624 1.2C228.624 1.328 228.464 1.456 228.048 1.472C227.984 1.584 227.904 1.728 227.808 1.888H231.568V2.864H229.04C229.248 3.232 229.568 3.808 229.776 4.304L228.704 4.672C228.496 3.904 228.096 3.12 227.968 2.864H227.232C226.784 3.552 226.24 4.32 225.712 4.864ZM225.056 8.656V7.616H230.912V6.336H226.096V5.28H230.912C230.912 5.184 230.912 5.136 230.912 5.072C230.912 4.912 230.912 4.64 230.864 4.304C230.864 4.304 231.952 4.352 232.256 4.4C232.416 4.432 232.496 4.512 232.496 4.592C232.496 4.688 232.368 4.816 232.096 4.864C232.064 5.008 232.064 5.184 232.064 5.28H237.248V6.336H232.064V7.616H238.208V8.656H225.056ZM225.28 11.152V10.064H233.952V9.968C233.952 9.776 233.952 9.424 233.904 8.96C233.904 8.96 234.816 9.04 235.168 9.072C235.424 9.088 235.552 9.184 235.552 9.296C235.552 9.392 235.408 9.52 235.12 9.568C235.088 9.76 235.088 9.952 235.088 10.064H238.144V11.152H235.088V11.696C235.088 12.48 235.104 13.072 235.104 13.184C235.104 14.656 233.92 14.992 232.4 14.992C232.208 14.992 232.016 14.992 231.808 14.976L230.928 13.648C231.632 13.76 232.224 13.824 232.688 13.824C233.52 13.824 233.952 13.6 233.952 13.056V13.04V11.152H225.28ZM227.488 12.192L228.176 11.376C228.176 11.376 229.76 12.128 230.896 13.136L230.208 14.144C229.008 12.96 227.488 12.192 227.488 12.192ZM250.416 15.12V1.552H254.88C254.976 1.552 255.056 1.44 255.136 1.44C255.264 1.44 255.888 2.048 255.92 2.08C255.968 2.128 256 2.192 256 2.24C256 2.304 255.92 2.368 255.68 2.4C255.136 3.84 254.336 5.648 253.952 6.336C254.656 6.912 255.952 8.112 255.952 9.968C255.952 11.696 255.168 13.008 253.216 13.008C253.056 13.008 252.896 12.992 252.72 12.976L251.952 11.664C252.336 11.744 252.672 11.776 252.976 11.776C254.144 11.776 254.768 11.2 254.768 10.016C254.768 8.832 254.24 7.76 252.624 6.544C253.36 5.376 254.16 3.216 254.32 2.608H251.632V15.12H250.416ZM241.888 3.696V2.624H245.232V1.792C245.232 1.792 245.232 1.216 245.184 0.768C245.184 0.768 245.936 0.783999 246.592 0.848C246.784 0.863999 246.912 0.976 246.912 1.088C246.912 1.184 246.784 1.312 246.432 1.376C246.4 1.632 246.4 2.016 246.4 2.016V2.624H249.632V3.696H241.888ZM241.744 8.048V6.912H246.384C246.88 5.744 247.296 3.984 247.296 3.984C247.296 3.984 248.112 4.176 248.64 4.4C248.784 4.448 248.88 4.544 248.88 4.624C248.88 4.736 248.704 4.832 248.32 4.848C248.32 4.848 247.872 6.016 247.488 6.912H249.872V8.048H241.744ZM243.04 4.384L244.08 4.064C244.08 4.064 244.688 4.928 245.072 6.336L243.968 6.768C243.728 5.408 243.04 4.384 243.04 4.384ZM242.864 15.024V9.552H248.864V14.928H247.696V14.304H244.016V15.024H242.864ZM244.016 13.232H247.696V10.656H244.016V13.232ZM2.224 25.392V23.968H13.776V25.392H2.224ZM7.248 36.208V29.248H2.224V27.856H13.776V29.248H8.752V36.208H7.248ZM17.712 33.376V32.24L23.056 24.272H24.608V32.096H26.24V33.376H24.608V36H23.216V33.376H17.712ZM19.264 32.16L23.216 32.096L23.232 30.016C23.232 29.776 23.312 26.432 23.344 25.824C23.248 26.112 22.88 26.688 22.624 27.072L19.264 32.16ZM28.3502 32.544H29.8862C29.9982 34.848 31.8702 34.896 32.3182 34.896C32.9422 34.896 34.8142 34.688 34.8142 32.544C34.8142 30.864 33.2943 30.368 32.3663 30.368C32.3502 30.368 32.3342 30.368 32.3182 30.368L31.1822 30.4V29.04L32.3342 29.088C32.3502 29.088 32.3663 29.088 32.3982 29.088C33.4542 29.088 34.4783 28.256 34.4783 27.104C34.4783 26.4 34.0303 25.328 32.3502 25.328C31.7422 25.328 30.3342 25.568 30.2382 27.328H28.7662C28.7662 25.936 29.7582 24.08 32.3822 24.08C34.2863 24.08 35.8383 25.04 35.8383 27.04C35.8383 28.224 35.1182 29.408 33.7902 29.648C35.3263 29.856 36.2382 31.136 36.2382 32.72C36.2382 35.056 34.3182 36.192 32.2382 36.192C30.1102 36.192 28.4302 34.96 28.3502 32.544ZM39.3885 36V34.944C39.5645 34.64 39.9005 34.112 40.4285 33.488C41.3725 32.352 42.9085 31.072 44.0765 29.856C44.8445 29.04 45.2605 28.256 45.2605 27.36C45.2605 26.256 44.4445 25.456 43.2125 25.456C41.8205 25.456 40.9245 26.592 40.8765 28.144L39.3885 28.128C39.5645 25.888 40.7485 24.128 43.2765 24.128C45.7565 24.128 46.7645 25.888 46.7645 27.264C46.7645 28.656 46.3325 29.632 45.1005 30.8C44.0125 31.84 42.4925 33.088 41.7405 33.952C41.5005 34.224 41.2925 34.512 41.1965 34.64L46.7325 34.576V36H39.3885ZM50.1707 32.608V31.232H54.4427V32.608H50.1707ZM59.7409 29.776C58.9729 29.504 57.9169 28.752 57.9169 27.168C57.9169 25.488 59.2929 24.08 61.5489 24.08C63.7569 24.08 65.0849 25.456 65.0849 27.056C65.0849 28.784 63.9489 29.552 63.1329 29.776C64.4769 30.08 65.4689 31.184 65.4689 32.704C65.4689 34.928 63.7889 36.24 61.5969 36.24C59.1809 36.24 57.5169 34.912 57.5169 32.784C57.5169 31.04 58.7169 30.016 59.7409 29.776ZM59.3249 27.152C59.3249 28.496 60.3809 29.104 61.5329 29.104C62.7329 29.104 63.6609 28.432 63.6609 27.088C63.6609 25.968 62.8609 25.2 61.5009 25.2C60.2369 25.2 59.3249 25.936 59.3249 27.152ZM61.5169 30.384C61.5169 30.384 61.5009 30.384 61.4849 30.384C60.1729 30.384 58.9729 31.184 58.9729 32.736C58.9729 32.752 58.9729 32.752 58.9729 32.768C58.9729 34.272 60.2689 35.008 61.5809 35.008C62.8609 35.008 63.9969 34.096 63.9969 32.736C63.9969 31.168 62.8129 30.384 61.5169 30.384ZM72.1231 36.256C69.6751 36.256 68.1071 34.272 68.1071 30.192C68.1071 26.128 69.6911 24.096 72.1231 24.096C74.5391 24.096 76.1071 26.128 76.1071 30.192C76.1071 34.272 74.5391 36.256 72.1231 36.256ZM72.1231 34.992C73.5311 34.992 74.5551 33.376 74.5551 30.192C74.5551 26.944 73.5311 25.28 72.1231 25.28C70.6351 25.28 69.6591 26.944 69.6591 30.192C69.6591 33.376 70.6351 34.992 72.1231 34.992ZM78.5534 32.544H80.0894C80.2014 34.848 82.0734 34.896 82.5214 34.896C83.1454 34.896 85.0174 34.688 85.0174 32.544C85.0174 30.864 83.4974 30.368 82.5694 30.368C82.5534 30.368 82.5374 30.368 82.5214 30.368L81.3854 30.4V29.04L82.5374 29.088C82.5534 29.088 82.5694 29.088 82.6014 29.088C83.6574 29.088 84.6814 28.256 84.6814 27.104C84.6814 26.4 84.2334 25.328 82.5534 25.328C81.9454 25.328 80.5374 25.568 80.4414 27.328H78.9694C78.9694 25.936 79.9614 24.08 82.5854 24.08C84.4894 24.08 86.0414 25.04 86.0414 27.04C86.0414 28.224 85.3214 29.408 83.9934 29.648C85.5294 29.856 86.4414 31.136 86.4414 32.72C86.4414 35.056 84.5214 36.192 82.4414 36.192C80.3134 36.192 78.6334 34.96 78.5534 32.544ZM91.5596 29.776C90.7916 29.504 89.7356 28.752 89.7356 27.168C89.7356 25.488 91.1116 24.08 93.3676 24.08C95.5756 24.08 96.9036 25.456 96.9036 27.056C96.9036 28.784 95.7676 29.552 94.9516 29.776C96.2956 30.08 97.2876 31.184 97.2876 32.704C97.2876 34.928 95.6076 36.24 93.4156 36.24C90.9996 36.24 89.3356 34.912 89.3356 32.784C89.3356 31.04 90.5356 30.016 91.5596 29.776ZM91.1436 27.152C91.1436 28.496 92.1996 29.104 93.3516 29.104C94.5516 29.104 95.4796 28.432 95.4796 27.088C95.4796 25.968 94.6796 25.2 93.3196 25.2C92.0556 25.2 91.1436 25.936 91.1436 27.152ZM93.3356 30.384C93.3356 30.384 93.3196 30.384 93.3036 30.384C91.9916 30.384 90.7916 31.184 90.7916 32.736C90.7916 32.752 90.7916 32.752 90.7916 32.768C90.7916 34.272 92.0876 35.008 93.3996 35.008C94.6796 35.008 95.8156 34.096 95.8156 32.736C95.8156 31.168 94.6316 30.384 93.3356 30.384ZM125.19 37.008L124.47 35.792C124.982 35.856 125.414 35.92 125.766 35.92C126.342 35.92 126.662 35.76 126.662 35.152V32.8H124.47V31.792H126.662V30.272H123.798V29.168H126.662V27.664H124.662V26.928L124.374 27.216L123.302 26.736L123.43 26.64H121.174V27.504H124.038V28.464H117.206V27.504H120.118V26.64H117.686V25.696H120.118V24.848H117.494V23.888H120.118V23.744C120.118 23.744 120.118 23.184 120.086 22.752C120.086 22.752 120.998 22.8 121.35 22.848C121.542 22.88 121.654 22.96 121.654 23.056C121.654 23.136 121.526 23.232 121.206 23.28C121.19 23.456 121.174 23.792 121.174 23.792V23.888H123.782V24.848H121.174V25.696H123.51V26.56C125.526 24.768 125.974 22.672 125.974 22.672C125.974 22.672 126.726 22.832 127.206 23.008C127.318 23.04 127.398 23.12 127.398 23.2C127.398 23.28 127.27 23.376 126.918 23.392C126.822 23.568 126.726 23.792 126.614 24.032H128.438C128.438 24.032 128.566 23.904 128.678 23.904C128.694 23.904 128.726 23.904 128.742 23.92C129.046 24.096 129.67 24.608 129.67 24.736C129.67 24.8 129.59 24.848 129.334 24.928C129.334 24.928 128.758 25.936 128.294 26.64H130.79V29.168H131.766V30.272H130.79V33.696H129.702V32.8H127.814V33.216C127.814 33.952 127.83 34.944 127.846 35.232C127.846 35.264 127.846 35.296 127.846 35.328C127.846 36.656 126.934 37.04 125.766 37.04C125.59 37.04 125.382 37.024 125.19 37.008ZM118.15 37.2V29.216H123.222C123.222 29.216 123.238 30.72 123.238 33.92C123.238 34.656 123.254 35.008 123.254 35.296C123.254 35.328 123.254 35.36 123.254 35.392C123.254 36.688 122.454 37.04 121.27 37.04C121.142 37.04 120.998 37.04 120.854 37.024L120.182 35.792C120.486 35.824 120.934 35.936 121.334 35.936C121.798 35.936 122.198 35.792 122.198 35.248V34.096H119.206V37.2H118.15ZM124.918 26.64H127.094C127.686 25.84 128.134 24.912 128.134 24.912H126.15C125.846 25.44 125.462 26.032 124.918 26.64ZM127.814 29.168H129.702V27.664H127.814V29.168ZM127.814 31.792H129.702V30.272H127.814V31.792ZM119.206 31.152H122.198V30.176H119.206V31.152ZM119.206 33.152H122.198V32.096H119.206V33.152ZM138.742 25.312L139.75 24.928C139.75 24.928 140.518 26.176 140.838 27.152L139.814 27.504C139.59 26.672 138.742 25.312 138.742 25.312ZM138.246 35.168V30.896C138.246 30.896 138.246 30.144 138.198 29.6C138.198 29.6 138.95 29.616 139.462 29.664C139.654 29.68 139.766 29.776 139.766 29.872C139.766 29.968 139.654 30.08 139.366 30.128C139.334 30.48 139.334 31.04 139.334 31.04V32.672H141.03V28.672H137.222V27.632H142.358C143.174 25.92 143.414 24.912 143.414 24.912C143.414 24.912 144.214 25.088 144.47 25.168C144.726 25.248 144.822 25.344 144.822 25.424C144.822 25.52 144.662 25.6 144.39 25.632C144.39 25.632 143.846 26.88 143.446 27.632H146.166V28.672H142.182V32.672H143.942V30.896C143.942 30.896 143.942 30.112 143.894 29.6C143.894 29.6 144.646 29.616 145.174 29.664C145.35 29.68 145.478 29.776 145.478 29.872C145.478 29.968 145.35 30.08 145.062 30.128C145.03 30.48 145.03 31.04 145.03 31.04V34.688H143.942V33.664H139.334V35.168H138.246ZM135.414 37.088V23.408H147.862V32.816L147.894 34.976C147.894 34.992 147.894 35.008 147.894 35.024C147.894 36.56 146.662 36.848 145.222 36.848C144.822 36.848 144.406 36.832 143.99 36.8L143.158 35.472C144.006 35.6 144.742 35.696 145.302 35.696C146.182 35.696 146.678 35.488 146.678 34.912V24.496H136.614V37.088H135.414ZM155.67 31.024V23.36H163.59V30.832H162.486V30.48H156.742V31.024H155.67ZM152.742 33.68V25.616C152.742 25.616 152.71 24.784 152.694 24.336C152.694 24.336 153.83 24.4 154.166 24.464C154.342 24.496 154.438 24.576 154.438 24.656C154.438 24.768 154.294 24.88 153.974 24.944C153.942 25.168 153.942 25.648 153.942 25.648V31.712H165.67V32.736H159.462V37.152H158.294V32.736H153.942V33.68H152.742ZM160.774 33.968L161.542 33.232C161.99 33.632 163.798 35.2 165.99 35.904L164.758 36.848C163.03 36.064 161.094 34.288 160.774 33.968ZM152.806 37.008L151.606 36.192C154.406 35.28 155.75 33.552 156.006 33.216C156.086 33.28 156.838 33.744 157.03 33.92C157.174 34.048 157.238 34.144 157.238 34.224C157.238 34.32 157.126 34.352 156.998 34.352C156.886 34.352 156.758 34.336 156.646 34.272C155.766 35.232 154.454 36.352 152.806 37.008ZM156.742 25.424H162.486V24.384H156.742V25.424ZM156.742 27.472H162.486V26.384H156.742V27.472ZM156.742 29.536H162.486V28.432H156.742V29.536ZM172.934 32.672V31.568H174.438V24C174.438 24 174.838 24.048 175.126 24.112C177.046 23.968 180.006 23.392 181.062 22.928C181.062 22.928 181.718 23.68 181.958 24.016C182.022 24.112 182.038 24.176 182.038 24.24C182.038 24.336 181.974 24.384 181.878 24.384C181.766 24.384 181.606 24.304 181.43 24.144C180.31 24.464 177.654 24.96 175.654 25.136V26.832H182.582V27.936H180.406V31.568H183.078V32.672H172.934ZM169.782 23.856L170.71 23.056C170.71 23.056 172.406 24.096 173.318 25.088L172.342 26.064C171.494 24.944 169.782 23.856 169.782 23.856ZM178.47 33.952L179.398 33.312C179.734 33.76 181.286 35.296 183.478 36.144L182.134 37.008C180.598 36.224 178.854 34.464 178.47 33.952ZM168.774 27.728L169.622 26.784C169.622 26.784 171.606 27.824 172.518 28.656L171.67 29.76C170.758 28.704 168.774 27.728 168.774 27.728ZM172.838 37.168L171.414 36.432C174.006 35.424 175.318 33.664 175.494 33.312C176.806 33.968 176.854 34 176.854 34.128C176.854 34.208 176.726 34.256 176.566 34.256C176.486 34.256 176.406 34.24 176.326 34.224C176.326 34.224 174.886 36.064 172.838 37.168ZM171.718 30.784L172.614 31.92C172.118 33.12 171.382 34.752 170.406 36.48C170.47 36.576 170.502 36.688 170.502 36.768C170.502 36.864 170.47 36.928 170.374 36.928C170.342 36.928 170.294 36.912 170.246 36.896C169.606 36.592 168.918 36.08 168.918 36.08C170.15 34.672 171.222 32.08 171.718 30.784ZM175.654 31.568H179.222V27.936H175.654V31.568ZM200.934 29.616L199.526 30.24C198.39 28.8 197.238 26.688 196.342 23.68L197.462 23.392C198.294 26.448 199.926 28.672 200.934 29.616ZM192.246 30.576L190.87 30.208C192.038 28.976 193.366 26.272 193.766 23.504C195.286 23.856 195.382 24.016 195.382 24.128C195.382 24.24 195.19 24.336 194.918 24.336C194.886 24.336 194.87 24.336 194.838 24.336C194.438 26.32 193.398 28.896 192.246 30.576ZM200.374 36.192L199.142 36.816C199.014 36.288 198.806 35.664 198.55 35.04C197.558 35.296 195.238 35.824 192.326 36.192C192.326 36.208 192.326 36.224 192.326 36.24C192.326 36.592 192.23 36.768 192.102 36.768C192.006 36.768 191.894 36.656 191.814 36.448C191.606 35.92 191.318 35.056 191.318 35.056C191.782 35.04 192.326 35.008 192.886 34.944C193.926 32.528 194.822 28.8 194.87 28.144C194.87 28.144 196.006 28.304 196.326 28.368C196.566 28.416 196.694 28.528 196.694 28.624C196.694 28.752 196.486 28.88 196.102 28.912C196.054 29.104 195.078 32.608 194.198 34.784C195.734 34.56 197.286 34.256 198.134 34.048C197.59 32.864 196.966 31.76 196.47 31.072C196.47 31.072 197.238 30.816 197.558 30.688C197.558 30.688 199.542 33.824 200.374 36.192ZM188.55 37.088V33.952C188.55 32.448 188.614 29.984 188.662 28.56C188.358 29.52 187.686 31.424 186.774 32.64L185.542 32.24C187.27 30.432 188.134 27.648 188.358 26.848H186.358V25.744H188.566V24.112C188.566 24.112 188.55 23.376 188.518 22.752C188.518 22.752 189.334 22.8 189.878 22.848C190.102 22.864 190.214 22.96 190.214 23.056C190.214 23.152 190.07 23.28 189.766 23.344C189.734 23.712 189.734 24.24 189.734 24.24V25.744H191.67V26.848H189.894C190.214 27.392 190.758 28.256 191.542 29.168L190.502 29.616C190.102 28.912 189.814 28.304 189.606 27.856C189.654 29.152 189.75 32.8 189.75 34.032V37.088H188.55ZM203.462 25.968V24.8H209.75V24.224C209.75 24.224 209.75 23.472 209.702 22.784C210.854 22.832 211.542 22.896 211.542 23.12C211.542 23.248 211.35 23.376 210.998 23.456C210.982 23.824 210.982 24.336 210.982 24.336V24.8H217.414V25.968H203.462ZM205.062 35.376V27.984H209.75V27.696C209.75 27.696 209.75 26.848 209.702 26.288C209.862 26.288 211.542 26.336 211.542 26.656C211.542 26.768 211.366 26.896 211.014 26.976C210.998 27.28 210.982 27.856 210.982 27.856V27.984H215.878V31.904C215.878 32.256 215.91 33.104 215.91 33.328C215.91 33.36 215.91 33.408 215.91 33.44C215.91 35.008 214.726 35.296 213.51 35.296C213.302 35.296 213.094 35.296 212.886 35.28L211.974 33.952C212.598 34.032 213.078 34.08 213.446 34.08C214.358 34.08 214.63 33.824 214.646 33.264C214.662 33.072 214.662 32.544 214.662 31.92C214.662 30.672 214.662 29.072 214.662 29.072H210.982V37.024H209.75V29.072H206.326V35.376H205.062ZM221.654 32.96V25.728H226.918V24.096C226.918 24.096 226.918 23.488 226.87 22.832C227.174 22.832 228.694 22.848 228.694 23.12C228.694 23.248 228.454 23.408 228.198 23.44C228.182 23.744 228.166 24.24 228.166 24.24V25.728H233.638V32.848H232.374V31.792H228.182V37.04H226.918V31.792H222.886V32.96H221.654ZM228.166 30.608H232.374V26.88H228.166V30.608ZM222.886 30.608H226.918V26.88H222.886V30.608ZM241.638 34.096L240.39 33.312C242.422 32.384 243.958 31.088 245.11 29.776C243.59 28.64 242.134 27.808 241.446 27.456L242.374 26.656C243.334 27.2 244.566 27.936 245.846 28.88C246.95 27.408 247.542 26.096 247.75 25.536C247.75 25.536 248.774 26 249.11 26.224C249.206 26.288 249.254 26.368 249.254 26.432C249.254 26.528 249.158 26.624 248.918 26.624C248.838 26.624 248.758 26.608 248.662 26.592C248.374 27.184 247.766 28.32 246.79 29.584C247.878 30.448 248.998 31.44 250.022 32.592L248.95 33.568C248.182 32.464 247.11 31.408 246.022 30.512C244.918 31.776 243.478 33.088 241.638 34.096ZM238.774 36.944V23.76H251.19L251.174 24.912H239.974L240.006 34.96H251.574V36.144H240.006V36.944H238.774ZM255.958 37.12V27.12H259.75C259.75 26.464 259.734 25.6 259.718 25.04H255.19V23.856H268.854V25.04H263.83V27.12H268.086V37.008H266.886V36.032H257.142V37.12H255.958ZM260.934 27.12H262.63V25.04H260.95C260.95 25.328 260.934 26.384 260.934 27.12ZM257.142 34.864H266.886V28.224H263.83V31.056C263.83 31.328 263.958 31.44 264.454 31.44C265.382 31.44 265.558 31.104 265.606 29.36L266.694 30.48C266.47 32.544 265.446 32.544 264.31 32.544C263.494 32.544 262.63 32.448 262.63 31.312V28.224H260.918C260.886 29.936 260.326 31.68 258.422 32.976L257.142 32.4V34.864ZM257.142 28.224V32.16C259.286 31.152 259.702 29.6 259.75 28.224H257.142ZM277.03 37.104L275.702 36.288C278.566 35.408 279.654 33.744 279.974 31.568H277.046V30.448H280.086C280.102 30.016 280.102 29.696 280.102 29.696C280.102 29.504 280.102 28.96 280.102 28.032H276.406V26.944H280.102V24.72H277.334V23.648H285.206V26.944H286.502V28.032H285.206V32.432H284.07V31.568H281.206C280.886 34.112 279.718 35.92 277.03 37.104ZM274.134 37.136L274.198 31.264C274.214 30.272 274.246 28.88 274.278 27.952C273.83 28.624 273.318 29.28 272.758 29.92L271.574 29.408C272.262 28.912 274.822 25.808 275.59 22.672C275.766 22.704 276.774 23.04 276.966 23.104C277.142 23.168 277.222 23.248 277.222 23.312C277.222 23.44 277.046 23.536 276.822 23.536C276.774 23.536 276.71 23.536 276.662 23.52C276.358 24.24 275.862 25.344 275.158 26.544C275.366 26.56 275.526 26.576 275.558 26.576C275.814 26.608 275.926 26.688 275.926 26.784C275.926 26.896 275.75 27.024 275.462 27.12C275.43 27.408 275.414 27.824 275.414 27.824L275.334 37.136H274.134ZM281.302 26.944H284.07V24.72H281.302V26.944ZM281.286 30.448H284.07V28.032H281.302V29.744C281.302 29.936 281.302 30.048 281.286 30.448ZM295.414 28.688V23.28H301.654V28.592H300.662V28.144H296.374V28.688H295.414ZM294.246 36.256L293.046 35.536C295.574 34.72 297.03 32.944 297.686 31.968H296.406C295.622 32.848 294.55 33.824 293.158 34.576L291.974 33.888C294.63 32.896 296.038 31.072 296.614 30.128H293.862V29.088H303.398V30.128H297.75C297.606 30.384 297.382 30.72 297.094 31.12L302.918 31.104C302.918 36.736 301.03 36.96 299.862 36.96C299.59 36.96 299.286 36.928 298.982 36.896L298.454 35.904C297.91 36.384 297.27 36.832 296.55 37.184L295.238 36.56C298.086 35.664 299.51 33.136 300.038 31.968H298.87C298.23 32.96 296.63 35.12 294.246 36.256ZM291.398 32.048V27.632H289.398V26.544H291.398V24.08C291.398 24.08 291.398 23.44 291.35 23.024C291.35 23.024 292.23 23.024 292.79 23.12C292.966 23.136 293.078 23.216 293.078 23.312C293.078 23.408 292.934 23.52 292.598 23.6C292.566 23.808 292.566 24.336 292.566 24.336V26.544H294.454V27.632H292.566V31.504C293.446 31.056 294.15 30.656 294.422 30.48L294.534 31.584C293.446 32.24 292.278 32.912 290.198 33.84C290.214 33.92 290.214 34 290.214 34.064C290.214 34.256 290.15 34.352 290.054 34.352C289.99 34.352 289.894 34.288 289.798 34.176C289.51 33.808 289.014 32.96 289.014 32.96C289.782 32.736 290.614 32.4 291.398 32.048ZM296.374 25.216H300.662V24.24H296.374V25.216ZM296.374 27.168H300.662V26.16H296.374V27.168ZM301.798 31.968H301.206C300.854 32.768 300.086 34.336 298.726 35.648C299.078 35.728 299.462 35.808 299.83 35.808C300.502 35.808 301.654 35.776 301.798 31.968ZM307.174 34.8V23.392H313.798V24.896H320.854V26.064H318.182V32.672C318.182 33.424 318.198 34.528 318.214 34.832C318.214 34.896 318.214 34.96 318.214 35.024C318.214 36.768 316.71 37.024 315.254 37.024C314.998 37.024 314.742 37.024 314.486 37.008L313.542 35.584C314.262 35.68 314.854 35.728 315.334 35.728C316.422 35.728 316.886 35.456 316.886 34.784V26.064H313.798V34.4H312.662V33.472H308.31V34.8H307.174ZM311.014 27.728H312.678V24.4H311.014V27.728ZM308.31 27.728H309.846V24.4H308.31V27.728ZM311.014 32.432H312.662V28.72H311.014V32.432ZM308.31 32.432H309.846V28.72H308.31V32.432ZM323.366 32.544H324.902C325.014 34.848 326.886 34.896 327.334 34.896C327.958 34.896 329.83 34.688 329.83 32.544C329.83 30.864 328.31 30.368 327.382 30.368C327.366 30.368 327.35 30.368 327.334 30.368L326.198 30.4V29.04L327.35 29.088C327.366 29.088 327.382 29.088 327.414 29.088C328.47 29.088 329.494 28.256 329.494 27.104C329.494 26.4 329.046 25.328 327.366 25.328C326.758 25.328 325.35 25.568 325.254 27.328H323.782C323.782 25.936 324.774 24.08 327.398 24.08C329.302 24.08 330.854 25.04 330.854 27.04C330.854 28.224 330.134 29.408 328.806 29.648C330.342 29.856 331.254 31.136 331.254 32.72C331.254 35.056 329.334 36.192 327.254 36.192C325.126 36.192 323.446 34.96 323.366 32.544ZM334.58 32.608V31.232H338.852V32.608H334.58ZM345.526 36V26.976H343.174V26.048C345.126 25.904 345.798 24.816 346.006 24.24H347.078V36H345.526Z" fill="black"/>
</svg>
