<svg width="149" height="46" viewBox="0 0 149 46" fill="none" xmlns="http://www.w3.org/2000/svg">
<path d="M9.072 4.632C8.016 4.632 6.984 4.584 5.952 4.584C5.352 4.584 5.376 4.944 5.376 5.784C5.376 6.888 5.328 7.248 5.976 7.248C7.008 7.248 8.04 7.2 9.072 7.2H14.04C14.4 7.2 14.736 7.248 14.736 7.608C14.736 7.824 14.448 8.232 14.328 8.424C11.904 12.216 7.872 15.888 3.624 17.52C3.408 17.592 3.12 17.712 3.12 18C3.12 18.432 4.224 20.04 4.728 20.04C4.944 20.04 5.568 19.704 5.784 19.584C7.944 18.48 10.008 17.04 11.784 15.384C11.976 15.216 12.192 14.976 12.504 14.976C12.72 14.976 12.864 15.048 13.056 15.192C15.192 16.728 16.632 17.88 18.36 19.944C18.528 20.136 18.696 20.304 18.96 20.304C19.464 20.304 20.784 18.888 20.784 18.384C20.784 18.24 20.712 18.144 20.616 18.048C20.064 17.472 19.464 16.92 18.888 16.416C17.688 15.36 16.152 14.184 14.832 13.32C14.616 13.176 14.472 13.032 14.472 12.744C14.472 12.552 14.544 12.432 14.664 12.288C15.864 10.848 16.824 9.336 17.784 7.728C17.88 7.56 18.024 7.32 18.168 7.104C18.432 6.672 18.696 6.288 18.696 6.168C18.696 5.856 17.664 4.536 17.16 4.536C17.016 4.536 16.776 4.584 16.632 4.584C16.392 4.632 15.984 4.632 15.6 4.632H9.072ZM37.44 5.376C37.224 5.352 37.008 5.256 37.008 5.016C37.008 4.848 37.128 4.656 37.2 4.512C37.368 4.248 37.488 4.032 37.584 3.864C37.92 3.288 37.944 3.216 38.304 3.072C38.424 3.024 38.544 2.952 38.544 2.808C38.544 2.616 37.344 2.088 37.128 1.992C36.456 1.656 35.976 1.416 35.784 1.416C35.52 1.416 35.424 1.824 35.352 2.016C34.368 4.872 31.488 8.784 29.088 10.632C28.944 10.728 28.728 10.896 28.728 11.088C28.728 11.496 30.288 12.504 30.72 12.504C31.008 12.504 31.296 12.24 31.488 12.048C32.448 11.088 33.816 9.456 34.608 8.352C34.92 7.92 35.088 7.728 35.664 7.728H40.248C40.608 7.728 41.232 7.704 41.232 8.208C41.232 8.448 40.848 9.288 40.608 9.792C40.536 9.936 40.488 10.056 40.464 10.128C39.816 11.4 39.6 11.856 39.144 11.856C38.976 11.856 38.832 11.784 38.688 11.712C38.208 11.424 36 10.152 35.592 10.152C35.064 10.152 34.128 11.616 34.128 11.952C34.128 12.216 34.608 12.384 34.848 12.48C35.448 12.768 36.696 13.416 37.248 13.776C37.416 13.896 37.536 14.04 37.536 14.28C37.536 14.52 37.344 14.712 37.176 14.88C35.376 16.8 32.808 18.408 30.312 19.2C29.688 19.392 29.28 19.464 29.28 19.752C29.28 20.088 30.384 21.624 31.008 21.624C31.512 21.624 33.384 20.688 33.912 20.4C35.856 19.368 37.656 18 39.144 16.344C39.36 16.104 39.624 15.768 39.96 15.768C40.176 15.768 40.344 15.888 40.488 16.008C40.824 16.296 41.136 16.536 41.472 16.824C41.568 16.92 41.688 17.016 41.832 17.016C42.288 17.016 43.368 15.6 43.368 15.192C43.368 14.88 42.312 14.16 42.024 13.944C41.808 13.776 41.592 13.632 41.592 13.32C41.592 13.128 41.664 12.984 41.76 12.84C42.6 11.4 43.368 9.912 44.04 8.376C44.232 7.896 44.352 7.632 44.64 7.2C44.712 7.08 44.784 6.984 44.784 6.84C44.784 6.456 43.944 5.208 43.536 5.208C43.464 5.208 43.368 5.232 43.296 5.256C42.888 5.352 42.312 5.376 41.832 5.376H37.44ZM70.32 7.128C70.152 7.128 70.008 7.272 69.912 7.392C66.504 11.736 60.504 16.272 55.2 17.832C54.888 17.928 54.456 17.976 54.456 18.24C54.456 18.48 55.032 19.44 55.176 19.68C55.344 19.968 55.848 20.928 56.112 20.928C56.232 20.928 56.304 20.88 56.352 20.784C56.544 20.376 56.568 20.352 57.36 19.968C62.424 17.616 66.504 14.928 70.392 10.92C70.704 10.608 71.664 9.672 71.664 9.264C71.664 8.904 70.8 7.128 70.32 7.128ZM56.136 3.288C55.584 3.288 54.624 4.824 54.624 5.184C54.624 5.4 54.816 5.52 55.008 5.64C55.872 6.168 57.528 7.272 58.2 7.872C58.512 8.16 58.968 8.52 59.16 8.52C59.616 8.52 60.744 7.224 60.744 6.672C60.744 6.312 59.592 5.52 59.28 5.304C58.824 4.968 56.52 3.288 56.136 3.288ZM81.936 4.728C80.904 4.728 79.872 4.68 78.84 4.68C78.144 4.68 78.168 4.944 78.168 6.048C78.168 7.128 78.168 7.344 78.888 7.344C79.896 7.344 80.88 7.296 81.888 7.296H90.432C90.864 7.296 91.272 7.344 91.272 7.8C91.272 7.944 91.224 8.232 91.2 8.4C90.816 11.088 89.376 13.656 87.288 15.384C85.632 16.752 83.352 18 81.312 18.552C81.096 18.6 80.88 18.672 80.88 18.936C80.88 19.32 81.72 20.928 82.296 20.928C82.536 20.928 82.872 20.808 83.088 20.736C84.672 20.112 86.304 19.248 87.696 18.264C91.488 15.624 93.264 12.456 94.056 7.944C94.224 7.008 94.416 6.768 94.416 6.552C94.416 6.24 93.816 5.664 93.6 5.448C93.288 5.136 92.928 4.68 92.448 4.68C92.232 4.68 91.656 4.728 91.248 4.728H81.936ZM95.76 1.68C96.48 1.68 97.056 2.256 97.056 2.976C97.056 3.696 96.48 4.248 95.76 4.248C95.064 4.248 94.488 3.696 94.488 2.976C94.488 2.256 95.064 1.68 95.76 1.68ZM95.76 0.599999C94.44 0.599999 93.384 1.656 93.384 2.976C93.384 4.296 94.44 5.352 95.76 5.352C97.08 5.352 98.16 4.296 98.16 2.976C98.16 1.656 97.08 0.599999 95.76 0.599999ZM117.888 13.152C118.968 13.152 120.024 13.224 121.104 13.224C121.776 13.224 121.728 12.864 121.728 11.808C121.728 10.776 121.776 10.392 121.104 10.392C120.048 10.392 118.968 10.464 117.888 10.464H104.832C103.752 10.464 102.672 10.392 101.616 10.392C100.944 10.392 100.992 10.8 100.992 11.808C100.992 12.84 100.944 13.224 101.616 13.224C102.672 13.224 103.752 13.152 104.832 13.152H117.888ZM143.352 8.736C144 8.736 144.672 8.784 145.344 8.784C145.872 8.784 145.848 8.496 145.848 7.872C145.848 7.128 145.848 6.984 145.2 6.984C144.816 6.984 144.24 7.032 143.352 7.032H139.944C139.056 7.032 138.48 6.984 138.096 6.984C137.448 6.984 137.448 7.128 137.448 7.872C137.448 8.448 137.424 8.784 137.928 8.784C138.6 8.784 139.272 8.736 139.944 8.736H143.352ZM138.72 5.376C138.936 4.944 139.152 4.824 139.656 4.824H143.952C144.768 4.824 145.584 4.872 146.4 4.872C146.88 4.872 146.88 4.656 146.88 3.936C146.88 3.192 146.88 3 146.4 3C145.584 3 144.768 3.048 143.952 3.048H140.4C140.136 3.024 139.92 2.928 139.92 2.64C139.92 2.568 139.92 2.472 139.944 2.424C139.992 2.28 140.04 2.136 140.184 2.088C140.328 2.04 140.592 1.968 140.592 1.776C140.592 1.56 140.4 1.536 139.896 1.392C139.776 1.368 139.632 1.32 139.464 1.272C139.248 1.224 138.36 0.983999 138.192 0.983999C138 0.983999 137.976 1.104 137.928 1.296C137.592 2.664 136.872 4.272 136.128 5.448C136.056 5.544 135.936 5.712 135.936 5.832C135.936 6.24 137.28 6.768 137.664 6.768C138.096 6.768 138.528 5.736 138.72 5.376ZM131.184 16.536C131.208 16.32 131.352 16.176 131.568 16.152H140.616C140.856 16.176 140.976 16.32 141 16.536V16.68C140.976 16.896 140.856 17.04 140.616 17.04H131.568C131.352 17.04 131.208 16.896 131.184 16.68V16.536ZM131.184 14.424C131.208 14.208 131.352 14.064 131.568 14.04H140.616C140.856 14.064 140.976 14.208 141 14.424V14.568C140.976 14.784 140.856 14.928 140.616 14.928H131.568C131.352 14.928 131.208 14.784 131.184 14.568V14.424ZM131.568 12.84C131.352 12.816 131.208 12.672 131.184 12.456V12.312C131.208 12.072 131.352 11.952 131.568 11.928H140.616C140.856 11.952 140.976 12.072 141 12.312V12.456C140.976 12.672 140.856 12.816 140.616 12.84H131.568ZM132.024 18.552C132.168 18.576 132.312 18.624 132.312 18.792C132.312 18.864 132.264 18.936 132.216 18.984C130.968 20.04 128.376 20.472 126.768 20.544C126.12 20.568 125.688 20.52 125.688 20.928C125.688 21.12 125.784 21.408 125.88 21.6C126.24 22.344 126.432 22.464 126.792 22.464C127.08 22.464 127.368 22.416 127.68 22.392C128.664 22.272 129.648 22.128 130.608 21.84C132.144 21.384 133.032 20.856 134.232 19.8C134.4 19.656 134.448 19.656 134.664 19.656C134.928 19.656 135.096 19.536 135.096 19.392C135.096 19.152 134.784 19.032 134.4 18.792C134.376 18.768 134.352 18.72 134.352 18.672C134.352 18.6 134.424 18.552 134.496 18.552H136.248C136.728 18.552 136.92 18.744 136.92 19.224V19.656C136.92 19.992 136.896 20.328 136.896 20.664C136.896 22.128 138.264 22.152 139.392 22.152H143.28C144.864 22.152 145.536 22.176 146.04 21.432C146.352 21 146.904 19.8 146.904 19.248C146.904 18.672 145.704 18.456 145.248 18.456C144.84 18.456 144.792 18.6 144.744 18.84C144.504 20.328 144.264 20.304 143.424 20.304H140.4C139.752 20.304 139.272 20.352 139.272 19.656V19.224C139.272 18.744 139.464 18.552 139.944 18.552H140.808C140.928 18.552 141.024 18.648 141.096 18.72C141.312 18.84 141.744 18.864 142.08 18.864H142.32C142.92 18.864 143.496 18.888 143.496 18.12C143.496 17.76 143.448 17.304 143.448 16.848V12.648C143.448 12.168 143.496 11.76 143.496 11.424C143.496 10.704 143.304 10.344 142.152 10.344C141.48 10.344 140.808 10.368 140.16 10.368H132.024C131.352 10.368 130.704 10.344 130.032 10.344C129.312 10.344 128.712 10.44 128.712 11.328C128.712 11.76 128.76 12.216 128.76 12.648V16.848C128.76 17.256 128.712 17.736 128.712 18.12C128.712 18.888 129.264 18.864 129.864 18.864H130.128C130.464 18.864 130.896 18.84 131.088 18.72C131.184 18.648 131.28 18.552 131.4 18.552H132.024ZM129.072 6.048C128.856 6.024 128.712 5.904 128.712 5.664V5.496C128.712 5.28 128.856 5.136 129.072 5.136H133.152C133.392 5.136 133.512 5.28 133.536 5.496V5.664C133.512 5.904 133.392 6.024 133.152 6.048H129.072ZM130.752 7.776C130.752 8.016 130.608 8.16 130.368 8.16H129.072C128.856 8.16 128.712 8.016 128.712 7.776V7.632C128.712 7.416 128.856 7.272 129.072 7.248H130.368C130.608 7.272 130.752 7.416 130.752 7.632V7.776ZM130.392 3.048C130.608 3.048 130.752 3.192 130.752 3.408V3.576C130.752 3.792 130.608 3.936 130.392 3.936H129.072C128.856 3.936 128.712 3.792 128.712 3.576V3.408C128.712 3.192 128.856 3.048 129.072 3.048H130.392ZM132.792 3.408C132.816 3.144 132.888 3.048 133.176 3.048H134.232C134.856 3.048 135.48 3.072 136.104 3.072C136.536 3.072 136.536 2.904 136.536 2.376C136.536 1.848 136.512 1.68 136.104 1.68C135.48 1.68 134.856 1.704 134.232 1.704H128.952C128.496 1.704 128.016 1.68 127.536 1.68C126.912 1.68 126.552 1.848 126.552 2.52C126.552 2.976 126.576 3.432 126.576 3.864V7.416C126.576 7.872 126.552 8.304 126.552 8.76C126.552 9.48 126.96 9.6 127.608 9.6C128.064 9.6 128.496 9.576 128.952 9.576H134.232C134.856 9.576 135.48 9.6 136.104 9.6C136.488 9.6 136.536 9.48 136.536 8.88C136.536 8.28 136.488 8.136 136.104 8.136C135.48 8.136 134.856 8.16 134.232 8.16H133.152C132.888 8.136 132.792 8.064 132.792 7.776V7.632C132.792 7.368 132.888 7.248 133.176 7.248H133.584C134.016 7.248 134.424 7.296 134.856 7.296C135.312 7.296 135.576 7.224 135.576 6.696C135.576 6.528 135.552 6.216 135.552 5.784V5.4C135.552 4.992 135.576 4.68 135.576 4.488C135.576 3.984 135.288 3.912 134.856 3.912C134.424 3.912 134.016 3.936 133.584 3.936H133.176C132.888 3.936 132.816 3.84 132.792 3.576V3.408Z" fill="black"/>
<path d="M7.83691 41.6133C7.83691 41.4229 7.81576 41.2536 7.77344 41.1055C7.73535 40.9531 7.6613 40.8156 7.55127 40.6929C7.44124 40.5701 7.28467 40.4495 7.08154 40.3311C6.88265 40.2126 6.62451 40.092 6.30713 39.9692C5.9432 39.8296 5.60254 39.6772 5.28516 39.5122C4.97201 39.3429 4.69482 39.1525 4.45361 38.9409C4.21663 38.7251 4.03044 38.4733 3.89502 38.1855C3.7596 37.8978 3.69189 37.5635 3.69189 37.1826C3.69189 36.806 3.75749 36.4632 3.88867 36.1543C4.02409 35.8411 4.21452 35.5724 4.45996 35.3481C4.70964 35.1196 5.00586 34.944 5.34863 34.8213C5.69141 34.6943 6.07015 34.6309 6.48486 34.6309C7.08154 34.6309 7.59147 34.7578 8.01465 35.0117C8.44206 35.2656 8.7679 35.6063 8.99219 36.0337C9.2207 36.4611 9.33496 36.9351 9.33496 37.4556H7.79883C7.79883 37.1551 7.75228 36.8885 7.65918 36.6558C7.56608 36.423 7.4222 36.241 7.22754 36.1099C7.03288 35.9787 6.78109 35.9131 6.47217 35.9131C6.18864 35.9131 5.95378 35.9681 5.76758 36.0781C5.58561 36.1882 5.4502 36.3384 5.36133 36.5288C5.27669 36.7192 5.23438 36.9372 5.23438 37.1826C5.23438 37.3519 5.27035 37.5063 5.34229 37.646C5.41423 37.7814 5.5179 37.9062 5.65332 38.0205C5.78874 38.1348 5.95378 38.2427 6.14844 38.3442C6.3431 38.4458 6.56738 38.5431 6.82129 38.6362C7.25293 38.7928 7.62956 38.9663 7.95117 39.1567C8.27279 39.3472 8.53727 39.5609 8.74463 39.7979C8.95622 40.0306 9.11279 40.2951 9.21436 40.5913C9.32015 40.8875 9.37305 41.224 9.37305 41.6006C9.37305 41.9814 9.30745 42.3285 9.17627 42.6416C9.04932 42.9505 8.86312 43.215 8.61768 43.4351C8.37223 43.6551 8.07601 43.8265 7.729 43.9492C7.382 44.0677 6.99268 44.127 6.56104 44.127C6.16325 44.127 5.78027 44.0677 5.41211 43.9492C5.04818 43.8307 4.72233 43.6509 4.43457 43.4097C4.14681 43.1642 3.91829 42.8574 3.74902 42.4893C3.58398 42.1211 3.50146 41.6895 3.50146 41.1943H5.04395C5.04395 41.4906 5.07992 41.7445 5.15186 41.9561C5.2238 42.1634 5.32747 42.3348 5.46289 42.4702C5.60254 42.6014 5.76546 42.6987 5.95166 42.7622C6.14209 42.8215 6.35368 42.8511 6.58643 42.8511C6.87419 42.8511 7.10905 42.8003 7.29102 42.6987C7.47721 42.5929 7.61475 42.4469 7.70361 42.2607C7.79248 42.0745 7.83691 41.8587 7.83691 41.6133ZM14.5697 34.7578V44H13.0336V34.7578H14.5697ZM16.9247 34.7578V36.0527H10.704V34.7578H16.9247ZM21.1375 36.0273L18.9032 44H17.2909L20.2235 34.7578H21.2264L21.1375 36.0273ZM22.9212 44L20.6805 36.0273L20.5726 34.7578H21.5946L24.5399 44H22.9212ZM22.9593 40.5659V41.8608H18.6556V40.5659H22.9593ZM26.5754 34.7578H27.9783L30.1047 41.6323L32.2249 34.7578H33.5261L30.6824 44H29.5208L26.5754 34.7578ZM26.0486 34.7578H27.3435L27.553 40.6421V44H26.0486V34.7578ZM32.8533 34.7578H34.1546V44H32.6502V40.6421L32.8533 34.7578ZM39.3957 40.5723H37.447V39.2837H39.3957C39.7131 39.2837 39.9691 39.216 40.1637 39.0806C40.3626 38.9451 40.5065 38.759 40.5954 38.522C40.6885 38.285 40.735 38.0163 40.735 37.7158C40.735 37.4281 40.6885 37.1572 40.5954 36.9033C40.5065 36.6494 40.3648 36.4442 40.1701 36.2876C39.9754 36.131 39.7173 36.0527 39.3957 36.0527H37.8786V44H36.3425V34.7578H39.3957C40.0051 34.7578 40.5256 34.8848 40.9572 35.1387C41.3888 35.3926 41.7189 35.7417 41.9474 36.186C42.176 36.6261 42.2902 37.1318 42.2902 37.7031C42.2902 38.2998 42.176 38.8118 41.9474 39.2393C41.7189 39.6667 41.3888 39.9967 40.9572 40.2295C40.5256 40.458 40.0051 40.5723 39.3957 40.5723ZM48.0836 41.6133C48.0836 41.4229 48.0624 41.2536 48.0201 41.1055C47.982 40.9531 47.908 40.8156 47.798 40.6929C47.6879 40.5701 47.5313 40.4495 47.3282 40.3311C47.1293 40.2126 46.8712 40.092 46.5538 39.9692C46.1899 39.8296 45.8492 39.6772 45.5318 39.5122C45.2187 39.3429 44.9415 39.1525 44.7003 38.9409C44.4633 38.7251 44.2771 38.4733 44.1417 38.1855C44.0063 37.8978 43.9386 37.5635 43.9386 37.1826C43.9386 36.806 44.0042 36.4632 44.1354 36.1543C44.2708 35.8411 44.4612 35.5724 44.7066 35.3481C44.9563 35.1196 45.2525 34.944 45.5953 34.8213C45.9381 34.6943 46.3168 34.6309 46.7315 34.6309C47.3282 34.6309 47.8382 34.7578 48.2613 35.0117C48.6887 35.2656 49.0146 35.6063 49.2389 36.0337C49.4674 36.4611 49.5816 36.9351 49.5816 37.4556H48.0455C48.0455 37.1551 47.999 36.8885 47.9059 36.6558C47.8128 36.423 47.6689 36.241 47.4742 36.1099C47.2796 35.9787 47.0278 35.9131 46.7188 35.9131C46.4353 35.9131 46.2005 35.9681 46.0143 36.0781C45.8323 36.1882 45.6969 36.3384 45.608 36.5288C45.5234 36.7192 45.4811 36.9372 45.4811 37.1826C45.4811 37.3519 45.517 37.5063 45.589 37.646C45.6609 37.7814 45.7646 37.9062 45.9 38.0205C46.0354 38.1348 46.2005 38.2427 46.3951 38.3442C46.5898 38.4458 46.8141 38.5431 47.068 38.6362C47.4996 38.7928 47.8762 38.9663 48.1979 39.1567C48.5195 39.3472 48.784 39.5609 48.9913 39.7979C49.2029 40.0306 49.3595 40.2951 49.461 40.5913C49.5668 40.8875 49.6197 41.224 49.6197 41.6006C49.6197 41.9814 49.5541 42.3285 49.423 42.6416C49.296 42.9505 49.1098 43.215 48.8644 43.4351C48.6189 43.6551 48.3227 43.8265 47.9757 43.9492C47.6287 44.0677 47.2394 44.127 46.8077 44.127C46.4099 44.127 46.027 44.0677 45.6588 43.9492C45.2949 43.8307 44.969 43.6509 44.6813 43.4097C44.3935 43.1642 44.165 42.8574 43.9957 42.4893C43.8307 42.1211 43.7481 41.6895 43.7481 41.1943H45.2906C45.2906 41.4906 45.3266 41.7445 45.3985 41.9561C45.4705 42.1634 45.5742 42.3348 45.7096 42.4702C45.8492 42.6014 46.0121 42.6987 46.1983 42.7622C46.3888 42.8215 46.6004 42.8511 46.8331 42.8511C47.1209 42.8511 47.3557 42.8003 47.5377 42.6987C47.7239 42.5929 47.8614 42.4469 47.9503 42.2607C48.0392 42.0745 48.0836 41.8587 48.0836 41.6133Z" fill="#353535"/>
</svg>
