<svg width="75" height="45" viewBox="0 0 75 45" fill="none" xmlns="http://www.w3.org/2000/svg">
<path d="M5.952 9.576C4.944 9.576 3.936 9.504 2.904 9.504C2.376 9.504 2.304 9.768 2.304 10.872C2.304 11.736 2.328 12.096 2.952 12.096C3.96 12.096 4.968 12.048 5.952 12.048H10.824C11.136 12.048 11.4 12.288 11.4 12.6C11.4 12.792 11.232 13.56 11.184 13.776C10.776 15.504 9.696 17.208 8.16 18.144C7.248 18.72 6.192 19.104 5.16 19.392C4.944 19.44 4.488 19.536 4.488 19.8C4.488 20.208 5.808 21.792 6.336 21.792C6.792 21.792 8.376 20.976 8.832 20.736C11.856 19.08 13.488 16.56 14.016 13.176C14.088 12.672 14.112 12.048 14.784 12.048H17.928C18.96 12.048 19.992 12.096 21.048 12.096C21.696 12.096 21.696 11.64 21.696 10.824C21.696 9.696 21.72 9.504 20.976 9.504C19.944 9.504 18.936 9.576 17.928 9.576H5.952ZM9.216 3.288C8.16 3.288 7.128 3.24 6.096 3.24C5.472 3.24 5.448 3.504 5.448 4.512C5.448 5.424 5.376 5.808 6.096 5.808C7.104 5.808 8.136 5.76 9.168 5.76H14.4C15.432 5.76 16.464 5.808 17.472 5.808C18.144 5.808 18.12 5.472 18.12 4.728C18.12 3.552 18.144 3.24 17.496 3.24C16.44 3.24 15.408 3.288 14.376 3.288H9.216ZM31.7944 10.176C30.7864 10.176 29.1304 10.104 28.8184 10.104C28.1944 10.104 28.1464 10.296 28.1464 11.64C28.1464 12.384 28.1704 12.84 28.7944 12.84C29.8024 12.84 30.8104 12.792 31.7944 12.792H42.8344C43.8184 12.792 44.8264 12.84 45.8344 12.84C46.4584 12.84 46.4824 12.384 46.4824 11.616C46.4824 10.296 46.4584 10.104 45.8104 10.104C45.4984 10.104 43.9384 10.176 42.8344 10.176H31.7944ZM56.6104 6.696C55.5784 6.696 54.5464 6.648 53.4904 6.648C52.8904 6.648 52.9144 6.912 52.9144 8.16C52.9144 8.832 52.8904 9.312 53.5384 9.312C54.3544 9.312 55.5544 9.24 56.6104 9.24H66.6904C67.1464 9.24 67.5784 9.216 67.5784 9.552C67.5784 9.84 66.3304 10.992 66.0664 11.232C65.1064 12.144 64.0984 13.032 63.0664 13.896C62.8984 14.04 62.7304 14.16 62.4904 14.16C62.2024 14.16 62.0584 13.992 61.8664 13.8C61.5544 13.488 60.3544 12.264 59.9944 12.264C59.5144 12.264 58.2184 13.344 58.2184 13.704C58.2184 13.92 58.5304 14.184 58.6744 14.328C60.3304 15.792 61.8424 17.616 63.0184 19.512C63.1144 19.704 63.2584 19.944 63.4984 19.944C64.0024 19.944 65.4904 18.984 65.4904 18.528C65.4904 18.312 64.7704 17.304 64.6024 17.064C64.4584 16.848 64.2424 16.632 64.2424 16.368C64.2424 16.056 64.4824 15.864 64.6984 15.672C66.9064 13.824 69.0184 11.832 71.0584 9.816C71.2744 9.6 71.4904 9.408 71.7064 9.216C72.1144 8.856 72.4504 8.544 72.4504 8.4C72.4504 8.112 71.2504 6.6 70.7704 6.6C70.6984 6.6 70.6024 6.6 70.5304 6.624C70.1464 6.696 69.6424 6.696 69.1864 6.696H56.6104Z" fill="black"/>
<path d="M5.22119 33.7578V43H3.68506V33.7578H5.22119ZM7.57617 33.7578V35.0527H1.35547V33.7578H7.57617ZM13.9317 37.6045V38.8994H10.0406V37.6045H13.9317ZM10.4024 33.7578V43H8.85992V33.7578H10.4024ZM15.1378 33.7578V43H13.6016V33.7578H15.1378ZM22.0963 41.7114V43H18.0846V41.7114H22.0963ZM18.4908 33.7578V43H16.9484V33.7578H18.4908ZM21.5568 37.6045V38.874H18.0846V37.6045H21.5568ZM22.0582 33.7578V35.0527H18.0846V33.7578H22.0582ZM23.964 33.7578H25.3669L27.4933 40.6323L29.6135 33.7578H30.9147L28.071 43H26.9094L23.964 33.7578ZM23.4372 33.7578H24.7321L24.9416 39.6421V43H23.4372V33.7578ZM30.2419 33.7578H31.5431V43H30.0387V39.6421L30.2419 33.7578ZM38.489 41.7114V43H34.4773V41.7114H38.489ZM34.8835 33.7578V43H33.3411V33.7578H34.8835ZM37.9495 37.6045V38.874H34.4773V37.6045H37.9495ZM38.4509 33.7578V35.0527H34.4773V33.7578H38.4509Z" fill="#5F5F5F"/>
</svg>
