<svg width="182" height="77" viewBox="0 0 182 77" fill="none" xmlns="http://www.w3.org/2000/svg">
<path d="M44.85 62.755C44.85 61.735 42.215 57.995 41.535 56.975C40.6 55.7 37.88 51.535 36.265 51.535C34.99 51.535 30.995 54.51 30.995 55.785C30.995 56.295 31.42 56.72 31.675 57.06C32.525 58.08 33.46 59.355 34.14 60.46C34.65 61.225 35.16 61.905 35.67 62.585C37.285 65.05 38.56 66.92 39.495 66.92C40.77 66.92 44.85 64.625 44.85 62.755ZM62.105 40.145C62.02 38.19 62.19 37.595 63.125 37.17C63.72 36.83 64.4 36.575 64.4 36.065C64.4 35.215 62.87 35.215 62.19 35.13C60.575 34.96 56.58 34.62 54.965 34.62C54.285 34.62 53.52 34.79 53.52 35.725V36.405C53.775 37.68 53.775 38.87 53.86 40.145C53.69 41.76 53.18 42.355 51.48 42.355H39.155C36.35 42.355 33.46 42.185 30.57 42.185C28.445 42.185 28.53 43.205 28.53 46.265C28.53 49.325 28.53 50.26 30.57 50.26C33.46 50.26 36.265 50.09 39.155 50.09H51.48C53.18 50.09 53.86 50.77 53.86 52.47V61.82C53.86 66.835 53.775 67.855 49.1 67.855C47.145 67.855 45.02 67.685 44.68 67.685C43.405 67.685 43.235 68.875 43.235 69.895C43.235 76.95 45.445 76.525 49.015 76.525C54.88 76.525 62.19 76.185 62.19 68.45C62.19 66.665 62.105 64.795 62.105 63.01V52.47C62.105 50.855 62.7 50.175 64.315 50.09C66.355 50.175 68.395 50.26 70.435 50.26C72.475 50.26 72.475 49.24 72.475 46.265C72.475 43.205 72.475 42.185 70.35 42.185C68.31 42.185 66.355 42.355 64.315 42.355C62.87 42.355 62.105 41.675 62.105 40.145ZM53.265 6.315C53.265 4.785 53.35 3.765 54.2 3.17C54.71 2.83 55.305 2.57499 55.305 1.98C55.305 1.13 53.945 1.045 53.35 0.959995C51.99 0.789997 47.06 0.364997 45.87 0.364997C45.105 0.364997 44.34 0.534995 44.34 1.47C44.34 1.64 44.425 1.98 44.425 2.235C44.68 4.275 44.85 6.48499 44.765 8.525C44.765 10.225 44 10.905 42.385 10.905H41.79C38.73 10.905 35.755 10.65 32.695 10.65C30.74 10.65 30.74 11.5 30.74 14.475C30.74 17.365 30.74 18.215 32.61 18.215C35.67 18.215 38.73 18.045 41.79 18.045H42.385C44 18.045 44.765 18.725 44.765 20.425V23.995C44.765 25.61 44 26.375 42.385 26.375H39.24C35.84 26.375 32.355 26.12 28.955 26.12C26.575 26.12 26.66 27.055 26.66 30.115C26.66 33.09 26.575 34.025 28.87 34.025C32.355 34.025 35.755 33.855 39.24 33.855H60.66C64.06 33.855 67.545 34.025 71.03 34.025C73.325 34.025 73.24 33.09 73.24 30.115C73.24 27.055 73.325 26.12 70.945 26.12C67.545 26.12 64.06 26.375 60.66 26.375H55.645C53.945 26.375 53.265 25.61 53.265 23.995V20.425C53.265 18.725 53.945 18.045 55.645 18.045H58.62C61.68 18.045 64.74 18.215 67.8 18.215C69.67 18.215 69.67 17.45 69.67 14.475C69.67 11.5 69.67 10.65 67.715 10.65C64.655 10.65 61.68 10.905 58.62 10.905H55.645C53.945 10.905 53.265 10.225 53.265 8.525V6.315ZM14.59 36.405C16.035 36.575 16.8 37.34 16.97 38.785V48.05C16.8 49.495 16.035 50.26 14.59 50.43H11.615C10.17 50.26 9.405 49.495 9.235 48.05V38.785C9.405 37.34 10.17 36.575 11.615 36.405H14.59ZM11.615 29.01C10.17 28.84 9.405 28.16 9.235 26.63V18.13C9.405 16.685 10.17 15.92 11.615 15.75H14.59C16.035 15.92 16.8 16.685 16.97 18.13V26.63C16.8 28.16 16.035 28.84 14.59 29.01H11.615ZM14.845 58.25C16.12 58.25 16.8 58.76 16.8 60.12C16.885 62.67 17.14 62.755 20.71 62.755C23.685 62.755 24.62 62.755 24.62 60.8C24.62 57.655 24.45 54.51 24.45 51.365V19.065C24.45 16.685 24.535 14.22 24.535 11.84C24.535 9.12 23.94 7.845 21.135 7.845C19.605 7.845 18.16 7.93 16.63 7.93H8.895C7.365 7.93 5.835 7.845 4.39 7.845C1.5 7.845 0.99 9.29 0.99 11.84C0.99 14.22 1.075 16.685 1.075 19.065V54.765C1.075 57.91 0.905 60.97 0.905 64.03C0.905 66.155 1.755 66.155 5.07 66.155C8.47 66.155 9.405 66.24 9.405 64.115C9.405 62.84 9.32 61.65 9.32 60.46C9.405 58.845 10.085 58.25 11.615 58.25H14.845ZM174.985 14.9C174.985 13.71 171.33 9.12 170.395 7.93C168.95 6.23 167.59 4.52999 165.975 2.915C165.465 2.32 165.04 1.98 164.275 1.98C162.915 1.98 158.58 4.275 158.58 5.805C158.58 6.4 159.26 7.08 159.6 7.505C162.49 10.65 164.955 13.88 167.335 17.45C167.845 18.13 168.27 18.81 169.205 18.81C170.395 18.81 174.985 16.6 174.985 14.9ZM155.605 34.45C155.605 34.28 155.52 33.94 155.52 33.77C155.52 32.495 156.37 31.9 157.475 31.815L172.265 30.71C174.305 30.54 175.75 30.455 176.94 30.455C180.765 30.285 180.935 29.945 180.935 27.395C180.935 22.72 180.085 21.7 179.065 21.7C178.13 21.7 173.455 22.295 171.755 22.465L156.625 23.655C155.095 23.74 154.415 23.145 154.245 21.615C153.82 16.515 153.48 11.415 153.48 6.315C153.48 5.04 153.565 4.445 154.415 4.10499C155.095 3.765 155.775 3.51 155.775 2.66C155.775 1.3 153.905 1.3 149.655 0.959995C149.06 0.874996 146.85 0.619994 146.34 0.619994C145.15 0.619994 144.555 1.13 144.555 2.32C144.555 2.915 144.725 5.04 144.725 5.72C144.895 13.2 145.065 16.6 145.575 22.21C145.575 23.74 145.15 24.335 143.62 24.59L138.35 25.015C136.395 25.185 134.525 25.185 133.335 25.27C130.02 25.44 129.425 25.525 129.425 27.225C129.425 32.75 129.85 34.025 131.465 34.025C132.06 34.025 137.67 33.345 138.775 33.26L144.555 32.835C146.17 32.75 146.935 33.345 147.19 34.96C148.975 45.585 151.95 58.59 157.985 67.6C160.62 71.595 164.36 76.1 169.545 76.1C174.05 76.1 176.685 73.21 178.64 69.385C179.66 67.515 181.615 62.33 181.615 60.29C181.615 57.57 176.855 56.125 175.58 56.125C174.645 56.125 174.39 56.805 174.22 57.57C173.795 60.12 172.605 66.665 169.375 66.665C168.1 66.665 166.995 65.73 166.23 64.795C159.855 56.805 157.05 44.395 155.605 34.45ZM116.505 62.245C116.505 65.985 116.25 69.81 116.25 73.55C116.25 76.27 117.185 76.27 120.84 76.27C124.58 76.27 125.43 76.27 125.43 73.55C125.43 69.81 125.26 65.985 125.26 62.245V32.24C125.26 29.605 125.345 28.33 126.195 27.65C126.79 27.225 127.215 27.055 127.215 26.46C127.215 25.61 126.28 25.525 125.6 25.44C125.345 25.355 125.005 25.185 125.005 24.845C125.005 24.675 125.26 24.25 125.345 24.08C128.49 18.64 130.87 13.54 133.08 7.67499C133.675 5.975 133.76 5.805 135.12 5.29499C135.63 5.125 136.395 4.785 136.395 4.19C136.395 3.085 134.78 2.66 132.06 1.725C131.295 1.47 127.81 0.194995 127.3 0.194995C126.28 0.194995 125.855 1.64 125.6 2.405C121.69 14.39 114.72 26.035 106.305 35.385C105.71 36.065 104.775 36.915 104.775 37.85C104.775 39.38 108.345 43.63 109.96 43.63C111.32 43.63 114.125 39.975 115.06 38.87C115.315 38.7 115.485 38.53 115.74 38.53C116.335 38.53 116.505 39.04 116.505 39.465V62.245Z" fill="black"/>
</svg>
