<svg width="148" height="87" viewBox="0 0 148 87" fill="none" xmlns="http://www.w3.org/2000/svg">
<path d="M11.904 19.152C9.888 19.152 7.872 19.008 5.808 19.008C4.752 19.008 4.608 19.536 4.608 21.744C4.608 23.472 4.656 24.192 5.904 24.192C7.92 24.192 9.936 24.096 11.904 24.096H21.648C22.272 24.096 22.8 24.576 22.8 25.2C22.8 25.584 22.464 27.12 22.368 27.552C21.552 31.008 19.392 34.416 16.32 36.288C14.496 37.44 12.384 38.208 10.32 38.784C9.888 38.88 8.976 39.072 8.976 39.6C8.976 40.416 11.616 43.584 12.672 43.584C13.584 43.584 16.752 41.952 17.664 41.472C23.712 38.16 26.976 33.12 28.032 26.352C28.176 25.344 28.224 24.096 29.568 24.096H35.856C37.92 24.096 39.984 24.192 42.096 24.192C43.392 24.192 43.392 23.28 43.392 21.648C43.392 19.392 43.44 19.008 41.952 19.008C39.888 19.008 37.872 19.152 35.856 19.152H11.904ZM18.432 6.576C16.32 6.576 14.256 6.48 12.192 6.48C10.944 6.48 10.896 7.008 10.896 9.024C10.896 10.848 10.752 11.616 12.192 11.616C14.208 11.616 16.272 11.52 18.336 11.52H28.8C30.864 11.52 32.928 11.616 34.944 11.616C36.288 11.616 36.24 10.944 36.24 9.456C36.24 7.104 36.288 6.48 34.992 6.48C32.88 6.48 30.816 6.576 28.752 6.576H18.432ZM63.1088 20.352C61.0928 20.352 57.7808 20.208 57.1568 20.208C55.9088 20.208 55.8128 20.592 55.8128 23.28C55.8128 24.768 55.8608 25.68 57.1088 25.68C59.1248 25.68 61.1408 25.584 63.1088 25.584H85.1888C87.1568 25.584 89.1728 25.68 91.1888 25.68C92.4368 25.68 92.4848 24.768 92.4848 23.232C92.4848 20.592 92.4368 20.208 91.1408 20.208C90.5168 20.208 87.3968 20.352 85.1888 20.352H63.1088ZM112.261 13.392C110.197 13.392 108.133 13.296 106.021 13.296C104.821 13.296 104.869 13.824 104.869 16.32C104.869 17.664 104.821 18.624 106.117 18.624C107.749 18.624 110.149 18.48 112.261 18.48H132.421C133.333 18.48 134.197 18.432 134.197 19.104C134.197 19.68 131.701 21.984 131.173 22.464C129.253 24.288 127.237 26.064 125.173 27.792C124.837 28.08 124.501 28.32 124.021 28.32C123.445 28.32 123.157 27.984 122.773 27.6C122.149 26.976 119.749 24.528 119.029 24.528C118.069 24.528 115.477 26.688 115.477 27.408C115.477 27.84 116.101 28.368 116.389 28.656C119.701 31.584 122.725 35.232 125.077 39.024C125.269 39.408 125.557 39.888 126.037 39.888C127.045 39.888 130.021 37.968 130.021 37.056C130.021 36.624 128.581 34.608 128.245 34.128C127.957 33.696 127.525 33.264 127.525 32.736C127.525 32.112 128.005 31.728 128.437 31.344C132.853 27.648 137.077 23.664 141.157 19.632C141.589 19.2 142.021 18.816 142.453 18.432C143.269 17.712 143.941 17.088 143.941 16.8C143.941 16.224 141.541 13.2 140.581 13.2C140.437 13.2 140.245 13.2 140.101 13.248C139.333 13.392 138.325 13.392 137.413 13.392H112.261Z" fill="black"/>
<path d="M16.543 63.0938V83H12.5645V63.0938H16.543ZM21.4922 63.0938V66.416H7.71094V63.0938H21.4922ZM34.8496 71.1602V74.4688H26.6875V71.1602H34.8496ZM27.8223 63.0938V83H23.8164V63.0938H27.8223ZM37.748 63.0938V83H33.7832V63.0938H37.748ZM52.4316 79.6914V83H43.7773V79.6914H52.4316ZM45.0215 63.0938V83H41.0156V63.0938H45.0215ZM51.2695 71.1602V74.373H43.7773V71.1602H51.2695ZM52.4043 63.0938V66.416H43.7773V63.0938H52.4043ZM56.1914 63.0938H59.7051L63.7656 76.7109L67.8125 63.0938H70.916L65.2559 83H62.2617L56.1914 63.0938ZM54.7695 63.0938H58.1191L58.6387 76.2188V83H54.7695V63.0938ZM69.3848 63.0938H72.748V83H68.8926V76.2188L69.3848 63.0938ZM87.4316 79.6914V83H78.7773V79.6914H87.4316ZM80.0215 63.0938V83H76.0156V63.0938H80.0215ZM86.2695 71.1602V74.373H78.7773V71.1602H86.2695ZM87.4043 63.0938V66.416H78.7773V63.0938H87.4043Z" fill="black"/>
</svg>
