<svg width="114" height="45" viewBox="0 0 114 45" fill="none" xmlns="http://www.w3.org/2000/svg">
<path d="M15.55 44.4C30.3 43.4 39.95 36.35 44.6 23.95C44.85 23.15 45.2 22.9 45.7 22.9C46.75 22.85 47.5 22.5 47.5 22C47.5 20.9 43.65 19.25 42.95 19.25C42.5 19.25 42.5 19.6 42.5 19.9C41.55 27.2 34.6 40.7 15.7 42.4V42.3C15.7 35.7 15.5 28.75 15.5 22.05C17.4 23.7 19.2 25.5 20.25 27.75C20.65 28.6 21.2 28.95 21.7 28.95C22.4 28.95 23.05 28.2 23.05 27.2C23.05 24.6 18.3 21.45 15.5 19.95C15.5 18.4 15.5 16.9 15.55 15.4H22.05C23 15.4 23.35 15.05 23.35 14.55C23.35 13.2 20.85 10.55 19.65 10.55C19.4 10.55 19.2 10.65 18.9 10.85C18.5 11.2 17.8 12.25 17.3 12.75C16.85 13.3 16.65 13.45 15.75 13.45H15.55C15.6 11.6 15.7 9.8 15.8 8.05C15.8 7.5 15.95 7.35 16.3 7.15C16.8 6.9 17.2 6.55 17.2 6.25C17.2 6.05 17.05 5.8 15.55 5.45C16.4 5.15 17.1 4.85 17.7 4.6C18.25 4.35 18.65 4.15 19 4.15C19.2 4.15 19.4 4.2 19.65 4.3C20 4.45 20.3 4.5 20.55 4.5C21 4.5 21.25 4.3 21.25 3.9C21.25 2.85 19.35 1.1 18.85 0.799999C18.75 0.749997 18.7 0.649998 18.6 0.649998C18.45 0.649998 18.3 0.749997 18.1 0.999999C14.5 4.15 6.65 6.1 4.95 6.45C4.7 6.5 4.65 6.75 4.65 7C4.65 7.55 5 8.3 5.45 8.3C6.1 8.3 8.7 7.85 12.9 6.4C12.95 6.75 13.3 8.4 13.3 13.45H12.45C10 13.45 6.15 13 4.2 12.75H4.1C3.85 12.75 3.8 12.85 3.8 13.05C3.8 13.8 5.5 16.1 6.5 16C8.3 15.75 11.3 15.4 13 15.4H13.35V18C10.1 23.55 4.85 29.6 0.35 32.75C0.2 32.85 0.15 33 0.15 33.15C0.15 33.55 0.7 34.15 1.2 34.15C1.4 34.15 8.15 30.85 13.3 22.3C13.2 30 12.9 38.2 12.7 42.35V42.5C12.7 43.4 13.35 43.8 14 43.8C14.25 43.8 14.5 43.75 14.7 43.65C14.85 44.05 15.1 44.4 15.45 44.4H15.55ZM36.1 25.1C35.95 22.95 35.85 17.35 35.85 12.05C35.85 8.9 35.9 5.85 35.95 3.75C35.95 3.25 36.1 2.95 36.35 2.85C37.35 2.45 37.7 2.05 37.7 1.75C37.7 1.35 37.25 1.05 36.8 0.899998C35.55 0.399998 33.3 0.299999 33.3 0.299999C33.05 0.299999 32.85 0.299999 32.85 0.699997C32.85 0.749997 32.9 0.899998 32.9 0.999999C33.3 2.7 33.4 5.45 33.4 14C33.4 18 33.35 21.85 33.3 24.3C33.25 25.95 32.35 26.4 30.75 26.4C29.6 26.4 28.05 26.2 26.25 26H26.2C25.85 26 25.65 26.55 25.65 27.05C25.65 27.4 25.75 27.7 26.05 27.75C27.4 28.05 30.1 28.25 30.85 29.4C31.05 29.75 31.25 29.9 31.55 29.9C32.2 29.9 36.1 29 36.1 25.45V25.1ZM21.05 23.15C22.05 23.15 26.15 18.3 29.2 12.45C29.5 11.95 29.75 11.65 30.2 11.65C30.95 11.6 31.55 11.2 31.55 10.7C31.55 9.65 28.55 8.35 27.8 8.35C27.55 8.35 27.45 8.45 27.4 8.8C26.35 13.75 22.65 18.9 20.05 21.75C19.95 21.85 19.9 22 19.9 22.15C19.9 22.65 20.45 23.15 21.05 23.15ZM47.75 18.55C48.5 18.55 49.05 17.9 49.05 16.9C49.05 13 39.65 8.8 39.2 8.8C38.65 8.8 38.1 9.4 38.1 9.95C38.1 10.15 38.2 10.3 38.4 10.45C41.85 12.45 44 14.4 45.95 17.25C46.55 18.15 47.2 18.55 47.75 18.55ZM88.05 22.95C88.95 22.95 89.3 22.65 89.3 22.2C89.3 21.05 86.95 18.7 85.85 18.7C85.65 18.7 85.45 18.8 85.15 19C84.8 19.35 84.35 19.8 83.9 20.35C83.5 20.85 83.2 21.15 82.4 21.15H81.45L81.55 17.55C81.6 16.95 81.75 16.85 82.15 16.6C82.45 16.4 82.75 16.15 82.75 15.9C82.75 15.75 82.6 15.55 82.3 15.45H86.2C87.05 15.45 87.35 15.15 87.35 14.75C87.35 13.65 85 11.45 84.1 11.45C83.9 11.45 83.3 11.65 82.35 13.05C81.95 13.55 81.95 13.8 81.3 13.8H78.6C76.75 13.8 76 13.6 74.85 13.35C77.05 10.55 78.95 7.65 80.35 5.4C83.2 7.05 85.45 9.1 86.75 11.15C87.35 12.15 88 12.55 88.55 12.55C89.35 12.55 89.9 11.8 89.9 10.8C89.9 7.9 84.6 5.5 81.25 4.05C81.5 3.8 81.8 3.65 82.1 3.65H82.5C83.4 3.65 83.9 3.4 83.9 2.95C83.9 1.8 80.8 -2.6226e-06 79.85 -2.6226e-06C79.6 -2.6226e-06 79.5 0.149998 79.4 0.449998C77.65 5.7 70.1 17 64.95 20.8C64.75 20.9 64.7 21.1 64.7 21.25C64.7 21.75 65.25 22.25 65.8 22.25C66.4 22.25 69.55 20.05 74.15 14.25C74.6 15.05 75.4 15.9 75.95 15.9H76C77.35 15.7 77.5 15.5 78.65 15.45L78.7 15.5C78.85 16 78.95 16.75 79.15 21.15H77.75C75.45 21.15 72.2 20.8 70.45 20.55H70.4C70.3 20.55 70.25 20.6 70.25 20.7C70.25 21.4 71.9 23.5 72.6 23.4C74.1 23.2 75.9 22.95 77.5 22.95H79.15V25.05C79.15 29.25 79.05 33.8 79.05 36.1C77.55 36.5 69.5 38.7 67.25 38.7C67 38.7 66.85 38.75 66.85 38.9C66.85 39.05 68.35 42.6 69.5 42.6C70.2 42.6 70.4 41.25 70.85 41.1C91.95 34.25 92.5 34.05 92.5 33.1C92.5 32.6 92.15 32.05 91.65 32.05C91.55 32.05 91.5 32.05 91.4 32.1C89.35 32.95 85.5 34.2 81.5 35.4C81.45 32.6 81.45 29.45 81.45 26.5V22.95H88.05ZM98.3 43.35C98.3 44.25 98.95 44.65 99.7 44.65C100.55 44.65 101.65 44.1 101.6 43.05C101.4 36.8 101.25 27.7 101.25 19.6H112.35C113.3 19.6 113.65 19.25 113.65 18.75C113.65 17.45 110.85 14.3 109.35 14.3C108.75 14.3 108.35 14.8 106.75 16.75C106.25 17.3 106 17.55 105.05 17.55H101.25C101.25 12.4 101.35 7.85 101.5 5C101.5 4.35 101.65 3.95 102.05 3.75C102.85 3.4 103.35 2.9 103.35 2.45C103.35 1.55 102.35 1.35 98.9 0.849998H98.55C98.1 0.849998 98 0.949997 98 1.15C98 1.35 98.05 1.6 98.15 1.95C98.55 3.65 98.75 7.2 98.75 17.55H97.45C94.95 17.55 92.05 17.45 88.4 17H88.35C88.2 17 88.1 17.1 88.1 17.25C88.1 17.8 89.6 20.35 90.65 20.2C93.95 19.8 96.25 19.6 98.05 19.6H98.75C98.75 28.4 98.55 38.4 98.3 43.25V43.35ZM83.8 32.85C84.7 31.8 86.35 29.3 87.1 28.35C87.45 27.9 87.45 27.85 88.2 27.8C89.15 27.7 89.55 27.3 89.55 26.9C89.55 26 86.8 24.95 86 24.75C85.9 24.7 85.8 24.7 85.75 24.7C85.55 24.7 85.5 24.85 85.45 25.05C85.2 27.35 82.7 31.6 82.3 32.2C82.25 32.25 82.25 32.35 82.25 32.4C82.25 32.75 82.75 33.1 83.2 33.1C83.45 33.1 83.65 33 83.8 32.85ZM76.1 33.4C76.8 33.4 77.45 32.6 77.45 31.55C77.45 28.75 72 26.2 71.85 26.2C71.35 26.2 70.75 26.8 70.75 27.2C70.75 27.35 70.8 27.45 70.95 27.55C72.3 28.35 73.85 30.4 74.65 32.15C75.05 33.05 75.6 33.4 76.1 33.4Z" fill="black"/>
</svg>
