<svg width="135" height="47" viewBox="0 0 135 47" fill="none" xmlns="http://www.w3.org/2000/svg">
<rect width="135" height="47" rx="23.5" fill="#303030"/>
<path d="M52.966 32.26C52.93 32.14 52.864 31.99 52.768 31.81C52.672 31.63 52.57 31.45 52.462 31.27C52.354 31.102 52.258 30.976 52.174 30.892C53.914 30.388 55.396 29.638 56.62 28.642C55.744 27.61 55.096 26.422 54.676 25.078H53.416V23.656H60.922L61.534 24.142C61.222 25.018 60.838 25.834 60.382 26.59C59.938 27.334 59.434 28.018 58.87 28.642C59.47 29.11 60.154 29.518 60.922 29.866C61.69 30.202 62.512 30.472 63.388 30.676C63.304 30.772 63.196 30.916 63.064 31.108C62.944 31.312 62.83 31.51 62.722 31.702C62.614 31.894 62.542 32.044 62.506 32.152C61.522 31.876 60.634 31.534 59.842 31.126C59.05 30.718 58.348 30.256 57.736 29.74C56.38 30.88 54.79 31.72 52.966 32.26ZM47.782 32.296C47.77 32.152 47.74 31.972 47.692 31.756C47.656 31.552 47.614 31.348 47.566 31.144C47.518 30.94 47.47 30.784 47.422 30.676H48.718C48.958 30.676 49.126 30.634 49.222 30.55C49.33 30.466 49.384 30.31 49.384 30.082V26.302C48.856 26.506 48.37 26.692 47.926 26.86C47.494 27.016 47.194 27.124 47.026 27.184L46.612 25.492C46.912 25.42 47.308 25.306 47.8 25.15C48.304 24.994 48.832 24.82 49.384 24.628V21.01H46.9V19.48H49.384V15.97H50.986V19.48H52.912V21.01H50.986V24.07C51.406 23.902 51.79 23.752 52.138 23.62C52.498 23.476 52.786 23.356 53.002 23.26V24.808C52.822 24.892 52.552 25.012 52.192 25.168C51.832 25.324 51.43 25.492 50.986 25.672V30.676C50.986 31.24 50.83 31.648 50.518 31.9C50.206 32.164 49.732 32.296 49.096 32.296H47.782ZM54.028 23.386C53.884 23.206 53.698 23.014 53.47 22.81C53.254 22.594 53.044 22.426 52.84 22.306C53.26 21.994 53.602 21.676 53.866 21.352C54.13 21.028 54.322 20.644 54.442 20.2C54.574 19.756 54.64 19.198 54.64 18.526V16.528H59.968V20.686C59.968 20.842 59.998 20.95 60.058 21.01C60.13 21.058 60.268 21.082 60.472 21.082H61.048C61.216 21.082 61.348 21.052 61.444 20.992C61.54 20.932 61.618 20.794 61.678 20.578C61.75 20.35 61.816 20.002 61.876 19.534C62.068 19.618 62.314 19.708 62.614 19.804C62.926 19.888 63.19 19.948 63.406 19.984C63.334 20.752 63.202 21.328 63.01 21.712C62.818 22.096 62.572 22.348 62.272 22.468C61.972 22.588 61.6 22.648 61.156 22.648H60.076C59.452 22.648 59.014 22.564 58.762 22.396C58.522 22.216 58.402 21.934 58.402 21.55V17.986H56.17V18.634C56.17 19.642 56.008 20.536 55.684 21.316C55.36 22.096 54.808 22.786 54.028 23.386ZM57.736 27.598C58.084 27.214 58.396 26.812 58.672 26.392C58.96 25.972 59.206 25.534 59.41 25.078H56.242C56.41 25.558 56.614 26.008 56.854 26.428C57.106 26.836 57.4 27.226 57.736 27.598ZM66.844 23.026V18.94H70.696V17.788H65.566V16.438H81.316V17.788H76.078V18.94H80.038V23.026H66.844ZM71.002 32.422C70.978 32.218 70.93 31.954 70.858 31.63C70.798 31.306 70.726 31.054 70.642 30.874H72.046C72.286 30.874 72.46 30.832 72.568 30.748C72.676 30.664 72.73 30.508 72.73 30.28V27.652H65.512V26.338H81.406V27.652H74.296V30.802C74.296 31.366 74.14 31.774 73.828 32.026C73.516 32.29 73.042 32.422 72.406 32.422H71.002ZM67.42 25.294V24.052H79.534V25.294H67.42ZM80.47 31.864C79.954 31.66 79.408 31.402 78.832 31.09C78.256 30.79 77.698 30.46 77.158 30.1C76.63 29.728 76.162 29.356 75.754 28.984L76.816 27.886C77.164 28.198 77.596 28.528 78.112 28.876C78.64 29.224 79.192 29.542 79.768 29.83C80.344 30.118 80.878 30.346 81.37 30.514C81.286 30.598 81.184 30.724 81.064 30.892C80.944 31.06 80.83 31.234 80.722 31.414C80.614 31.594 80.53 31.744 80.47 31.864ZM66.412 31.864C66.34 31.684 66.208 31.444 66.016 31.144C65.836 30.856 65.674 30.652 65.53 30.532C66.022 30.364 66.556 30.136 67.132 29.848C67.708 29.548 68.254 29.224 68.77 28.876C69.298 28.528 69.73 28.198 70.066 27.886L71.128 28.984C70.732 29.356 70.264 29.728 69.724 30.1C69.184 30.46 68.626 30.79 68.05 31.09C67.474 31.402 66.928 31.66 66.412 31.864ZM76.078 21.784H78.562V20.182H76.078V21.784ZM72.172 21.784H74.602V20.182H72.172V21.784ZM68.32 21.784H70.696V20.182H68.32V21.784ZM72.172 18.94H74.602V17.788H72.172V18.94ZM88.984 32.044C88.876 31.864 88.732 31.642 88.552 31.378C88.372 31.126 88.162 30.904 87.922 30.712C89.254 30.328 90.274 29.836 90.982 29.236C91.69 28.636 92.146 27.922 92.35 27.094C91.894 27.454 91.396 27.634 90.856 27.634C90.04 27.634 89.38 27.394 88.876 26.914C88.384 26.422 88.126 25.792 88.102 25.024C88.09 24.484 88.204 24.004 88.444 23.584C88.684 23.152 89.02 22.816 89.452 22.576C89.884 22.324 90.376 22.198 90.928 22.198C91.06 22.198 91.186 22.204 91.306 22.216C91.438 22.228 91.564 22.252 91.684 22.288C91.648 22.012 91.612 21.724 91.576 21.424C91.552 21.112 91.54 20.794 91.54 20.47C90.556 20.506 89.596 20.56 88.66 20.632C87.736 20.692 86.884 20.77 86.104 20.866C85.324 20.95 84.67 21.046 84.142 21.154L83.872 19.552C84.352 19.504 84.988 19.456 85.78 19.408C86.584 19.36 87.484 19.312 88.48 19.264C89.476 19.204 90.496 19.15 91.54 19.102V16.384H93.142V19.048C94.054 19 94.93 18.964 95.77 18.94C96.622 18.916 97.396 18.898 98.092 18.886C98.788 18.862 99.358 18.856 99.802 18.868L99.712 20.506C98.98 20.434 98.026 20.392 96.85 20.38C95.686 20.356 94.45 20.368 93.142 20.416C93.142 20.884 93.154 21.37 93.178 21.874C93.214 22.366 93.25 22.84 93.286 23.296C93.802 23.944 94.06 24.796 94.06 25.852C94.06 27.328 93.61 28.6 92.71 29.668C91.822 30.724 90.58 31.516 88.984 32.044ZM90.874 26.212C91.234 26.2 91.522 26.086 91.738 25.87C91.966 25.642 92.08 25.354 92.08 25.006C92.08 24.874 92.074 24.736 92.062 24.592C92.05 24.448 92.032 24.298 92.008 24.142C91.72 23.818 91.366 23.656 90.946 23.656C90.574 23.656 90.256 23.776 89.992 24.016C89.74 24.256 89.62 24.568 89.632 24.952C89.632 25.324 89.746 25.63 89.974 25.87C90.202 26.11 90.502 26.224 90.874 26.212ZM110.836 31.306C109.504 31.306 108.52 31.06 107.884 30.568C107.26 30.076 106.948 29.47 106.948 28.75C106.948 28.294 107.062 27.904 107.29 27.58C107.518 27.256 107.818 27.01 108.19 26.842C108.562 26.674 108.952 26.59 109.36 26.59C110.152 26.59 110.8 26.866 111.304 27.418C111.82 27.958 112.126 28.648 112.222 29.488C112.798 29.296 113.284 28.972 113.68 28.516C114.076 28.048 114.274 27.454 114.274 26.734C114.274 26.182 114.142 25.696 113.878 25.276C113.626 24.856 113.272 24.526 112.816 24.286C112.36 24.046 111.832 23.926 111.232 23.926C109.66 23.926 108.352 24.376 107.308 25.276C107.092 25.468 106.804 25.714 106.444 26.014C106.084 26.302 105.748 26.56 105.436 26.788L104.32 25.582C104.884 25.246 105.49 24.814 106.138 24.286C106.786 23.758 107.428 23.176 108.064 22.54C108.712 21.904 109.324 21.25 109.9 20.578C110.476 19.906 110.98 19.252 111.412 18.616C110.908 18.736 110.332 18.856 109.684 18.976C109.036 19.084 108.4 19.18 107.776 19.264C107.164 19.336 106.642 19.384 106.21 19.408L105.922 17.824C106.246 17.836 106.648 17.83 107.128 17.806C107.62 17.77 108.136 17.722 108.676 17.662C109.228 17.602 109.762 17.536 110.278 17.464C110.806 17.38 111.274 17.29 111.682 17.194C112.102 17.098 112.408 17.008 112.6 16.924L113.842 17.77C113.566 18.31 113.206 18.886 112.762 19.498C112.33 20.098 111.85 20.704 111.322 21.316C110.794 21.928 110.248 22.516 109.684 23.08C109.96 22.948 110.266 22.84 110.602 22.756C110.938 22.672 111.262 22.63 111.574 22.63C112.45 22.63 113.218 22.804 113.878 23.152C114.538 23.5 115.054 23.98 115.426 24.592C115.81 25.204 116.002 25.918 116.002 26.734C116.002 27.61 115.78 28.396 115.336 29.092C114.904 29.776 114.298 30.316 113.518 30.712C112.75 31.108 111.856 31.306 110.836 31.306ZM110.53 29.776H110.746C110.71 29.248 110.566 28.816 110.314 28.48C110.062 28.144 109.744 27.976 109.36 27.976C109.108 27.976 108.898 28.042 108.73 28.174C108.574 28.294 108.496 28.474 108.496 28.714C108.496 29.014 108.652 29.26 108.964 29.452C109.276 29.644 109.798 29.752 110.53 29.776Z" fill="white"/>
<path d="M23.079 30.9317C22.7632 30.9317 22.4869 30.8155 22.25 30.5832C22.0132 30.3508 21.8948 30.0797 21.8948 29.7699V25.9362L24.5592 23.0513L25.4079 23.8838L23.079 26.3816H34.9211L32.7303 23.9419L33.579 23.1093L36.1053 25.9362V29.7699C36.1053 30.0797 35.9869 30.3508 35.75 30.5832C35.5132 30.8155 35.2369 30.9317 34.9211 30.9317H23.079ZM23.079 29.7699H34.9211V27.5433H23.079V29.7699ZM28.25 25.0262L25.1119 21.9476C24.8619 21.7024 24.75 21.4281 24.7764 21.1247C24.8027 20.8214 24.9342 20.5535 25.1711 20.3212L29.3553 16.2164C29.5781 16.0026 29.8542 15.8911 30.1836 15.8818C30.513 15.8725 30.7961 15.9841 31.0329 16.2164L34.1711 19.295C34.3948 19.5144 34.5099 19.7758 34.5165 20.0792C34.5231 20.3825 34.3948 20.6633 34.1316 20.9214L29.9474 25.0262C29.7237 25.2456 29.4474 25.3618 29.1185 25.3747C28.7895 25.3876 28.5 25.2715 28.25 25.0262ZM33.1645 20.0501L30.204 17.1458L26.0987 21.1731L29.0592 24.0775L33.1645 20.0501Z" fill="white"/>
</svg>
