<svg width="262" height="32" viewBox="0 0 262 32" fill="none" xmlns="http://www.w3.org/2000/svg">
<circle cx="6" cy="16" r="6" fill="#94C3C5"/>
<path d="M38.632 9.376C38.696 9.152 38.824 9.088 39.016 8.96C39.208 8.832 39.432 8.736 39.432 8.48C39.432 8.192 39.144 8.096 38.888 8.064C38.44 8 36.328 7.872 35.848 7.872C35.496 7.872 35.24 7.968 35.24 8.384C35.24 8.608 35.304 9.056 35.304 9.344C35.336 9.984 35.08 10.24 34.44 10.24H30.568C29.64 10.24 28.744 10.24 27.816 10.208C27.24 10.176 27.016 9.888 26.952 9.344C26.92 9.184 26.92 9.024 26.92 8.864V8.512C26.92 7.904 27.176 7.616 27.816 7.616H46.12C46.728 7.616 47.016 7.904 47.016 8.512V9.024C47.016 9.152 47.016 9.248 46.984 9.376C46.888 9.984 46.696 10.176 46.088 10.208C45.16 10.272 44.2 10.24 43.272 10.24H39.464C39.048 10.24 38.664 10.144 38.6 9.664V9.472L38.632 9.376ZM26.312 11.744C26.344 12.608 26.312 13.024 27.08 13.024C28.264 13.024 29.416 12.928 30.568 12.928H34.6C35.112 12.928 35.336 13.152 35.336 13.696V14.016C35.336 14.528 35.112 14.752 34.6 14.752H31.624C30.44 14.752 29.256 14.688 28.072 14.688C27.304 14.688 27.336 15.072 27.336 16.096C27.336 17.152 27.304 17.472 28.104 17.472C29.288 17.472 30.44 17.408 31.624 17.408H34.28C34.696 17.408 35.048 17.6 35.048 18.048V18.272C35.016 18.368 35.016 18.432 34.984 18.528C34.856 19.072 34.6 19.232 34.056 19.232H27.208C25.992 19.232 24.744 19.168 23.496 19.168C22.76 19.168 22.76 19.52 22.76 20.576C22.76 21.6 22.76 21.984 23.496 21.984C24.744 21.984 25.992 21.92 27.208 21.92H32.808C33.032 21.92 33.288 22.016 33.288 22.304C33.288 22.432 33.256 22.528 33.192 22.592C31.24 24.96 27.528 26.432 24.552 26.784C23.752 26.88 23.048 26.848 23.048 27.584C23.048 28.128 23.528 29.92 24.488 29.92C24.808 29.92 25.608 29.792 25.96 29.728C29.672 28.96 34.312 26.784 36.456 23.52C36.584 23.36 36.712 23.232 36.936 23.232C37.128 23.232 37.256 23.328 37.384 23.456C39.112 25.824 41.448 27.456 44.104 28.576C45.096 28.992 48.168 30.08 49.128 30.08C50.088 30.08 50.728 28.416 50.728 27.68C50.728 27.104 50.344 27.04 49.704 26.912C46.568 26.336 42.792 24.896 40.52 22.56C40.456 22.464 40.392 22.4 40.392 22.272C40.392 22.016 40.648 21.92 40.84 21.92H46.6C47.848 21.92 49.096 21.984 50.312 21.984C51.08 21.984 51.048 21.632 51.048 20.576C51.048 19.52 51.08 19.168 50.312 19.168C49.096 19.168 47.848 19.232 46.6 19.232H39.048C38.632 19.232 38.312 19.04 38.312 18.56V18.368C38.312 18.304 38.344 18.208 38.344 18.112C38.44 17.6 38.696 17.408 39.208 17.408H42.28C43.464 17.408 44.616 17.472 45.8 17.472C46.6 17.472 46.568 17.152 46.568 16.096C46.568 15.072 46.6 14.688 45.832 14.688C44.648 14.688 43.464 14.752 42.28 14.752H39.304C38.792 14.752 38.568 14.528 38.568 14.016V13.696C38.568 13.152 38.792 12.928 39.304 12.928H43.272C44.424 12.928 45.608 13.024 46.76 13.024C47.56 13.024 47.496 12.576 47.528 11.872C47.56 11.424 47.752 11.232 48.232 11.232H48.808C49.928 11.232 50.344 11.168 50.344 10.464C50.344 10.048 50.248 9.472 50.248 9.024V7.872C50.248 7.136 50.312 6.4 50.312 6.048C50.312 4.928 49.384 4.704 48.456 4.704C47.304 4.704 46.12 4.768 44.936 4.768H39.56C38.984 4.768 38.664 4.512 38.664 3.904C38.632 3.232 38.664 2.784 39.048 2.496C39.272 2.304 39.432 2.24 39.432 2.048C39.432 1.664 38.824 1.664 38.536 1.632C37.832 1.568 36.392 1.44 35.72 1.44C35.4 1.44 35.112 1.472 35.112 1.856C35.112 1.952 35.112 2.048 35.144 2.144C35.24 2.688 35.272 3.36 35.272 3.904C35.208 4.512 34.984 4.768 34.376 4.768H28.968C27.816 4.768 26.792 4.704 25.96 4.704C24.488 4.704 23.624 4.896 23.624 6.048C23.624 6.432 23.656 7.168 23.656 7.872V8.864C23.656 9.344 23.592 9.856 23.592 10.336C23.592 11.104 24.104 11.072 25.32 11.072H25.608C26.12 11.072 26.28 11.296 26.312 11.744ZM67.72 3.008C67.72 2.72 67.336 2.464 67.144 2.368C67.048 2.304 66.888 2.208 66.664 2.08C66.056 1.696 65.128 1.12 64.84 1.12C64.616 1.12 64.488 1.344 64.36 1.536C62.888 3.616 60.072 6.336 57.96 7.776C57.704 7.936 57.416 8.128 57.416 8.48C57.416 9.024 58.6 10.368 59.112 10.368C59.464 10.368 59.944 9.984 60.232 9.792C62.536 8.096 64.584 6.048 66.344 3.776C66.696 3.36 66.728 3.328 67.144 3.328C67.336 3.328 67.72 3.264 67.72 3.008ZM79.976 5.984C81.032 5.984 82.12 6.048 83.208 6.048C84.072 6.048 84.008 5.568 84.008 4.448C84.008 3.328 84.072 2.816 83.208 2.816C82.12 2.816 81.032 2.912 79.976 2.912H74.28C73.192 2.912 72.104 2.816 71.016 2.816C70.184 2.816 70.216 3.296 70.216 4.448C70.216 5.6 70.184 6.048 71.016 6.048C72.104 6.048 73.192 5.984 74.28 5.984H79.976ZM76.52 14.144C77.16 14.144 77.416 14.4 77.416 15.04V24.288C77.416 25.984 77.512 26.624 75.656 26.624C75.304 26.624 74.856 26.592 74.504 26.56C74.312 26.528 74.056 26.496 73.864 26.496C73.352 26.496 73.256 26.976 73.256 27.392C73.256 28 73.448 28.992 73.736 29.504C74.024 29.984 74.792 29.952 75.24 29.952C77.608 29.952 80.84 29.792 80.84 26.688C80.84 25.888 80.776 25.12 80.776 24.32V15.04C80.776 14.4 81.032 14.144 81.672 14.144H81.768C82.952 14.144 84.168 14.208 85.352 14.208C86.152 14.208 86.152 13.824 86.152 12.608C86.152 11.392 86.152 11.008 85.352 11.008C84.136 11.008 82.952 11.072 81.768 11.072H73.096C71.88 11.072 70.696 11.008 69.512 11.008C68.68 11.008 68.712 11.424 68.712 12.608C68.712 13.792 68.68 14.208 69.512 14.208C70.696 14.208 71.88 14.144 73.096 14.144H76.52ZM65.032 14.592C66.12 13.312 67.208 11.968 68.104 10.592C68.36 10.208 68.392 10.08 68.84 9.952C69.064 9.92 69.416 9.824 69.416 9.536C69.416 9.216 69 8.992 68.744 8.864C68.68 8.832 68.584 8.768 68.456 8.704C67.848 8.352 66.728 7.744 66.44 7.744C66.248 7.744 66.12 7.872 66.024 8.032C64.392 10.944 60.648 15.104 57.96 17.024C57.64 17.248 57.256 17.472 57.256 17.92C57.256 18.528 58.408 20 58.984 20C59.656 20 60.968 18.72 61.48 18.24C61.576 18.176 61.64 18.112 61.768 18.112C62.024 18.112 62.088 18.336 62.12 18.528V25.696C62.12 26.784 62.024 27.84 62.024 28.896C62.024 29.888 62.472 29.856 63.688 29.856C64.904 29.856 65.32 29.888 65.32 28.896C65.32 27.84 65.224 26.784 65.224 25.696V18.368C65.224 16.768 65.192 16.16 65.576 15.84C65.8 15.648 65.928 15.584 65.928 15.392C65.928 15.008 65.448 15.008 65.192 14.976C65.032 14.944 64.936 14.88 64.936 14.752C64.936 14.688 65 14.624 65.032 14.592ZM104.808 11.552C104.776 12.128 104.744 12.96 104.744 13.504C104.744 14.56 105.064 14.592 106.44 14.592C107.784 14.592 108.136 14.56 108.136 13.504C108.136 13.152 108.072 11.872 108.072 11.488C108.072 11.296 108.168 11.104 108.392 11.104C108.52 11.104 108.584 11.168 108.68 11.232C110.888 13.184 113.384 14.72 116.104 15.904C116.552 16.096 118.216 16.8 118.632 16.8C119.208 16.8 120.104 15.584 120.104 14.816C120.104 14.368 119.848 14.272 118.92 13.984C116.52 13.248 113.608 11.744 111.624 10.24C111.528 10.176 111.464 10.112 111.464 9.984C111.464 9.792 111.656 9.728 111.816 9.696H115.976C117.256 9.696 118.536 9.76 119.784 9.76C120.552 9.76 120.552 9.504 120.552 8.416C120.552 7.36 120.552 7.04 119.784 7.04C118.536 7.04 117.256 7.104 115.976 7.104H108.936C108.296 7.104 108.04 6.848 108.04 6.208V5.856C108.04 5.248 108.264 4.992 108.872 4.896C110.344 4.704 111.816 4.512 113.256 4.256C113.672 4.192 115.848 3.776 116.04 3.776C116.168 3.776 116.392 3.808 116.52 3.872C116.616 3.904 116.808 3.968 116.904 3.968C117.064 3.968 117.192 3.84 117.192 3.68C117.192 3.36 116.648 2.752 116.072 2.144C115.944 1.984 115.816 1.856 115.72 1.76C115.304 1.312 115.144 1.088 114.92 1.088C114.728 1.088 114.504 1.216 114.344 1.28C114.024 1.408 113.672 1.536 113.32 1.6C109.064 2.56 103.464 2.976 99.08 2.976C97.864 2.976 96.648 2.88 95.432 2.88C94.984 2.88 94.632 3.008 94.632 3.52C94.632 3.936 94.824 4.672 95.016 5.024C95.24 5.504 95.72 5.536 96.168 5.536C98.824 5.536 101.48 5.44 104.104 5.28C104.616 5.248 104.84 5.504 104.84 6.016V6.368C104.84 6.88 104.584 7.104 104.072 7.104H96.936C95.688 7.104 94.408 7.04 93.16 7.04C92.392 7.04 92.392 7.328 92.392 8.416C92.392 9.504 92.392 9.76 93.128 9.76C94.408 9.76 95.688 9.696 96.936 9.696H101.128C101.288 9.728 101.448 9.792 101.448 9.984C101.448 10.08 101.416 10.176 101.32 10.24C99.08 11.872 96.488 13.184 93.864 14.08C93.128 14.336 92.776 14.432 92.776 14.784C92.776 15.392 93.832 16.864 94.568 16.864C94.952 16.864 95.656 16.544 96.008 16.384C98.984 15.136 101.736 13.376 104.2 11.264C104.264 11.2 104.36 11.168 104.488 11.168C104.712 11.168 104.808 11.36 104.808 11.552ZM108.744 23.232C108.488 23.488 108.232 23.616 107.88 23.616C107.688 23.616 107.528 23.584 107.336 23.552C105.96 23.2 104.552 22.816 103.144 22.496C102.888 22.4 102.696 22.272 102.696 21.984C102.696 21.824 102.76 21.728 102.824 21.6C103.048 21.312 103.24 20.992 103.464 20.704C103.848 20.16 104.104 20.064 104.776 20.064H109.96C110.088 20.064 110.568 20.096 110.568 20.544C110.568 20.672 110.536 20.736 110.504 20.832C110.056 21.728 109.448 22.528 108.744 23.232ZM115.72 20.064C117.032 20.064 118.344 20.128 119.656 20.128C120.552 20.128 120.552 19.84 120.552 18.784C120.552 17.696 120.584 17.408 119.656 17.408C118.344 17.408 117.032 17.472 115.72 17.472H106.376C106.088 17.44 105.832 17.344 105.832 17.024C105.832 16.896 105.864 16.832 105.896 16.736C106.024 16.512 106.184 16.224 106.44 16.16C106.696 16.096 107.208 16.032 107.208 15.712C107.208 15.424 106.824 15.264 106.6 15.2C106.152 15.072 104.136 14.4 103.848 14.4C103.592 14.4 103.464 14.656 103.208 15.2C103.016 15.584 102.792 16.096 102.376 16.768C102.024 17.344 101.704 17.472 101.064 17.472H97.224C95.912 17.472 94.6 17.408 93.288 17.408C92.36 17.408 92.392 17.696 92.392 18.784C92.392 19.808 92.36 20.128 93.288 20.128C94.6 20.128 95.912 20.064 97.224 20.064H99.272C99.496 20.064 99.752 20.16 99.752 20.448C99.752 20.576 99.72 20.64 99.656 20.736C99.144 21.408 98.28 22.496 97.704 23.168C97.544 23.36 97.096 23.808 97.096 24.064C97.096 24.768 99.048 25.344 99.624 25.344C99.88 25.344 100.104 25.184 100.264 24.992C100.584 24.736 100.808 24.512 101.224 24.512C101.352 24.512 101.48 24.544 101.576 24.576C102.536 24.768 103.496 25.056 104.456 25.312C104.584 25.376 104.68 25.44 104.68 25.6C104.68 25.76 104.584 25.824 104.456 25.888C102.216 26.592 98.44 27.072 96.072 27.072C95.56 27.072 95.08 27.04 94.568 27.04C94.344 27.04 93.96 27.008 93.96 27.776C93.96 28.256 94.184 28.864 94.408 29.312C94.664 29.824 94.92 29.952 95.496 29.952C99.112 29.952 105.096 28.992 108.2 27.136C108.488 26.976 108.744 26.848 109.064 26.848C109.288 26.848 109.448 26.88 109.64 26.944C111.944 27.712 114.216 28.64 116.424 29.664C116.712 29.792 117.128 29.984 117.416 29.984C118.12 29.984 119.048 28.416 119.048 27.904C119.048 27.456 118.472 27.264 118.12 27.104C116.2 26.304 114.184 25.568 112.168 24.96C111.976 24.864 111.784 24.736 111.784 24.48C111.784 24.288 111.816 24.224 111.944 24.064C112.552 23.36 113.032 22.688 113.512 21.888C113.672 21.632 113.736 21.44 113.992 21.376C114.248 21.344 114.728 21.28 114.728 20.928C114.728 20.608 113.96 20.416 113.576 20.288C113.512 20.256 113.48 20.224 113.48 20.16C113.48 20.096 113.576 20.064 113.64 20.064H115.72ZM135.4 5.6C135.464 5.056 135.752 4.768 136.296 4.704H146.152C146.696 4.768 146.984 5.056 147.048 5.6V5.888C146.984 6.432 146.696 6.72 146.152 6.784H136.296C135.752 6.72 135.464 6.432 135.4 5.888V5.6ZM150.28 4.96C150.28 4.416 150.312 3.904 150.312 3.36C150.312 2.336 149.672 2.144 148.776 2.144C147.976 2.144 147.144 2.208 146.344 2.208H136.104C135.304 2.208 134.472 2.144 133.64 2.144C132.744 2.144 132.136 2.336 132.136 3.36C132.136 3.904 132.2 4.416 132.2 4.96V6.528C132.2 7.04 132.136 7.584 132.136 8.128C132.136 9.184 132.808 9.344 133.704 9.344C134.504 9.344 135.304 9.28 136.104 9.28H146.344C147.176 9.28 147.976 9.344 148.808 9.344C149.704 9.344 150.312 9.152 150.312 8.128C150.312 7.584 150.28 7.04 150.28 6.528V4.96ZM147.944 20.48C148.392 20.48 148.712 20.8 148.712 21.248V21.536C148.712 21.984 148.392 22.272 147.944 22.272H134.376C133.896 22.272 133.608 21.984 133.608 21.536V21.248C133.608 20.8 133.896 20.48 134.376 20.48H147.944ZM147.944 16.8C148.392 16.8 148.712 17.12 148.712 17.568V17.76C148.712 18.208 148.392 18.528 147.944 18.528H134.376C133.896 18.528 133.608 18.208 133.608 17.76V17.568C133.608 17.12 133.896 16.8 134.376 16.8H147.944ZM148.712 14.08C148.712 14.528 148.392 14.848 147.944 14.848H134.376C133.896 14.848 133.608 14.528 133.608 14.08V13.856C133.608 13.408 133.896 13.088 134.376 13.088H147.944C148.392 13.088 148.712 13.408 148.712 13.856V14.08ZM144.168 25.216C144.008 25.44 143.528 26.016 143.528 26.304C143.528 26.56 143.72 26.688 144.008 26.848C145.16 27.52 146.728 28.192 148.008 28.672C149.096 29.056 152.616 30.176 153.608 30.176C154.408 30.176 155.016 28.352 155.016 27.968C155.016 27.488 154.6 27.424 154.248 27.36C151.656 26.88 149.096 26.176 146.696 25.056C146.632 25.024 146.568 24.96 146.568 24.864C146.568 24.704 146.696 24.672 146.824 24.672H147.272C148.232 24.672 149.192 24.704 150.152 24.704C151.144 24.704 152.072 24.576 152.072 23.36C152.072 22.656 152.008 21.984 152.008 21.28V14.08C152.008 13.408 152.072 12.704 152.072 12C152.072 10.784 151.112 10.688 150.12 10.688C149.192 10.688 148.232 10.72 147.272 10.72H135.016C134.056 10.72 133.096 10.688 132.168 10.688C131.176 10.688 130.216 10.816 130.216 12.032C130.216 12.704 130.28 13.408 130.28 14.08V21.28C130.28 21.984 130.216 22.656 130.216 23.36C130.216 24.576 131.176 24.704 132.168 24.704C133.128 24.704 134.056 24.672 135.016 24.672H135.272C135.4 24.672 135.528 24.704 135.528 24.864C135.528 24.96 135.464 25.024 135.368 25.056C133.448 25.984 130.472 26.752 128.328 27.008C127.528 27.104 127.176 27.136 127.176 27.552C127.176 27.904 127.624 29.92 128.712 29.92C130.024 29.92 134.504 28.48 135.816 27.936C136.328 27.712 137.736 27.04 138.088 27.04C138.184 27.04 138.312 27.072 138.408 27.072C138.504 27.104 138.664 27.136 138.76 27.136C138.952 27.136 139.08 27.04 139.08 26.848C139.08 26.56 138.28 25.6 138.056 25.312C137.992 25.216 137.96 25.152 137.96 25.024C137.96 24.768 138.184 24.672 138.408 24.672H143.912C144.104 24.672 144.264 24.736 144.264 24.96C144.264 25.056 144.232 25.12 144.168 25.216ZM166.088 15.168C164.904 15.2 163.752 15.104 162.568 15.104C161.832 15.104 161.832 15.424 161.832 16.544C161.832 17.632 161.832 17.984 162.568 17.984C163.752 17.984 164.904 17.888 166.088 17.92C166.696 17.92 166.984 18.176 166.984 18.816V24.864C166.92 25.472 166.76 25.792 166.152 25.888C165.32 26.048 164.648 26.048 164.136 26.112C162.952 26.208 162.632 26.272 162.632 26.688C162.632 26.912 162.92 28.064 162.984 28.32C163.048 28.544 163.112 28.768 163.144 28.928C163.368 29.728 163.432 30.048 163.784 30.048C164.008 30.048 164.104 29.92 164.2 29.728C164.392 29.312 164.488 29.248 165.192 29.152C168.968 28.608 172.712 27.904 176.392 26.944C177.192 26.752 177.448 26.656 177.448 25.6C177.448 24.896 177.512 23.936 176.808 23.936C176.616 23.936 173 24.704 171.176 25.056C171.112 25.056 171.048 25.088 170.952 25.088C170.504 25.088 170.312 24.736 170.312 24.32V18.816C170.312 18.176 170.6 17.92 171.208 17.92H174.088C174.728 17.92 174.984 18.08 175.24 18.72C176.744 22.304 179.496 25.344 182.696 27.488C183.592 28.096 187.272 30.208 188.168 30.208C188.872 30.208 190.024 28.416 190.024 27.776C190.024 27.392 189.576 27.264 189.288 27.136C187.272 26.336 185.288 25.312 183.496 24C183.368 23.872 183.272 23.744 183.272 23.552C183.272 23.36 183.4 23.2 183.528 23.072C184.04 22.72 184.552 22.336 185.032 21.984C185.416 21.696 185.896 21.28 186.28 21.024C186.376 20.96 186.44 20.896 186.6 20.896C186.696 20.896 186.856 20.928 186.952 20.96C187.048 20.992 187.112 21.024 187.176 21.024C187.368 21.024 187.496 20.864 187.496 20.672C187.496 20.288 185.128 18.176 184.808 18.176C184.616 18.176 184.456 18.4 184.2 18.656C183.592 19.328 182.312 20.512 181.608 21.088C181.416 21.216 181.224 21.344 181 21.344C180.712 21.344 180.52 21.184 180.36 20.992C179.752 20.288 179.208 19.488 178.76 18.656C178.696 18.56 178.664 18.496 178.664 18.368C178.664 18.048 178.952 17.952 179.24 17.92H185.384C186.664 17.92 187.976 17.984 189.256 17.984C189.992 17.984 189.992 17.632 189.992 16.544C189.992 15.456 189.992 15.104 189.256 15.104C187.944 15.104 186.664 15.168 185.384 15.168H171.08C170.568 15.168 170.312 14.944 170.312 14.4V14.176C170.312 13.632 170.568 13.408 171.08 13.408H180.36C181.48 13.408 182.6 13.472 183.752 13.472C184.424 13.472 184.424 13.184 184.424 12.192C184.424 11.168 184.424 10.88 183.752 10.88C182.6 10.88 181.48 10.944 180.36 10.944H171.08C170.568 10.944 170.312 10.72 170.312 10.208V10.016C170.312 9.504 170.568 9.28 171.08 9.28H180.232C181.416 9.28 182.6 9.344 183.784 9.344C184.424 9.344 184.456 9.088 184.456 8.064C184.456 7.008 184.424 6.752 183.784 6.752C182.6 6.752 181.416 6.816 180.232 6.816H171.08C170.568 6.816 170.312 6.592 170.312 6.048V5.888C170.312 5.376 170.568 5.152 171.08 5.152H183.272C184.2 5.152 185.128 5.216 186.056 5.216C186.76 5.216 186.76 4.928 186.76 3.84C186.76 2.72 186.76 2.464 186.056 2.464C185.128 2.464 184.2 2.528 183.272 2.528H170.92C170.088 2.528 169.288 2.464 168.488 2.464C167.464 2.464 166.92 2.784 166.92 3.904C166.92 4.576 166.984 5.312 166.984 6.144V14.272C166.984 14.88 166.696 15.168 166.088 15.168ZM204.2 7.168C203.56 7.136 203.304 6.912 203.304 6.272V4.352C203.304 3.328 203.336 2.72 203.656 2.496C203.88 2.336 204.072 2.272 204.072 1.984C204.072 1.6 203.56 1.568 203.304 1.568C202.76 1.536 201.192 1.408 200.744 1.408C200.424 1.408 200.168 1.472 200.168 1.856V2.144C200.296 3.072 200.296 3.968 200.296 4.864V6.272C200.296 6.912 200.008 7.168 199.4 7.168C198.696 7.2 197.96 7.104 197.288 7.104C196.552 7.104 196.584 7.456 196.584 8.64C196.584 9.76 196.552 10.176 197.256 10.176C197.896 10.176 198.696 10.08 199.4 10.112C200.008 10.112 200.296 10.368 200.296 10.976V15.392C200.232 16.064 200.104 16.32 199.464 16.544C198.792 16.768 197.736 17.056 197.032 17.216C196.712 17.28 196.168 17.344 196.168 17.728C196.168 18.016 196.776 20.032 196.904 20.416C197.032 20.768 197.128 20.992 197.384 20.992C197.608 20.992 197.704 20.8 197.768 20.64C197.864 20.352 197.896 20.256 198.216 20.128C198.44 20.032 198.792 19.936 199.464 19.712C199.56 19.68 199.624 19.68 199.72 19.68C200.136 19.68 200.264 19.968 200.296 20.32V24.672C200.296 26.304 200.328 26.752 198.92 26.752C198.504 26.752 198.056 26.72 197.736 26.72C197.128 26.72 197.032 27.2 197.032 27.808C197.032 30.208 198.312 30.112 198.952 30.112C200.04 30.112 201.8 29.92 202.632 29.184C203.272 28.608 203.368 27.584 203.368 26.784C203.368 26.048 203.304 25.312 203.304 24.544V19.232C203.304 18.592 203.496 18.304 204.072 18.048C206.664 16.96 206.888 16.992 206.888 16.096C206.888 15.584 206.888 14.08 206.152 14.08C205.896 14.08 204.584 14.72 204.136 14.912C204.008 14.976 203.944 14.976 203.848 14.976C203.432 14.976 203.336 14.656 203.304 14.336V10.976C203.304 10.368 203.56 10.144 204.2 10.112C204.712 10.112 205.8 10.176 206.152 10.176C206.92 10.176 206.856 9.696 206.856 8.64C206.856 7.552 206.92 7.104 206.152 7.104C205.512 7.104 204.84 7.168 204.2 7.168ZM213.16 16.096C213.768 16.096 214.056 16.352 214.024 16.96L213.928 18.176C213.768 18.816 213.544 19.008 212.904 19.008H210.12C209.032 19.008 207.912 18.944 206.984 18.944C206.28 18.944 206.312 19.36 206.312 20.416C206.312 21.504 206.28 21.952 206.984 21.952C207.816 21.952 209.064 21.856 210.12 21.856H211.976C212.264 21.888 212.52 21.984 212.52 22.304C212.52 22.432 212.488 22.496 212.424 22.592C210.76 24.832 208.2 26.208 205.576 26.976C205.288 27.072 204.968 27.104 204.968 27.456C204.968 28.064 205.96 29.856 206.664 29.856C207.464 29.856 212.552 27.712 215.144 24.032C215.272 23.872 215.4 23.744 215.624 23.744C215.816 23.744 215.944 23.872 216.072 24.032C217.384 25.92 219.016 27.552 220.936 28.864C221.32 29.152 222.664 30.048 223.08 30.048C223.688 30.048 225.096 28.416 225.096 27.84C225.096 27.52 224.648 27.296 224.392 27.168C221.928 25.952 220.2 24.704 218.44 22.56C218.376 22.464 218.344 22.368 218.344 22.272C218.344 21.984 218.568 21.888 218.824 21.856H221.064C222.12 21.856 223.336 21.952 224.2 21.952C224.904 21.952 224.872 21.504 224.872 20.416C224.872 19.36 224.904 18.944 224.2 18.944C223.272 18.944 222.152 19.008 221.064 19.008H217.832C217.352 19.008 217.032 18.816 217.032 18.304V18.176L217.128 16.96C217.192 16.352 217.416 16.096 218.024 16.096H218.792C219.912 16.096 221.032 16.192 222.152 16.192C222.888 16.192 222.856 15.808 222.856 14.72C222.856 13.6 222.888 13.216 222.152 13.216C221.032 13.216 219.912 13.28 218.792 13.28H213.544C213.224 13.28 212.936 13.152 212.936 12.768C212.936 12.672 212.936 12.576 212.968 12.48C213.064 12.256 213.128 12.096 213.16 12C213.256 11.776 213.288 11.744 213.608 11.68C213.8 11.616 213.992 11.52 213.992 11.328C213.992 11.04 213.384 10.912 212.84 10.752C212.776 10.72 212.712 10.656 212.712 10.592C212.712 10.56 212.744 10.496 212.872 10.464C215.304 10.208 217.736 9.984 220.168 9.696C220.232 9.664 220.36 9.664 220.424 9.664C220.904 9.664 221.128 9.92 221.384 10.272C221.768 11.04 222.024 11.68 222.504 11.68C222.792 11.68 224.648 11.008 224.648 10.304C224.648 9.792 223.336 7.84 223.016 7.328C222.088 5.888 221.512 5.056 220.456 3.744C220.264 3.488 220.072 3.2 219.72 3.2C219.4 3.2 217.64 3.936 217.64 4.608C217.64 4.832 218.088 5.344 218.568 5.984C218.664 6.112 218.888 6.4 218.888 6.56C218.888 6.848 218.664 6.944 218.376 7.008C217.096 7.168 215.784 7.264 214.472 7.392C214.184 7.392 213.96 7.264 213.96 6.976C213.96 6.88 213.992 6.784 214.024 6.72C214.632 5.568 215.176 4.384 215.752 3.232C215.848 3.072 215.944 3.008 216.328 2.944C216.488 2.912 216.616 2.816 216.616 2.656C216.616 2.304 215.944 2.144 215.688 2.048C215.24 1.92 213.608 1.408 213.288 1.408C212.968 1.408 212.904 1.568 212.776 1.92C211.976 3.904 211.496 5.024 210.504 6.944C210.216 7.456 209.992 7.648 209.416 7.712H209.256C207.784 7.712 207.4 7.712 207.4 8.16C207.4 8.512 207.688 9.504 207.816 9.952C208.072 10.816 208.264 11.328 208.52 11.328C208.712 11.328 208.808 11.2 208.904 11.072C209.064 10.848 209.128 10.816 209.32 10.784C209.416 10.752 209.544 10.752 209.64 10.752C209.96 10.752 210.248 10.88 210.248 11.232C210.248 11.328 210.216 11.392 210.184 11.488C209.512 13.184 208.68 14.848 207.624 16.352C207.496 16.512 207.208 16.896 207.208 17.088C207.208 17.568 209 18.432 209.48 18.432C209.896 18.432 210.376 17.664 210.696 17.12C210.76 17.024 210.792 16.928 210.856 16.832C211.24 16.256 211.496 16.096 212.168 16.096H213.16ZM253.672 3.168C253.672 2.848 253.288 2.656 252.616 2.304C252.232 2.08 251.016 1.408 250.632 1.408C250.44 1.408 250.408 1.536 250.28 1.792C249.544 3.456 248.744 4.768 247.752 6.272C247.56 6.592 247.24 7.008 247.24 7.392C247.24 7.776 247.464 8.064 247.688 8.384C248.648 9.728 249.832 11.584 250.504 13.12C250.632 13.44 250.76 13.792 251.176 13.792C251.784 13.792 253.32 13.056 253.32 12.352C253.32 11.712 251.112 8.576 250.6 7.936C250.472 7.808 250.376 7.68 250.376 7.488C250.376 7.36 250.472 7.2 250.568 7.104C250.984 6.496 252.136 4.576 252.584 3.84C252.744 3.552 252.808 3.488 253.192 3.456C253.384 3.456 253.672 3.424 253.672 3.168ZM248.296 3.136C248.296 2.816 248.072 2.784 247.528 2.464C247.432 2.4 247.24 2.304 247.048 2.208C246.44 1.856 245.544 1.376 245.256 1.376C245.064 1.376 245 1.44 244.68 2.176C244.2 3.328 243.016 5.248 242.344 6.336C242.12 6.656 241.832 7.008 241.832 7.424C241.832 7.808 242.024 8.064 242.248 8.384C243.176 9.728 244.36 11.616 244.968 13.152C245.096 13.44 245.192 13.76 245.576 13.76C246.216 13.76 247.752 13.024 247.752 12.32C247.752 11.776 245.64 8.544 245.224 7.904C245.128 7.776 244.968 7.584 244.968 7.424C244.968 7.296 245.096 7.136 245.16 7.008C245.672 6.336 246.408 5.152 246.792 4.416C247.272 3.52 247.208 3.52 247.752 3.488C247.944 3.456 248.296 3.456 248.296 3.136ZM259.144 3.072C259.144 2.816 258.824 2.688 258.536 2.528C258.088 2.272 256.552 1.376 256.104 1.376C255.944 1.376 255.912 1.44 255.752 1.792C255.048 3.36 254.12 4.864 253.16 6.304C252.968 6.624 252.648 7.008 252.648 7.424C252.648 7.808 252.872 8.096 253.096 8.416C253.96 9.696 255.432 11.968 256.04 13.344C256.2 13.664 256.328 14.016 256.744 14.016C257.416 14.016 258.824 13.152 258.824 12.416C258.824 11.808 256.552 8.448 256.04 7.776C255.976 7.648 255.848 7.488 255.848 7.328C255.848 7.2 255.944 7.072 256.008 6.944C256.744 5.952 257.416 4.896 258.024 3.808C258.184 3.552 258.28 3.488 258.632 3.488C258.888 3.456 259.144 3.392 259.144 3.072ZM238.024 19.296C238.024 18.656 238.184 18.368 238.792 18.112C241.864 16.8 241.992 16.8 241.992 15.712C241.992 15.2 241.992 13.92 241.256 13.92C241.128 13.92 240.136 14.368 239.432 14.688C239.144 14.816 238.92 14.944 238.792 14.976C238.728 15.008 238.632 15.04 238.536 15.04C238.152 15.04 238.056 14.72 238.024 14.4V11.136C238.024 10.496 238.28 10.272 238.92 10.24C239.56 10.24 240.424 10.304 240.936 10.304C241.704 10.304 241.672 9.888 241.672 8.768C241.672 7.68 241.704 7.232 240.936 7.232C240.392 7.232 239.56 7.296 238.92 7.296C238.28 7.264 238.024 7.04 238.024 6.4V4.32C238.024 3.264 238.056 2.752 238.376 2.528C238.568 2.4 238.792 2.272 238.792 2.016C238.792 1.632 238.28 1.6 238.024 1.6C237.384 1.536 236.008 1.44 235.464 1.44C235.112 1.44 234.856 1.504 234.856 1.888V2.208C234.952 2.88 234.952 3.584 234.952 4.288V6.4C234.952 7.04 234.696 7.264 234.088 7.296C233.512 7.296 232.456 7.232 232.008 7.232C231.24 7.232 231.272 7.648 231.272 8.768C231.272 9.888 231.24 10.304 232.008 10.304C232.424 10.304 233.512 10.24 234.088 10.24C234.696 10.272 234.952 10.496 234.952 11.136V15.52C234.952 16.128 234.824 16.448 234.184 16.64C233.32 16.928 232.712 17.088 232.232 17.216C230.984 17.536 230.824 17.6 230.824 17.984C230.824 18.272 231.496 20.192 231.624 20.576C231.752 20.896 231.784 21.152 232.104 21.152C232.328 21.152 232.424 20.992 232.488 20.832C232.616 20.512 232.68 20.416 232.968 20.288C233.192 20.192 233.544 20.096 234.152 19.872C234.248 19.84 234.344 19.84 234.408 19.84C234.824 19.84 234.952 20.128 234.952 20.48V24.8C234.952 26.304 235.016 26.784 233.768 26.784C233.544 26.784 233.224 26.752 232.968 26.72C232.872 26.72 232.712 26.688 232.616 26.688C232.104 26.688 231.944 27.04 231.944 27.488C231.944 30.016 232.648 30.016 233.544 30.016C235.72 30.016 238.088 29.888 238.088 27.136C238.088 26.336 238.024 25.504 238.024 24.672V19.296ZM249.352 22.432C249 21.984 247.688 20.16 247.144 20.16C246.664 20.16 245 21.248 245 21.856C245 22.08 246.408 23.648 246.696 23.968C246.792 24.128 246.856 24.256 246.856 24.448C246.856 24.736 246.664 24.896 246.44 25.024C244.936 25.792 243.016 26.528 241.416 26.976C240.36 27.296 239.88 27.36 239.88 27.808C239.88 28.448 240.968 30.112 241.8 30.112C242.152 30.112 242.728 29.888 243.048 29.792C246.792 28.544 250.888 26.464 253.928 24C255.144 23.008 258.984 19.424 258.984 17.92C258.984 17.632 258.28 15.936 256.808 15.936C256.04 15.936 255.24 15.968 254.44 15.968H250.6C250.408 15.968 250.248 15.872 250.248 15.648C250.248 15.584 250.248 15.52 250.28 15.456C250.664 15.008 250.696 14.944 251.144 14.912C251.304 14.88 251.624 14.784 251.624 14.56C251.624 14.272 251.208 14.176 250.504 13.92L249.96 13.728C249.64 13.6 248.552 13.152 248.296 13.152C248.072 13.152 247.976 13.376 247.848 13.536C246.344 15.84 243.208 18.272 240.776 19.616C240.52 19.776 240.072 19.968 240.072 20.288C240.072 20.832 241.288 22.368 241.864 22.368C242.568 22.368 245.8 19.808 246.504 19.232C247.048 18.784 247.272 18.72 247.976 18.72H253.416C253.992 18.72 254.408 18.752 254.408 19.04C254.408 19.648 251.144 22.208 250.536 22.624C250.344 22.752 250.216 22.816 249.992 22.816C249.704 22.816 249.512 22.656 249.352 22.432Z" fill="#3E3E3E"/>
</svg>
