<svg width="223" height="75" viewBox="0 0 223 75" fill="none" xmlns="http://www.w3.org/2000/svg">
<path d="M68.665 7.99C67.915 6.985 67.315 5.86 66.94 4.675C66.925 4.63 66.925 4.585 66.925 4.555C66.925 4.345 67.075 4.3 67.24 4.285H70.285C70.465 4.285 70.63 4.36 70.63 4.585V4.675C70.375 5.875 69.85 6.985 69.145 7.975C69.085 8.05 69.01 8.125 68.905 8.125C68.8 8.125 68.725 8.065 68.665 7.99ZM64.585 2.845C63.985 2.845 63.4 2.8 62.815 2.8C62.44 2.8 62.455 2.98 62.455 3.565C62.455 4.15 62.44 4.315 62.8 4.315C63.4 4.315 63.985 4.285 64.585 4.285H64.75C65.065 4.285 65.185 4.375 65.275 4.66C65.77 6.265 66.58 7.795 67.63 9.115C67.69 9.205 67.75 9.28 67.75 9.4C67.75 9.52 67.69 9.61 67.6 9.685C66.265 10.885 64.54 11.725 62.845 12.265C62.5 12.37 62.365 12.4 62.365 12.61C62.365 12.835 62.695 13.9 63.04 13.9C63.205 13.9 63.55 13.765 63.7 13.705C65.515 13.045 67.27 12.13 68.71 10.84C68.8 10.765 68.89 10.705 69.01 10.705C69.115 10.705 69.205 10.75 69.295 10.825C70.72 12.055 72.595 13.03 74.365 13.69C74.515 13.75 74.77 13.84 74.92 13.84C75.34 13.84 75.67 12.88 75.67 12.595C75.67 12.385 75.475 12.34 75.295 12.28C73.51 11.725 71.77 10.9 70.315 9.715C70.225 9.625 70.165 9.55 70.165 9.415C70.165 9.31 70.21 9.22 70.255 9.145C71.095 8.02 71.845 6.505 72.265 5.17C72.325 4.96 72.355 4.93 72.55 4.84C72.625 4.81 72.715 4.75 72.715 4.66C72.715 4.495 72.55 4.465 72.28 4.405C72.235 4.39 72.175 4.375 72.115 4.36C72.07 4.345 72.07 4.33 72.07 4.33C72.07 4.3 72.1 4.285 72.13 4.285H73.465C74.065 4.285 74.65 4.315 75.25 4.315C75.61 4.315 75.595 4.15 75.595 3.565C75.595 2.995 75.61 2.8 75.235 2.8C74.65 2.8 74.05 2.845 73.465 2.845H70.225C69.925 2.845 69.805 2.725 69.805 2.425V1.78C69.805 1.405 69.82 1.21 69.97 1.105C70.06 1.03 70.15 0.984999 70.15 0.894999C70.15 0.759999 69.97 0.73 69.865 0.714999C69.565 0.684999 68.695 0.624999 68.41 0.624999C68.26 0.624999 68.125 0.655 68.125 0.834999C68.125 0.865 68.14 0.924999 68.14 0.969999C68.17 1.285 68.2 1.615 68.2 1.945V2.425C68.2 2.725 68.08 2.845 67.78 2.845H64.585ZM81.01 11.5C81.01 12.16 80.965 12.835 80.965 13.495C80.965 13.96 81.175 13.945 81.79 13.945C82.42 13.945 82.6 13.945 82.6 13.48C82.6 12.82 82.555 12.16 82.555 11.5V5.8C82.555 5.335 82.57 5.08 82.72 4.975C82.84 4.885 82.9 4.855 82.9 4.765C82.9 4.6 82.72 4.585 82.6 4.57C82.54 4.57 82.495 4.525 82.495 4.465C82.495 4.45 82.495 4.435 82.51 4.405C82.975 3.58 83.47 2.605 83.815 1.72C83.89 1.525 83.935 1.495 84.1 1.45C84.19 1.42 84.325 1.345 84.325 1.24C84.325 1.03 83.935 0.924999 83.575 0.774999C83.41 0.714999 82.9 0.474999 82.765 0.474999C82.615 0.474999 82.555 0.639999 82.51 0.759999C81.655 3.07 80.5 5.125 78.85 6.955C78.745 7.06 78.595 7.225 78.595 7.375C78.595 7.63 79.21 8.29 79.57 8.29C79.87 8.29 80.575 7.315 80.755 7.06C80.8 7.015 80.83 6.985 80.89 6.985C80.98 6.985 81.01 7.075 81.01 7.15V11.5ZM90.22 2.815C89.38 3.745 88.105 4.69 87.055 5.365C86.995 5.395 86.965 5.41 86.905 5.41C86.755 5.41 86.725 5.29 86.71 5.17V2.065C86.71 1.54 86.725 1.195 86.875 1.09C87.01 0.984999 87.055 0.969999 87.055 0.865C87.055 0.684999 86.8 0.684999 86.68 0.67C86.35 0.655 85.66 0.609999 85.36 0.609999C85.225 0.609999 85.09 0.639999 85.09 0.805C85.09 0.849999 85.105 0.909999 85.105 0.955C85.135 1.345 85.165 1.855 85.165 2.335V10.9C85.165 11.32 85.135 11.74 85.135 12.16C85.135 13.36 85.99 13.6 86.995 13.6H89.74C90.505 13.6 90.88 13.555 91.3 12.865C91.585 12.4 92.005 11.05 92.005 10.525C92.005 10.045 91.225 9.88 90.895 9.88C90.595 9.88 90.595 10.015 90.55 10.375C90.34 11.95 89.98 12.085 89.545 12.085H87.325C86.755 12.085 86.71 11.965 86.71 11.245V7.585C86.71 7.27 86.785 7.15 87.055 6.985C88.645 6.07 89.74 5.275 91.12 4.06C91.18 4 91.27 3.925 91.36 3.925C91.435 3.925 91.51 3.94 91.57 3.94C91.705 3.94 91.75 3.835 91.75 3.79C91.75 3.655 91.585 3.52 91.495 3.445C91.33 3.295 90.61 2.62 90.46 2.62C90.355 2.62 90.28 2.74 90.22 2.815ZM107.785 12.865C107.785 12.49 104.89 9.94 104.47 9.94C104.23 9.94 103.585 10.495 103.585 10.735C103.585 10.87 103.735 10.975 103.825 11.035C104.77 11.725 105.67 12.52 106.45 13.405C106.54 13.51 106.69 13.705 106.84 13.705C107.095 13.705 107.785 13.105 107.785 12.865ZM99.805 10.765C99.805 10.66 99.595 10.525 99.52 10.465C99.46 10.435 99.34 10.36 99.205 10.27C98.92 10.075 98.56 9.835 98.44 9.835C98.32 9.835 98.245 9.94 98.185 10.015C97.39 10.945 96.505 11.785 95.47 12.43C95.365 12.49 95.245 12.565 95.245 12.715C95.245 12.94 95.95 13.6 96.25 13.6C96.79 13.6 98.785 11.575 99.205 11.11C99.31 10.99 99.37 10.915 99.535 10.915H99.595C99.76 10.915 99.805 10.81 99.805 10.765ZM103.345 5.56C103.09 5.575 102.835 5.575 102.58 5.575H100.3C100.255 5.575 100.105 5.56 100.105 5.395C100.105 5.335 100.135 5.29 100.165 5.26C100.675 4.675 101.425 3.52 101.74 2.83C101.785 2.77 101.83 2.725 101.905 2.725C101.965 2.725 102.01 2.77 102.055 2.83C102.49 3.76 102.88 4.42 103.51 5.23C103.54 5.275 103.555 5.32 103.555 5.38C103.555 5.515 103.45 5.56 103.345 5.56ZM106 8.125C105.61 8.155 105.22 8.155 104.815 8.155H98.485C98.14 8.155 97.795 8.14 97.45 8.14C97.345 8.125 97.3 8.065 97.3 8.005C97.3 7.96 97.33 7.915 97.375 7.885C97.945 7.45 98.485 6.97 99.01 6.475C99.04 6.46 99.07 6.43 99.1 6.43C99.175 6.43 99.205 6.475 99.22 6.55C99.22 6.79 99.235 6.94 99.52 6.94C99.955 6.94 100.375 6.91 100.81 6.91H102.58C103.015 6.91 103.435 6.94 103.855 6.94C104.2 6.94 104.155 6.73 104.17 6.385C104.17 6.31 104.215 6.25 104.29 6.25C104.335 6.25 104.365 6.265 104.395 6.295C104.935 6.85 105.49 7.39 106.09 7.87C106.135 7.9 106.165 7.945 106.165 7.99C106.165 8.08 106.075 8.125 106 8.125ZM98.53 4.96C98.455 5.035 98.38 5.125 98.29 5.215C98.23 5.26 98.185 5.305 98.095 5.305C98.02 5.305 97.96 5.26 97.915 5.215L97.21 4.555C97.165 4.495 97.12 4.435 97.12 4.36C97.12 4.285 97.15 4.24 97.18 4.18C97.225 4.135 97.27 4.075 97.315 4.03C97.405 3.94 97.465 3.88 97.6 3.88C97.705 3.88 97.78 3.925 97.855 3.985C98.08 4.18 98.305 4.375 98.515 4.57C98.575 4.63 98.605 4.69 98.605 4.78C98.605 4.84 98.575 4.9 98.53 4.96ZM98.44 3.01C98.365 2.95 98.32 2.89 98.32 2.785C98.32 2.755 98.32 2.74 98.335 2.71C98.44 2.62 98.53 2.605 98.665 2.605H99.715C99.94 2.605 100.09 2.62 100.09 2.725C100.09 2.875 99.715 3.43 99.61 3.58C99.55 3.67 99.475 3.73 99.355 3.73C99.25 3.73 99.175 3.685 99.115 3.625C98.89 3.415 98.665 3.205 98.44 3.01ZM97 5.86C97.06 5.935 97.12 6.01 97.12 6.115C97.12 6.235 97.045 6.325 96.955 6.4C96.43 6.79 95.965 7.105 95.395 7.45C95.215 7.555 94.735 7.795 94.735 8.02C94.735 8.215 95.245 8.95 95.65 8.95C95.845 8.95 96.085 8.77 96.25 8.665C96.295 8.635 96.325 8.62 96.385 8.62C96.52 8.62 96.565 8.725 96.58 8.845C96.595 9.28 96.535 9.49 96.91 9.49C97.435 9.49 97.96 9.46 98.485 9.46H100.405C100.705 9.46 100.825 9.58 100.825 9.88V11.515C100.825 12.295 100.84 12.445 100.015 12.445C99.79 12.445 99.565 12.415 99.34 12.415C99.16 12.415 99.055 12.475 99.055 12.775C99.055 13.03 99.145 13.585 99.295 13.795C99.385 13.945 99.625 13.96 99.835 13.96H100.015C102.385 13.96 102.445 13.3 102.445 12.175C102.445 11.875 102.415 11.575 102.415 11.275V9.88C102.415 9.58 102.55 9.46 102.835 9.46H104.815C105.34 9.46 105.865 9.49 106.39 9.49C106.735 9.49 106.72 9.31 106.72 8.74C106.735 8.635 106.765 8.53 106.9 8.53C106.945 8.53 106.975 8.545 107.02 8.575C107.125 8.65 107.365 8.83 107.5 8.83C107.785 8.83 108.34 8.05 108.34 7.765C108.34 7.6 108.145 7.495 107.965 7.375C107.23 6.88 106.525 6.34 105.88 5.725C105.79 5.65 105.73 5.575 105.73 5.44C105.73 5.335 105.775 5.26 105.85 5.17C106.33 4.585 107.98 2.71 107.98 2.035C107.98 1.81 107.635 1.195 106.945 1.195C106.585 1.195 106.24 1.21 105.895 1.21H105.055C104.56 1.21 104.245 1.18 104.005 1.18C103.675 1.18 103.66 1.285 103.66 1.795C103.66 2.275 103.66 2.41 104.005 2.41C104.29 2.41 104.665 2.38 104.995 2.38H105.805C105.955 2.38 106.15 2.365 106.15 2.485C106.15 2.635 105.4 3.55 105.055 3.97C104.965 4.09 104.845 4.27 104.68 4.27C104.56 4.27 104.485 4.21 104.425 4.12C103.675 3.1 103.12 2.11 102.73 0.909999C102.67 0.73 102.625 0.549999 102.4 0.549999C102.385 0.549999 101.38 0.624999 101.38 0.984999C101.38 1.045 101.395 1.105 101.41 1.18V1.255C101.41 1.405 101.29 1.435 101.17 1.435H101.035C100.675 1.435 100.315 1.45 99.955 1.45H99.325C99.265 1.435 99.16 1.405 99.16 1.33C99.16 1.225 99.31 1.21 99.385 1.195C99.475 1.18 99.625 1.12 99.625 1.015C99.625 0.834999 99.37 0.79 98.86 0.67C98.71 0.624999 98.05 0.445 97.96 0.445C97.825 0.445 97.795 0.549999 97.765 0.655C97.225 2.065 96.175 3.31 95.08 4.345C94.96 4.45 94.795 4.585 94.795 4.735C94.795 5.005 95.41 5.62 95.68 5.62C95.8 5.62 95.89 5.545 95.98 5.455C96.07 5.395 96.16 5.335 96.28 5.335C96.385 5.335 96.46 5.38 96.55 5.455L97 5.86ZM118.84 6.43C119.65 7.84 120.625 9.145 121.75 10.315C122.035 10.615 123.325 11.905 123.655 11.905C124.015 11.905 124.585 11.185 124.585 10.84C124.585 10.66 124.405 10.555 124.21 10.42C122.455 9.115 120.805 7.285 119.725 5.38C119.71 5.335 119.695 5.29 119.695 5.245C119.695 5.095 119.83 5.05 119.95 5.035H122.245C122.83 5.035 123.415 5.065 124 5.065C124.375 5.065 124.36 4.9 124.36 4.33C124.36 3.775 124.375 3.595 124 3.595C123.415 3.595 122.83 3.64 122.245 3.64H119.05C118.765 3.61 118.645 3.505 118.645 3.22V1.96C118.645 1.495 118.66 1.195 118.81 1.075C118.93 0.984999 119.005 0.94 119.005 0.834999C119.005 0.684999 118.795 0.67 118.69 0.655C118.405 0.624999 117.505 0.564999 117.265 0.564999C117.115 0.564999 116.995 0.595 116.995 0.774999C116.995 0.819999 116.995 0.865 117.01 0.909999C117.055 1.225 117.055 1.6 117.055 1.99V3.22C117.055 3.505 116.935 3.64 116.635 3.64H113.47C112.885 3.64 112.3 3.595 111.715 3.595C111.34 3.595 111.355 3.775 111.355 4.345C111.355 4.885 111.34 5.065 111.715 5.065C112.3 5.065 112.885 5.035 113.47 5.035H115.675C115.735 5.035 115.945 5.05 115.945 5.26C115.945 5.305 115.93 5.35 115.915 5.395C114.85 7.405 113.26 9.25 111.445 10.6C111.325 10.69 111.13 10.825 111.13 10.99C111.13 11.275 111.805 11.995 112.12 11.995C112.3 11.995 112.525 11.8 112.66 11.68C114.505 10.045 115.675 8.545 116.875 6.385C116.89 6.355 116.92 6.325 116.965 6.325C117.025 6.325 117.055 6.37 117.055 6.43V9.49C117.055 9.79 116.935 9.91 116.635 9.91H116.455C115.975 9.91 115.51 9.88 115.045 9.88C114.64 9.88 114.67 10.09 114.67 10.63C114.67 11.14 114.64 11.365 115.045 11.365C115.51 11.365 115.975 11.335 116.455 11.335H116.635C116.92 11.335 117.055 11.44 117.055 11.725C117.07 12.325 117.025 12.925 117.025 13.54C117.025 14.005 117.19 14.02 117.85 14.02C118.51 14.02 118.675 14.005 118.675 13.54C118.675 12.925 118.63 12.325 118.645 11.725C118.645 11.44 118.78 11.335 119.05 11.335H119.26C119.725 11.335 120.205 11.365 120.67 11.365C121.075 11.365 121.045 11.14 121.045 10.63C121.045 10.075 121.075 9.88 120.655 9.88C120.19 9.88 119.725 9.91 119.26 9.91H119.05C118.765 9.91 118.645 9.79 118.645 9.49V6.49C118.645 6.43 118.675 6.37 118.735 6.37C118.78 6.37 118.81 6.4 118.84 6.43ZM138.505 2.485C138.625 2.485 138.88 2.485 138.88 2.665C138.88 2.725 138.865 2.815 138.835 2.875C138.535 3.595 138.115 4.69 137.8 5.35C137.77 5.44 137.71 5.62 137.71 5.71C137.71 5.875 137.83 6.025 137.92 6.16C138.535 7.075 139.21 8.08 139.21 9.22C139.21 9.85 139.075 10.345 138.34 10.345C138.13 10.345 137.935 10.315 137.725 10.315C137.5 10.315 137.395 10.405 137.395 10.63C137.395 10.915 137.515 11.53 137.725 11.725C137.875 11.86 138.22 11.86 138.415 11.86C140.08 11.86 140.77 11.11 140.77 9.445C140.77 8.05 140.26 7.09 139.465 5.995C139.39 5.89 139.24 5.71 139.24 5.575C139.24 5.485 139.3 5.38 139.33 5.29C139.615 4.705 140.77 2.38 140.77 1.885C140.77 1.57 140.38 1.06 139.75 1.06C139.45 1.06 139.135 1.09 138.82 1.09H137.725C137.32 1.09 136.915 1.06 136.525 1.06C135.97 1.06 135.64 1.195 135.64 1.81C135.64 2.245 135.655 2.68 135.655 3.1V11.305C135.655 12.04 135.625 12.76 135.625 13.495C135.625 13.975 135.82 13.975 136.42 13.975C137.08 13.975 137.23 13.975 137.23 13.495C137.23 12.76 137.185 12.04 137.185 11.305V2.89C137.185 2.605 137.32 2.485 137.605 2.485H138.505ZM130.27 11.725C130.015 11.725 129.85 11.575 129.85 11.32V10.225C129.85 9.97 130.015 9.82 130.27 9.82H132.295C132.55 9.82 132.685 9.97 132.715 10.225V11.32C132.685 11.575 132.55 11.725 132.295 11.725H130.27ZM132.685 13.3C132.67 13.735 132.76 13.735 133.39 13.735C133.93 13.735 134.14 13.75 134.14 13.42C134.14 13.21 134.11 12.715 134.11 12.4V10C134.11 9.685 134.14 9.385 134.14 9.07C134.14 8.53 133.75 8.425 133.285 8.425C132.97 8.425 132.64 8.455 132.325 8.455H130.24C129.91 8.455 129.58 8.425 129.265 8.425C128.785 8.425 128.41 8.53 128.41 9.07C128.41 9.385 128.425 9.685 128.425 10V12.58C128.425 12.925 128.395 13.27 128.395 13.615C128.395 13.93 128.62 13.93 129.115 13.93C129.715 13.93 129.88 13.93 129.88 13.6C129.88 13.525 129.865 13.45 129.865 13.36C129.88 13.135 129.955 13.03 130.21 13.03H132.415C132.595 13.03 132.685 13.105 132.685 13.3ZM130.075 6.01C130.03 6.01 130 5.995 130 5.95C130 5.92 130.015 5.89 130.045 5.875C130.21 5.815 130.51 5.695 130.51 5.485C130.51 5.335 130.315 4.885 130.21 4.645C130.18 4.585 130.165 4.54 130.15 4.51C129.91 3.955 129.79 3.58 129.52 3.58C129.385 3.58 128.5 3.85 128.5 4.165C128.5 4.255 128.56 4.36 128.605 4.45C128.8 4.855 128.98 5.26 129.13 5.68C129.13 5.725 129.145 5.755 129.145 5.8C129.145 5.935 129.07 5.995 128.935 6.01C128.575 6.01 128.215 5.98 127.855 5.98C127.495 5.98 127.51 6.13 127.51 6.685C127.51 7.225 127.51 7.375 127.855 7.375C128.38 7.375 128.89 7.33 129.4 7.33H133.21C133.72 7.33 134.245 7.375 134.755 7.375C135.1 7.375 135.1 7.21 135.1 6.685C135.1 6.145 135.115 5.98 134.755 5.98C134.365 5.98 133.975 6.01 133.585 6.01C133.465 6.01 133.36 5.935 133.36 5.8C133.36 5.755 133.375 5.71 133.39 5.665C133.555 5.32 133.72 4.975 133.9 4.63C133.96 4.54 134.02 4.51 134.125 4.51C134.26 4.495 134.395 4.495 134.395 4.33C134.395 4.165 134.11 4.075 133.78 3.94C133.615 3.865 133.015 3.58 132.895 3.58C132.775 3.58 132.715 3.715 132.685 3.82C132.43 4.48 132.19 5.035 131.89 5.68C131.725 5.95 131.605 6.01 131.29 6.01H130.075ZM132.055 1.72C132.04 1.39 132.04 1.195 132.235 1.06C132.325 1 132.415 0.94 132.415 0.834999C132.415 0.655 132.145 0.639999 131.98 0.624999C131.695 0.579999 131.08 0.535 130.795 0.535C130.66 0.535 130.54 0.564999 130.54 0.745V0.894999C130.585 1.165 130.6 1.45 130.6 1.72C130.57 2.005 130.465 2.11 130.18 2.11H129.79C129.295 2.11 128.8 2.08 128.29 2.08C127.945 2.08 127.96 2.245 127.96 2.785C127.96 3.355 127.945 3.49 128.305 3.49C128.8 3.49 129.295 3.46 129.79 3.46H132.97C133.465 3.46 133.96 3.49 134.47 3.49C134.815 3.49 134.8 3.325 134.8 2.785C134.8 2.26 134.83 2.08 134.47 2.08C133.975 2.08 133.465 2.11 132.97 2.11H132.475C132.19 2.11 132.055 2.005 132.055 1.72ZM151.165 4.27C151.195 4.165 151.255 4.135 151.345 4.075C151.435 4.015 151.54 3.97 151.54 3.85C151.54 3.715 151.405 3.67 151.285 3.655C151.075 3.625 150.085 3.565 149.86 3.565C149.695 3.565 149.575 3.61 149.575 3.805C149.575 3.91 149.605 4.12 149.605 4.255C149.62 4.555 149.5 4.675 149.2 4.675H147.385C146.95 4.675 146.53 4.675 146.095 4.66C145.825 4.645 145.72 4.51 145.69 4.255C145.675 4.18 145.675 4.105 145.675 4.03V3.865C145.675 3.58 145.795 3.445 146.095 3.445H154.675C154.96 3.445 155.095 3.58 155.095 3.865V4.105C155.095 4.165 155.095 4.21 155.08 4.27C155.035 4.555 154.945 4.645 154.66 4.66C154.225 4.69 153.775 4.675 153.34 4.675H151.555C151.36 4.675 151.18 4.63 151.15 4.405V4.315L151.165 4.27ZM145.39 5.38C145.405 5.785 145.39 5.98 145.75 5.98C146.305 5.98 146.845 5.935 147.385 5.935H149.275C149.515 5.935 149.62 6.04 149.62 6.295V6.445C149.62 6.685 149.515 6.79 149.275 6.79H147.88C147.325 6.79 146.77 6.76 146.215 6.76C145.855 6.76 145.87 6.94 145.87 7.42C145.87 7.915 145.855 8.065 146.23 8.065C146.785 8.065 147.325 8.035 147.88 8.035H149.125C149.32 8.035 149.485 8.125 149.485 8.335V8.44C149.47 8.485 149.47 8.515 149.455 8.56C149.395 8.815 149.275 8.89 149.02 8.89H145.81C145.24 8.89 144.655 8.86 144.07 8.86C143.725 8.86 143.725 9.025 143.725 9.52C143.725 10 143.725 10.18 144.07 10.18C144.655 10.18 145.24 10.15 145.81 10.15H148.435C148.54 10.15 148.66 10.195 148.66 10.33C148.66 10.39 148.645 10.435 148.615 10.465C147.7 11.575 145.96 12.265 144.565 12.43C144.19 12.475 143.86 12.46 143.86 12.805C143.86 13.06 144.085 13.9 144.535 13.9C144.685 13.9 145.06 13.84 145.225 13.81C146.965 13.45 149.14 12.43 150.145 10.9C150.205 10.825 150.265 10.765 150.37 10.765C150.46 10.765 150.52 10.81 150.58 10.87C151.39 11.98 152.485 12.745 153.73 13.27C154.195 13.465 155.635 13.975 156.085 13.975C156.535 13.975 156.835 13.195 156.835 12.85C156.835 12.58 156.655 12.55 156.355 12.49C154.885 12.22 153.115 11.545 152.05 10.45C152.02 10.405 151.99 10.375 151.99 10.315C151.99 10.195 152.11 10.15 152.2 10.15H154.9C155.485 10.15 156.07 10.18 156.64 10.18C157 10.18 156.985 10.015 156.985 9.52C156.985 9.025 157 8.86 156.64 8.86C156.07 8.86 155.485 8.89 154.9 8.89H151.36C151.165 8.89 151.015 8.8 151.015 8.575V8.485C151.015 8.455 151.03 8.41 151.03 8.365C151.075 8.125 151.195 8.035 151.435 8.035H152.875C153.43 8.035 153.97 8.065 154.525 8.065C154.9 8.065 154.885 7.915 154.885 7.42C154.885 6.94 154.9 6.76 154.54 6.76C153.985 6.76 153.43 6.79 152.875 6.79H151.48C151.24 6.79 151.135 6.685 151.135 6.445V6.295C151.135 6.04 151.24 5.935 151.48 5.935H153.34C153.88 5.935 154.435 5.98 154.975 5.98C155.35 5.98 155.32 5.77 155.335 5.44C155.35 5.23 155.44 5.14 155.665 5.14H155.935C156.46 5.14 156.655 5.11 156.655 4.78C156.655 4.585 156.61 4.315 156.61 4.105V3.565C156.61 3.22 156.64 2.875 156.64 2.71C156.64 2.185 156.205 2.08 155.77 2.08C155.23 2.08 154.675 2.11 154.12 2.11H151.6C151.33 2.11 151.18 1.99 151.18 1.705C151.165 1.39 151.18 1.18 151.36 1.045C151.465 0.955 151.54 0.924999 151.54 0.834999C151.54 0.655 151.255 0.655 151.12 0.639999C150.79 0.609999 150.115 0.549999 149.8 0.549999C149.65 0.549999 149.515 0.564999 149.515 0.745C149.515 0.79 149.515 0.834999 149.53 0.88C149.575 1.135 149.59 1.45 149.59 1.705C149.56 1.99 149.455 2.11 149.17 2.11H146.635C146.095 2.11 145.615 2.08 145.225 2.08C144.535 2.08 144.13 2.17 144.13 2.71C144.13 2.89 144.145 3.235 144.145 3.565V4.03C144.145 4.255 144.115 4.495 144.115 4.72C144.115 5.08 144.355 5.065 144.925 5.065H145.06C145.3 5.065 145.375 5.17 145.39 5.38ZM164.8 1.285C164.8 1.15 164.62 1.03 164.53 0.984999C164.485 0.955 164.41 0.909999 164.305 0.849999C164.02 0.67 163.585 0.399999 163.45 0.399999C163.345 0.399999 163.285 0.504999 163.225 0.595C162.535 1.57 161.215 2.845 160.225 3.52C160.105 3.595 159.97 3.685 159.97 3.85C159.97 4.105 160.525 4.735 160.765 4.735C160.93 4.735 161.155 4.555 161.29 4.465C162.37 3.67 163.33 2.71 164.155 1.645C164.32 1.45 164.335 1.435 164.53 1.435C164.62 1.435 164.8 1.405 164.8 1.285ZM170.545 2.68C171.04 2.68 171.55 2.71 172.06 2.71C172.465 2.71 172.435 2.485 172.435 1.96C172.435 1.435 172.465 1.195 172.06 1.195C171.55 1.195 171.04 1.24 170.545 1.24H167.875C167.365 1.24 166.855 1.195 166.345 1.195C165.955 1.195 165.97 1.42 165.97 1.96C165.97 2.5 165.955 2.71 166.345 2.71C166.855 2.71 167.365 2.68 167.875 2.68H170.545ZM168.925 6.505C169.225 6.505 169.345 6.625 169.345 6.925V11.26C169.345 12.055 169.39 12.355 168.52 12.355C168.355 12.355 168.145 12.34 167.98 12.325C167.89 12.31 167.77 12.295 167.68 12.295C167.44 12.295 167.395 12.52 167.395 12.715C167.395 13 167.485 13.465 167.62 13.705C167.755 13.93 168.115 13.915 168.325 13.915C169.435 13.915 170.95 13.84 170.95 12.385C170.95 12.01 170.92 11.65 170.92 11.275V6.925C170.92 6.625 171.04 6.505 171.34 6.505H171.385C171.94 6.505 172.51 6.535 173.065 6.535C173.44 6.535 173.44 6.355 173.44 5.785C173.44 5.215 173.44 5.035 173.065 5.035C172.495 5.035 171.94 5.065 171.385 5.065H167.32C166.75 5.065 166.195 5.035 165.64 5.035C165.25 5.035 165.265 5.23 165.265 5.785C165.265 6.34 165.25 6.535 165.64 6.535C166.195 6.535 166.75 6.505 167.32 6.505H168.925ZM163.54 6.715C164.05 6.115 164.56 5.485 164.98 4.84C165.1 4.66 165.115 4.6 165.325 4.54C165.43 4.525 165.595 4.48 165.595 4.345C165.595 4.195 165.4 4.09 165.28 4.03C165.25 4.015 165.205 3.985 165.145 3.955C164.86 3.79 164.335 3.505 164.2 3.505C164.11 3.505 164.05 3.565 164.005 3.64C163.24 5.005 161.485 6.955 160.225 7.855C160.075 7.96 159.895 8.065 159.895 8.275C159.895 8.56 160.435 9.25 160.705 9.25C161.02 9.25 161.635 8.65 161.875 8.425C161.92 8.395 161.95 8.365 162.01 8.365C162.13 8.365 162.16 8.47 162.175 8.56V11.92C162.175 12.43 162.13 12.925 162.13 13.42C162.13 13.885 162.34 13.87 162.91 13.87C163.48 13.87 163.675 13.885 163.675 13.42C163.675 12.925 163.63 12.43 163.63 11.92V8.485C163.63 7.735 163.615 7.45 163.795 7.3C163.9 7.21 163.96 7.18 163.96 7.09C163.96 6.91 163.735 6.91 163.615 6.895C163.54 6.88 163.495 6.85 163.495 6.79C163.495 6.76 163.525 6.73 163.54 6.715ZM182.185 5.29C182.17 5.56 182.155 5.95 182.155 6.205C182.155 6.7 182.305 6.715 182.95 6.715C183.58 6.715 183.745 6.7 183.745 6.205C183.745 6.04 183.715 5.44 183.715 5.26C183.715 5.17 183.76 5.08 183.865 5.08C183.925 5.08 183.955 5.11 184 5.14C185.035 6.055 186.205 6.775 187.48 7.33C187.69 7.42 188.47 7.75 188.665 7.75C188.935 7.75 189.355 7.18 189.355 6.82C189.355 6.61 189.235 6.565 188.8 6.43C187.675 6.085 186.31 5.38 185.38 4.675C185.335 4.645 185.305 4.615 185.305 4.555C185.305 4.465 185.395 4.435 185.47 4.42H187.42C188.02 4.42 188.62 4.45 189.205 4.45C189.565 4.45 189.565 4.33 189.565 3.82C189.565 3.325 189.565 3.175 189.205 3.175C188.62 3.175 188.02 3.205 187.42 3.205H184.12C183.82 3.205 183.7 3.085 183.7 2.785V2.62C183.7 2.335 183.805 2.215 184.09 2.17C184.78 2.08 185.47 1.99 186.145 1.87C186.34 1.84 187.36 1.645 187.45 1.645C187.51 1.645 187.615 1.66 187.675 1.69C187.72 1.705 187.81 1.735 187.855 1.735C187.93 1.735 187.99 1.675 187.99 1.6C187.99 1.45 187.735 1.165 187.465 0.88C187.405 0.805 187.345 0.745 187.3 0.699999C187.105 0.489999 187.03 0.385 186.925 0.385C186.835 0.385 186.73 0.445 186.655 0.474999C186.505 0.535 186.34 0.595 186.175 0.624999C184.18 1.075 181.555 1.27 179.5 1.27C178.93 1.27 178.36 1.225 177.79 1.225C177.58 1.225 177.415 1.285 177.415 1.525C177.415 1.72 177.505 2.065 177.595 2.23C177.7 2.455 177.925 2.47 178.135 2.47C179.38 2.47 180.625 2.425 181.855 2.35C182.095 2.335 182.2 2.455 182.2 2.695V2.86C182.2 3.1 182.08 3.205 181.84 3.205H178.495C177.91 3.205 177.31 3.175 176.725 3.175C176.365 3.175 176.365 3.31 176.365 3.82C176.365 4.33 176.365 4.45 176.71 4.45C177.31 4.45 177.91 4.42 178.495 4.42H180.46C180.535 4.435 180.61 4.465 180.61 4.555C180.61 4.6 180.595 4.645 180.55 4.675C179.5 5.44 178.285 6.055 177.055 6.475C176.71 6.595 176.545 6.64 176.545 6.805C176.545 7.09 177.04 7.78 177.385 7.78C177.565 7.78 177.895 7.63 178.06 7.555C179.455 6.97 180.745 6.145 181.9 5.155C181.93 5.125 181.975 5.11 182.035 5.11C182.14 5.11 182.185 5.2 182.185 5.29ZM184.03 10.765C183.91 10.885 183.79 10.945 183.625 10.945C183.535 10.945 183.46 10.93 183.37 10.915C182.725 10.75 182.065 10.57 181.405 10.42C181.285 10.375 181.195 10.315 181.195 10.18C181.195 10.105 181.225 10.06 181.255 10C181.36 9.865 181.45 9.715 181.555 9.58C181.735 9.325 181.855 9.28 182.17 9.28H184.6C184.66 9.28 184.885 9.295 184.885 9.505C184.885 9.565 184.87 9.595 184.855 9.64C184.645 10.06 184.36 10.435 184.03 10.765ZM187.3 9.28C187.915 9.28 188.53 9.31 189.145 9.31C189.565 9.31 189.565 9.175 189.565 8.68C189.565 8.17 189.58 8.035 189.145 8.035C188.53 8.035 187.915 8.065 187.3 8.065H182.92C182.785 8.05 182.665 8.005 182.665 7.855C182.665 7.795 182.68 7.765 182.695 7.72C182.755 7.615 182.83 7.48 182.95 7.45C183.07 7.42 183.31 7.39 183.31 7.24C183.31 7.105 183.13 7.03 183.025 7C182.815 6.94 181.87 6.625 181.735 6.625C181.615 6.625 181.555 6.745 181.435 7C181.345 7.18 181.24 7.42 181.045 7.735C180.88 8.005 180.73 8.065 180.43 8.065H178.63C178.015 8.065 177.4 8.035 176.785 8.035C176.35 8.035 176.365 8.17 176.365 8.68C176.365 9.16 176.35 9.31 176.785 9.31C177.4 9.31 178.015 9.28 178.63 9.28H179.59C179.695 9.28 179.815 9.325 179.815 9.46C179.815 9.52 179.8 9.55 179.77 9.595C179.53 9.91 179.125 10.42 178.855 10.735C178.78 10.825 178.57 11.035 178.57 11.155C178.57 11.485 179.485 11.755 179.755 11.755C179.875 11.755 179.98 11.68 180.055 11.59C180.205 11.47 180.31 11.365 180.505 11.365C180.565 11.365 180.625 11.38 180.67 11.395C181.12 11.485 181.57 11.62 182.02 11.74C182.08 11.77 182.125 11.8 182.125 11.875C182.125 11.95 182.08 11.98 182.02 12.01C180.97 12.34 179.2 12.565 178.09 12.565C177.85 12.565 177.625 12.55 177.385 12.55C177.28 12.55 177.1 12.535 177.1 12.895C177.1 13.12 177.205 13.405 177.31 13.615C177.43 13.855 177.55 13.915 177.82 13.915C179.515 13.915 182.32 13.465 183.775 12.595C183.91 12.52 184.03 12.46 184.18 12.46C184.285 12.46 184.36 12.475 184.45 12.505C185.53 12.865 186.595 13.3 187.63 13.78C187.765 13.84 187.96 13.93 188.095 13.93C188.425 13.93 188.86 13.195 188.86 12.955C188.86 12.745 188.59 12.655 188.425 12.58C187.525 12.205 186.58 11.86 185.635 11.575C185.545 11.53 185.455 11.47 185.455 11.35C185.455 11.26 185.47 11.23 185.53 11.155C185.815 10.825 186.04 10.51 186.265 10.135C186.34 10.015 186.37 9.925 186.49 9.895C186.61 9.88 186.835 9.85 186.835 9.685C186.835 9.535 186.475 9.445 186.295 9.385C186.265 9.37 186.25 9.355 186.25 9.325C186.25 9.295 186.295 9.28 186.325 9.28H187.3ZM196.525 2.5C196.555 2.245 196.69 2.11 196.945 2.08H201.565C201.82 2.11 201.955 2.245 201.985 2.5V2.635C201.955 2.89 201.82 3.025 201.565 3.055H196.945C196.69 3.025 196.555 2.89 196.525 2.635V2.5ZM203.5 2.2C203.5 1.945 203.515 1.705 203.515 1.45C203.515 0.969999 203.215 0.88 202.795 0.88C202.42 0.88 202.03 0.909999 201.655 0.909999H196.855C196.48 0.909999 196.09 0.88 195.7 0.88C195.28 0.88 194.995 0.969999 194.995 1.45C194.995 1.705 195.025 1.945 195.025 2.2V2.935C195.025 3.175 194.995 3.43 194.995 3.685C194.995 4.18 195.31 4.255 195.73 4.255C196.105 4.255 196.48 4.225 196.855 4.225H201.655C202.045 4.225 202.42 4.255 202.81 4.255C203.23 4.255 203.515 4.165 203.515 3.685C203.515 3.43 203.5 3.175 203.5 2.935V2.2ZM202.405 9.475C202.615 9.475 202.765 9.625 202.765 9.835V9.97C202.765 10.18 202.615 10.315 202.405 10.315H196.045C195.82 10.315 195.685 10.18 195.685 9.97V9.835C195.685 9.625 195.82 9.475 196.045 9.475H202.405ZM202.405 7.75C202.615 7.75 202.765 7.9 202.765 8.11V8.2C202.765 8.41 202.615 8.56 202.405 8.56H196.045C195.82 8.56 195.685 8.41 195.685 8.2V8.11C195.685 7.9 195.82 7.75 196.045 7.75H202.405ZM202.765 6.475C202.765 6.685 202.615 6.835 202.405 6.835H196.045C195.82 6.835 195.685 6.685 195.685 6.475V6.37C195.685 6.16 195.82 6.01 196.045 6.01H202.405C202.615 6.01 202.765 6.16 202.765 6.37V6.475ZM200.635 11.695C200.56 11.8 200.335 12.07 200.335 12.205C200.335 12.325 200.425 12.385 200.56 12.46C201.1 12.775 201.835 13.09 202.435 13.315C202.945 13.495 204.595 14.02 205.06 14.02C205.435 14.02 205.72 13.165 205.72 12.985C205.72 12.76 205.525 12.73 205.36 12.7C204.145 12.475 202.945 12.145 201.82 11.62C201.79 11.605 201.76 11.575 201.76 11.53C201.76 11.455 201.82 11.44 201.88 11.44H202.09C202.54 11.44 202.99 11.455 203.44 11.455C203.905 11.455 204.34 11.395 204.34 10.825C204.34 10.495 204.31 10.18 204.31 9.85V6.475C204.31 6.16 204.34 5.83 204.34 5.5C204.34 4.93 203.89 4.885 203.425 4.885C202.99 4.885 202.54 4.9 202.09 4.9H196.345C195.895 4.9 195.445 4.885 195.01 4.885C194.545 4.885 194.095 4.945 194.095 5.515C194.095 5.83 194.125 6.16 194.125 6.475V9.85C194.125 10.18 194.095 10.495 194.095 10.825C194.095 11.395 194.545 11.455 195.01 11.455C195.46 11.455 195.895 11.44 196.345 11.44H196.465C196.525 11.44 196.585 11.455 196.585 11.53C196.585 11.575 196.555 11.605 196.51 11.62C195.61 12.055 194.215 12.415 193.21 12.535C192.835 12.58 192.67 12.595 192.67 12.79C192.67 12.955 192.88 13.9 193.39 13.9C194.005 13.9 196.105 13.225 196.72 12.97C196.96 12.865 197.62 12.55 197.785 12.55C197.83 12.55 197.89 12.565 197.935 12.565C197.98 12.58 198.055 12.595 198.1 12.595C198.19 12.595 198.25 12.55 198.25 12.46C198.25 12.325 197.875 11.875 197.77 11.74C197.74 11.695 197.725 11.665 197.725 11.605C197.725 11.485 197.83 11.44 197.935 11.44H200.515C200.605 11.44 200.68 11.47 200.68 11.575C200.68 11.62 200.665 11.65 200.635 11.695ZM210.91 6.985C210.355 7 209.815 6.955 209.26 6.955C208.915 6.955 208.915 7.105 208.915 7.63C208.915 8.14 208.915 8.305 209.26 8.305C209.815 8.305 210.355 8.26 210.91 8.275C211.195 8.275 211.33 8.395 211.33 8.695V11.53C211.3 11.815 211.225 11.965 210.94 12.01C210.55 12.085 210.235 12.085 209.995 12.115C209.44 12.16 209.29 12.19 209.29 12.385C209.29 12.49 209.425 13.03 209.455 13.15C209.485 13.255 209.515 13.36 209.53 13.435C209.635 13.81 209.665 13.96 209.83 13.96C209.935 13.96 209.98 13.9 210.025 13.81C210.115 13.615 210.16 13.585 210.49 13.54C212.26 13.285 214.015 12.955 215.74 12.505C216.115 12.415 216.235 12.37 216.235 11.875C216.235 11.545 216.265 11.095 215.935 11.095C215.845 11.095 214.15 11.455 213.295 11.62C213.265 11.62 213.235 11.635 213.19 11.635C212.98 11.635 212.89 11.47 212.89 11.275V8.695C212.89 8.395 213.025 8.275 213.31 8.275H214.66C214.96 8.275 215.08 8.35 215.2 8.65C215.905 10.33 217.195 11.755 218.695 12.76C219.115 13.045 220.84 14.035 221.26 14.035C221.59 14.035 222.13 13.195 222.13 12.895C222.13 12.715 221.92 12.655 221.785 12.595C220.84 12.22 219.91 11.74 219.07 11.125C219.01 11.065 218.965 11.005 218.965 10.915C218.965 10.825 219.025 10.75 219.085 10.69C219.325 10.525 219.565 10.345 219.79 10.18C219.97 10.045 220.195 9.85 220.375 9.73C220.42 9.7 220.45 9.67 220.525 9.67C220.57 9.67 220.645 9.685 220.69 9.7C220.735 9.715 220.765 9.73 220.795 9.73C220.885 9.73 220.945 9.655 220.945 9.565C220.945 9.385 219.835 8.395 219.685 8.395C219.595 8.395 219.52 8.5 219.4 8.62C219.115 8.935 218.515 9.49 218.185 9.76C218.095 9.82 218.005 9.88 217.9 9.88C217.765 9.88 217.675 9.805 217.6 9.715C217.315 9.385 217.06 9.01 216.85 8.62C216.82 8.575 216.805 8.545 216.805 8.485C216.805 8.335 216.94 8.29 217.075 8.275H219.955C220.555 8.275 221.17 8.305 221.77 8.305C222.115 8.305 222.115 8.14 222.115 7.63C222.115 7.12 222.115 6.955 221.77 6.955C221.155 6.955 220.555 6.985 219.955 6.985H213.25C213.01 6.985 212.89 6.88 212.89 6.625V6.52C212.89 6.265 213.01 6.16 213.25 6.16H217.6C218.125 6.16 218.65 6.19 219.19 6.19C219.505 6.19 219.505 6.055 219.505 5.59C219.505 5.11 219.505 4.975 219.19 4.975C218.65 4.975 218.125 5.005 217.6 5.005H213.25C213.01 5.005 212.89 4.9 212.89 4.66V4.57C212.89 4.33 213.01 4.225 213.25 4.225H217.54C218.095 4.225 218.65 4.255 219.205 4.255C219.505 4.255 219.52 4.135 219.52 3.655C219.52 3.16 219.505 3.04 219.205 3.04C218.65 3.04 218.095 3.07 217.54 3.07H213.25C213.01 3.07 212.89 2.965 212.89 2.71V2.635C212.89 2.395 213.01 2.29 213.25 2.29H218.965C219.4 2.29 219.835 2.32 220.27 2.32C220.6 2.32 220.6 2.185 220.6 1.675C220.6 1.15 220.6 1.03 220.27 1.03C219.835 1.03 219.4 1.06 218.965 1.06H213.175C212.785 1.06 212.41 1.03 212.035 1.03C211.555 1.03 211.3 1.18 211.3 1.705C211.3 2.02 211.33 2.365 211.33 2.755V6.565C211.33 6.85 211.195 6.985 210.91 6.985ZM20.41 42.6C19.73 42.6 19.37 42.36 19.33 41.6C19.33 40.84 19.29 40.28 19.77 39.96C20.01 39.76 20.25 39.64 20.25 39.4C20.25 38.92 19.41 38.92 19.09 38.88C18.25 38.8 16.45 38.64 15.65 38.64C15.25 38.64 14.89 38.72 14.89 39.2C14.89 39.28 14.93 39.44 14.93 39.52C15.01 40.2 15.05 40.88 15.09 41.52C15.05 42.32 14.69 42.6 13.97 42.6H6.97C5.65 42.6 4.49 42.52 3.53 42.52C1.57 42.52 0.49 42.76 0.49 44.12C0.49 44.6 0.53 45.28 0.53 46.2V48.2C0.53 48.76 0.45 49.36 0.45 49.84C0.45 50.8 1.05 50.72 2.53 50.72C3.85 50.72 4.57 50.8 4.57 49.88C4.57 49.52 4.49 48.68 4.49 48.2V47.2C4.49 46.44 4.81 46.08 5.61 46.08H28.85C29.61 46.08 29.93 46.44 29.93 47.2V48.36C29.93 48.92 29.85 49.48 29.85 50.04C29.85 50.92 30.57 50.88 31.93 50.88C33.41 50.88 34.05 50.92 34.05 50C34.05 49.6 33.97 48.84 33.97 48.36V46.2C33.97 45.36 34.05 44.6 34.05 44.12C34.05 42.84 32.93 42.56 31.85 42.56C30.41 42.56 28.97 42.6 27.53 42.6H20.41ZM8.97 69.36C8.29 69.28 7.93 68.92 7.85 68.24V66.24C7.93 65.56 8.29 65.2 8.97 65.12H25.37C26.05 65.2 26.41 65.56 26.49 66.24V68.24C26.41 68.92 26.05 69.28 25.37 69.36H8.97ZM11.89 55.64C11.21 55.56 10.85 55.2 10.77 54.52V53.4C10.85 52.72 11.21 52.36 11.89 52.28H22.53C23.21 52.36 23.57 52.72 23.65 53.4V54.52C23.57 55.2 23.21 55.56 22.53 55.64H11.89ZM17.29 60.8C17.41 60.48 17.57 60.12 17.69 59.8C18.01 59.08 18.37 58.84 19.17 58.84H23.05C23.41 58.88 23.49 59.08 23.61 59.36C23.85 59.8 24.21 59.8 25.53 59.8C27.09 59.8 27.69 59.88 27.69 58.92C27.69 58.56 27.61 57.36 27.61 56.56V52.76C27.61 52 27.65 51.28 27.65 50.52C27.65 49.04 26.41 48.84 25.21 48.84C24.17 48.84 23.17 48.92 22.13 48.92H12.29C11.29 48.92 10.25 48.84 9.25 48.84C8.05 48.84 6.77 49 6.77 50.56C6.77 51.28 6.81 52 6.81 52.76V56.48C6.81 57.16 6.73 58.4 6.73 58.88C6.73 59.8 7.37 59.76 8.85 59.76C10.21 59.76 10.57 59.72 10.77 59.28C10.89 59.04 10.97 58.88 11.29 58.84H12.77C13.17 58.88 13.53 59 13.53 59.52C13.53 59.64 13.49 59.76 13.45 59.88C13.33 60.2 13.17 60.52 13.05 60.84C12.65 61.6 12.29 61.76 11.49 61.76H9.81C8.65 61.76 7.49 61.68 6.33 61.68C5.09 61.68 3.77 61.88 3.77 63.44C3.77 64.2 3.81 64.92 3.81 65.68V71.32C3.81 72 3.73 73.16 3.73 73.64C3.73 74.6 4.37 74.56 5.81 74.56C7.33 74.56 7.97 74.6 7.97 73.68C7.97 73.6 7.97 73.52 7.93 73.48C7.97 72.96 8.17 72.76 8.69 72.76H25.69C26.21 72.76 26.37 72.96 26.41 73.52C26.41 73.6 26.37 73.72 26.37 73.8C26.37 74.52 26.93 74.6 27.81 74.6H28.57C30.01 74.6 30.69 74.68 30.69 73.72C30.69 73.4 30.61 72.16 30.61 71.36V65.68C30.61 64.92 30.65 64.2 30.65 63.44C30.65 61.88 29.33 61.68 28.09 61.68C26.93 61.68 25.77 61.76 24.61 61.76H17.97C17.57 61.76 17.21 61.6 17.21 61.16C17.21 61.04 17.25 60.92 17.29 60.8ZM63.29 54.48C65.45 58.24 68.05 61.72 71.05 64.84C71.81 65.64 75.25 69.08 76.13 69.08C77.09 69.08 78.61 67.16 78.61 66.24C78.61 65.76 78.13 65.48 77.61 65.12C72.93 61.64 68.53 56.76 65.65 51.68C65.61 51.56 65.57 51.44 65.57 51.32C65.57 50.92 65.93 50.8 66.25 50.76H72.37C73.93 50.76 75.49 50.84 77.05 50.84C78.05 50.84 78.01 50.4 78.01 48.88C78.01 47.4 78.05 46.92 77.05 46.92C75.49 46.92 73.93 47.04 72.37 47.04H63.85C63.09 46.96 62.77 46.68 62.77 45.92V42.56C62.77 41.32 62.81 40.52 63.21 40.2C63.53 39.96 63.73 39.84 63.73 39.56C63.73 39.16 63.17 39.12 62.89 39.08C62.13 39 59.73 38.84 59.09 38.84C58.69 38.84 58.37 38.92 58.37 39.4C58.37 39.52 58.37 39.64 58.41 39.76C58.53 40.6 58.53 41.6 58.53 42.64V45.92C58.53 46.68 58.21 47.04 57.41 47.04H48.97C47.41 47.04 45.85 46.92 44.29 46.92C43.29 46.92 43.33 47.4 43.33 48.92C43.33 50.36 43.29 50.84 44.29 50.84C45.85 50.84 47.41 50.76 48.97 50.76H54.85C55.01 50.76 55.57 50.8 55.57 51.36C55.57 51.48 55.53 51.6 55.49 51.72C52.65 57.08 48.41 62 43.57 65.6C43.25 65.84 42.73 66.2 42.73 66.64C42.73 67.4 44.53 69.32 45.37 69.32C45.85 69.32 46.45 68.8 46.81 68.48C51.73 64.12 54.85 60.12 58.05 54.36C58.09 54.28 58.17 54.2 58.29 54.2C58.45 54.2 58.53 54.32 58.53 54.48V62.64C58.53 63.44 58.21 63.76 57.41 63.76H56.93C55.65 63.76 54.41 63.68 53.17 63.68C52.09 63.68 52.17 64.24 52.17 65.68C52.17 67.04 52.09 67.64 53.17 67.64C54.41 67.64 55.65 67.56 56.93 67.56H57.41C58.17 67.56 58.53 67.84 58.53 68.6C58.57 70.2 58.45 71.8 58.45 73.44C58.45 74.68 58.89 74.72 60.65 74.72C62.41 74.72 62.85 74.68 62.85 73.44C62.85 71.8 62.73 70.2 62.77 68.6C62.77 67.84 63.13 67.56 63.85 67.56H64.41C65.65 67.56 66.93 67.64 68.17 67.64C69.25 67.64 69.17 67.04 69.17 65.68C69.17 64.2 69.25 63.68 68.13 63.68C66.89 63.68 65.65 63.76 64.41 63.76H63.85C63.09 63.76 62.77 63.44 62.77 62.64V54.64C62.77 54.48 62.85 54.32 63.01 54.32C63.13 54.32 63.21 54.4 63.29 54.48ZM130.64 70.88C130.64 70.36 128.68 66.76 128.32 66.08C127.8 65.08 126.84 63.4 126.24 62.48C126.08 62.24 125.88 61.96 125.52 61.96C125.04 61.96 123.04 62.68 123.04 63.36C123.04 63.56 123.16 63.8 123.28 63.96C124.72 66.36 126 68.88 127.12 71.44C127.32 71.88 127.48 72.4 128.04 72.4C128.4 72.4 130.64 71.72 130.64 70.88ZM111 63.96C111 63.6 110.4 63.4 110 63.24C109.52 63.04 107.76 62.28 107.36 62.28C106.96 62.28 106.84 62.68 106.72 63C105.84 65.24 104.56 67.64 103.04 69.48C102.84 69.84 102.16 70.44 102.16 70.84C102.16 71.48 104.32 72.6 104.92 72.6C106.16 72.6 109.28 66.32 109.8 65.08C110 64.64 110.12 64.48 110.48 64.4C110.68 64.36 111 64.24 111 63.96ZM123.72 71.08C123.72 70.56 122.48 67.24 122.24 66.56C121.84 65.48 121.32 64.24 120.84 63.24C120.68 62.92 120.48 62.6 120.08 62.6C119.64 62.6 117.84 63.28 117.84 63.96C117.84 64.2 117.96 64.48 118.04 64.68C119.08 67.2 119.72 69 120.4 71.6C120.52 72.04 120.68 72.56 121.2 72.56C121.56 72.56 123.72 72 123.72 71.08ZM112.6 68.44C112.6 70.08 112.68 70.6 110.84 70.6C110.32 70.6 109.84 70.52 109.36 70.52C108.68 70.52 108.6 70.92 108.6 71.52C108.6 74.76 109.72 74.52 110.76 74.52C112.2 74.52 114.44 74.28 115.48 73.24C116.28 72.44 116.44 71.32 116.44 70.24C116.44 69.44 116.36 68.6 116.36 67.8V61.4C116.36 59.36 116.32 58.88 116.8 58.56C117 58.4 117.28 58.28 117.28 58C117.28 57.68 117 57.56 116.76 57.52C116.2 57.44 113.6 57.24 113.08 57.24C112.72 57.24 112.44 57.36 112.44 57.8C112.44 57.92 112.48 58.08 112.48 58.2C112.56 59.24 112.6 60.28 112.6 61.32V68.44ZM118.6 46.56C119.28 46.56 119.64 46.96 119.72 47.64V49.96C119.64 50.64 119.28 51 118.6 51.08H113.76C113.08 51 112.72 50.64 112.64 49.96V47.64C112.72 46.96 113.08 46.56 113.76 46.56H118.6ZM120.4 55.4C122.4 58.08 124.56 60.32 127.2 62.36C127.96 62.92 131 65.12 131.76 65.12C132.56 65.12 134.08 63.24 134.08 62.48C134.08 62.12 133.56 61.88 133.28 61.72C130.04 60.04 127.44 58.04 124.96 55.36C124.88 55.24 124.8 55.12 124.8 54.96C124.8 54.64 125.12 54.56 125.36 54.52H128.08C129.68 54.52 131.28 54.64 132.92 54.64C133.84 54.64 133.8 54.12 133.8 52.8C133.8 51.44 133.84 50.96 132.92 50.96C131.32 50.96 129.68 51.08 128.08 51.08H124.92C124.12 51.08 123.8 50.76 123.8 49.96V47.64C123.8 46.88 124.12 46.56 124.92 46.56H126.16C127.72 46.56 129.24 46.64 130.76 46.64C131.72 46.64 131.64 46.12 131.64 44.84C131.64 43.56 131.72 43.04 130.76 43.04C129.24 43.04 127.72 43.12 126.16 43.12H124.92C124.12 43.12 123.88 42.8 123.8 42.04V41.56C123.8 40.84 123.84 40.4 124.24 40.12C124.44 40 124.76 39.84 124.76 39.56C124.76 39.16 124.32 39.12 124.04 39.08C123.44 39.04 120.72 38.84 120.2 38.84C119.84 38.84 119.56 38.92 119.56 39.36V39.76C119.68 40.56 119.76 41.24 119.72 42.04C119.72 42.8 119.4 43.12 118.6 43.12H113.76C113 43.12 112.68 42.84 112.68 42.08C112.64 40.92 112.64 40.36 113.08 40.08C113.36 39.88 113.6 39.8 113.6 39.48C113.6 39.12 113.12 39.08 112.88 39.04C112.28 39 109.56 38.76 109.04 38.76C108.68 38.76 108.4 38.88 108.4 39.32C108.4 39.44 108.44 39.56 108.44 39.68C108.56 40.48 108.6 41.24 108.56 42.04C108.56 42.8 108.24 43.12 107.44 43.12H106.12C104.6 43.12 103.08 43.04 101.56 43.04C100.6 43.04 100.64 43.52 100.64 44.84C100.64 46.16 100.6 46.64 101.56 46.64C103.08 46.64 104.6 46.56 106.12 46.56H107.44C108.24 46.56 108.56 46.88 108.56 47.64V49.96C108.56 50.76 108.24 51.08 107.44 51.08H104.28C102.64 51.08 101.04 50.96 99.4 50.96C98.52 50.96 98.52 51.48 98.52 52.8C98.52 54.16 98.48 54.64 99.44 54.64C101.04 54.64 102.68 54.52 104.28 54.52H107.08C107.36 54.56 107.64 54.64 107.64 55C107.64 55.12 107.56 55.24 107.48 55.36C105.2 57.96 102.48 60 99.44 61.64C98.6 62.08 98.4 62.24 98.4 62.6C98.4 63.4 99.68 65.32 100.44 65.32C100.96 65.32 103 64 103.48 63.68C106.8 61.44 109.72 58.64 111.96 55.36C112.52 54.68 112.76 54.52 113.64 54.52H118.72C119.6 54.52 119.88 54.68 120.4 55.4ZM164.04 71.12C164.04 70.56 162.24 68.52 161.8 68C159.72 65.6 159.28 65.28 158.88 65.28C158.4 65.28 156.32 66.84 156.32 67.44C156.32 67.76 156.68 68.12 156.88 68.36C157.84 69.36 159.84 71.84 160.12 72.28C160.56 73.04 161 73.4 161.32 73.4C161.96 73.4 164.04 71.8 164.04 71.12ZM156.8 54.12C156.08 56.44 155.36 58.44 154.04 60.52C151.32 64.84 147.04 68.04 142.48 70.28C142.12 70.44 141.76 70.6 141.76 71.08C141.76 71.96 143.16 74.32 144.16 74.32C144.92 74.32 147.28 72.72 148 72.24C153.04 68.8 157.32 64.72 159.44 58.84C159.52 58.68 159.64 58.52 159.84 58.52C160.04 58.52 160.16 58.64 160.24 58.8C162.24 63.36 164.64 66.64 168.36 69.92C169.32 70.8 173.68 74.28 174.76 74.28C175.68 74.28 177.36 72.24 177.36 71.32C177.36 70.92 176.92 70.72 176.6 70.52C172.84 68.4 169.56 65.64 166.92 62.2C165.16 59.88 163.44 56.84 162.48 54.08C162.48 54 162.44 53.88 162.44 53.76C162.44 53.24 162.84 53.08 163.28 53.08H171.8C173.36 53.08 174.88 53.16 176.44 53.16C177.4 53.16 177.36 52.64 177.36 51.12C177.36 49.6 177.44 49.08 176.44 49.08C174.88 49.08 173.36 49.16 171.8 49.16H162.88C162.12 49.16 161.8 48.84 161.8 48.04V42.08C161.8 40.72 161.84 40.32 162.36 40C162.6 39.88 162.88 39.72 162.88 39.44C162.88 39.04 162.52 38.92 162.2 38.88C161.64 38.8 158.84 38.6 158.28 38.6C157.8 38.6 157.48 38.76 157.48 39.28C157.48 39.4 157.52 39.6 157.52 39.72C157.68 40.68 157.64 41.6 157.64 42.52V48.04C157.64 48.84 157.28 49.16 156.48 49.16H147.56C146.04 49.16 144.48 49.08 142.96 49.08C141.96 49.08 142.04 49.6 142.04 51.12C142.04 52.68 141.96 53.16 142.96 53.16C144.48 53.16 146.04 53.08 147.56 53.08H155.92C156.4 53.08 156.84 53.28 156.84 53.8C156.84 53.92 156.8 54 156.8 54.12ZM214.24 52.4C215 52.4 215.32 52.76 215.32 53.52V56.32C215.32 57.08 215 57.44 214.24 57.44H210.2C209.44 57.44 209.16 57.12 209.12 56.36C209.2 55.44 209.16 54.48 209.2 53.52C209.2 52.76 209.52 52.4 210.32 52.4H214.24ZM210.32 48.72C209.64 48.72 209.28 48.32 209.2 47.6V44.84C209.28 44.16 209.64 43.76 210.32 43.76H214.24C214.92 43.76 215.32 44.16 215.32 44.84V47.6C215.32 48.32 214.92 48.72 214.24 48.72H210.32ZM214.24 61.16C215 61.16 215.32 61.48 215.32 62.28V68.04C215.32 69.92 215.12 70.4 213.08 70.4C212.4 70.4 211.52 70.28 211.12 70.28C210.36 70.28 210.24 70.8 210.24 71.4C210.24 74.52 211.4 74.44 212.48 74.44C216.4 74.44 219.24 73.8 219.24 69.2C219.24 68.2 219.12 67.2 219.12 66.2V45.68C219.12 44.4 219.2 43.08 219.2 41.76C219.2 40.4 218.68 39.96 217.32 39.96C216.32 39.96 215.32 40.04 214.32 40.04H210.2C209.2 40.04 208.2 39.96 207.2 39.96C205.88 39.96 205.32 40.4 205.32 41.72C205.32 43.04 205.4 44.36 205.4 45.68V53.96C205.4 59.96 204.84 66.44 200.92 71.28C200.68 71.6 200.32 72 200.32 72.4C200.32 73.24 202.6 74.44 203.28 74.44C204.04 74.44 205 72.56 205.36 71.92C207.16 68.72 208.04 65.84 208.64 62.2C208.76 61.44 209.12 61.16 209.88 61.16H214.24ZM190.92 53.52C191 52.84 191.32 52.48 192.04 52.4H197C197.68 52.48 198.04 52.84 198.12 53.52V53.96C198.04 54.64 197.68 55 197 55.08H192.04C191.32 55 191 54.64 190.92 53.96V53.52ZM198.12 48.24C198.12 48.8 197.72 49.2 197.16 49.2H191.88C191.32 49.2 190.92 48.8 190.92 48.24V47.64C190.92 47.08 191.32 46.68 191.88 46.68H197.16C197.72 46.68 198.12 47.08 198.12 47.64V48.24ZM187.08 67.4C187.08 68.08 186.92 68.44 186.24 68.64C185 69.04 184.84 69.12 184.84 69.36C184.84 69.8 185.48 71.16 185.68 71.6C185.88 72 186.36 73.2 186.76 73.2C187.04 73.2 187.24 72.88 187.28 72.64C187.36 72.36 187.4 72.24 187.72 72.12C190.84 71 194.48 69.56 197.44 68.16C197.64 68.08 197.8 68.04 198 68.04C198.48 68.04 198.72 68.32 198.88 68.64C199.12 69.08 199.28 69.72 199.84 69.72C200.52 69.72 202.64 68.6 202.64 67.84C202.64 67.16 200.68 63.92 200.2 63.12C199.56 62 198.88 60.88 198.16 59.8C197.96 59.52 197.8 59.28 197.4 59.28C196.92 59.28 194.48 60.16 194.48 60.88C194.48 61.16 194.92 61.8 195.4 62.52C195.68 62.88 195.96 63.28 196.2 63.68C196.28 63.84 196.36 64 196.36 64.2C196.36 64.64 196.08 64.84 195.72 65C194.48 65.56 193.2 66.08 191.92 66.56C191.8 66.6 191.72 66.64 191.56 66.64C191.08 66.64 190.92 66.24 190.92 65.84V59.52C190.92 58.72 191.24 58.4 192.04 58.4H196.8C197.44 58.4 197.76 58.36 197.96 58.8C198.16 59.32 199.44 59.28 199.92 59.28C201.6 59.28 202.04 59.16 202.04 58.2C202.04 57.36 201.92 55.96 201.92 54.72V49.36C201.92 48 202 46.64 202 45.28C202 43.72 201.52 43.16 199.92 43.16C199.16 43.16 198.4 43.28 197.64 43.24C196.92 43.24 196.64 42.92 196.64 42.2C196.6 40.84 196.64 40.32 197.08 39.96C197.44 39.68 197.56 39.6 197.56 39.4C197.56 38.96 196.88 38.92 196.52 38.88C195.84 38.84 193.88 38.64 193.24 38.64C192.84 38.64 192.56 38.76 192.56 39.2V39.6C192.68 40.44 192.76 41.28 192.72 42.16C192.72 42.92 192.4 43.24 191.6 43.24C190.76 43.28 189.92 43.16 189.08 43.16C187.48 43.16 187 43.76 187 45.32C187 46.68 187.08 48.04 187.08 49.36V67.4Z" fill="#3E3E3E"/>
</svg>
